<svg fill="none" height="80" viewBox="0 0 80 80" width="80" xmlns="http://www.w3.org/2000/svg"><path d="m39.6875 57.6141v-19.9266c0-2.6886 2.1864-4.875 4.875-4.875h21.9375v-9.75h-58.5v36.5625c0 2.6922 2.1828 4.875 4.875 4.875h21.9375c0-3.1773 2.039-5.8793 4.875-6.8859z" fill="#fdab76"/><path d="m66.5 23.0625h-58.5v-7.3125c0-2.6922 2.1828-4.875 4.875-4.875h48.75c2.6922 0 4.875 2.1828 4.875 4.875z" fill="#fa541c"/><path d="m17.75 10.875h-4.875c-2.6922 0-4.875 2.1828-4.875 4.875v7.3125h4.875v-7.3125c0-2.6922 2.1828-4.875 4.875-4.875z" fill="#b3200e"/><path d="m12.875 59.625v-36.5625h-4.875v36.5625c0 2.6922 2.1828 4.875 4.875 4.875h4.875c-2.6922 0-4.875-2.1828-4.875-4.875z" fill="#fa541c"/><path d="m25.0625 15.75c-1.3467 0-2.4375-1.0908-2.4375-2.4375v-4.875c0-1.34672 1.0908-2.4375 2.4375-2.4375s2.4375 1.09078 2.4375 2.4375v4.875c0 1.3467-1.0908 2.4375-2.4375 2.4375z" fill="#fdab76"/><path d="m37.25 15.75c-1.3467 0-2.4375-1.0908-2.4375-2.4375v-4.875c0-1.34672 1.0908-2.4375 2.4375-2.4375s2.4375 1.09078 2.4375 2.4375v4.875c0 1.3467-1.0908 2.4375-2.4375 2.4375z" fill="#fdab76"/><path d="m49.4375 15.75c-1.3467 0-2.4375-1.0908-2.4375-2.4375v-4.875c0-1.34672 1.0908-2.4375 2.4375-2.4375s2.4375 1.09078 2.4375 2.4375v4.875c0 1.3467-1.0908 2.4375-2.4375 2.4375z" fill="#fdab76"/><g fill="#770508"><path d="m25.0625 27.9375h4.875v4.875h-4.875z"/><path d="m34.8125 27.9375h4.875v4.875h-4.875z"/><path d="m44.5625 27.9375h4.875v4.875h-4.875z"/><path d="m54.3125 27.9375h4.875v4.875h-4.875z"/><path d="m15.3125 37.6875h4.875v4.875h-4.875z"/></g><path d="m25.0625 37.6875h4.875v4.875h-4.875z" fill="#fa541c"/><path d="m34.8125 37.6875h4.875v4.875h-4.875z" fill="#770508"/><path d="m15.3125 47.4375h4.875v4.875h-4.875z" fill="#770508"/><path d="m25.0625 47.4375h4.875v4.875h-4.875z" fill="#770508"/><path d="m34.8125 47.4375h4.875v4.875h-4.875z" fill="#770508"/><path d="m70.1562 45h-1.2187v-4.875h1.2187c.6728 0 1.2188.546 1.2188 1.2188v2.4374c0 .6728-.546 1.2188-1.2188 1.2188z" fill="#754ffe"/><path d="m70.1562 54.75h-1.2187v-4.875h1.2187c.6728 0 1.2188.546 1.2188 1.2188v2.4374c0 .6728-.546 1.2188-1.2188 1.2188z" fill="#754ffe"/><path d="m70.1562 64.5h-1.2187v-4.875h1.2187c.6728 0 1.2188.546 1.2188 1.2188v2.4374c0 .6728-.546 1.2188-1.2188 1.2188z" fill="#754ffe"/><path d="m44.5625 37.6875c0-1.3467 1.0908-2.4375 2.4375-2.4375h-2.4375c-1.3467 0-2.4375 1.0908-2.4375 2.4375v19.5c.8556 0 1.6733.156 2.4375.4266z" fill="#4027b6"/><path clip-rule="evenodd" d="m42.125 59.625c2.6922 0 4.875 2.1828 4.875 4.875 0 2.0792-1.3065 3.8415-3.1395 4.5423l-1.7355 5.2077-1.7355-5.2077c-1.833-.7008-3.1395-2.4631-3.1395-4.5423 0-2.6922 2.1828-4.875 4.875-4.875zm2.4375 4.875c0 1.3462-1.0913 2.4375-2.4375 2.4375s-2.4375-1.0913-2.4375-2.4375 1.0913-2.4375 2.4375-2.4375 2.4375 1.0913 2.4375 2.4375z" fill="#fa541c" fill-rule="evenodd"/><path clip-rule="evenodd" d="m44.5625 35.25h21.9375c1.3467 0 2.4375 1.0908 2.4375 2.4375v29.25c0 1.3467-1.0908 2.4375-2.4375 2.4375h-18.9406c1.1822-1.3077 1.8781-3.0176 1.8781-4.875 0-4.0328-3.2797-7.3125-7.3125-7.3125v-19.5c0-1.3467 1.0908-2.4375 2.4375-2.4375zm17.0625 4.875h-12.1875v4.875h12.1875z" fill="#b195fe" fill-rule="evenodd"/></svg>