<svg fill="none" height="80" viewBox="0 0 80 80" width="80" xmlns="http://www.w3.org/2000/svg"><path d="m49.3525 75.437c-.631 0-1.1425-.5116-1.1425-1.1426v-2.5566c0-.631.5115-1.1426 1.1425-1.1426s1.1426.5116 1.1426 1.1426v2.5566c0 .631-.5116 1.1426-1.1426 1.1426z" fill="#754ffe"/><path d="m67.8359 75.437c-.631 0-1.1425-.5116-1.1425-1.1426v-2.5566c0-.631.5115-1.1426 1.1425-1.1426s1.1426.5116 1.1426 1.1426v2.5566c0 .631-.5116 1.1426-1.1426 1.1426z" fill="#754ffe"/><path d="m13.8579 75.1323c-.631 0-1.1426-.5115-1.1426-1.1426v-2.5566c0-.631.5116-1.1426 1.1426-1.1426s1.1426.5116 1.1426 1.1426v2.5566c0 .6311-.5116 1.1426-1.1426 1.1426z" fill="#fa541c"/><path d="m44.5688 75.1323c-.631 0-1.1425-.5115-1.1425-1.1426v-2.5566c0-.631.5115-1.1426 1.1425-1.1426.6311 0 1.1426.5116 1.1426 1.1426v2.5566c0 .6311-.5115 1.1426-1.1426 1.1426z" fill="#fa541c"/><path d="m26.4897 41.6993c-.631 0-1.1425-.7091-1.1425-1.584v-3.4761c0-.8749.5115-1.584 1.1425-1.584.6311 0 1.1426.7091 1.1426 1.584v3.4761c0 .8749-.5115 1.584-1.1426 1.584z" fill="#fa541c"/><path d="m36.3511 41.6993c-.631 0-1.1426-.7091-1.1426-1.584v-3.4761c0-.8749.5116-1.584 1.1426-1.584s1.1426.7091 1.1426 1.584v3.4761c0 .8749-.5116 1.584-1.1426 1.584z" fill="#fa541c"/><path d="m50.6675 28.0819c-.631 0-1.1426-.5115-1.1426-1.1425v-17.5147c0-1.57067 1.2779-2.84853 2.8485-2.84853h1.3947c.631 0 1.1426.51157 1.1426 1.14258s-.5116 1.14258-1.1426 1.14258h-1.3947c-.3106 0-.5633.25274-.5633.56337v17.5148c0 .6309-.5116 1.1424-1.1426 1.1424z" fill="#b195fe"/><path d="m65.7349 28.2669c-.631 0-1.1426-.5116-1.1426-1.1426v-17.6996c0-.31063-.2527-.56337-.5633-.56337h-1.2048c-.631 0-1.1426-.51157-1.1426-1.14258s.5116-1.14258 1.1426-1.14258h1.2048c1.5706 0 2.8485 1.27786 2.8485 2.84853v17.6996c0 .631-.5116 1.1426-1.1426 1.1426z" fill="#b195fe"/><path d="m47.7043 71.2807h-24.796l-2.5361-1.5234-2.5361 1.5234h-6.5488c-.9855 0-1.78437-.7988-1.78437-1.7844v-27.3432c0-.9856.79887-1.7844 1.78437-1.7844h6.5488l2.5361 1.5234 2.5361-1.5234h24.796z" fill="#fdab76"/><path d="m37.7969 40.3687h9.9075v30.912h-9.9075z" fill="#fa541c"/><path d="m17.8364 40.3687h5.0721v30.912h-5.0721z" fill="#fa541c"/><path d="m69.7266 71.5215h-23.3055c-2.0273 0-3.6706-1.6435-3.6706-3.6707v-37.1641c0-2.0273 1.6435-3.6706 3.6706-3.6706h23.3055c2.0272 0 3.6706 1.6433 3.6706 3.6706v37.1641c.0001 2.0272-1.6432 3.6707-3.6706 3.6707z" fill="#b195fe"/><path d="m69.7261 27.0161h-4.5703c2.0272 0 3.6705 1.6433 3.6705 3.6706v37.1641c0 2.0272-1.6433 3.6707-3.6705 3.6707h4.5703c2.0272 0 3.6705-1.6435 3.6705-3.6707v-37.1641c.0002-2.0273-1.6431-3.6706-3.6705-3.6706z" fill="#754ffe"/><path d="m37.7993 37.203h-12.6918c-.5947 0-1.0767-.4821-1.0767-1.0767v-2.1423c0-.5948.4821-1.0768 1.0767-1.0768h12.6918c.5947 0 1.0768.4822 1.0768 1.0768v2.1423c0 .5946-.4822 1.0767-1.0768 1.0767z" fill="#b3200e"/><g fill="#754ffe"><path d="m58.0738 47.2211c-.6311 0-1.1426-.5115-1.1426-1.1425v-12.8667c0-.631.5115-1.1426 1.1426-1.1426.631 0 1.1425.5116 1.1425 1.1426v12.8667c0 .6311-.5115 1.1425-1.1425 1.1425z"/><path d="m50.4121 66.5787c-.631 0-1.1426-.5116-1.1426-1.1426v-32.2242c0-.631.5116-1.1426 1.1426-1.1426s1.1426.5116 1.1426 1.1426v32.2242c0 .631-.5116 1.1426-1.1426 1.1426z"/><path d="m58.0738 66.5787c-.6311 0-1.1426-.5116-1.1426-1.1426v-14.7871c0-.631.5115-1.1426 1.1426-1.1426.631 0 1.1425.5116 1.1425 1.1426v14.7871c0 .631-.5115 1.1426-1.1425 1.1426z"/><path d="m65.7354 66.5787c-.631 0-1.1426-.5116-1.1426-1.1426v-32.2242c0-.631.5116-1.1426 1.1426-1.1426s1.1426.5116 1.1426 1.1426v32.2242c0 .631-.5116 1.1426-1.1426 1.1426z"/><path d="m60.7828 4.36475h-5.1621c-1.2537 0-2.2701 1.01628-2.2701 2.27007v2.01246c0 1.25364 1.0163 2.27012 2.2701 2.27012h5.1621c1.2537 0 2.2701-1.01633 2.2701-2.27012v-2.01246c-.0002-1.25364-1.0164-2.27007-2.2701-2.27007z"/></g><path d="m77.8574 76.3853h-75.71482c-.63101 0-1.14258-.5116-1.14258-1.1426s.51157-1.1426 1.14258-1.1426h75.71482c.631 0 1.1426.5116 1.1426 1.1426s-.5116 1.1426-1.1426 1.1426z" fill="#dfe3e8"/></svg>