<svg fill="none" height="80" viewBox="0 0 80 80" width="80" xmlns="http://www.w3.org/2000/svg"><path d="m70.6412 50.331c-.02.202-.0318.4075-.0318.6162 0 3.1205 2.4449 5.6725 5.5227 5.8443.0581.0032.1742.0051.277.006.1066.0008.1924.0876.1924.1942v6.7446c0 3.0713-2.4897 5.5611-5.561 5.5611h-62.49196c-3.07129 0-5.56108-2.4898-5.56108-5.5611v-6.217c0-.3935.29163-.7232.68115-.7776.29067-.0406.57449-.1026.8502-.1847 2.41991-.7198 4.18334-2.9576 4.18334-5.6096 0-1.4446-.52276-2.7655-1.38951-3.7843-.00334-.0049-.00828-.0116-.01496-.0167-.90385-1.0586-2.18082-1.7903-3.62716-1.9935-.39032-.0549-.68322-.3838-.68322-.778v-5.2962c0-3.0713 2.48979-5.5611 5.56108-5.5611h62.49352c3.0705 0 5.5595 2.489 5.5595 5.5595v5.827c0 .1062-.0869.1931-.1929.193-.0354 0-.0656 0-.0806.0003-2.9611.0673-5.3823 2.3336-5.6867 5.2336z" fill="#fa541c"/><path d="m76.6015 39.0769v5.8261c0 .1067-.0856.1933-.1922.1942-.1061.001-.2274.003-.288.0066-2.8669.165-5.1827 2.3949-5.4799 5.2274l-57.3734 16.5148c-2.9525.85-6.03209-.855-6.88213-3.8059l-1.86706-6.4831c2.41991-.7198 4.18334-2.9576 4.18334-5.6096 0-1.4446-.52276-2.7655-1.38951-3.7843-.00334-.0049-.00828-.0116-.01496-.0167-.90385-1.0586-2.18082-1.7903-3.62716-1.9935-.39032-.0549-.68322-.3838-.68322-.7781v-5.2961c0-3.0713 2.48979-5.5611 5.56108-5.5611h62.49352c3.0705 0 5.5596 2.489 5.5596 5.5593z" fill="#b3200e"/><path d="m74.9759 44.6033-17.8572 5.14-2.2954.6606-39.9026 11.4851c-2.9512.8501-6.03141-.8548-6.88145-3.806l-1.68798-5.8644c-.12464-.4329.08182-.8949.49044-1.0847 2.57034-1.1943 3.95969-4.1139 3.15072-6.922-.8069-2.806-3.53196-4.5406-6.34203-4.1886-.44619.0558-.86962-.2078-.9941-.6398l-1.43806-4.9966c-.848453-2.9513.85481-6.0331 3.80607-6.8815l39.90249-11.4851 2.2955-.6606 17.8572-5.14c2.9512-.85008 6.0314.8532 6.8815 3.8044l1.5291 5.3123c.0748.26-.0672.5333-.3232.6205-.1545.0527-.312.1094-.4094.152-2.6478 1.1589-4.0934 4.1275-3.2718 6.9794.8522 2.9588 3.8357 4.727 6.8027 4.1141.027-.0055.062-.0137.1015-.0234.2651-.0649.5347.09.6102.3521l1.7817 6.1905c.8486 2.9515-.8546 6.0317-3.8059 6.8817z" fill="#fdab76"/><path d="m71.9067 13.8541c-.9171-2.846-3.9339-4.46875-6.8281-3.6357l-60.05527 17.2857c-2.84047.8176-4.524155 3.7018-3.88933 6.5485z" fill="#fee9d1"/><path d="m46.0742 15.689 9.8968 34.3841-41.0504 11.8155c-2.9511.8494-6.03213-.8543-6.88154-3.8054l-1.68782-5.8642c-.12464-.433.08182-.8949.49045-1.0847 2.57049-1.1945 3.95971-4.114 3.15135-6.9228-.80786-2.8066-3.53276-4.5403-6.34266-4.1891-.4462.0557-.86962-.2079-.99395-.6399l-1.43806-4.9963c-.849403-2.9511.85434-6.0321 3.80544-6.8815z" fill="#fee9d1"/><path d="m46.0742 15.689-41.05028 11.8155c-1.79225.5186-3.37151 2.008-3.84285 3.9422-.216651.8297-.24403 1.7189-.0468 2.6047.00016.0005.00016.0011.00032.0016l46.41261-13.2461z" fill="#fdab76"/><path d="m28.0087 36.837-5.1141-7.1983c-.1978-.2784-.0613-.6689.267-.7634l2.6752-.77c.1688-.0486.3504-.0043.4779.1164l7.1384 6.758c1.9187-.6486 3.3853-1.1345 3.9076-1.2848 2.1388-.6156 4.5415 1.5431 4.5415 1.5431s-.8874 3.1059-3.0262 3.7214c-.5222.1503-2.0224.5184-3.9919.9889l-2.4539 9.5209c-.0438.1699-.1741.3041-.3429.3526l-2.6752.77c-.3282.0945-.6515-.1636-.632-.5046l.505-8.8176c-5.4289 1.2706-11.0934 2.5745-11.0934 2.5745l-1.8402.6313c-.2233.0766-.4696-.0149-.5888-.2187l-2.2149-3.7893c-.2225-.3808.1256-.8407.5525-.7299l3.1444.8163s5.4905-1.9068 10.764-3.7168z" fill="#754ffe"/><path d="m65.0533 20.3798-10.3513 2.9794c-.4579.1318-.9361-.1326-1.0679-.5905l-.8585-2.9828c-.1318-.458.1326-.9362.5906-1.068l10.3512-2.9794c.458-.1318.9361.1326 1.0679.5905l.8585 2.9828c.1318.4582-.1326.9362-.5905 1.068z" fill="#fa541c"/><path d="m67.8455 64.3323h-11.4161c-.4878 0-.883-.3952-.883-.883v-2.8563c0-.4878.3952-.883.883-.883h11.4161c.4876 0 .883.3952.883.883v2.8563c0 .4878-.3954.883-.883.883z" fill="#fdab76"/><g fill="#fa541c"><path clip-rule="evenodd" d="m46.5361 18.4884c.1098 0 .2213-.0143.3311-.0461.6336-.1831.9997-.8437.8166-1.4773l-.4616-1.6061-2.2954.6606.4632 1.6062c.1496.5221.6272.8627 1.1461.8627zm8.5342 24.1391-.8756-3.0452c-.183-.6336-.8452-.9997-1.4772-.8166-.6335.1814-.9997.8436-.8182 1.4772l.8771 3.0452c.1496.5237.6272.8643 1.1461.8643.1099 0 .2213-.0159.3311-.0477.6336-.1815.9997-.8437.8167-1.4772zm-2.461-8.5546-.8771-3.0451c-.1831-.6336-.8437-.9981-1.4773-.8167-.6335.1831-.9996.8437-.8166 1.4773l.8755 3.0452c.1513.5237.6288.8643 1.1462.8643.1098 0 .2212-.0159.3311-.0477.6335-.1815.9996-.8437.8182-1.4773zm-2.4626-8.5545-.8771-3.0436c-.1815-.6335-.8453-.9996-1.4772-.8182-.6336.1831-.9997.8453-.8166 1.4788l.8755 3.0436c.1512.5237.6288.8644 1.1477.8644.1082 0 .2197-.0143.3295-.0462.6336-.183.9997-.8452.8182-1.4788zm6.9721 24.2248-2.2955.6606-.4616-1.6062c-.183-.6335.1831-1.2957.8166-1.4772.632-.1831 1.2958.1831 1.4772.8166z" fill-rule="evenodd"/><path d="m64.7179 38.951c-.5186 0-.996-.3406-1.1466-.8639-.1824-.6337.1834-1.2951.8171-1.4775l6.4162-1.8469c.6323-.1824 1.295.1833 1.4774.8171.1824.6337-.1834 1.2951-.8171 1.4776l-6.4162 1.8468c-.1102.0317-.2213.0468-.3308.0468z"/><path d="m65.901 43.0643c-.5186 0-.996-.3407-1.1466-.8641-.1824-.6335.1834-1.2951.8171-1.4775l6.4162-1.8467c.6325-.1824 1.295.1832 1.4774.8171.1824.6336-.1834 1.2951-.8171 1.4775l-6.4162 1.8467c-.1103.0319-.2216.047-.3308.047z"/></g><path d="m13.934 56.2393c-.5186 0-.996-.3407-1.1466-.8639-.1824-.6337.1834-1.2951.8171-1.4776l9.0484-2.6044c.6325-.1822 1.2952.1833 1.4774.8171.1824.6337-.1834 1.2951-.8171 1.4776l-9.0484 2.6044c-.1103.0316-.2215.0468-.3308.0468z" fill="#fdab76"/><path d="m49.7003 62.9752h-12.692c-.6595 0-1.1938-.5346-1.1938-1.1939 0-.6594.5343-1.1939 1.1938-1.1939h12.692c.6595 0 1.1939.5345 1.1939 1.1939 0 .6593-.5344 1.1939-1.1939 1.1939z" fill="#b3200e"/></svg>