<svg fill="none" height="80" viewBox="0 0 80 80" width="80" xmlns="http://www.w3.org/2000/svg"><path d="m18.4572 74.9756h-13.52019v-17.3353c0-.433.351-.7839.78381-.7839h11.95248c.4329 0 .7838.351.7838.7839v17.3353z" fill="#fdab76"/><path d="m18.4564 57.6412v16.0057h-3.8298v-16.0057c0-.4343-.3512-.7838-.7838-.7838h3.8297c.4327 0 .7839.3496.7839.7838z" fill="#fa541c"/><path d="m56.1951 74.9759h-13.5203v-40.4582c0-.433.351-.7838.7838-.7838h11.9525c.433 0 .7838.351.7838.7838v40.4582z" fill="#fdab76"/><path d="m56.1942 34.5182v39.1286h-3.8298v-39.1286c0-.4343-.3512-.7838-.7838-.7838h3.8298c.4326 0 .7838.3496.7838.7838z" fill="#fa541c"/><path d="m75.0642 74.976h-13.5203v-54.9329c0-.433.351-.7838.7839-.7838h11.9524c.433 0 .7838.351.7838.7838v54.9329z" fill="#fdab76"/><path d="m75.0633 20.0436v53.6033h-3.8298v-53.6033c0-.4344-.3511-.7838-.7838-.7838h3.8298c.4327-.0002.7838.3494.7838.7838z" fill="#fa541c"/><path d="m37.3259 74.9758h-13.5202v-31.7931c0-.4329.351-.7838.7838-.7838h11.9524c.433 0 .7838.351.7838.7838v31.7931z" fill="#fdab76"/><path d="m37.325 43.1832v30.4634h-3.8298v-30.4634c0-.4343-.3511-.7838-.7838-.7838h3.8298c.4327-.0001.7838.3495.7838.7838z" fill="#fa541c"/><path d="m58.8291 1.07855-8.5797 1.51415c-1.4345.2532-2.4495 1.64136-2.2558 3.08513.2101 1.56503 1.6542 2.62093 3.2092 2.34656l1.4797-.26112-6.7548 10.65103c-.5346.8427-1.6511 1.0927-2.4939.5582l-11.6714-6.0929c-1.4556-.9232-3.3842-.4918-4.3077.9636l-10.5667 15.8345c-.8911 1.404-.4749 3.2646.9294 4.1552 1.404.8905 3.264.4741 4.1545-.9299l8.0402-11.8632c.5346-.8428 1.6511-1.0928 2.4939-.5582l11.678 6.097c1.4559.9233 3.3849.4916 4.3083-.9644l9.2847-14.6403.3328 1.8853c.2646 1.4995 1.6948 2.5007 3.1943 2.2359 1.4997-.2646 2.5009-1.6949 2.236-3.1946l-1.5166-8.58629c-.2648-1.49938-1.6948-2.500279-3.1944-2.23566z" fill="#b195fe"/><path d="m63.5397 11.9-1.5161-8.58547c-.2649-1.49907-1.696-2.500731-3.1951-2.23596l-.1376.02377c.2631 1.04584.5891 2.07798.7098 3.15642.1225 1.09185.8024 3.05329-.4261 3.7626-.7521.43418-1.6178-.04189-2.3979.4485-.6862.43129-1.0558 1.069-1.4816 1.73934-1.0492 1.6518-2.095 3.302-3.1409 4.9522-1.5076 2.3769-2.9262 4.8126-4.5228 7.1323-1.1244 1.6338-2.0581 1.8036-4.3089.5585l-11.6788-6.0966c-.8422-.5348-1.9592-.2852-2.4941.5568l-8.0393 12.2696c-.8914 1.404-2.7503 1.8201-4.1545.9304-.0679-.0442-.134-.0883-.1969-.1376-.4057 1.2733.0763 2.708 1.258 3.4584.5009.3175 1.0578.4686 1.6095.4686.9967 0 1.9711-.4957 2.545-1.399l8.0393-11.8638c.5349-.8421 1.6519-1.0917 2.494-.5568l11.6789 6.0967c1.4551.9236 3.3837.4907 4.3073-.9644l9.2849-14.6413.3327 1.8862c.2649 1.499 1.6944 2.5007 3.1951 2.2359 1.3379-.236 2.2783-1.4006 2.2783-2.7129.0003-.1597-.0132-.321-.0422-.4824z" fill="#754ffe"/><path d="m78.2162 78.964h-76.43239c-.43296 0-.78381-.351-.78381-.7839v-3.7493c0-.433.351-.7838.78381-.7838h76.43219c.433 0 .7838.351.7838.7838v3.7493c.0002.4329-.3506.7839-.7836.7839z" fill="#dfe3e8"/></svg>