<svg fill="none" height="80" viewBox="0 0 80 80" width="80" xmlns="http://www.w3.org/2000/svg" xmlns:xlink="http://www.w3.org/1999/xlink"><clipPath id="a"><path d="m0 0h80v80h-80z"/></clipPath><g clip-path="url(#a)"><path d="m18.7499 53.0042v24.6506c0 2.2459 2.8719 3.203 4.2183 1.4053l12.0414-16.0514 3.6707-1.8808 39.7445-56.19498.7392-4.369688-6.4577 3.568598-53.9695 46.85077z" fill="#919eab"/><g fill="#c4cdd5"><path d="m76.7558.186657c-.1058.042344-75.36002 37.825943-75.46221 37.877143-1.641092.8205-1.742029 3.1288-.18078 4.0924l17.63529 10.8536 60.4141-52.440955c-.6142-.5321875-1.4963-.759375-2.4064-.382188z"/><path d="m79.2449.678232c-.0338-.032968-.0449-.084062-.0805-.115l-.4586.649998-43.6958 61.79527 27.0424 16.6421c1.4084.8657 3.2312.0403 3.5317-1.5633l14.3783-75.31079c.1528-.79484-.1694-1.56468-.7175-2.098278z"/></g></g></svg>