<svg fill="none" height="80" viewBox="0 0 80 80" width="80" xmlns="http://www.w3.org/2000/svg" xmlns:xlink="http://www.w3.org/1999/xlink"><linearGradient id="a" gradientUnits="userSpaceOnUse" x1="4.87793" x2="83.3573" y1=".487793" y2="70.2473"><stop offset="0" stop-color="#fdab76"/><stop offset="1" stop-color="#fa541c"/></linearGradient><path d="m39.9236.487793c3.1684 0 5.7375 2.566627 5.7375 5.733417 0 .56727-.0825 1.11529-.236 1.63274l4.2343 2.43625c.7005.403.9418 1.2976.5388 1.9982-.3793.6594-1.194.9119-1.8727.6033l-.1255-.0645-4.3007-2.4722c-1.0313.9907-2.4324 1.5996-3.9757 1.5996-1.5094 0-2.8828-.5824-3.9072-1.5347l-19.7126 11.3685c.1316.4819.2018.9892.2018 1.5128 0 .5567-.0794 1.0948-.2274 1.6036l10.1756 5.8185c.7016.4012.9452 1.2952.5441 1.9968-.3776.6604-1.1917.915-1.8712.6082l-.1256-.0642-10.2343-5.8513c-.7153.6948-1.6114 1.2048-2.6109 1.453l-.0003 22.6135c2.4206.6724 4.1974 2.8909 4.1974 5.5244 0 .5726-.084 1.1256-.2404 1.6473l19.557 11.2804c.7522-.8301 1.7444-1.4389 2.8671-1.7174v-22.4205c-2.4985-.6198-4.3507-2.8759-4.3507-5.5648 0-.5215.0697-1.0268.2003-1.507l-5.4294-3.1776c-.6975-.4083-.9319-1.3048-.5236-2.0023.3844-.6564 1.2011-.9026 1.8773-.5889l.125.0654 5.4158 3.1715c1.0395-1.0465 2.4802-1.6945 4.0722-1.6945 1.6647 0 3.164.7086 4.2121 1.8404l19.75-11.392c-.1554-.5203-.2389-1.0717-.2389-1.6425 0-.5233.0702-1.0302.2016-1.5119l-12.1374-6.9795c-.7006-.4029-.942-1.2975-.539-1.9982.3792-.6594 1.194-.9119 1.8726-.6034l.1255.0644 12.1467 6.985c1.0392-1.0438 2.4779-1.6898 4.0675-1.6898 3.1684 0 5.7375 2.5666 5.7375 5.7334 0 2.6336-1.7767 4.8521-4.1973 5.5245v22.6536c2.4206.6724 4.1973 2.8909 4.1973 5.5244 0 3.1668-2.5691 5.7335-5.7375 5.7335-1.538 0-2.9348-.6048-3.965-1.5894l-19.8769 11.4652c.0778.3764.1187.7663.1187 1.1658 0 3.1667-2.5691 5.7334-5.7375 5.7334-3.1685 0-5.7376-2.5667-5.7376-5.7334 0-.4274.0468-.8438.1356-1.2445l-19.7411-11.3865c-1.0303.9846-2.4271 1.5894-3.9651 1.5894-3.16838 0-5.73747-2.5667-5.73747-5.7335 0-2.6888 1.85212-4.945 4.35064-5.5647l-.00063-22.6133c-2.42062-.6724-4.19736-2.8909-4.19736-5.5245 0-3.1668 2.56908-5.7334 5.73752-5.7334 1.5896 0 3.0283.646 4.0675 1.6898l19.6139-11.31372c-.1712-.54373-.2635-1.12242-.2635-1.72267 0-3.16679 2.5691-5.733417 5.7376-5.733417zm0 70.484407c-1.5527 0-2.8107 1.2568-2.8107 2.8066 0 1.5497 1.258 2.8066 2.8107 2.8066 1.5526 0 2.8106-1.2569 2.8106-2.8066 0-1.5498-1.258-2.8066-2.8106-2.8066zm25.4918-43.5307-19.9041 11.4802c.098.4198.1498.8574.1498 1.307 0 2.6336-1.7768 4.8521-4.1974 5.5245v22.5011c1.0858.3016 2.0421.9143 2.7665 1.736l19.6569-11.3393c-.1563-.5217-.2403-1.0747-.2403-1.6473 0-2.6888 1.8521-4.945 4.3506-5.5647v-22.573c-.986-.2446-1.8714-.7441-2.582-1.4245zm3.9689 26.7557c-1.5526 0-2.8107 1.2568-2.8107 2.8065 0 1.5498 1.2581 2.8066 2.8107 2.8066s2.8107-1.2568 2.8107-2.8066c0-1.5497-1.2581-2.8065-2.8107-2.8065zm-58.7689 0c-1.55257 0-2.81064 1.2568-2.81064 2.8065 0 1.5498 1.25807 2.8066 2.81064 2.8066 1.5527 0 2.8107-1.2568 2.8107-2.8066 0-1.5497-1.258-2.8065-2.8107-2.8065zm29.3082-16.7751c-.8584 0-1.6267.3842-2.1422.9896-.0279.1713-.0874.3396-.18.4977-.089.152-.2011.282-.3294.3881-.1031.2902-.1591.6042-.1591.9312 0 1.5498 1.258 2.8066 2.8107 2.8066 1.5526 0 2.8106-1.2568 2.8106-2.8066 0-1.5497-1.258-2.8066-2.8106-2.8066zm29.4607-16.9275c-1.5526 0-2.8107 1.2569-2.8107 2.8066s1.2581 2.8066 2.8107 2.8066 2.8107-1.2569 2.8107-2.8066-1.2581-2.8066-2.8107-2.8066zm-58.6162 0c-1.55262 0-2.81069 1.2569-2.81069 2.8066s1.25807 2.8066 2.81069 2.8066c1.5526 0 2.8107-1.2569 2.8107-2.8066s-1.2581-2.8066-2.8107-2.8066zm29.1555-17.07998c-1.5527 0-2.8107 1.25687-2.8107 2.80659s1.258 2.80659 2.8107 2.80659c1.5526 0 2.8106-1.25687 2.8106-2.80659s-1.258-2.80659-2.8106-2.80659z" fill="url(#a)"/></svg>