<svg fill="none" height="606" viewBox="0 0 731 606" width="731" xmlns="http://www.w3.org/2000/svg"><g fill="#919eab"><path d="m367 502.94c128.71 0 233.05-104.34 233.05-233.05s-104.34-233.0504-233.05-233.0504-233.05 104.3404-233.05 233.0504 104.34 233.05 233.05 233.05z" opacity=".04"/><g opacity=".12"><path d="m391.86 92.8891c.24.16.64.35.56.67-.29 1.25 1.14 2 .83 3.29-.07.31.38.63.74.67.146.2081.387.3285.64.32 1 2 3.31 1.84 3.1 3.9999-.21 2.16 1.19 2.45 2.11 5.27.1.29.37.26.58.18.037.093.121.158.22.17.05.52-.13 1 .15 1.56.285.638.933 1.036 1.63 1 1.49 0 3.1.2 4.07-1.39.31-.5.78-.51 1.26-.59 4.5-.68 4.91.78 6-.6s2.74-1.22 3.33-4c.52.11 1 .18 1.07-.62.605-.898 1.396-1.656 2.32-2.22.09 0 .25-.08.25-.16 0-1.6599 1.58-1.9999 1.49-3.7399-.14-2.53 3.58-1.57 2.75-5.45-.21-1 1.13-.9-.76-4.29-1.48-2.66-3-2.15-4.51-2.45-1.183-.2864-1.912-1.4757-1.63-2.66.12-.5178.174-1.0487.16-1.58l1.42.19c.13.13.38.29.38.38 0 .38-.46.56-.06 1.12.252.3258.603.5609 1 .67 1.7.67 3.36 1.17 4.82.48.41-.2.75-.34.63-1s-.14-1.3-.86-1.57c-.19-.06-.51-.12-.51-.37 0-1.79-1-1.27-1.57-1.41-1.65-.42-1-.21-2.87 0-.64-.33-.9-.73-.36-1.2.179-.1227.37-.2266.57-.31-.196-.3132-.531-.5138-.9-.54.366.027.699.2229.9.53 1.56 1.11 1-2.15 2.46-.83 1.055 1.0402 2.624 1.3581 4 .81.63 0 .45-.61.44-1.14-.06-2.83 1.48-4.34 1.69-5 .5-1.6 1.73-2 3-2.41.12 0 .29 0 .35-.11.83-1.4 2.62-.85 3.75-1.54 1.09-.31 4.08.47 4.85.36 1.3-.2 1.7 1.58 2.8 1 .23-.12.5.11.79.26 1 .52 2.12 1.39 2.87.8.14-.12.42.07.67.23 1.594 1.0218 3.447 1.5633 5.34 1.56.81.39 1.11.08 4.22-.76.18.14.33.11.25 0-.304-.7454-.859-1.361-1.57-1.74.48-.27 1.32.27 1.66-.15l1.16.34c.36.23.54.06.8.06s.66.16.45-.39c-.178-.4001-.494-.7229-.89-.91-1.773-1.0695-3.603-2.0442-5.48-2.92-.34-.1062-.658-.2722-.94-.49-1.4-1.29-6.9-2.69-8.5-3.61-.25-.6-1.09-.61-1.05-1.38s.65-.19 1.06-.07c2.88.82 3.95 1.47 3.94.62 0-.34-.31-.47-.51-.69-.542-.5803-1.234-.9991-2-1.21-1.7-.72-3.48-2.21-5.2-2.92-4.43-1.83-4.39-.09-4.59-2.67-.037-.1155-.087-.2262-.15-.33-.21-.12-.54-.29-.55-.53 0-.39.37-.12.7.21.84.2 1.8 1.17 2.59 1.13l.94.39c.256.2805.621.4372 1 .43l.64.36c.49 1 1.07 1.53 1.73 1.5 2.51 1 5.12 2.76 7.65 4 .631.3839 1.226.8222 1.78 1.31.16.24.29.31.38.2l.6.29c2.44 2.25 2.62 2.64 4.7 3.22 1.18.34 2.53 1.46 3.71 1.87.495.2072.823.684.84 1.22.013.2532.013.5068 0 .76 1.343.8661 2.59 1.8717 3.72 3 .475.4012 1.054.6581 1.67.74 1.41 1 2 .27 3.14 2.08.312.4537.772.7858 1.3.94.44.37 1 .54 1.1 1.36-.53-.23-2.05-1.34-1.86-.45.08.34.33.48.56.71.84.87 1.38.68 2.09 1.11.2.26.51.49.61.79.27.9.26.89 1 1.33-.05-.5-.69-.72-.85-1.27.79.15 1.81 1 2.58 1.19l.75.27c0-1.15 1.22-.33 2.07.16 1.33.77 2.4 1 3.64 1.59.29.15.53.12.88.42 2.3 2 3.89 1.45 6.59 3.27 1.26.85 1.44-.22 4.24 2.72l-.26.12c-.37-.12-.32.22-.27.57l-.26-.1c-.176-.2499-.393-.4694-.64-.65-.13-.24-.17-.2-.2-.13-.062.0186-.128.0186-.19 0-1.73-.85-3.2-1.13-5.06-2.14s-3.74-2.39-5.39-2.86c-1.13-.32-.91-1.5-6.68-2.15-.23 0-.43 0-.17.49s.37.91.78.81c.11 0 .37.12.52.39.37.7986 1.085 1.3842 1.94 1.59 1.6.67 3.31 1.63 4.64 1.65.36 0 1.08.66 1.6.93 1.43.74 2.73 1.2 4.11 1.86 3.56 1.71 4.6 2.42 5 1.91.11-.15.46.17.72.35 1.617 1.1289 3.389 2.0181 5.26 2.64.71.27.62-.38.82-.67.07-.09-.18-.47-.42-.74-.82-.89-.81-1.14-.29-1h.38c.708.1908 1.366.5318 1.93 1 .662.3706 1.158.978 1.39 1.7v.21c-.71-.55-1.46-.6-.77.71.267.4333.643.7886 1.09 1.03.3.19.61.4.77.33.586.3573 1.214.6395 1.87.84.54.81 1 1.2 1.15.88s.35-.28.71-.17-.17-1 .5-.69c.1 0-.28-.47-.52-.67-.66-.54-1.21-.88-1.44-.67-.746-.3925-1.467-.83-2.16-1.31-.61-1.15.41-.49.33-1l.27.09c.26.25.39.29.38.12.26-.17 1.1.41 1.21 0-1.196-1.0526-2.576-1.8763-4.07-2.43-.1-.1-.16-.13-.18-.09-.244-.1843-.535-.2953-.84-.32-.71-.65-1.07-.67-1.38-.62-.89.12-2-1.23-4.43-2.1-.48-.17-1.16-1-1.59-1.17-1-.28-2.29-1.43-3.41-2.05l-.22.05.21-.05c-.61-.78-1-.57-1.58-1.23-.5-.85.52-.09.08-.84-.124-.2024-.3-.368-.51-.48-1.06-.72-1.05-.73-1.22-1.87 1.204 1.1634 2.606 2.1016 4.14 2.77.85.44 6 3.63 7 2.85.42-.35 1.11-.18 2.08.35.43-.23.79-.49 1.88.1-1.39-1.45-2.46-2.26-3.57-3.56l-.14-.12c-1.3-.79-3.18-2.75-4.39-3.24-.79-.33-1.69-.83-2.19-.66-.746.0068-1.48-.1829-2.13-.55-.32-.33-.56-.48-.71-.45-.51-.34-.91-.53-.52.27-1-.61-1.19-.86-1.37-1.64.86.51 1.22.24 2 .62.52.26-.24-1.41 1.21-.16.52.46.91.68 1.19.56-.579-.505-1.198-.9631-1.85-1.37-.59-.43-1.2-.9-1.75-1.23-2.26-1.38-3-2.24-5-3-.523-.2363-.992-.5765-1.38-1-3.73-3.65-5.89-3-8.54-5.36-6.66-6.05-19.1-10.66-29.08-13.18-2.18-.54-4.52-1.45-6.75-2-.17 0-.39-.14-.48-.06-1.18.94-3.9-1-4.64-.42-.16.11-.17.38.2.64-.13.52-.37.27-2.59-.38-1.26-.66-1.36-.9-2-.85-6.72-2.09-8.76-3.56-9.48-2.4-.08 0-.18.09-.23.05-1.69-1.59-3.33-.55-3.92-.94h-.08c-.22-.09-.4-.07-.49.14h-.9c-.33-.22-.7-.35-.86-.9 0-.09 0-.13.08-.14.65.18.16-1-.07-.52l-1.6-.39c0-.34-.12-.72-.44-.73s-.12.36 0 .63l-1.44-.16c-.64-.53-1.33-.65-2-1.45s-1.29-.55-2 .36l-.74-.21c0-1-.44-1.06-1-1-8.41-2.11-5.83-1.53-11.67-2.1-.92-.1189-1.829-.3095-2.72-.57-6.74-1.77-14.08-2-21.1-2-1.12 0-2.26.13-3.39.21-1.371-.5431-2.903-.5106-4.25.09-.465.161-.958.2257-1.45.19-.89-.26-1.64.49-2.46.71-1.27 1.58-2.88.32-8.88 2.05-.48.2-.22.4 0 .52.45.3 1.15.11 1.3 1l-.31.28c-.211.45-.254.9612-.12 1.44-.185.1179-.286.3319-.26.55l-.41.11-.39-.22c0-.77-.28-.63-.65-.32-1.17-.67-1.21-.72-1.21-.72-.48-.2.58-1.13-.23-1.16-.54 0-1 .18-2 .95.24.52.82 0 1.09.4-.29.52-.68.76-1.1.57-.64-.28-1.4 0-2-.37-.18-.11-.56-.12-.67 0-.82 1.1-1.58.42-2.35.46-.056-.0594-.141-.0825-.22-.06-.75-1-5.05-.19-6.74.07-.559.0586-1.087.2891-1.51.66-1.44.29-1.89 0-3.86 1.24.66.58 1.08.23 2.73.44.1.09.18.26.29.26 1.29 0 2.36.81 3.72.6 1.87-.28 1.17 1.18 2.4.89l.6.15c1.32-.26 1.29 2.3 2.89 1.7.59-.22.59.3.68.73.24 1.26-.62 1.6-1.18 1.08s-.63-1.3-1.53-1c-.222.0547-.401.2173-.478.4327-.076.2154-.039.4549.098.6373 1.34 1.13 2.51.66 2.61 4.2-.14 0-1.37.29-1.5.27v.13c-.65 1.72 1.42 1.8 0 3.5 1.013-.0315 1.824-.8476 1.85-1.86.62-.53 1.21 0 1.83-.26.36-.17.66.65.13.94-.621.4725-1.033 1.1684-1.15 1.94-.7 1.05-.71 1.06 0 1.79.14.15.34.23.3.51-.03.303-.267.5441-.57.58-.555.1606-1.139.1948-1.71.1-.22-.58.26-.69.38-1s.08-.76-.27-.83c-1.112-.2329-2.27.0584-3.14.79-.39.31-.25.94.13.88 1-.15 1.39-.67 2.06.31 1.72 2.47 3.63.28 4.16 2.5.22.94.71 1.25 1.59.89s1.64.22 2.56.45c-.828 1.3275-.498 3.069.76 4-1.89.49-2.16 2.31-2.51 4-.07.31 0 .68.43.42 1.52-.12 2.14 0 3.28-.07 3-.31 2.36-1.93 4.19-2.55.9-.31 1.15-.12 1.41 1 .185.4685.283.9665.29 1.47-2.46 0-4.86 1-7.4 1.3 2.382.6027 4.677 1.5067 6.83 2.69 1.662.8346 3.482 1.3083 5.34 1.39 2.64.2 7.91 2 10.35 1.37.477-.104.973.0476 1.31.4.644.4279 1.344.7644 2.08 1 .49.23.71.89 1.15 1.22.22.49.63.6 1 .79 0 .25.15.28.31.21.031.102.116.1788.22.2.519 1.0388 1.491 1.7777 2.63 2 2.23.58 4.79 2.4 7.07 2.29 2.7-.15 3.75 1.02 5.82 2.36z"/><path d="m556.38 133.846c-1.859-1.2-3.55-2.7-4.71-2.45 1.08 1.2 1.721 1.29 2.851 2.47-2.658-1.273-5.206-2.761-7.62-4.45-.164-.177-.353-.328-.56-.45l-.541-.36c-.75-.67-1.239-1-1.209-.49-.06.11-.281 0-.531-.14-.85-.89-.889-.9-.609-.14l-.43-.2c-.6-.37-.871-.41-1.281-1s-.07-.51 0-.61 0-.5-.69-1.09c-.082-.089-.176-.166-.279-.23-1.84-1-5.13-3.91-4.88-2.89-.5.07-1.3-.23-1.8-.12-.315.003-.624-.083-.89-.25-2.49-1.27-1.781-.09-4.911-2-2.65-1.67-4.62-1.77-5-2.65-.421-.805-1.036-1.492-1.79-2 1.65.21 2.051.43 1.82 0-.105-.236-.275-.437-.489-.58-.928-.642-1.777-1.39-2.531-2.23-.94-.88-1.939-1.63-2.349-1.23-.25.24-.78 0-1.571-.55.451-.37-.3-1.48-.7-2.36-.111-.356-.277-.693-.49-1l-.08-.09c-.221-.223-.486-.397-.779-.51-.369-.538-.814-1.019-1.321-1.43-1.32-1.25-1.32-1.24-1.73-2.5.07-.14 0-.41.24-.4.8.39-.23-.58-.6-1.23-.543-.9584-1.299-1.7795-2.21-2.3999-1.451-1.0685-3.034-1.9457-4.71-2.61-1.61-.53-2.9-1.35-4-1.52.38.4864.813.9291 1.29 1.32.156.2416.378.4327.64.55l1 1c.141.2443.349.4423.6.57.75.846 1.73 1.4544 2.82 1.75.538.3236.999.7599 1.35 1.2799.43.71 1.05 1 1.6 1.74 0 .78-2.13-.44-1.07 1.75-1.17-.24-1.72-.51-1.36.36h-.09c-.109-.047-.223-.083-.34-.11.54 1.26-.25 1-.85.83-2.37-.55-.46.91-2.19.21-.252-.343-.636-.564-1.06-.61-1.56.1-2.7 0-1 2.1.73.91.81 1.12.29 1.26s-.67.45-1.27.25c-.438-.102-.829-.348-1.11-.7-.48-.64-.05-.69-.12-1.06-.056-.408-.285-.773-.63-1-.34-.22-.37 0-.42.27h-.42c-.92-.67-1.32-1.77-2-2.63l-1.13-3.23c.408.232.871.35 1.34.34 1.5 1.37 2.31 1.25 2.92.76 1 .3 2.18.79 2.52.09.27-.55 1.11-.62.24-2.2299-.212-.6568-.583-1.2511-1.08-1.73-1.316-1.7997-2.933-3.3592-4.78-4.61-1.12-1.29-1.55-1-3.19-1.85-1.64-1.13-3-1.76-3.57-.71-1.12-.62-2.25-1.22-3.38-1.83-2.14-1.51-3.14-.73-4.38-1.61-.13-.14-.27-.28-.41-.41-.461-.5543-1.211-.7755-1.9-.56-2.5-.67-3.94-1.65-5.11-1.06-.423.1104-.863.1476-1.3.11-.57.08-.55.21.13 1.2h-.28c-.35-.3-.6-.37-.78-.2-1-.29-1.4.74-2.51.36-1.084.5354-2.365.4904-3.41-.12-.682-.2459-1.42-.2945-2.13-.14-.59.44-1.57.24-2.05.93-.2.29-.73-.21-1-.17-.54.06-1.23-.46-1.76-.38h-.07v.08l-.29.25c-.59-.33-1.23-.77-1.27.16 0 .49-.47.19-.75.21-.69.06-1.34.21-1.19 1.35.1.72-.51.6-.63 1 .45.91 1.41.46 1.68 1.58.09.4 0 .69-.26.73-1.34.19-2.37 1.11-4 .62-1.002-.2834-2.079.0177-2.79.78-1.308-.0137-2.608.2204-3.83.69-.42-.11-.69-.33-.82.07-.34.08-.73.07-.82.55 0 .13 0 .31.08.37 1.18 1.17 2 3.06 3.57 3.5.57.1506 1.09.447 1.51.86.16.81.49 1.2899 1.14 1.1699 3.92.49 3.58-3.5199 7.51-1.8099.94 2.6799-1.39 2.5199-1.39 4.0599l-1.45-.52-.15-.08-.07.1-.06.18c-.18-.09-.21 0-.15.2l-.37.28c-.82-.2-1.08.26-.89 1.26l-.2.4c-.49 0-1.07-.13-.94.5.084.32.319.578.63.69.559.271.938.812 1 1.43.2.81.34 1.37-.82 1.11 1.17.79 1.61.42 2 0 1.36-1.35.8 0 4.34-1.19.55.23 1.16.31 1.47 1.28-1.16.3-2.42.46-3.2 1.53-1.08-.55-1 .36-1.09 1.46 2.101-.25 4.217-.334 6.33-.25.25 0 .39-.17.45-.43.083.015.168.015.25 0 .46.14.95.28 1.27.06.77-.404 1.707-.309 2.38.24.37.22.77.34 1 .08.5-.7 1.34-.85 2-1.31 2.63-1.88 5.67-2.32 9.82 0 1.067.581 2.315.734 3.49.43.45-.08.33-.76-.31-1.44-.801-1.036-1.85-1.854-3.05-2.38-1.174-.106-2.218-.793-2.78-1.83-1.48-.39-2.86-2.11-4.28-3-.772-.518-1.492-1.111-2.15-1.7699-.255-.2177-.425-.5188-.48-.85-.13-1.2 3.23.58 4.29 1.24.946.6529 2.026 1.0829 3.16 1.2599.524.235 1.101.321 1.67.25.47 0 .66-.3.66-.83.075-.7402-.268-1.4606-.89-1.8699-2-1.68 0-1.3-.5-3-.55-.78-.87-.29 0 0 .2.0693.391.1598.57.27 2.57 2 .62 3.34 2.58 4.2599 1.52.7.91 0 2.61-.4099.15 0 .28-.11.15-.4-.24-.56-.73-.69-2-1.46-.69-.43-1.62-1.4-1.58-1.87 0-.21.21-.22.39-.06 3.47 2.92 4.85-.43 7 3.12-.424.0364-.848-.0846-1.19-.34-.14-.15-.22-.15-.22 0-.61 1-.34 1.6399 1.2 2.8099 2.81 2.13-3.38.85 2.58 4.77 1 .65 1.89 1.69 2.86 2.35 0-.09.11-.06.17.06s0 .08 0 .11c.19.5-.2.83.42 1.41.323.375.831.534 1.31.41.26-.07.28-.52.89-.16.18.9-.27 1.09-.84 1-1.33-.27-2.14.48-3.47.28-.62-.1-.8.43-.62 1.26-1.09-.11-2.11-.83-2.15.15.061.557.459 1.018 1 1.16.395.274.871.405 1.35.37.863.159 1.748.159 2.61 0 1.74-.55 2.18 1.57 4.64 2.67.35.57.71.84 1.09.82.88.33 1.36.64 1.2-.11.15-.39.41-.53 1-.19.552.278 1.124.515 1.71.71.59.22.66-.29-.15-1.19-.041-.051-.088-.098-.14-.14-1.52-.84-2.08-2.36-2.75-3.76-.28-.56-.75-1.2-.68-1.73.57.343 1.109.734 1.61 1.17.342.212.597.538.72.92.243.755.715 1.416 1.35 1.89 1.35 1.507 3.04 2.67 4.93 3.39 2.541.77 3.331 3.81 4.711 4.23s2.55 1.85 3.81 2.83c1 .76 2 1.78 3 2.68.591 1.013 1.333 1.93 2.199 2.72 1.36 1.47 3.15 5.32 1.32 4.79-1.31-.38-2.21-1-2.39.29-.09.6.181 3.11-2.069 2-2.671-1.35-3.071-.31-3.651-.5-2.42-.81-3.79.31-5.31 1.27-.159.138-.375.19-.58.14-2.53-.72-2.79 1.33-5 .2-1.077-.527-2.237-.865-3.43-1-1.52-.21-1.7.26-1.1 2.31 1.05 3.64-1.57 2.27-2.48 3.2-.25.325-.298.762-.126 1.134s.537.617.946.636c.496-.075.971.229 1.11.71.13.36 0 .65-.23.63-.77-.07-1 .52-1.37 1.08-.46.74-1.34.48-2.17-.56-.37-.62-.912-1.12-1.56-1.44-.718-.221-1.151-.953-1-1.69.145-1.097.168-2.207.07-3.31 0-1.06 1.71-2.43-.46-3.31-4.09-1.67-7-5-7.49-6.37-.4-1.9 0-4.38 1.54-4.33.258-.001.511-.063.74-.18 1.65-.79 1-.61-2-4.52-1.27-1.66 1.23-2-.56-4.19-.48-.58-.06-.92.08-1.28.75-1.86-1.92-2.94-3.84-2.91-1.996.089-3.982-.346-5.76-1.26-.546-.341-1.212-.432-1.83-.25-1.15.46-2.51.59-3.2 1.91-.41.79-1.71.63-4.06.2-.5-.1-.69 0-.36.78 1.14 2.73.86 4.13-.9 4.84-1 .42-1.84 2.52-6.08-.89-.845-.575-1.514-1.375-1.93-2.31-.564-1.035-1.26-1.993-2.07-2.85-.47-.65-1-.62-1.09 0-.22 1.79-2.71 3.25-3.18 5.29-.2.84-1.3.67-1.36 1.74-.79 0-.84.7-.92 1.43l-.28.36c-.6.23-.57 1-.59 1.68-.056.709-.421 1.356-1 1.77-1.19 1.26-3 1.21-4.33 2.29-.7.58-2.77-1.06-3.39 1.47-.123.725-.693 1.292-1.42 1.41-2.29.44-2.93 2.09-1.92 5.16.25.76.78 1.43-.16 1.71-.31.09-.22.51 0 .86.329.774.77 1.496 1.31 2.14.82.8.77 1.28 0 1.89-.09.07-.24.06-.29.15-1.65 3.31-5.05-.8-5.79 1.74-.198 1.057-.639 2.054-1.29 2.91-.45.5-.23 1.89-.88 2.6-.27.28-.1.94.15 1.4 1.09 2 1.82 3.11 2.78 2.11.56-.58 1.47-.4 1.94-1.25.56-1 2 .76 2.84 1.06 2.36.86.12-2.51 2-1.95 1.58.47 3-.13 4.52.14.806.061 1.601.216 2.37.46.52.21 1.06.35 1.31-.3.46-1.25-.65-1.9-4-6.86-1.04-1.754-2.213-3.426-3.51-5-.279-.322-.459-.718-.52-1.14 2.382.201 4.616 1.235 6.31 2.92 4.6 4.29 8.9 1.34 18.42 4 1.214.337 2.229 1.168 2.8 2.29 1.12 2 3.46.52 6.06 4.79-.54.45-1-.15-1.43-.46-3.21-2.2-6.44-3.86-9.77-4-.269-.024-.54-.024-.81 0-.705.069-1.223.694-1.16 1.4 0 .84.69 1.09 1.19 1.53.917.944 2.197 1.443 3.51 1.37-1 .85-2.42-.09-3.74.08 1.25 1.63 1.45 3.07.61 4.35-.7-.3-.56-2.5-1.83-1.42-.916.899-2.279 1.17-3.47.69-.63-.23-1.38-.25-.71 1.1.41.82-.62 1.18-1.15.55-3.22-3.87-3.3-4.24-3.88-2.44-.63 2-1.24 2 .47 3 2.59 1.5 5.1 3.39 7.81 4.32.372.181.765.312 1.17.39 2.06.07 2.87 3.42 5.29 3.53.61 0 1.26.19 1.43-.72.166-.981-.186-1.979-.93-2.64-.665-.471-1.253-1.045-1.74-1.7 1.694.013 3.337.578 4.68 1.61 1.72 1.63 1.9 1.14 8.29 4.71 1.93 1.07 3.61 5.63 1.34 6-.38.06-.78.13-.65.78.32 1.65 1.63.12 4.88 1.35.22.08.57.1.64.25 1.09 2.49 3 1.83 4.42 2.78.54.35.92.56 1.09 1.3.087.493.266.965.53 1.39 2.13 2.67 3.13 6.11 5 8.89 1.49 2.17-.13 3.29-.16 4.39-.149.829.204 1.667.9 2.14 1.29.86 2.34 2.43 3.89 2.6.568.186 1.039.588 1.31 1.12.8 1.61 1.81 1.51 2.84 1.47 1.44 1.73 2.71 3.74 4.52 4.8 1.391.985 2.472 2.344 3.12 3.92.608 1.172.792 2.518.52 3.81-.08.771-.251 1.53-.51 2.26-.86 1.83-1 4.1-1.64 6.1-.637 2.366-.521 4.872.33 7.17 0 .42.15.75.53.86.052.083.112.16.181.23.018.087.084.156.169.18l.44.24c.163.721.721 1.288 1.44 1.46 1.37.345 2.795.41 4.19.19.06-.39-.08-.6-.22-.62-2.23-.37-2.34-2.7-2.709-4.39 2.359-4.73 2.859-5.12 2.359-7.2s.661-5 2.211-5.54c1.35-.45 2.47 2.68 4 .55.78-1.08 1.999-1.14 3.139-1.17.55.39 1.091.93 1.671.54 1.161.114 2.305.362 3.409.74.95.27 1.191.64 1.211 1.87 0 .26-.08.51-.06.77 0 .77.51 1.33 1 1 1.459-1.09 4 1.77 4.869-.12.159-.01.307-.084.41-.204.104-.121.154-.278.14-.436l.41-.1c.42.42.801.5 1.121.1.74 0 .999.1 1.209-.23.83-.06.74-.16 3.39.36l.75.44c3.421 4 3.22 1.91 7.55 6.56.306.678.456 1.416.44 2.16-.607 1.956-.314 4.081.8 5.8.617 1.246.958 2.611 1 4-.29 1.44 1.17 4.14-.12 6.32-.271.126-.444.4-.44.7.09 2.62-1.53 3.53-1.68 4.33-.59 3.08-2.839 3.76-4.779 4.93-1.31.79-4-1.26-6.69-2.15-4.13-1.35-.701-6.16-6-7.76-1.921-.58-3.861-1.44-5.861-1.22-.58.07-1.28-.22-1.56.63-.93 2.89 2 2 1.94 6.57.146.887.377 1.758.69 2.6.37 2 1.13 3.85 1.39 5.87.111.66.371 1.286.76 1.83.56.88.23 1.82-.59 1.64-1.89-.43-3.81.31-5.72-.54-1.131-.323-2.32-.388-3.479-.19-.381.023-.696.304-.76.68-.86.26-.8.4-1 1.37-2.81-.12-4.06 2.4-2.43 4.06.44.45.77 1 1.169 1.49.09 2.51-.309 4 .211 6.24 1.13 4.81-3.091 7.66-4.421 9.27-3 3.66-5.88-4.53-10.66.18-1.82 1.79-2.07 2.75-3.1 1.74s-1.42-2.53-2.69-3.09c-.42-.18-.29-1-.34-1.6-.54-5.66-4.93-1.56-9.81-7.67-.61-.75-1.49-1.16-2.23 0-1 .86-.62 2.32-1 3.46l-1.17-.26-.1-.06c-.37-.57-.13-1.29-.24-1.92-.18-1-1.09-.91-1.22-.16-.142.626-.357 1.234-.64 1.81-.321-.125-.678-.125-1 0-1.86.18-2.23.54-2.56 2.46-.637.972-1.88 1.347-2.95.89-4.53-1.35-4.32 3.18-7.4 1.06-.42-.29-.82-.61-1.22-.91-.16-1.65-.19-1.74-1.19-1.11s-1.89-.06-2.72.69c-.8.11-1.05.9-1.09 1.92l-.43.34c-.82.27-1.35-.41-2-.87-.09-.71 0-1.6-.85-1.61s-1 2 .37 2.25l.34.07v.75c-2.1 1-3.53 3.2-5.12 5.12-.84 0-1.38.46-2 1.27-1.75 2.34-5.16 9-9.29 7.25-2.91-1.24-5.2 0-11.4 5.18-1.38 1.14-2.67 2.33-2.45 4.74-.036.827-.295 1.629-.75 2.32-.42.52-.62 1.34-1.3 1.49-.265.125-.467.352-.56.63-1.468.425-2.632 1.548-3.11 3-.81 1.83-1.74 3.58-2.38 5.51-1.87 1.94-3.39 1.11-7.73 3.51-.58.414-1.212.75-1.88 1-2.31.57-.66 3.81-4.57 3.84-.122.017-.243.047-.36.09-.852-.053-1.658.396-2.06 1.15-.802-.024-1.595.177-2.29.58-1.29.155-2.595.135-3.88-.06-.76-.131-1.541.073-2.14.56-6.19 4.48-3.47 3.82-8.4 7.32-2 1.45-4.07-1.26-5.1 3.06-1.82 4.37-2.08 8.65.17 12.79.31.57.59 1.12 1.21 1.2v.05c2.1 3.89 1.53 3.16 2.85 3.59.03.403.317.739.71.83.067.568.387 1.075.87 1.38-.04.413.221.796.62.91-.09 1.7.84 2.6 1.76 3.51 0 2.11 2.18 1.15 2.11 3.1-.09 2.19.49 4.37-.25 6.56-.88 2.58 1.19 4.4 0 7.49-.33.82-.2 1.5.41 1.83 2.15 1.17.41 4.5 1.82 5 .055.866.539 1.647 1.29 2.08.09.86.11 1.82 1 2.18.394.808.577 1.703.53 2.6-.33 2.48 2 1.16 2.55 3.18.05.273.211.513.444.662.233.15.518.196.786.128 1.495.03 2.99-.061 4.47-.27 1.138.304 2.124 1.016 2.77 2 1.64 2 .95-.64 4.68 2.34 1.145.859 2.203 1.827 3.16 2.89 2.58 3.06-1.37 7.8 1.61 11 .87 1.047 1.675 2.146 2.41 3.29.07 1.23 0 2.55 1 3.1 0 1 .42 1.46 1.23 1.41.34.82 1 1.09 1.65 1.5.248 1.138.656 2.236 1.21 3.26 1.25 2 3.86 6 6.15 4.93 1.05-.51 1.76.17 2.59.4.464 1.303.414 2.733-.14 4-.173.417-.218.877-.13 1.32.47 1.59 1 3.07 2.32 3.72h.59c.48 1.41 1.5.9 3.73.78 0 .48.31.57.67.57.53 0 1 .1 1.56.05 1.14-.1 1.59.47 1.49 2-.28 4 2.52 2.8 4.58 2.31.44.25.92-.38 1.38-.63 1.08-.58 1.1-.58 1.32.64l-.54 2.23c-.79.28-1.55.55-2.17.17-1.12-.7-2.46 3.07-1.42 3s1.51.45 2.42.25c.288.118.482.39.5.7 0 .09 0 .14.11.14-.17 1.08-.59 2.28 0 2.93-.12.58.2.55.58.62.33.67.9.32 2.33.29 0 .74 0 1.45.65 1.45-.14 1.68-1 1.88-1.66 2.55l-2.34.63c-2 .53-2.44 3.45-1.82 4.08 1 1 2.9 0 2.66 2.52-.3 3.1 3.19 1 1.24 4.24-1.68 2.8-2.63 3-3 4.77-.46 2-2.19 3.27-5.2 5.74-.31.26-.69.44-.76.95s.2.39.46.32c3.66-1.05 4.56.75 5.5-.89l.52-.22c.32.11.47.76 1.2-.45 1.069-.783 2.188-1.494 3.35-2.13 1.077-.544 2.004-1.344 2.7-2.33 1.352-.479 2.487-1.426 3.2-2.67.202-.24.423-.464.66-.67 1.939-1.85 3.585-3.984 4.88-6.33.33-.52.36-.75.27-1-.42-1.15 1.17-1.53 1.36-2.66.318-1.307.82-2.563 1.49-3.73.25-.49.39-.92.24-1.19.66-2 .53-2.1-1.43-1.21v-.07c.14-.31.15-.52 0-.61 0-.23.09-.46.14-.69.144-.142.272-.299.38-.47 1.14-2.24 1.15-.29 2.13-1.45.39-.46.64-.83.38-1.15-.67-.8-1.11-1.81-.5-3.81 1.26-4.12-2.11.07-2.17-1.81 0-.37-.23-.53-.43-.51 0 0 .15-.31.16-.32.85-.73.6-1.33.72-2 .008-.583.123-1.159.34-1.7.18-.32.41-.59.66-.61s.19.25 0 .6c-.37.839-.427 1.783-.16 2.66.09.8 2.12-.15 2-1-.33-1.9.34-4.41.54-6.69.063-.276.097-.557.1-.84-.54-2.07.71-4.7 1.81-7.27.29-.67.55-1.43.14-1.59-1.13-.46-.68-2.26-1-3.47-.13-.56 0-1.36-.44-1.65-.18-.11-.17-.42-.18-.7 0-2.95-.52-5.78.59-9.34.74-1.7 1.24-3.32.46-4.52-.12-.18-.08-.54-.12-.81.175-.537.428-1.046.75-1.51.279-.277.369-.692.23-1.06-.48-.81-.15-2.08-.26-3.11-.398-4.359-.06-8.753 1-13 .08-.38.38-.82.23-1.15-.93-2-.44-3.76.59-10.89.56-1 .51-1.57.81-3.33.077-.115.109-.253.09-.39.33-.34.75-.57.95-1.1 2.24-2 2.11-3.12 6.38-5.94.608-.158 1.132-.545 1.46-1.08 1.724-.855 3.3-1.979 4.67-3.33.88-1.37 2.2-2.18 3-3.63.214-.094.36-.297.38-.53.049-.063.086-.134.11-.21.15-.23.43-.52.42-.69-.15-3 1.88-3.36 6.69-13.7.947-2.367 2.172-4.613 3.65-6.69.31-.389.551-.829.71-1.3 1.12-3.46 5.4-4.84 4.05-5.81 0-1.16.79-2.17 1-3.3.6-.88 1-1.44.15-1.75-.141-1.359-1.039-2.521-2.32-3l-.46-.88c1.1-.19 1.67-1.65 2.63-2.16.062-.033.106-.092.12-.16 0-1.54.35-3.24 0-4.57-.44-1.67-1.37-3.06-1.29-5.07.058-.307-.032-.624-.242-.855-.21-.232-.516-.352-.828-.325-2.86-.21-1.67-5-3.6-5.42-1.25-.25-1.44-1.67-2-2.69-.06-.1-.11-.32-.06-.39 1-1.54 0-3.11.42-4.67.38-1.36-.24-2.64 0-4 .51-2.62 2.47-3.79 3.24-7.2.22-1 1-1.4 1.62-1.93.12-.134.291-.21.47-.21.18 0 .351.076.47.21 2 2 2.39 2.29 1.83 3.4-.26.53-.44 1.11 0 1.53s1.19.9 1.69.29c.63-.77 1.58-.92 2.001-1.94.82-1.88 4.999-.23 5.919-4 .47-2 3.06-2 4.19-2.73 2.321-1.42-.33-3.2 2.48-6 1.073-1.105 1.991-2.349 2.73-3.7.78-.2.83-1.28 1.34-1.78 1.69.09 2.48.3 4.12-.67 4.06-2.39 4.731-.46 7.281-3.66 8.38-10.48 6.389-1.34 12.68-4.09 2.709-1.19 5.42-2.32 8-3.71 2.079-1.13 4-2.57 6.2-3.23.416-.136.77-.416 1-.79 1.21-1.82 1.759-.92 3.469-2.94 2.37-2.78-1.8-3.58 1.68-9.72.86-1.53 1.89-2.85 2.83-4.23.657-.372 1.131-.997 1.31-1.73 0 0 .29-.37.28-.37.065-.041.117-.1.15-.17.48-.2 1-.36 1.43-.6 1.69-.87-.539-2.13.83-3.08.93-.65 2-1.12 2.17-2.66.08-.64 1.06-.33 1.11-1.14 1.16-.45 1.2-2 2.13-1.71.17.05.28-.1.21-.27-.71-1.93.681-2.76.521-4.37.59-1.29-.001-.76 1.229-1.81.86.4 1.511 0 2.261.07.44 3.51.67 4-1 5.24-1.49-.2-1.771.25-1.381 2.13-.14.18-.4.32-.4.55 0 2.51-2.28 3.71-2.51 5.41-.046 1.173-.42 2.309-1.079 3.28-.078.073-.121.174-.12.28.23 1.33-.111 1.92-1.241 2.07-.74.1-.92 1.3-1.22 2.07-.299.77.43 1.22.92 1.6s.67-.08.82-.51c.72-2 2.82-3 3.82-3.87 1.42-1.24-1.339-2.73.841-4.32.648-.615 1.438-1.061 2.3-1.3 1.123-.286 2.021-1.128 2.38-2.23-.071-.09-.151-.24-.221-.26-.63-.18-1.259-.25-1.649-1.22-.391-.97.119-1.22.389-1.68.417-.668 1.013-1.205 1.72-1.55 1.071-.61.25-1 2.16-6.54.113-.255.171-.531.171-.81-7.308-30.898-20.38-60.139-38.531-86.19z"/><path d="m253.7 74.1088 2.75-1.21c-.27.36-.67.64-.78 1.08l-.86.83c-.35 0-.87.71-1.36 1.33-.51.1454-.965.4375-1.31.84-.639.4395-1.232.942-1.77 1.5-1.42.77-1 .48-1.48 1 .08.75 1.05.11 1.63.06.34.77 1.3-.54 2.09-1.28.893-.1344 1.75-.4473 2.52-.92.4-.59 0-.82.55-1.38 1.55-1.57 1-1.48 2.92-2.34.84-.32 1.08.35 1.84.2-.12 1.07.71.88 1.29 1.06.25.08.24.54.35.83.25.73.38.79 1.42 0 1.196-1.0112 2.501-1.8866 3.89-2.61 1.54-.33 2.08-3.06 4.55-4.29.387-.1433.698-.4399.86-.82.077-.0214.139-.0766.17-.15l.55-.24c1.415.016 2.737-.6983 3.5-1.89 0-.46-.86.45-.77-.17.05-.37.45-.62.62-1 .3-.44.52-.91.16-.89-1.42.12-1.9.11-5.37 2.52-1.6 1.12-1-.88-2.26.27 0 .12-.1.33-.12.43 0-.1.08-.31.12-.43-.58-.1-1.38 1.83-1.91.64l-.2-.22c-1.3-.2-3.44 1.61-4.46 2.42.14-.31.08-.42-.1-.4-.52-.11-.62-.79-1.36-.56-.301.0616-.564.2419-.73.5-1.38.79-2.74 1.57-4.12 2.41-1 .6-.84-.88-2.35.84-.248.31-.606.511-1 .56-1.67.48-3.8 2.09-5.56 2.92-.498.3318-.967.7065-1.4 1.12 1.96.17 4.98-.8 7.49-2.56z"/><path d="m181.64 374.706c.13-1.1-.76-2.56-1.85-3.76-.926-1.166-1.784-2.385-2.57-3.65-.422-.577-.625-1.286-.57-2 .19-2.76-.33-4.54-2.3-7.82-.3-.49-.62-.56-1-.79-2.34-1.51-5.64-2.92-8.57-6.88-.127-1.108-.798-2.079-1.79-2.59-.456-.294-.884-.629-1.28-1-.152-.64-.37-1.264-.65-1.86-.59-1-1.21-1.28-1.54-.62-.561 1.091-.601 2.376-.11 3.5 0 1 .33 2.21.21 3.15-.004.161.023.32.08.47.099.608.378 1.172.8 1.62.61.56.51-.3.95-.12.44.44.31.74.36 1.08-.006.949.382 1.858 1.07 2.51.167.191.296.412.38.65 1.17 2.95 3.18 5.83 4.73 8.74s3.51 5.71 5 8.57c.766 1.401 1.642 2.739 2.62 4 .49.67 1.05 1.33 1.54 1.12l.32.16.41.33c.59.32 2.18 2 3.74 1.33 2.17-.03-.24-4.03.02-6.14z"/><path d="m327.18 265.667c-.059-.074-.094-.165-.1-.26.03-.374-.151-.733-.47-.93-.38-3.18-.38-4.66-1.13-5.41 0 .2-.06.45-.06.45s0-.24.06-.45c-.93-1.8.12-3.14-.51-6 .06-.29.13-.59.2-.88.661-.744 1.232-1.563 1.7-2.44 1.35-1.92-.67-3.43 1.14-5.48.18-.2 0-.56-.33-.64 0-.66 0-1.32-.07-2 .27-.4.21-.66-.19-.77-.07-.26-.13-.52-.19-.77h-.05s.05 0 .06-.11h-.09l-.41-.45c-.012-.415-.304-.769-.71-.86-.207-.334-.321-.717-.33-1.11.063-.16-.012-.341-.17-.41-.08-.26-.16-.52-.25-.78.133-.603-.122-1.224-.64-1.56-.071-.058-.106-.15-.09-.24.24-1.5-.86-.88-1.31-2.23.007-.313-.228-.579-.54-.61-.1-.032-.178-.11-.21-.21-.06-.48-.27-.76-.67-.79-.61-1.23-.41-2.77-1-4.07-.48-1.08-.87-2.08-1.86-2.52-.653-.229-1.133-.79-1.26-1.47-.72-4.18-3.63-4.13-5.07-4.48-.873-1.105-1.92-2.061-3.1-2.83-1.23-.72-1.75-2.3-2.51-3.57.33-2.84 1.75-4.25-.66-6.86.09-2.61-1.49-3.57-2.85-4.73-.101-.063-.213-.107-.33-.13-4.87-1.39-5.29-6.3-5.81-7.57l.3-1.81c1.21-.86.71-2.56 3.09-3.63h.24l1.09.22c1 .87 2.05.15 3.08-.19 1.3-.43-.36-3.78 2-5.1.62-.35.66-1.26.5-2-.23-1-3.09-5.25-.23-12.13.39-.93.4-1.48-.36-1.86-1.53-.76-3-1.44-4.88-.93-2.23.6-4.5.21-6.74 1.32-.06 0-.13.06-.17 0-2-.75-4.07.57-6.08.64-1.65.06-2-.4-2.35-2.41-.72-4 .85-7.25 1.94-8 .339-.246.619-.564.82-.93 1.83-3.64 5.57-3.78 6.28-4.17.66-.453 1.056-1.2 1.06-2 .08-.85-.55-.87-1.05-.79-1.42.22-2.76-.56-4.28.65-.49.38-1.09.05-1.63 0-1.76-.24.27-2.21-.51-2.92-.45-.41-1 0-1.4.44-.455.407-1.024.665-1.63.74-2.56.61-.52-1.07-3.44-1.34-2.71-.25-.54-3.09-3-3.3-2.11-.18-3.56-1.66-5.07-2.9-.297-.293-.441-.707-.39-1.12.11-1.84-.92-2.34-2.07-2.26-2.07.16-3.86-.52-5.9-.3-.51.06-1.08-.13-.85-.79.51-1.5.09-3 1.14-4.46.61-.88 1.83-4.52-.78-4.48-.82 0-1.57 0-2-.71-.29-.45-.79-.49-1.35 0-1.17 1.13.33 1.69-.87 2.81-.466.298-.788.776-.89 1.32-.08.95.15 1.91-.89 3-.35-.43.34-1.33-.07-1.68s-.95-.06-1.39-.15c-.467-.177-.945-.327-1.43-.45-.62-.06-.64-.69 0-1.34.81-.87 1.44-1.92 2.21-2.79.853-1.013 1.529-2.163 2-3.4.59-1.46.75-1.51 1.92-1.87 1.65-.52 2.62.32 3.63 1.15 1.59 1.31 4.68.73 7-1.39.61 0 1-.42 1.1-1.25.896-.953 1.56-2.099 1.94-3.35.56-1.62 1.43-3.19 1.56-4.84.09-1.14-.58-2.61-1.46-2.59-1.56 0-1.29-1-3-1-2.58-.15-1.41-2.31-4.18-1.46-1 .3-1.67.19-2.15-.55s-1.39-.69-1.51-1.8c-.08-.68-2.07.42-1.79-1.36.14-.459.083-.956-.158-1.371-.241-.416-.644-.712-1.112-.819-1.07-.47-1.88-1.3202-3.08-1.5002-.32 0-.6-.24-.31-.88.7-1.53 2.8-.54 3.22-1.46.25-.54-.47-.55-.84-.58-.16 0-.41.11-.51 0-.782-.484-1.646-.8228-2.55-1-.572-.2895-1.266-.1627-1.7.31-.74.62-1.22.83-1.46.17-.11-.3-.6-.2-.87-.35-.76-.4-1.92-.12-2.47-.84-.19-.24-.74.09-1.14.23-1.54.53-3.07 1.08-4.59 1.62-1.89.67-.32-.85-1.34-.61-.18.0284-.355.0823-.52.16-3.67 1.86-5 0-7.38 2.88-.329-.054-.661.0812-.86.35-.39.41-.66.54-.78.29-.32-.67-1.34-.13-2.23.5602-1.6 1.25-3.38 1.84-5.7 3.69-.07.18-.14.36-.22.54h.86c-.271.482-.697.859-1.21 1.07-.626.348-1.3.604-2 .76-1.64.08-2.73 2.44-5.6 3.65-4 1.69-9.6 6.51-13.84 9.27-.411.254-.79.556-1.13.9-3.44 3.46-.28 3.08 1.49 2.33 2.627-1.168 5.176-2.504 7.63-4 1.09-.65 4-2.61 3.76-1.78-.19.59-.92.93-1.62 1.42-.847.407-1.454 1.188-1.64 2.11-.22.75-.92 1.35-1.23 2-.277.663-.845 1.162-1.54 1.35-.472.283-.912.618-1.31 1-.801.615-1.636 1.186-2.5 1.71-.72.49-1.58.62-1.22-.17.47-1 1.35-.86 2.31-1.81.27-.27.65-.53.74-.89.13-.59-1-.14-1.9.58-1.328 1.094-2.842 1.941-4.47 2.5-.76.31-.7.05.11-1s.77-1.06.39-1.2c-.83-.31-2.22.25-3.11.1-.54-.09-1.68.77-2.7 1.57s-1.24.83-1.24.34c0-1.14 1.91-1.91 1.94-2.92 0-.61.53-1.4 1.75-2.55-3.56 1.88-4.43 2.24-5.86 3.84-.52.57-.64.87-.23.69.541-.303 1.168-.416 1.78-.32-.96.9-1.99 1.722-3.08 2.46-1.15.62-2.12 1.07-2 .11-.422.154-.83.345-1.22.57 0-.21 0-.29-.25-.18-.765.262-1.551.46-2.35.59-.382.029-.751.156-1.07.37-1 .62-1.83.93-2.74 1.42.11-.44-.23-.16-2.24 1.13s-3 1.93-3.76 2.48c-20.983 30.046-35.047 64.369-41.18 100.5 1-.21 1.41 2.55 4.85.6.561-.205 1.136-.369 1.72-.49.183-.059.327-.199.39-.38.518-.083.974-.386 1.25-.83.061-.065.132-.119.21-.16.357-.065.636-.344.7-.7.601-.494 1.311-.837 2.07-1 .398-.034.726-.328.8-.72.47-.226.746-.722.69-1.24l.29-.68c.298-.163.501-.455.55-.79l.84-1.43c.484-.211.817-.666.87-1.19l.3-.58h.13l.13-.1c1.094.094 2.076.708 2.64 1.65 1.11 1.77-.5 2.06-4.1 6.9-1.65 2.23-3.91.91-4.2 4.73-1.74.5-4.21 2.14-7 1.76l-.31-.22c0-.59-.33-.9-.81-1 .1-.43 0-.67-.36-.69-.548-.268-1.001-.697-1.3-1.23-.361.681-.556 1.439-.57 2.21-.15.609-.361 1.202-.63 1.77-.9 7.18-1.22 10.81-1.57 18.15.2.68 1 .6 2.45.71.27.16.31.51.42.81.06 1.37.29 1.66 1.28 1.58 1.496.021 2.964.401 4.28 1.11 1.85.77.29 2.39 2.16 3.18 7.26 3.06 5.36 1.5 6.53 2.89.21.26.44.71.67.71 2 .07 3.63 2.2 5.37 2.09.774-.013 1.535.199 2.19.61.71 1.15 1.81 1.27 2.81 1.68.356.285.87.255 1.19-.07l.58-.19c.2 0 .28-.13.26-.37 1-1 .06-2.33.92-3.76.69-.86.49-1.81 1-3.49.21-.09.43-.29.39-.53-.35-1.91.79-2.55 1.79-3.32.31-.24.73-.36.74-.91.05-1.41-1.61-.48-1.57-2.1 3.11-2.88 2.76-7.42 6-8.64 1-.36 1.61-1.79 1.9-3.09s.93-2.32.53-3.54c.67-2 1.24-4 2.93-5.23.65-.47 1.46-.69 1.77-1.74.85-.56.52-1.71 1-2.43l.13-.12c.95-.38.93-1.39 1.17-2.24l.45-.77c.33-.198.516-.568.48-.95l.16-.21c.11 0 .18 0 .22-.18.052-.048.092-.106.12-.17.051-.009.095-.04.122-.084s.034-.097.018-.146l.27-.41c.548-.414.908-1.03 1-1.71.29-.502.666-.949 1.11-1.32.766-.174 1.569-.034 2.23.39.92.35.07 1.59.41 2.23-.08.28-.16.55-.23.83-.374.319-.568.801-.52 1.29-.04.127-.097.248-.17.36-.354.146-.582.496-.57.88-1 1.91-1.71 4.08-3.11 5.7-.61.71-.06 1.34-.14 2 .032 1.02-.493 1.977-1.37 2.5-.67.36-1 1.06-1.44 1.57-.44-.13-.85.39-.89.67-.21 1.69-1.41 3.1-1.28 4.88.375 2.78-.77 5.547-3 7.25-2.07 1.56-2 5.8-2.56 7.07-.22.63-.13.4-.49 1.37-.56 0-.81-.42-.79-1.13 0-.39 0-.82-.4-.91s-.47.42-.67.69-.32.5-.46.71c.11.81.85.5 1 1.07-.47 1.27-1.72 1.06-2.36 2-.175.214-.381.403-.61.56-1.351 1.822-2.813 3.559-4.38 5.2-.041.04-.075.088-.1.14-.93 1.29-.85 2 .43 3.25-.46.44-1.13.66-1.15 1.55-1.6 2-2.15 3-4.06 1.78-2.21-1.43-2.34-.44-3.2-.63s-1.38-.88-2.07-1.12-1.39.18-2.17-.31c-.93-.58-2.05-.19-3.06-.66-.79-.36-1.67-.32-2.24-1.32-.28-.49-.73-.29-1.09-.1s-.28.55-.17.93c.44 1.57-.48 2.39.38 3.5.55.7.34 1.91.73 2.78.499 1.162 1.077 2.288 1.73 3.37 3.33 5.54 2.42 7.63 9.23 15.45.988 1.506 2.372 2.71 4 3.48.717.901 1.528 1.723 2.42 2.45 7.73 8.29 7.15 10.15 10.87 12.57.121.399.275.787.46 1.16.124.377.379.697.72.9 1.74 4.74 4.45 7.82 3.18 9.11-1 1-.29 2.79-.52 4.11 1.32 1.87.62 3.3.76 4.89.18 2.16-1.88.36-1.19 3.54.19.91.46 1.82.69 2.73.13.59.25 1.17.37 1.75l.27 1.11c.359 1.262.534 2.568.52 3.88-.06.06-.05.16 0 .27.06.27.13.53.2.79.049.106.089.217.12.33l.15.38c.504 1.285 1.335 2.415 2.41 3.28.218.464.528.879.91 1.22.357.566.853 1.03 1.44 1.35.08.051.168.089.26.11.341.539.836.964 1.42 1.22 2.285 1.192 4.24 2.93 5.69 5.06.264.377.58.714.94 1 1.567 1.233 2.963 2.669 4.15 4.27.34 1-.25 1.43.05 2.38-.098.441-.06.901.11 1.32-.36.09-.33.5-.24 1 .389 1.867.938 3.697 1.64 5.47.39 1.015 1.067 1.895 1.95 2.53 2.48 1.83 3.74 2.43 4.73 3.28.54.46 1 1.07.88 1.61-.011.705.18 1.399.55 2 1 2.1 2.31 5.24 4.42 7 2.28 1.94 3.28 4.73 7.46 9 2 2 4 4.25 6.08 6 .425.387.876.745 1.35 1.07 1.37.81 2.74 1.45 4.12 2.35.855.475 1.791.783 2.76.91 1.5.43 3 .41 4.76 2.18.279.269.624.459 1 .55 1.282.291 2.46.923 3.41 1.83.283.356.79.438 1.17.19.539-.443 1.172-.758 1.85-.92.18 0 .25-.17.27-.38s0-.23 0-.33c-.021-1.692-.395-3.361-1.1-4.9-.091-.547-.025-1.109.19-1.62.562-1.058.867-2.233.89-3.43.092-.627.092-1.263 0-1.89.25 0 .29-.23.2-.56.329-.99.856-1.902 1.55-2.68.557-.528.825-1.291.72-2.05.42-2.192.437-4.442.05-6.64-.086-.412-.086-.838 0-1.25.336-1.596.225-3.253-.32-4.79-.427-1.125-.347-2.379.22-3.44.169-.356.251-.747.24-1.14.56-.15.74-.72.87-1.35.22-1.07.46-2.13.69-3.2.378-1.632.987-3.201 1.81-4.66.441-.752.556-1.651.32-2.49-1-5.51-.71-5.59-1.11-5.88l-.39-.63c-.11-.56-.12-1.12-.51-1.42-.87-2.08-1.8-7.27-4.44-8.76-.462-.977-.869-1.978-1.22-3-.39-1.155-.39-2.406 0-3.56.46-1.13.5-2.49.94-3.63.75-2-1.57-1.54-.75-4.59 1.8-6.69 1.9-7.25 2-8.09.076-1.41.605-2.757 1.51-3.84 1.26-1.38 2-3.4 3.27-4.79.855-.671 1.426-1.638 1.6-2.71.313-.402.553-.856.71-1.34.83-1.86.84-1.87-.38-3.67s-.36-4.31-1.78-7.49c-.651-1.704-.831-3.553-.52-5.35.35-3 1.3-1.46 2-2.74 1.34-2.61 3.84-.42 5.48-.86 2.48.92 2.69 1.43 4.1-1 1.07-1.85 1.62-6.52 5.11-5.53.738.253 1.531.295 2.29.12 1.91.28 3.86.37 5.56 1.94.26.157.557.243.86.25.12.18.26.22.41.11l.81.22c.91 1.76 3.09 1.64 5.05 3.05.494.397 1.176.468 1.74.18 4.51-2.11 9-1 13.42 1.4 1.156.806 2.703.761 3.81-.11 6-4.62 7.42-7.86 11.43-9.44.69-.27 1.28-.92 2-1.2 1.6-.64 0-1.42.41-2.36.9-2.22 1.29-4.75 3.18-6.34 1.24-1.06 2.84-1.54 3.76-3.21.11-.171.298-.276.5-.28 1.69.08 2.16-1.89 3.15-3 .294-.464.385-1.028.25-1.56-.258-2.445-.331-4.905-.22-7.36.07-.27.15-.54.23-.82.114-.062.218-.139.31-.23 1.18-1.52 1.14-1.8-.49-2.88z"/><path d="m312 135.169c-.33-.48-.87-.77-.93-1.48s.63-1 1-1.46c.483-.768.628-1.702.4-2.58-.3-1.5-3.32.4-3.34-1.17 0-2-1.2-2.2-2.44-2-1.6.22-3.25 0-4.78 1.75-2.58 2.95 1.36 1.2.33 4.49-.353.748-.455 1.589-.29 2.4.44 1.34 1 2.28 2.47 1.88 1.79-.49 2.39 1.63 5.45 1.25.825.012 1.636-.21 2.34-.64.84-.62.94-1.26.33-2-.19-.17-.4-.27-.54-.44z"/><path d="m303.89 125.236c.18-1-1.31-.54-1.56-1.66h.6c.57-.1 1.09-.42.85-1.17-.25-.628.008-1.345.6-1.67.7-.55.71-1.71-.19-1.58-.567.01-1.133-.065-1.68-.22 0-.43-.2-.67-.58-.63l-.54-1.16c-.41-1.88-3.53 1-4.45-1.61-.23-.66-1.12-.1-1 .74s0 1.6.67 1.82c.57.58 1.62.12 1.26 1.3-.28.91-1.07.6-1.63.71-2.3.47-3.83 0-3.25 1.78.72 2.16 2.46 2.69.53 3.84-3.31 2-2.12 3.91-4.12 4.78-3 1.31-3.33 5.3-5.25 5.73-1.7.39-3 1.51-2.39 3.13.32.8.89 1.41.24 2.64-.026.173.034.349.16.47.81.54 1.63 1.31 2.7 1 1.87-.53 3.57 0 5.42-.44.77-.18 1.55-.17 2.32-.29s1.56-.26 2.07.55c.146.232.407.366.68.35 1.174-.309 2.421-.151 3.48.44.18.11.46 0 .58-.35s-.06-.49-.21-.65c-2.37-2.36-2.9-2.52-2.51-3.39s1.17-.61 1.83-.62c.85 0 1.27-1.36.35-1.45-.27 0-.55 0-.82 0-.24-.73-1-1-1-2l.43-.5c.57 0 1-.26 1-1.06.09-1.25-.75-.89-3.79-.49.132-.867.353-1.719.66-2.54 2.46-3 2.95-.5 3.91-2.44l.59-.11c.81-.53-.06-1.2.54-1.87.92.58 2-.77 3.05-.77.24 0 .42-.32.48-.62z"/><path d="m351.35 90.167c.64.91-.43 1.09-1.45 1-1.31-.1-2.54-.59-2.62.47s1.4.11 3.26 1.29c-1.55.71-2.82-.1-4 1.17-.59.64-.64 1.11.11 1.43.182.04.297.2181.26.4-.23.42-.59.31-.89.31-5.3.14-4.55 2-7 1.47-.1.0223-.193.0706-.27.14-1.83.47-3.55.57-4.67-1.35-1.17.29-.87.18-1.35.44-.82.14-1.07-.23-1.76-.63-.47.08-.89.18-1-.37h-.1c-.098.0433-.209.0455-.309.006-.099-.0395-.179-.1173-.221-.216l.08-.08c-.204.158-.469.2133-.72.15-.22.27-.48.47-.74.36-1-.44-1.8-1.17-2.72-1.69-.55-.31-.68-1.19.2-1.86l3.19-2.49c.143-.0818.306-.1201.47-.11.505-.0764.98-.2909 1.37-.62 1.77-1.32 2.18 1.15 4.89.39.766-.1835 1.564-.1835 2.33 0l.6-.12c.81-.35 1.46.55 2.29.06s1.12-.24 1.59.49c.59.93 1.28.75 2-.3.261-.4569.755-.7307 1.28-.71 1.8-.82.77-1.75 5.2.25.288.1799.529.4269.7.72z"/></g><g opacity=".12"><path d="m651.83 270.436c-.42-.001-.83-.134-1.17-.38-1.07-.77-2.15-1.55-3.24-2.32-.583-.415-.9-1.108-.832-1.82.068-.711.51-1.333 1.16-1.63s1.409-.225 1.992.19l3.26 2.34c.702.508.996 1.41.73 2.235-.266.824-1.034 1.384-1.9 1.385z"/><path d="m525 462.407c-2.66 0-5.35 0-8-.06-1.105 0-2-.895-2-2 0-1.104.895-2 2-2 2.667.04 5.333.06 8 .06 1.105 0 2 .896 2 2 0 1.105-.895 2-2 2z"/><path d="m535 462.348c-1.105 0-2-.895-2-2s.895-2 2-2c2.69 0 5.35-.09 8-.16 1.105-.03 2.025.84 2.055 1.945s-.84 2.025-1.945 2.055c-2.67.08-5.35.13-8 .17z"/><path d="m507 462.167h-.06c-2.667-.08-5.333-.173-8-.28-1.105-.022-1.982-.936-1.96-2.04.022-1.105.935-1.982 2.04-1.96h.08l8 .27c1.104.014 1.989.92 1.975 2.025-.014 1.104-.921 1.989-2.025 1.975z"/><path d="m553.11 461.857c-1.105.022-2.018-.856-2.04-1.96-.022-1.105.855-2.018 1.96-2.04 2.666-.12 5.333-.26 8-.42.714-.041 1.397.302 1.789.9.393.598.437 1.361.115 2-.321.639-.96 1.059-1.674 1.1-2.667.146-5.334.283-8 .41z"/><path d="m488.89 461.396c-2.66-.15-5.34-.3-8-.47-1.105-.072-1.942-1.025-1.87-2.13s1.025-1.942 2.13-1.87c2.67.18 5.34.33 8 .47 1.105.03 1.975.95 1.945 2.055s-.95 1.975-2.055 1.945z"/><path d="m571.169 460.718c-1.104.044-2.035-.816-2.079-1.92-.045-1.105.815-2.036 1.92-2.08 2.666-.207 5.333-.437 8-.69.714-.066 1.41.254 1.824.84.415.585.485 1.348.185 2s-.925 1.094-1.639 1.16c-2.64.25-5.32.48-8 .7z"/><path d="m470.99 460.218h-.16l-8-.66c-.714-.061-1.342-.498-1.647-1.147-.304-.65-.24-1.412.17-2 .41-.589 1.103-.914 1.817-.853 2.667.226 5.334.443 8 .65.715.027 1.361.433 1.695 1.065s.305 1.394-.075 2c-.381.605-1.055.962-1.77.935z"/><path d="m589.14 458.967c-1.105.064-2.052-.78-2.115-1.885-.064-1.104.78-2.051 1.885-2.115 2.68-.32 5.34-.65 7.92-1 .714-.096 1.426.196 1.867.766.441.571.544 1.333.27 2s-.883 1.138-1.597 1.234c-2.61.36-5.3.7-8 1z"/><path d="m453 458.639h-.2c-2.667-.26-5.333-.537-8-.83-.715-.079-1.333-.533-1.622-1.191s-.205-1.42.22-2c.425-.579 1.127-.888 1.842-.809 2.667.293 5.317.57 7.95.83 1.104.052 1.957.99 1.905 2.095-.053 1.104-.991 1.957-2.095 1.905z"/><path d="m435.06 456.637h-.24c-2.667-.32-5.334-.653-8-1-.715-.091-1.326-.556-1.605-1.221-.278-.664-.181-1.426.255-2 .436-.573 1.145-.87 1.86-.779 2.666.353 5.316.687 7.95 1 1.104.066 1.946 1.015 1.88 2.12s-1.016 1.946-2.12 1.88z"/><path d="m607 456.5c-1.105.085-2.069-.741-2.155-1.845-.086-1.105.74-2.07 1.845-2.155 2.64-.43 5.29-.88 7.86-1.35.718-.168 1.47.074 1.957.628.486.554.629 1.33.37 2.021s-.876 1.183-1.607 1.281c-2.6.48-5.27.94-7.94 1.37-.108.026-.219.043-.33.05z"/><path d="m417.16 454.319h-.28l-8-1.169c-.734-.076-1.367-.549-1.647-1.232-.279-.682-.161-1.463.309-2.032s1.215-.832 1.938-.687c2.666.4 5.306.784 7.92 1.15 1.104.078 1.937 1.036 1.86 2.141-.078 1.104-1.036 1.937-2.14 1.859z"/><path d="m624.71 453.169c-1.104.116-2.094-.686-2.21-1.79-.116-1.105.686-2.094 1.79-2.21 2.62-.56 5.23-1.15 7.78-1.76.699-.177 1.44.035 1.938.557.498.521.677 1.27.469 1.96-.209.69-.773 1.215-1.477 1.373-2.58.62-5.22 1.22-7.87 1.78-.136.045-.277.075-.42.09z"/><path d="m399.28 451.577h-.33c-2.63-.42-5.28-.86-7.93-1.32-1.06-.216-1.757-1.235-1.573-2.3.184-1.066 1.182-1.793 2.253-1.64 2.63.45 5.27.89 7.89 1.31 1.105.085 1.931 1.05 1.845 2.155-.086 1.104-1.05 1.93-2.155 1.845z"/><path d="m642.28 448.876c-1.003.003-1.853-.738-1.987-1.733-.135-.994.489-1.934 1.457-2.197 2.59-.72 5.15-1.48 7.63-2.25.696-.268 1.483-.127 2.042.366.56.494.798 1.257.619 1.981s-.746 1.288-1.471 1.463c-2.51.79-5.12 1.56-7.75 2.29-.187.065-.382.102-.58.11z"/><path d="m381.53 448.519h-.36l-7.91-1.47c-.924-.334-1.469-1.291-1.285-2.256s1.042-1.654 2.025-1.624c2.626.5 5.25.986 7.87 1.46 1.104.096 1.921 1.07 1.825 2.175-.097 1.104-1.071 1.921-2.175 1.825z"/><path d="m363.77 445.168c-.133.014-.267.014-.4 0l-7.86-1.62c-1.031-.27-1.669-1.302-1.45-2.345.218-1.043 1.217-1.732 2.27-1.565 2.62.55 5.23 1.08 7.83 1.61 1.104.108 1.912 1.09 1.805 2.195-.108 1.104-1.091 1.913-2.195 1.805z"/><path d="m659.44 443.448c-.97-.002-1.8-.699-1.967-1.655-.168-.956.375-1.894 1.287-2.225 2.52-.92 5-1.88 7.41-2.85.668-.307 1.451-.223 2.038.219.588.442.885 1.171.775 1.898-.111.727-.611 1.334-1.303 1.583-2.44 1-5 2-7.56 2.91-.218.075-.448.113-.68.11z"/><path d="m346.13 441.449c-.143.014-.287.014-.43 0-2.613-.574-5.223-1.16-7.83-1.76-1.077-.246-1.751-1.318-1.505-2.395s1.318-1.751 2.395-1.505c2.61.6 5.21 1.18 7.8 1.76.99.225 1.654 1.157 1.544 2.166-.11 1.01-.959 1.776-1.974 1.784z"/><path d="m328.55 437.446c-.155-.002-.309-.018-.46-.05-2.62-.63-5.22-1.26-7.81-1.91-.693-.178-1.238-.713-1.43-1.403-.192-.689-.002-1.429.5-1.94.501-.511 1.237-.715 1.93-.537l7.78 1.9c.976.245 1.619 1.177 1.5 2.177s-.963 1.755-1.97 1.763z"/><path d="m676.1 436.568c-.93-.005-1.734-.651-1.939-1.558s.242-1.836 1.079-2.242c2.42-1.16 4.79-2.37 7-3.6.972-.527 2.187-.167 2.715.805.527.972.167 2.188-.805 2.715-2.31 1.26-4.75 2.5-7.24 3.69-.258.099-.534.143-.81.13z"/><path d="m311 433.017c-.169 0-.337-.02-.5-.06-2.61-.67-5.2-1.36-7.78-2.05-.741-.13-1.346-.666-1.566-1.385-.22-.72-.018-1.502.524-2.024.542-.523 1.331-.697 2.042-.451 2.566.667 5.146 1.333 7.74 2 .963.261 1.586 1.193 1.46 2.183-.126.989-.962 1.735-1.96 1.747z"/><path d="m293.57 428.328c-.182.001-.364-.022-.54-.07l-7.74-2.2c-.71-.177-1.268-.728-1.452-1.437s.033-1.462.567-1.963 1.3-.67 1.995-.44c2.56.74 5.13 1.46 7.7 2.18.968.263 1.592 1.203 1.458 2.197s-.984 1.736-1.988 1.733z"/><path d="m691.82 427.746c-.678.001-1.31-.342-1.68-.91-.291-.444-.393-.986-.284-1.505.109-.52.42-.975.864-1.265 2.25-1.46 4.41-3 6.44-4.53.881-.668 2.137-.496 2.805.385s.496 2.137-.385 2.805c-2.1 1.6-4.35 3.18-6.67 4.69-.312.206-.676.32-1.05.33z"/><path d="m276.23 423.308c-.196.003-.392-.024-.58-.08-2.58-.77-5.14-1.56-7.69-2.34-1.057-.326-1.651-1.448-1.325-2.505.326-1.058 1.448-1.651 2.505-1.325 2.54.793 5.094 1.573 7.66 2.34.94.292 1.529 1.224 1.387 2.199-.143.974-.972 1.7-1.957 1.711z"/><path d="m259 417.957c-.208 0-.414-.034-.61-.1-2.56-.82-5.107-1.65-7.64-2.49-.724-.185-1.284-.759-1.452-1.486-.169-.728.082-1.489.651-1.973.568-.485 1.359-.613 2.051-.331l7.61 2.48c.931.306 1.503 1.241 1.351 2.209-.151.968-.981 1.684-1.961 1.691z"/><path d="m706 416.656c-.819.001-1.556-.497-1.86-1.257s-.114-1.629.48-2.193c1.89-1.792 3.686-3.681 5.38-5.66.75-.676 1.886-.688 2.649-.026.763.661.914 1.788.351 2.626-1.784 2.095-3.673 4.098-5.66 6-.356.318-.813.499-1.29.51z"/><path d="m241.89 412.269c-.221-.003-.441-.041-.65-.11-2.54-.87-5.08-1.76-7.59-2.65-.697-.22-1.219-.802-1.361-1.519-.142-.716.118-1.454.678-1.922.561-.469 1.332-.595 2.013-.329 2.513.886 5.033 1.766 7.56 2.64.922.319 1.479 1.257 1.318 2.219-.161.963-.993 1.669-1.968 1.671z"/><path d="m224.89 406.269c-.235-.001-.468-.041-.69-.12-2.53-.93-5-1.86-7.54-2.81-1.033-.392-1.552-1.547-1.16-2.58.392-1.032 1.547-1.552 2.58-1.16 2.48.94 4.98 1.87 7.5 2.79.914.332 1.457 1.273 1.287 2.231-.171.957-1.005 1.653-1.977 1.649z"/><path d="m717.5 402.829c-.374.002-.741-.102-1.06-.3-.934-.583-1.22-1.813-.64-2.75 1.364-2.19 2.58-4.468 3.64-6.82.474-.966 1.629-1.384 2.612-.945s1.442 1.577 1.039 2.575c-1.133 2.518-2.432 4.957-3.89 7.3-.378.574-1.024.914-1.711.9z"/><path d="m208 399.839c-.25-.002-.497-.049-.73-.14-2.513-.98-5.007-1.98-7.48-3-.663-.268-1.132-.869-1.231-1.577-.1-.708.186-1.415.75-1.855.563-.44 1.318-.546 1.981-.278 2.46 1 4.94 2 7.44 2.95.907.344 1.436 1.289 1.256 2.241-.179.953-1.017 1.64-1.986 1.629z"/><path d="m191.26 393.067c-.265.001-.527-.053-.77-.16-2.49-1-5-2.08-7.41-3.14-.961-.468-1.384-1.608-.962-2.589.423-.981 1.542-1.457 2.542-1.081 2.44 1.047 4.897 2.087 7.37 3.12.885.364 1.389 1.304 1.201 2.242-.187.939-1.014 1.613-1.971 1.608z"/><path d="m724.51 386.289c-.162 0-.323-.02-.48-.06-.517-.125-.962-.451-1.237-.905-.276-.454-.36-.999-.233-1.515l.11-.45c.561-2.359.959-4.755 1.19-7.17.069-.714.515-1.337 1.168-1.634.654-.297 1.416-.223 2 .195.584.417.901 1.115.832 1.829-.251 2.593-.679 5.166-1.28 7.7l-.11.48c-.219.904-1.031 1.538-1.96 1.53z"/><path d="m174.68 385.907c-.279.001-.554-.057-.81-.17-2.46-1.1-4.91-2.21-7.33-3.32-.949-.491-1.344-1.641-.898-2.612.447-.971 1.578-1.419 2.568-1.018l7.29 3.3c.855.39 1.324 1.322 1.127 2.24-.198.918-1.007 1.576-1.947 1.58z"/><path d="m158.29 378.348c-.297.001-.591-.064-.86-.19-2.44-1.167-4.854-2.337-7.24-3.51-.956-.505-1.338-1.678-.862-2.649s1.637-1.388 2.622-.941c2.38 1.166 4.78 2.33 7.2 3.49.837.405 1.284 1.334 1.079 2.241-.206.907-1.009 1.553-1.939 1.559z"/><path d="m142.1 370.346c-.317 0-.629-.075-.91-.22-2.4-1.233-4.78-2.47-7.14-3.71-.978-.516-1.352-1.727-.835-2.705.516-.977 1.727-1.351 2.705-.835 2.34 1.24 4.703 2.47 7.09 3.69.822.422 1.248 1.351 1.032 2.249-.216.897-1.019 1.531-1.942 1.531z"/><path d="m725.93 368.349c-1.045.003-1.917-.799-2-1.841-.205-2.583-.569-5.151-1.09-7.69-.221-1.082.477-2.139 1.56-2.36 1.082-.22 2.139.478 2.36 1.56.556 2.7.94 5.432 1.15 8.18.041.53-.13 1.054-.475 1.457s-.836.653-1.365.694z"/><path d="m126.15 361.888c-.35.008-.696-.078-1-.25-2.37-1.3-4.72-2.61-7-3.93-.961-.552-1.292-1.779-.74-2.74s1.779-1.292 2.74-.74c2.29 1.31 4.62 2.61 7 3.9.815.439 1.222 1.38.984 2.275-.238.894-1.059 1.509-1.984 1.485z"/><path d="m110.47 352.938c-.352-.003-.697-.1-1-.28-2.327-1.38-4.623-2.766-6.89-4.16-.621-.368-.996-1.041-.981-1.763s.418-1.379 1.054-1.72c.637-.342 1.407-.313 2.017.073 2.253 1.38 4.533 2.757 6.84 4.13.771.458 1.144 1.373.911 2.24-.233.866-1.014 1.471-1.911 1.48z"/><path d="m722.14 350.767c-.854-.001-1.613-.543-1.89-1.35-.84-2.39-1.82-4.84-2.92-7.27-.331-.656-.276-1.44.143-2.043.42-.603 1.136-.928 1.866-.846.729.082 1.356.558 1.631 1.239 1.15 2.54 2.18 5.1 3.06 7.61.359 1.041-.191 2.176-1.23 2.54-.21.085-.434.133-.66.14z"/><path d="m95.14 343.446c-.3994.023-.7965-.074-1.14-.28-2.27-1.46-4.53-2.94-6.74-4.42-.8952-.624-1.1252-1.85-.5167-2.756.6084-.906 1.8306-1.157 2.7467-.564 2.18 1.46 4.43 2.93 6.68 4.38.7456.482 1.0846 1.397.8325 2.248-.252.851-1.0349 1.434-1.9225 1.432z"/><path d="m714.6 334.45c-.717.002-1.381-.379-1.74-1-1.27-2.21-2.67-4.47-4.16-6.71-.556-.918-.289-2.11.604-2.703.894-.593 2.097-.376 2.726.493 1.54 2.31 3 4.64 4.3 6.93.357.618.357 1.38 0 1.999-.356.618-1.016 1-1.73 1.001z"/><path d="m80.1701 333.448c-.4123-.001-.814-.131-1.15-.37-2.2-1.55-4.4-3.14-6.54-4.71-.6-.414-.9271-1.122-.8537-1.847.0733-.725.5355-1.353 1.2062-1.639.6707-.285 1.4437-.183 2.0175.266 2.12 1.56 4.29 3.13 6.47 4.66.717.501 1.0257 1.409.7623 2.243s-1.0379 1.4-1.9123 1.397z"/><path d="m65.6704 322.689c-.4454.001-.8782-.147-1.23-.42-2.15-1.68-4.27-3.38-6.3-5.05-.8477-.703-.9676-1.959-.2684-2.81.6993-.85 1.9547-.976 2.8084-.28 2 1.65 4.1 3.33 6.22 5 .6674.527.9288 1.418.6519 2.222-.2769.803-1.0318 1.344-1.8819 1.348z"/><path d="m704.5 319.466c-.622.002-1.21-.287-1.59-.78-1.57-2-3.24-4.11-5-6.16-.715-.842-.612-2.105.23-2.82.843-.715 2.105-.612 2.82.23 1.78 2.1 3.5 4.22 5.1 6.31.465.603.546 1.418.211 2.101s-1.029 1.117-1.791 1.119z"/><path d="m51.7402 311.169c-.4861 0-.9554-.178-1.32-.5-2-1.79-4.06-3.62-6-5.43-.8063-.756-.8466-2.023-.09-2.83.7566-.806 2.0237-.846 2.83-.09 1.9 1.78 3.88 3.58 5.89 5.35.8274.73.908 1.991.18 2.82-.3768.429-.919.677-1.49.68z"/><path d="m692.74 305.808c-.553.001-1.081-.227-1.46-.63-1.78-1.89-3.64-3.8-5.55-5.69-.509-.501-.712-1.237-.532-1.929.181-.692.716-1.235 1.405-1.425.69-.19 1.428.003 1.937.504 1.94 1.93 3.85 3.88 5.65 5.8.751.805.711 2.065-.09 2.82-.362.327-.833.505-1.32.5z"/><path d="m38.5803 298.809c-.5379 0-1.0534-.216-1.43-.6-1.9199-2-3.79-3.94-5.56-5.88-.4823-.536-.642-1.289-.4191-1.974.223-.686.7948-1.2 1.5-1.35.7053-.15 1.4368.088 1.9191.624 1.73 1.91 3.57 3.85 5.46 5.77.5711.574.7393 1.436.4261 2.183-.3133.747-1.0461 1.232-1.8561 1.227z"/><path d="m679.86 293.177c-.499.001-.981-.184-1.35-.52-1.91-1.74-3.91-3.52-6-5.28-.693-.749-.71-1.9-.04-2.67s1.812-.912 2.65-.33c2.08 1.79 4.11 3.59 6 5.36.605.558.806 1.429.508 2.195-.298.767-1.035 1.273-1.858 1.275z"/><path d="m26.5605 285.317c-.6001.002-1.169-.266-1.55-.73-1.75-2.14-3.43-4.3-5-6.42-.6141-.889-.4102-2.106.4603-2.747.8706-.64 2.0928-.473 2.7597.377 1.52 2.06 3.15 4.17 4.86 6.26.6944.857.5647 2.114-.29 2.81-.3506.286-.7877.445-1.24.45z"/><path d="m666.18 281.377c-.454-.001-.895-.156-1.25-.44-2-1.63-4.14-3.29-6.27-4.92-.878-.671-1.046-1.927-.375-2.805s1.927-1.046 2.805-.375c2.16 1.66 4.3 3.33 6.35 5 .655.534.904 1.422.621 2.219-.283.796-1.036 1.329-1.881 1.331z"/><path d="m16 270.719c-.6875-.002-1.3257-.357-1.69-.94-1.47-2.34-2.85-4.71-4.11-7-.33766-.631-.31323-1.394.0641-2.001.3772-.608 1.0501-.968 1.765-.945s1.3632.425 1.7009 1.056c1.21 2.25 2.54 4.53 4 6.8.2829.449.3755.993.2573 1.51-.1182.518-.4374.968-.8873 1.25-.333.194-.715.288-1.1.27z"/><path d="m7.66981 254.719c-.81105 0-1.5418-.49-1.85-1.24-1.06-2.58-2-5.17-2.76-7.71-.26018-.697-.11161-1.481.38563-2.035s1.26089-.786 1.98212-.602 1.28074.753 1.45225 1.477c.74 2.41 1.62 4.88 2.64 7.35.25344.617.18268 1.32-.18866 1.874s-.9944.886-1.66134.886z"/><path d="m2.72 237.498c-.99729.011-1.850461-.714-2-1.7-.411213-2.722-.6516831-5.468-.72-8.22 0-1.105.89543-2 2-2 1.08533 0 1.97287.865 2 1.95.07011 2.559.30392 5.111.7 7.64.08583.531-.04614 1.075-.36606 1.508-.31992.432-.8008.718-1.33394.792z"/><path d="m2.64019 219.497c-.10308.01-.20693.01-.31 0-1.09027-.169-1.837529-1.19-1.670003-2.28.23-1.49.520003-3 .860003-4.46.29-1.21.63-2.44 1-3.64.21078-.684.77056-1.204 1.46845-1.364.6979-.159 1.42789.066 1.915.59.48711.525.65733 1.27.44655 1.954-.35 1.11-.65 2.25-.92 3.39-.33 1.36-.6 2.75-.81 4.14-.14846.978-.99029 1.701-1.98 1.7z"/><path d="m8.21031 202.429c-.31985.001-.63534-.074-.92-.22-.97892-.506-1.36354-1.709-.86-2.69 1.26911-2.453 2.69542-4.821 4.26999-7.09.4126-.589 1.1084-.914 1.8253-.851.7168.062 1.3458.503 1.65 1.155s.2373 1.417-.1753 2.006c-1.4729 2.126-2.809 4.344-4 6.64-.34604.668-1.03769 1.085-1.78999 1.08z"/><path d="m18.6501 187.788c-.7959.002-1.5169-.469-1.8359-1.198s-.1753-1.578.3659-2.162c1.82-1.95 3.8-3.87 5.89-5.72.5359-.473 1.2836-.625 1.9615-.397.6779.227 1.183.799 1.325 1.5.1421.701-.1006 1.424-.6365 1.897-2 1.76-3.88 3.59-5.61 5.44-.3716.418-.9011.661-1.46.67z"/><path d="m32.2603 175.988c-.8723.005-1.6471-.556-1.9147-1.387-.2676-.83.0338-1.738.7447-2.243 2.16-1.54 4.44-3.05 6.81-4.5.9499-.58 2.1901-.28 2.77.67s.2799 2.19-.67 2.77c-2.29 1.4-4.5 2.87-6.57 4.35-.3416.243-.7509.372-1.17.37z"/><path d="m47.6805 166.647c-.9178-.005-1.7143-.634-1.9319-1.526s.1996-1.817 1.0119-2.244c2.35-1.21 4.81-2.4 7.31-3.54 1.0051-.459 2.1916-.015 2.65.99s.0151 2.191-.99 2.65c-2.45 1.11-4.85 2.27-7.13 3.45-.2821.156-.5977.242-.92.25z"/><path d="m64.1399 159.276c-.9676.005-1.8001-.683-1.9771-1.634-.1769-.951.3524-1.893 1.2571-2.236 2.45-1 5-1.89 7.6-2.78 1.0438-.362 2.1832.191 2.545 1.235.3617 1.044-.1912 2.183-1.235 2.545-2.55.88-5.06 1.8-7.46 2.73-.2293.106-.4777.164-.73.17z"/><path d="m81.2202 153.448c-.9972.005-1.8458-.726-1.9893-1.712-.1435-.987.462-1.929 1.4193-2.208 2.52-.75 5.13-1.48 7.78-2.19.7019-.21 1.4625-.02 1.9825.496s.7162 1.276.5113 1.979-.778 1.238-1.4938 1.395c-2.61.69-5.19 1.42-7.67 2.16-.1748.058-.3561.095-.54.11z"/><path d="m98.6796 148.868c-1.0191.003-1.8774-.761-1.9928-1.773-.1153-1.013.5491-1.95 1.5428-2.177 2.5804-.59 5.2304-1.17 7.8904-1.71.7-.143 1.423.099 1.897.634s.626 1.282.4 1.96-.797 1.183-1.497 1.326c-2.63.54-5.25 1.1-7.7904 1.69-.1472.041-.2979.067-.45.08z"/><path d="m116.68 145.287c-.714.061-1.407-.264-1.817-.853-.41-.588-.475-1.351-.17-2s.933-1.086 1.647-1.147c1.333-.234 2.667-.454 4-.66.724-.163 1.479.088 1.961.653.482.564.611 1.349.336 2.039-.275.689-.909 1.17-1.647 1.248l-3.93.66c-.124.032-.252.052-.38.06z"/><path d="m391.14 535.367c-1.105 0-2-.896-2-2 0-1.105.895-2 2-2 1.31 0 2.64-.09 4-.19s2.52-.23 3.79-.39c.714-.095 1.425.199 1.864.77.439.572.54 1.334.265 2s-.885 1.135-1.599 1.23c-1.35.18-2.7.32-4 .42s-2.8.17-4.19.2z"/><path d="m381.14 534.849h-.24c-2.717-.337-5.414-.818-8.08-1.44-.697-.162-1.254-.684-1.461-1.369-.208-.684-.034-1.428.455-1.95s1.219-.743 1.916-.581c2.526.598 5.083 1.055 7.66 1.37 1.104.069 1.944 1.021 1.875 2.125-.069 1.105-1.021 1.944-2.125 1.875z"/><path d="m408.86 532.756c-1.006.008-1.861-.732-1.997-1.727-.137-.996.486-1.939 1.457-2.203 2.493-.696 4.947-1.527 7.35-2.49.668-.293 1.442-.199 2.021.245.579.445.869 1.169.759 1.89-.111.721-.605 1.325-1.29 1.575-2.538 1.017-5.129 1.898-7.76 2.64-.17.045-.345.069-.52.07z"/><path d="m363.7 530.55c-.235-.005-.469-.049-.69-.13-2.51-.93-5-2-7.53-3.19-.968-.491-1.368-1.665-.901-2.645s1.63-1.408 2.621-.965c2.39 1.13 4.81 2.16 7.2 3 .916.332 1.459 1.276 1.286 2.235s-1.011 1.653-1.986 1.645z"/><path d="m425.42 525.909c-.918.015-1.728-.598-1.965-1.485-.236-.887.162-1.821.965-2.265 2.24-1.23 4.47-2.61 6.65-4.09.914-.622 2.159-.384 2.78.53s.384 2.158-.53 2.78c-2.28 1.55-4.62 3-7 4.28-.27.15-.571.236-.88.25z"/><path d="m347.56 522.657c-.354-.01-.699-.114-1-.3-2.27-1.38-4.56-2.891-6.8-4.481-.583-.414-.9-1.108-.832-1.819.068-.712.51-1.333 1.16-1.63s1.409-.225 1.992.189c2.16 1.54 4.37 3.001 6.56 4.331.453.275.779.72.905 1.236.125.515.041 1.06-.235 1.514-.367.602-1.025.967-1.73.96z"/><path d="m440.19 515.657c-.846.006-1.604-.521-1.893-1.315-.29-.795-.048-1.686.603-2.225 2-1.64 3.93-3.41 5.83-5.25.792-.771 2.059-.753 2.83.04.77.792.752 2.059-.04 2.83-2 1.91-4 3.75-6.05 5.45-.346.315-.792.499-1.26.52z"/><path d="m333 512.167c-.472.001-.929-.166-1.29-.47-2-1.7-4.07-3.51-6.06-5.38-.522-.489-.743-1.22-.58-1.916.163-.697.686-1.253 1.37-1.46.685-.207 1.428-.033 1.95.456 1.94 1.82 3.92 3.58 5.89 5.24.641.541.878 1.424.592 2.212-.286.789-1.034 1.315-1.872 1.318z"/><path d="m453 503.168c-.785-.001-1.496-.461-1.82-1.176-.323-.716-.198-1.554.32-2.144 1.69-1.93 3.39-4 5-6.06.427-.602 1.152-.92 1.884-.827s1.354.582 1.617 1.272.124 1.468-.361 2.025c-1.69 2.16-3.44 4.25-5.18 6.23-.369.421-.899.668-1.46.68z"/><path d="m464 488.969c-.746.002-1.431-.41-1.777-1.07-.347-.66-.298-1.458.127-2.07 1.47-2.13 2.92-4.36 4.33-6.61.377-.607 1.049-.968 1.764-.945.714.023 1.362.425 1.7 1.055.337.63.313 1.393-.064 2-1.44 2.31-2.93 4.59-4.44 6.77-.367.503-.948.806-1.57.82z"/><path d="m473.44 473.648c-.716.003-1.379-.377-1.738-.997-.36-.619-.36-1.383-.002-2.003 1.26-2.27 2.5-4.63 3.71-7 .298-.679.947-1.137 1.687-1.19.739-.053 1.447.307 1.84.936.393.628.405 1.423.033 2.064-1.22 2.42-2.49 4.82-3.78 7.13-.346.607-.982.989-1.68 1.01z"/><path d="m481.51 457.566c-.68 0-1.314-.345-1.682-.918-.368-.572-.42-1.292-.138-1.912 1.08-2.36 2.14-4.81 3.17-7.28.445-.987 1.595-1.441 2.594-1.024s1.485 1.554 1.096 2.564c-1 2.51-2.12 5-3.21 7.4-.33.674-1.01 1.107-1.76 1.12z"/><path d="m488.38 440.927c-.239.001-.477-.043-.7-.13-1.031-.388-1.555-1.537-1.17-2.57.91-2.44 1.81-5 2.68-7.48.213-.7.791-1.229 1.508-1.377.716-.149 1.457.106 1.931.664s.604 1.33.341 2.013c-.88 2.56-1.79 5.11-2.72 7.58-.298.738-1.005 1.229-1.8 1.25z"/><path d="m494.18 423.929c-.2 0-.399-.03-.59-.09-.508-.154-.934-.505-1.184-.974-.249-.469-.302-1.018-.146-1.526.77-2.5 1.53-5.06 2.25-7.63.195-.687.741-1.219 1.434-1.394s1.427.032 1.925.545c.499.512.686 1.252.491 1.939-.73 2.59-1.5 5.19-2.27 7.72-.281.779-1.013 1.303-1.84 1.32z"/><path d="m499.01 406.586c-.165-.001-.33-.021-.49-.06-.515-.13-.957-.459-1.229-.914-.272-.456-.351-1.001-.221-1.516.64-2.54 1.26-5.14 1.85-7.74.246-1.077 1.318-1.751 2.395-1.505s1.751 1.318 1.505 2.395c-.6 2.63-1.23 5.26-1.87 7.83-.251.828-1.005 1.401-1.87 1.42z"/><path d="m503.01 389.03c-.133.009-.267.009-.4 0-.522-.104-.981-.411-1.275-.854-.295-.443-.401-.985-.295-1.506.52-2.58 1-5.21 1.49-7.82.127-.704.62-1.287 1.293-1.529.672-.242 1.423-.107 1.97.355.546.462.804 1.18.677 1.884-.48 2.64-1 5.3-1.5 7.9-.239.887-1.051 1.497-1.97 1.48z"/><path d="m506.18 371.166h-.31c-1.09-.169-1.837-1.189-1.67-2.28.4-2.6.79-5.25 1.15-7.88.095-.714.564-1.324 1.23-1.599.666-.276 1.428-.175 2 .265.571.439.865 1.15.77 1.864-.36 2.66-.75 5.34-1.16 8-.181.962-1.031 1.652-2.01 1.63z"/><path d="m508.57 353.326h-.23c-1.096-.125-1.883-1.114-1.76-2.21.29-2.62.57-5.29.82-7.93.068-.715.512-1.339 1.165-1.637.652-.299 1.415-.226 2 .19.584.416.903 1.112.835 1.827-.25 2.67-.53 5.36-.83 8-.103 1.026-.969 1.805-2 1.8z"/><path d="m510.23 335.409h-.15c-1.098-.085-1.921-1.042-1.84-2.14.19-2.63.36-5.3.51-7.95.028-.531.267-1.029.663-1.383.395-.355.916-.537 1.447-.507.532.028 1.032.268 1.386.666.355.398.537.921.504 1.454-.15 2.66-.33 5.36-.53 8-.053 1.061-.927 1.896-1.99 1.9z"/><path d="m511.23 317.409h-.07c-.531-.018-1.032-.247-1.394-.635s-.555-.904-.536-1.435c.1-2.64.17-5.3.23-8 .014-.714.408-1.367 1.034-1.712s1.389-.33 2 .04c.612.37.98 1.038.966 1.752-.06 2.69-.13 5.37-.23 8 .013.543-.194 1.067-.575 1.454-.381.386-.903.602-1.445.596z"/><path d="m511.56 299.357c-1.085.001-1.973-.865-2-1.95v-.09c0-2.62 0-5.24-.06-7.88 0-1.104.895-2 2-2s2 .896 2 2c0 2.66.06 5.3.06 7.94.011.541-.198 1.063-.578 1.448-.381.384-.901.598-1.442.592z"/><path d="m511.24 281.419c-1.078.001-1.962-.853-2-1.93-.1-2.667-.213-5.333-.34-8-.055-1.105.795-2.045 1.9-2.1s2.045.795 2.1 1.9c.14 2.667.253 5.333.34 8 .039 1.101-.819 2.027-1.92 2.07z"/><path d="m510.31 263.418c-1.052.003-1.926-.81-2-1.86-.09-1.32-.19-2.64-.29-4s-.21-2.66-.32-4c-.091-1.104.731-2.073 1.835-2.165 1.105-.091 2.074.731 2.165 1.835.11 1.33.22 2.67.32 4s.2 2.67.29 4c.039.531-.136 1.055-.485 1.457s-.844.648-1.375.683z"/><path d="m508.77 245.488c-1.031.005-1.897-.774-2-1.8-.267-2.666-.557-5.306-.87-7.92-.13-1.104.66-2.105 1.765-2.235 1.104-.13 2.105.661 2.235 1.765.31 2.65.61 5.31.88 8 .056.528-.1 1.057-.434 1.469-.334.413-.818.676-1.346.731z"/><path d="m506.62 227.617c-1.007.009-1.864-.732-2-1.73-.374-2.667-.757-5.297-1.15-7.89-.141-.72.124-1.459.689-1.926.566-.467 1.342-.587 2.022-.313.681.275 1.156.9 1.239 1.629.4 2.666.787 5.316 1.16 7.95.074.526-.065 1.061-.386 1.485s-.797.703-1.324.775z"/><path d="m503.84 209.829c-.985.014-1.833-.69-2-1.66-.46-2.63-.93-5.24-1.43-7.83-.21-1.086.5-2.136 1.585-2.345 1.085-.21 2.135.499 2.345 1.585.5 2.62.98 5.256 1.44 7.91.187 1.084-.537 2.117-1.62 2.31z"/><path d="m500.42 192.147c-.941-.002-1.753-.66-1.95-1.58-.56-2.61-1.13-5.21-1.72-7.78-.249-1.077.423-2.151 1.5-2.4 1.077-.248 2.151.423 2.4 1.5.593 2.6 1.17 5.217 1.73 7.85.125.597-.029 1.219-.418 1.688-.39.469-.972.735-1.582.722z"/><path d="m496.35 174.618c-.916 0-1.715-.622-1.94-1.51-.65-2.57-1.33-5.16-2-7.71-.18-1.028.459-2.022 1.469-2.283 1.009-.262 2.051.297 2.391 1.283.7 2.56 1.39 5.18 2 7.77.131.514.051 1.059-.221 1.515s-.714.785-1.229.915c-.158.053-.323.086-.49.1z"/><path d="m491.59 157.257c-.885-.004-1.662-.59-1.91-1.44-.76-2.54-1.54-5.1-2.33-7.61-.246-.689-.096-1.457.39-2.003.487-.546 1.233-.783 1.945-.617.713.165 1.278.706 1.475 1.41.8 2.54 1.59 5.12 2.35 7.69.31 1.057-.294 2.166-1.35 2.48-.186.089-.386.146-.59.17z"/><path d="m486.1 140.167c-.853 0-1.612-.543-1.89-1.35-.86-2.51-1.75-5-2.66-7.51-.378-1.038.157-2.186 1.195-2.565 1.038-.378 2.187.157 2.565 1.195.91 2.5 1.82 5.05 2.68 7.58.358 1.044-.197 2.181-1.24 2.54-.209.072-.429.109-.65.11z"/><path d="m479.87 123.278c-.823-.001-1.56-.505-1.86-1.27-1-2.47-2-5-3-7.36-.312-.663-.237-1.444.197-2.035s1.156-.897 1.883-.798c.726.099 1.34.588 1.6 1.273 1 2.45 2.05 5 3 7.45.196.493.189 1.045-.021 1.532-.21.488-.606.872-1.099 1.068-.223.093-.46.147-.7.16z"/><path d="m472.87 106.708c-.784 0-1.495-.458-1.82-1.17-1.11-2.43-2.25-4.85-3.39-7.2004-.483-.9942-.069-2.1918.925-2.675.994-.4833 2.192-.0692 2.675.925 1.16 2.38 2.31 4.8304 3.43 7.2904.282.619.23 1.339-.138 1.911-.368.573-1.002.919-1.682.919z"/><path d="m464.96 90.538c-.743-.0002-1.425-.4122-1.77-1.07-1.24-2.36-2.52-4.71-3.79-7-.357-.6234-.355-1.3901.006-2.0112.362-.6211 1.027-1.0023 1.745-1 .719.0023 1.382.3878 1.739 1.0112 1.29 2.3 2.58 4.68 3.84 7.08.513.9776.137 2.1862-.84 2.7-.29.1802-.619.2866-.96.31z"/><path d="m456.1 74.8686c-.707-.0078-1.357-.3879-1.71-1-1.38-2.26-2.81-4.52-4.24-6.71-.605-.925-.345-2.1652.58-2.77.925-.6047 2.165-.345 2.77.58 1.45 2.22 2.9 4.52 4.3 6.82.354.6139.357 1.3696.008 1.9863-.35.6168-1 1.0024-1.708 1.0137z"/><path d="m446.18 59.8674c-.646.0025-1.253-.3066-1.63-.8301-1.55-2.17-3.14-4.31-4.73-6.36-.677-.8781-.514-2.1384.365-2.815.878-.6765 2.138-.5131 2.815.365 1.62 2.09 3.24 4.27 4.83 6.48.434.61.491 1.4114.148 2.0769-.343.6654-1.03 1.0834-1.778 1.0832z"/><path d="m435.08 45.7084c-.581-.0029-1.132-.2584-1.51-.7-1.75-2-3.53-4-5.29-5.87-.759-.8036-.723-2.0706.08-2.83.804-.7594 2.071-.7236 2.83.08 1.81 1.92 3.63 3.94 5.41 6 .508.5933.624 1.4276.297 2.1367s-1.036 1.1633-1.817 1.1633z"/><path d="m291.54 42.9381c-.757-.014-1.442-.4549-1.768-1.139-.326-.684-.238-1.4936.228-2.091 1.68-2.15 3.42-4.26 5.17-6.25.742-.7722 1.96-.8233 2.764-.116s.908 1.9221.236 2.756c-1.7 1.94-3.39 4-5 6.08-.392.4971-.997.779-1.63.76z"/><path d="m422.63 32.6971c-.509.0008-.999-.1923-1.37-.54-1.94-1.81-3.92-3.57-5.9-5.22-.801-.719-.889-1.9425-.2-2.7689s1.909-.9595 2.76-.3011c2 1.7 4.08 3.51 6.08 5.37.388.363.615.8654.632 1.3963s-.178 1.0467-.542 1.4337c-.379.4027-.907.6308-1.46.63z"/><path d="m303.52 29.5273c-.811-.0034-1.54-.4967-1.845-1.2488s-.125-1.6139.455-2.1812c2-1.92 4-3.76 6-5.47.547-.4609 1.298-.5951 1.97-.3522.673.243 1.164.8262 1.29 1.53s-.133 1.4213-.68 1.8822c-2 1.65-3.92 3.43-5.82 5.28-.368.355-.858.5554-1.37.56z"/><path d="m408.73 21.3075c-.416.0002-.821-.1291-1.16-.37-2.16-1.53-4.37-3-6.56-4.31-.955-.5744-1.264-1.8145-.69-2.77.574-.9554 1.815-1.2644 2.77-.69 2.27 1.37 4.55 2.88 6.8 4.46.719.5015 1.027 1.4124.761 2.2473-.266.835-1.045 1.3994-1.921 1.3927z"/><path d="m317.41 18.1065c-.66 0-1.277-.3255-1.65-.87-.624-.9113-.391-2.1558.52-2.78 2.28-1.55 4.62-3 7-4.3.959-.49487 2.137-.1402 2.663.8017.527.9418.211 2.1313-.713 2.6883-2.23 1.25-4.47 2.63-6.65 4.12-.345.2323-.754.3511-1.17.34z"/><path d="m393.26 12.1695c-.294-.0001-.584-.065-.85-.19-2.38-1.13-4.8-2.15002-7.2-3.00002-.681-.2483-1.177-.84083-1.302-1.55439-.126-.71356.139-1.43974.695-1.905.555-.46526 1.316-.59891 1.997-.35061 2.5.92 5 2 7.52 3.16.849.39916 1.307 1.33506 1.1 2.25042-.207.9153-1.022 1.5639-1.96 1.5596z"/><path d="m333.26 9.57812c-.954-.00471-1.771-.68174-1.953-1.61756-.183-.93581.321-1.87021 1.203-2.23244 2.536-1.02791 5.126-1.91591 7.76-2.66 1.063-.301 2.169.31685 2.47 1.38s-.317 2.169-1.38 2.47c-2.499.70484-4.956 1.5495-7.36 2.53-.25.09328-.514.14071-.78.14001z"/><path d="m376.4 6.20587c-.153.01967-.307.01967-.46 0-2.52-.58785-5.071-1.03521-7.64-1.34-1.105-.13255-1.893-1.13543-1.76-2.24.132-1.10457 1.135-1.892552 2.24-1.760003 2.696.326213 5.373.793523 8.02 1.400003 1.105.1215 1.901 1.11543 1.78 2.22-.122 1.10457-1.115 1.9015-2.22 1.78z"/><path d="m350.55 4.9696c-1.104.0718-2.058-.76543-2.13-1.87-.071-1.10457.766-2.0582 1.87-2.13 1.39-.18 2.8-.33 4.2-.44s2.67-.17 4-.19c1.105 0 2 .89543 2 2 .014.53904-.191 1.06069-.568 1.44665-.376.38595-.892.60352-1.432.60335-1.25 0-2.52.08-3.78.18s-2.65.24-4 .42z"/></g><g opacity=".1"><path d="m491.92 507.379c-10.64 0-23.24-3.74-37.34-11.18l.93-1.77c22.71 12 41.26 14.18 53.65 6.39 19.55-12.3 23-47.84 9.65-100.06-13.43-52.59-42.25-115.59-81.17-177.48-80.15-127.4203-178.48-210.2403-219.2-184.6303-13.09 8.24-19.06 27.39-17.25 55.39l-2 .13c-1.85-28.78 4.44-48.56 18.19-57.21 20.35-12.8 54.7-.45 96.72 34.79 41.74 35.0003 86.22 88.4303 125.24 150.4703s67.93 125.27 81.4 178.05c13.57 53.13 9.83 89.44-10.51 102.24-5.514 3.336-11.867 5.026-18.31 4.87z"/><path d="m208.88 468.608c-46.44 0-77.86-12.71-89.2-36.36-13.25-27.65 2.08-66.78 43.17-110.16 40.64-42.92 101.76-85.11 172.08-118.82s141.51-54.9 200.42-59.69c59.56-4.85 99.65 7.71 112.9 35.36 12.73 26.55-1.08 64-38.87 105.53l-3-2.69c36.63-40.22 50.2-76.12 38.23-101.11-12.49-26.05-51.19-37.81-109-33.1-58.44 4.75-129.11 25.81-199 59.31s-130.59 75.39-170.9 118c-39.87 42.1-54.95 79.63-42.47 105.68 11.74 24.5 47.24 36.47 99.94 33.71l.21 4c-4.967.227-9.803.34-14.51.34z"/><path d="m491 602.998c-26 0-57.91-15.17-92.62-44.52l2.58-3c45.82 38.73 86.21 52.28 113.74 38.13 29.3-15.08 41.44-59.44 34.3-124.94-7.23-66.16-33.35-145.68-73.55-223.93s-89.65-145.7902-139.22-190.2002c-49.09-43.97-92.23-59.91005-121.49-44.88005-28.06 14.42005-40.48 56.26995-35 117.85025l-4 .36c-5.67-63.3102 7.52-106.5602 37.12-121.77025 30.84-15.84 75.58.3 126 45.46005 49.96 44.72 99.71 112.6802 140.14 191.3502s66.68 158.69 74 225.32c7.35 67.28-5.58 113.05-36.42 128.89-7.927 3.995-16.704 6.013-25.58 5.88z"/><path d="m490 485.976-2.86-2.81c20.3-20.58 19.82-59.45-1.36-109.45-21.41-50.55-61.37-106.19-112.52-156.65s-107.32-89.67-158.16-110.39c-50.28-20.4998-89.16-20.4498-109.46.13l-2.85-2.81c21.52-21.8098 61.94-22.1798 113.82-1 51.32 20.92 108 60.43 159.46 111.25s91.79 106.92 113.4 157.92c21.84 51.58 22.03 92 .53 113.81z"/></g><g opacity=".16"><path d="m130.32 375.52c6.401 0 11.59-5.189 11.59-11.59s-5.189-11.59-11.59-11.59-11.59 5.189-11.59 11.59 5.189 11.59 11.59 11.59z"/><path d="m52.0102 172.835c3.5655-3.566 3.5655-9.347 0-12.912-3.5655-3.566-9.3463-3.566-12.9118 0-3.5655 3.565-3.5655 9.346 0 12.912 3.5655 3.565 9.3463 3.565 12.9118 0z"/><path d="m234.811 547.162c7.609-2.699 11.59-11.056 8.891-18.666s-11.056-11.591-18.666-8.892c-7.61 2.7-11.591 11.057-8.892 18.667 2.7 7.61 11.057 11.591 18.667 8.891z"/><path d="m568.12 32.0874c-4.243-2.7227-9.89-1.4909-12.613 2.7516-2.724 4.2425-1.493 9.8897 2.748 12.6143 4.242 2.7247 9.89 1.4954 12.615-2.7459 1.313-2.0372 1.76-4.5129 1.244-6.8807-.516-2.3677-1.953-4.4328-3.994-5.7393z"/><path d="m471.522 599.817c2.014-4.862-.295-10.437-5.158-12.451s-10.437.295-12.451 5.157c-2.015 4.863.295 10.438 5.157 12.452 4.863 2.014 10.438-.295 12.452-5.158z"/><path d="m721.28 355.126c5.263 0 9.53-4.267 9.53-9.53s-4.267-9.53-9.53-9.53-9.53 4.267-9.53 9.53 4.267 9.53 9.53 9.53z"/><path d="m490.94 171.426c10.819 0 19.59-8.771 19.59-19.59s-8.771-19.59-19.59-19.59c-10.82 0-19.59 8.771-19.59 19.59s8.77 19.59 19.59 19.59z"/><path d="m511.09 333.908c6.975 0 12.63-5.654 12.63-12.63 0-6.975-5.655-12.63-12.63-12.63s-12.63 5.655-12.63 12.63c0 6.976 5.655 12.63 12.63 12.63z"/><path d="m431.92 177.928c6.975 0 12.63-5.655 12.63-12.63 0-6.976-5.655-12.63-12.63-12.63s-12.63 5.654-12.63 12.63c0 6.975 5.655 12.63 12.63 12.63z"/><path d="m392.9 242.766c4.932 0 8.93-3.998 8.93-8.93s-3.998-8.93-8.93-8.93-8.93 3.998-8.93 8.93 3.998 8.93 8.93 8.93z"/></g></g></svg>