<svg fill="none" height="467" viewBox="0 0 467 467" width="467" xmlns="http://www.w3.org/2000/svg"><path d="m359.133 417.722h-271.6665c-2.6081.001-5.1908-.513-7.6004-1.511s-4.5991-2.461-6.4434-4.305-3.3072-4.033-4.3054-6.443c-.9981-2.409-1.5118-4.992-1.5118-7.6v-176.896c.0001-5.076 1.9437-9.959 5.4316-13.646 3.488-3.688 8.2555-5.9 13.3234-6.182l282.1485-15.726c11.813-.66 21.577 9.093 20.932 20.907l-10.482 192.621c-.275 5.072-2.484 9.846-6.172 13.34-3.688 3.493-8.574 5.441-13.654 5.441z" fill="#fa541c"/><path d="m229.645 310.982 148.501-123.676c-3-1.433-6.314-2.085-9.633-1.894l-282.1485 15.727c-4.6738.256-9.1054 2.16-12.5081 5.375l111.1396 103.362c12.065 11.22 31.913 11.711 44.649 1.106z" fill="#b3200e" opacity=".48"/><path d="m208.996 304.851c-7.609-.006-14.952-2.801-20.64-7.855l-41.865-36.968c-.577-.525-.925-1.255-.968-2.034-.043-.778.222-1.542.738-2.127s1.241-.943 2.019-.997 1.546.2 2.138.707l41.876 36.97c4.282 3.809 9.737 6.042 15.461 6.328s11.374-1.391 16.015-4.754l21.699-15.596c3.174-2.22 6.613 2.482 3.463 4.821-10.275 6.504-26.834 22.832-39.936 21.505z" fill="#fdab76"/><path d="m132.867 247.016c-1.718.325-6.32-4.894-7.601-5.718-2.879-2.63.959-6.985 3.929-4.451l5.637 4.977c2.067 1.698.66 5.291-1.965 5.192z" fill="#fdab76"/><path d="m173.82 126.564-11.333 60.683 35.335-31.067z" fill="#fdab76"/><path d="m431.003 144.864-245.591 11.919c-1.495.073-2.989-.159-4.391-.681-1.403-.522-2.685-1.323-3.769-2.356-1.083-1.032-1.946-2.273-2.536-3.649-.589-1.376-.893-2.857-.893-4.353v-101.0376c-.001-5.2825 2.056-10.3575 5.733-14.15 3.677-3.7924 8.687-6.0043 13.967-6.1671l221.346-6.85c16.478 0 29.837 13.3625 29.837 29.8446v83.0981c-.001 3.698-1.424 7.254-3.975 9.931s-6.034 4.271-9.728 4.451z" fill="#fdab76"/><g fill="#fee9d1"><path d="m192.755 152.453c-7.981.156-15.071-6.906-14.89-14.914v-91.0631c0-10.5834 8.488-19.1299 19.326-19.4579l214.307-6.4704c16.09 0 29.165 12.7658 29.165 28.4574v78.508c0 7.409-5.936 13.494-13.517 13.853-.732.021-233.718 11.106-234.391 11.087zm218.75-131.3868-214.299 6.4704c-10.554.3124-18.821 8.637-18.821 18.9378v91.0646c.001 1.947.396 3.874 1.163 5.663.767 1.79 1.889 3.406 3.298 4.749 1.41 1.344 3.077 2.387 4.901 3.068 1.824.68 3.768.984 5.713.892l233.661-11.066c7.301-.346 13.022-6.202 13.022-13.333v-78.507c0-15.4042-12.846-27.9388-28.638-27.9388z"/><path d="m212.75 66.54c.951.0734 1.493.6249 2.119 1.3559l27.371 32.4001c-.549-2.0415-1.303-31.908-1.495-34.8151l8.171-.2953 1.795 49.8574c-1.312-.064-5.502.486-6.633-.106-.49-.213-.978-.61-1.457-1.191l-27.263-32.2642c.45 1.5091 1.303 32.2972 1.459 34.7812l-8.171.295-1.795-49.8571c.764-.0094 5.253-.239 5.899-.1609z"/><path d="m290.428 63.6923.266 7.3779-22.101.7952.498 13.8264 17.411-.6248.258 7.1374-17.413.6248.508 14.1018 22.101-.795.267 7.412-31.444 1.132-1.795-49.8552z"/><path d="m293.841 63.5689c1.576.2015 8.576-.8702 9.829.2155.544.3487.949.878 1.142 1.495 1.04 3.5726 10.568 31.6004 10.81 34.6185.125-2.8853 8.951-31.8676 9.841-35.3621.725-2.4838 3.623-2.2682 5.716-2.3104 1.495-.0718 2.684.6342 3.179 1.9902 1.115 3.3133 11.872 31.6285 12.285 34.3232 0-2.5994 7.551-31.7973 8.265-35.0621.157-.6071.515-1.1432 1.015-1.5215 1.13-1.2497 7.744-.6702 9.253-.9545l-13.686 50.4133-8.378.303-12.122-33.6734c-.156-.4312-.312-.8982-.483-1.3981-.17-.4999-.329-1.0357-.489-1.6059-.043 1.0935-10.054 35.6164-10.524 37.5274l-8.379.301z"/><path d="m397.672 68.9113c-1.978 4.2037-6.175-2.3572-12.185-1.634-3.013.0938-5.991 1.1748-7.106 4.0022-.644 1.6684-.572 4.1303.697 5.4472 2.655 2.7978 7.056 3.2524 10.693 4.499 4.294 1.3012 8.779 3.1789 10.799 7.4982 2.391 5.2332 1.138 12.6891-2.95 16.8711-7.449 7.734-21.671 6.324-29.212-.795 4.79-9.6026 4.454-4.949 12.162-2.187 2.968 1.065 8.424.659 10.524-1.553 2.093-1.7323 2.802-6.3656.881-8.6463-3.77-3.9179-10.192-3.5195-14.937-5.9174-6.657-2.4994-9.322-10.6225-6.818-17.2241 4.284-11.3739 21.319-12.1659 29.569-4.827z"/></g><path d="m94.2107 261.389c-.1359.257-8.7214 6.575-8.7214 6.575 2.3057 16.803 14.0592 28.43 30.0137 14.07 0 0 9.513 2.262 14.573-17.541 1.16-4.545-5.54-4.929-13.625-4.092-10.429 1.075-22.2403.988-22.2403.988z" fill="#1c0f79"/><path d="m72.504 314.258c14.1186-9.156 13.3657-5.155 30.229-3.946 32.244-7.217 47.576 3.885 56.188 35.098-6.325 6.494-14.285 9.373-14.285 9.373l-1.47 59.612-35.251 18.048-40.2333-20.205 1.4403-58.257s-12.7751-5.95-13.7124-8.113c-.9373-2.164 5.8221-23.86 17.0944-31.61z" fill="#754ffe"/><path d="m56.0034 345.606s-17.1194 47.471 21.9215 66.975c8.1121-1.071 4.9879-14.54 4.9879-14.54s-16.9648-3.749-11.8723-43.349c-4.6864-3.86-15.0371-9.086-15.0371-9.086z" fill="#fdbab9"/><path d="m158.1 345.606s11.78 49.548-21.917 66.975c-8.106-1.077-4.989-14.54-4.989-14.54s13.673-6.733 11.872-43.349c4.677-3.86 15.034-9.086 15.034-9.086z" fill="#fdbab9"/><path d="m141.118 363.711h-70.495c-1.879 0-3.4023 1.523-3.4023 3.403v45.398c0 1.879 1.5233 3.403 3.4023 3.403h70.495c1.879 0 3.402-1.524 3.402-3.403v-45.398c0-1.88-1.523-3.403-3.402-3.403z" fill="#4027b6"/><path d="m179.294 431.613c-8.607-2.355-30.088-1.146-30.169-1.16-1.022 1.277-1.931 11.734-2.209 13.445.366-.222 22.737 4.663 31.763 3.099 7.201-2.24 8.054-13.292.615-15.384z" fill="#1c0f79"/><path d="m143.256 429.821c2.89.064 6.405-.016 8.325 2.663 2.245 2.656 2.554 7.374-.089 9.884-2.057 2.467-6.664 1.194-9.348 1.161z" fill="#fdbab9"/><path d="m56.9203 432.551-.7811-2.277c-.1156.03-21.4965-1.875-30.1867.234-7.4857 1.864-6.9093 12.936.2312 15.398 8.8386 1.837 31.6551-2.352 31.827-2.123z" fill="#1c0f79"/><path d="m56.9203 432.551-.7811-2.277c-.1156.03-21.4965-1.875-30.1867.234-7.4857 1.864-6.9093 12.936.2312 15.398 8.8386 1.837 31.6551-2.352 31.827-2.123z" fill="#000" opacity=".48"/><path d="m62.0312 429.824c-2.8852-.025-6.4047-.214-8.3886 2.408-2.3167 2.591-2.7306 7.301-.1562 9.882 1.9917 2.526 6.6265 1.405 9.315 1.448z" fill="#fdbab9"/><path d="m180.894 396.299c-4.012-9.234-13.824-10.732-22.183-6.416-.145.191-53.034 27.299-99.6778 39.179 1.5887 5.22 2.3791 10.811 2.1245 16.265 35.7729-1.838 74.5873-13.768 107.9433-24.25 10.351-3.336 16.24-14.545 11.793-24.778z" fill="#1c0f79"/><path d="m180.894 396.299c-4.012-9.234-13.824-10.732-22.183-6.416-.145.191-53.034 27.299-99.6778 39.179 1.5887 5.22 2.3791 10.811 2.1245 16.265 35.7729-1.838 74.5873-13.768 107.9433-24.25 10.351-3.336 16.24-14.545 11.793-24.778z" fill="#000" opacity=".24"/><path d="m143.51 443.076c-.214-5.421 1.093-10.31 3.21-15.014-34.125-10.71-67.6201-25.3-93.1266-39.43-22.651-11.92-33.7422 23.873-10.8944 30.71 41.3326 16.84 58.124 20.574 100.867 24.857-.02-.375-.04-.75-.056-1.123z" fill="#1c0f79"/><path d="m85.6055 308.164c3.6835 19.119 37.1785 20.843 40.0405-.05l-11.507-2.462-.962-12.82-17.3067 1.28-.3203 12.185z" fill="#fdbab9"/><path d="m99.8432 259.119c-23.1493 40.897 21.5858 61.661 23.1928 11.377-4.035-11.294-6.69-9.954-6.69-9.954z" fill="#fdbab9"/><path d="m127.046 256.18c8.236 2.264 1.197 20.125-11.202 15.901-12.398-4.224-17.2723-4.161-19.2047-.757-1.9324 3.403-2.3432 15.496-6.5391 9.519-4.5974-6.551-7.1593-19.703-1.5246-23.943 5.0379-3.788 6.2126-9.663 12.2534-9.46 8.018.27 14.215-3.28 17.838-.72 4.157 2.952 2.32 7.795 8.379 9.46z" fill="#1c0f79"/><path d="m95.8792 274.101c-7.0296-7.27-4.0225 13.772-.7264 8.08 2.1323-3.256.7264-8.08.7264-8.08z" fill="#fdbab9"/></svg>