<svg fill="none" height="466" viewBox="0 0 466 466" width="466" xmlns="http://www.w3.org/2000/svg"><g clip-rule="evenodd" fill-rule="evenodd"><path d="m239.494 453.998c-26.794 0-47.263-3.691-55.427-5.323-29.606-5.924-86.8356-17.372-128.2115-65.299-62.59828-72.51-52.85086-186.749-4.2955-262.157 3.8006-5.904 14.5682-23.3016 33.1129-42.2353.1268.2773.3594.5081.6694.6278 1.2228.4721 2.4424 1.003 3.6254 1.5784.1742.0846.3589.1249.5408.1249.4051 0 .7963-.1993 1.0264-.548.0262-.0394.05-.081.072-.1244.2992-.597.0503-1.3201-.5556-1.6148-1.2368-.6012-2.5117-1.1565-3.7893-1.6508 17.197-17.2227 40.791-35.4732 71.401-47.3591-11.938 7.0995-22.834 16.4263-31.54 27.2527-.194.0971-.341.2751-.394.4926-16.68 20.9927-25.124 47.537-17.045 74.408.735 2.445 1.625 4.99 2.666 7.571-.076.183-.155.364-.235.546-.268.612.019 1.321.639 1.585.159.066.322.098.484.098h.045c5.545 12.756 14.695 25.841 26.858 31.068 1.239.532 2.507.98 3.799 1.346.804.472 1.668.908 2.597 1.307 5.635 2.422 17.86 4.177 27.822 4.177 4.72 0 8.928-.393 11.692-1.297 22.852-7.473 37.872-27.925 25.444-50.608-3.98-7.263-9.132-13.898-12.568-21.426-3.438-7.5282-5.003-16.4628-1.5-23.961 6.588-14.0954 27.824-18.9835 42.625-18.9835.653 0 1.291.0095 1.918.0281.768.0229 1.53.0611 2.29.1145 8.504 4.0256 15.826 10.315 21.114 18.5293 11.73 18.2156 14.701 40.3726 12.985 61.5176-1.838 22.627-11.523 39.905-26.038 57.263-12.497 14.942-26.259 29.287-34.563 46.834-7.626 16.11-10.118 33.959-10.462 51.582-.068 3.416 1.101 39.085 1.174 48.92.012 1.389 1.146 2.511 2.555 2.527 4.725 1.879 18.183 5.001 19.344 5.014 7.36.082 28.209.311 35.882.396h.032c1.564 0 2.846-1.236 2.864-2.78.547-47.846 15.488-93.461 53.309-125.594 13.762-11.693 28.583-21.215 39.284-35.973 7.798-10.755 13.577-21.423 17.072-32.751l55.414-2.648c1.864-.09 3.537-.859 4.776-2.059 27.851 74.735 17.406 162.909-19.211 217.764-.466.016-.936.024-1.405.024-7.776 0-15.836-1.99-24.256-3.979-8.422-1.991-17.207-3.982-26.438-3.982-6.093 0-12.382.869-18.889 3.175-33.973 12.046-29.291 57.469-27.384 69.626.27 1.713 1.606 3.053 3.318 3.375-30.29 10.427-59.882 13.481-84.243 13.481zm-11.484-4.24c.163.06.328.12.495.18 4.058 1.444 18.955 1.482 24.642 1.482h.884c22.337 0 34.718-19.465 34.718-41.466 0-21.599-22.801-37.635-44.769-38.212-3.199-.802-6.549-1.228-10.001-1.228-22.337 0-40.443 17.836-40.443 39.837 0 20.003 14.968 36.564 34.474 39.407zm191.403-266.888c-2.007 0-4.002 1.348-4.252 3.74-3.727 35.642-31.749 48.097-93.568 108.759-65.119 63.9-16.19 133.808-9.461 142.741.462.612 1.149 1.012 1.917 1.114.136.019.269.027.401.027 1.836 0 3.242-1.719 2.764-3.541-3.862-14.759-10.41-66.696 69.482-114.075 72.425-42.952 50.54-108.39 36.493-136.433-.8-1.596-2.29-2.332-3.776-2.332zm-344.0148-15.405c-.0594 0-.1197.004-.1804.012-1.2836.188-2.5889.324-3.8803.404-.6744.041-1.1867.614-1.1439 1.279.0412.639.5793 1.13 1.2202 1.13.026 0 .0523-.001.0785-.003 1.3591-.085 2.7331-.227 4.0837-.424.3615-.053.6628-.256.8473-.536.1569-.238.2296-.53.1841-.833-.0897-.598-.6124-1.029-1.2092-1.029zm-14.4663-.076c-.591 0-1.1116.423-1.2076 1.017-.1065.656.3483 1.275 1.0159 1.379 1.3461.212 2.719.37 4.0805.467.0304.004.0609.005.091.005.4252 0 .8063-.218 1.0258-.551.1088-.164.1779-.356.1938-.566.0497-.665-.4563-1.243-1.1305-1.292-1.2933-.093-2.5969-.243-3.8748-.443-.0652-.011-.13-.016-.1941-.016zm24.613-2.548c-.1459 0-.294.025-.4382.081-1.2103.456-2.4546.869-3.6974 1.225-.6494.184-1.0228.854-.834 1.494.1556.528.6443.869 1.1751.869.1129 0 .228-.016.342-.048 1.3082-.374 2.6172-.808 3.8909-1.289.2507-.095.4515-.262.5874-.468.2063-.312.2628-.715.1172-1.09-.1869-.479-.6509-.774-1.143-.774zm-34.7266-.202c-.4864 0-.9468.287-1.1378.758-.2512.619.0546 1.319.6822 1.567 1.2675.499 2.5703.951 3.8729 1.34.119.037.2392.054.3575.054.4125 0 .8008-.207 1.026-.549.0609-.092.1099-.194.1442-.305.1971-.638-.1673-1.312-.8138-1.506-1.2372-.371-2.4744-.799-3.6785-1.274-.1485-.058-.3019-.085-.4527-.085zm44.0458-4.534c-.2327 0-.468.065-.6763.201-1.0762.705-2.1985 1.375-3.3354 1.99-.5925.321-.8092 1.053-.4832 1.637.2228.4.6414.626 1.0734.626.1993 0 .4013-.049.5884-.15 1.197-.648 2.3784-1.352 3.5118-2.095.1434-.093.2606-.212.3487-.346.258-.391.272-.911-.0067-1.324-.2358-.351-.6244-.539-1.0207-.539zm-53.3057-.325c-.3912 0-.7757.185-1.0124.527-.3963.551-.2362 1.301.3222 1.675.2984.201.5993.398.9035.592.8398.539 1.7087 1.058 2.5818 1.546.1904.105.3976.156.602.156.4027 0 .7947-.196 1.0266-.548.0138-.02.0268-.042.0393-.063.3331-.579.1264-1.315-.4617-1.643-.8302-.464-1.6556-.957-2.4541-1.468-.2891-.185-.5757-.374-.859-.564-.2111-.142-.4508-.21-.6882-.21zm61.3426-6.308c-.322 0-.644.125-.884.374-.893.921-1.838 1.817-2.8111 2.663-.5049.441-.5529 1.203-.1058 1.702.242.268.5785.407.9179.407.287 0 .577-.101.81-.303 1.024-.89 2.019-1.834 2.96-2.805.053-.055.101-.114.141-.177.314-.476.251-1.12-.181-1.526-.238-.224-.542-.335-.847-.335zm-67.8801 1.025c-.317 0-.6336.121-.8733.361-.4755.477-.4664 1.238.0155 1.705.477.461.9687.917 1.4615 1.356.2341.208.5277.313.8203.313.3342 0 .6669-.135.9086-.398.0445-.049.0841-.1.119-.153.322-.488.246-1.148-.2061-1.55-.4679-.417-.9352-.85-1.388-1.289-.2383-.23-.5481-.345-.8575-.345zm74.2461-9.24c-.417 0-.822.209-1.05.584-.676 1.105-1.397 2.18-2.15 3.208-.395.54-.271 1.293.275 1.683.218.154.468.229.717.229.379 0 .755-.174.993-.501.467-.636.925-1.294 1.363-1.959.306-.464.605-.936.899-1.416.349-.57.163-1.31-.415-1.654-.199-.117-.417-.174-.632-.174zm-14.0443-63.0811c-.3923 0-.7777.1855-1.0143.5294l-.0129.0199c-.3624.5492-.2132 1.2856.3399 1.6545 1.0933.7293 2.1648 1.5118 3.1848 2.3257.2276.1808.5001.2689.7709.2689.3558 0 .7099-.1529.9519-.4473.0273-.0331.0513-.0675.0754-.1027.3365-.5108.234-1.2007-.2564-1.5925-1.0754-.857-2.2036-1.6805-3.3537-2.4482-.2104-.1403-.4492-.2077-.6856-.2077zm1.6244-9.3264c-.2626 0-.5176.1326-.6492.373-.0881.1511-.1755.302-.2607.4551-.5664 1.004-1.0831 2.0462-1.5336 3.0945-.1628.3788.0167.8155.4013.9759.0962.0401.196.0592.2944.0592.2516 0 .4928-.1246.6337-.3383.0237-.0362.045-.075.0625-.1162.4298-.9997.9226-1.9936 1.4648-2.9546.0817-.146.1635-.2886.2468-.4294.2083-.3564.0849-.8117-.2757-1.0176-.1202-.0686-.2532-.1016-.3843-.1016zm4.7279-6.1724c-.198 0-.395.0758-.544.2265-.928.9435-1.8075 1.957-2.6152 3.012-.2468.3332-.1843.7959.149 1.0431.1362.1013.2965.1501.4536.1501.2291 0 .4567-.1023.6057-.2961.7689-1.007 1.6089-1.9736 2.4939-2.8732.033-.0354.064-.0733.091-.1129.192-.2926.156-.6881-.109-.9397-.146-.14-.336-.2098-.525-.2098zm6.112-4.842c-.136 0-.273.0359-.398.111-1.137.6927-2.243 1.4619-3.283 2.2866-.326.2595-.377.7266-.116 1.0472.149.1828.369.2778.59.2778.167 0 .333-.0538.473-.1643.993-.7866 2.046-1.5198 3.131-2.18.1-.0597.178-.1383.238-.2278.153-.2338.166-.5441.008-.7973-.143-.2278-.39-.3532-.643-.3532zm7.13-3.2231c-.075 0-.152.0112-.228.0351-1.275.3995-2.538.88-3.753 1.4287-.38.171-.545.6133-.372.9873.128.2732.402.4344.688.4344.106 0 .213-.0218.314-.0679 1.16-.5235 2.364-.982 3.58-1.3629.173-.0545.314-.1645.406-.3039.118-.1804.157-.4104.086-.6319-.102-.3167-.399-.5189-.721-.5189zm7.717-1.4209c-.017 0-.033.0005-.049.0014-1.336.082-2.681.2461-3.993.4886-.411.0761-.68.466-.604.8692.068.3577.386.6074.742.6074.046 0 .094-.0041.141-.0128 1.251-.2314 2.533-.388 3.807-.4658.25-.0152.462-.147.589-.3381.084-.1293.129-.2856.12-.451-.024-.3947-.358-.6989-.753-.6989zm204.616 382.1219c.579-.7.883-1.623.741-2.611-.933-6.477 3.596-11.836 41.216-17.871-13.802 8.718-27.942 15.406-41.957 20.482zm48.257-345.0164c-4.234-13.0278-10.674-25.3108-19.661-35.847-6.164-7.2263-13.371-13.4609-21.289-18.7233 14.928 7.1493 29.084 16.0064 41.943 26.6182 10.017 8.2664 18.98 17.3563 26.94 27.1007z" fill="#fee9d1"/><path d="m314.051 439.228c-.768-.103-1.455-.502-1.917-1.114-6.729-8.934-55.659-78.841 9.46-142.741 61.82-60.662 89.841-73.117 93.569-108.759.434-4.162 6.148-5.161 8.028-1.409 14.046 28.044 35.932 93.482-36.494 136.434-79.892 47.379-73.343 99.315-69.481 114.075.511 1.951-1.138 3.786-3.165 3.514z" fill="#fdab76"/><path d="m323.959 440.553c-1.818-.244-3.258-1.626-3.539-3.411-1.907-12.156-6.59-57.58 27.384-69.626 16.363-5.801 31.346-2.497 45.327.807 17.976 4.246 34.296 8.494 49.761-6.611 1.445-1.413 3.878-.182 3.534 1.796-2.449 14.027-13.347 46.519-61.839 53.056-51.902 6.998-57.743 12.862-56.695 20.138.323 2.243-1.654 4.156-3.933 3.851z" fill="#fdab76"/><path d="m309.004 427.763c-.383 0-.747-.217-.92-.57-4.526-9.462-7.906-19.521-9.778-29.906-.956-5.187-1.522-10.457-1.684-15.745-.128-5.288.098-10.599.774-15.861 1.3-10.534 4.318-20.853 8.662-30.568 4.358-9.719 10.114-18.798 16.839-27.079 6.723-8.292 14.521-15.711 23.049-22.193 4.272-3.233 8.739-6.224 13.402-8.913 4.565-2.579 8.898-5.201 13.097-8.185 8.377-5.894 16.119-12.699 22.781-20.466 3.372-3.848 6.425-7.968 9.215-12.262 2.734-4.303 5.29-8.843 7.129-13.538l.024-.062c.141-.36.492-.582.862-.582.11 0 .223.02.332.061.435.166.671.622.567 1.058-.635 2.644-1.478 5.126-2.484 7.588-.987 2.461-2.125 4.861-3.366 7.208-2.455 4.711-5.4 9.167-8.628 13.412-6.496 8.469-14.355 15.909-23.017 22.218-4.32 3.137-8.939 6.019-13.503 8.624-4.446 2.54-8.723 5.381-12.82 8.458-8.2 6.153-15.635 13.293-22.199 21.121-13.081 15.671-22.363 34.58-25.419 54.714-1.56 10.044-1.579 20.327-.173 30.455 1.388 10.141 4.322 20.07 8.191 29.644.21.512-.04 1.091-.56 1.298-.121.049-.248.071-.373.071z" fill="#fee9d1"/><path d="m322.523 433.33c-.278 0-.544-.148-.68-.407-.101-.192-.11-.407-.043-.597l.006-.014c.159-.44.109-.849.095-1.269l-.04-1.253-.029-2.504c.002-1.67.038-3.339.112-5.006.152-3.335.439-6.668.893-9.981.923-6.619 2.447-13.219 5.159-19.434 2.682-6.174 6.743-12.073 12.639-15.926 2.936-1.893 6.249-3.239 9.682-3.924 2.264-.469 4.569-.676 6.865-.676 1.185 0 2.364.055 3.537.156 13.512 1.544 26.754 4.095 40.032 6.168 4.691.688 9.428 1.324 14.103 1.324 1.917 0 3.822-.107 5.712-.361 1.614-.232 3.203-.58 4.747-1.069 1.529-.526 3.03-1.14 4.432-1.95 2.824-1.588 5.307-3.76 7.526-6.169l.007-.007c.162-.176.386-.266.61-.266.198 0 .395.07.553.21.332.297.361.801.069 1.134-2.248 2.549-4.817 4.906-7.821 6.68-1.49.903-3.099 1.607-4.738 2.207-1.656.564-3.358.972-5.074 1.257-2.212.318-4.419.448-6.614.448-4.67 0-9.297-.589-13.847-1.203-6.708-.941-13.334-2.166-19.981-3.225-6.627-1.062-13.332-2.09-19.932-2.853-1.212-.115-2.428-.176-3.641-.176-2.05 0-4.092.177-6.087.573-3.181.606-6.223 1.815-8.944 3.531-5.486 3.441-9.465 8.916-12.167 14.843-2.734 5.956-4.359 12.405-5.39 18.912-.508 3.259-.854 6.546-1.064 9.844-.104 1.648-.171 3.297-.205 4.95l-.018 2.477.016 1.236c.012.41-.008.83.198 1.22.193.37.048.824-.327 1.015-.113.057-.233.085-.351.085z" fill="#fee9d1"/><path d="m265.283 356.325c-.011 0-.022 0-.032 0-7.673-.085-28.522-.314-35.883-.396-1.16-.012-14.619-3.135-19.343-5.013h.003c7.359.082 28.208.311 35.881.394.011.002.021.002.032.002 1.564 0 2.846-1.236 2.864-2.78.546-47.845 15.488-93.461 53.309-125.595 13.762-11.692 28.583-21.214 39.284-35.972 6.399-8.824 11.439-17.592 14.971-26.713l21.443-1.024c-3.495 11.328-9.274 21.996-17.073 32.75-10.7 14.758-25.521 24.28-39.283 35.973-37.822 32.133-52.763 77.748-53.309 125.595-.018 1.543-1.3 2.779-2.864 2.779zm-91.924-176.45c-9.962 0-22.187-1.755-27.822-4.176-.929-.4-1.793-.836-2.598-1.308 3.134.891 6.398 1.308 9.679 1.308 4.429 0 8.888-.76 13.091-2.135 22.852-7.473 37.872-27.926 25.443-50.607-3.979-7.263-9.131-13.898-12.567-21.426s-5.004-16.463-1.5-23.9612c6.588-14.0956 27.824-18.9837 42.624-18.9837.654 0 1.292.0095 1.919.0283 7.66.2283 15.003 1.9907 21.632 5.128-.76-.0534-1.523-.0916-2.29-.1144-.627-.0187-1.265-.0281-1.919-.0281-14.8 0-36.036 4.888-42.624 18.9834-3.504 7.4982-1.938 16.4328 1.5 23.9607 3.436 7.529 8.588 14.163 12.567 21.426 12.429 22.683-2.591 43.135-25.443 50.608-2.764.904-6.973 1.297-11.692 1.297zm184.366-85.0331c-4.13-15.0812-11.068-29.3779-21.321-41.3995-13.235-15.5168-31.285-26.4609-50.84-33.0281 1 .1907 1.994.389 2.984.5945 16.278 3.381 32.163 9.5875 45.909 18.7238 7.918 5.2625 15.125 11.4971 21.289 18.7233 8.987 10.5362 15.426 22.8193 19.661 35.8471z" fill="#b3200e"/><path d="m253.149 451.419c-5.686 0-20.584-.038-24.642-1.483-.167-.06-.332-.12-.495-.18 1.948.284 3.941.431 5.969.431 22.338 0 40.444-17.836 40.444-39.838 0-18.601-12.943-34.225-30.443-38.609 21.968.578 44.769 16.613 44.769 38.213 0 22-12.38 41.466-34.718 41.466-.261 0-.557 0-.884 0z" fill="#b3200e"/><path d="m245.943 351.308c-.012 0-.021 0-.033 0-7.673-.085-28.521-.314-35.88-.396-.002 0-.002 0-.004 0-1.408-.016-2.543-1.138-2.554-2.527-.074-9.835-1.242-45.504-1.175-48.92.345-17.623 2.837-35.472 10.462-51.582 8.305-17.547 22.066-31.892 34.563-46.834 14.515-17.358 24.2-34.636 26.038-57.263 1.717-21.145-1.255-43.302-12.984-61.5178-5.289-8.2143-12.611-14.5036-21.115-18.5293-6.628-3.1373-13.971-4.8997-21.632-5.128-.626-.0188-1.264-.0283-1.918-.0283-14.8 0-36.036 4.8881-42.625 18.9837-3.503 7.4982-1.936 16.4332 1.5 23.9607 3.436 7.529 8.589 14.163 12.568 21.426 12.428 22.681-2.591 43.135-25.443 50.608-4.204 1.375-8.662 2.134-13.092 2.134-3.28 0-6.545-.417-9.678-1.307-1.292-.366-2.559-.815-3.798-1.347-12.164-5.226-21.313-18.311-26.858-31.067.391-.015.761-.215.98-.548.039-.056.071-.117.1-.18.54-1.236 1.033-2.507 1.466-3.779.215-.632-.131-1.315-.772-1.527-.129-.042-.26-.063-.388-.063-.513 0-.992.319-1.16.824-.348 1.021-.738 2.043-1.159 3.044-1.042-2.581-1.931-5.126-2.667-7.571-8.079-26.871.365-53.4154 17.045-74.4081-.009.0407-.016.083-.019.1263-.025.4102.292.7635.709.7889 1.274.0777 2.556.2345 3.809.4667.048.0086.095.0127.141.0127.258 0 .495-.131.633-.3392.053-.0792.09-.1697.109-.2679.077-.4042-.194-.7934-.604-.8695-1.314-.2431-2.659-.4082-3.995-.4892-.016-.0011-.032-.0015-.049-.0015-.121 0-.237.0287-.339.08 8.705-10.8263 19.601-20.1532 31.539-27.2527 4.901-2.9148 9.98-5.4552 15.153-7.5691 17.736-7.2489 37.729-10.4514 57.611-10.4514.48 0 .961 0 1.442.0057 12.723.0988 25.376 1.5012 37.338 3.986 5.521 1.1467 10.995 2.6183 16.358 4.4191 19.555 6.5672 37.605 17.5113 50.839 33.028 10.254 12.0217 17.191 26.3184 21.321 41.3996l-45.285 1.3803c-5.582.1702-10.019 4.6773-10.019 10.1783v41.01l-21.983 22.149 26.369-6.938-.061-.213c.415.096.848.147 1.292.147.091 0 .184-.002.277-.006l48.055-2.297c-3.533 9.121-8.573 17.888-14.972 26.712-10.701 14.758-25.522 24.28-39.283 35.973-37.822 32.133-52.763 77.749-53.31 125.594-.017 1.544-1.299 2.78-2.863 2.78zm-121.046-215.45c-.061 0-.123.011-.184.033-.269.101-.402.396-.3.66 2.71 6.987 5.625 10.954 5.747 11.118.103.137.26.21.42.21.106 0 .213-.032.306-.098.231-.167.282-.486.112-.715-.029-.039-2.958-4.032-5.615-10.88-.079-.203-.278-.328-.486-.328zm-9.021-10.084c-.62 0-1.151.463-1.215 1.085-.131 1.269-.319 2.547-.557 3.802-.125.654.312 1.284.977 1.407.077.014.152.02.228.02.418 0 .803-.211 1.025-.547.084-.13.145-.275.175-.436.252-1.32.449-2.668.587-4.003.069-.663-.422-1.254-1.093-1.321-.044-.005-.085-.007-.127-.007zm4.628-4.639c.274 2.169.641 4.192 1.063 6.061.053.239.268.401.505.401.038 0 .075-.003.114-.012.278-.06.456-.333.394-.61-.393-1.744-.737-3.627-1.003-5.638.953.083 1.916.125 2.876.125.119 0 .239 0 .359-.002.263-.003.492-.137.625-.339.079-.119.124-.261.122-.414-.005-.409-.341-.737-.756-.737-.002 0-.005 0-.008 0-.119.001-.236.003-.355.003-1.016 0-2.037-.051-3.045-.148-1.311-12.17.427-28.6099 11.916-46.8911 2.264-3.6015 4.683-7.0054 7.247-10.2048.034.2058.154.3965.348.5151.19.1161.379.2336.565.3529.883.5653 1.747 1.1822 2.568 1.8331.141.1108.307.1648.474.1648.221 0 .439-.0951.59-.2774.016-.0205.03-.041.045-.0622.208-.3163.144-.7435-.16-.9848-.861-.6828-1.767-1.3295-2.693-1.9223-.195-.1247-.393-.2478-.591-.3695-.119-.0725-.25-.1056-.38-.1056-.026 0-.05.0012-.075.0036 19.84-24.2155 48.346-36.6081 83.326-36.6081 17.409 0 36.424 3.07 56.769 9.2798.052.0158.103.0232.153.0232.221 0 .427-.1411.496-.3602.085-.2696-.069-.5561-.343-.6398-20.512-6.2602-39.634-9.3946-57.199-9.3946-12.317 0-23.869 1.5421-34.592 4.6292-24.332 7.0063-43.655 21.6718-57.43 43.5893-11.67 18.569-13.405 35.2804-12.054 47.6354-.101.112-.169.253-.186.412-.032.28.097.54.315.692zm-4.527-3.718c-.032 0-.064 0-.096.003-.673.052-1.178.63-1.125 1.295.049.625.085 1.256.109 1.875.024.651.566 1.162 1.221 1.162.016 0 .03 0 .046-.002.414-.014.773-.23.981-.547.133-.202.207-.444.197-.701-.024-.652-.062-1.315-.113-1.973-.052-.632-.587-1.112-1.22-1.112zm16.481 1.552c-.062 0-.125.008-.189.024-1.218.309-2.465.549-3.707.712-.413.055-.705.429-.649.836.05.374.375.646.747.646.034 0 .067-.002.101-.006 1.303-.171 2.611-.422 3.886-.747.191-.047.345-.164.444-.314.112-.169.154-.382.1-.592-.088-.336-.396-.559-.733-.559zm7.185-2.777c-.122 0-.244.029-.358.089-1.104.587-2.256 1.114-3.424 1.564-.39.15-.582.582-.428.965.115.293.402.473.703.473.092 0 .185-.016.276-.05 1.224-.474 2.433-1.027 3.591-1.641.114-.061.207-.148.274-.249.146-.221.167-.511.032-.759-.137-.25-.397-.392-.666-.392zm6.3-4.391c-.181 0-.364.063-.508.192-.933.834-1.922 1.617-2.944 2.33-.342.24-.422.703-.18 1.039.148.204.38.314.617.314.151 0 .305-.044.436-.137 1.072-.749 2.111-1.569 3.087-2.442.048-.045.091-.095.125-.147.182-.276.162-.651-.074-.906-.149-.161-.354-.243-.559-.243zm5.033-5.764c-.243 0-.482.116-.628.332-.699 1.029-1.466 2.025-2.283 2.96-.268.312-.236.781.08 1.049.142.122.319.18.493.18.212 0 .423-.087.574-.259.856-.98 1.66-2.023 2.393-3.103l.006-.008c.224-.341.13-.799-.215-1.024-.128-.086-.274-.127-.42-.127zm3.494-6.7845c-.309 0-.599.1895-.711.4894-.43 1.1621-.936 2.3111-1.504 3.4141-.189.367-.04.815.332 1 .111.055.228.082.341.082.25 0 .492-.123.635-.34.015-.022.027-.044.04-.069.596-1.156 1.127-2.36 1.576-3.577.142-.387-.06-.8132-.452-.9537-.085-.0315-.172-.0458-.257-.0458zm1.733-7.412c-.382 0-.71.2846-.752.6671-.13 1.2293-.34 2.4635-.622 3.6688-.093.4005.16.8005.567.8927.058.0129.114.0191.17.0191.257 0 .496-.1298.633-.3389.048-.0711.084-.1513.105-.2386.294-1.2639.514-2.5588.65-3.8482.045-.409-.258-.7751-.673-.818-.026-.0027-.051-.004-.078-.004zm.078-5.6991c-.021 0-.04.0008-.059.0022-.415.033-.728.3904-.696.8005.047.5956.077 1.2059.088 1.8141.008.4063.345.7304.757.7306.005 0 .009-.0002.014-.0002.26-.0052.487-.1391.621-.3394.078-.1204.123-.2646.121-.4191-.013-.6371-.043-1.2768-.093-1.9016-.032-.3902-.362-.6871-.753-.6871zm-8.864-19.4247c-.189 0-.38.0696-.526.2095-.302.2852-.307.7574-.017 1.0529.424.4332.843.8849 1.242 1.3427.149.1716.36.2597.574.2597.174 0 .349-.059.492-.1793.056-.0478.102-.1018.141-.1599.177-.2701.163-.6335-.06-.8905-.418-.4797-.857-.9536-1.303-1.4082-.149-.151-.346-.2269-.543-.2269zm-13.234-8.0944c-.321 0-.617.2026-.72.5173-.128.3918.09.8104.489.9362 1.213.3833 2.415.8458 3.575 1.3742.103.0468.21.0689.316.0689.252 0 .492-.1236.635-.3381.019-.0295.037-.0609.053-.0934.174-.3737.009-.8162-.369-.9889-1.216-.5544-2.478-1.039-3.749-1.4406-.076-.0241-.153-.0356-.23-.0356z" fill="#fa541c"/><path d="m248.03 383.963c-.021-.163-.12-.313-.281-.393-4.292-2.144-8.923-3.231-13.768-3.231-.287 0-.519.228-.519.511 0 .021.001.043.004.063.03.254.25.451.516.451 4.679 0 9.154 1.05 13.298 3.121.075.038.156.055.234.055.189 0 .372-.102.463-.281.049-.094.065-.198.053-.296zm-43.218 30.314c1.122 8.123 5.697 15.456 12.71 20.123.128.085.205.216.224.356.018.122-.008.25-.084.359-.099.145-.263.224-.429.224-.101 0-.202-.028-.29-.087-7.258-4.83-11.993-12.418-13.157-20.823-.185-1.34-.28-2.701-.28-4.074 0-11.072 6.157-21.21 16.066-26.457.078-.041.163-.062.247-.062.184 0 .362.098.456.27.031.056.05.115.058.174.03.206-.071.419-.268.523-9.574 5.068-15.522 14.862-15.522 25.557 0 1.32.091 2.629.269 3.917zm23.2 35.49c1.949.284 3.941.431 5.97.431 22.337 0 40.443-17.836 40.443-39.838 0-18.601-12.943-34.225-30.443-38.609-3.199-.802-6.548-1.228-10-1.228-22.338 0-40.444 17.836-40.444 39.837 0 20.003 14.968 36.564 34.474 39.407z" fill="#fa541c"/><g fill="#fdab76"><path d="m84.6721 78.9856c-.1303-.2852-.1486-.62-.0236-.9345.1915-.4763.6516-.7659 1.1396-.7659.1488 0 .2999.0268.447.0835.0087.0034.0173.0068.0262.0101-.5363.537-1.0655 1.0722-1.5892 1.6068z"/><path d="m112.284 141.971c-.322-.745-.635-1.488-.933-2.229.422-1.001.811-2.022 1.159-3.043.168-.505.647-.824 1.16-.824.128 0 .26.02.388.063.641.211.987.895.772 1.526-.432 1.273-.926 2.543-1.466 3.779-.029.064-.061.125-.099.18-.22.334-.59.534-.981.548zm3.024-9.885c-.075 0-.151-.006-.228-.02-.665-.123-1.102-.753-.977-1.407.239-1.255.426-2.533.557-3.803.065-.622.595-1.084 1.215-1.084.042 0 .084.001.127.006.671.068 1.162.658 1.093 1.321-.138 1.336-.335 2.684-.587 4.004-.03.161-.091.306-.174.435-.223.337-.608.548-1.026.548z"/><path d="m36.4443 158.229c-.2926 0-.5862-.104-.8203-.313-.4928-.438-.9845-.895-1.4615-1.356-.4819-.467-.491-1.228-.0155-1.704.2397-.24.5563-.362.8733-.362.3094 0 .6192.115.8575.346.4528.439.9201.871 1.388 1.288.4521.402.5281 1.062.2061 1.55-.0349.054-.0745.104-.119.153-.2417.264-.5744.398-.9086.398z"/><path d="m21.3124 116.409c-.0609 0-.1225-.005-.1843-.014-.6685-.1-1.1286-.714-1.028-1.372.2068-1.348.4763-2.707.8009-4.036.1349-.553.6362-.924 1.1888-.924.0949 0 .1912.011.2875.033.6567.157 1.0616.807.9034 1.454-.308 1.263-.5636 2.553-.7598 3.833-.0268.175-.091.336-.1832.477-.2215.334-.6053.549-1.0253.549z"/><path d="m24.0809 106.264c-.1494 0-.3012-.027-.4484-.084-.6288-.245-.9376-.944-.6898-1.564.5082-1.268 1.0785-2.532 1.6946-3.757.2117-.425.6454-.67 1.096-.67.1832 0 .3693.04.5444.127.6053.295.8529 1.018.5528 1.615-.5858 1.163-1.1278 2.364-1.6103 3.57-.0308.078-.0691.149-.1132.215-.2274.346-.6175.548-1.0261.548z"/><path d="m29.0683 96.977c-.237 0-.4765-.0677-.6874-.209-.5514-.3695-.6998-1.1048-.3381-1.6532l.0146-.0212c.7798-1.1302 1.6181-2.2393 2.4911-3.2971.2421-.2931.5948-.4451.9506-.4451.2715 0 .5444.0884.7715.2702.4898.3921.5914 1.0809.2548 1.591-.0235.0357-.0495.0708-.077.1049-.8296 1.0049-1.6261 2.0582-2.3671 3.1315-.2367.3432-.6215.528-1.013.528z"/><path d="m36.0144 89.0129c-.3283 0-.6559-.1295-.8969-.3852-.4603-.4881-.4291-1.2486.0641-1.7039 1.015-.9285 2.0838-1.825 3.1763-2.6642.2234-.1717.4887-.2551.7518-.2551.3643 0 .7246.1595.9659.4641.33.4165.3383.9794.0616 1.3987-.072.1092-.1638.2085-.2739.2933-1.0372.797-2.0522 1.6481-3.016 2.5301-.2357.2155-.5346.3222-.8329.3222z"/><path d="m98.4921 86.971c-.2709 0-.5433-.0881-.7709-.2688-1.02-.8139-2.0915-1.5964-3.1848-2.3257-.5531-.3689-.7023-1.1053-.3399-1.6545l.0129-.0199c.2366-.3439.622-.5294 1.0143-.5294.2364 0 .4752.0674.6856.2077 1.15.7677 2.2783 1.5912 3.3536 2.4482.4904.3918.593 1.0816.2565 1.5925-.0241.0352-.0481.0696-.0754.1027-.242.2944-.5961.4472-.9519.4472z"/><path d="m44.588 82.7824c-.4232 0-.8348-.2164-1.0612-.6033-.3379-.5768-.1372-1.314.4485-1.6468 1.2003-.6821 2.4453-1.3214 3.6999-1.9006.1679-.0774.3445-.1141.5184-.1141.4601 0 .9008.2568 1.1092.6944.1864.3916.14.8316-.0827 1.1694-.1204.1822-.2917.3348-.5065.4338-1.192.5501-2.3744 1.1577-3.5151 1.8057-.1927.1094-.4029.1615-.6105.1615z"/><path d="m89.5089 81.3121c-.1819 0-.3665-.0403-.5407-.1249-1.183-.5754-2.4026-1.1062-3.6254-1.5784-.3099-.1197-.5426-.3504-.6694-.6278.5237-.5347 1.0529-1.0698 1.5891-1.6068 1.2776.4942 2.5525 1.0496 3.7892 1.6507.606.2947.8549 1.0178.5557 1.6149-.022.0434-.0459.0849-.072.1244-.2301.3487-.6213.5479-1.0265.5479z"/><path d="m54.3575 78.5813c-.5228 0-1.0066-.3323-1.1691-.8499-.1999-.6365.1622-1.3115.8082-1.5077 1.3258-.4038 2.6836-.756 4.0347-1.0467.0882-.0191.1762-.0283.2629-.0283.5625 0 1.0691.3845 1.1939.9484.0729.3276.0029.6535-.1692.9143-.1694.2569-.4372.4504-.765.5208-1.284.2766-2.5742.6111-3.8345.9951-.1204.0367-.2422.054-.3619.054z"/><path d="m79.4858 77.7455c-.0939 0-.1894-.0108-.2849-.0332-1.28-.3007-2.5887-.5501-3.8908-.7414-.6683-.0981-1.1297-.7118-1.0299-1.3702.0912-.5978.6133-1.0278 1.2097-1.0278.0599 0 .1203.0042.1814.0132 1.3712.2014 2.7497.4643 4.0975.7808.6574.1545 1.0632.8047.9068 1.4526-.0335.1379-.0898.2649-.1641.3773-.2236.3387-.61.5487-1.0257.5487z"/><path d="m64.8307 76.61c-.6333 0-1.1697-.4807-1.2192-1.1129-.0515-.6638.4529-1.243 1.1261-1.2948 1.2472-.0945 2.5123-.1424 3.7663-.1424.1355 0 .2704.0005.4055.0018.676.0057 1.2194.5499 1.2134 1.2158-.0021.238-.0739.4595-.1967.6456-.2186.3314-.5976.5498-1.0273.5498-.0033 0-.0066 0-.0099 0-.133-.0011-.2664-.0017-.3997-.0017-1.1871 0-2.3836.0456-3.5633.1351-.0319.0024-.0636.0037-.0952.0037z"/><path d="m20.8019 124.859c-.6575 0-1.2015-.514-1.2221-1.166-.0207-.655-.0283-1.32-.022-1.977.0051-.663.5526-1.195 1.2231-1.195h.012c.6759.007 1.2188.551 1.2124 1.217-.0056.625.0011 1.257.0213 1.879.0082.256-.0652.494-.1966.693-.2109.32-.5721.537-.9888.549-.0132 0-.0262 0-.0393 0z"/><path d="m71.4147 170.288c-.6409 0-1.1791-.49-1.2203-1.13-.0428-.664.4696-1.237 1.144-1.278 1.2914-.081 2.5967-.217 3.8802-.405.0608-.007.121-.012.1805-.012.5968 0 1.1194.431 1.2092 1.029.0455.303-.0273.595-.1842.834-.1844.279-.4857.483-.8473.535-1.3505.197-2.7246.339-4.0836.424-.0263.002-.0526.003-.0785.003zm-6.5022-.033c-.0301 0-.0605-.001-.091-.004-1.3614-.098-2.7344-.256-4.0804-.468-.6677-.104-1.1225-.723-1.0159-1.379.096-.594.6165-1.017 1.2076-1.017.0641 0 .1288.005.1941.016 1.2779.2 2.5814.35 3.8748.443.6742.049 1.1801.627 1.1304 1.292-.0158.21-.0849.402-.1937.566-.2196.333-.6007.551-1.0259.551zm16.8387-1.747c-.5308 0-1.0194-.341-1.175-.868-.1888-.641.1846-1.311.834-1.495 1.2428-.355 2.4871-.769 3.6974-1.225.1442-.056.2923-.081.4381-.081.4922 0 .9561.295 1.143.774.1457.375.0891.778-.1172 1.091-.1359.205-.3367.372-.5873.467-1.2738.481-2.5828.915-3.891 1.289-.1139.032-.229.048-.342.048zm-27.1572-.152c-.1183 0-.2385-.017-.3576-.053-1.3026-.39-2.6054-.842-3.8729-1.341-.6276-.247-.9333-.948-.6822-1.567.191-.471.6515-.758 1.1379-.758.1508 0 .3041.027.4527.085 1.204.476 2.4413.903 3.6785 1.274.6465.194 1.0109.869.8138 1.506-.0343.111-.0834.213-.1443.305-.2251.342-.6134.549-1.0259.549zm36.8495-3.799c-.4321 0-.8507-.226-1.0734-.625-.326-.585-.1093-1.317.4832-1.637 1.1369-.616 2.2592-1.285 3.3353-1.991.2084-.136.4436-.201.6763-.201.3964 0 .785.188 1.0207.539.2787.413.2648.933.0068 1.324-.0882.134-.2053.253-.3488.346-1.1333.743-2.3148 1.447-3.5118 2.095-.187.101-.3891.15-.5883.15zm-46.4872-.283c-.2043 0-.4115-.05-.6019-.156-.8731-.488-1.7421-1.007-2.5818-1.546-.3042-.194-.6052-.391-.9036-.592-.5583-.374-.7184-1.124-.3221-1.674.2367-.343.6212-.528 1.0123-.528.2374 0 .4771.068.6882.21.2834.19.5699.379.859.564.7986.511 1.6239 1.004 2.4541 1.468.5882.328.7949 1.064.4617 1.643-.0125.021-.0255.043-.0393.063-.2319.352-.6239.548-1.0266.548zm55.0627-5.658c-.3395 0-.6761-.138-.918-.407-.4472-.499-.3991-1.261.1057-1.702.9733-.846 1.9183-1.742 2.8113-2.663.24-.249.562-.374.884-.374.305 0 .609.111.847.335.432.406.495 1.05.181 1.526-.04.064-.089.122-.141.177-.941.971-1.936 1.915-2.96 2.805-.233.202-.523.303-.81.303zm7.041-7.657c-.249 0-.499-.074-.717-.229-.546-.39-.67-1.143-.275-1.683.753-1.028 1.474-2.103 2.15-3.208.228-.375.633-.584 1.05-.584.215 0 .433.057.631.174.579.344.765 1.084.415 1.654-.293.48-.593.952-.899 1.416-.437.665-.895 1.323-1.362 1.959-.239.327-.614.501-.993.501zm5.179-8.99c-.162 0-.325-.032-.484-.098-.62-.264-.907-.973-.639-1.585.08-.182.158-.363.235-.546.298.74.611 1.484.933 2.229-.014 0-.029 0-.045 0z"/><path d="m116.084 121.745c-.655 0-1.197-.511-1.221-1.161-.024-.619-.059-1.251-.109-1.876-.053-.664.452-1.242 1.125-1.294.032-.003.064-.003.096-.003.634 0 1.169.48 1.22 1.111.051.658.09 1.321.114 1.973.009.257-.064.499-.197.701-.209.317-.568.534-.981.548-.016.001-.031.001-.047.001z"/><path d="m101.762 107.115c-.074-.229-.288-.387-.532-.392l-6.9603-.151c-1.6721-2.747-3.8008-5.25-6.3483-7.3863l.9933-6.7836c.0348-.2381-.0875-.4715-.3045-.5816l-7.4254-3.7641c-.217-.1102-.4809-.0724-.6572.0938l-5.0268 4.7386c-3.2459-.8002-6.5516-1.0515-9.7926-.7955l-4.1698-5.4917c-.1462-.1926-.4004-.2724-.6326-.199l-7.953 2.5099c-.2322.0734-.392.284-.3972.5242l-.1529 6.8563c-2.7886 1.6469-5.3305 3.744-7.4998 6.253l-6.8864-.978c-.2417-.035-.4787.085-.5904.3l-3.8216 7.313c-.1117.215-.0734.474.0954.647l4.8107 4.952c-.8124 3.197-1.0675 6.454-.8076 9.646l-5.5753 4.107c-.1954.144-.2768.395-.2021.624l2.5482 7.832c.0743.229.2883.387.532.392l6.9608.151c1.672 2.747 3.8008 5.251 6.3483 7.387l-.9933 6.783c-.035.238.0873.472.3043.582l7.4256 3.764c.217.11.4809.072.6572-.094l5.0268-4.738c3.2459.8 6.5518 1.051 9.7927.795l4.1697 5.492c.1462.193.4002.273.6327.199l7.9528-2.51c.2324-.073.3919-.284.3973-.524l.1529-6.856c2.7885-1.648 5.3303-3.744 7.4999-6.254l6.8868.979c.2403.034.4775-.086.5897-.3l3.822-7.314c.111-.215.074-.474-.096-.647l-4.811-4.952c.8126-3.197 1.0674-6.453.8078-9.645l5.5752-4.108c.196-.143.278-.394.202-.623z"/></g><path d="m74.4143 127.519c-3.0612 3.419-8.3758 3.749-11.8482.732-1.6821-1.46-2.6858-3.477-2.8263-5.682-.1409-2.204.5977-4.331 2.0813-5.986 3.0613-3.421 8.3759-3.75 11.8481-.734 3.1588 2.743 3.7205 7.323 1.4908 10.702-.221.335-.4699.659-.7457.968z" fill="#fee9d1"/><path d="m85.2331 133.201c.383-.58.7385-1.182 1.0646-1.807.1026-.196.2019-.393.2983-.594.4742-.983.8681-2.003 1.1756-3.043l.0129-.043c.0117-.039.0234-.08.0346-.12.0226-.079.0444-.157.066-.236.0567-.207-.0322-.419-.2053-.529-.0421-.027-.0893-.048-.1402-.062-.2611-.069-.529.084-.5997.341-.3617 1.323-.8707 2.617-1.5129 3.846-3.1873 6.101-9.232 9.829-15.7032 10.418-3.5993.329-7.3307-.316-10.7761-2.061-.6044-.307-1.1885-.641-1.7502-1.001-3.7825-2.422-6.581-6.021-7.9759-10.31-1.6028-4.925-1.1618-10.172 1.2414-14.771 4.9642-9.499 16.8402-13.2438 26.4793-8.358.5944.301 1.171.631 1.7276.988 2.4128 1.545 4.4554 3.593 5.9742 6.003.0393.062.0904.112.1491.15.1538.098.3585.108.5248.005.2295-.14.3012-.437.1579-.665-1.5946-2.53-3.7391-4.68-6.272-6.301-.5843-.374-1.1894-.722-1.8132-1.037-10.1202-5.1307-22.5916-1.192-27.7983 8.773-2.5231 4.829-2.9858 10.335-1.3034 15.508 1.4643 4.502 4.4024 8.28 8.3732 10.823.5899.377 1.2032.728 1.8371 1.05 4.9025 2.486 10.4939 2.941 15.744 1.285 4.572-1.443 8.4088-4.338 10.9898-8.252z" fill="#fee9d1"/><path d="m140.559 62.7261c-.028-.1706.005-.3517.104-.5102.133-.1937.354-.3196.586-.342-.232.2836-.459.5654-.69.8522z" fill="#fdab76"/><path d="m121.576 121.331c-.24-.021-.48-.044-.719-.071-.132-.014-.252-.06-.353-.131-.045-.363-.09-.733-.13-1.104.14-.154.345-.249.566-.249.027 0 .055.002.083.003.124.014.249.027.372.04.056.511.117 1.016.181 1.512z" fill="#fdab76"/><path d="m128.661 121.18c-.372 0-.697-.272-.747-.646-.056-.407.235-.781.649-.837 1.242-.162 2.489-.402 3.707-.712.064-.015.126-.023.189-.023.336 0 .644.222.732.559.055.209.013.423-.099.591-.099.15-.253.267-.444.315-1.276.325-2.583.576-3.886.746-.034.005-.068.007-.101.007zm7.476-1.904c-.301 0-.588-.18-.704-.474-.154-.382.039-.814.428-.964 1.168-.45 2.321-.977 3.425-1.565.114-.06.236-.088.357-.088.27 0 .529.142.667.391.135.248.114.539-.032.76-.067.101-.16.188-.274.249-1.159.614-2.367 1.167-3.592 1.64-.091.035-.184.051-.275.051zm6.792-3.607c-.237 0-.47-.111-.617-.314-.242-.337-.162-.799.179-1.039 1.023-.714 2.011-1.497 2.944-2.33.144-.129.327-.193.508-.193.205 0 .411.082.56.243.235.256.256.63.073.907-.033.052-.077.102-.125.146-.976.873-2.014 1.694-3.086 2.442-.132.094-.286.138-.436.138zm5.71-5.118c-.175 0-.351-.058-.494-.18-.315-.268-.348-.737-.08-1.05.817-.934 1.585-1.93 2.284-2.959.146-.217.384-.332.628-.332.146 0 .292.041.42.126.345.226.439.684.215 1.025l-.007.008c-.732 1.079-1.537 2.123-2.392 3.103-.151.172-.363.259-.574.259zm4.29-6.321c-.114 0-.231-.026-.341-.082-.372-.184-.521-.633-.332-.999.567-1.103 1.074-2.253 1.503-3.4143.112-.3.402-.4894.712-.4894.085 0 .171.0142.256.0458.393.1405.595.5667.452.9539-.449 1.217-.979 2.421-1.575 3.577-.013.025-.026.047-.04.069-.143.216-.385.339-.635.339zm2.638-7.1491c-.056 0-.112-.0061-.17-.0191-.407-.0922-.66-.4922-.567-.8927.282-1.2052.492-2.4395.622-3.6687.041-.3825.37-.6671.751-.6671.027 0 .053.0012.079.0039.415.0429.718.409.673.818-.136 1.2894-.356 2.5843-.651 3.8483-.021.0873-.056.1675-.104.2385-.138.2092-.377.3389-.633.3389z" fill="#fdab76"/><path d="m148.689 69.572c-.213 0-.425-.0881-.574-.2597-.399-.4578-.817-.9096-1.242-1.3428-.29-.2955-.285-.7676.018-1.0529.146-.1398.336-.2095.525-.2095.197 0 .395.076.544.2269.445.4546.884.9285 1.303 1.4082.222.257.237.6204.059.8905-.039.0581-.085.1121-.141.1599-.143.1203-.317.1794-.492.1794z" fill="#fdab76"/><path d="m95.1005 77.8015c-.0984 0-.1982-.0191-.2944-.0592-.3846-.1604-.5641-.597-.4013-.9759.4505-1.0483.9672-2.0905 1.5335-3.0945.0853-.1531.1726-.304.2608-.4551.1316-.2404.3865-.373.6492-.373.1311 0 .2641.033.3843.1017.3606.2058.484.6611.2757 1.0175-.0834.1408-.1651.2834-.2468.4294-.5422.961-1.035 1.9549-1.4648 2.9546-.0175.0412-.0388.0801-.0625.1162-.1409.2138-.3821.3383-.6337.3383zm3.919-6.6984c-.157 0-.3173-.0488-.4535-.1501-.3334-.2472-.3959-.7099-.1491-1.0431.8078-1.055 1.6871-2.0684 2.6151-3.0119.149-.1508.347-.2266.544-.2266.189 0 .38.0698.525.2098.265.2517.302.6471.109.9398-.027.0396-.057.0775-.091.1128-.885.8997-1.724 1.8662-2.4937 2.8732-.149.1938-.3766.2961-.6058.2961z" fill="#fdab76"/><path d="m144.513 65.5859c-.166 0-.333-.054-.474-.1648-.82-.6508-1.684-1.2677-2.567-1.833-.186-.1194-.375-.2368-.566-.353-.194-.1186-.314-.3093-.348-.5151.231-.2868.459-.5686.691-.8523.026-.0023.05-.0036.075-.0036.13 0 .262.0332.38.1056.199.1217.396.2448.591.3696.927.5927 1.832 1.2394 2.693 1.9222.304.2413.368.6685.16.9849-.014.0211-.029.0416-.045.0621-.15.1824-.368.2774-.59.2774z" fill="#fdab76"/><path d="m104.482 65.5509c-.221 0-.441-.095-.59-.2778-.261-.3206-.21-.7877.115-1.0472 1.041-.8247 2.146-1.5939 3.284-2.2866.125-.0752.261-.111.398-.111.253 0 .5.1254.642.3531.159.2532.146.5636-.008.7974-.059.0895-.138.1681-.237.2278-1.085.6601-2.138 1.3934-3.131 2.18-.14.1105-.307.1643-.473.1643z" fill="#fdab76"/><path d="m137.844 61.5092c-.106 0-.213-.0221-.316-.069-1.16-.5283-2.362-.9908-3.575-1.3741-.399-.1258-.617-.5445-.489-.9363.103-.3146.399-.5173.72-.5173.077 0 .153.0116.23.0357 1.271.4016 2.533.8862 3.749 1.4406.378.1727.543.6152.369.9888-.017.0325-.034.064-.053.0935-.143.2145-.383.3381-.635.3381z" fill="#fdab76"/><path d="m111.154 61.4921c-.285 0-.559-.1611-.687-.4344-.174-.374-.009-.8163.371-.9872 1.215-.5487 2.478-1.0293 3.754-1.4288.075-.0238.152-.035.227-.035.322 0 .619.2022.721.5188.071.2215.032.4515-.086.6319-.092.1394-.233.2495-.406.3039-1.216.3809-2.42.8395-3.58 1.363-.101.046-.208.0678-.314.0678zm14.577-3.7344c.053-.2175.201-.3956.395-.4927-.132.164-.263.3279-.395.4927z" fill="#fdab76"/><path d="m130.37 59.1533c-.047 0-.093-.0041-.141-.0128-1.254-.2322-2.536-.389-3.81-.4666-.417-.0255-.734-.3787-.708-.789.003-.0433.009-.0856.019-.1263.131-.1648.263-.3287.394-.4927.103-.0513.218-.08.34-.08.016 0 .032.0005.048.0016 1.337.0809 2.681.2461 3.995.4892.411.0761.682.4652.605.8694-.02.0982-.056.1887-.109.2679-.138.2083-.375.3393-.633.3393z" fill="#fdab76"/><path d="m118.632 59.1499c-.356 0-.674-.2497-.742-.6074-.076-.4032.193-.7931.604-.8692 1.312-.2424 2.657-.4066 3.993-.4885.016-.001.032-.0015.049-.0015.395 0 .729.3042.753.6989.009.1654-.036.3217-.12.451-.127.1911-.339.323-.589.3381-1.274.0778-2.556.2344-3.807.4659-.047.0086-.095.0127-.141.0127z" fill="#fdab76"/><path d="m124.454 121.453c-.96 0-1.923-.041-2.877-.125-.064-.496-.125-1.001-.181-1.512 1.008.098 2.029.148 3.045.148.119 0 .236-.001.354-.003h.008c.416 0 .752.328.757.737.002.153-.043.295-.122.414-.133.202-.362.336-.625.339-.12.002-.24.002-.359.002zm-3.949-.327c-.218-.151-.347-.412-.315-.691.017-.16.085-.3.186-.412.04.371.084.74.129 1.103z" fill="#fdab76"/><path d="m156.37 89.4812c-.412-.0001-.748-.3242-.756-.7305-.011-.6083-.042-1.2185-.088-1.8141-.032-.4101.28-.7675.695-.8005.019-.0014.039-.0022.059-.0022.391 0 .722.2969.754.6871.049.6248.08 1.2645.093 1.9016.001.1545-.044.2986-.122.4191-.133.2003-.361.3342-.62.3394-.005 0-.01.0001-.015.0001z" fill="#fdab76"/><path d="m146.769 79.1822c-.051-.1531-.194-.2582-.357-.2619l-4.658-.1007c-1.118-1.8379-2.543-3.5132-4.248-4.9431l.665-4.5391c.024-.1592-.058-.3154-.203-.3891l-4.969-2.5187c-.145-.0738-.322-.0485-.44.0626l-3.364 3.1709c-2.172-.5354-4.383-.7036-6.553-.5323l-2.79-3.6747c-.098-.1289-.268-.1824-.424-.1333l-5.32 1.6796c-.156.049-.263.1899-.266.3508l-.103 4.5878c-1.865 1.102-3.567 2.5052-5.019 4.1843l-4.608-.6548c-.162-.0229-.32.0576-.394.2007l-2.558 4.8943c-.075.1431-.049.3169.064.4332l3.218 3.3133c-.543 2.1394-.713 4.3183-.54 6.4545l-3.731 2.7482c-.129.0965-.1838.264-.134.4171l1.705 5.2423c.05.1531.192.2573.356.262l4.657.0995c1.12 1.8394 2.543 3.5134 4.249 4.9444l-.666 4.538c-.022.16.06.316.204.39l4.97 2.518c.144.074.322.049.439-.062l3.364-3.171c2.171.535 4.384.704 6.553.532l2.79 3.675c.098.129.268.183.423.132l5.322-1.679c.156-.049.262-.19.266-.351l.103-4.587c1.865-1.102 3.566-2.505 5.018-4.185l4.607.655c.162.024.321-.057.396-.2l2.556-4.8945c.076-.143.05-.317-.062-.4332l-3.22-3.3133c.543-2.1394.715-4.3183.54-6.4544l3.731-2.7485c.131-.0963.186-.2638.136-.4169z" fill="#fdab76"/><path d="m128.545 92.9101c-1.009 1.129-2.405 1.8024-3.929 1.8968-1.525.0945-2.996-.4013-4.142-1.3966-2.363-2.0535-2.591-5.6135-.508-7.9497 2.087-2.3291 5.707-2.5533 8.071-.4997 1.146.9948 1.83 2.3696 1.926 3.8709.077 1.2206-.24 2.4061-.905 3.4134-.152.2314-.324.4538-.513.6649z" fill="#fee9d1"/><path d="m136.075 96.861c.26-.3951.502-.8065.726-1.2338.444-.8488.802-1.7431 1.061-2.6602.012-.0412.023-.0826.034-.1239.088-.3195-.05-.6463-.317-.8177-.064-.0417-.138-.0741-.217-.0949-.402-.107-.815.1296-.926.5255-.234.8586-.564 1.6958-.979 2.4891v.0003c-.023.0436-.047.0871-.069.1301-1 1.8685-2.435 3.4209-4.172 4.5622-.944.6193-1.979 1.1163-3.083 1.4763l-.027.008c-.028.009-.055.017-.082.026-3.237 1.022-6.686.741-9.709-.792-.391-.197-.769-.4136-1.133-.6473-2.449-1.5675-4.26-3.8979-5.163-6.6745-1.037-3.1893-.752-6.5852.804-9.5625 1.556-2.975 4.196-5.1801 7.433-6.2025 3.237-1.0217 6.686-.7407 9.709.7919.384.1947.758.4084 1.118.639 1.561 1.0004 2.885 2.3257 3.867 3.8863.061.0962.14.1741.231.2316.237.1522.553.1657.809.0085.355-.2178.465-.6756.244-1.0257-1.099-1.7461-2.579-3.2295-4.325-4.3485-.404-.2584-.823-.4973-1.252-.7154-3.383-1.7147-7.241-2.0291-10.863-.8858-3.621 1.1435-6.577 3.6047-8.316 6.9388-1.74 3.3313-2.061 7.1306-.899 10.6988 1.01 3.1063 3.037 5.7133 5.776 7.4673.407.26.83.502 1.268.724 6.548 3.32 14.523 1.137 18.452-4.819z" fill="#fee9d1"/><path d="m302.421 147.404-21.983 22.149 26.369-6.938z" fill="#e6dbfe"/><path d="m433.226 156.573-124.911 5.97c-3.208.154-5.894-2.366-5.894-5.529v-50.619c0-5.501 4.437-10.0082 10.019-10.1784l112.578-3.4313c8.383 0 15.179 6.6941 15.179 14.9517v41.629c0 3.848-3.067 7.019-6.971 7.207z" fill="#e6dbfe"/><path d="m422.946 103.917-99.881 3.681c-.981.036-1.753.677-1.72 1.427l.037.865c.032.742.842 1.312 1.811 1.277l99.885-3.593c.982-.034 1.755-.675 1.724-1.427l-.043-.953c-.032-.744-.842-1.313-1.813-1.277z" fill="#754ffe"/><path d="m414.007 128.823-99.882 3.662c-.98.036-1.751.699-1.718 1.476l.04.895c.032.769.843 1.361 1.813 1.326l99.886-3.571c.981-.035 1.753-.696 1.72-1.474l-.043-.988c-.034-.771-.843-1.363-1.816-1.326z" fill="#754ffe"/><path d="m425.677 139.244-111.347 4.14c-1.093.041-1.956.714-1.922 1.498l.039.905c.034.776.935 1.37 2.016 1.33l111.35-4.047c1.095-.039 1.958-.712 1.926-1.496l-.044-.998c-.034-.778-.936-1.372-2.018-1.332z" fill="#754ffe"/><path d="m368.183 118.602-54.44 1.563c-.533.016-.934.739-.889 1.61l.05 1.006c.043.863.505 1.547 1.033 1.533l54.444-1.459c.536-.014.936-.737.893-1.61l-.056-1.11c-.043-.863-.505-1.548-1.035-1.533z" fill="#754ffe"/><path d="m428.171 116.748-51.457 1.452c-.505.014-.88.737-.837 1.609l.052 1.005c.043.864.482 1.549.982 1.535l51.46-1.348c.506-.013.881-.736.838-1.609l-.056-1.11c-.043-.863-.482-1.548-.982-1.534z" fill="#754ffe"/><path d="m112.759 435.764s-1.029 5.741-1.534 11.424c-.198 2.221 1.54 4.15 3.803 4.243 7.683.316 24.12.928 30.017.669.886-.039 1.467-.933 1.138-1.746-.276-.68-.806-1.231-1.481-1.536l-27.15-12.29z" fill="#754ffe"/><path d="m111.916 432.389.827 6.867s4.755 2.182 8.004-.274l-1.97-7.653z" fill="#fdbab9"/><path d="m112.537 303.275c-.358 1.793-1.919 89.494 7.599 128.794.154.643-.176 1.303-.794 1.552-1.46.587-4.323 1.438-7.752 1.553-1.061.033-2.015-.645-2.314-1.649-2.72-9.12-15.7563-54.807-17.4568-98.45-1.9003-48.766 0-1.66 0-1.66l1.1144-30.145z" fill="#1c0f79"/><path d="m81.5281 438.757s-1.639 2.9-3.2257 10.602c-.2864 1.391.7002 2.722 2.1342 2.86 2.5371.247 6.443.562 9.5716.54 1.4424-.009 2.568-1.245 2.3942-2.656-.3465-2.812-1.4262-7.424-4.7616-11.019z" fill="#754ffe"/><path d="m80.0878 429.921 1.9329 10.385s1.9113 1.401 5.6919.386l-.9227-11.175z" fill="#fdbab9"/><path d="m74.8669 305.968c-7.7839 46.271 1.6885 114.363 4.883 127.691.1955.816.8641 1.441 1.7037 1.577 1.426.233 3.7737.423 6.0884-.239.7973-.228 1.3575-.937 1.3901-1.753.4285-10.776-.3428-76.923 6.91-103.064.3674-1.324 1.1896-2.48 2.3258-3.275l14.0761-9.857 1.08-15.934z" fill="#1c0f79"/><path d="m193.369 184.447c-2.29-2.726-5.191-1.436-5.191-1.436-3.432 14.283-21.431 25.863-39.924 31.524 1.208 5.065 3.989 13.634 9.887 20.366 30.688-16.995 35.228-50.454 35.228-50.454z" fill="#fdbab9"/><path d="m192.813 185.141c.24.752-2.537 1.895-4.172-1.176-.056-1.471-.965-7.776-.072-8.975 4.755-6.386 13.973-14.391 13.973-14.391 1.559 1.516.276 3.003.276 3.003l-4.473 4.589c.936 1.665 2.077 3.07 2.61 5.084.406 1.525.158 3.156-.625 4.543-.783 1.394-1.855 3.205-2.867 4.623-1.916 2.682-4.65 2.7-4.65 2.7z" fill="#fdbab9"/><path d="m196.387 171.169-4.076 3.403-1.279 3.388 3.634 3.971s1.222-6.723 2.129-8.178c.909-1.454.438-2.158-.408-2.584z" fill="#fdbab9"/><path d="m124.465 218.295c-23.326-.381-49.0644 6.031-49.0644 6.031-6.9531 39.964-1.2158 86.06-1.2158 86.06 18.0589 4.664 38.4302-2.853 38.4302-2.853 3.002-16.704 17.006-63.713 17.006-63.713 11.398-1.394 20.786-4.633 28.518-8.916-5.897-6.732-8.678-15.301-9.886-20.366-8.247 2.525-16.592 3.873-23.788 3.757z" fill="#4027b6"/><path d="m84.3475 246.573-8.9473-22.248s-21.7885 14.583-25.3718 33.071c4.117.3 11.6086 1.354 18.9413 5.001 1.6115-8.73 15.3778-15.824 15.3778-15.824z" fill="#4027b6"/><path d="m100.45 284.734 13.351-45.925c.152-.521.603-.901 1.151-.965 2.418-.277 9.428-1.057 17.52-1.731 9.748-.813 21.069-1.471 27.834-.911.961.079 1.543 1.081 1.115 1.934-3.848 7.665-19.67 38.848-27.594 49.063-.262.34-.67.537-1.101.532l-30.977-.282c-.902-.01-1.546-.861-1.299-1.715z" fill="#754ffe"/><path d="m133.857 232.134 9.68-1.588c.514-.085.937.401.772.889l-.957 2.86c-.083.249-.304.429-.569.464l-9.314 1.227c-.481.063-.878-.37-.768-.835l.593-2.498c.064-.268.285-.473.563-.519z" fill="#b195fe"/><path d="m126.608 240.21.798-4.092c.08-.41.423-.72.844-.762l19.552-1.954c.657-.067 1.184.528 1.031 1.161l-1.244 5.098c-.099.408-.46.704-.885.724l-19.104.947c-.622.032-1.109-.521-.992-1.122z" fill="#b195fe"/><path d="m103.389 267.506s-24.4633 13.619-32.7175 1.991c-1.7139-2.415-2.1235-4.815-1.7014-7.102-7.3327-3.647-14.8243-4.701-18.9413-5.001-1.0803 5.574-.5089 11.503 2.8162 17.494 14.4584 26.051 53.782-1.44 53.782-1.44z" fill="#fdbab9"/><path d="m103.674 273.641s-1.86-7.533-1.109-10.205c.75-2.673 2.203-6.108 7.048-5.345 4.844.764 10.559 2.775 10.559 2.775s-.288 3.481-3.969 2.357l2.282 1.741s-.325 2.786-3.436 1.297l2.123 2.308s-1.335 2.289-3.623.821c-2.289-1.468-3.387 5.159-9.875 4.251z" fill="#fdbab9"/><path d="m100.839 199.636-7.4227 21.142c-.123.35.023.738.3524.918 2.0231 1.102 9.3123 4.286 18.0963-1.199.915-.572 1.538-1.505 1.678-2.562l2.403-18.299z" fill="#fdbab9"/><path d="m116.988 180.058s8.15 15.112 7.106 21.218c-1.045 6.104-11.147 5.666-19.967.707l-6.1641-16.318z" fill="#fdbab9"/><path d="m104.515 193.965c.359-.157.49-.589.277-.913-.654-.982-1.878-2.986-2.267-4.742 0 0-1.467-.923 3.729-2.148 5.194-1.225 12.939-3.126 14.568-7.481 1.588-4.246-2.584-14.924-9.238-6.415-.253.323-.748.33-1.001.006-1.092-1.399-3.959-4.302-7.941-2.542-3.7265 1.647-4.1464 4.337-4.0951 5.693.016.398-.3462.709-.7452.633-1.8832-.354-6.4041-.657-8.5142 3.91-1.7381 3.763-.6084 5.893.4203 6.935.3336.337.1874.893-.2697 1.03-1.238.375-2.8369 1.408-2.677 4.266.2215 3.949 4.705 3.602 5.9815 3.422.2093-.03.4198.041.5617.194 1.0944 1.194 6.0263 6.259 11.3627 6.87.463.054.821-.396.67-.83l-2.311-6.613c-.107-.308.042-.644.345-.776z" fill="#1c0f79"/><path d="m105.445 194.912s-5.8026-3.921-6.2273-.619c-.4231 3.303 5.2263 4.785 8.0243 3.554z" fill="#fdbab9"/></g></svg>