<svg fill="none" height="566" viewBox="0 0 312 566" width="312" xmlns="http://www.w3.org/2000/svg"><g clip-rule="evenodd" fill-rule="evenodd"><path d="m182.104 379.79-33.849-39.305 93.973 18.139z" fill="#4027b6"/><path d="m258.471 289.286c2.323.107 3.926 2.373 3.254 4.604l-19.497 64.734-82.797-12.244 15.078-58.118c.425-1.635 1.934-2.75 3.619-2.672z" fill="#754ffe"/><path d="m253.236 293.809-16.977 59.719-71.324-11.078 14.717-52.954z" fill="#b195fe"/><path d="m141.069 469.915.632 69.135c-10.671.206-19.254 2.068-20.711 4.444l-.022-.026c-3.536.213-7.141.441-10.436 1.739s-6.29 3.869-7.159 7.296c-.869 3.428 1.025 7.589 4.466 8.432 3.44.841 7.318-2.933 5.944-6.192-.267-.634-.684-1.19-1.101-1.746-.478-.638-.956-1.275-1.203-2.026-.776-2.356.654-4.28 2.982-5.147 1.642-.61 4.864-.735 6.622-.755 1.493 2.032 8.214 3.664 16.93 4.166-3.695.789-6.866 4.279-6.751 8.122.143 4.812 5.398 8.766 10.074 7.58 4.657-1.18 7.355-7.335 4.777-11.382-1.541-2.42-4.708-3.346-7.477-2.798l2.005-1.408c.993.03 2.006.045 3.035.045 10.319 0 19.044-1.543 21.909-3.665 4.767-.06 8.93.577 11.322 3.262-1.377.375-2.683.947-3.815 1.815-2.225 1.705-3.603 4.73-2.728 7.391 1.201 3.655 6.454 4.905 9.566 2.634 3.11-2.271 3.786-6.983 2.029-10.406-.377-.735-1.48-2.127-1.48-2.127-1.97-2.185-4.848-3.571-7.79-4.039-2.086-.332-4.201-.664-6.291-.705-1.295-2.308-9.3-4.142-19.453-4.471l-.633-69.216z" fill="#637381"/><path d="m115.79 469.666 50.617-7.825c4.415 14.739-36.266 24.387-50.617 7.825z" fill="#454f5b"/><path d="m184.803 544.382 21.339-1.965-11.773-5.159 1.104-15.968-10.67 3.194z" fill="#770508"/><path d="m226.501 557.402 26-3.194-15.453-6.386 2.452-20.39-10.546 3.685z" fill="#770508"/><path d="m198.048 524.484h-13.246l-5.151-87.701 34.585-8.106z" fill="#212b36"/><path d="m112.69 469.21c20.604 3.685 84.622-.502 84.255-30.467l-103.6323 11.306s-1.2266 15.476 19.3773 19.161z" fill="#637381"/><path d="m156.105 455.208c81.679-25.795 77.264-25.058 77.264-25.058l-4.415 100.967h16.188s44.396-138.307 19.868-151.818-96.887 15.968-96.887 15.968l-121.6599 17.196s27.9623 68.539 109.6419 42.745z" fill="#212b36"/><path d="m93.3123 187.93-2.9669 2.211s3.4577 8.598 1.986 9.335-5.6417 3.194-5.6417 3.194l2.4533 11.792-19.8679 2.456-1.7175-14.74 1.4717-23.337 15.9436-7.616z" fill="#fdbab9"/><g fill="#212b36"><path d="m76.1427 198.984s-5.6417-2.948-4.6608-6.141c.9816-3.193 5.3967-2.456 7.3585 1.474l3.6792-.737-5.5763-15.968s15.4139-4.323 13.1806-12.037c-3.0295-10.464-14.1305-6.638-13.8149 2.304 0 0-17.3366 1.872-15.8649 11.207s6.4166 26.739 6.4166 26.739l10.2629-1.927z"/><path d="m85.4515 182.549c-.6711 0-1.2149.545-1.2149 1.217s.5438 1.217 1.2149 1.217 1.2148-.545 1.2148-1.217-.5437-1.217-1.2148-1.217z"/><path d="m81.7041 181.416c-.1891-.073-.284-.286-.2104-.477.3208-.834 1.0177-1.529 1.9095-1.908.8933-.379 1.8772-.397 2.6984-.048.1876.079.2744.295.1957.482-.0787.189-.2973.275-.482.197-.6394-.272-1.4143-.255-2.1244.047s-1.2612.847-1.5114 1.496c-.0559.146-.195.236-.3429.236-.0442 0-.089-.009-.1325-.025z"/></g><path d="m166.406 298.231s-21.302-70.136-46.358-81.313c-22.58-10.072-80.9438-12.283-100.0759 39.305-19.132086 51.589 26.4906 156.24 26.4906 156.24s83.1513 16.951 133.1883-19.898l-47.705-81.391z" fill="#fa541c"/><path d="m190.69 367.507 37.528-8.844 8.095-11.054 1.471.491-2.207 7.861 14.962-2.456v2.211l-12.019 3.439 12.019-1.72v1.965l-11.038 3.194 11.038-.983v2.457l-10.056 1.72 8.094.491-.736 1.228-15.453 2.211s-55.188 39.797-64.264 25.549c-9.076-14.249-36.178-84.093-36.178-84.093l34.461-12.943z" fill="#fdbab9"/><path d="m128.388 302.408 34.816-13.838 3.203 9.661-34.461 12.943z" fill="#b3200e"/><path d="m250.539 424.992-17.546 13.751.376-8.592z" fill="#212b36"/><path d="m76.2285 458.131c-30.7592-22.205-38.7329-72.624-39.0566-74.759l5.0921-.777c.0765.502 7.9876 50.437 36.9889 71.361 11.0407 7.966 23.8771 10.755 38.1511 8.29l.875 5.084c-3.67.634-7.255.95-10.75.95-11.4539 0-21.9463-3.395-31.3005-10.149z" fill="#637381"/><path d="m5.99095 372.666c-4.44527-13.993-11.03774-36.112 4.41505-40.534 15.4529-4.422 50.7736-13.265 60.3397 0 9.566 13.266 12.7544 50.852-3.1885 53.8-15.9436 2.948-35.8115 2.948-35.8115 2.948s-20.6038 0-25.75475-16.214z" fill="#454f5b"/><path d="m214.237 229.938h39l-2.698 30.461-39.884-6.878z" fill="#fdab76"/><path d="m253.237 127.744 58.377 9.826-11.774 46.196-57.611-14.752z" fill="#fdab76"/><path d="m215.954 95.8073 76.528-27.0221-19.622-68.7852-80.453 41.7624z" fill="#fdab76"/><path d="m292.087 67.3982-44.872-20.0082 26.069-45.9013-.425-1.4887-1.8.93449-29.166 51.35421-47.982-11.3075-1.504.7812.551 1.2654 40.086 9.4466-17.699 41.9356.609 1.3973 1.408-.4975 17.862-42.3217 7.771 1.8314 3.123-5.4986 44.849 19.9986 1.515-.5343z" fill="#b3200e"/><path d="m309.699 137.247-36.468 17.113-18.466-26.36-1.528-.257-.372 1.393 14.663 20.931-24.859 17.294-.44 1.653 1.413.362 25.154-17.499 3.693 5.272 9.459-4.438 16.441 30.683 1.451.371.404-1.584-16.295-30.41 27.312-12.815.353-1.386z" fill="#b3200e"/><path d="m251.735 229.938-21.958 12.37-14.41-12.37h-1.13l-.131.859 11.828 10.153-15.12 11.524-.159 1.048.991.171 15.43-11.762 2.526 2.168 3.971-2.237 15.823 18.341 1.142.197.092-1.022-15.748-18.254 18.276-10.295.079-.891z" fill="#b3200e"/></g></svg>