<svg fill="none" height="467" viewBox="0 0 467 467" width="467" xmlns="http://www.w3.org/2000/svg"><path d="m447.692 200.807c-11.976-78.422-61.099-174.7619-158.139-184.843 0 0-73.677-8.96178-146.302 4.6199-43.111 8.0607-80.9079 32.0578-104.8249 66.5456-23.917 34.4875-31.90555 76.5435-22.2107 116.6335 6.298 26.041 10.5536 52.993 9.3857 79.745-2.0407 46.571-.8634 90.041 44.3318 117.815 40.3561 24.803 91.1421 46.671 139.5951 50.501 32.927 2.605 69.855-1.609 101.589-10.181 161.733-43.673 148.555-162.424 136.575-240.836z" fill="#919eab" fill-opacity=".08"/><path d="m421.274 119.422-160.462-93.6841-5.111-2.9354 1.623-1.6907-8.922-2.5351-12.58 5.9965-190.071 94.9458h-.303v249.639l10.5269 1.256 4.32-1.354-1.2401-1.384 121.2862-11.933 12.216-1.203 109.187-10.751 11.028-1.087 98.729-9.732 9.998-.994v-212.559zm-172.866-87.4929 151.239 87.5239-324.7109.407zm-189.4129 323.1059v-221.809l121.3759-.785v211.315zm133.8389-12.452v-210.208l108.913-.726v200.717zm218.37-20.465-98.078 9.249v-199.775l98.078-.65z" fill="#919eab" opacity=".48"/><path d="m429.085 333.156-372.2579 37.023v-12.625l372.2579-35.181z" fill="#dfe3e8"/><path d="m69.8311 368.88-13.004 1.299v-242.861l13.004-.053z" fill="#dfe3e8"/><path d="m202.045 355.686-12.463 1.235v-230.172l12.463-.044z" fill="#dfe3e8"/><path d="m320.713 343.863-10.838 1.117v-218.725l10.838-.05z" fill="#dfe3e8"/><path d="m429.085 333.158-9.211.958v-208.312l9.211-.044z" fill="#dfe3e8"/><path d="m269.692 28.376-12.357 6.3042-195.0437 99.4688-5.5633-11.287 188.121-95.4248 12.486-6.2932z" fill="#dfe3e8"/><path d="m429.215 121.78-4.59 9.884-167.29-96.9838-12.486-7.243 12.486-6.2932 12.357 7.232z" fill="#dfe3e8"/><path d="m429.085 132.734-372.2579 2.752v-12.626l372.2579-.908z" fill="#dfe3e8"/><g fill="#c4cdd5"><path d="m199.447 352.701c1.453-1.454 1.453-3.81 0-5.264-1.454-1.453-3.81-1.453-5.264 0-1.453 1.454-1.453 3.81 0 5.264 1.454 1.453 3.81 1.453 5.264 0z"/><path d="m68.0595 133.057c1.4535-1.454 1.4535-3.81 0-5.264-1.4535-1.453-3.8101-1.453-5.2636 0-1.4535 1.454-1.4535 3.81 0 5.264 1.4535 1.453 3.8101 1.453 5.2636 0z"/><path d="m200.431 131.273c.472-2.001-.767-4.005-2.767-4.477-2.001-.473-4.006.766-4.478 2.767s.767 4.005 2.768 4.477c2 .473 4.005-.766 4.477-2.767z"/><path d="m318.227 131.067c1.453-1.453 1.453-3.81 0-5.263-1.454-1.454-3.811-1.454-5.264 0-1.454 1.453-1.454 3.81 0 5.263 1.453 1.454 3.81 1.454 5.264 0z"/><path d="m425.725 131.067c1.453-1.453 1.453-3.81 0-5.263-1.454-1.454-3.81-1.454-5.264 0-1.453 1.453-1.453 3.81 0 5.263 1.454 1.454 3.81 1.454 5.264 0z"/><path d="m259.169 31.5307c1.453-1.4535 1.453-3.8101 0-5.2636-1.454-1.4535-3.81-1.4535-5.264 0-1.453 1.4535-1.453 3.8101 0 5.2636 1.454 1.4535 3.81 1.4535 5.264 0z"/><path d="m66.3979 362.851c.4722-2.001-.7668-4.005-2.7674-4.478-2.0006-.472-4.0052.767-4.4774 2.768-.4722 2 .7668 4.005 2.7674 4.477s4.0052-.767 4.4774-2.767z"/><path d="m319.207 339.627c.473-2-.766-4.005-2.767-4.477s-4.005.767-4.477 2.768c-.473 2 .766 4.005 2.767 4.477s4.005-.767 4.477-2.768z"/><path d="m425.753 330.83c1.308-1.308 1.308-3.43 0-4.738-1.309-1.308-3.43-1.308-4.738 0-1.308 1.309-1.308 3.43 0 4.738s3.429 1.308 4.738 0z"/></g><path d="m354.646 258.695c-7.404-2.3-12.961-7.419-17.075-13.186-8.102-11.375-10.607-25.308-10.607-25.308l2.251-3.611 4.466-7.147c3.811 15.371 33.506 27.718 33.506 27.718 1.926 6.567 9.455 28.371-12.541 21.534z" fill="#fdab76"/><path d="m357.028 252.399s-10.32-1.294-19.457-6.898c-8.102-11.375-10.607-25.308-10.607-25.308l2.251-3.61c2.306 1.56 5.742 4.762 7.064 10.464 2.053 8.924 12.544 5.734 20.757 12.921 8.213 7.186-.008 12.431-.008 12.431z" fill="#b3200e" opacity=".24"/><path d="m300.798 197.301s-10.423 9.118-5.023 11.444l8.79 3.796 2.099-14.375z" fill="#770508"/><path d="m335.143 209.332-7.14 36.423-31.839-13.733 8.5-35.836z" fill="#770508"/><path d="m250.044 152.316-.136.315c-.711 1.648.049 3.561 1.698 4.272l26.078 11.248c1.649.711 3.562-.049 4.273-1.698l.135-.314c.711-1.649-.049-3.562-1.697-4.273l-26.079-11.247c-1.648-.711-3.561.049-4.272 1.697z" fill="#770508"/><path d="m279.658 161.428-3.072 7.122c-1.023 2.372.071 5.124 2.442 6.146l.211.091c2.371 1.023 5.123-.07 6.146-2.442l3.071-7.122c1.023-2.372-.07-5.123-2.442-6.146l-.21-.091c-2.372-1.023-5.123.071-6.146 2.442z" fill="#770508"/><path d="m277.968 177.824c-.55 1.204-.666 2.561-.329 3.841s1.107 2.404 2.178 3.181c4.396 3.152 8.83 6.262 13.303 9.329 5.089-12.415 10.178-24.831 15.266-37.248-4.964-.861-9.927-1.775-14.891-2.742-1.266-.244-2.578-.052-3.722.543s-2.053 1.559-2.581 2.736c-3.071 6.785-6.146 13.571-9.224 20.36z" fill="#fa541c"/><path d="m308.469 156.835-15.992 37.076 42.733 18.431c2.063.89 4.281 1.365 6.528 1.397 2.247.033 4.478-.377 6.566-1.207 2.089-.83 3.993-2.063 5.605-3.628 1.612-1.566 2.899-3.434 3.789-5.497l2.44-5.652c1.796-4.166 1.864-8.875.189-13.092s-4.957-7.595-9.123-9.393z" fill="#fdab76"/><path d="m312.111 169.118-.068.159c-.655 1.518.045 3.279 1.563 3.934l22.782 9.825c1.518.655 3.279-.045 3.934-1.563l.068-.158c.655-1.519-.045-3.28-1.563-3.935l-22.782-9.825c-1.518-.655-3.279.045-3.934 1.563z" fill="#b3200e" opacity=".24"/><path d="m332.871 252.324c.356-.825.546-1.712.559-2.611s-.151-1.791-.483-2.627c-.332-.835-.825-1.597-1.452-2.241-.626-.645-1.373-1.16-2.199-1.516l-36.447-15.719c-.825-.356-1.712-.547-2.611-.56-.898-.013-1.791.151-2.626.483s-1.597.825-2.242 1.451c-.644.626-1.16 1.373-1.515 2.199-.357.825-.547 1.712-.56 2.611s.151 1.791.483 2.626c.332.836.826 1.597 1.452 2.242s1.374 1.16 2.199 1.515l36.447 15.72c.825.356 1.712.546 2.611.559.899.014 1.791-.15 2.626-.482.836-.332 1.597-.825 2.242-1.451s1.16-1.374 1.516-2.199z" fill="#fa541c"/><path d="m352.19 403.426.545 8.718s-1.239 1.311-3.62.399l-2.601-8.562z" fill="#fdbab9"/><path d="m351.105 409.839s4.27 1.742 3.441 3.631c-.444 1.014-1.984 3.304-3.315 5.208-.601.86-1.457 1.509-2.447 1.854-.991.346-2.065.37-3.07.071-.692-.208-1.398-.41-2.025-.57-.28-.073-.53-.235-.712-.461-.182-.225-.287-.504-.299-.793-.012-.29.069-.576.231-.816.163-.241.398-.422.672-.519.566-.208 1.15-.366 1.744-.471 1.562-.241 3.714-3.933 3.965-5.414.251-1.48 1.815-1.72 1.815-1.72z" fill="#1c0f79"/><path d="m361.362 319.747c-6.29 2.171-29.548 10.963-34.73 31.128-.276 1.077-.985 4.071-1.017 8.96-.133 20.354 11.703 37.581 20.31 47.602l8.142-.136c1.355-5.195 2.598-12.965.652-21.707-2.983-13.364-10.701-16.828-9.212-23.39 2.705-11.91 30.36-10.108 32.965-20.773.942-3.849-1.127-10.387-17.11-21.684z" fill="#4027b6"/><path d="m439.154 441.61-11.809-.275c-.161-.002-.317-.054-.447-.149-.131-.094-.229-.226-.282-.378-.052-.152-.057-.316-.013-.471.043-.155.134-.292.258-.394.309-.274.67-.481 1.062-.608.393-.127.807-.172 1.217-.131 2.245.234 7.286-2.908 9.576-2.234.747.22 1.355 1.978 1.666 2.463.139.216.216.466.224.723s-.055.512-.181.736c-.127.224-.312.409-.536.536-.224.126-.478.189-.735.182z" fill="#1c0f79"/><path d="m433.848 432.533 4.867 4.433c-.612.395-1.296.663-2.014.788-.717.124-1.452.103-2.16-.063l-4.972-3.422z" fill="#fdbab9"/><path d="m340.497 372.264c-3.262-8.807-7.172-19.666-2.706-25.831 4.521-6.24 14.426-.973 24.363-6.001 3.686-1.865 7.473-5.202 10.624-11.241 5.577 5.758 6.336 9.623 5.695 12.244-2.606 10.665-30.26 8.863-32.965 20.773-1.49 6.558 6.234 10.023 9.211 23.389 1.674 7.516.988 14.307-.097 19.368-1.025-5.039-2.626-9.943-4.772-14.616-3.563-7.725-5.917-8.808-9.353-18.085z" fill="#1c0f79" opacity=".24"/><path d="m357.758 317.203c3.828 17.581 11.986 44.413 30.674 72.426 11.376 17.038 25.173 32.328 40.957 45.388 2.362.711 4.905.516 7.13-.548-1.144-7.035-3.392-13.845-6.66-20.179-7.516-14.466-14.208-14.001-21.757-26.77-5.529-9.348-7.326-19.28-10.92-39.142-2.777-15.336-2.778-19.003-6.579-23.4-7.684-8.896-22.113-8.997-32.845-7.775z" fill="#4027b6"/><path d="m372.18 225.269c-1.289-2.54-1.821-2.526-2.138-3.866-.722-3.053 1.141-6.934 2.722-6.987 1.019-.035 1.099 1.548 3.259 4.017 2.642 3.023 4.238 2.626 5.798 5.251.365.614 2 3.376.994 5.439-1.284 2.633-6.348 3.049-8.464 1.019-1.005-.962-.583-1.744-2.171-4.873z" fill="#770508"/><path d="m375.975 228.009s-.904 4.827-.26 8.751c.582 3.546 7.152 7.23 8.412 8.287 1.261 1.056-3.34 2.197-7.56 1.651-4.219-.546-15.77-4.249-17.526-6.309-1.757-2.059 2.04-1.045 5.239-1.434 3.2-.39 6.247-5.746 6.339-8.477.093-2.732 5.356-2.469 5.356-2.469z" fill="#fdbab9"/><path d="m374.6 231.609s-3.231 1.413-6.091-.87c-2.562-2.041 1.246-8.34 3.852-8.42.87-.027 2.138.595 2.889 1.507.441.538.47.896 1.208 1.761.682.799.983.871 1.085 1.256.13.485-.093 1.295-1.846 2.687.874-.157 1.628.07 1.92.58.092.184.131.391.113.596-.096.951-1.352 1.391-3.13.903z" fill="#fdbab9"/><path d="m303.618 214.824s-1.956-.273-1.345-4.009c.471-2.928.116-3.914-.576-3.394-.693.519-.785 2.212-.785 2.212s-2.523-2.151-3.56-4.969c-1.038-2.817-1.705-.446-1.928.964s1.483 5.783 2.447 6.593 2.372 4.411 2.372 4.411z" fill="#fdbab9"/><path d="m298.406 215.822 6.676-4.675c2.706 16.64 8.862 23.175 14.087 26.033 12.61 6.892 23.861-5.39 48.002-.378 6.651 1.382 18.244 3.954 24.672 13.43 1.691 2.491 2.292 4.376 5.097 22.243 3.587 22.839 3.716 26.824 3.209 31.742-.925 9-1.485 14.455-5.636 19.282-11.018 12.817-34.439 6.208-37.374 5.337-5.425-1.606-13.855-4.103-17.205-11.272-1.57-3.372-1.413-6.455 1.014-18.789 4.797-24.43 5.411-26.013 4.072-28.687-4.521-9.028-18.837-3.862-30.94-12.259-7.073-4.907-15.046-15.605-15.674-42.007z" fill="#fdab76"/><path d="m368.114 325.576c-2.355-4.843.813-9.306-2.669-15.128-4.438-7.419-12.422-4.899-15.425-10.381-5.137-9.376 15.084-22.447 10.975-37.376-1.961-7.125-8.811-12.283-14.535-14.238-12.704-4.337-21.014 6.72-32.926 3.264-2.825-.82-6.062-2.512-9.34-6.042 2.896 6.111 6.494 9.803 9.89 12.158 12.098 8.396 26.419 3.23 30.94 12.258 1.339 2.669.725 4.257-4.072 28.687-2.422 12.334-2.59 15.417-1.014 18.789 3.35 7.169 11.773 9.667 17.204 11.273 1.608.47 9.353 2.668 17.842 2.453-3.786-1.538-5.826-3.579-6.87-5.717z" fill="#b3200e" opacity=".24"/><path d="m352.832 329.189s-21.108-6.436-13.249-40.698c5.433-18.401 3.08-17.26 3.08-17.26s29.143 5.601 33.843 0-11.783-31.328-17.914-35.574c0 0 4.803-1.675 8.575 1.146 3.773 2.821 18.828 32.705 23.162 32.932 4.334.228-1.924-21.65-4.612-25.766 0 0 5.578 3.028 8.289 11.773 2.711 8.746 9.249 62.582 3.128 69.199-6.12 6.616-20.217 7.756-20.217 7.756z" fill="#fa541c"/><path d="m140.075 302.125h-27.38c-2.804 0-5.18 1.697-6.009 4.111l-17.8891 52.735v71.888l33.7811-3.733 4.989-.554 31.425-3.465-.802-67.669z" fill="#fdab76"/><path d="m147.334 306.097c-.798-2.327-3.091-3.972-5.741-3.972h-22.633c-2.772 0-5.153 1.689-5.965 4.082l-17.6537 52.361.0801 71.501 33.3486-3.653 4.984-.538 31.238-3.436-.846-67.215z" fill="#fdab76"/><path d="m128.356 314.489v-.535c-.088-.053-.186-.084-.288-.091-2.133-.17-3.838 2.534-3.838 6.044s1.688 6.481 3.823 6.627c.101.011.204.001.303-.028v-.236l141.426 9.71v-10.289z" fill="#fdab76"/><path d="m128.357 314.49v-.536c-.088-.052-.186-.084-.288-.091-2.133-.169-3.838 2.534-3.838 6.044s1.688 6.481 3.823 6.627c.101.011.204.001.303-.028v-.235l141.426 9.709v-10.289z" fill="#b3200e" opacity=".24"/><path d="m296.871 399.415-137.091-15.897v-30.678l137.091 16.222z" fill="#fdab76"/><path d="m296.871 373.229-137.091-16.177v-4.212l137.091 16.222z" fill="#fee9d1" opacity=".48"/><path d="m232.059 440.169-11.185-6.308-.092-12.838-11.185-6.309-.075-12.842-11.197-6.315-.093-12.836-11.059-6.319.011-.089-.063-.028-.034-.027.08-13.12-10.678-6.595-.089-.039-.423.03-.089.168-.149-12.441-10.73-5.969-.105-.139-.081-12.724-10.862-6.119-.339-.562-.083-12.453-10.626-5.998-.568-.967-.082-12.18-10.36-5.849-.84-1.406-.077-11.89-10.131-5.717-.609-1.045 1.411-.34 43.431-10.702 13.614-3.352 73.244 179.131-4.706 3.367z" fill="#c4cdd5"/><path d="m247.24 429.347-82.152-179.146 13.614-3.352 73.244 179.131z" fill="#919eab" opacity=".48"/><path d="m179.686 345.626c-.621.905-.858 2.021-.658 3.101.201 1.08.822 2.036 1.727 2.658l.616.422c.905.622 2.021.859 3.101.659 1.08-.201 2.036-.822 2.658-1.728l47.407-69.03c.622-.906.859-2.021.658-3.101-.2-1.08-.821-2.037-1.727-2.659l-.615-.423c-.449-.309-.953-.525-1.485-.638-.533-.113-1.082-.12-1.617-.021-.535.1-1.045.304-1.501.6-.456.297-.849.681-1.157 1.129z" fill="#1c0f79"/><path d="m227.878 265.341 13.803-13.319c.299-.287.687-.462 1.1-.495s.824.078 1.164.314l5.011 3.454 2.77 1.904c.338.233.586.574.703.968.116.393.094.814-.062 1.194l-7.48 17.666c-.232.548-.633 1.008-1.145 1.312l-4.296 2.512c-1.403.835-3.116.709-4.461-.215l-2.346-1.611-2.276-1.57-2.309-1.585c-1.345-.923-2.077-2.479-1.8-4.081l.827-4.947c.096-.573.376-1.1.797-1.501z" fill="#1c0f79"/><path d="m182.214 244.056-22.699-57.714c-.424-1.071-1.173-1.983-2.143-2.605-.969-.622-2.11-.924-3.26-.862l-4.675.26c-.151.006-.301.021-.451.042-1.118.154-2.161.649-2.987 1.418-.826.77-1.393 1.776-1.625 2.881l-1.142 5.434c-.21.984-.685 1.891-1.374 2.624s-1.565 1.263-2.534 1.533l-34.792 9.59c-3.681 1.016-6.8091 3.451-8.6967 6.771-1.8877 3.32-2.381 7.254-1.3718 10.937l7.5715 27.617c.831 3.042 2.757 5.669 5.407 7.378l16.105 10.4c1.103.712 2.397 1.073 3.711 1.034.697-.018 1.386-.15 2.04-.391l49.082-17.854c.816-.297 1.565-.755 2.201-1.346.637-.591 1.148-1.303 1.506-2.094.357-.792.552-1.647.573-2.515.022-.869-.131-1.732-.448-2.541zm-23.442-7.863-34.185 13.483c-.499.198-1.035.29-1.572.272-.537-.017-1.065-.145-1.55-.375-.486-.231-.919-.558-1.273-.963-.354-.404-.621-.877-.785-1.389l-7.535-23.528c-.157-.491-.216-1.009-.173-1.524.044-.514.188-1.015.425-1.474s.562-.866.957-1.199c.395-.332.852-.584 1.344-.74l35.415-11.216c.497-.157 1.021-.214 1.54-.166.52.047 1.024.198 1.485.442.46.245.867.579 1.197.983s.577.869.725 1.369l6.296 21.263c.279.939.196 1.948-.231 2.829-.428.882-1.17 1.571-2.08 1.933z" fill="#fdab76"/><path d="m150.569 189.783c-1.448 5.965-1.989 13.406-11.017 13.563s-40.0966 7.748-39.7387 15.335c.3577 7.587 6.5017 36.18 10.8317 37.778 0 0 16.142 11.146 16.608 14.338-1.313.039-2.607-.322-3.711-1.034l-16.1-10.403c-2.65-1.709-4.576-4.336-5.407-7.378l-7.5715-27.617c-1.0092-3.683-.5159-7.616 1.3718-10.936 1.8876-3.32 5.0157-5.756 8.6967-6.772l34.792-9.59c.969-.27 1.845-.8 2.534-1.533s1.164-1.64 1.374-2.624l1.142-5.434c.232-1.105.799-2.111 1.625-2.88.826-.77 1.869-1.265 2.987-1.418 1.262 1.659 2.239 3.907 1.583 6.605z" fill="#b3200e" opacity=".24"/><path d="m171.616 334.784-2.126 3.096c-1.296 1.886-.817 4.465 1.069 5.76l21.53 14.786c1.886 1.295 4.465.817 5.76-1.069l2.126-3.097c1.296-1.886.817-4.465-1.069-5.76l-21.53-14.786c-1.886-1.295-4.465-.816-5.76 1.07z" fill="#b195fe"/><path d="m162.925 339.088-46.119 67.149c-1.237 1.818-1.705 4.052-1.3 6.213.405 2.162 1.649 4.075 3.46 5.322l22.479 15.437c1.811 1.243 4.042 1.717 6.202 1.316s4.072-1.643 5.316-3.454l46.118-67.149c.899-1.308 1.403-2.846 1.454-4.432.05-1.586-.356-3.153-1.17-4.515-.605-1.028-1.428-1.911-2.411-2.586l-22.478-15.439c-1.816-1.245-4.052-1.719-6.217-1.318-2.166.401-4.084 1.644-5.334 3.456z" fill="#b195fe"/><path d="m142.816 418.5c-.224.327-.381.694-.462 1.081-.082.387-.086.787-.013 1.175.073.389.221.76.438 1.091.216.331.495.617.822.84.326.223.693.38 1.08.461.387.082.786.086 1.175.013.388-.073.759-.221 1.09-.437s.616-.496.84-.822l38.216-55.642c.223-.326.38-.693.462-1.081.081-.387.086-.786.013-1.175s-.222-.759-.438-1.09c-.216-.332-.496-.617-.822-.84-.327-.224-.694-.381-1.081-.462-.387-.082-.786-.086-1.175-.013-.388.073-.759.221-1.09.438-.331.216-.616.495-.839.821z" fill="#4027b6"/><path d="m127.218 407.79c-.223.326-.38.693-.462 1.08-.081.387-.085.786-.013 1.175.073.388.222.759.438 1.09s.496.616.822.84c.326.223.693.381 1.079.463.387.082.786.087 1.175.015.388-.072.759-.22 1.09-.436.332-.215.618-.494.841-.82l38.224-55.652c.224-.327.381-.694.462-1.081.082-.387.086-.787.013-1.175-.073-.389-.221-.76-.438-1.091-.216-.331-.495-.617-.822-.84-.326-.223-.693-.38-1.08-.462-.387-.081-.786-.085-1.175-.012-.388.073-.759.221-1.09.437s-.616.495-.84.822z" fill="#4027b6"/><path d="m115.393 411.496c.081 1.249.445 2.463 1.064 3.551.619 1.087 1.477 2.02 2.509 2.728l22.479 15.437c1.811 1.244 4.042 1.717 6.202 1.316s4.072-1.643 5.316-3.454l46.118-67.148c.899-1.308 1.404-2.847 1.453-4.433.05-1.586-.358-3.154-1.174-4.515-2.295 5.089-5.406 12.663-10.613 15.453-4.968 2.659-13.64 10.103-16.461 20.308-2.82 10.205-13.413 29.523-23.868 31.978s-18.562 4.102-33.025-11.221z" fill="#4027b6" opacity=".32"/><path d="m231.305 402.272-136.5477-15.899v-30.676l136.5477 16.222z" fill="#fdab76"/><path d="m231.305 445.718-136.5477-15.431v-30.678l136.5477 15.758z" fill="#fdab76"/><path d="m282.663 311.34h-27.354c-2.807 0-5.228 1.895-6.058 4.45l-17.946 55.548v74.382l33.122-4.044 5-.606 31.18-3.814-.133-69.719z" fill="#fdab76"/><path d="m304.779 367.341.157 69.383-68.548 8.392-.011-74.044 17.865-55.303c.427-1.28 1.242-2.395 2.333-3.19 1.09-.794 2.401-1.229 3.75-1.243h22.663c2.65 0 4.841 1.833 5.615 4.292z" fill="#fdab76"/><g fill="#b3200e" opacity=".24"><path d="m231.305 376.085-136.5477-16.178v-4.21l136.5477 16.222z"/><path d="m231.305 420.128-136.5477-15.707v-4.812l136.5477 15.758z"/><path d="m277.877 330.188c0 3.121-1.618 5.689-3.631 5.734-2.012.046-3.668-2.461-3.671-5.604-.004-3.142 1.635-5.707 3.656-5.732 2.02-.025 3.641 2.483 3.646 5.602z"/><path d="m304.781 367.89.157 68.839-65.569 8.022c-.132-9.668 2.075-20.012 11.426-26.085 7.18-4.67 17.111-2.796 23.376-8.281 5.034-4.406 5.158-11.716 6.368-17.449 2.71-12.751 13.844-14.557 22.17-22.784.587-.579 1.003-1.342 2.072-2.262z"/></g><path d="m400.752 122.39c3.719 1.884 8.391.157 10.436-3.873 2.045-4.029.686-8.822-3.033-10.71-.191-.097-.389-.179-.585-.257.683-2.199 1.205-4.445 1.56-6.721.213 0 .427 0 .645-.023 4.238-.379 7.61-4.2778 7.521-8.7093-.09-4.4314-3.6-7.717-7.849-7.3386-.221.0204-.44.0549-.656.0926-.435-2.1823-1.037-4.3277-1.802-6.4172.194-.1131.389-.2324.579-.3642 3.629-2.5431 4.789-7.5632 2.592-11.2113-2.198-3.6482-6.923-4.5445-10.554-2.0015-.185.1303-.361.2716-.534.4144-1.443-1.5949-3.018-3.0652-4.709-4.3953.119-.1962.237-.394.342-.6028 2.041-4.0265 4.717-8.4249.969-10.2553-8.67-4.2384-12.39-.6091-14.442 3.4174-.107.2088-.198.4207-.286.6279-2.071-.5789-4.187-.9827-6.326-1.2072.014-.2229.024-.4473.021-.675-.09-4.4314 1.226-6.8284-3.033-6.9069-9.288-.1806-12.422 3.8506-12.332 8.2805 0 .2323.023.4584.047.6844-2.142.6106-4.233 1.3863-6.254 2.3201-.096-.1978-.196-.394-.314-.5855-2.198-3.6481-6.923-4.5523-10.554-2.0014-3.63 2.5508-4.786 7.5631-2.587 11.205.112.1868.236.361.361.5337-1.626 1.6295-3.132 3.3761-4.503 5.2257-.181-.113-.363-.2229-.556-.3139-3.719-1.8837-8.39-.157-10.434 3.8726s-.688 8.8205 3.031 10.709c.193.0989.389.1805.586.259-.684 2.1968-1.205 4.4408-1.561 6.7139-.213 0-.427 0-.643.0235-4.239.3783-7.612 4.2761-7.523 8.7077.09 4.431 3.601 7.717 7.849 7.339.223-.019.44-.054.656-.093.441 2.182 1.048 4.328 1.818 6.417-.196.115-.389.232-.579.366-3.631 2.543-4.791 7.561-2.593 11.211 2.197 3.65 9.476 5.337 13.107 2.801.185-.132-2.198-1.071-2.02-1.214 1.444 1.595 3.019 3.065 4.709 4.396-.119.196-.237.395-.342.604-2.041 4.026-.688 8.82 3.031 10.709 3.719 1.888 8.391.157 10.436-3.873.105-.209.196-.42.284-.628 2.071.58 4.187.984 6.326 1.207-.014.225-.023.449-.019.677.088 4.43 3.6 7.717 7.849 7.339 4.25-.379 7.61-4.278 7.521-8.709 0-.231-.024-.459-.047-.683 2.141-.611 4.232-1.386 6.254-2.32.096.197.196.394.314.584 2.197 3.649 6.922 4.552 10.552 2.001 3.629-2.551 4.791-7.561 2.593-11.211-.113-.185-.237-.361-.363-.534 1.627-1.63 3.133-3.376 4.506-5.226.163.113.339.223.538.322zm-46.35.587c-13.5-6.855-18.431-24.2637-11.008-38.8845 7.424-14.6209 24.387-20.9141 37.888-14.0589 13.502 6.8552 18.431 24.2655 11.008 38.8844-7.424 14.62-24.388 20.914-37.888 14.059z" fill="#4027b6"/><path d="m409.775 100.814c4.239-.378 7.61-4.2774 7.521-8.7088-.09-4.4315-3.6-7.717-7.849-7.3387-.221.0204-.439.0549-.656.0926-.434-2.1839-1.037-4.3309-1.802-6.4219.194-.113.389-.2323.579-.3642 3.629-2.543 8.12-8.6887 5.559-12.0872-4.867-6.4596-9.89-3.6639-13.521-1.1208-.185.1303-.361.2715-.534.4144-1.443-1.595-3.018-3.0653-4.709-4.3954.119-.1962.237-.394.342-.6028.527-1.0201.841-2.1371.922-3.2825.081-1.1455-.072-2.2954-.451-3.3796-3.507 6.1745-6.96 12.374-10.36 18.5987 10.772 7.8927 14.2 23.4476 7.467 36.7092-5.701 11.233-17.048 17.544-28.122 16.752-.495 1.281-.98 2.57-1.509 3.838-1.435 3.443-3.066 6.815-4.698 10.184 1.026.193 2.057.344 3.092.453-.014.225-.023.449-.019.677.088 4.43 2.779 8.196 10.469 7.787 4.253-.226 4.984-4.726 4.895-9.158 0-.23-.024-.458-.046-.682 2.141-.612 4.231-1.388 6.253-2.321.095.198.196.394.314.584 2.197 3.65 9.823 5.199 13.454 2.656s1.884-8.216-.314-11.864c-.113-.188-.237-.363-.362-.535 1.627-1.63 3.132-3.377 4.505-5.226.179.113.361.223.554.322 3.719 1.884 8.39.157 10.436-3.873 2.045-4.029.686-8.822-3.033-10.71-.192-.098-.389-.179-.586-.258.684-2.199 1.206-4.445 1.561-6.72.216-.002.43-.005.648-.019z" fill="#1c0f79"/><path d="m404.753 122.846c3.718 1.883 8.39.157 10.435-3.871 2.046-4.029.686-8.823-3.032-10.711-.192-.097-.39-.181-.586-.259.684-2.199 1.205-4.445 1.56-6.72.214 0 .427 0 .646-.024 4.238-.378 7.61-4.2758 7.52-8.7072-.089-4.4315-3.599-7.717-7.849-7.3387-.221.0188-.439.0549-.656.0926-.439-2.1827-1.046-4.3281-1.816-6.4172.195-.1146.389-.2323.579-.3642 3.63-2.543 4.79-7.5631 2.592-11.2113-2.198-3.6481-6.923-4.5444-10.553-2.0014-.186.1303-.362.27-.534.4128-1.444-1.5946-3.019-3.0649-4.71-4.3953.12-.1962.237-.394.343-.6028 2.04-4.0265.687-8.8221-3.032-10.7105-3.718-1.8885-8.39-.157-10.434 3.8726-.107.2088-.198.4207-.285.6279-2.071-.5796-4.188-.9834-6.327-1.2072.014-.2244.024-.4489.021-.675-.09-4.4314-3.601-7.7169-7.849-7.3386s-7.61 4.276-7.521 8.7075c0 .2323.024.4583.047.6828-2.137.6152-4.223 1.3934-6.241 2.328-.096-.1962-.196-.394-.314-.584-2.198-3.6481-6.924-4.5444-10.554-2.0014-3.629 2.543-4.791 7.5631-2.591 11.2113.113.1868.235.361.361.5337-1.627 1.6295-3.132 3.3761-4.504 5.2257-.18-.113-.362-.2229-.556-.3139-3.718-1.8837-8.39-.157-10.434 3.871-2.044 4.0281-.687 8.8221 3.031 10.7106.194.0973.39.1805.586.259-.684 2.1988-1.205 4.4449-1.56 6.7201-.214 0-.427 0-.646.0236-4.238.3783-7.61 4.276-7.52 8.7075.089 4.431 3.601 7.717 7.848 7.339.223-.019.44-.055.657-.093.44 2.183 1.048 4.328 1.817 6.417-.196.115-.389.233-.579.366-3.631 2.543-4.791 7.562-2.593 11.21s6.924 4.544 10.553 2.001c.187-.13.362-.27.534-.413 1.444 1.595 3.02 3.065 4.71 4.396-.12.196-.238.394-.343.602-2.04 4.027-.687 8.823 3.032 10.711 3.718 1.888 8.39.157 10.435-3.873.105-.208.197-.42.284-.628 2.071.58 4.188.984 6.327 1.208-.015.224-.024.449-.019.675.088 4.431 3.599 7.717 7.849 7.338 4.249-.378 7.61-4.276 7.52-8.707 0-.233-.023-.459-.047-.683 2.138-.615 4.225-1.393 6.243-2.328.096.198.196.394.314.584 2.198 3.648 6.923 4.552 10.552 2.001s4.791-7.561 2.593-11.211c-.113-.187-.237-.361-.362-.534 1.627-1.629 3.133-3.376 4.505-5.225.177.1.359.216.553.314zm-46.359.588c-13.5-6.855-18.43-24.2637-11.007-38.8845s24.386-20.914 37.888-14.0588c13.501 6.8551 18.431 24.2639 11.007 38.8843-7.423 14.621-24.385 20.914-37.888 14.059z" fill="#754ffe"/></svg>