<svg fill="none" height="467" viewBox="0 0 467 467" width="467" xmlns="http://www.w3.org/2000/svg"><path d="m197.293 312.585-9.475 84.96h109.905l-14.315-84.96z" fill="#b3200e"/><path d="m12.6709 103.265v194.577c-.0005 7.697 3.0057 15.09 8.3777 20.603 5.372 5.512 12.6848 8.708 20.3794 8.906 71.07 1.832 319.636 6.277 387.288 5.279 5.597-.084 10.945-2.326 14.929-6.257s6.296-9.249 6.455-14.844c1.305-45.203 3.423-153.901-4.417-204.366-.798-5.149-3.369-9.858-7.271-13.3123-3.901-3.4543-8.887-5.4369-14.095-5.6049-59.548-1.9042-323.045-7.9538-390.6667-6.4348-5.6071.1243-10.9426 2.4393-14.8639 6.4492s-6.1165 9.3958-6.1155 15.0048z" fill="#fa541c"/><path d="m24.8806 102.318v184.862c-.0001 4.491 1.7664 8.802 4.9178 12.001 3.1515 3.2 7.4351 5.031 11.9257 5.099l377.2619 4.66c2.201.033 4.387-.371 6.431-1.188 2.044-.818 3.905-2.033 5.476-3.575s2.821-3.38 3.677-5.409c.855-2.028 1.3-4.206 1.308-6.407l.631-183.212c.014-3.185-1.222-6.249-3.443-8.532-2.221-2.2839-5.248-3.6054-8.433-3.681l-386.2371-7.8041c-1.7589-.0433-3.5088.2658-5.1465.909s-3.1302 1.6076-4.3896 2.8363c-1.2594 1.2288-2.2602 2.697-2.9436 4.3184s-1.0355 3.3634-1.0356 5.1224z" fill="#fee9d1"/><path d="m235.881 325.139c-6.357-.114-6.355-9.561 0-9.67 6.352.111 6.352 9.557 0 9.67z" fill="#fee9d1"/><path d="m321.395 414.929h-160.851c-4.367 0-7.652-3.109-6.808-6.452 1.63-5.024 1.12-12.4 8.593-12.52l155.069-4.834c3.35-.105 6.318 1.673 7.048 4.224l3.72 12.993c.968 3.383-2.329 6.589-6.771 6.589z" fill="#770508"/><g fill="#754ffe"><path d="m361.281 23.5365c2.405.1138 4.834.3337 7.213.6534.582.0679 1.168-.0956 1.631-.4554.463-.3597.766-.8869.844-1.468s-.075-1.1697-.427-1.6389c-.351-.4693-.873-.7817-1.453-.87-2.507-.3368-5.063-.5677-7.596-.6909-2.915-.1232-3.135 4.3169-.212 4.4698z"/><path d="m298.637 43.8167c-.411-.428-.974-.6755-1.567-.6881-.593-.0125-1.166.2108-1.594.621-1.828 1.753-3.603 3.6057-5.275 5.5053-.392.4455-.59 1.0283-.552 1.6203s.309 1.1446.755 1.5363c.445.3917 1.028.5904 1.62.5524.592-.0381 1.145-.3097 1.536-.7552 1.588-1.806 3.276-3.5652 5.01-5.2308.212-.2031.382-.446.5-.7148.118-.2689.182-.5583.188-.8519.007-.2936-.045-.5855-.152-.8591-.106-.2736-.266-.5235-.469-.7354z"/><path d="m271.218 94.3534c-.588-.079-1.182.0782-1.654.4372s-.782.8905-.863 1.4779c-.342 2.5094-.577 5.0635-.702 7.5925-.02.296.019.594.115.875.096.282.247.541.445.763.197.222.437.403.705.531.268.129.559.203.856.217.297.015.594-.03.874-.131.279-.102.536-.258.754-.46s.394-.445.518-.715c.123-.271.191-.563.2-.861.118-2.401.341-4.8342.666-7.2095.08-.5875-.077-1.1827-.436-1.6547s-.89-.7823-1.478-.8624z"/><path d="m285.783 58.4625c-.245-.162-.52-.274-.808-.3296-.289-.0557-.585-.0539-.873.0052-.287.0591-.561.1744-.804.3392-.243.1649-.451.376-.612.6215-1.404 2.1163-2.717 4.3153-3.924 6.533-.15.2585-.246.5442-.283.8404-.038.2962-.015.5969.066.8843.08.2874.218.5557.404.7892.186.2334.417.4272.679.57s.55.2316.848.2612c.297.0297.597-.0005.882-.0886s.55-.2325.778-.4246c.229-.192.417-.4279.553-.6937 1.148-2.1085 2.403-4.1984 3.73-6.2102.326-.4952.443-1.0996.323-1.6804-.119-.5808-.464-1.0905-.959-1.4169z"/><path d="m342.339 24.7773c2.373-.4242 4.788-.7517 7.175-.9732.297-.0203.588-.0999.854-.2342.266-.1342.503-.3204.696-.5474.193-.2271.339-.4906.429-.7749s.122-.5837.095-.8806c-.028-.2969-.114-.5854-.255-.8484-.14-.2629-.332-.4951-.564-.6829-.231-.1878-.498-.3274-.784-.4105-.287-.0832-.587-.1082-.883-.0737-2.519.2324-5.061.5786-7.556 1.0231-2.868.5209-2.089 4.908.793 4.4027z"/><path d="m276.486 75.5861c-.555-.2089-1.17-.1889-1.71.0555-.54.2445-.961.6935-1.17 1.2483-.892 2.369-1.694 4.8066-2.382 7.2442-.154.5685-.077 1.1747.213 1.687.291.5123.772.8893 1.338 1.0493.567.16 1.174.0899 1.69-.1949.515-.2848.897-.7615 1.064-1.3265.653-2.3175 1.414-4.6319 2.261-6.8824.209-.5549.189-1.17-.056-1.7102-.244-.5401-.693-.9611-1.248-1.1703z"/><path d="m270.279 113.81c-.292.026-.577.109-.837.246-.261.136-.491.322-.68.548-.188.225-.33.486-.418.766-.087.28-.119.575-.092.868.226 2.514.566 5.056 1.008 7.553.107.581.439 1.095.924 1.432.485.336 1.083.467 1.665.364.581-.103 1.098-.431 1.438-.914.34-.482.475-1.08.377-1.662-.42-2.373-.743-4.788-.959-7.174-.026-.292-.11-.576-.246-.837-.136-.26-.322-.491-.547-.679s-.485-.33-.765-.418-.575-.119-.868-.093z"/><path d="m306.939 39.7857c2.292-1.2851 4.385-3.0319 6.706-4.306.257-.1482.482-.3461.662-.5821.179-.236.31-.5055.385-.7926.075-.2872.092-.5863.05-.8801-.043-.2937-.143-.5761-.295-.8307-.152-.2547-.354-.4764-.593-.6525-.239-.176-.51-.3027-.798-.3727-.289-.0701-.588-.0821-.881-.0353s-.574.1515-.826.3079c-2.172 1.2991-4.314 2.7089-6.366 4.189-2.046 1.3864-.346 4.7349 1.956 3.9551z"/><path d="m323.91 30.2432c2.299-.9358 4.64-1.8513 7.018-2.6092 2.749-.8999 1.436-5.0952-1.335-4.267-2.427.7798-4.846 1.6859-7.19 2.6746-2.567 1.0777-1.138 5.0079 1.507 4.2016z"/><path d="m276.496 134.405c-.936-2.807-5.147-1.465-4.256 1.374.78 2.416 1.69 4.889 2.668 7.219 1.154 2.701 5.217.874 4.108-1.779-.928-2.22-1.781-4.518-2.52-6.814z"/><path d="m386.228 26.157c.812-2.9632-2.984-3.1972-4.943-3.8818-.285-.0871-.584-.1164-.88-.0862-.297.0302-.584.1193-.846.262-.261.1428-.491.3364-.677.5694-.186.2329-.323.5007-.403.7874-.081.2868-.104.5868-.067.8824s.132.5809.281.8391c.148.2582.347.4841.584.6644.237.1804.508.3116.796.3859 2.006.4227 5.099 2.4033 6.155-.4226z"/><path d="m348.924 192.753c-2.356-.232-4.73-.566-7.055-.995-.583-.107-1.185.021-1.674.357-.488.337-.823.853-.93 1.436-.108.583.021 1.185.357 1.673s.853.823 1.436.931c2.72.38 5.552 1.143 8.293.965 2.276-.6 1.972-4.209-.427-4.367z"/><path d="m441.178 75.0995c1.3 2.6295 5.287.6769 4.023-1.9525-.528-1.0918-1.091-2.1913-1.668-3.2674-1.392-2.5686-5.314-.4678-3.94 2.1179.551 1.02 1.082 2.0649 1.585 3.102z"/><path d="m451.34 101.681c-.59.058-1.133.347-1.51.804-.377.458-.557 1.047-.501 1.637.231 2.358.362 4.75.392 7.113.021.584.269 1.136.692 1.539s.987.624 1.571.617 1.142-.243 1.555-.656c.412-.414.647-.972.653-1.556-.031-2.496-.17-5.008-.41-7.486-.028-.293-.114-.577-.252-.836-.138-.26-.325-.489-.552-.676s-.488-.327-.769-.413-.577-.115-.869-.087z"/><path d="m451.566 120.858c-.588-.073-1.181.09-1.649.453-.468.364-.772.899-.846 1.487-.295 2.339-.694 4.71-1.187 7.027-.075.292-.091.596-.045.894.045.298.15.583.308.839.159.257.367.478.613.652.247.173.525.295.82.359.294.063.599.066.894.008.296-.057.577-.174.827-.343.249-.169.462-.386.625-.639.164-.253.274-.537.325-.834.519-2.439.936-4.928 1.248-7.4.075-.588-.086-1.182-.448-1.652-.363-.469-.897-.775-1.485-.851z"/><path d="m436.471 157.724c-1.268 1.994-2.637 3.964-4.071 5.85-1.341 1.642.468 4.17 2.429 3.492 2.139-1.144 3.886-4.94 5.418-6.944 1.556-2.473-2.198-4.862-3.776-2.398z"/><path d="m410.219 183.946c-2.003 1.266-4.08 2.46-6.178 3.548-.52.277-.911.748-1.086 1.311s-.121 1.172.151 1.695.739.918 1.3 1.098c.562.181 1.171.132 1.697-.135 2.207-1.146 4.396-2.403 6.505-3.743 2.463-1.566.087-5.326-2.389-3.774z"/><path d="m424.791 172.29c-1.677 1.677-3.44 3.297-5.246 4.819-.444.386-.718.93-.763 1.516-.046.585.141 1.165.52 1.615.379.449.919.731 1.504.785.585.053 1.168-.125 1.622-.497 1.901-1.603 3.759-3.311 5.524-5.075 2.054-2.074-1.084-5.221-3.161-3.163z"/><path d="m447.566 139.61c-.276-.1-.569-.144-.862-.131-.293.014-.581.085-.847.21-.266.124-.504.3-.702.517s-.351.471-.451.747c-.803 2.224-1.715 4.443-2.699 6.598-.247.54-.27 1.155-.064 1.711.207.556.626 1.007 1.165 1.254s1.154.27 1.71.064c.556-.207 1.007-.626 1.255-1.165 1.04-2.266 1.996-4.602 2.84-6.942.099-.276.144-.569.13-.862-.013-.294-.085-.582-.209-.848-.125-.266-.301-.504-.518-.702-.218-.198-.472-.351-.748-.451z"/><path d="m375.253 196.425c-2.353.293-4.744.488-7.105.583-2.918.123-2.748 4.571.177 4.467 2.608-.13 5.269-.272 7.851-.691 2.561-.752 1.755-4.702-.923-4.359z"/><path d="m393.432 192.109c-2.217.789-4.498 1.494-6.813 2.108-.573.153-1.062.527-1.359 1.039-.298.513-.38 1.123-.228 1.697.809 2.721 3.836 1.264 5.716.742 1.403-.423 2.807-.886 4.182-1.372 2.748-.992 1.264-5.181-1.498-4.214z"/><path d="m449.76 84.4517c-.907-2.7932-5.146-1.4036-4.253 1.3849.736 2.2551 1.381 4.5539 1.926 6.8621.683 2.8369 5.01 1.8278 4.352-1.0293-.568-2.4205-1.253-4.8456-2.025-7.2177z"/><path d="m330.602 188.86c-1.092-.362-2.196-.753-3.275-1.164-2.74-1.02-4.312 3.14-1.58 4.185 1.56.424 3.169 1.559 4.804 1.247 2.021-.533 2.105-3.669.051-4.268z"/><path clip-rule="evenodd" d="m417.888 87.9621 12.586 1.7748c.955-.4022 2.15 6.7114 2.96 11.5331.39 2.321.691 4.11.833 4.276.684.747-4.71 3.668-8.35 5.64-1.712.927-3.036 1.644-3.158 1.826-.232 6.019-1.444 11.96-3.587 17.589.029.198.959 1.365 2.169 2.882 2.587 3.245 6.453 8.092 5.511 8.492l-8.53 12.65c-.046 1.011-5.919-.736-9.889-1.917-1.871-.557-3.32-.988-3.536-.945-4.419 4.096-9.476 7.445-14.972 9.913-.119.161-.286 1.641-.503 3.566-.465 4.121-1.16 10.282-2.108 9.901l-14.972 2.911c-.748.683-3.663-4.701-5.633-8.341-.929-1.716-1.648-3.044-1.831-3.167-6.02-.232-11.961-1.443-17.591-3.587-.198.03-1.362.959-2.877 2.167-3.245 2.587-8.097 6.457-8.497 5.516l-12.648-8.533c-1.012-.048.732-5.907 1.91-9.864.555-1.862.984-3.304.941-3.52l5.805-5.757 17.051 3.307-2.202-21.306 16.219-12.072 27.74.926-10.96-23.732 12.417-13.4623 16.246-3.1192c3.889 4.2934 7.079 9.1703 9.456 14.4526zm-28.724-8.0541c6.766 4.8116 11.738 11.7384 14.132 19.6881 7.796 23.1959-11.593 49.5629-36.119 48.5109-1.669.739-2.361-1.394-.733-1.628 35.077.956 50.164-45.403 21.497-65.2454zm-25.339 42.229c2.732.783 5.655.551 8.229-.654 1.615-.761 3.036-1.88 4.153-3.272 1.118-1.393 1.903-3.022 2.296-4.763l3.631.129c-1.998 13.19-20.56 17.223-27.814 5.788l2.871-2.142c1.545 2.386 3.902 4.131 6.634 4.914z" fill-rule="evenodd"/><path clip-rule="evenodd" d="m333.885 116.295 2.097 20.3c.014.116 0 .234-.041.345-.041.11-.106.209-.192.289s-.19.139-.302.172c-.113.033-.232.039-.348.017l-16.063-3.119-5.805 5.756.011-.039c-4.097-4.418-7.445-9.475-9.913-14.972-.161-.119-1.641-.286-3.566-.502-4.122-.465-10.283-1.159-9.901-2.107l-2.911-14.972c-.684-.748 4.701-3.664 8.342-5.634 1.715-.929 3.043-1.648 3.166-1.8315.231-6.019 1.442-11.96 3.587-17.5889-.03-.198-.959-1.3626-2.167-2.8774-2.587-3.2449-6.457-8.0968-5.516-8.4966l8.531-12.6497c.046-1.0112 5.918.7359 9.889 1.917 1.871.5568 3.32.9878 3.536.9448 4.418-4.0964 9.476-7.4446 14.972-9.9127.119-.1614.286-1.6416.503-3.5666.464-4.1216 1.158-10.282 2.106-9.9004l14.972-2.9117c.748-.6826 3.664 4.7018 5.634 8.3417.929 1.7158 1.648 3.044 1.832 3.1664 6.019.232 11.96 1.4435 17.589 3.5871.198-.0298 1.363-.9589 2.878-2.1672 3.246-2.5877 8.097-6.4562 8.496-5.5153l12.649 8.5324c1.012.0446-.736 5.9196-1.917 9.8896-.557 1.8704-.987 3.318-.944 3.5337.081.0876.159.1773.237.2671.072.0829.145.166.22.2476l-16.247 3.1192-12.415 13.4622 10.661 23.0822c.031.068.045.143.039.218s-.031.147-.072.209c-.042.063-.099.114-.165.148-.067.034-.142.051-.217.048l-7.885-.263c1.425-7.0066-2.987-14.8226-9.886-17.1102-13.361-5.3009-26.349 11.2182-17.943 22.9382zm-7.638 10.771c-29.17-32.7936 12.679-80.8723 49.159-56.4462.249.168.492.3426.735.5173l.131.0941-1.223 1.3256c-34.596-24.2748-75.544 21.7-47.472 53.3122.785.855-.561 2.059-1.33 1.197z" fill-rule="evenodd"/><path d="m344.299 108.544 5.805-4.322 15.513.519c2.182-8.4271-6.511-16.5967-14.826-13.842-7.393 2.1004-10.792 11.25-6.492 17.645z"/></g><path d="m35.9685 69.7615c.9872 57.8135 86.9835 57.8045 87.9605 0-.984-57.8136-86.9811-57.8043-87.9605 0z" fill="#fdbab9"/><path d="m37.4304 69.7637c.9545 55.8903 84.0906 55.8823 85.0376 0-.947-55.8906-84.0909-55.8828-85.0376 0z" fill="#b3200e"/><path d="m43.036 70.6854c.8079 47.3056 71.173 47.2976 71.975 0-.808-47.3035-71.1734-47.2957-71.975 0z" fill="#fdbab9"/><path d="m81.2503 77.69c-1.8808-.2277-6.0823.7439-6.2055-2.238l-1.491-28.6962c-.0133-.2767.0347-.5529.1405-.8089.1057-.256.2667-.4855.4713-.6722.2047-.1866.448-.3258.7127-.4076.2646-.0818.5441-.1041.8184-.0655l7.0181.4882c.285.0086.5654.0737.8251.1914.2596.1178.4933.2859.6876.4947.1942.2087.3451.4539.4439.7214.0988.2674.1435.5518.1316.8367l-1.4504 28.1707c-.0231.5394-.2556 1.0486-.6482 1.4193-.3925.3708-.9142.5738-1.4541.566z" fill="#b3200e"/><path d="m74.9651 84.6982c1.8293-1.9619 6.8434-1.8325 8.6073.0858 1.9479 1.7343 1.9869 6.6313-.0343 8.3921-1.8372 1.9744-6.7062 1.9885-8.5559-.0515-2.0649-1.8372-2.0571-6.6469-.0171-8.4264z" fill="#b3200e"/><path d="m240.499 50.602-113.538 190.766c-2.495 4.188.766 9.312 5.949 9.358l225.059 1.851c5.202.043 8.558-5.061 6.108-9.291l-111.521-192.6185c-2.564-4.4292-9.437-4.4667-12.057-.0655z" fill="#b3200e"/><path d="m236.623 170.297v-.001c-.024-.791-.049-1.583-.085-2.362.034-.754.058-1.521.083-2.287v-.002c.191-6.049.384-12.128 5.639-12.572 5.251.463 5.451 6.615 5.648 12.694.023.697.045 1.392.075 2.078-.03.684-.053 1.379-.075 2.074-.197 6.048-.398 12.207-5.65 12.727-5.261-.348-5.447-6.333-5.635-12.349z" fill="#fdbab9"/><path d="m209.999 156.915c-.406 4.344-.393 12.368-.374 16.834l-10.211.103c.604-1.002 1.65-2.607 2.856-4.458 2.829-4.341 6.541-10.037 7.498-12.479z" fill="#fdbab9"/><path d="m278.144 173.057c-.018-4.342-.03-12.143.355-16.365h-.22c-.903 2.373-4.418 7.922-7.094 12.146-1.134 1.791-2.118 3.344-2.687 4.315z" fill="#fdbab9"/><path d="m214.243 214.299c2.745 0 6.148-.117 6.064-3.449.054-3.15-3.091-3.053-5.686-2.974l-.213.006-.165.005z" fill="#fdbab9"/><path d="m242.039 210.299c.089 3.287-3.244 3.415-5.954 3.415v-6.354c.107-.003.215-.006.324-.009l.003-.001h.003c2.567-.08 5.682-.179 5.624 2.949z" fill="#fdbab9"/><path d="m256.781 214.441c.053 4.378 1.169 7.726 5.614 7.691 7.422.779 7.622-16.749.031-15.704-1.863.046-3.266.741-4.211 2.085-.944 1.345-1.422 3.321-1.434 5.928z" fill="#fdbab9"/><path d="m288.479 209.125c.094 3.191-3.091 3.361-5.728 3.347v-6.231l.246-.008c2.508-.081 5.548-.18 5.482 2.892z" fill="#fdbab9"/><path clip-rule="evenodd" d="m137.962 235.256 103.111-173.2524c2.379-3.9972 8.622-3.9644 10.95.0578l101.287 174.9336c2.224 3.842-.824 8.477-5.548 8.438l-204.398-1.682c-4.707-.039-7.665-4.693-5.402-8.495zm104.298-45.29c12.129-.647 14.039-10.045 14.312-22.188-.209-11.626-2.556-21.608-14.312-22.054-12.282.462-14.144 9.958-14.43 22.279.219 11.761 2.546 21.717 14.43 21.963zm-23.95-9.18 5.039-.066-.003-7.11-5.039.052v-27.283l-8.202-.01-18.646 28.313v6.453l18.159-.237v9.029l8.692-.145zm72.809-.948-4.761.062v8.745l-8.214.137v-8.776l-17.156.223v-6.271l17.623-27.517 7.752.009v26.524l4.761-.048zm-100.796 48.421 13.413-.43v-4.172l-8.456.257v-6.166l7.869-.219v-4.14l-7.869.206v-5.25l8.456-.204v-4.139l-13.413.299zm23.92-9.871v9.103l-4.878.156v-23.773c.716.003 1.584-.029 2.534-.064h.002c3.86-.141 9.082-.332 11.059 1.515 3.73 2.863 2.611 9.853-2.013 11.642 3.431 5.216 5.666 8.581 6.706 10.095l-5.356.172-5.458-8.919zm21.842 8.413v-9.032l2.542-.07 5.36 8.841 5.26-.168c-1.014-1.501-3.207-4.836-6.578-10.007 4.548-1.729 5.615-8.758 1.978-11.54-1.941-1.831-7.071-1.643-10.864-1.503h-.001c-.934.034-1.786.066-2.49.063v23.572zm36.769-12.796c.023 7.139-3.275 12.03-10.46 12.264-7.262.226-10.576-4.523-10.551-11.725-.028-7.239 3.328-12.051 10.582-12.219 7.23-.153 10.444 4.529 10.429 11.68zm9.897 11.291v-8.849l2.445-.069 5.158 8.675 5.06-.156c-.978-1.476-3.088-4.751-6.33-9.826 4.398-1.717 5.387-8.594 1.903-11.316-1.866-1.797-6.808-1.614-10.458-1.479-.895.034-1.713.064-2.388.061v23.115z" fill="#fdbab9" fill-rule="evenodd"/><path d="m106.133 427.51s-1.129 6.394-1.684 12.728c-.05.587.021 1.178.206 1.737s.482 1.075.872 1.517c.39.441.865.799 1.397 1.053.532.253 1.109.396 1.698.42 8.433.35 26.471 1.034 32.943.745.226-.011.446-.076.641-.189.196-.113.361-.272.484-.462.122-.19.196-.407.218-.632.021-.225-.011-.452-.095-.662 1.196-1.53-30.779-14.643-31.42-15.405z" fill="#1c0f79"/><path d="m105.209 423.753.907 7.651s5.219 2.43 8.784-.312l-2.162-8.526z" fill="#fdbab9"/><path d="m71.8598 430.845s-1.7982 3.228-3.5402 11.809c-.0755.365-.0735.742.0059 1.106.0793.364.2343.708.4548 1.008.2205.301.5017.552.8253.737.3236.184.6825.299 1.0533.337 2.7839.274 7.0712.624 10.5053.602 5.6816-.387.7892-11.569-2.5982-15.236z" fill="#1c0f79"/><path d="m70.2799 421.002 2.121 11.57s2.0977 1.56 6.2477.431l-1.0137-12.451z" fill="#fdbab9"/><path d="m105.89 279.907c-1.692 2.183.343 102.635 7.472 145.224-1.607.655-4.746 1.604-8.511 1.73-6.8138-4.378-18.9973-65.563-21.6953-111.522-2.0836-54.334 0-1.852 0-1.852l1.2227-33.585z" fill="#1c0f79"/><path d="m64.5498 282.901c-8.5419 51.553 1.8527 127.417 5.3587 142.266.7143 2.795 5.6223 2.116 8.5511 1.492.427-.124.8039-.38 1.0776-.731s.4303-.778.4477-1.223c.4679-12.008-.3759-85.702 7.5842-114.827.4026-1.475 1.3043-2.765 2.5515-3.649l15.4494-10.983 1.184-17.759z" fill="#1c0f79"/><path d="m137.613 173.404c2.298 11.576 5.2 26.778 2.99 36.013 4.998.208 9.977.729 14.91 1.56-1.349-10.917-8.614-29.047-8.614-29.047-4.382-6.318-4.903-2.202-9.286-8.526z" fill="#fdbab9"/><path d="m155.365 154.905c-.869-.022-1.731.15-2.523.506s-1.495.885-2.055 1.548l-11.073 13.121c-3.556-1.224-.346-7.818-6.492-8.595.722 3.099.394 18.423 7.241 23.238l6.407-2.205c5.874-8.399 9.522-17.656 11.55-27.538z" fill="#fdbab9"/><path d="m69.9678 182.682c-23.1815 1.697-28.0256 14.943-44.0487 6.844l2.8369 24.808c5.9404 6.561 14.9095 11.029 26.2118 12.704z" fill="#4027b6"/><path d="m140.603 209.413c-1.299 9.236-2.67 11.358-3.733 11.413-7.812-15.42-6.26-40.906-42.0278-37.605 10.0238 25.578 4.9517 54.408 37.7788 68.452 21.078 7.392 27.884-14.379 22.892-40.694-1.973-.733-4.702-1.513-14.91-1.566z" fill="#4027b6"/><path d="m50.9973 190.604c.7377-.194 5.7814-5.404 6.5393-5.549 12.4314-2.369 43.4594-10.726 64.2264 4.594.052.443.084.796.105 1.092 2.308 4.128 4.786 8.612 7.865 12.411-6.844 12.046-24.781 53.72-22.026 81.532.089.645-.081 1.299-.473 1.819s-.974.864-1.619.957c-4.767.425-35.6205 4.853-41.5765-2.808.5038-4.182-1.2305-33.306-9.2483-58.484-.1029.211-.198.42-.2979.624z" fill="#4027b6"/><path d="m53.2651 171.361c-16.6719 17.171-11.7998 8.445-11.9324 23.082-.0499 5.459-4.7847 26.291-4.7847 26.291-50.9983-22.027-8.4389-52.09 6.664-60.493 4.2352 2.8 7.6934 6.625 10.0531 11.12z" fill="#4027b6"/><path d="m85.8071 160.245c-3.9722 7.919-5.63 15.984-6.1275 23.492.8531.312 12.2551 8.227 19.8861.572-1.6313-5.254-1.3615-13.164-.9466-21.277z" fill="#fdbab9"/><path d="m106.491 139.431c.218.352 5.917 27.222 5.917 27.222l-15.4121 2.928-9.1844-24.657s15.0235-11.41 18.6795-5.493z" fill="#fdbab9"/><path d="m93.6953 147.107c-.2037.278-.3411.599-.4017.938-.0605.339-.0426.687.0523 1.018l3.7617 13.172c.6332 1.441 2.7464 4.508 5.9844 2.062 2.963-2.218 7.841-7.057 9.611-2.618.526 2.523 1.482 7.642 1.694 12.297.023.564-.167 1.115-.533 1.545s-.88.706-1.44.774c-1.403-.053-14.6036 2.183-15.9075-1.12-1.3194-3.415-5.0545-12.972-6.5237-15.508-2.1834-3.52-6.3942-1.614-8.3375-3.243-5.4944-6.126 2.9632-7.245.2714-10.917-5.0577-5.337 2.9476-11.87 8.3032-8.953 2.3175.879 2.3487-1.287 4.0845-1.267 4.3169-.124.365-5.963 7.2026-7.573 6.748-1.661 10.491 4.994 10.608 9.799s-7.31 6.184-11.591 5.599c-3.1457-.431-5.7034 2.436-6.8387 3.995z" fill="#1c0f79"/><path d="m92.2961 164.664s-1.4348-8.506-4.8612-9.124c-3.4264-.617-6.9588 2.019-3.8116 6.88 3.913 6.056 8.6728 2.244 8.6728 2.244z" fill="#fdbab9"/><path d="m86.6442 134.059c1.7467-.054 5.8687.738 5.1965 2.934-.85 2.353-5.2527.156-7.5983 3.949-2.0664 3.342-.3743 6.973-1.0075 10.574-.3119 1.753-1.4332 4.356-2.999 5.379-.7003.458-6.229 1.333-6.5315.352l-1.5362-4.991c-1.3834-4.486 3.9285-11.962 6.6672-14.982 2.1163-2.33 4.9844-3.099 7.8088-3.215z" fill="#fdbab9"/><path d="m81.4042 152.064-5.2885 4.403c-10.1373 4.313-17.511 9.396-22.851 14.895-2.3594-4.496-5.8177-8.321-10.053-11.121 15.7049-7.673 38.8678-15.189 38.1925-8.177z" fill="#fdbab9"/></svg>