<svg fill="none" height="467" viewBox="0 0 467 467" width="467" xmlns="http://www.w3.org/2000/svg"><path d="m385.495 82.9696-202.379 4.5847c-5.375.1236-10.498 2.3068-14.309 6.0987-3.812 3.7918-6.021 8.903-6.173 14.277l-8.29 293.75c-.059 2.073.3 4.136 1.055 6.067.755 1.93 1.89 3.69 3.338 5.173 1.449 1.484 3.181 2.661 5.093 3.462 1.912.8 3.966 1.208 6.039 1.199l232.048-1.04c1.95-.009 3.879-.406 5.674-1.168 1.795-.763 3.42-1.875 4.78-3.273 1.36-1.397 2.428-3.052 3.142-4.867s1.059-3.754 1.015-5.703l-6.692-295.295c-.07-3.127-.755-6.208-2.016-9.0696-1.261-2.8613-3.074-5.446-5.334-7.6065-2.26-2.1606-4.924-3.8545-7.84-4.9851-2.915-1.1306-6.025-1.6757-9.151-1.6042z" fill="#b3200e"/><path d="m384.895 83.9313c-27.552 4.3735-122.326 18.1187-201.035 13.8658-.852-.0476-1.704.0757-2.508.3626-.803.2869-1.541.7316-2.17 1.308-.628.5763-1.135 1.2733-1.491 2.0483-.355.775-.552 1.614-.579 2.466l-8.986 295.075c-.06 1.943.652 3.831 1.98 5.251 1.327 1.42 3.163 2.256 5.106 2.327 33.091 1.208 169.358 5.684 217.787-.5 1.423-.184 2.729-.885 3.667-1.971s1.443-2.48 1.418-3.915l-5.194-309.6014c-.016-.9899-.244-1.9648-.669-2.8588-.426-.894-1.038-1.6862-1.796-2.323-.759-.6369-1.645-1.1034-2.599-1.3681-.954-.2648-1.953-.3215-2.931-.1664z" fill="#770508"/><path d="m382.107 91.6418c-26.515 4.2089-117.719 17.4362-193.466 13.3522-.82-.046-1.64.073-2.413.349s-1.483.704-2.088 1.259-1.093 1.225-1.435 1.971-.531 1.553-.557 2.373l-8.648 283.962c-.058 1.87.626 3.688 1.904 5.055s3.045 2.173 4.915 2.241c31.846 1.162 162.982 5.47 209.594-.481 1.37-.177 2.626-.852 3.529-1.897.903-1.046 1.388-2.387 1.363-3.768l-5.004-297.953c-.015-.9526-.235-1.8909-.644-2.7512-.41-.8604-.999-1.6227-1.729-2.2356-.729-.6128-1.582-1.0617-2.5-1.3165-.918-.2547-1.88-.3092-2.821-.1599z" fill="#fdab76"/><g fill="#fee9d1"><path d="m365.677 120.531-1.447 60.869c-.022.975-.412 1.907-1.092 2.607-.68.699-1.6 1.116-2.575 1.165-11.254.573-46.325 2.225-66.162 1.64-1.083-.03-2.115-.466-2.892-1.222-.776-.756-1.24-1.776-1.3-2.858.604-4.42-5.744-64.679 4.604-62.568l66.511-3.835c.568-.034 1.136.051 1.669.248.534.197 1.021.503 1.43.897.409.395.732.871.948 1.397s.32 1.091.306 1.66z"/><path d="m225.225 156.503c-5.641-.311-16.187-.266-21.992-.215-1.194.009-2.349.424-3.276 1.176s-1.57 1.797-1.824 2.964c-1.016 4.668-2.377 12.766-1.991 21.304.054 1.227.589 2.384 1.49 3.22s2.095 1.283 3.323 1.245l21.411-.716c1.271-.043 2.482-.554 3.398-1.437.915-.883 1.472-2.073 1.561-3.342l1.427-20.183c.036-.496-.027-.995-.185-1.466-.158-.472-.409-.907-.737-1.281-.329-.374-.728-.679-1.175-.897-.448-.217-.934-.344-1.43-.372z"/><path d="m199.03 129.604c-2.818.021-2.721-4.018.025-4.12l73.436-2.973c1.172-.048 1.833.826 1.468 1.94l-.475 1.454c-.365 1.116-1.622 2.049-2.794 2.075z"/><path d="m272.75 133.845c2.192 0 1.531 2.04.994 3.395-.365 1.115-1.623 2.05-2.795 2.076l-71.662 1.623c-.271.013-.543-.028-.798-.122-.254-.094-.488-.238-.686-.424-.197-.186-.356-.41-.465-.658-.109-.249-.167-.517-.17-.788 0-1.123.973-2.081 2.145-2.129z"/><path d="m273.011 145.344c2.193 0 1.531 2.04.994 3.396-.365 1.115-1.622 2.049-2.795 2.076l-71.662 1.624c-.272.013-.543-.028-.798-.122s-.488-.238-.686-.424-.356-.41-.465-.659c-.11-.249-.167-.517-.17-.789.007-1.122.973-2.08 2.145-2.127z"/><path d="m238.554 166.451c-2.824.021-2.777-4.001-.035-4.158l34.129-2.004c1.997-.052 1.98 1.776 1.62 3.251-.108.582-.408 1.112-.852 1.503-.445.392-1.008.622-1.6.655z"/><path d="m273.037 173.636c1.997.023 1.913 1.849 1.498 3.31-.128.578-.447 1.096-.905 1.471-.459.375-1.03.584-1.622.595l-33.266-.465c-1.174-.016-2.107-.947-2.076-2.07.031-1.122 1.018-2.06 2.19-2.086z"/><path d="m193.715 208.062c-2.816 0-2.557-4.053.177-4.103.848 1.571 174.917-8.433 172.284-3.606-1.197 1.693-2.75 3.913-5.068 3.917z"/><path d="m365.592 210.065c2.807.014-.227 2.892-.805 3.799-.709.931-2.249 1.72-3.423 1.746l-167.393 3.793c-1.172.027-2.091-.871-2.043-1.995s1.048-2.071 2.22-2.108z"/><path d="m338.007 235.654c2.776-.141 1.599 3.394 1.477 4.984-.091.581-.379 1.114-.816 1.508s-.997.626-1.584.656l-38.463.871c-1.804.019-2.329-1.677-2.164-3.204.001-.574.219-1.126.609-1.546.39-.421.924-.679 1.496-.724z"/><path d="m252.802 237.588c2.777-.142 1.6 3.392 1.478 4.982-.091.582-.379 1.115-.817 1.509-.437.394-.997.625-1.585.655l-38.461.871c-1.804.019-2.329-1.675-2.166-3.203.002-.574.219-1.126.61-1.547.39-.421.924-.679 1.497-.724z"/><path d="m204.595 283.595c-2.818 0-2.566-4.052.169-4.103l166.524-5.124c1.172-.036 1.562.707.864 1.651l-1.572 2.13c-.696.942-2.227 1.737-3.399 1.763z"/><path d="m371.544 285.702c2.773.009-.121 2.855-.706 3.779-.698.944-2.227 1.737-3.401 1.764l-162.586 3.684c-1.172.026-2.094-.871-2.047-1.995.046-1.124 1.044-2.073 2.217-2.109z"/><path d="m371.805 297.202c2.773.009-.121 2.856-.706 3.778-.698.944-2.227 1.738-3.4 1.766l-162.586 3.682c-1.174.027-2.095-.871-2.048-1.993.046-1.123 1.043-2.073 2.217-2.108z"/></g><path d="m314.798 143.436c.682 17.175 26.238 16.593 26.142-.593-.683-17.175-26.241-16.593-26.142.593z" fill="#fa541c"/><path d="m348.593 181.067-41.642.944c-.579.013-1.151-.13-1.656-.415s-.923-.7-1.212-1.202c-.289-.503-.437-1.073-.428-1.653.008-.579.172-1.145.475-1.639 18.618-31.358 59.164.037 44.463 3.965z" fill="#fa541c"/><g fill="#fee9d1" opacity=".24"><path d="m366.555 228.975c-4.119-.222-11.821-.194-16.061-.155-.872.005-1.717.308-2.394.857-.677.55-1.147 1.313-1.333 2.165-.742 3.416-1.737 9.316-1.453 15.558.041.897.432 1.741 1.09 2.351.658.611 1.53.937 2.427.91l15.637-.523c.928-.032 1.812-.406 2.481-1.05.669-.645 1.075-1.514 1.141-2.441l1.04-14.749c.026-.361-.021-.725-.137-1.068s-.299-.66-.539-.932-.531-.494-.857-.652c-.326-.159-.68-.251-1.042-.271z"/><path d="m281.351 230.905c-4.119-.222-11.821-.194-16.061-.155-.872.006-1.716.309-2.393.858s-1.147 1.312-1.333 2.164c-.741 3.416-1.736 9.316-1.452 15.558.04.897.432 1.741 1.09 2.351.658.611 1.53.937 2.426.91l15.636-.522c.928-.031 1.812-.405 2.481-1.049.669-.645 1.076-1.514 1.141-2.441l1.042-14.749c.025-.362-.021-.725-.138-1.069-.116-.344-.299-.661-.539-.933s-.531-.494-.857-.652c-.327-.159-.681-.251-1.043-.271z"/></g><path d="m291.459 63.0045c-.073-.0047-.144-.0238-.209-.056-.065-.0323-.123-.0772-.171-.132s-.084-.1186-.107-.1876-.032-.1418-.027-.2144l.231-3.3613c.004-.0728.023-.1441.055-.2097.032-.0655.077-.124.132-.172.055-.0481.119-.0846.188-.1076.069-.0229.143-.0318.215-.0261.147.01.283.0777.38.1883s.146.2551.136.4017l-.232 3.3612c-.01.1467-.078.2833-.189.38-.111.0966-.255.1453-.402.1355zm.453-6.5859c-.072-.005-.143-.0242-.209-.0566-.065-.0324-.123-.0774-.171-.1324-.047-.055-.084-.1188-.107-.1879s-.032-.142-.027-.2147c1.609-8.8914-5.409-12.04-13.116-10.3524-.694.1724-.951-.9315-.245-1.0867 8.356-1.9221 16.201 1.9748 14.465 11.509-.004.0731-.023.1447-.054.2106-.032.0658-.077.1247-.132.1732-.055.0486-.119.0857-.188.1094-.069.0236-.143.0333-.216.0285z" fill="#fdab76"/><path d="m271.088 74.3705 22.917-2.5586 1.452-21.1054c.145-2.0604-.428-4.1074-1.623-5.7924-1.194-1.685-2.936-2.9036-4.929-3.4484-4.502-1.2187-10.867-1.1752-18.057 4.0755-14.11 10.2996.24 28.8293.24 28.8293zm4.388-17.6603c-.042-7.5298 11.153-7.7829 11.451-.2593.042 7.5284-11.153 7.7814-11.451.2593z" fill="#770508"/><path d="m325.652 84.7139c-.51-5.6529 1.957-17.1806-7.068-16.8964l-72.955 4.1561c-7.958.4549-5.688 11.0092-6.303 16.2304z" fill="#770508"/><path d="m298.133 72.2722 3.145-.0761c.718 0 .694-1.1349-.025-1.1085l-3.14.0714c-.717.0109-.698 1.1396.02 1.1132z" fill="#fdab76"/><path d="m321.625 81.4796c.073-.0016.145-.0175.212-.0469.066-.0293.126-.0715.177-.1242.05-.0526.089-.1146.116-.1825.026-.0679.039-.1403.037-.2131.964-13.8999-8.506-9.4286-17.779-9.8897-.713.0093-.698 1.1349.026 1.1085l11.543-.2608c1.298-.0275 2.553.4606 3.491 1.3572.939.8967 1.483 2.1288 1.514 3.4262l.097 4.2835c.003.1469.065.2863.171.3878.106.1016.248.1569.395.154z" fill="#fdab76"/><path d="m348.443 80.3211-127.673 2.8893c-2.223.0501-4.358.884-6.027 2.3545-1.669 1.4706-2.764 3.4833-3.094 5.683-1.122 5.1343 2.812 10.0711 8.106 9.9361l130.984-2.9667c6.449-.4658 5.08-6.9865 4.723-11.4982-.124-1.7641-.922-3.4128-2.229-4.6042-1.307-1.1913-3.022-1.8337-4.79-1.7938z" fill="#fa541c"/><path d="m246.101 335.847-17.018-41.324c-.16-.39-.434-.725-.785-.959-.351-.235-.764-.361-1.186-.36h-10.464c-.358 0-.709.09-1.023.262-.313.171-.578.419-.771.719-.193.301-.307.645-.332 1.002-.025.356.039.713.188 1.038l19.727 43.041c.203.444.552.804.99 1.021.437.217.935.278 1.411.171l7.751-1.721c.303-.068.588-.2.834-.389.247-.189.449-.429.593-.705.144-.275.226-.578.241-.888s-.039-.62-.156-.908z" fill="#4027b6"/><path d="m272.285 384.539h-5.01v54.186h5.01z" fill="#754ffe"/><path d="m291.721 439.768h-43.882v-2.737c0-.139.055-.272.153-.37s.231-.154.37-.154h42.836c.139 0 .272.056.37.154s.153.231.153.37z" fill="#754ffe"/><path d="m298.234 382.659c-.004 1.427-.573 2.795-1.582 3.805-1.01 1.009-2.378 1.578-3.805 1.582h-44.403c-5.947-.31-5.515-5.831-5.388-10.259.004-1.428.573-2.796 1.582-3.806 1.01-1.01 2.378-1.579 3.806-1.583h44.403c5.946.318 5.514 5.831 5.387 10.261z" fill="#b195fe"/><path d="m232.791 348.411s-7.452 1.155-15.817 6.75c-.648.428-1.163 1.028-1.488 1.732-.326.705-.448 1.486-.354 2.257 1.003 7.939 5.124 33.637 18.715 58.737 2.1 2.969-1.481 12.149-1.756 15.324l-4.378 4.105h11.277l7.51-20.321c-3.616-.932-7.39-2.317-7.452-6.703-.343-10.983 1.305-32.138-6.332-38.213l18.01-.875z" fill="#fdbab9"/><path d="m223.31 439.299c-1.027 1.344 11.055 3.117 17.159.176 0 0 8.462-14.721 8.462-22.3 0 0-.673-1.545-5.641-1.196 0 0-2.841 17.432-5.841 19.384-2.999 1.951-8.393.199-8.393.199s-4.23 1.752-5.746 3.737z" fill="#770508"/><path d="m248.447 372.398c-.097-.166-19.392-2.319-19.392-2.319 4.888 16.1-27.203 50.504-31.647 57.011l2.97 9.418c-9.185 3.198-18.219 3.71-27.109 1.63l18.41-11.048s17.234-58.715 27.791-69.19l19.342-6.691z" fill="#fdbab9"/><path d="m291.722 338.235c3.528 6.219 26.574 36.084-2.682 35.19-11.664.507-42.805.498-42.805.498l-26.578-22.714s19.363-6.912 24.404-8.868 47.661-4.106 47.661-4.106z" fill="#b3200e"/><path d="m199.256 433.335s3.198 3.106 1.039 6.545c0 0-25.336 4.491-32.214 2.453 0 0 1.428-3.261 9.174-6.971-6.106 4.915 19.733-.334 22.001-2.027z" fill="#770508"/><path d="m261.656 336.045s-12.946-12.327-19.32-20.494c-1.695-2.178-2.846-4.729-3.356-7.442s-.365-5.508.424-8.153c2.909-9.801 8.073-19.955 8.551-21.534.724-2.422 15.24-2.321 15.24-2.321s28.567 18.539 39.787 49.942l-12.604 3.924s-7.452-12.512-14.828-20.468c0 0 12.751 16.846 13.197 23.74z" fill="#fa541c"/><path d="m246.199 264.892c.155.503 3.94 13.065 4.237 13.326.296.26 8.309.691 12.08-1.887l-6.398-13.395z" fill="#fdbab9"/><path d="m241.518 246.464s-4.493 4.911-4.586 14.703c0 18.37 15.215 11.734 20.534-.329 3.235-7.783-9.985-20.487-15.948-14.374z" fill="#fdbab9"/><path d="m253.487 259.047c-1.05-10.201 10.013-6.553 2.018 2.692z" fill="#fdbab9"/><path d="m235.281 336.96 9.513-9.168 13.157 5.559s13.098 2.03 20.595 0l7.496-2.029 16.94-5.278c2.496 7.998 6.21 10.767-3.272 15.384-2.231.976-54.992-.674-54.992-.674z" fill="#fdbab9"/><path d="m251.713 258.273s-1.203-13.71-11.712-9.056l-1.669 2.846c-12.54-9.647 10.188-23.243 20.115-11.066 10.197 8.994 6.087 27.495-1.62 21.878 0 0 .685-4.906-1.242-6.482-1.926-1.576-3.071 1.918-3.071 1.918z" fill="#770508"/><path d="m258.238 242.697c-1.972-.756-2.163-3.474-.402-4.64 20.028-15.46 35.544 22.558 46.408 22.978 2.329-.039 3.688 2.594 2.155 4.347-1.133 1.296-3.074 2.462-6.294 3.161-24.842 5.389-30.296-21.415-41.867-25.846z" fill="#770508"/><path d="m86.6912 442.713c-1.3678.029-2.4639-1.43-1.863-2.685l42.3848-93.803c.229-.476.632-.847 1.126-1.034.494-.188 1.041-.178 1.529.026.239.091.458.23.642.408.185.178.331.392.43.629.099.236.149.49.146.747-.002.256-.056.509-.16.744l-42.3779 93.805c-.1656.351-.4287.648-.7579.854-.3291.206-.7106.313-1.099.309z" fill="#754ffe"/><path d="m134.431 442.713c-.39.005-.773-.102-1.103-.308-.331-.207-.595-.504-.76-.857l-42.3711-93.803c-.1033-.235-.1578-.488-.1602-.744s.0474-.51.1463-.747c.0989-.236.2449-.45.429-.628.1842-.179.4027-.318.6422-.409.4873-.204 1.0346-.214 1.5288-.026.4941.187.8973.558 1.1261 1.034l42.3769 93.803c.604 1.243-.481 2.728-1.855 2.685z" fill="#754ffe"/><path d="m261.034 442.713c-1.366.029-2.464-1.43-1.854-2.685l42.385-93.803c.229-.476.632-.847 1.126-1.034.494-.188 1.041-.178 1.529.026.239.091.458.23.642.409.184.178.33.392.429.628.099.237.149.491.146.747-.002.256-.057.509-.16.744l-42.384 93.803c-.166.352-.429.649-.759.855-.329.207-.711.314-1.1.31z" fill="#754ffe"/><path d="m308.775 442.713c-.39.005-.772-.102-1.103-.308-.33-.207-.594-.504-.76-.857l-42.385-93.803c-.103-.235-.157-.488-.16-.744-.002-.256.048-.51.146-.747.099-.236.245-.45.429-.628.185-.179.403-.318.643-.409.487-.204 1.034-.214 1.528-.026.495.187.898.558 1.127 1.034l42.384 93.803c.609 1.243-.475 2.728-1.849 2.685z" fill="#754ffe"/><path d="m322.336 343.3c.295-1.38-1.001-2.582-2.389-2.54h-245.9815c-1.8242-.072-3.4637 1.788-2.5415 3.487 1.5184 2.248 2.5307 7.176 6.055 6.963h240.78c1.354 0 2.518-.843 2.775-2.009z" fill="#b195fe"/><path d="m43.2067 376.018c-1.4873 2.198-7.3932 51.985-8.317 70.374-.0581.574.1144 1.148.4793 1.595.365.447.8926.731 1.4668.789s1.148-.115 1.5951-.479c.447-.365.7308-.893.7889-1.467l10.8026-69.229z" fill="#754ffe"/><path d="m90.6929 376.018c1.4858 2.198 7.3917 51.985 8.3154 70.374.0146.294-.0309.588-.1336.865-.1027.276-.2605.528-.4638.741-.2033.214-.4479.384-.7188.499-.271.116-.5626.176-.8573.175-1.3973.188-2.3289-1.836-2.1565-1.863-.2112-1.355-10.7996-69.206-10.7996-69.206z" fill="#754ffe"/><path d="m34.2716 372.132c-.3105 4.127 3.1051 7.654 7.5376 7.724l49.9331.85c4.1531.069 7.6075-2.93 7.8155-6.776.4812-4.204-2.9622-7.888-7.5004-7.965l-49.9532-.894c-4.2757-.077-7.7969 3.098-7.8326 7.061z" fill="#b195fe"/><path d="m118.839 438.396c-7.93 0-11.439-.68-13.009-1.299.154.662.528 1.252 1.06 1.675s1.192.653 1.871.654h28.057c.209-.001.416-.049.604-.142s.352-.229.479-.395c.127-.167.214-.361.254-.566.04-.206.033-.418-.022-.621-3.197.258-9.991.694-19.294.694z" fill="#1c0f79"/><path d="m138.132 437.704c-6.71-11.576-20.819-5.474-30.686-7.357-.22 1.139-2.052 5.633-1.616 6.75 3.663 2.169 29.699.989 32.302.607z" fill="#1c0f79"/><path d="m109.371 424.747-1.925 6.547s4.265 1.942 8.017.383l.736-5.673z" fill="#fdbab9"/><path d="m166.692 432.564c-6.183 4.969-8.512 8.347-10.122 8.852.534.418 1.193.643 1.871.638.678-.004 1.335-.237 1.864-.661l21.871-17.574c.163-.13.294-.297.383-.486.088-.19.132-.397.127-.606s-.057-.414-.154-.6c-.097-.185-.235-.346-.404-.469-2.332 2.191-8.184 5.078-15.436 10.906z" fill="#1c0f79"/><path d="m182.13 421.651c-12.447-4.779-19.659 8.809-28.508 13.507.539 1.022 1.913 5.656 2.95 6.249 4.199-.605 23.762-17.828 25.558-19.756z" fill="#1c0f79"/><path d="m68.1883 350.147c78.7547 6.365 63.8597 5.25 49.2717 77.317 0 0-2.652 1.276-8.551-.558 0 0 6.055-47.425 1.552-57.709l-51.4095-8.409z" fill="#1c0f79"/><path d="m148.906 426.137c.441.402 4.717 9.028 4.717 9.028s4.761-1.031 5.732-4.037l-4.284-7.786z" fill="#fdbab9"/><path d="m39.5909 349.748c-3.4839 7.608-1.1054 20.768 10.9393 21.407l56.1298 2.56c.575.026 1.127.236 1.574.6.447.363.766.86.91 1.418 1.319 5.102 7.762 20.77 39.279 52.032 2.099 2.29 5.745-1.641 7.629-2.484.228-.143.39-.369.454-.63.063-.261.022-.536-.114-.767l-32.681-55.81c-1.716-2.833-4.476-4.879-7.685-5.699l-47.8402-12.229z" fill="#1c0f79"/><path d="m39.4379 349.585s-.5558-27.82 5.0054-54.002c2.2078-10.829 8.8154-20.126 17.7596-26.487l13.0089 5.279c20.0061 26.102 1.2979 51.739-3.2604 75.609.014.008-21.537 2.854-32.5135-.399z" fill="#4027b6"/><path d="m71.1471 248.363-10.163 23.577s3.2604 7.319 14.6344 4.473l4.0645-16.261z" fill="#fdbab9"/><path d="m91.2867 237.608c.1226.329.3912 23.558.3912 23.558l-13.2666-.129-3.5258-21.977s14.3502-6.965 16.4012-1.452z" fill="#fdbab9"/><path d="m78.7779 243.289.9501 11.716c.2779 1.212 1.5184 4.171 4.6173 2.664 2.613-1.398 5.0179-2.621 6.898-2.463.407.034.7868.218 1.0651.517.2782.299.4349.691.4393 1.1.0233 2.111-.0093 6.867-.6707 10.995-.0664.404-.2817.768-.6036 1.022-.3219.253-.7269.376-1.1352.346-1.0154-.253-12.4204-.611-13.2293-3.427-.4999-2.902-2.0525-11.714-2.8645-14.103-1.1954-3.202-4.8983-2.472-6.2847-3.93-3.7804-6.165 3.6221-5.735 2.0571-8.967-.9843-1.578-1.8087-4.133 1.0868-6.265 4.9682-3.592 7.2365 1.922 9.4706-.026.3245-.32.7918-.502 1.4547-.264.2136.072.4399.099.6644.078.2244-.02.4422-.087.6393-.197.197-.109.369-.259.5049-.438.1359-.18.2327-.387.2842-.606 2.7946-8.188 13.9264-3.023 12.1441 5.914-.6987 4.004-7.0858 3.917-10.5403 2.721-2.5989-.928-6.929 1.604-6.9476 3.613z" fill="#1c0f79"/><path d="m74.6329 255.915s.9191-7.028-1.8196-8.107c-9.3153-2.157-3.0943 12.147 1.8196 8.107z" fill="#fdbab9"/><path d="m102.459 327.241c-33.5023 10.517-31.72-36.64-31.9373-36.969-13.2821-20.295-20.739 6.751-19.4519 10.557 11.7792 42.649 41.4764 40.537 53.0472 32.16-1.44-2.236-1.77-4.208-1.658-5.748z" fill="#4027b6"/><path d="m76.7784 319.968c-3.8814-2.95-9.3634-26.298-6.4633-27.971.226-.009.4461.073.612.227.1659.153.2641.366.273.592.2453 6.236 1.4221 17.889 6.5486 25.877.441.636-.2515 1.531-.9703 1.275z" fill="#1c0f79"/><path d="m67.4214 330.683c-7.963-6.328-13.6267-16.564-17.4413-30.129-.0322-.109-.0424-.222-.0301-.335s.0469-.222.1018-.321.129-.186.218-.256c.0889-.07.1909-.122.3-.152s.2232-.038.3355-.024c.1123.015.2206.051.3186.108.0981.056.1838.132.2523.222.0684.09.1182.193.1465.303 3.6267 13.13 9.2113 22.927 16.5983 29.117.7142.551.0466 1.766-.7996 1.467z" fill="#1c0f79"/><path d="m121.934 317.066c.932-.156-14.474 12.296-9.34 4.524 3-4.177 1.54-6.333-1.882-1.832-5.447 6.444-4.601 5.778-8.5 7.154-.112 1.54.218 3.512 1.658 5.754 10.51-3.32 14.599-2.607 18.064-15.6z" fill="#fdbab9"/><path d="m197.983 295.351c-144.9053-67.966 6.832-133.024 25.321-59.578 2.65 32.902-61.108 25.184-25.321 59.578z" fill="#754ffe"/><path d="m147.432 230.582h37.918c.23 0 .45-.091.612-.253.163-.163.254-.383.254-.613s-.091-.45-.254-.613c-.162-.162-.382-.253-.612-.253h-37.918c-1.113-.017-1.132 1.749 0 1.732z" fill="#e6dbfe"/><path d="m196.609 230.582h11.251c.23 0 .45-.091.613-.253.162-.163.254-.383.254-.613s-.092-.45-.254-.613c-.163-.162-.383-.253-.613-.253h-11.251c-1.121-.017-1.126 1.749 0 1.732z" fill="#e6dbfe"/><path d="m146.155 238.258h14.238c.117.005.233-.013.343-.055.109-.041.209-.104.293-.185.085-.08.152-.178.198-.285.045-.108.069-.223.069-.34s-.024-.232-.069-.34c-.046-.107-.113-.205-.198-.285-.084-.081-.184-.144-.293-.185-.11-.042-.226-.06-.343-.056h-14.238c-1.12-.017-1.128 1.749 0 1.731z" fill="#e6dbfe"/><path d="m181.284 238.258h25.306c.117.005.233-.013.343-.055.109-.041.209-.104.293-.185.085-.08.152-.178.198-.285.046-.108.069-.223.069-.34s-.023-.232-.069-.34c-.046-.107-.113-.205-.198-.285-.084-.081-.184-.144-.293-.185-.11-.042-.226-.06-.343-.056h-25.306c-1.117-.017-1.129 1.749 0 1.731z" fill="#e6dbfe"/><path d="m144.876 245.935h37.85c.229 0 .45-.091.612-.254.163-.162.254-.382.254-.612s-.091-.45-.254-.613c-.162-.162-.383-.253-.612-.253h-37.85c-1.112-.018-1.132 1.749 0 1.732z" fill="#e6dbfe"/><path d="m192.203 245.935h13.102c.229 0 .45-.091.612-.254.163-.162.254-.382.254-.612s-.091-.45-.254-.613c-.162-.162-.383-.253-.612-.253h-13.102c-1.121-.018-1.127 1.749 0 1.732z" fill="#e6dbfe"/></svg>