<svg fill="none" height="88" viewBox="0 0 88 88" width="88" xmlns="http://www.w3.org/2000/svg" xmlns:xlink="http://www.w3.org/1999/xlink"><linearGradient id="a" gradientUnits="userSpaceOnUse" x1="0" x2="88" y1="0" y2="88"><stop offset="0" stop-color="#69f290"/><stop offset="1" stop-color="#0cd66e"/></linearGradient><clipPath id="b"><path d="m12 12h64v64h-64z"/></clipPath><path d="m66.0312 10.5286c5.3712 5.0062 9.6182 10.0123 13.4904 15.6443 3.8723 5.5693 7.3698 11.7645 8.2442 18.4602.8743 6.6958-.812 13.9547-3.1853 22.1523-2.3108 8.2602-5.3087 17.5841-11.5543 20.275-6.2455 2.6908-15.7388-1.1264-24.545-2.378-8.7438-1.2515-16.863.1252-25.2321-1.3141-8.4315-1.5018-17.11281-5.7571-20.7977-12.7657-3.62242-7.0086-2.248396-16.7707-1.936118-26.2824.374734-9.5117-.374736-18.8357 3.934698-24.7805 4.30944-5.8822 13.55282-8.4479 21.60962-11.88965 8.0568-3.50431 14.9269-7.947288 21.5472-7.6344027 6.6203.3128857 13.1157 5.4442027 18.4244 10.5129527z" fill="url(#a)" opacity=".08"/><g clip-path="url(#b)" fill="#0cd66e"><path d="m38.6807 16.2797c-12.3665 0-22.3915 10.025-22.3915 22.3915s10.025 22.3915 22.3915 22.3915 22.3915-10.025 22.3915-22.3915c-.0135-12.3609-10.0306-22.378-22.3915-22.3915zm0 2.1325c6.5863.0052 12.7582 3.2152 16.5441 8.6048l-2.6656 2.6656c-.6487-.3925-1.3914-.6025-2.1496-.6077-2.3555 0-4.2651 1.9095-4.2651 4.265.0038.7591.2126 1.5029.6046 2.1528l-6.9819 6.9819c-1.322-.8061-2.9835-.8061-4.3055 0l-4.8494-4.8494c.392-.6499.6008-1.3937.6046-2.1528.0029-2.3508-1.9004-4.2589-4.2512-4.2618-1.9442-.0024-3.6429 1.3127-4.1275 3.1956h-3.9559c2.0189-9.3227 10.2596-15.98 19.7984-15.994zm13.8614 14.9277c0 1.1778-.9547 2.1325-2.1325 2.1325s-2.1325-.9547-2.1325-2.1325.9547-2.1325 2.1325-2.1325 2.1325.9547 2.1325 2.1325zm-12.7951 12.7952c0 1.1778-.9547 2.1325-2.1326 2.1325-1.1778 0-2.1325-.9547-2.1325-2.1325 0-1.1779.9547-2.1326 2.1325-2.1326 1.1779 0 2.1326.9547 2.1326 2.1326zm-10.6627-10.6627c0 1.1779-.9547 2.1326-2.1325 2.1326s-2.1325-.9547-2.1325-2.1326c0-1.1778.9547-2.1325 2.1325-2.1325s2.1325.9547 2.1325 2.1325zm19.4399 20.9129c-3.0112 1.6719-6.3992 2.5479-9.8435 2.5448-11.1811.0076-20.2514-9.0502-20.259-20.2313-.0005-.7216.0376-1.4428.1141-2.1602h4.3024c.4847 1.8773 2.1747 3.1914 4.1136 3.1988.7591-.0038 1.5029-.2126 2.1528-.6046l4.8494 4.8494c-.392.6498-.6009 1.3937-.6046 2.1527 0 2.3555 1.9095 4.2651 4.265 4.2651s4.2651-1.9096 4.2651-4.2651c-.0037-.759-.2126-1.5029-.6046-2.1527l6.9819-6.9819c.6499.392 1.3937.6008 2.1528.6045 2.3555 0 4.265-1.9095 4.265-4.265-.0037-.7591-.2126-1.5029-.6045-2.1528l2.3244-2.3234c5.4266 9.7734 1.9029 22.0952-7.8703 27.5217z"/><path d="m65.3372 22.677c1.9389-.0073 3.6289-1.3213 4.1137-3.1988h6.5489v-2.1325h-6.5489c-.4848-1.8774-2.1748-3.1914-4.1137-3.1988-2.3555 0-4.265 1.9096-4.265 4.2651.0037.759.2125 1.5029.6045 2.1528l-1.8734 1.8734c-8.9639-11.6784-25.6978-13.87888-37.3762-4.9149-11.6784 8.9639-13.87889 25.6979-4.915 37.3763 8.4614 11.0234 23.9716 13.6975 35.6356 6.1437l13.3091 13.3091c2.183 2.183 5.7222 2.183 7.9053 0 2.183-2.1831 2.183-5.7223 0-7.9053l-13.3091-13.3091c5.7123-8.7988 5.7123-20.1351 0-28.9341l2.1325-2.1325c.6495.3921 1.3931.6014 2.1517.6056zm0-6.3975c1.1778 0 2.1325.9547 2.1325 2.1325s-.9547 2.1325-2.1325 2.1325-2.1325-.9547-2.1325-2.1325.9548-2.1325 2.1325-2.1325zm7.5172 51.6753c1.3656 1.335 1.3905 3.5243.0555 4.8899-1.3349 1.3656-3.5242 1.3905-4.8898.0556-.0188-.0183-.0372-.0368-.0556-.0556l-8.5834-8.5834 4.8899-4.8899zm-10.0911-10.0911-4.8899 4.8899-2.9514-2.9514c.1503-.1152.2911-.2421.4393-.3604.1482-.1184.3198-.2602.4787-.3935.2335-.1962.4638-.3945.6899-.5982.1162-.1066.2271-.2132.3412-.3198.4372-.4095.8605-.8328 1.2699-1.27.1066-.114.2133-.2249.3199-.3412.2036-.226.402-.4563.5982-.6898.1336-.1578.2648-.3174.3934-.4788.1173-.1471.2442-.2879.3593-.4382zm-4.135-4.9528c-.3359.4692-.6824.9287-1.0481 1.3712-.1067.129-.2208.2538-.3306.3807-.3263.3796-.6632.7478-1.0108 1.1046-.1514.1564-.3054.3103-.4617.4617-.3555.3476-.7236.6846-1.1046 1.0108-.1269.1067-.2517.2229-.3807.3306-.4425.3657-.9021.7122-1.3712 1.0481-11.038 7.8857-26.3787 5.3303-34.2644-5.7077-7.8856-11.0379-5.3302-26.3787 5.7077-34.2643 11.038-7.8857 26.3787-5.3304 34.2644 5.7077 6.1018 8.541 6.1018 20.0156 0 28.5566z"/></g></svg>