<svg fill="none" height="88" viewBox="0 0 88 88" width="88" xmlns="http://www.w3.org/2000/svg" xmlns:xlink="http://www.w3.org/1999/xlink"><linearGradient id="a" gradientUnits="userSpaceOnUse" x1="0" x2="88" y1="0" y2="88"><stop offset="0" stop-color="#fdab76"/><stop offset="1" stop-color="#fa541c"/></linearGradient><clipPath id="b"><path d="m12 12h64v64h-64z"/></clipPath><path d="m87.36 21.1216c3.8168 14.7852-10.01 37.0088-26.2854 51.3348-16.3474 14.2341-35.2153 20.7543-47.2418 10.6526-12.02654-10.0098-17.21162-36.6414-11.52244-54.6407 5.61717-17.9993 22.10864-27.36633 40.97654-28.3764948 18.9399-1.0101652 40.3284 6.3364948 44.0731 21.0297948z" fill="url(#a)" opacity=".08"/><g clip-path="url(#b)" fill="#fa541c"><path d="m27.476 25.125h29.3188c2.6432 0 4.7936 2.1589 4.7936 4.8125v12.8195c0 .5179.4198.9375.9375.9375.5178 0 .9375-.4196.9375-.9375v-12.8195c0-3.6875-2.9915-6.6875-6.6686-6.6875h-29.3188c-.5177 0-.9375.4196-.9375.9375s.4198.9375.9375.9375z"/><path d="m50.2948 54.0695h-17.6789c-.2751 0-.5364.1209-.7145.3306l-5.3122 6.2526-5.3119-6.2527c-.1782-.2097-.4394-.3306-.7146-.3306h-1.8941c-2.6432 0-4.7936-2.1589-4.7936-4.8125v-19.3194c0-2.6536 2.1504-4.8125 4.7936-4.8125h4.4599c.5178 0 .9375-.4196.9375-.9375s-.4197-.9375-.9375-.9375h-4.4599c-3.6771 0-6.6686 3-6.6686 6.6875v19.3195c0 3.6875 2.9915 6.6875 6.6686 6.6875h1.4605l5.7458 6.7631c.1781.2098.4393.3306.7145.3306.2751 0 .5363-.1208.7145-.3306l5.7457-6.7631h17.2452c.5177 0 .9375-.4196.9375-.9375s-.4198-.9375-.9375-.9375z"/><path d="m39.666 67.9163h-8.523c-.5178 0-.9375.4196-.9375.9375s.4197.9375.9375.9375h8.523c1.191 0 2.16.972 2.16 2.1669 0 1.1948-.969 2.167-2.16 2.167h-23.631c-1.191 0-2.16-.9722-2.16-2.167 0-1.1949.969-2.1669 2.16-2.1669h.8294c.3007 0 .5832-.1443.7595-.3879l1.6291-2.2511 1.6291 2.2511c.1763.2435.4588.3879.7595.3879h5.1665c.5178 0 .9375-.4196.9375-.9375s-.4197-.9375-.9375-.9375h-4.6877l-2.1079-2.9128c-.1763-.2435-.4588-.3878-.7595-.3878-.3008 0-.5832.1442-.7595.3878l-2.1079 2.9128h-.3506c-2.2249 0-4.035 1.8132-4.035 4.0419s1.8101 4.042 4.035 4.042h23.631c2.2249 0 4.035-1.8133 4.035-4.042s-1.8101-4.0419-4.035-4.0419z"/><path d="m48.3325 20.0839h3.5266c.5177 0 .9375-.4196.9375-.9375s-.4198-.9375-.9375-.9375h-3.5266c-1.191 0-2.16-.972-2.16-2.1669s.969-2.167 2.16-2.167h23.631c1.191 0 2.16.972 2.16 2.1669 0 1.1948-.969 2.167-2.16 2.167h-.8294c-.3008 0-.5833.1442-.7595.3878l-1.6291 2.2512-1.6292-2.2513c-.1762-.2435-.4587-.3879-.7595-.3879h-10.1627c-.5178 0-.9375.4197-.9375.9375 0 .5179.4197.9375.9375.9375h9.684l2.1079 2.9128c.1762.2435.4587.3879.7595.3879.3007 0 .5832-.1443.7595-.3879l2.1078-2.9128h.3507c2.2248 0 4.035-1.8132 4.035-4.042 0-2.2284-1.8102-4.0417-4.035-4.0417h-23.631c-2.2249 0-4.035 1.8132-4.035 4.042 0 2.2286 1.8101 4.0419 4.035 4.0419z"/><path d="m25.7315 43.7424c-.5178 0-.9375.4196-.9375.9375s.4197.9375.9375.9375h4.9998c.5178 0 .9375-.4196.9375-.9375v-5c0-.5179-.4197-.9375-.9375-.9375h-4.0623v-3.125h4.0623c.5178 0 .9375-.4196.9375-.9375s-.4197-.9375-.9375-.9375h-4.9998c-.5178 0-.9375.4196-.9375.9375v5c0 .5179.4197.9375.9375.9375h4.0623v3.125z"/><path d="m40.1069 35.6174c.5178 0 .9375-.4196.9375-.9375s-.4197-.9375-.9375-.9375h-4.9999c-.5177 0-.9375.4196-.9375.9375v10c0 .5179.4198.9375.9375.9375h4.9999c.5178 0 .9375-.4196.9375-.9375s-.4197-.9375-.9375-.9375h-4.0624v-3.125h4.0624c.5178 0 .9375-.4196.9375-.9375s-.4197-.9375-.9375-.9375h-4.0624v-3.125z"/><path d="m44.4819 33.7424c-.5178 0-.9375.4196-.9375.9375v10c0 .5179.4197.9375.9375.9375h4.9999c.5177 0 .9375-.4196.9375-.9375v-10c0-.5179-.4198-.9375-.9375-.9375zm4.0624 10h-3.1249v-8.125h3.1249z"/><path d="m75.9987 55.1557c-.0002-.461-.3354-.8533-.7907-.9255l-1.2935-.2052-.6173-1.4899.7692-1.0611c.2705-.3731.2296-.8875-.0962-1.2133l-2.6478-2.6475c-.3262-.3261-.8411-.3667-1.2141-.0953l-1.0589.7697-1.4892-.6167-.2059-1.294c-.0724-.4553-.465-.7902-.9259-.7902l-3.7435.0015c-.461.0002-.8536.3357-.9256.791l-.2049 1.2947-1.4879.6173-1.0598-.7692c-.3734-.271-.8883-.2303-1.214.0962l-2.6459 2.6494c-.3256.326-.366.8405-.0953 1.2133l.7697 1.06-.6167 1.4911-1.2926.206c-.4552.0725-.7901.4652-.79.9261l.0015 3.7456c.0001.461.3355.8534.7908.9255l1.2933.2052.6174 1.4898-.7692 1.0612c-.2705.3731-.2297.8875.0961 1.2132l2.6476 2.6476c.326.3259.8409.3668 1.2141.0954l1.0589-.7697 1.4891.6167.2059 1.294c.0725.4553.465.7901.9259.7901l3.7435-.0016c.461-.0002.8535-.3356.9255-.7909l.205-1.2947 1.488-.6174 1.0599.7694c.3732.271.8881.2301 1.214-.0963l2.6458-2.6493c.3257-.326.366-.8404.0954-1.2133l-.7696-1.0601.6166-1.4911 1.2926-.2059c.4553-.0725.7903-.4653.79-.9261zm-2.8943 3.1087c-.322.0512-.5942.2662-.7189.5675l-1.0176 2.4607c-.1245.3011-.0837.6454.1076.909l.6079.8373-1.5147 1.5168-.8368-.6073c-.2641-.1917-.6087-.2323-.91-.1073l-2.4576 1.0198c-.3011.125-.5156.3973-.5666.7193l-.1619 1.0225-2.1423.0009-.1626-1.0216c-.0512-.3219-.266-.5941-.5672-.7189l-2.459-1.0182c-.1155-.0479-.2373-.0713-.3587-.0713-.1951 0-.3885.0609-.5513.1793l-.8358.6075-1.5156-1.5157.6076-.8382c.1913-.2639.2318-.6081.107-.9091l-1.0189-2.4594c-.1248-.3013-.3972-.516-.7192-.567l-1.0214-.162-.0009-2.145 1.0207-.1628c.322-.0512.5942-.2662.7187-.5675l1.0176-2.4607c.1247-.3011.0838-.6454-.1077-.909l-.6079-.8373 1.5148-1.5167.8367.6072c.2641.1919.6089.2323.91.1073l2.4576-1.0198c.3012-.125.5157-.3975.5667-.7195l.1617-1.0223 2.1423-.0008.1625 1.0216c.0512.3219.266.5942.5672.7189l2.4591 1.0183c.3015.1247.646.0838.9099-.1079l.8358-.6075 1.5157 1.5156-.6076.8381c-.1913.2639-.2318.6082-.107.9092l1.0191 2.4592c.1249.3013.3973.516.7193.567l1.0215.162.0008 2.1451z"/><path d="m68.5415 56.0957c-.5177 0-.9375.4196-.9375.9375 0 1.6779-1.365 3.0429-3.0427 3.0429-1.6778 0-3.0428-1.365-3.0428-3.0429s1.365-3.0429 3.0428-3.0429c.4394 0 .863.0914 1.2589.2717.4713.2147 1.0272.0063 1.2417-.4649.2145-.4714.0064-1.0273-.4649-1.2418-.6415-.292-1.3263-.4401-2.0357-.4401-2.7116 0-4.9178 2.2061-4.9178 4.9179 0 2.7117 2.2062 4.9179 4.9178 4.9179s4.9177-2.2062 4.9177-4.9179c0-.5178-.4197-.9374-.9375-.9374z"/></g></svg>