<svg fill="none" height="88" viewBox="0 0 88 88" width="88" xmlns="http://www.w3.org/2000/svg" xmlns:xlink="http://www.w3.org/1999/xlink"><linearGradient id="a" gradientUnits="userSpaceOnUse" x1="0" x2="88" y1="0" y2="88"><stop offset="0" stop-color="#77f0ed"/><stop offset="1" stop-color="#22b8cf"/></linearGradient><clipPath id="b"><path d="m12 12h64v64h-64z"/></clipPath><path d="m70.3059.631649c4.7903 2.657331 4.9986 14.425551 5.4846 23.308651.5554 8.8831 1.3885 14.957 4.5126 23.0049 3.1241 8.048 8.6087 18.0699 7.5673 26.0419-.9719 7.972-8.4004 13.97-16.3843 14.8811-7.9144.9111-16.3843-3.1888-24.6459-3.4925-8.2615-.3037-16.3843 3.1888-23.7433 1.974-7.4285-1.2907-14.09329-7.2887-18.32822-15.0329-4.234922-7.6683-5.97055-17.007-3.887796-25.0549 2.082746-7.972 7.983876-14.7292 12.704816-21.4865 4.6514-6.8331 8.1227-13.6663 13.4684-16.01989 5.2763-2.35365 12.4965-.07593 20.7581-2.2018 8.2616-2.12586 17.7034-8.5794 22.4937-5.922061z" fill="url(#a)" opacity=".08"/><g clip-path="url(#b)" fill="#22b8cf"><path d="m74.1709 39.5218-6.42-4.8541v-21.4177c0-.6904-.5597-1.25-1.25-1.25h-44.9999c-.6904 0-1.25.5596-1.25 1.25v21.4178l-6.5773 4.973c-1.0465.7899-1.6718 2.0416-1.6727 3.3493v28.8089c0 2.3165 1.8846 4.201 4.201 4.201h55.5977c2.3165 0 4.201-1.8846 4.201-4.201v-28.8089c.0001-1.3898-.6832-2.6833-1.8298-3.4683zm-59.6699 9.8203 11.5362 8.7223-11.5362 8.7225zm13.6087 7.1552-.3586-.2711v-36.7261h32.4997v36.7261l-.3587.2711-13.2838-10.0439c-.7571-.5716-1.6576-.8736-2.6025-.8736-.0024 0-.005 0-.0076 0-.9469 0-1.8475.3021-2.6053.8743zm45.3912-7.1552v17.4445l-11.5361-8.7223zm-.8122-7.8067c.0187.0142.0378.0277.0572.0408.4727.3175.755.846.755 1.414v3.2179l-5.75 4.3474v-12.7536zm-7.4378-27.0354v37.9455l-2.5001 1.8904v-36.0858c0-.6904-.5597-1.25-1.25-1.25h-34.9997c-.6904 0-1.25.5596-1.25 1.25v36.0858l-2.5001-1.8904v-37.9455zm-50.0702 27.1356 5.0703-3.8337v12.7534l-5.75-4.3475v-3.2169c.0003-.5355.2478-1.0293.6797-1.3553zm56.619 31.8644h-55.5977c-.938 0-1.701-.763-1.701-1.701v-1.878l28.3989-21.4723c.3198-.2414.6994-.3689 1.1004-.3689h.0032c.3989 0 .7787.1276 1.0975.3684l28.3997 21.4727v1.8781c.0002.938-.763 1.701-1.701 1.701z"/><path d="m42.7796 39.5121 2.6518 2.6518c1.2176 1.1267 2.8942-.5514 1.7678-1.7679l-2.6351-2.6351c2.4054-2.2194 4.2933-3.1274 8.0505-4.6828.3858-.1597.6664-.5015.7478-.911.0815-.4095-.0469-.8327-.342-1.1279l-7.9552-7.9551c-.2952-.2952-.7187-.4237-1.1278-.342-.4095.0815-.7513.362-.911.7478-1.7437 4.2118-2.6739 6.0747-5.5502 8.951l-1.7677 1.7678c-1.462 1.4622-1.462 3.8412 0 5.3033l.8839.8839c1.391 1.4507 3.9122 1.4506 5.3032 0zm1.8319-13.346 5.3269 5.3269c-2.7072 1.1732-4.7297 2.2707-7.142 4.5002l-2.6852-2.6851c2.2297-2.4124 3.3272-4.435 4.5003-7.142zm-4.4836 12.462c-.4604.4809-1.3073.4809-1.7677 0l-.8838-.8839c-.4874-.4873-.4874-1.2803 0-1.7677l.8838-.8839 2.6517 2.6516z"/></g></svg>