<svg fill="none" height="24" viewBox="0 0 24 24" width="24" xmlns="http://www.w3.org/2000/svg" xmlns:xlink="http://www.w3.org/1999/xlink"><clipPath id="a"><path d="m0 0h24v24h-24z"/></clipPath><g clip-path="url(#a)"><path d="m20.8771 9.48877s2.4693.22702 3.0016 3.27013c.6504 3.7181-1.5297 4.6454-1.5297 4.6454s-1.4475-3.2544-1.4719-3.6205c-.0245-.366 0-4.29503 0-4.29503z" fill="#404077"/><path d="m8.08068 23.206c2.45392-.4526 3.95972-3.441 3.36312-6.6747-.5965-3.2337-3.06933-5.4881-5.52328-5.0355l-2.50402.305 1.93883 11.7437z" fill="#c5c5fe"/><path d="m5.91519 23.5479c2.45411-.4517 3.96098-3.4396 3.36569-6.6735-.59528-3.2339-3.0673-5.4893-5.52141-5.0376-2.45411.4518-3.960977 3.4396-3.365691 6.6735.595287 3.2339 3.067311 5.4893 5.521411 5.0376z" fill="#a3a3f5"/><path d="m21.7428 10.3502-.9735 1.8636-4.096-3.5384c.824-5.01518-2.9467-6.32638-3.9341-6.58087-9.21418-.29172-6.06677 14.02397-6.06677 14.02397l-5.17862-1.9541c-1.00707-9.12831 3.72414-14.526764 11.50039-13.680039 4.1363.45 6.3475 3.212589 7.5119 5.699999 1.0236 2.18948 1.2367 4.16584 1.2367 4.16584z" fill="#52528c"/><path d="m21.7428 10.3504-.9735 1.8636-4.096-3.53841c.8239-5.01517-2.9467-6.32638-3.9342-6.58086 1.0785.03362 2.3271.26793 3.7692.74844 0 0 2.1439.38276 3.9977 3.34138 1.0237 2.18949 1.2368 4.16585 1.2368 4.16585zm-21.616019 8.0175c.516413 2.7999 2.511879 4.8898 4.518099 4.5206 1.96842-.3632 3.13588-2.9754 2.6083-5.835-.52712-2.8596-2.55021-4.8832-4.51811-4.5201-.82484.1523-1.5091.6994-1.986927 1.4945-.6623796 1.1017-.92788 2.6791-.621362 4.34z" fill="#404077"/><path d="m.126782 18.368c.412914 2.2387 1.741968 3.9651 3.244238 4.4346.03249-.0045.06488-.0097.09714-.0156 1.83957-.3397 2.95092-2.6737 2.48235-5.2131-.46857-2.54-2.33933-4.3239-4.1789-3.9847-.3734.0689-.717.2202-1.023518.4388-.6623275 1.1016-.927827 2.6791-.62131 4.34z" fill="#52528c"/><path d="m19.8363 19.8018c2.3592-.4352 3.8069-3.3083 3.2334-6.4172-.5736-3.109-2.951-5.27642-5.3103-4.84121l-2.4073.29322 1.864 11.29059z" fill="#a3a3f5"/><path d="m17.2094 20.1354c2.3594-.4343 3.8081-3.3069 3.2358-6.416-.5724-3.1091-2.949-5.27749-5.3084-4.84319-2.3594.43431-3.8081 3.30679-3.2358 6.41599.5723 3.1091 2.949 5.2775 5.3084 4.8432z" fill="#c5c5fe"/><path d="m18.119 15.3871c-.1466 3.0259-3.197 3.0994-3.7578.317-.1764-.8726-.0879-1.6996.1159-2.4243 1.236-1.8619 3.7802-.7448 3.6419 2.1073z" fill="#52528c"/><path d="m16.7586 10.526c.0155.1722-.8892.4629-1.2719 1.9272-.3735.1283-.7257.3988-1.0097.8266-.2038.7246-.2922 1.5517-.1158 2.4243.0936.4644.2565.8493.4639 1.1539-.7991.764-2.1817-.21-2.086-3.151.1402-4.31897 3.8643-4.9138 4.0195-3.181z" fill="#d7d7ff"/><path d="m15.3524 14.6636c.0942 1.0976-.1525 1.8368-.527 2.1942-.2074-.3047-.3704-.6895-.464-1.154-.1764-.8726-.0879-1.6996.1159-2.4243.2839-.4278.6362-.6983 1.0096-.8266-.1448.5514-.2151 1.2699-.1345 2.2107zm-7.8567-11.87066s-1.93516 1.26724-2.81447 6.15517c-.87931 4.88789-3.749997 2.22419-1.52586-2.68965 2.22414-4.91379 4.34033-3.46552 4.34033-3.46552zm-5.16714 12.87936s2.70316 1.7199 1.70612 4.4548c-.99703 2.735-3.543102-.4545-3.232757-3.2693.310347-2.8149 1.526637-1.1855 1.526637-1.1855z" fill="#6767a3"/></g></svg>