<svg fill="none" height="24" viewBox="0 0 24 24" width="24" xmlns="http://www.w3.org/2000/svg" xmlns:xlink="http://www.w3.org/1999/xlink"><clipPath id="a"><path d="m0 0h24v24h-24z"/></clipPath><g clip-path="url(#a)"><path d="m22.7788 23.0183h-2.7907c-.2 0-.3621-.1621-.3621-.3622 0-.2.1621-.3622.3621-.3622h2.7907c.2 0 .3622.1622.3622.3622 0 .2001-.1622.3622-.3622.3622z" fill="#a4ace3"/><path d="m5.91425 7.6092-4.29812-.69822c-.07095-.01153-.14364.00372-.20397.04279-.06032.03907-.10397.09917-.12247.16862l-.26772 1.00539c-.01185.04448-.01293.09114-.00315.13612.00979.04498.03015.08698.05941.12252l3.75278 4.56068z" fill="#b8c9ea"/><path d="m21.4795 15.1045-1.1645-.9006c-.0583-.0449-.1055-.1027-.138-.1689-.0325-.0661-.0493-.1389-.0493-.2125.0101-3.3439-.9522-5.6088-1.3837-6.45542-.1161-.22778-.3507-.37048-.6064-.37048h-2.6741l-.7121-2.20891h4.6122c.2737.00006.5419.07742.7737.22316.2317.14574.4176.35395.5362.60066.6757 1.40286 1.8493 4.55579 1.5837 9.13779-.0225.3881-.4701.5931-.7777.3552zm-10.258-12.4052h-1.34539l-.83049-2.356057c-.05905-.167613.06524-.343243.2429-.343243h2.52058c.1776 0 .302.17563.2429.343195z" fill="#717ed4"/><path d="m15.4362 3.83153c-1.0276-1.10477-2.4935-1.79637-4.1213-1.79637-2.49665 0-4.61208 1.6263-5.34859 3.87679z" fill="#92e0c4"/><path d="m15.6564 3.35331-9.75642 1.99857c-.03393.00691-.06596.02104-.09393.04145s-.05121.04661-.06813.07681c-.4405.78645-3.33513 6.37286-2.74609 16.40886h14.94007l-1.806-18.17988c-.0231-.23165-.2414-.39255-.4695-.34581z" fill="#d6e0f4"/><path d="m16.1256 3.6991c-.0231-.23164-.2414-.3925-.4695-.3458l-.9673.19818c.024.04438.0401.09397.0454.14762l1.565 15.7537c.0277.2792-.1915.5213-.4721.5213h-12.90767c.01043.6162.03371 1.2508.0721 1.9049h14.94007z" fill="#b8c9ea"/><path d="m19.1187 23.9998h-17.3906c-.48005 0-.869213-.3891-.869213-.8692v-.9494c0-.48.389163-.8692.869213-.8692h17.3906c.4801 0 .8692.3892.8692.8692v.9494c0 .4801-.3891.8692-.8692.8692z" fill="#717ed4"/><path d="m19.1187 22.8491h-17.3906c-.44595 0-.812956-.336-.862936-.7685-.004024.0334-.00612.067-.006277.1007v.9493c0 .4801.389163.8692.869213.8692h17.3906c.4801 0 .8692-.3891.8692-.8692v-.9493c0-.0342-.0024-.0677-.0062-.1007-.05.4325-.417.7685-.863.7685z" fill="#5766cc"/><path d="m14.1832 10.1606h-1.3636c-.0641 0-.1255.0255-.1708.0708-.0452.0452-.0707.1067-.0707.1707v8.3451c0 .064.0255.1254.0707.1707.0453.0453.1067.0707.1708.0707h2.1926c.0337 0 .067-.007.0979-.0207.0308-.0137.0584-.0336.081-.0586.0227-.025.0398-.0545.0504-.0865.0105-.032.0142-.0659.0109-.0995l-.829-8.3451c-.0059-.0596-.0338-.1149-.0782-.1551s-.1021-.0624-.162-.0625z" fill="#a4ace3"/><path d="m12.5781 12.9743h1.0059c.2 0 .3622-.1621.3622-.3621 0-.2001-.1622-.3622-.3622-.3622h-1.0059zm1.3681 2.0451c0-.096-.0382-.1882-.1061-.2561s-.16-.1061-.2561-.1061h-1.0059v.7244h1.0059c.0961 0 .1882-.0382.2561-.1061s.1061-.16.1061-.2561zm0 2.4074c0-.0961-.0382-.1882-.1061-.2561-.0679-.068-.16-.1061-.2561-.1061h-1.0059v.7243h1.0059c.0961 0 .1882-.0381.2561-.106.0679-.068.1061-.1601.1061-.2561z" fill="#717ed4"/></g></svg>