<svg fill="none" height="24" viewBox="0 0 24 24" width="24" xmlns="http://www.w3.org/2000/svg"><path d="m16.0531 22.3012.1285-1.0289c-1.777-.9638-3.6732-.8772-5.6592 0-.62797.7942-.3432 1.9765.5857 2.3793.5082.2204 1.0573.3485 1.4676.3485h1.5525c.9785 0 1.8032-.7283 1.9249-1.6989z" fill="#f68953"/><path d="m10.6513 22.301-.1284-1.0289c-.89287-.7771-1.79456-.7623-2.70454 0l.12848 1.0289c.12169.9707.94641 1.6989 1.92483 1.6989h2.70453c-.9784 0-1.8032-.7283-1.9249-1.6989z" fill="#df6d2b"/><path d="m16.1817 21.2724.3409-2.7267c-2.0034-.9924-4.1173-.9902-6.3409 0-.64154.9089-.52791 1.8178.3409 2.7267z" fill="#df6d2b"/><path d="m10.182 18.5452c-.97998-1.0005-1.88002-.982-2.70446 0l.34083 2.7268h2.70453z" fill="#bb521d"/><path d="m10.3873 2.52755.1355.2002c2.0263.80105 3.9375.94317 5.6592 0l-.1285-1.02886c-.1217-.97064-.9464-1.69889-1.9248-1.69889h-1.5525c-.4951 0-.9028.0403594-1.2383.11475-1.0785.239109-1.5698 1.49794-.9506 2.4128z" fill="#f68953"/><path d="m10.6513 1.69889c.1217-.97064.9464-1.69889 1.9249-1.69889h-2.70453c-.97842 0-1.80314.72825-1.92483 1.69889l-.12848 1.02886c.83831.78698 1.74169.76322 2.70454 0zm-.1284 1.02886c-.86301.74297-.94438 1.65905-.3409 2.72677 2.1458.98498 4.2637 1.11604 6.3409 0l-.3409-2.72677z" fill="#df6d2b"/><path d="m7.81837 2.72754-.34083 2.72676c.77259.85411 1.66847.89133 2.70446 0l.3409-2.72676z" fill="#bb521d"/><path d="m16.6061 18.5455c1.0711 0 1.9394-.8683 1.9394-1.9394v-9.2121c0-1.07105-.8683-1.93941-1.9394-1.93941h-5.4823c-2.78625 3.74827-2.69855 9.23571.7089 13.09091z" fill="#fade65"/><path d="m11.1238 5.45459h-3.7298c-1.07105 0-1.93941.86836-1.93941 1.93941v9.2121c0 1.0711.86836 1.9394 1.93941 1.9394h4.4387c-1.8003-3.6699-2.10438-9.18327-.7089-13.09091z" fill="#ffca47"/><path d="m16 16.7275c.4015 0 .7273-.3258.7273-.7273v-7.99998c0-.40144-.3258-.72727-.7273-.72727h-5.3825c-1.73927 2.70375-1.59072 6.25375.4893 9.45455z" fill="#edebfd"/><path d="m10.6177 7.27295h-2.61748c-.40144 0-.72727.32583-.72727.72727v7.99998c0 .4015.32583.7273.72727.7273h3.10678c-.9186-2.861-1.12618-6.408-.4893-9.45455z" fill="#d1d1ef"/><path d="m16.0001 6.90918h-5.3017c-.3062.17864-.3293.42769-.1522.72727h1.0903v.72726c0 .09645.0383.18895.1065.25714.0682.0682.1607.10652.2571.10652.0965 0 .189-.03832.2572-.10652.0682-.06819.1065-.16069.1065-.25714v-.72726h3.6363c.2006 0 .3637.16312.3637.36365v3.6364h-.7273c-.0964 0-.1889.0383-.2571.1065s-.1065.1607-.1065.2571c0 .0965.0383.189.1065.2572s.1607.1065.2571.1065h.7273v3.6364c0 .2005-.1631.3636-.3637.3636h-3.6363v-.7272c0-.2009-.1628-.3637-.3637-.3637-.2008 0-.3636.1628-.3636.3637v.7272h-.6417c-.2012.2447-.1704.4864.2341.7273h4.7712c.6015 0 1.0909-.4894 1.0909-1.0909v-8.0001c0-.60154-.4894-1.09092-1.0909-1.09092z" fill="#d1d1ef"/><path d="m8.0001 16.3638c-.20053 0-.36365-.1631-.36365-.3636v-3.6364h.72726c.09645 0 .18895-.0383.25714-.1065.0682-.0682.10652-.1607.10652-.2572 0-.0964-.03832-.1889-.10652-.2571-.06819-.0682-.16069-.1065-.25714-.1065h-.72726v-3.6364c0-.20053.16312-.36365.36365-.36365h2.5461c.0449-.2436.0957-.48609.1522-.72727h-2.6983c-.60154 0-1.09092.48937-1.09092 1.09092v8c0 .6015.48938 1.0909 1.09092 1.0909h3.2288c-.0841-.2404-.1621-.4829-.2341-.7272z" fill="#bfbfe4"/><path d="m14.182 11.6362h-1.8182v-1.0909c0-.0965-.0383-.1889-.1065-.2571s-.1607-.1066-.2571-.1066c-.0965 0-.189.0384-.2572.1066s-.1065.1606-.1065.2571v1.3039l-1.273 1.273c-.1772.3647-.1783.6799.118.9105l1.6693-1.6693h2.0312c.0957-.001.1871-.0398.2545-.1079.0673-.0681.105-.1599.105-.2557 0-.0957-.0377-.1876-.105-.2557-.0673-.068-.1587-.1068-.2545-.1079z" fill="#615285"/><path d="m9.92488 13.5612c-.0682.0682-.10652.1607-.10652.2572-.00001.0964.0383.1889.1065.2571s.16074.1065.25714.1065.1889-.0383.2571-.1065l.0425-.0424c-.0464-.3026-.0857-.6062-.118-.9105z" fill="#4e3a65"/></svg>