<svg fill="none" height="24" viewBox="0 0 24 24" width="24" xmlns="http://www.w3.org/2000/svg"><g clip-rule="evenodd" fill-rule="evenodd"><path d="m17.1265 22.3398 2.64-.5387c.1375-.0281.2453-.1042.3177-.2244.0724-.1203.0893-.2511.0498-.3858-1.172-3.997-2.7707-7.7228-4.2985-11.60997l-.2366-1.52077.338-3.10917 1.0867 1.30486c.0938.11264.2192.17236.3657.17419.1466.00182.2735-.05475.37-.165l1.2435-1.41952c.1541-.17597.1617-.43041.0184-.61528l-3.1097-4.011142c-.0938-.1209847-.225-.1860003-.378-.1873597h-7.06739c-.15309.0013594-.28425.066375-.37805.1873597l-3.10973 4.011092c-.14334.18488-.13575.43931.01842.61528l1.24453 1.42074c.09661.11029.2236.16687.37022.165.14663-.00188.27211-.06174.36581-.17452l1.0854-1.30575.33792 3.10917-.23658 1.52077c-1.52784 3.88712-3.12661 7.61302-4.29853 11.60992-.03952.1348-.0226.2656.04983.3858.07242.1202.18018.1964.31771.2245l2.63991.5387-.08587.3334c-.03432.1332-.01463.2605.05831.3772s.17878.1901.31359.2176c4.7802.976 4.9014.976 9.6816 0 .1348-.0275.2406-.101.3136-.2176.0729-.1167.0925-.244.0582-.3772z" fill="#fc76a8"/><path d="m17.1267 22.3396 2.6399-.5388c.1375-.028.2453-.1042.3177-.2244s.0893-.2511.0498-.3858c-1.172-3.9969-2.7707-7.7228-4.2985-11.60994l-.2366-1.52077.338-3.10917 1.0867 1.30486c.0938.11264.2192.17236.3657.17419.1466.00183.2735-.05475.37-.165l1.2435-1.41952c.1541-.17596.1617-.4304.0184-.61528l-3.1097-4.011138c-.0938-.1209843-.2249-.186-.378-.1873593l-3.4579-.03098442v23.99881172c1.2005-.0098 2.4242-.2536 4.765-.7315.1348-.0275.2406-.101.3136-.2177.0729-.1166.0925-.2439.0582-.3771z" fill="#fc5c96"/><path d="m16.5826 23.3205.2577-.0525c.1349-.0276.2408-.1011.3137-.2179.0729-.1169.0924-.2443.0579-.3776l-2.7323-10.5476c-.0265-.0982-.0906-.182-.1785-.2332-.0879-.0511-.1924-.0655-.2909-.04-.0984.0255-.1828.0888-.2348.1762s-.0673.1918-.0428.2905z" fill="#fc76a8"/><path d="m7.15964 23.268.25772.0526 2.78944-10.7753c.0246-.0987.0092-.2031-.0428-.2905s-.1364-.1507-.23482-.1762c-.09845-.0255-.20298-.0111-.29086.04-.08789.0512-.15203.135-.17848.2331l-2.67183 10.321c-.0345.1333-.0149.2608.05794.3775.07294.1168.17883.1903.31369.2178zm3.36426-21.78441c.7595.11255 1.2768.42474 1.552.93647.2752-.51173.7926-.82392 1.5521-.93647.2126-.4507.5557-.937309 1.0292-1.4597775l-2.6571-.0238125-2.50674.0225c.47423.522938.81774 1.01002 1.03054 1.46109z" fill="#fd91ba"/><path d="m12.0757 2.41989c.2752-.51173.7925-.82392 1.552-.93646.2126-.45071.5557-.937317 1.0293-1.4597855l-2.5813-.02315622z" fill="#fc76a8"/><path d="m8.16406 9.58082h7.67144l-.2365-1.52076h-7.19836z" fill="#ffdc6e"/><path d="m12.0757 9.58082h3.7599l-.2366-1.52076h-3.5233z" fill="#ffd54f"/></g></svg>