<svg fill="none" height="466" viewBox="0 0 466 466" width="466" xmlns="http://www.w3.org/2000/svg"><path d="m428.871 183.885-11.512-78.6-25.731 2.619c-2.171-.408-6.299 1.876-7.276 4.179l-33.791 79.638c-1.045 2.47.56 5.305 2.991 5.288l9.649-.409v185.627c0 3.307 2.375 5.682 5.296 5.305l23.129 5.2c2.767-.361 28.668-14.474 28.668-17.665v-186.078l5.85-.03c2.219-.013 3.676-2.728 2.727-5.074z" fill="#919eab" opacity=".48"/><path d="m388.726 195.77-25.523.837v185.627c0 3.307 2.375 5.682 5.297 5.305l23.129 5.2c1.138-.153 6.215-2.637 11.779-5.729z" fill="#dfe3e8" opacity=".3"/><path d="m450.955 195.371-5.912.035v185.208c0 3.171-2.083 6.033-4.795 6.386l-46.337 6.068c-2.892.381-5.188-1.984-5.188-5.274v-192.026l-6.276.043c-2.406.021-3.999-2.8-2.964-5.261l35.196-83.532c1.134-2.688 4.52-2.517 5.646.281l33.398 83.012c.934 2.335-.57 5.043-2.768 5.06z" fill="#dfe3e8"/><path d="m317.468 402.93-24.164-5.673c-3.043.393-5.515-1.955-5.515-5.245v-151.632c0-3.289 2.472-6.03 5.515-6.12 16.641-.46 63.593-2.369 78.761-.246l-21.801 150.15c0 3.163-32.796 18.766-32.796 18.766z" fill="#919eab" opacity=".48"/><path d="m376.214 239.427v150.292c0 .88-.335 1.737-.655 2.525-.813 2.025-2.635 3.586-4.672 3.846l-51.203 6.71c-3.018.394-5.354-1.935-5.354-5.213v-156.078c0-3.271 2.298-5.998 5.316-6.09 7.276-.209 43.325-1.309 51.355-1.533 2.822-.1 5.213 2.39 5.213 5.541z" fill="#dfe3e8"/><path d="m236.5 413.561-25.483-5.685c-3.349.433-6.064-2.014-6.064-5.465l.77-106.25c0-3.451 2.729-6.412 6.064-6.614l56.925-3.434c3.123-.189 29.311 3.458 29.311 3.458l-24.418 104.217c-.004 3.316-33.949 19.359-37.105 19.773z" fill="#919eab" opacity=".48"/><path d="m299.729 294v105.375c0 3.306-2.371 6.308-5.467 6.709l-56.181 7.378c-3.309.435-5.798-1.993-5.798-5.43v-109.631c0-3.439 2.551-6.385 5.861-6.592 11.259-.857 44.414-2.607 56.156-3.439 3.094-.193 5.429 2.332 5.429 5.63z" fill="#dfe3e8"/><path d="m144.078 424.403-23.845-4.8c-3.701.478-6.713-2.076-6.713-5.707v-55.21c0-3.63 3.012-6.847 6.713-7.184 17.736-1.704 74.085-8.155 90.132-3.22l-21.049 56.093c0 3.482-41.749 19.573-45.238 20.028z" fill="#919eab" opacity=".48"/><path d="m216.291 353.988v56.007c0 1.082-.152 2.137-.632 3.086-1.431 3.105-4.575 4.154-7.754 4.293l-59.957 7.835c-3.663.478-6.75-2.061-6.75-5.673v-58.384c.279-7.882 9.111-7.35 14.747-7.883 7.536-.683 45.918-4.23 54.267-4.994 3.397-.308 6.079 2.248 6.079 5.713z" fill="#dfe3e8"/><path d="m89.3244 378.769-69.7706 7.286c-2.9787.307-5.5481 2.208-6.7456 4.682-1.4643.724-.432 31.663-.7216 33.368 0 3.833 3.2046 6.966 7.4672 8.493l24.654 4.956c3.873-.506 52.0077-17.826 52.0077-21.49l11.5615-14.069 11.698-20.04s-26.3382-3.584-30.1506-3.186z" fill="#919eab" opacity=".48"/><g fill="#dfe3e8"><path d="m124.511 388.044v33.678c0 3.651-3.132 7.005-6.908 7.497-9.853 1.271-58.2728 7.614-69.1234 9.029-4.0746.535-7.4034-2.116-7.4034-5.927v-35.185c0-3.805 3.3076-7.244 7.3807-7.68 5.639-.561 61.9371-6.55 69.1521-7.286 3.772-.407 6.902 2.231 6.902 5.874z"/><path d="m445.049 348.938v31.662c0 3.171-2.083 6.033-4.795 6.386l-46.337 6.068c-2.892.38-5.188-1.984-5.188-5.274v-191.694c39.923 6.439-.536 114.182 20.279 122.852 5.508 5.865 27.002 12.462 36.041 30z" opacity=".3"/><path d="m375.406 392.24c-.813 2.025-2.558 3.586-4.595 3.847l-51.165 6.709c-3.018.394-5.316-1.935-5.316-5.213v-156.078c.129-8.73 11.066-5.616 16.464-6.427 8.567 6.505 11.151 15.856 7.35 27.778-36.429 114.84 34.606 55.845 37.262 129.384z" opacity=".3"/><path d="m299.729 390.373c-.237 5.059 1.732 14.718-5.467 15.71l-56.181 7.378c-3.309.435-5.798-1.993-5.798-5.431v-109.63c0-3.439 2.551-6.385 5.861-6.592l17.4-1.074c18.921 14.142-16.771 49.304 5.942 78.841 15.653 20.356 31.289-.441 38.243 20.798z" opacity=".3"/><path d="m207.905 417.383-59.957 7.834c-3.663.479-6.75-2.06-6.75-5.673v-58.383c.259-7.87 9.127-7.359 14.747-7.884 4.75 30.428 45.398 20.384 51.96 64.106z" opacity=".3"/><path d="m102.497 431.179-54.0362 7.067c-4.0731.535-7.3807-2.116-7.3807-5.928v-35.185c.1319-8.929 11.8707-7.931 17.9857-8.797 7.6081 14.852 34.3449 14.852 43.4312 42.843z" opacity=".3"/></g><path d="m324.895 427.895s1.114 4.568 1.149 6.224-17.974 3.962-18.254 2.743c-.281-1.219 2.728-3.439 4.911-4.313 5.049-1.974 8.75-3.295 12.194-4.654z" fill="#754ffe"/><path d="m320.141 423.632 1.032 5.709s2.212 1.227 3.976 0l.429-6.341z" fill="#fdbab9"/><path d="m357.739 432.785s1.114 4.569 1.149 6.225-17.973 3.968-18.249 2.741c-.276-1.226 2.728-3.439 4.911-4.313 5.05-1.973 8.745-3.294 12.189-4.653z" fill="#754ffe"/><path d="m352.985 428.526 1.033 5.71s2.211 1.226 3.976 0l.429-6.341z" fill="#fdbab9"/><path d="m311.515 273.102-5.251 13.362c.203 42.227 4.85 96.515 12.193 139.38l8.468-1.082c3.446-8.556 7.294-21.407 6.518-36.821-.806-16.079-5.784-17.819-6.695-33.203-1.183-19.931 6.65-25.911 9.149-50.221.957-9.294 1.142-21.346-1.353-35.747z" fill="#212b36"/><path d="m334.547 268.766-12.439 2.344c-6.477 13.857-7.485 27.816-5.681 33.808 2.551 8.477 7.714 10.841 8.128 19.527.41 8.586-4.407 11.221-6.775 21.581-1.637 7.174-.55 13.558 1.695 26.036 4.926 31.239 17.062 36.557-1.763 49.165.247 1.544.493 3.092.746 4.618l8.467-1.083c3.446-8.556 7.295-21.404 6.519-36.821-.807-16.078-5.785-17.818-6.696-33.202-1.182-19.932 6.65-25.911 9.15-50.221.959-9.297 1.144-21.351-1.351-35.752z" fill="#fff" opacity=".04"/><path d="m323.367 279.902c12.458 46.106 23.21 104.928 27.892 151.601l9.348-.489c19.59-47.031-.956-57.838 1.33-100.068.94-40.497 8.724-75.916-38.57-51.044z" fill="#212b36"/><path d="m232.883 230.377s-6.847-.593-7.837-1.716c-.989-1.122-1.631-1.182-1.779-2.211-.149-1.028-3.032-.533-1.833 1.699 1.199 2.233-1.507 1.061-2.037 1.008-1.213-.125-5.879-.263-5.744.029.135.291-2.089 3.219 1.213 4.742 2.895 1.328 2.048.742 3.93.832 1.883.091 7.712-1.84 7.712-1.84l4.991.385z" fill="#fdbab9"/><path d="m228.872 227.145-.909 6.926c24.486 24.684 74.824 8.831 82.023-24.913 2.341-13.992.241-35.556-15.678-23.821-28.5 23.764-13.254 45.327-65.436 41.808z" fill="#754ffe"/><path d="m304.233 291.039c-3.376-4.753-.015-9.884.085-19.425.115-10.815-4.116-12.266-9.568-29.744-5.894-18.505-11.489-43.639 5.967-59.754 7.342-5.256 45.641-4.918 51.703-1.731.864.376 18.838 8.455 21.247 23.804-2.038 30.527-24.539 14.581-10.308 73.363 7.488 24.684-9.082 19.585-41.838 18.493-10.29-.641-14.77-1.458-17.288-5.006z" fill="#754ffe"/><path d="m340.134 242.563c1.422 3.997 5.609 6.729 9.145 16.445.758 2.097 6.199 17.034 1.017 21.239-2.994 2.429-6.162-1.456-13.886-1.371-16.111.307-22.062 17.811-33.606 5.731-.169 9.966 5.644 10.411 18.718 11.444 26.252 1.645 39.378 2.469 43.095-4.446 1.543-2.872.586-5.116-1.254-14.039-1.915-9.293-4.867-23.611-4.599-33.117 1.417-24.875 25.77-30.051 10.12-51.137-20.775 10.526-33.216 36.693-28.75 49.251z" fill="#1c0f79" opacity=".2"/><path d="m382.348 290.859s4.18 1.42 4.623 8.424c-.682-.062-2.274-.025-2.274-.025s.296-5.092-2.681-6.123c.239-.592.332-2.276.332-2.276z" fill="#fdab76"/><path d="m366.842 290.197.318 3.868c4.651-1.578 10.999-1.65 15.548-.336.628-.506.573-2.935.293-3.188-4.996-2.106-11.645-1.867-16.159-.344z" fill="#fa541c"/><path d="m366.642 291.305c-.027-.941.212-1.639.631-.515.2.229.218 2.771.085 2.824-.311 1.451-.783-1.337-.716-2.309z" fill="#b3200e"/><path d="m362.75 299.409c.887.176 3.032.698 3.032.698s-1.402-4.546 1.241-6.601c.185-.559.062-2.138-.26-2.729-1.112.621-3.561 2.734-4.013 8.632z" fill="#fdab76"/><path d="m344.209 300.414s.111-2.406 3.879-2.363c.593.445.623 2.409.623 2.409z" fill="#770508"/><path d="m340.85 347.782 10.315 6.154 6.194-23.245-10.229-31.113-2.921.839c.523.78-6.299 48.531-3.359 47.365z" fill="#fa541c"/><path d="m347.13 299.578 54.866.581 8.339 47.794-59.17 5.983z" fill="#b3200e"/><path d="m348.087 298.049c-.72-.083-2.232.05-3.048.86 2.976-1.256 3.061 2.713 3.241 4.681.282 2.929 2.015 21.136 2.015 21.136.128 1.533 1.273 2.691 2.624 2.655 1.393-.499 50.654-2.218 51.877-3.314 2.175-.22-2.021-22.024-1.711-23.305-.214-1.211-1.122-2.089-2.177-2.102z" fill="#770508"/><path d="m348.65 298.06c-.794-.026-2.142-.13-2.986.42 2.844-.634 2.941 2.823 3.183 5.118.282 2.928 2.013 21.13 2.013 21.13.129 1.533 1.274 2.689 2.623 2.654 1.411-.49 51.165-.589 52.402-1.749 2.255-.046-2.577-23.679-2.266-24.868-.213-1.213-1.121-2.09-2.176-2.102z" fill="#fa541c"/><path d="m382.512 330.362c-10.732 2.824-7.945 2.883-8.706-7.252-.045-1.195.94-1.619 1.89-1.496l6.467.836c.615-.011 1.132-.35 1.161.4l.262 7.094c.029.751-.46.362-1.074.418z" fill="#b3200e"/><path d="m382.999 331.411-7.125.651c-.687.063-1.278-.542-1.308-1.346l-.284-7.603c-.03-.805.514-1.472 1.204-1.484l7.144-.121c.614-.011 1.137.595 1.165 1.346l.263 7.093c.029.749-.445 1.409-1.059 1.464z" fill="#fdab76"/><path d="m374.387 280.496s-.606 4.012-1.198 4.391c-.591.379-2.469 2.499-2.095 3.862.375 1.363-1.049 4.472 1.609 5.227 2.657.754 5.711 1.559 6.019-.85.282-4.043-1.259-7.951.758-11.267z" fill="#fdbab9"/><path d="m349.279 179.184c-8.387 44.838 17.314 42.4 25.751 67.412 1.547 9.426 2.22 28.011-2.328 34.037 4.093 1.654 4.529 1.562 7.623 1.562 27.011-29.452 24.184-86.594-31.046-103.011z" fill="#754ffe"/><path d="m338.214 179c-11.055-2.926-13.546-5.347-15.007-16.074 0 0-5.892 1.584-5.03 4.662.863 3.079-.606 10.138-3.988 11.714-2.368 1.104-5.305 1.547-5.937 2.284-.846.25.92 2.68 6.989 6.133 21.281-3.523 24.043-6.485 22.973-8.719z" fill="#fdbab9"/><path d="m315.332 161.486c-2.729-2.312-3.109-2.578-3.455-3.425-1.384-3.404.91-8.405 4.336-9.866.179-.077 2.474-1.031 3.454-.069.834.815-.194 2.118.475 3.768.626 1.544 1.993 1.552 4.675 3.425 2.208 1.543 3.58 2.502 3.996 3.974.858 3.036-2.48 7.806-5.761 7.948-1.176.045-1.543-.542-7.72-5.755z" fill="#1c0f79"/><path d="m322.774 167.733s-2.45 3.302-6.632 2.606c-3.746-.613-3.487-9.217-.91-10.798 2.009-1.087 3.813-.112 5.986.978 1.142.422 1.486.322 1.81.658.406.418.643 1.38-.333 3.8 3.136-2.302 4.211 1.98.079 2.756z" fill="#fdbab9"/><path d="m321.008 187.003s-1.187 6.412-3.043 6.536c-1.078.07-2.151.196-3.216.376l-2.077-7.841s2.706 2.231 8.336.929z" fill="#4027b6"/><path d="m318.846 193s4.129 46.899 18.606 54.407c-.371 1.502 0 13.703 0 13.703s-13.491-4.11-14.263-3.833c-.771.278-16.344-25.835-8.44-63.36z" fill="#1c0f79"/><path d="m208.012 231.824s5.608-4.999 6.744-6.823c1.135-1.825 1.167 1.752.03 2.474-1.137.723 16.038-1.686 13.011 1.33-3.027 3.015-5.209 5.852-9.274 6.042-10.575.305-10.331 5.536-10.511-3.023z" fill="#fdbab9"/><path d="m97.0055 197.008c-55.2138 23.014-18.2253 105.142 35.2025 67.543 2.552-2.943 3.898-6.204 4.653-8.943l-2.881-7.751c-3.519-4.293-8.311-5.315-10.87-5.953-6.309-1.571-11.066 1.269-14.684-1.806-1.999-1.703-2.397-4.153-2.751-6.343-1.213-7.454 2.951-12.043 3.254-16.641 1.351-8.342-.556-19.105-11.9235-20.106z" fill="#fa541c"/><path d="m88.8211 444.096c-.2441-1.365-4.6022-2.607-6.7608-.767-1.0702.908-1.8084 2.748-1.1884 3.579.2243.306-.6988.834.1864.844 2.9363.03 8.0068-2.299 7.7628-3.656z" fill="#fa541c"/><path d="m84.2539 444.595-4.4824-.641c2.0767-2.528 1.6932-10.579 1.6932-10.579l4.7659 1.073c-.1046.609-2.239 7.352-1.9767 10.147z" fill="#fdbab9"/><path d="m84.651 444.028s-5.395-1.257-5.9786-.174c-.5836 1.082-1.0368 3.986 2.386 3.888s3.8973-2.795 3.5926-3.714z" fill="#fa541c"/><path d="m150.318 449.21c-.431-1.315-4.918-1.922-6.8.194-.936 1.05-1.412 2.977-.682 3.711.263.269-.576.92.303.81 2.909-.38 7.608-3.405 7.179-4.715z" fill="#fa541c"/><path d="m145.864 450.352h-4.526c1.707-2.798.211-10.715.211-10.715l4.869.389c-.017.616-1.199 7.596-.554 10.326z" fill="#fdbab9"/><path d="m157.596 277.224c16.371 48.933 2.577 67.4 3.009 119.054.7 14.308-12.251 47.302-13.394 48.03-2.179.18-3.667.052-6.353-.697-11.744-14.825-5.576-41.775-7.58-68.656-.11-2.964-7.612-57.699-7.612-57.699-2.668 48.053-20.161 105.436-39.5051 120.075-.2425.101-2.4723.92-4.2959-.296-.4702-.302-.8473-.731-1.0884-1.239-.6351-.503.188-42.813 7.4383-74.654 10.5231-46.218 5.9407-57.034 9.2741-77.674 2.886-17.868 60.107-6.244 60.107-6.244z" fill="#212b36"/><path d="m160.403 284.206c-10.412 7.206-45.987 10.732-62.9204-.739 4.5094-11.289 1.5447-24.378-.7806-31.257-4.1217-14.523-11.4584-43.008-6.6046-50.327 6.9881-10.628 47.7256-12.589 56.8756-3.135.151.141-1.659 1.12-.758 2.175 17.267 16.982 18.608 68.078 14.188 83.283z" fill="#fa541c"/><path d="m146.182 449.74s-5.518-.481-5.945.673c-.428 1.155-.476 4.089 2.901 3.511s3.471-3.319 3.044-4.184z" fill="#fa541c"/><path d="m132.974 185.4c2.729-5.01.534-11.16-.909-13.23l-.936-.998c-.662-.533-3.133-1.249-3.718-1.3-1.667-.084-5.075 5.979-7.024 15.332-1.12 2.362-2.114 4.783-2.979 7.252-20.1611 1.628-13.864 4.987-1.745 7.315 15.647 1.763 33.719-3.853 10.297-6.431l.628-4.495c.726-.164 4.886-.877 6.386-3.445z" fill="#fdbab9"/><path d="m135.099 169.44c-.758 2.853-2.897 5.544-3.704 5.852-.021-.014-1.238.595-1.57 1.148-1.093 1.633 1.178 4.514.42 5.171-.55.479-2.274-.821-2.629-.378-.341.417.998 1.84.607 2.335-.303.379-1.178-.279-1.971.211-.442.307-1.375 2.325-2.014 2.802-1.418 1.413-4.343 1.28-4.7.459-.031-.708.266-1.073-.125-2.417-1.306-2.737-4.885-5.245-5.073-8.526-.256-2.453.56-5.711 2.094-7.513 2.407-2.76 5.545-.297 9.271-2.672 4.299-2.742 3.623-8.257 5.58-8.318 2.154-.061 5.223 6.568 3.814 11.846z" fill="#770508"/><path d="m129.407 180.667c-.438-1.148-1.893-.572-2.228.67-.428 3.71 4.156 4.316 2.228-.67z" fill="#fdbab9"/><path d="m129.394 178.438c.531.794 1.601 5.826 3.487 4.455 1.132-.935 1.338-.853 1.376-.79.038.114.032-.599.05-1.119.91 2.904 1.528 8.336-3.354 8.655 0 0-.631-.023-3.021-1.145 7.211-2.486.982-2.972 1.462-10.056z" fill="#770508"/><g fill="#770508" opacity=".2"><path d="m99.7156 273.814c-.0425.001-.0845-.008-.1235-.026-.0389-.017-.0737-.042-.1023-.074s-.0503-.069-.0636-.11-.018-.084-.0137-.127c.8245-7.499-.7125-12.951-2.0692-17.759-2.4163-9.27-3.4001-13.087-5.448-20.638-.1001-.368.4835-.541.579-.153 2.0343 7.834 2.1329 7.439 4.5234 17.207 1.5113 6.741 4.5583 12.848 2.7179 21.68z"/><path d="m160.403 284.206c-10.412 7.206-45.986 10.732-62.9201-.739.6064-1.858 1.0823-3.617 1.4507-5.279 12.8984 9.138 18.2934.25 26.6234-1.84 8.666-2.175 19.812 2.346 13.027-17.9-6.785-20.245 4.476-18.772 4.476-18.772l18.508 3.204c2.031 19.394.395 35.716-1.165 41.326z"/></g><path d="m208.127 231.046c2.526 1.787 3.881 4.216 4.584 5.766-23.511 52.942-99.621 16.466-77.688-32.827.843-1.273 3.617-5.463 7.922-5.944 2.718-.307 6.42.831 12.267 7.755 12.183 14.427 7.882 23.436 15.076 27.657 10.795 6.329 26.833-10.198 37.839-2.407z" fill="#fa541c"/><path d="m224.331 227.318s-1.274-2.473-3.046-1.261c-1.772 1.211-4.258 2.045-2.602 2.474 1.655.429 5.648-1.213 5.648-1.213z" fill="#fdbab9"/><path d="m149.058 91.8828-12.773 22.3842-21.801-11.733 3.831 14.476 21.798 11.726 12.776-22.375z" fill="#754ffe"/><path d="m295.296 57.3728-16.779-6.8319c-47.034-63.1487-152.282-11.2428-136.341 65.4941.544 2.828-1.334 5.673-4.196 6.346-6.67 1.334-6.638-6.514-7.234-11.097-10.21-93.5378 121.72-139.8246 164.55-53.9112z" fill="#754ffe"/><path d="m287.396 112.91 12.772-22.3858 21.801 11.7348-3.83-14.4762-21.798-11.7242-12.776 22.3737z" fill="#fdab76"/><path d="m290.312 153.059c-35.504 54.275-120.634 53.306-148.873-5.084l17.762 7.879c48.004 60.886 150.843 8.609 135.08-67.1044-.544-2.8257 1.332-5.6652 4.196-6.3444 6.67-1.3384 6.633 6.5176 7.233 11.0972 2.2 20.7406-3.157 41.6386-15.398 59.5566z" fill="#fdab76"/><path d="m276.477 104.083c-1.925 85.586-124.636 71.831-123.566-8.4329 3.096-86.90839 123.876-71.2377 123.566 8.4329z" fill="#ffab00"/><path d="m285.506 101.176c-1.925 85.586-124.637 71.832-123.565-8.432 3.09-86.90999 123.876-71.2363 123.565 8.432z" fill="#ffd666"/><path d="m282.885 100.994c-1.841 81.702-118.951 68.533-117.923-8.0448 2.945-82.9284 118.213-68.012 117.923 8.0448z" fill="#ffab00"/><path d="m281.005 100.866c-1.781 78.927-114.89 66.177-113.894-7.7698 2.842-80.0858 114.172-65.7061 113.894 7.7698z" fill="#ffd666"/><path d="m225.639 49.2652c4.197.4354 2.728 6.2998 2.969 9.0948 5.812.6665 11.54 1.9365 17.094 3.79.706.2371 1.312.7055 1.724 1.331s.606 1.3723.55 2.1217l-.699 7.2167c-.961 4.8939-5.817.992-8.67.4171-3.253-.9773-6.605-1.5811-9.991-1.8v16.4817c8.563 2.424 14.855 5.6835 18.916 9.7832 14.434 16.6316 2.307 37.8056-19.606 37.9016-.349 2.706 1.458 9.368-2.973 9.287-4.437-.181-2.728-6.65-3.031-9.454-6.89-.253-13.432-1.116-19.896-3.01-1.493-.436-2.518-1.875-2.381-3.42l.821-9.277c.179-2.006 2.171-3.172 4.055-2.42 2.178.871 4.405 1.611 6.67 2.216 3.494.934 7.067 1.538 10.672 1.804l.053-18.333c-8.221-2.058-14.361-5.105-18.418-9.1413-4.063-4.0548-6.096-9.2395-6.102-15.5541.107-14.6189 11.007-20.4036 25.259-20.3745.311-2.5619-1.369-8.9768 2.984-8.6609zm-2.982 22.0011c-4.501.3251-8.046 2.4408-8.071 7.0649 0 1.9615.657 3.6004 1.971 4.9169s3.347 2.3657 6.098 3.1477zm5.269 33.1977v16.813c2.762 0 4.881-.664 6.358-1.993 2.918-2.453 2.931-8.478.151-11.192-1.37-1.473-3.54-2.682-6.509-3.628z" fill="#ffab00"/><path d="m215.992 108.52c6.366-30.9335 35.822-37.3928-1.516-69.8794-76.41 10.832-51.705 125.9344 20.573 116.5034-12.712-12.793-20.655-30.661-19.057-46.624z" fill="#b76e00" opacity=".16"/></svg>