<svg fill="none" height="466" viewBox="0 0 466 466" width="466" xmlns="http://www.w3.org/2000/svg"><path d="m426.257 310.321c-31.565 35.823-84.248 32.287-84.134 49.171.128 18.642 64.357 21.785 65.556 39.333 1.623 23.779-112.775 69.506-232.205 50.782-41.146-6.451-80.1022-12.683-113.7081-43.046-92.0935-83.206-24.6455-259.341-13.653-288.495 21.7256-57.6182 48.6393-76.1953 56.9571-81.9919 43.317-30.12392 93.161-25.1735 137.668-20.7527 33.702 3.346 84.174 9.0407 130.245 47.0303 7.857 6.4852 25.188 21.8738 40.805 46.2983 37.945 59.339 54.715 153.736 12.469 201.671z" fill="#919eab" fill-opacity=".08"/><path d="m101.847 301.455s-1.389 3.183-1.337 3.725c.001.006.001.012 0 .017.104 1.081.961 1.912 1.977 1.853 2.95-.166 8.591-.588 11.531-1.501 4.097-1.272-9.972-4.569-9.972-4.569z" fill="#1c0f79"/><path d="m101.938 296.744.227 5.392s.819 1.302 2.834-.352l1.081-5.733z" fill="#fdbab9"/><path d="m112.165 196.407c-2.366 1.328-4.42 3.149-6.022 5.339-6.2536 8.553-2.416 17.841-2.731 32.572-.437 20.439-8.263 23.076-7.3612 42.447.3502 7.222 1.7639 14.353 4.1952 21.162l7.579-1.005c1.165-12.549 4.261-31.963 13.816-53.168 9.986-22.163 21.293-33.551 16.785-42.141-3.729-7.104-17.188-10.22-26.261-5.206z" fill="#4027b6"/><path d="m138.426 201.613c-3.729-7.103-17.187-10.22-26.26-5.207-.335.186-.647.382-.956.578 6.596 11.205 6.714 18.89 5.239 24.088-1.507 5.319-4.66 7.96-5.404 15.643-.825 8.55 2.625 9.998 1.303 16.948-1.66 8.746-7.518 8.567-9.126 17.14-1.527 8.142 3.058 12.062.185 17.32-1.104 2.023-2.876 3.439-4.8465 4.446.5575 2.038 1.1411 3.837 1.6815 5.361l7.579-1.005c1.165-12.551 4.261-31.963 13.816-53.17 9.991-22.164 21.296-33.552 16.789-42.142z" fill="#1c0f79" opacity=".24"/><path d="m144.512 303.568s-1.389 3.184-1.337 3.726v.017c.102 1.081.959 1.911 1.975 1.853 2.951-.166 8.592-.589 11.532-1.501 4.098-1.273-9.972-4.569-9.972-4.569z" fill="#1c0f79"/><path d="m143.396 298.879 1.37 5.514s.82 1.302 2.834-.352l-.056-5.853z" fill="#fdbab9"/><path d="m124.271 199.614c-6.073 6.266 1.6 28.401 5.546 39.787.884 2.472 1.531 5.022 1.932 7.615.823 5.346.337 9.236.133 12.242 0 0-.525 7.721 1.343 18.684.905 5.312 3.067 13.358 8.925 22.59l6.892-1.201c.083-9.955.348-26.171 1.303-46.255 1.562-32.84 4.339-62.805.926-63.476-1.121-.22-1.389 3.033-4.842 6.007-7.911 6.825-17.521-.777-22.158 4.007z" fill="#1c0f79"/><path d="m130.003 121.754c-7.81.463-33.9193 2.849-49.192 20.104-3.6117 4.081-12.4764 14.096-8.2409 22.878 4.0826 8.463 19.2612 13.555 37.2619 10.731l3.637-4.6c-9.949-1.016-16.8309-5.677-17.2695-10.54-.3783-4.249 4.2615-7.672 6.5905-9.39 7.932-5.852 17.93-5.734 21.356-5.558 1.954-7.875 3.906-15.75 5.857-23.625z" fill="#fa541c"/><path d="m197.203 85.7904c3.047-1.9587 3.25-7.0748.453-11.4272-2.798-4.3524-7.536-6.2929-10.583-4.3342-3.048 1.9587-3.251 7.0748-.453 11.4272 2.797 4.3524 7.535 6.2929 10.583 4.3342z" fill="#1c0f79"/><path d="m155.764 104.678 30.368-31.1133c.194-.1998.432-.3509.696-.441.263-.0902.544-.1168.82-.0778 2.424.349 8.801 2.0274 9.076 10.0367.011.3273-.067.6514-.226.9374-.16.286-.394.523-.679.6855l-38.162 21.5715z" fill="#1c0f79"/><path d="m157.822 104.705c.547.849.507 1.852-.088 2.231-.594.378-1.521 0-2.067-.846-.547-.847-.507-1.853.088-2.232.594-.378 1.52-.004 2.067.847z" fill="#4027b6"/><path d="m183.991 98.5567-5.426-4.095s2.701-.7998 1.739-4.8037 1.658-3.2303 1.745 0c.086 3.2303.926 5.4507.926 5.4507l3.311 2.3856z" fill="#fdbab9"/><path d="m152.649 114.104c1.202-2.145.589-4.548.45-5.068-.578-2.173-.782-2.5-1.197-2.954l-.588-.593-.076-.051c-.405-.264-1.905-.675-2.227-.684-1.028-.026-3.032 3.706-4.096 9.41-.093.205-.184.414-.275.617-.168.388-.284.675-.293.697-.187.449-1.271 2.12-2.451 3.127-2.722 2.316-8.991 3.706-8.939 4.718.048.947 5.548 1.597 10.988 1.478 3.843-.083 10.377-.608 10.491-1.975.114-1.366-6.43-1.987-5.661-6.545.077-.446 2.99-.598 3.874-2.177z" fill="#fdbab9"/><path d="m153.726 104.377c-.428 1.745-1.698 3.409-2.191 3.607-.294.136-.564.318-.8.539-.06.053-.112.114-.154.182-.649 1.007.787 2.724.332 3.135-.332.298-1.405-.464-1.622-.193-.216.27.64 1.098.405 1.409-.178.235-.727-.154-1.207.155-.24.154-.223.326-.573.889-.18.298-.387.58-.618.84-.851.879-2.65.84-2.88.351-.063-.136.039-.213.037-.618-.012-.288-.064-.573-.154-.846-.212-.673-.964-1.299-1.674-2.126-1.317-1.534-1.515-2.616-1.564-2.979-.019-.128-.025-.224-.031-.293-.103-1.39.352-3.277 1.211-4.299 1.439-1.712 3.397-.261 5.656-1.757 2.6-1.727 2.106-5.0649 3.307-5.1298 1.331-.0756 3.308 3.9098 2.52 7.1338z" fill="#770508"/><path d="m150.389 111.279c-.285-.691-1.17-.32-1.358.438-.189.758.358 1.73 1.108 1.751.751.022.635-1.258.25-2.189z" fill="#fdbab9"/><path d="m120.796 123.92c3.367-2.445 8.727-2.906 19.455-3.661 8.054-.568 15.542-.261 20.026-.065 9.738.425 13.319 1.186 19.497-.365 4.358-1.094 9.342-2.344 10.798-6.09 1.601-4.115-1.485-10.137-7.762-14.8007l3.789-3.0789c2.302.5064 9.641 2.4258 14.794 9.2646 4.478 5.948 6.708 14.621 3.831 22.016-2.58 6.64-8.352 9.904-17.042 14.831-9.728 5.52-11.811 3.845-15.894 8.019-3.088 3.159-4.632 9.774-7.566 22.875-1.66 7.383-2.815 13.589-5.559 23.051-2.625 9.044-3.568 10.256-4.584 11.185-4.862 4.447-10.069 1.168-24.459 3.228-9.186 1.315-9.11 2.933-17.26 3.477-7.524.499-15.433 1.024-20.1132-4.222-3.9606-4.439-3.3368-10.77-3.2287-11.672.8122-6.772 5.7487-9.718 10.5539-15.768 4.314-5.432 6.291-11.816 10.244-24.584 6.76-21.87 3.631-28.669 10.48-33.64z" fill="#fa541c"/><path d="m206.147 116.07c-.801 3.111-2.212 6.031-4.15 8.592-6.691 8.718-18.774 11.31-25.081 12.661-11.448 2.462-18.412.539-20.611 4.722-2.071 3.939 3.344 7.086 2.731 14.154-.738 8.52-9.025 8.801-14.154 19.61-5.267 11.117-.65 19.505-5.959 22.598-3.59 2.09-6.127-1.503-14.155-2.236-14.624-1.336-22.107 9.136-29.0537 5.464-1.7526-.926-3.8232-2.943-5.0493-7.844-.6018 1.303-.9932 2.693-1.1596 4.118-.1081.902-.7319 7.233 3.2287 11.672 4.6802 5.25 12.5889 4.721 20.1139 4.222 8.148-.542 8.074-2.162 17.26-3.477 14.389-2.06 19.596 1.219 24.458-3.228 1.016-.926 1.958-2.141 4.585-11.185 2.75-9.469 3.905-15.668 5.559-23.051 2.947-13.101 4.477-19.716 7.566-22.875 4.082-4.169 6.158-2.499 15.893-8.019 8.69-4.927 14.462-8.198 17.042-14.831 1.393-3.538 1.589-7.375.936-11.067z" fill="#b3200e" opacity=".24"/><path d="m318.428 32.1613c18.712-9.277 36.554-6.7756 45.462-2.8335 10.532 4.6602 14.025 8.1576 23.348 9.9178 8.287 1.5642 16.89-8.6006 23.349-1.4175.602.6452 1.129 1.3564 1.572 2.1201 4.632 7.9969-.841 17.6568.673 34.5339.772 8.6346 2.645 11.0311 4.377 27.6259.658 6.31.521 7.24.337 7.97-2.83 11.198-25.282 9.081-41.084 4.25-21.784-6.662-28.799-17.8331-43.104-12.751-6.598 2.345-11.613 7.033-14.823 10.626 1.465-26.5586-1.566-53.4769-.107-80.0417z" fill="#754ffe"/><path d="m318.665 243.14c-.108 0-.214-.021-.314-.062-.099-.042-.189-.102-.265-.178s-.137-.167-.178-.266c-.041-.1-.062-.206-.062-.314v-217.8283c-.004-.1105.013-.2209.052-.3245s.099-.1982.175-.2781c.077-.0799.169-.1436.271-.187.101-.0435.211-.0659.322-.0659.11 0 .22.0224.322.0659.101.0434.193.1071.27.187.076.0799.136.1745.175.2781s.057.214.052.3245v217.8283c0 .218-.087.426-.24.58-.154.154-.363.24-.58.24z" fill="#4027b6"/><path d="m347.108 427.339-86.356-3.519v-188.987l86.356-3.581z" fill="#b3200e"/><path d="m409.772 423.126-62.665 4.213v-196.087l62.665 4.611z" fill="#fdab76"/><path d="m250.318 433.85-83.373-3.796v-158.868l83.373-2.733z" fill="#b3200e"/><path d="m323.245 428.946-72.927 4.904v-165.397l72.927 3.829z" fill="#fdab76"/><path d="m136.45 441.506-79.8631-4.119v-130.632l79.8631-1.642z" fill="#b3200e"/><path d="m222.383 435.726-85.934 5.78v-136.393l85.934 2.567z" fill="#fdab76"/></svg>