<svg fill="none" height="467" viewBox="0 0 467 467" width="467" xmlns="http://www.w3.org/2000/svg"><path d="m359.356 364.234c-.005 1.549-.623 3.032-1.718 4.127-1.095 1.094-2.579 1.711-4.128 1.715h-316.2273c-1.5487-.004-3.033-.62-4.1288-1.715-1.0958-1.094-1.714-2.578-1.7197-4.127l-2.6323-181.726c0-3.214 3.7858-9.488 10.723-9.017l309.0531-7.995c8.172-.378 15.495 6.885 15.121 15.076z" fill="#c4cdd5"/><path d="m377.031 385.161h-356.8558c-2.1145-.006-4.1406-.849-5.6362-2.343-1.4956-1.495-2.3393-3.521-2.3469-5.635.0064-2.115.8494-4.142 2.3452-5.638 1.4957-1.496 3.5226-2.339 5.6379-2.345h356.8558c2.115.006 4.142.849 5.638 2.345 1.495 1.496 2.339 3.523 2.345 5.638-.008 2.114-.851 4.14-2.347 5.635-1.496 1.494-3.522 2.337-5.636 2.343z" fill="#c4cdd5"/><path d="m44.8216 201.278-1.0098-86.846c-.0131-1.147.2231-2.283.6922-3.329s1.16-1.978 2.0248-2.732c.8648-.753 1.883-1.309 2.9839-1.63 1.101-.32 2.2585-.398 3.3925-.228l23.5686 3.568c1.8725.284 3.5812 1.23 4.8159 2.666 1.2346 1.437 1.9134 3.268 1.9132 5.162v79.184z" fill="#b195fe"/><path d="m353.579 358.628c-.004 1.466-.588 2.871-1.625 3.907-1.037 1.037-2.441 1.621-3.907 1.625h-303.1379c-1.4657-.004-2.8702-.588-3.9064-1.625s-1.62-2.441-1.6238-3.907l-2.4863-164.971c.2943-9.929 8.9977-13.497 14.2742-13.286l296.2052-7.947c5.743-.268 10.891 4.841 10.618 10.599z" fill="#f4f6f8"/><path d="m175.54 290.886-28.661-21 28.733-23.323c1.969-1.541-.507-4.632-2.441-3.008l-30.685 24.904c-.228.188-.41.426-.533.695s-.183.562-.175.858c.007.295.082.585.217.848.136.262.33.49.567.667l30.683 22.494c1.991 1.493 4.351-1.665 2.295-3.135z" fill="#919eab"/><path d="m236.334 268.46-30.683-24.904c-1.926-1.613-4.422 1.45-2.443 3.008l28.733 23.322-28.656 21.001c-.209.149-.386.338-.521.556-.134.218-.225.461-.265.714-.041.253-.031.512.029.761.061.249.169.484.321.69.151.207.342.382.562.514.219.133.462.221.716.258.253.038.512.025.76-.037.249-.063.482-.175.688-.328l30.683-22.494c.235-.177.428-.405.563-.667s.209-.551.217-.845c.007-.295-.053-.587-.174-.855-.122-.269-.303-.506-.53-.694z" fill="#919eab"/><path d="m194.842 238.049c-.25-.047-.507-.044-.756.008s-.485.153-.695.297c-.21.143-.39.327-.529.54s-.234.451-.281.701l-11.334 60.23c-.047.25-.044.507.008.756s.153.485.297.696c.143.21.327.39.54.529s.451.235.701.282.507.045.757-.007c.249-.053.485-.153.695-.297.211-.143.39-.327.53-.54.139-.213.235-.451.282-.702l11.331-60.238c.094-.504-.017-1.025-.306-1.448-.29-.422-.736-.713-1.24-.807z" fill="#919eab"/><path d="m101.82 329.928 171.884-.751c.391-.004.778.071 1.139.218.362.148.691.366.967.641.277.276.496.604.644.965.149.361.224.748.222 1.138l-.366 60.165c-.002.393-.083.781-.237 1.142s-.38.688-.662.96c-.283.273-.617.487-.983.628-.366.142-.757.209-1.15.197-15.155-.453-170.501-2.446-173.473-2.321-2.9338.124-1.3401-47.382-.9022-60.139.0259-.758.3438-1.478.8874-2.007.5438-.53 1.2708-.829 2.0298-.836z" fill="#fdab76"/><path d="m101.82 329.93 171.884-.752c.391-.003.778.071 1.139.219.362.147.691.365.967.641.277.275.496.603.644.964.149.361.224.748.222 1.139l-.366 60.165c-.002.392-.083.781-.237 1.142s-.38.687-.662.96c-.283.273-.617.486-.983.628-.366.141-.757.208-1.15.196-15.155-.452-170.501-2.445-173.473-2.321-2.9338.124-1.3401-47.381-.9022-60.138.0259-.759.3438-1.478.8874-2.008.5438-.53 1.2708-.829 2.0298-.835z" fill="#fff" opacity=".48"/><g fill="#fdab76" opacity=".24"><path d="m205.573 347.54c-.257 15.055-22.65 15.052-22.906 0 .258-15.054 22.652-15.052 22.906 0z"/><path d="m234.037 347.54c-.256 15.055-22.65 15.052-22.906 0 .256-15.054 22.653-15.052 22.906 0z"/><path d="m262.502 347.916c-.259 15.054-22.652 15.052-22.906 0 .256-15.054 22.65-15.052 22.906 0z"/></g><path d="m200.927 345.117c2.029 4.676-1.675 10.263-6.806 10.151-9.907-.204-9.533-15.002.371-14.703v-1.866c-12.355-.256-12.726 18.186-.368 18.426 6.446.143 11.087-6.894 8.514-12.76z" fill="#fa541c"/><path d="m226.381 354.141c-11.409 6.021-16.461-13.226-3.548-13.571v-1.866c-16.05.567-9.745 24.442 4.472 17.057z" fill="#fa541c"/><path d="m257.189 352.056c-3.693 5.892-13.693 2.958-13.439-4.135 0-.997.204-1.983.597-2.9.394-.916.969-1.742 1.692-2.429.722-.687 1.577-1.22 2.512-1.567.934-.347 1.93-.5 2.926-.45v-1.867c-1.241-.049-2.479.152-3.64.593s-2.221 1.112-3.117 1.972-1.608 1.892-2.095 3.035c-.487 1.142-.739 2.371-.739 3.613-.185 8.926 12.012 12.58 16.813 5.229z" fill="#fa541c"/><path d="m66.1813 362.679s-.4163 2.362-.6221 4.697c-.0183.217.0075.435.0759.642.0683.207.1778.397.3218.561.1439.163.3195.295.516.389.1965.093.4099.146.6273.155 1.7398-.213 13.4008 1.23 12.6255-.443.4379-.564-11.3667-5.408-11.6012-5.688z" fill="#1c0f79"/><path d="m65.8425 361.291.335 2.824s1.9288.897 3.2449-.113l-.7992-3.149z" fill="#fdbab9"/><path d="m66.0967 308.18c-.6246.809.1268 37.896 2.7567 53.62-.5193.134-3.4794 1.422-4.0681-.04-1.1032-3.753-6.3845-22.545-7.0737-40.497-.7705-20.061 0-.685 0-.685l.4523-12.4z" fill="#1c0f79"/><path d="m53.5298 363.909s-.6629 1.197-1.3066 4.363c-.0278.134-.0271.273.0023.408.0293.134.0866.261.168.371.0815.111.1853.204.3048.272s.2519.11.3888.124c1.0649-.142 4.8578 1.155 4.8506-.869-.1412-1.158-.5791-3.054-1.9312-4.532z" fill="#1c0f79"/><path d="m52.949 360.276.7873 4.271s.7729.577 2.3068.161l-.3757-4.597z" fill="#fdbab9"/><path d="m50.8301 309.289c-3.154 19.034.6844 47.044 1.979 52.526.1053 1.06 3.6302 1.091 3.7211-.172.1747-4.432-.1388-31.641 2.7998-42.395.1125-1.447 5.7623-4.494 6.6454-5.403l.4427-6.554z" fill="#1c0f79"/><path d="m70.9289 273.222c-9.4523-.156-19.881 2.481-19.881 2.481-2.819 16.44-.493 35.402-.493 35.402 7.3178 1.914 15.5713-1.175 15.5713-1.175 1.2156-6.87 6.8894-26.208 6.8894-26.208 4.6185-.572 8.4233-1.914 11.5558-3.666-2.393-2.771-3.5153-6.296-4.0059-8.376-3.3406 1.034-6.7291 1.589-9.6366 1.542z" fill="#fa541c"/><path d="m98.8463 259.299c-.2385-.314-.573-.542-.9526-.648-.3797-.107-.7837-.087-1.1509.057-1.3903 5.877-8.6842 10.639-16.1766 12.968.4905 2.084 1.6176 5.609 4.0058 8.375 12.434-6.987 14.2743-20.752 14.2743-20.752z" fill="#fdbab9"/><path d="m98.6197 259.586c.0981.309-1.0266.778-1.6895-.478-.0239-.606-.3924-3.197-.0311-3.693 1.9288-2.632 5.6639-5.917 5.6639-5.917.176.151.285.364.306.595.02.23-.05.46-.196.639l-1.811 1.888c.718 1.125 1.634 2.609.804 3.961-.505 1.163-2.058 3.252-3.0463 3.005z" fill="#fdbab9"/><path d="m54.6748 284.856-3.6254-9.154s-8.8278 6-10.2899 13.605c2.6663.188 5.2715.887 7.6744 2.058.6628-3.592 6.2409-6.509 6.2409-6.509z" fill="#fa541c"/><path d="m61.1951 300.555 5.4105-18.893c.0294-.105.0892-.198.1719-.269.0827-.07.1845-.114.2924-.126 3.7737-.455 14.4585-1.496 18.3782-1.089 2.1537-.593-9.3518 20.034-11.1753 21.197l-12.5513-.117c-.0851 0-.1691-.02-.2452-.059-.076-.038-.1422-.093-.1932-.162-.0511-.068-.0856-.147-.1008-.231-.0153-.083-.0109-.17.0128-.251z" fill="#1c0f79"/><path d="m74.7332 278.915 3.9198-.654c.048-.008.0972-.003.143.013s.0865.044.1183.081.0535.081.0631.129c.0095.048.0066.097-.0085.143-.1292.185-.2968 1.381-.6198 1.369l-3.7738.51c-.0451.006-.0911.002-.134-.014-.0428-.015-.0812-.041-.1119-.075s-.0526-.074-.064-.118c-.0113-.045-.0117-.091-.0012-.135.1101-.208.1292-1.242.469-1.249z" fill="#754ffe"/><path d="m71.7956 282.237c.1675-.297.1244-2.018.6676-1.999l7.9208-.801c.062-.007.1248.001.183.024.0581.022.1099.059.1509.106.0409.047.0698.103.0842.164s.0138.124-.0017.184c-.1938.288-.3015 2.46-.8615 2.393l-7.7413.39c-.0589.003-.1176-.007-.1718-.03-.0542-.024-.1024-.059-.1411-.103-.0387-.045-.0668-.097-.0823-.154-.0154-.057-.0177-.117-.0068-.174z" fill="#754ffe"/><path d="m62.3899 293.467c-.3948.686-14.5278 6.7-13.9463-2.101-2.4029-1.171-5.0081-1.87-7.6744-2.058-1.3042 19.072 19.96 9.591 22.9321 6.604z" fill="#fdbab9"/><path d="m62.5048 295.991c-1.7517-6.99 1.2803-7.32 6.686-5.264 0 0-.1172 1.435-1.6104.971l.926.718s-.1316 1.146-1.3927.534l.8615.957s-.5408.94-1.4693.337-1.3712 2.12-4.0011 1.747z" fill="#fdbab9"/><path d="m61.3566 265.549-3.008 8.696c-.0246.07-.0236.146.0026.215.0263.07.0762.127.1409.163.8185.452 3.7738 1.764 7.3322-.493 1.1079-.273 1.3472-7.76 1.6536-8.581z" fill="#fdbab9"/><path d="m67.898 257.494c2.259 4.03 6.911 14.679-5.2095 9.02l-2.4983-6.701z" fill="#fdbab9"/><path d="m62.8454 263.216c.4786-.39-.7945-1.498-.8065-2.323 0 0-.5958-.381 1.51-.886s5.243-1.285 5.9035-3.077c.6413-1.747-1.0481-6.138-3.7426-2.632-.6079.44-1.4358-2.077-3.6254-1.041-1.5076.677-1.6751 1.782-1.6584 2.34-.2034.718-2.6083-.701-3.7522 1.869-1.1414 2.154.7179 2.895.0622 3.276-.5025.156-1.151.579-1.084 1.754.1699 1.867 2.0149 1.268 2.6491 1.488.4451.491 2.4432 2.575 4.6041 2.827.0432.004.0868-.002.1269-.019.0401-.016.0754-.043.1026-.077.0272-.033.0454-.074.053-.116.0075-.043.0042-.087-.0097-.128l-.9357-2.716c-.1316-.333.4212-.431.6031-.539z" fill="#770508"/><path d="m63.2224 263.604c-4.0825-2.658-2.7615 2.482.7179 1.197z" fill="#fdbab9"/><path d="m371.047 157.506-147.059-.718c-1.773-.015-3.211 1.945-3.199 4.357l.325 58.184c.015 2.426 1.491 4.36 3.274 4.288l146.212-3.133c1.701-.069 3.058-1.95 3.082-4.264l.512-54.345c.034-2.381-1.383-4.345-3.147-4.369z" fill="#fdab76"/><path d="m371.047 157.506-147.059-.718c-1.773-.014-3.211 1.946-3.199 4.358l.325 58.183c.015 2.427 1.491 4.36 3.274 4.288l146.212-3.132c1.701-.069 3.058-1.95 3.082-4.264l.512-54.345c.034-2.381-1.383-4.346-3.147-4.37z" fill="#fff" opacity=".48"/><path d="m191.781 140.846c-1.407-5.394-5.293-14.143-15.808-15.45-13.978-1.737-122.4355-2.78-141.9241-2.952-.8436-.009-1.6619.288-2.3043.835-.6423.547-1.0656 1.307-1.1918 2.141.122 1.676-4.7525 26.163 2.6155 25.328l155.3507-5.504c.526-.02 1.04-.157 1.505-.402s.869-.592 1.182-1.014.528-.91.627-1.426.082-1.048-.052-1.556zm-7.866-.465-146.1306 5.16c-.4487.017-.8963-.056-1.3166-.214s-.8048-.398-1.1312-.707c-.3264-.308-.5881-.678-.7697-1.089-.1817-.411-.2797-.853-.2882-1.302-.0217-3.774.186-7.546.6221-11.295.105-.949.5585-1.824 1.2725-2.458.7141-.633 1.6379-.978 2.5922-.969 57.6713.539 126.3115 1.594 136.5855 2.872 4.4-.393 13.994 8.65 8.564 10.002z" fill="#4027b6"/><path d="m37.8094 122.104c.0119 7.069.122 24.202.9021 33.157.0704.798.4389 1.539 1.0318 2.077.593.538 1.367.833 2.1677.826 8.1768-.048 31.688-.321 42.6958-1.855.694-.098 1.3363-.422 1.8274-.922.491-.5.8034-1.148.8887-1.844-.0694-2.975 4.8482-32.349-2.5462-33.191-7.4781-.347-31.8436-1.436-43.7655-1.455-.4212-.001-.8386.081-1.2279.242-.3894.16-.743.397-1.0407.695-.2976.298-.5333.652-.6935 1.041-.1602.39-.2416.807-.2397 1.229z" fill="#754ffe"/><path d="m47.7798 124.65.7849 24.777c.025.897.4049 1.748 1.0564 2.365.6514.617 1.5211.951 2.4182.928l21.2498-.553c.8837-.023 1.7236-.389 2.3405-1.022.617-.633.9621-1.483.9619-2.367v-23.113c-.0007-.87-.335-1.706-.9338-2.336-.5989-.63-1.4167-1.006-2.2848-1.051l-22.0323-1.119c-.4681-.025-.9361.049-1.3744.215-.4382.166-.8373.421-1.172.749-.3346.328-.5976.722-.7722 1.157s-.2571.901-.2422 1.37z" fill="#4027b6"/><path d="m174.439 138.536h-2.012v61.388h2.012z" fill="#754ffe"/><path d="m184.35 137.911-.206 62.002 2.013.007.205-62.002z" fill="#754ffe"/><path d="m186.633 201.278c-.161 9.465-14.239 9.462-14.399 0 .163-9.462 14.238-9.462 14.399 0z" fill="#1c0f79"/><path d="m183.712 201.279c-.096 5.621-8.457 5.621-8.553 0 .096-5.621 8.457-5.619 8.553 0z" fill="#754ffe"/><path d="m174.49 227.465-2.465-13.446c-.121-.66-.095-1.339.075-1.988s.482-1.253.911-1.768c.43-.516.968-.931 1.576-1.215.608-.285 1.271-.432 1.942-.432h6.126c.734-.001 1.461.151 2.134.445.674.295 1.279.725 1.777 1.265.499.539.881 1.176 1.122 1.87.24.694.335 1.431.277 2.163l-1.077 13.834c-.074.903-.338 1.78-.776 2.573s-1.038 1.485-1.763 2.029c-10.804 8.344-6.688 27.28 8.706 24.628 4.712-.878 7.274-6.561 6.26-10.818-.093-.319-.121-.654-.083-.984.039-.33.144-.649.308-.938s.385-.542.648-.744c.264-.202.566-.349.888-.432.321-.083.657-.101.985-.052.329.049.645.163.928.336.284.173.53.401.724.671s.331.576.405.901c8.375 34.586-56.99 17.617-31.526-11.578.802-.823 1.393-1.827 1.723-2.927.331-1.1.391-2.264.175-3.393z" fill="#754ffe"/><path d="m186.633 137.483c-.161 9.465-14.239 9.462-14.399 0 .163-9.462 14.238-9.462 14.399 0z" fill="#1c0f79"/><path d="m183.712 137.484c-.096 5.621-8.457 5.621-8.553 0 .096-5.621 8.457-5.619 8.553 0z" fill="#754ffe"/><path d="m302.687 141.092-24.799 2.613c-.724.077-1.457.001-2.15-.224-.693-.224-1.331-.592-1.872-1.079-.542-.488-.975-1.083-1.271-1.749-.297-.665-.45-1.386-.45-2.114v-28.623c.001-1.249.451-2.456 1.27-3.4.818-.944 1.949-1.562 3.186-1.74l24.81-3.57c.737-.107 1.489-.053 2.203.156.715.21 1.376.571 1.939 1.058.563.488 1.014 1.091 1.324 1.768.309.677.469 1.413.469 2.158v29.582c0 1.285-.477 2.524-1.337 3.478-.861.953-2.044 1.554-3.322 1.686z" fill="#fee9d1"/><g fill="#fdab76"><path d="m330.218 93.1344 1.197-.0407c.063-.0022.125.0209.172.0642.046.0433.073.1033.076.1667.002.0635-.021.1253-.065.1717-.043.0464-.103.0738-.166.076l-1.197.0431c-.064.0022-.126-.021-.172-.0645-.047-.0436-.075-.1039-.077-.1676-.002-.0638.021-.1259.065-.1725.043-.0467.104-.0742.167-.0764z"/><path d="m332.611 93.067 1.197-.0239c.063 0 .124.0252.169.0701s.07.1057.07.1692-.025.1243-.07.1692-.106.0701-.169.0701l-1.197.0239c-.063 0-.124-.0252-.169-.0701-.045-.0448-.07-.1057-.07-.1692 0-.0634.025-.1243.07-.1692s.106-.0701.169-.0701z"/><path d="m335.007 93.0263h1.196c.064 0 .125.0252.169.0701.045.0448.071.1057.071.1692 0 .0634-.026.1243-.071.1692-.044.0449-.105.0701-.169.0701l-1.196.0119c-.065 0-.128-.0258-.174-.0718s-.072-.1084-.072-.1735c0-.065.026-.1274.072-.1734s.109-.0718.174-.0718z"/><path d="m337.4 93.0076h1.196c.064 0 .125.0252.169.0701.045.0448.071.1057.071.1692 0 .0634-.026.1243-.071.1692-.044.0449-.105.0701-.169.0701h-1.196c-.064 0-.125-.0252-.169-.0701-.045-.0449-.071-.1058-.071-.1692 0-.0635.026-.1244.071-.1692.044-.0449.105-.0701.169-.0701z"/><path d="m339.793 93.0122h1.196c.064 0 .125.0253.169.0701.045.0449.071.1058.071.1692 0 .0635-.026.1244-.071.1693-.044.0448-.105.07-.169.07h-1.196c-.064 0-.125-.0252-.169-.07-.045-.0449-.071-.1058-.071-.1693 0-.0634.026-.1243.071-.1692.044-.0448.105-.0701.169-.0701z"/><path d="m342.186 93.0362c.213.0766 1.471-.1818 1.436.2585.028.4427-1.226.146-1.436.2154-.057-.0082-.109-.0366-.147-.0801s-.059-.0992-.059-.1568c0-.0577.021-.1133.059-.1569.038-.0435.09-.0719.147-.0801z"/><path d="m344.581 93.079c.211.079 1.469-.1699 1.436.2704.024.4404-1.225.1341-1.436.2034-.057-.0081-.109-.0365-.147-.08-.038-.0436-.058-.0992-.058-.1569 0-.0576.02-.1133.058-.1568s.09-.0719.147-.0801z"/><path d="m346.972 93.1338c.21.0813 1.474-.158 1.436.2823.021.4403-1.228.1245-1.436.1915-.057-.0082-.109-.0366-.147-.0801s-.059-.0992-.059-.1568c0-.0577.021-.1133.059-.1569.038-.0435.09-.0719.147-.08z"/><path d="m349.365 93.2207c.21.0814 1.474-.146 1.424.2919.016.4404-1.228.1149-1.436.1795-.056-.011-.105-.0412-.14-.0853-.036-.044-.054-.0991-.053-.1554.002-.0564.023-.1104.06-.1526.038-.0422.089-.0699.145-.0781z"/><path d="m351.755 93.3188c.211.0862 1.477-.134 1.422.304.014.4403-1.228.1052-1.436.1675-.055-.0113-.105-.0418-.14-.086s-.053-.0994-.051-.1558c.001-.0564.023-.1103.061-.1524.037-.042.088-.0694.144-.0773z"/><path d="m354.148 93.4379 1.197.0646c.063.0035.123.0321.165.0794.043.0474.064.1096.061.1731-.004.0635-.032.1229-.079.1653-.048.0425-.11.0643-.173.0608l-1.197-.0646c-.031-.0017-.062-.0096-.091-.0232-.028-.0137-.053-.0327-.074-.0562-.043-.0473-.065-.1096-.061-.173.003-.0635.032-.123.079-.1654.048-.0424.11-.0643.173-.0608z"/><path d="m356.539 93.5745 1.196.0766c.064.0041.123.0333.165.0811s.063.1103.059.1738c-.004.0634-.033.1227-.081.1646-.048.042-.11.0632-.174.0591l-1.196-.0742c-.064-.0041-.124-.0334-.166-.0814s-.063-.1108-.059-.1746.033-.1233.081-.1655.111-.0636.175-.0595z"/><path d="m358.927 93.7301c.206.0886 1.474-.0981 1.41.3351 0 .4379-1.23.0741-1.436.134-.054-.0137-.101-.0456-.134-.0904s-.049-.0996-.046-.155.025-.1081.063-.1489c.037-.0408.088-.0672.143-.0748z"/><path d="m361.313 93.9068c.206.0909 1.476-.0861 1.407.347 0 .4355-1.23.0622-1.436.1196-.052-.0149-.098-.0473-.13-.0918-.031-.0446-.046-.0986-.043-.153.003-.0545.025-.1062.062-.1465.037-.0404.086-.0669.14-.0753z"/><path d="m363.699 94.1031 1.196.1053c.052.017.096.0509.125.0962.03.0453.043.0992.038.153-.005.0539-.028.1044-.065.1435-.038.039-.087.0643-.141.0715l-1.196-.1052c-.052-.0171-.096-.051-.125-.0962-.03-.0453-.043-.0992-.038-.1531.005-.0538.028-.1044.065-.1434.038-.0391.087-.0643.141-.0716z"/><path d="m366.085 94.3303c.203.0933 1.476-.0599 1.402.3709 0 .4355-1.232.0407-1.436.0933-.051-.0163-.095-.0493-.126-.0938-.03-.0445-.044-.0979-.04-.1515.004-.0537.025-.1044.062-.1442.036-.0397.085-.066.138-.0747z"/><path d="m368.466 94.5696 1.196.1268c.05.0184.093.053.121.0985.028.0454.04.0989.035.1521-.006.0531-.03.1028-.067.1411s-.086.063-.139.0701l-1.197-.1268c-.05-.0184-.092-.053-.121-.0985-.028-.0454-.04-.0989-.034-.1521.006-.0531.029-.1028.066-.1411.038-.0383.087-.063.14-.0701z"/><path d="m370.847 94.8089 1.196.1388c.049.0194.091.0546.118.1s.038.0984.032.1509c-.007.0524-.03.1013-.067.139-.037.0378-.086.0622-.138.0695l-1.196-.1364c-.051-.0187-.093-.0538-.121-.0996s-.04-.0997-.034-.153c.007-.0532.031-.1028.069-.1408.038-.0379.087-.0621.141-.0684z"/><path d="m373.225 95.0986c.199.1005 1.477-.0167 1.388.4092-.019.4332-1.23 0-1.436.0503-.049-.0189-.09-.0535-.117-.0983-.028-.0448-.04-.0975-.034-.1497.005-.0523.028-.1014.064-.1396s.083-.0634.135-.0719z"/><path d="m375.594 95.4052 1.197.1604c.049.0201.09.0561.117.1023.026.0461.037.0998.029.1525-.007.0528-.032.1015-.07.1386-.038.037-.088.0603-.141.066l-1.196-.1627c-.048-.0208-.088-.0568-.114-.1026-.026-.0457-.036-.0986-.028-.1506.007-.0519.031-.1.069-.1368.037-.0369.085-.0604.137-.0671z"/><path d="m377.973 95.7352 1.196.1723c.049.021.089.0572.114.1032.026.0459.035.099.028.151-.008.052-.032.1-.07.1367s-.086.0599-.139.0662l-1.182-.1723c-.048-.02-.088-.055-.114-.0998-.027-.0448-.038-.097-.032-.1486s.029-.0999.065-.1376c.036-.0376.083-.0626.134-.0711z"/><path d="m380.342 96.0895c.194.1053 1.477.0287 1.374.4499-.031.4331-1.23-.0335-1.436 0-.045-.0223-.082-.0581-.106-.1025-.023-.0444-.032-.0951-.025-.1449s.029-.0962.064-.1325c.034-.0363.08-.0608.129-.07z"/><path d="m382.706 96.4704c.194.1077 1.477.0479 1.369.4786-.036.4307-1.23-.0503-1.436 0-.063-.0089-.12-.0426-.159-.0938-.039-.0511-.055-.1155-.046-.179.008-.0635.042-.1208.093-.1594.052-.0386.116-.0553.179-.0464z"/><path d="m385.068 96.879c.192.11 1.474.0646 1.362.4786-.041.4307-1.228-.0647-1.436-.0288-.046-.023-.084-.0605-.107-.1068-.024-.0463-.031-.0989-.022-.1498.009-.051.035-.0976.073-.1329s.086-.0573.137-.0627z"/><path d="m387.423 97.315c.189.1124 1.474.0837 1.357.5001-.046.4283-1.228-.0814-1.436-.0479-.046-.0229-.084-.0601-.107-.1062-.024-.0461-.032-.0985-.023-.1494s.034-.0976.072-.133c.038-.0355.086-.0578.137-.0636z"/><path d="m389.773 97.781 1.172.2393c.045.0248.081.0632.102.1096.021.0465.027.0985.017.1485-.011.05-.037.0954-.075.1295-.038.034-.086.055-.137.0599l-1.17-.2393c-.046-.0242-.082-.0624-.104-.1091s-.029-.0992-.019-.1498c.011-.0506.037-.0966.075-.131.039-.0344.087-.0555.139-.06z"/><path d="m392.118 98.2787c.184.1173 1.469.1244 1.342.5336-.059.426-1.227-.1124-1.435-.0861-.045-.0251-.081-.0639-.102-.1107-.021-.0469-.026-.0993-.015-.1495s.037-.0955.076-.1292.088-.0541.139-.0581z"/><path d="m394.454 98.8106 1.165.2776c.044.0259.079.0653.099.1123.02.0471.024.0993.013.1491-.012.0498-.04.0945-.079.1275-.039.0331-.087.0528-.138.0562l-1.163-.2776c-.044-.0258-.079-.065-.099-.1118s-.025-.0989-.014-.1486c.012-.0497.039-.0944.078-.1276.038-.0333.087-.0533.138-.0571z"/><path d="m396.782 99.3752c.182.122 1.464.1675 1.326.5743-.07.4215-1.221-.1508-1.436-.1316-.043-.0266-.077-.0663-.096-.1134-.02-.047-.023-.0989-.011-.1482.012-.0494.04-.0935.079-.126.039-.0326.087-.0519.138-.0551z"/><path d="m399.103 99.9781c.177.1249 1.462.1919 1.316.5939-.079.421-1.22-.173-1.436-.156-.041-.028-.073-.068-.091-.115-.017-.047-.02-.099-.006-.147.013-.048.041-.092.08-.123.039-.0316.087-.0501.137-.0529z"/><path d="m401.412 100.617 1.151.336c.042.028.073.069.089.116.017.047.019.099.005.147-.015.048-.043.09-.083.121-.039.031-.087.049-.137.051l-1.149-.333c-.042-.028-.074-.068-.091-.116-.018-.047-.02-.099-.006-.148.014-.048.043-.091.082-.123.04-.031.089-.049.139-.051z"/><path d="m403.712 101.299 1.144.356c.057.018.105.058.133.111.027.053.033.115.015.172s-.057.105-.11.133c-.053.027-.115.033-.172.015l-1.144-.354c-.041-.029-.071-.071-.087-.118-.016-.048-.016-.099-.001-.147.014-.047.044-.089.084-.12.04-.03.088-.047.138-.048z"/><path d="m405.997 102.022 1.137.38c.057.019.104.06.13.113.027.054.032.116.012.173-.019.057-.059.104-.113.13-.054.027-.116.031-.173.012l-1.134-.378c-.04-.03-.069-.072-.084-.119-.015-.048-.015-.099 0-.147.016-.047.046-.089.086-.118.041-.03.089-.046.139-.046z"/><path d="m408.268 102.793 1.13.402c.039.031.067.073.08.121.014.048.012.099-.005.146s-.048.088-.089.116-.09.043-.139.043l-1.127-.403c-.028-.009-.054-.025-.076-.045-.022-.019-.04-.043-.053-.07s-.02-.056-.022-.086c-.001-.029.003-.059.013-.087s.025-.054.045-.076.044-.04.071-.052c.026-.013.055-.021.085-.022.03-.002.059.003.087.013z"/><path d="m410.532 103.61c.163.142 1.436.335 1.249.718-.117.41-1.196-.292-1.407-.296-.055-.022-.099-.064-.123-.118s-.025-.115-.005-.171c.021-.055.063-.1.116-.124.053-.025.115-.028.17-.009z"/><path d="m412.758 104.482c.158.143 1.435.37 1.232.749-.129.404-1.197-.323-1.4-.333-.051-.025-.091-.068-.112-.121-.02-.054-.02-.113.002-.165.021-.053.061-.096.113-.12s.11-.028.165-.01z"/><path d="m414.971 105.408 1.096.478c.054.024.097.068.118.124.022.055.021.116-.003.171-.024.054-.068.096-.123.118-.056.022-.117.02-.171-.003 0 0-1.094-.479-1.096-.479-.048-.028-.084-.072-.101-.125-.017-.052-.014-.109.008-.16.022-.05.062-.091.112-.114.051-.023.107-.026.16-.01z"/><path d="m417.158 106.391c.151.153 1.403.448 1.197.814-.149.397-1.168-.388-1.379-.407-.046-.029-.08-.073-.096-.125-.015-.052-.012-.108.01-.158.022-.049.062-.089.111-.112s.105-.027.157-.012z"/><path d="m419.317 107.44 1.067.548c.053.027.093.074.111.13s.013.118-.014.17c-.027.053-.074.093-.13.111s-.118.013-.17-.014l-1.065-.545c-.053-.027-.093-.074-.112-.13s-.014-.118.013-.171c.026-.053.073-.093.129-.112.056-.018.118-.014.171.013z"/><path d="m421.442 108.554c.141.161 1.371.537 1.136.888-.174.383-1.139-.462-1.349-.495-.052-.028-.091-.076-.108-.133s-.01-.118.018-.17.076-.091.133-.107c.057-.017.118-.011.17.017z"/><path d="m423.528 109.742 1.029.622c.051.032.087.082.1.14s.003.119-.029.17c-.032.05-.082.086-.14.099-.058.014-.119.003-.17-.029l-1.022-.619c-.046-.032-.079-.08-.091-.135-.013-.056-.004-.113.025-.162.029-.048.075-.084.129-.1.054-.017.112-.011.162.014z"/><path d="m425.572 111.005c.129.17 1.328.624 1.072.957-.196.371-1.108-.536-1.311-.584-.044-.034-.074-.083-.084-.138-.009-.055.002-.111.032-.158s.077-.081.131-.095.111-.008.16.018z"/><path d="m427.577 112.314c.127.172 1.319.648 1.056.976-.201.369-1.096-.555-1.3-.605-.044-.034-.075-.084-.084-.14-.01-.055.002-.113.033-.16s.079-.08.134-.094c.055-.013.112-.005.161.023z"/><path d="m429.561 113.661c.122.175 1.307.672 1.039.993-.211.364-1.087-.574-1.29-.629-.039-.036-.065-.084-.071-.136-.007-.052.005-.105.034-.149s.073-.076.124-.091c.05-.014.104-.01.152.012z"/><path d="m431.521 115.045c.117.177 1.29.698 1.015 1.014-.216.359-1.072-.598-1.276-.655-.042-.037-.07-.088-.076-.143-.007-.056.008-.112.041-.157.033-.046.082-.077.136-.088.055-.011.112-.001.16.029z"/><path d="m433.45 116.468c.112.179 1.273.718.993 1.036-.223.354-1.06-.622-1.259-.684-.046-.036-.077-.088-.085-.146s.007-.116.042-.163.088-.077.146-.085c.057-.009.116.007.163.042z"/><path d="m435.345 117.935.936.751c.04.038.065.09.069.146.004.055-.013.11-.048.153-.035.044-.085.072-.14.08s-.111-.005-.156-.036l-.934-.749c-.227-.173.053-.529.273-.345z"/><path d="m437.207 119.457c.105.184 1.237.792.94 1.086-.239.34-1.026-.674-1.222-.749-.223-.186.067-.533.282-.337z"/><path d="m439.028 121.012c.098.185 1.211.826.909 1.111-.251.332-1.007-.704-1.196-.783-.211-.184.076-.524.287-.328z"/><path d="m440.801 122.627.866.831c.021.02.038.043.049.07.012.026.018.054.019.083.001.028-.004.057-.015.084-.01.026-.026.051-.045.072-.02.02-.044.037-.07.049-.026.011-.055.017-.083.018-.029.001-.058-.004-.084-.015-.027-.01-.051-.025-.072-.045l-.866-.826c-.213-.191.095-.522.301-.321z"/><path d="m442.519 124.303.84.859c.199.201-.119.512-.313.307 0 0-.833-.857-.835-.857-.206-.199.112-.517.308-.309z"/><path d="m444.18 126.04c.077.194 1.118.958.787 1.197-.282.301-.926-.807-1.11-.905-.037-.043-.056-.099-.053-.156.004-.056.029-.11.072-.148.042-.038.097-.058.154-.056s.111.027.15.068z"/><path d="m445.769 127.832c.067.199 1.074 1 .735 1.235-.297.29-.891-.847-1.07-.957-.189-.201.156-.491.335-.278z"/><path d="m447.274 129.718c.06.199 1.024 1.051.673 1.269-.309.273-.843-.89-1.017-1.005-.029-.046-.04-.101-.03-.155.01-.053.039-.101.082-.134s.097-.048.151-.044c.054.005.104.03.141.069z"/><path d="m448.684 131.661c.048.204.957 1.108.603 1.304-.323.257-.795-.935-.958-1.06-.022-.046-.027-.1-.013-.15.013-.05.044-.093.086-.123.043-.029.095-.042.146-.037.052.005.1.029.136.066z"/><path d="m449.981 133.693c.033.206.892 1.166.519 1.338-.337.239-.732-.981-.89-1.115-.03-.049-.038-.108-.025-.164.014-.055.05-.103.099-.133.049-.029.108-.038.164-.024.055.014.103.049.133.098z"/><path d="m451.144 135.801.526 1.082c.013.025.02.053.022.081.001.028-.003.057-.012.083-.009.027-.023.052-.042.073s-.042.039-.067.051c-.026.012-.053.02-.082.021-.028.002-.056-.002-.083-.011s-.051-.023-.073-.042c-.021-.019-.038-.042-.051-.067 0 0-.519-1.068-.524-1.077-.025-.051-.03-.11-.012-.165.018-.054.057-.099.108-.125.051-.025.11-.03.165-.012.054.018.099.057.125.108z"/><path d="m452.154 137.986.44 1.122c.014.052.009.107-.014.155-.024.048-.065.085-.115.105-.05.019-.106.019-.156 0s-.091-.056-.115-.104c0 0-.433-1.103-.438-1.113-.018-.052-.016-.109.006-.16.023-.05.063-.09.114-.111.051-.022.109-.022.16-.003.052.02.094.059.118.109z"/><path d="m452.986 140.248.342 1.155c.012.053.002.109-.025.155-.028.046-.072.081-.124.096-.052.016-.108.011-.156-.013-.049-.024-.087-.065-.106-.115 0 0-.335-1.137-.34-1.147-.013-.053-.006-.109.021-.157.026-.048.07-.084.122-.1.052-.017.109-.013.158.01.05.023.088.065.108.116z"/><path d="m453.606 142.576c-.033.203.479 1.393.062 1.436-.392.11-.373-1.166-.478-1.343-.005-.051.01-.103.041-.145.03-.042.075-.071.126-.083.051-.011.104-.004.15.021s.081.065.099.114z"/><path d="m454.02 144.954c-.053.199.328 1.436-.079 1.436-.404.07-.256-1.196-.345-1.383-.007-.056.009-.113.044-.157.035-.045.086-.074.142-.081s.113.009.157.043c.045.035.074.086.081.142z"/><path d="m454.183 147.36c-.074.194.179 1.46-.24 1.419-.406.029-.129-1.216-.198-1.412-.001-.058.021-.114.061-.156.041-.042.096-.066.154-.067.058 0 .114.022.156.062s.066.096.067.154z"/><path d="m454.085 149.772c-.094.184.026 1.469-.374 1.388-.407-.015 0-1.223-.05-1.436.003-.028.012-.055.025-.079.014-.025.032-.046.054-.064.022-.017.047-.03.074-.038s.055-.01.083-.007.054.012.079.025c.024.014.046.032.064.054.017.022.03.047.038.074.007.027.01.055.007.083z"/><path d="m453.757 152.162c-.113.172-.125 1.462-.512 1.34-.405-.055.122-1.216.093-1.421.011-.056.043-.105.09-.137.047-.031.105-.043.16-.032.056.011.105.043.136.09.032.047.044.104.033.16z"/><path d="m453.18 154.505c-.127.16-.263 1.436-.636 1.285-.398-.093.239-1.196.239-1.407.024-.042.061-.075.106-.092.045-.018.095-.02.141-.006s.087.044.114.084.04.088.036.136z"/><path d="m452.388 156.788c-.141.148-.39 1.412-.749 1.22-.385-.124.345-1.172.354-1.378.023-.049.064-.088.115-.108.05-.02.107-.02.157 0 .051.02.091.059.114.109.023.049.026.105.009.157z"/><path d="m451.4 158.978c-.151.136-.503 1.373-.843 1.156-.373-.156.438-1.142.465-1.345.025-.05.069-.088.122-.106s.111-.014.161.011.088.069.106.122c.018.054.014.112-.011.162z"/><path d="m450.256 161.095c-.16.125-.601 1.333-.924 1.091-.361-.182.522-1.108.56-1.306.029-.048.075-.083.13-.097.054-.014.111-.006.16.023.048.028.083.075.097.129s.005.112-.023.16z"/><path d="m448.942 163.113c-.167.112-.684 1.289-.991 1.029-.347-.206.591-1.073.644-1.269.032-.046.081-.077.136-.087.055-.011.111.002.157.033.046.032.078.081.088.136s-.002.112-.034.158z"/><path d="m447.518 165.048c-.174.103-.758 1.249-1.048.969-.335-.222.653-1.036.718-1.227.165-.223.51.045.333.258z"/><path d="m445.989 166.903c-.179.093-.821 1.197-1.096.912-.323-.24.718-1.001.778-1.197.177-.203.517.082.318.285z"/><path d="m444.369 168.676c-.182.086-.873 1.168-1.134.862-.311-.24.751-.957.833-1.151.184-.204.497.095.301.289z"/><path d="m442.675 170.375c-.187.079-.921 1.132-1.168.816-.301-.263.79-.935.876-1.117.194-.194.493.117.292.301z"/><path d="m440.923 172.008c-.189.071-.957 1.096-1.196.773-.29-.276.825-.907.919-1.084.041-.037.095-.056.15-.053s.107.028.144.069c.037.042.056.096.053.151-.004.055-.029.107-.07.144z"/><path d="m439.097 173.575c-.189.065-.995 1.063-1.22.732-.28-.282.854-.88.957-1.053.043-.035.097-.052.152-.046.055.005.106.031.141.074s.052.097.047.152-.032.106-.074.141z"/><path d="m437.233 175.085-.938.74c-.043.03-.097.043-.149.035-.053-.008-.1-.035-.133-.077-.033-.041-.049-.094-.045-.146.005-.053.029-.102.069-.138l.938-.742c.043-.034.098-.05.153-.043.055.006.106.035.14.078s.05.099.043.154c-.006.055-.034.105-.078.139z"/><path d="m435.359 176.571c-.191.062-1 1.05-1.222.718-.278-.285.864-.876.957-1.046.043-.03.096-.042.148-.035.052.008.099.035.132.076s.049.092.046.145c-.004.052-.027.101-.065.137z"/><path d="m433.505 178.085c-.192.065-.986 1.063-1.213.737-.283-.28.852-.888.957-1.058.043-.029.095-.04.146-.033.051.008.098.035.13.075.032.041.048.092.045.144-.004.051-.027.1-.065.135z"/><path d="m431.669 179.61c-.186.069-.957 1.079-1.196.756-.287-.275.837-.9.931-1.072.042-.033.095-.048.148-.042.053.005.102.031.137.072.035.04.052.092.05.146-.003.053-.026.103-.065.14z"/><path d="m429.86 181.173c-.186.072-.957 1.093-1.196.775-.292-.268.823-.912.912-1.086.198-.18.478.134.275.309z"/><path d="m428.082 182.766-.875.811c-.192.189-.479-.119-.283-.299l.881-.816c.02-.018.043-.032.068-.041.026-.009.053-.014.08-.012.027.001.053.007.078.019.024.011.046.027.064.047.019.02.033.044.042.069.009.026.013.053.012.08s-.008.053-.019.077c-.012.025-.028.047-.048.065z"/><path d="m426.34 184.4c-.184.079-.897 1.137-1.146.833-.304-.256.78-.957.861-1.129.187-.189.479.11.288.294z"/><path d="m424.651 186.08s-.828.857-.831.862c-.181.194-.478-.096-.296-.285l.832-.864c.182-.196.479.094.297.285z"/><path d="m423.004 187.813c-.179.091-.816 1.197-1.086.909-.318-.239.718-1.005.782-1.196.175-.199.479.076.307.273z"/><path d="m421.437 189.607c-.175.103-.759 1.233-1.041.958-.328-.216.665-1.037.718-1.221.036-.037.084-.059.135-.062.052-.003.102.013.142.046.04.032.067.078.074.129.008.051-.004.103-.033.146z"/><path d="m419.963 191.486-.692.957c-.031.045-.079.075-.133.084s-.109-.004-.154-.036c-.044-.032-.074-.08-.083-.133-.009-.054.004-.11.035-.154l.689-.957c.032-.045.08-.075.135-.084.054-.01.109.003.154.035s.075.08.084.134-.003.109-.035.154z"/><path d="m418.616 193.439c-.158.125-.582 1.323-.898 1.094-.354-.168.52-1.123.553-1.312.014-.022.033-.042.055-.057.022-.016.046-.027.072-.033.027-.005.054-.006.08-.002.026.005.052.015.074.029.023.014.042.033.058.055.015.022.026.046.032.072.006.027.007.054.002.08-.004.026-.014.052-.028.074z"/><path d="m417.436 195.499c-.146.139-.448 1.372-.787 1.175-.369-.131.409-1.167.423-1.359.025-.048.067-.085.119-.101.051-.017.107-.013.155.011.048.025.085.068.102.119s.012.107-.012.155z"/><path d="m416.476 197.665-.38 1.134c-.017.051-.054.093-.102.117-.048.023-.103.027-.154.01s-.093-.054-.117-.102c-.023-.048-.027-.103-.01-.154l.383-1.146c.008-.027.021-.052.039-.073.018-.022.04-.039.065-.052.025-.012.052-.019.08-.021.028-.001.056.003.082.012.026.01.05.025.07.044.02.02.036.043.047.069.01.026.016.053.015.081 0 .028-.006.055-.018.081z"/><path d="m415.797 199.931c0 .021-.208 1.153-.213 1.175-.01.053-.04.099-.084.13-.044.03-.098.042-.151.033-.052-.01-.099-.04-.13-.084-.03-.044-.042-.098-.033-.151l.216-1.196c.009-.053.039-.1.083-.13.044-.031.099-.043.151-.033.053.009.1.039.13.083.031.044.043.099.033.151z"/><path d="m415.471 202.267c-.076.187.149 1.436-.239 1.39-.388.032-.098-1.237-.163-1.416.002-.027.009-.052.021-.076.011-.024.028-.045.047-.063.02-.017.043-.03.068-.039.026-.008.052-.012.078-.01.027.002.053.009.076.02.024.012.045.028.063.048.017.02.03.043.039.068.008.025.012.052.01.078z"/><path d="m415.495 204.626.141 1.196c.006.053-.009.107-.042.148-.033.042-.082.069-.135.075s-.106-.009-.148-.042c-.041-.034-.068-.082-.074-.135l-.144-1.197c-.003-.026-.001-.053.007-.078.007-.026.019-.05.036-.07.017-.021.037-.038.06-.051s.049-.021.075-.024c.027-.003.054-.001.079.006.026.008.049.02.07.037.021.016.038.037.051.06s.021.049.024.075z"/><path d="m415.847 206.967.278 1.151c.011.051.003.104-.024.148-.027.045-.07.077-.12.091s-.103.007-.149-.018c-.045-.025-.08-.066-.095-.116l-.283-1.172c-.01-.051 0-.104.028-.147.028-.044.071-.075.122-.088.05-.012.103-.005.148.021s.078.068.093.118z"/><path d="m416.46 209.256s.382 1.125.385 1.134c.011.049.003.099-.021.142-.024.044-.064.076-.11.092-.047.016-.098.014-.144-.005-.045-.019-.082-.055-.103-.099l-.388-1.142c-.016-.05-.012-.105.013-.152.024-.047.066-.083.116-.099.051-.016.106-.012.153.013.047.024.082.066.099.116z"/><path d="m417.264 211.494c0 .196.717 1.252.347 1.369-.34.182-.589-1.084-.718-1.22-.021-.049-.021-.104 0-.153.02-.049.059-.088.107-.108.049-.021.104-.021.153 0 .049.02.088.059.108.107z"/><path d="m418.19 213.689s.5 1.081.5 1.084c.011.023.017.049.018.075s-.003.052-.012.077c-.009.024-.023.047-.04.066-.018.019-.039.035-.063.046s-.05.017-.076.018-.052-.003-.076-.012c-.025-.009-.048-.022-.067-.04s-.035-.039-.046-.063l-.502-1.089c-.022-.048-.023-.103-.004-.152.018-.05.056-.089.104-.111.049-.022.103-.023.153-.004.049.019.089.056.111.105z"/><path d="m419.212 215.847c.019.194.796 1.196.437 1.34-.325.203-.655-1.039-.796-1.165-.024-.048-.027-.103-.01-.153.018-.05.054-.091.102-.114.047-.023.102-.027.152-.009.05.017.091.053.115.101z"/><path d="m420.274 217.986c.019.192.811 1.197.455 1.333-.323.211-.668-1.027-.809-1.153-.022-.047-.025-.101-.008-.149.017-.049.052-.089.098-.113.046-.023.099-.028.149-.012.049.015.09.049.115.094z"/><path d="m421.351 220.13.478 1.101c.022.048.023.103.004.152s-.057.089-.105.11c-.048.022-.103.023-.152.004s-.089-.057-.11-.105c0 0-.479-1.087-.479-1.094-.022-.048-.024-.103-.006-.153.019-.05.056-.09.104-.113.048-.022.104-.024.153-.006.05.019.091.056.113.104z"/><path d="m422.282 222.356.404 1.132c.013.048.007.099-.017.143-.023.044-.062.078-.109.095-.047.016-.098.014-.144-.005-.046-.02-.083-.056-.103-.101l-.402-1.125c-.014-.048-.009-.099.013-.144.023-.045.061-.079.108-.097.047-.017.099-.017.145.002s.084.055.105.1z"/><path d="m423.055 224.624.335 1.154c.014.05.008.104-.017.15-.025.045-.067.079-.117.094s-.104.009-.15-.016c-.046-.026-.08-.068-.094-.118 0 0-.333-1.144-.335-1.149-.01-.048-.001-.098.024-.14.026-.042.066-.073.113-.088.047-.014.097-.01.142.011.044.02.08.057.099.102z"/><path d="m423.694 226.939.275 1.17c.012.051.003.104-.024.149-.028.044-.071.076-.122.088s-.104.003-.149-.024c-.044-.028-.076-.071-.088-.122 0 0-.273-1.161-.273-1.166-.011-.05-.003-.102.024-.146.027-.043.07-.075.12-.087.049-.013.102-.005.146.02.044.026.077.068.091.118z"/><path d="m424.213 229.295c-.036.187.438 1.376.06 1.41-.366.105-.347-1.173-.445-1.333-.011-.051 0-.104.029-.147.029-.044.074-.074.125-.084s.104 0 .147.029c.044.029.074.074.084.125z"/><path d="m424.617 231.65c-.043.185.374 1.395 0 1.41-.368.088-.289-1.197-.38-1.352.002-.046.02-.089.05-.122.031-.034.072-.056.117-.063.044-.007.09.002.129.026.039.023.069.059.084.101z"/><path d="m424.912 234.031.105 1.197c.001.049-.017.097-.051.134-.033.037-.079.06-.128.064-.05.005-.099-.01-.138-.041-.039-.03-.065-.075-.073-.124l-.105-1.196c-.001-.05.017-.098.05-.135s.08-.06.129-.064.099.01.138.041.065.075.073.124z"/><path d="m425.096 236.424.05 1.197c-.003.048-.024.094-.059.127-.035.034-.081.054-.129.056-.049.001-.096-.015-.134-.046-.037-.031-.061-.075-.068-.123l-.05-1.196c.003-.049.024-.094.059-.128s.081-.054.129-.055c.049-.002.096.014.133.045.038.031.062.075.069.123z"/><path d="m425.17 238.825v1.196c-.005.048-.028.093-.064.125s-.083.05-.131.05-.095-.018-.131-.05-.059-.077-.064-.125v-1.196c.005-.048.028-.092.064-.125.036-.032.083-.05.131-.05s.095.018.131.05c.036.033.059.077.064.125z"/><path d="m425.129 241.225-.057 1.197c-.003.051-.025.099-.064.134-.038.034-.088.052-.139.05-.052-.003-.1-.026-.135-.064-.034-.038-.052-.088-.05-.14l.058-1.196c.002-.052.024-.1.062-.135.037-.035.087-.054.139-.052.051.002.1.024.135.062s.053.088.051.139z"/><path d="m424.995 243.622c-.086.168.046 1.436-.325 1.369-.376 0 0-1.223-.062-1.402.004-.051.029-.099.068-.132.04-.033.091-.05.142-.045.052.004.099.029.132.068.034.04.05.091.045.142z"/><path d="m424.742 246.009c-.094.162-.022 1.435-.388 1.352-.376-.015.046-1.221 0-1.403.003-.025.012-.049.024-.071.013-.023.03-.042.05-.058.02-.015.044-.026.068-.033.025-.007.051-.008.076-.005s.05.011.072.024.041.03.057.05c.015.02.027.043.033.068.007.025.009.05.005.076z"/><path d="m424.378 248.38c-.101.158-.089 1.436-.448 1.333-.373-.031.101-1.218.067-1.4.013-.047.042-.088.083-.114s.091-.036.139-.028c.047.009.09.035.12.073.029.039.043.087.039.136z"/><path d="m423.904 250.735-.277 1.168c-.015.046-.048.085-.09.109-.043.024-.093.031-.14.019-.048-.011-.089-.04-.116-.081s-.038-.09-.03-.138c0 0 .278-1.161.278-1.163.015-.045.047-.083.089-.107.042-.023.09-.03.137-.019s.088.038.115.077c.028.039.04.087.034.135z"/><path d="m423.323 253.063-.333 1.153c-.017.045-.051.082-.095.104-.043.021-.093.026-.14.012-.046-.013-.086-.044-.111-.085-.026-.042-.034-.091-.025-.139 0 0 .33-1.146.33-1.148.016-.048.049-.087.093-.111.044-.023.095-.029.143-.016s.089.045.115.087c.025.043.034.094.023.143z"/><path d="m422.629 255.36-.386 1.137c-.016.048-.051.088-.097.11-.046.023-.098.026-.147.009-.048-.016-.088-.051-.11-.097s-.026-.098-.009-.147l.385-1.132c.016-.048.05-.088.096-.111.045-.023.097-.027.146-.011.048.016.088.051.111.096s.027.098.011.146z"/><path d="m421.829 257.624-.44 1.117c-.019.047-.055.085-.102.106-.047.02-.099.021-.147.002-.047-.019-.085-.056-.105-.102-.02-.047-.021-.1-.002-.147 0 0 .437-1.11.437-1.113.019-.047.055-.086.101-.107.047-.021.1-.022.147-.004.048.018.086.054.107.101.021.046.023.099.004.147z"/><path d="m420.923 259.847-.493 1.096c-.024.041-.062.072-.108.087-.045.015-.094.012-.138-.008-.043-.02-.078-.055-.097-.099-.018-.044-.02-.093-.004-.138l.478-1.091c.02-.048.059-.086.107-.106.048-.019.102-.019.15.002.048.02.086.059.106.107.019.048.019.102-.001.15z"/><path d="m419.913 262.024c-.139.122-.479 1.355-.8 1.156-.344-.134.441-1.141.457-1.323.025-.041.065-.07.11-.083.046-.014.095-.009.137.012.043.021.076.057.094.101s.018.093.002.137z"/><path d="m418.805 264.154c-.144.115-.548 1.331-.852 1.118-.34-.148.493-1.12.517-1.302.026-.042.066-.072.114-.084.047-.012.098-.006.141.017.043.024.075.063.09.11s.011.097-.01.141z"/><path d="m417.599 266.229c-.149.11-.608 1.304-.9 1.077-.333-.163.541-1.094.574-1.273.026-.043.068-.074.117-.087.049-.012.101-.004.144.022s.074.068.086.117.005.101-.021.144z"/><path d="m416.302 268.249c-.154.1-.666 1.275-.946 1.036-.325-.18.589-1.072.63-1.249.03-.037.073-.061.12-.068.047-.006.095.005.134.031.039.027.067.067.079.113.011.046.005.095-.017.137z"/><path d="m414.916 270.216c-.158.093-.718 1.244-.988.993-.316-.191.636-1.043.684-1.218.03-.04.075-.067.124-.074.05-.008.1.005.141.035.04.029.067.074.074.124.008.049-.005.1-.035.14z"/><path d="m413.449 272.106c-.16.087-.77 1.214-1.029.958-.306-.204.68-1.015.735-1.197.032-.039.078-.064.128-.069s.1.01.139.042c.039.031.064.077.069.127s-.01.1-.042.139z"/><path d="m411.903 273.941c-.162.082-.818 1.18-1.065.91-.299-.216.718-.988.783-1.158.034-.033.079-.051.126-.052.047 0 .093.017.128.048.036.031.058.074.063.121.005.046-.007.093-.035.131z"/><path d="m410.293 275.72c-.165.074-.864 1.149-1.101.866-.287-.225.761-.957.828-1.124.165-.182.447.083.273.258z"/><path d="m408.601 277.421c-.17.067-.907 1.113-1.132.823-.28-.239.795-.928.869-1.091.172-.175.442.101.263.268z"/><path d="m406.854 279.07c-.172.06-.957 1.079-1.161.783-.27-.24.828-.9.907-1.06.18-.168.438.117.254.277z"/><path d="m405.047 280.644c-.172.055-.981 1.044-1.184.742-.261-.254.859-.871.943-1.027.184-.162.433.132.241.285z"/><path d="m403.19 282.159-.957.735c-.039.025-.086.034-.132.026-.047-.008-.088-.032-.116-.069-.029-.037-.043-.084-.039-.13.004-.047.025-.09.06-.122l.943-.732c.038-.032.088-.047.138-.043.05.005.096.029.129.068.032.039.047.089.042.139s-.029.096-.068.128z"/><path d="m401.283 283.617c-.175.043-1.046.976-1.227.663-.24-.271.914-.811 1.007-.957.04-.024.087-.032.132-.023.046.01.086.035.113.073.028.037.04.083.036.129-.005.046-.027.089-.061.12z"/><path d="m399.333 285.007c-.175.038-1.077.957-1.249.627-.24-.278.94-.785 1.038-.931.041-.028.09-.039.139-.03.048.008.091.036.119.076.027.041.038.09.029.139-.008.048-.036.091-.076.119z"/><path d="m397.342 286.343c-.177.033-1.103.911-1.266.588-.227-.282.957-.756 1.065-.9.041-.026.091-.035.139-.025s.09.039.117.08c.027.042.036.092.025.14-.01.048-.039.09-.08.117z"/><path d="m395.313 287.618c-.177.029-1.127.883-1.281.555-.22-.287.982-.718 1.087-.869.041-.025.091-.033.139-.022s.089.041.114.082c.026.042.034.092.023.139-.011.048-.041.089-.082.115z"/><path d="m393.25 288.841c-.177.022-1.151.85-1.295.519-.21-.292 1.001-.701 1.111-.84.042-.024.093-.031.14-.018s.088.044.112.087c.025.042.031.093.018.14-.012.047-.044.088-.086.112z"/><path d="m391.149 290.006c-.177.019-1.17.823-1.307.479-.203-.297 1.02-.675 1.13-.811.042-.023.092-.027.138-.013s.085.046.108.088.029.091.016.138c-.013.046-.044.085-.085.11z"/><path d="m389.033 291.121c-.174.015-1.196.792-1.316.457-.194-.301 1.036-.653 1.151-.785.043-.017.091-.017.134-.001.043.017.078.049.099.09s.025.088.013.133c-.013.044-.041.082-.081.106z"/><path d="m386.887 292.186c-.175 0-1.197.764-1.326.426-.186-.304 1.051-.627 1.168-.756.043-.015.089-.013.131.004.042.018.075.05.095.091.019.04.023.087.011.13-.013.044-.041.081-.079.105z"/><path d="m384.716 293.201-1.091.49c-.022.01-.045.016-.069.016-.024.001-.048-.003-.07-.011-.046-.017-.082-.052-.102-.096s-.022-.094-.005-.139c.017-.046.051-.082.095-.102l1.092-.491c.044-.02.094-.022.139-.005.046.018.082.052.102.096s.022.094.005.14c-.017.045-.051.082-.096.102z"/><path d="m382.534 294.169c-.177 0-1.239.718-1.342.371-.175-.311 1.074-.581 1.196-.706.045-.019.095-.02.14-.002s.081.053.101.097c.019.044.02.095.002.14s-.052.081-.097.1z"/><path d="m380.316 295.103c-.177 0-1.252.687-1.35.345-.167-.314 1.087-.56 1.211-.682.045-.019.095-.018.14 0 .044.019.08.054.098.099s.018.095 0 .14c-.019.044-.054.08-.099.098z"/><path d="m378.085 295.974c-.174 0-1.261.663-1.352.318-.162-.316 1.096-.538 1.223-.656.043-.011.089-.005.129.015.039.021.07.055.086.097.016.041.016.087 0 .129-.015.042-.046.076-.086.097z"/><path d="m375.834 296.812c-.175 0-1.276.641-1.36.297-.155-.319 1.108-.522 1.235-.637.044-.011.09-.006.13.015s.07.057.086.099c.015.042.015.089-.002.13-.017.042-.049.076-.089.096z"/><path d="m373.584 297.611-1.134.385c-.044.01-.09.003-.129-.018-.039-.022-.069-.058-.084-.1-.014-.043-.013-.089.005-.131.018-.041.05-.074.091-.093l1.134-.386c.044-.01.09-.003.129.019s.069.057.084.1c.014.042.012.089-.005.13-.018.041-.05.075-.091.094z"/></g><path d="m325.026 83.1841 1.469 8.7512-6.557-2.7687z" fill="#fa541c"/><path d="m284.843 84.7587 27.106 16.7513c.257.158.543.264.842.309.298.046.603.031.896-.044.292-.075.567-.208.807-.391.24-.184.441-.413.59-.676l15.794-27.8497c3.646-4.6879-46.602 12.9557-46.035 11.9004z" fill="#fdab76"/><path d="m325.026 83.1863-40.184 1.5794 37.647 2.9242.51 2.4074z" fill="#fa541c"/><path d="m320.963 90.3462 5.532 1.5889-4.008-4.2452z" fill="#fa541c"/><path d="m354.774 271.276h47.463c.381 0 .746-.152 1.015-.421.27-.269.421-.634.421-1.015s-.151-.746-.421-1.015c-.269-.27-.634-.421-1.015-.421h-47.463c-.38 0-.746.151-1.015.421-.269.269-.42.634-.42 1.015s.151.746.42 1.015.635.421 1.015.421z" fill="#754ffe"/><path d="m356.351 392.283c2.929.212.02-121.105 1.015-122.125-.001-.268-.109-.525-.299-.714s-.447-.296-.716-.296c-2.929-.213-.019 121.105-1.014 122.125 0 .133.027.264.078.387s.126.234.22.328.206.168.329.218c.123.051.254.077.387.077z" fill="#754ffe"/><path d="m383.809 392.283c2.929.212.019-121.105 1.014-122.125-.001-.268-.108-.525-.299-.714-.19-.189-.447-.296-.715-.296-2.929-.213-.019 121.105-1.015 122.125 0 .133.027.264.078.387s.126.234.22.328.206.168.329.218c.123.051.255.077.388.077z" fill="#754ffe"/><path d="m419.263 393.051c.167-.002.331-.044.478-.124.147-.079.272-.194.364-.333s.148-.299.164-.465-.009-.333-.072-.488c-1.321-.56-50.524-123.744-53.139-122.411-1.85 1.531 50.937 122.9 52.205 123.821z" fill="#754ffe"/><path d="m451.267 393.051c.167-.002.331-.044.478-.124.147-.079.272-.194.364-.333s.148-.299.164-.465-.009-.333-.072-.488c-1.321-.56-50.524-123.744-53.139-122.411-1.85 1.531 50.937 122.9 52.205 123.821z" fill="#754ffe"/><path d="m375.278 289.81c1.045-.62 33.583 1.376 33.112-1.012 0-.133-.027-.265-.077-.388-.051-.122-.126-.234-.22-.328s-.206-.168-.328-.219c-.123-.051-.255-.077-.388-.077h-32.099c-1.305-.02-1.321 2.053 0 2.024z" fill="#754ffe"/><path d="m417.227 310.835h-32.1v2.027h32.1z" fill="#754ffe"/><path d="m426.761 333.884h-32.1v2.027h32.1z" fill="#754ffe"/><path d="m404.661 358.961h32.1c.26-.013.506-.125.685-.314.18-.189.28-.439.28-.7 0-.26-.1-.511-.28-.699-.179-.189-.425-.301-.685-.314h-32.1c-1.309-.019-1.309 2.046 0 2.027z" fill="#754ffe"/><path d="m414.329 382.012h32.097c.137.007.275-.014.403-.062.129-.048.247-.122.346-.217.1-.094.179-.208.233-.335.054-.126.082-.262.082-.399 0-.138-.028-.274-.082-.4s-.133-.24-.233-.335c-.099-.095-.217-.168-.346-.216-.128-.048-.266-.069-.403-.063h-32.097c-1.307-.019-1.323 2.046 0 2.027z" fill="#754ffe"/><path d="m391.343 258.412c-.989.876-4.205.99-4.205.99-11.584-27.801-16.332-31.75-16.332-31.75 1.675 10.493.27 33.725.27 33.725-1.914.844-4.377 0-4.377 0-.14-14.847-2.128-29.618-5.915-43.974 7.83-.175 11.994-2.855 13.353-3.929 6.535 10.522 17.206 44.938 17.206 44.938z" fill="#770508"/><path d="m381.455 202.714c-.479 3.443-1.881 7.2-4.695 11.19l-1.07-.881c.758-3.512.939-7.124.534-10.694 1.735-.331 3.783.019 5.231.385z" fill="#fdbab9"/><path d="m376.128 212.88-4.991-.407-2.154 1.994s.512.718 2.111.301c1.246-.274 2.513-.444 3.788-.507 0 0 2.208.995 2.235-.866z" fill="#fdbab9"/><path d="m358.364 176.056c1.342-4.357 3.788-.239.287 1.099z" fill="#fdbab9"/><path d="m258.609 146.764h-15.827c-.582-.001-1.139-.232-1.551-.644-.411-.411-.641-.969-.641-1.55v-15.878c0-.551.207-1.082.581-1.487s.887-.654 1.436-.698l16.871-1.366c.313-.025.627.017.923.124.295.107.564.276.788.496s.398.485.511.778.161.607.142.921l-1.036 17.241c-.034.56-.28 1.085-.689 1.468-.408.384-.948.597-1.508.595z" fill="#fee9d1"/><g fill="#fa541c" opacity=".48"><path d="m109.175 345.466c0 1.627.54 2.946 1.21 2.946h65.841c.67 0 1.214-1.319 1.214-2.946s-.544-2.946-1.214-2.946h-65.841c-.67 0-1.21 1.319-1.21 2.946z"/><path d="m109.175 355.509c0 1.628.54 2.946 1.21 2.946h65.841c.67 0 1.214-1.318 1.214-2.946 0-1.627-.544-2.946-1.214-2.946h-65.841c-.67 0-1.21 1.319-1.21 2.946z"/><path d="m109.175 365.55c0 1.628.54 2.946 1.21 2.946h65.841c.67 0 1.214-1.318 1.214-2.946 0-1.627-.544-2.945-1.214-2.945h-65.841c-.67 0-1.21 1.318-1.21 2.945z"/><path d="m109.175 375.594c0 1.627.54 2.945 1.21 2.945h65.841c.67 0 1.214-1.318 1.214-2.945 0-1.628-.544-2.946-1.214-2.946h-65.841c-.67 0-1.21 1.318-1.21 2.946z"/><path d="m203.451 363.846h-18.665c-2.747-.04-2.757 4.281 0 4.241h18.665c2.748.04 2.757-4.281 0-4.241z"/><path d="m231.916 363.846h-18.665c-2.745-.04-2.755 4.281 0 4.241h18.665c2.745.04 2.755-4.281 0-4.241z"/><path d="m241.715 368.09h18.666c2.747.04 2.757-4.281 0-4.241h-18.666c-2.747-.043-2.763 4.279 0 4.241z"/><path d="m203.451 370.444c-23.736 1.144-20.725-5.612-20.785 14.612 0 .562.224 1.102.622 1.5s.938.622 1.5.622c23.737-1.144 20.726 5.612 20.784-14.612 0-.278-.055-.554-.161-.812-.106-.257-.263-.491-.459-.688-.197-.197-.431-.354-.689-.461-.257-.106-.533-.161-.812-.161z"/><path d="m231.916 370.444c-23.738 1.144-20.726-5.612-20.785 14.612 0 .562.223 1.102.62 1.5.398.398.937.621 1.5.622 23.738-1.144 20.726 5.612 20.785-14.612 0-.562-.223-1.102-.62-1.5-.398-.398-.937-.621-1.5-.622z"/><path d="m260.378 370.444c-23.736 1.144-20.723-5.612-20.783 14.612 0 .562.224 1.102.621 1.5.398.398.937.621 1.499.622 23.739-1.144 20.726 5.612 20.786-14.612 0-.562-.224-1.102-.622-1.5s-.938-.622-1.501-.622z"/><path d="m237.109 187.579h-7.157v27.349h7.157z"/><path d="m249.067 196.979h-7.158v17.949h7.158z"/><path d="m261.025 173.747h-7.158v41.178h7.158z"/><path d="m272.982 205.033h-7.157v9.893h7.157z"/><path d="m284.94 179.254h-7.157v35.674h7.157z"/><path d="m296.898 185.429h-7.157v29.497h7.157z"/><path d="m308.856 192.144h-7.158v22.784h7.158z"/><path d="m320.816 165.422h-7.157v49.504h7.157z"/><path d="m332.774 170.66h-7.158v44.268h7.158z"/><path d="m344.732 178.58h-7.158v36.345h7.158z"/><path d="m356.689 205.952h-7.157v8.974h7.157z"/><path d="m282.624 135.77c-4.805-.026-4.805-7.33 0-7.354 4.807.027 4.807 7.328 0 7.354zm0-5.894c-2.872-.041-2.872 4.475 0 4.434 2.876.041 2.876-4.475 0-4.434z"/><path d="m282.624 124.243c1.096.003 2.179.235 3.18.681 1.002.446 1.898 1.097 2.633 1.91s1.292 1.771 1.635 2.812c.342 1.042.463 2.143.355 3.234-.074.945 1.252.454 1.747.421.577-.096.462-.778.479-1.216.043-5.968-5.356-10.732-11.271-9.952-.807.086-.299 1.263-.275 1.73.165.725 1.002.328 1.517.38z"/><path d="m282.624 118.596c3.58.003 7.012 1.427 9.543 3.959s3.954 5.965 3.956 9.545c0 .873 1.249.382 1.725.361l.462-.534c-.019-9.356-8.629-16.751-17.895-15.36-.78.098-.275 1.266-.254 1.723.357.928 1.692.117 2.463.306z"/><path d="m282.624 112.941c4.937.002 9.684 1.91 13.25 5.325s5.677 8.075 5.894 13.008c5.982 4.223-.343-21.171-19.144-20.523-.917.173-3.535-.311-3.59.857l.189 1.105c.307.951 2.506-.004 3.401.228z"/><path d="m245.03 143.672c-.444-.004-.868-.181-1.181-.494-.314-.314-.491-.738-.494-1.182.261-.325-.615-11.129.519-10.699 1.316-.134-.057 10.798.718 11.164.063.06.139.107.221.136.082.03.17.042.257.036l12.064-.718c1.244.586.342-10.321.6-10.63 0-.088-.019-.176-.056-.257-.036-.082-.089-.154-.155-.214-.066-.059-.143-.105-.228-.133-.084-.028-.173-.038-.262-.03l-10.034.993c-.56.137-.718.501-.454 1.008 5.807 8.007 3.331 6.593 9.069-.326.395-.543 1.247.089.833.625-5.894 7.638-4.738 8.962-10.742.311-.773-.991-.063-2.572 1.196-2.654l10.034-.993c.233-.021.468.006.69.081.222.074.426.194.6.352.173.157.311.349.407.563.095.214.145.445.146.679-.044 15.854 1.969 10.606-13.748 12.382z"/></g><path d="m360.518 267.31c2.505.069 8.468 1.069 11.17.263.014.081.011.165-.008.245-.02.08-.056.156-.107.221-.05.066-.114.12-.186.16-.073.039-.153.063-.235.07-4.152.008-12.652.857-10.634-.959z" fill="#1c0f79"/><path d="m367.696 268.039c-2.694-.117-5.2-.559-7.169-.729 3.188-3.042 8.021-4.145 9.811-3.975.883 1.237 1.356 2.719 1.355 4.238-.534.215-2.377.538-3.997.466z" fill="#1c0f79"/><path d="m370.636 260.5-.163 3.213c-.008.17-.075.332-.19.457-.114.126-.269.208-.437.233-.531.083-1.766.05-1.885-.776l-.563-3.127z" fill="#fdbab9"/><path d="m393.176 267.848c.854-.119 1.24-.562 1.402-1.036.189 1.915-3.522 2.065-4.372.878.644.319 1.546.357 2.97.158z" fill="#1c0f79"/><path d="m389.151 260.478c3.506-.794 4.695 3.65 5.427 6.335-.339 1.464-3.735 1.28-4.372.878-1.273-1.919-3.252-6.289-1.055-7.213z" fill="#1c0f79"/><path d="m390.396 257.498.795 3.161c.201 1.065-1.238 1.4-2.092 1.369-.778.069-1.455-3.35-1.752-3.802z" fill="#fdbab9"/><path d="m370.026 226.992c.065-.001.129-.019.186-.052.056-.034.103-.082.135-.139s.048-.122.047-.188c-.001-.065-.019-.129-.053-.186-1.149-1.713-2.734-3.089-4.592-3.986-.088-.041-.189-.046-.28-.013-.092.033-.166.1-.209.188-.042.087-.048.188-.017.28s.097.168.183.212c3.269 1.575 3.958 3.717 4.6 3.884z" fill="#b3200e" opacity=".24"/><path d="m372.158 181.502c1.482 7.392.958 20.623.603 26.656-.433 2.103 2.872 6.085 1.841 6.361-1.604.823-7.031 3.374-13.322 3.692-.205.008-.406-.054-.57-.176-.165-.122-.283-.296-.335-.494-4.666-17.423-10.086-28.558-10.086-28.558 5.985-9.558 21.869-7.481 21.869-7.481z" fill="#fa541c"/><path d="m370.502 190.622 1.656-9.12s11.058 8.455 9.295 21.214c-1.436-.366-3.496-.718-5.231-.375-.508-4.095-2.018-8.541-5.72-11.719z" fill="#fa541c"/><path d="m350.289 188.982 4.269 9.206c-.689 5.55-3.671 7.95-6.887 8.869-.158-2.058-.643-4.077-1.436-5.983 4.111-4.257 4.054-12.092 4.054-12.092z" fill="#fa541c"/><path d="m346.238 201.058c.793 1.905 1.278 3.924 1.435 5.982-8.579 3.331-10.847-3.111-10.847-3.111 4.401-.56 6.408.165 9.412-2.871z" fill="#fdbab9"/><path d="m354.222 177.632 2.061 7.577c.054.2.151.387.283.547.132.161.297.292.483.384.186.093.39.145.598.153.207.008.414-.028.607-.106 1.623-.674 5.181-1.744 3.671-4.209l-4.281-6.389z" fill="#fdbab9"/><path d="m332.896 198.851 52.806 19.219c.524.19 1.003.487 1.407.871.403.385.723.849.939 1.363.215.514.323 1.067.314 1.624-.008.557-.131 1.107-.362 1.614-.174.499-.45.956-.81 1.343-.36.386-.797.693-1.283.901-.485.207-1.009.312-1.537.306s-1.049-.122-1.53-.341l-51.277-23.719z" fill="#1c0f79"/><path d="m279.616 187.288c.644 37.438 57.377 37.433 58.013 0-.641-37.439-57.374-37.439-58.013 0zm4.262 0c.548-31.937 48.949-31.932 49.492 0-.548 31.939-48.949 31.934-49.492 0z" fill="#1c0f79"/><path d="m337.46 205.102c-.431.337-1.914-.369-2.814-.855-1.158-.548-.134-2.644.524-2.917.742-.184 4.071 2.381 2.29 3.772z" fill="#fdbab9"/><path d="m353.778 170.188c-.268.833-4.308 9.5 0 9.78 2.378.414 4.381-.77 5.465-2.819 0 0 1.702-3.156 1.319-4.451-.383-1.294-6.784-2.51-6.784-2.51z" fill="#fdbab9"/><path d="m358.435 175.693h-.309s1.24-2.539.151-2.986-5.401-1.326-6.329-2.855c-1.218-1.469.775-4.786 1.402-3.649.015.028.038.052.066.067.029.015.061.022.093.018.032-.003.062-.016.087-.037.024-.021.042-.048.051-.079.008-.03.024-.057.047-.078s.052-.034.083-.039c.03-.005.062-.001.09.012s.052.033.069.059c1.472 2.214 8.122 1.407 8.045 5.341.002.028.011.054.026.077.014.022.035.041.058.054.024.013.051.02.078.02.027.001.054-.006.078-.019 2.019-.373 1.895 2.453-.266 4.068-.02.015-.037.035-.048.058-.011.022-.017.047-.017.073 0 .025.006.05.017.073.011.022.028.042.048.057 1.675.969-2.895 2.558-2.86 1.728l.113-1.797c.06-.304-.627-.134-.773-.166z" fill="#770508"/></svg>