<svg fill="none" height="466" viewBox="0 0 466 466" width="466" xmlns="http://www.w3.org/2000/svg"><path d="m402.021 390.704c-59.093 67.977-192.843 65.953-221.518 55.206-168.4268-5.8-208.6018-199.165-126.0996-326.253 42.221-73.4609 182.1016-162.7021 321.6556-54.8185 90.226 71.6965 108.784 242.9575 25.962 325.8655z" fill="#919eab" fill-opacity=".08"/><path d="m407.028 344.567c17.694 8.502 31.195-20.539 12.987-28.284 1.299-4.191 2.29-8.472 2.965-12.807 20.133-.192 20.913-33.293-.642-30.449-.837-4.159-1.995-8.248-3.463-12.228 18.018-10.71 2.923-38.739-15.09-25.083-2.75-3.038-5.752-5.838-8.972-8.372 3.889-7.461 10.029-17.155 2.497-20.693-17.227-8.247-24.047-.936-28.05 7.722-3.947-1.103-7.979-1.872-12.055-2.299-.312-8.073 2.794-14.629-5.746-14.456-18.382-.212-24.169 7.603-23.41 17.086-4.08 1.166-8.064 2.646-11.916 4.425-10.438-19.083-36.686 1.105-24.952 17.459-3.102 3.106-5.97 6.435-8.584 9.96-17.695-10.423-32.898 19.554-14.046 27.673-1.301 4.19-2.292 8.471-2.966 12.807-20.132.192-20.913 33.29.642 30.447.837 4.16 1.995 8.248 3.463 12.229-7.678 4.416-10.486 14.768-6.04 22.062 4.192 6.953 18.062 10.18 24.971 5.331.354-.248-4.178-2.038-3.849-2.309 2.751 3.037 5.752 5.838 8.973 8.371-11.106 19.254 16.582 33.293 25.556 12.971 3.947 1.102 7.979 1.871 12.055 2.299-.383 22.611 31.152 18.222 29.153-2.63 4.08-1.166 8.064-2.645 11.916-4.424 10.456 19.082 36.696-1.105 24.971-17.46 3.1-3.106 5.969-6.435 8.583-9.96.334.215.682.424 1.049.612zm-88.345 1.136c-60.787-31.151-9.814-131.581 51.21-100.901 60.787 31.149 9.812 131.587-51.21 100.901z" fill="#c4cdd5"/><path d="m424.214 303.43c19.266-1.745 18.926-33.253-1.873-30.403-.837-4.16-1.995-8.248-3.463-12.228 26.892-17.667 5.749-42.633-15.089-25.084-2.751-3.037-5.753-5.838-8.974-8.373 2.663-4.238 3.122-9.601 1.561-13.844-6.68 11.757-13.26 23.572-19.74 35.446 43.309 30.232 12.583 107.19-39.34 101.896-3.372 9.149-7.546 17.948-11.823 26.722 1.957.37 3.921.658 5.893.865-.353 9.25 4.633 16.872 19.916 16.126 8.513-.348 9.746-10.328 9.237-18.754 4.08-1.166 8.064-2.646 11.916-4.425 11.459 16.495 42.839 9.385 24.96-17.459 3.101-3.106 5.97-6.435 8.584-9.96 17.695 10.423 32.897-19.554 14.046-27.673 1.3-4.191 2.291-8.471 2.965-12.807.403-.001.81-.007 1.224-.045z" fill="#c4cdd5"/><path d="m414.65 345.43c17.694 8.504 31.197-20.538 12.987-28.284 1.299-4.191 2.29-8.471 2.965-12.807 20.133-.192 20.913-33.291-.64-30.447-.839-4.16-1.997-8.248-3.465-12.23 18.018-10.709 2.925-38.737-15.09-25.081-2.75-3.038-5.752-5.839-8.972-8.373 11.106-19.254-16.582-33.293-25.556-12.97-3.947-1.103-7.979-1.872-12.055-2.298.382-22.612-31.151-18.224-29.153 2.629-4.08 1.166-8.064 2.645-11.916 4.425-10.438-19.084-36.685 1.103-24.952 17.458-3.101 3.106-5.97 6.434-8.584 9.96-17.695-10.424-32.896 19.555-14.046 27.674-1.3 4.191-2.291 8.471-2.965 12.807-20.133.19-20.914 33.289.641 30.447.837 4.16 1.995 8.248 3.463 12.229-18.016 10.71-2.923 38.738 15.09 25.082 2.751 3.038 5.752 5.839 8.973 8.373-11.106 19.254 16.582 33.293 25.556 12.969 3.946 1.103 7.979 1.873 12.054 2.299-.382 22.611 31.153 18.224 29.154-2.629 4.08-1.166 8.064-2.645 11.916-4.425 10.439 19.082 36.685-1.103 24.953-17.458 3.101-3.107 5.97-6.436 8.584-9.962.347.216.692.427 1.058.612zm-88.343 1.138c-60.789-31.151-9.814-131.582 51.21-100.903 60.785 31.152 9.81 131.581-51.21 100.903z" fill="#dfe3e8"/><path d="m448.292 85.5183c-17.377-75.1826-178.717-104.99-228.128-20.1733-21.175 51.176 35.228 136.438 105.27 138.655 1.083 14.104-13.812 26.264-13.812 26.264 33.315 3.947 53.99-18.931 64.974-37.134 45.467-21.275 78.786-69.416 71.696-107.6117z" fill="#754ffe"/><path d="m448.293 85.5172c-10.889-56.0908-104.032-83.02811-165.682-65.2239-32.948 68.389 109.215 90.9547 106.512 124.0737-2.203 18.366-43.275 26.906-45.16 57.252-.337 5.422.744 8.848-1.612 13.709-4.444 9.163-16.221 13.349-29.288 15.083 32.471 3.13 52.709-19.353 63.534-37.286 45.467-21.271 78.786-69.412 71.696-107.6078z" fill="#4027b6" opacity=".24"/><path d="m285.835 197.585c.743-18.828 1.114-28.249-2.787-35.315-20.896-33.696-67.347-22.924-87.545-1.23-12.381 10.3-10.24 13.543-17.547 16.991-20.197 9.52-37.347-14.827-66.633-15.26-32.3063-.469-56.5218 28.513-62.3525 36.081-54.65657 89.316 14.9341 162.19 85.9185 165.97 79.915-.515 42.493-35.479 65.427-74.358 2.185-3.245 8.818-13.077 21.082-19.457 13.852-7.206 21.816-3.207 36.159-11.271 28.03-19.682 25.895-27.732 28.278-62.151z" fill="#b3200e"/><path d="m39.418 302.951c79.709 83.061 51.4602 14.085 78.404-4.235 15.401-8.918 30.403 7.297 44.276-1.126 17.535-10.645 2.185-41.785 19.183-58.001 33.37-24.142 90.247 30.995 104.645-44.323-2.437 35.029.597 44.394-28.373 64.47-14.345 8.064-22.309 4.058-36.161 11.271-12.264 6.38-18.894 16.213-21.08 19.457-15.657 23.226-2.777 42.109-14.459 58.438-42.459 39.013-123.3635 5.371-146.435-45.951z" fill="#770508"/><path d="m406.363 271.417s4.29-5.128 12.337-5.37 19.012-5.017 23.722-5.437c1.137-.102 1.7-.429 1.797-.843.198-.854-5.029-2.099-9.665-2.254-8.224-.273-13.02 2.881-14.128 1.26-1.239-1.812 4.067-6.761 3.095-7.869-.754-.86-4.362 1.899-8.223 3.58-2.742 1.194-13.464 14.017-13.464 14.017z" fill="#fdbab9"/><path d="m406.625 262.109c1.995 4.024 3.99 8.05 5.985 12.078-12.485 68.67-76.047 154.638-149.466 83.871-28.754-20.192-28.872-51.072-5.759-81.221 7.128-9.52 21.961-7.471 26.175 3.652 6.646 17.548 17.857 29.736 30.736 32.117 30.136 1.169 41.62-15.341 62.976-32.073 9.158-7.087 18.99-13.257 29.353-18.424z" fill="#fa541c"/><path d="m288.692 352.392c11.095-2.497 15.284-12.797 30.492-13.724 19.233-1.168 27.495 14.397 39.798 10.3 10.04-3.351 11.705-16.114 18.709-32.543 5.43-12.745 14.847-29.511 32.401-47.311l2.518 5.08c-12.511 68.719-76.047 154.617-149.467 83.871-11.152-9.236-21.1-19.04-22.35-33.784 22.942 26.185 37.939 30.354 47.899 28.111z" fill="#b3200e" opacity=".24"/><path d="m286.382 444.122c.518-17.212 1.537-42.736 4.149-55.201 6.781-32.351 15.039-40.539 12.828-61.31-4.476-30.672-21.538-52.248-38.217-68.401-19.493-3.315-23.433-4.71-43.881 5.52-68.464 33.497-75.773 139.414-73.327 174.929 13.799 4.585 30.873 8.537 51.288 10.28-4.955-35.583-3.151-59.015 4.37-87.512 7.999 28.82 9.676 52.066 11.209 88.374 20.847.533 44.688-1.251 71.581-6.679z" fill="#fa541c"/><path d="m259.296 418.597c7.477-26.499 30.732-43.101 24.997-52.656-5.15-8.583-24.589 3.712-41.931-7.405-19.204-12.311-13.11-38.766-26.609-42.785-13.063-3.887-35.729 15.855-41.124 38.671-4.625 36.871 22.345 49.59-14.301 88.906 11.254 2.954 24.205 5.354 38.894 6.609-4.955-35.583-3.151-59.015 4.37-87.512 7.998 28.82 9.676 52.066 11.209 88.374 13.139.337 27.467-.25 43.012-2.089-1.531-9.799-1.377-19.979 1.483-30.113z" fill="#b3200e" opacity=".24"/><path d="m261.773 225.453s.572 14.748 0 24.649c-.42 7.248 5.848 11.376 5.848 11.376s3.433 5.896-15.17 6.883c-18.604.986-36.722 0-36.722 0s18.196-12.103 22.354-15.32 6.388-27.26 3.725-42.491z" fill="#fdbab9"/><path d="m266.532 177.87s9.472 22.838 9.422 36.637c-.05 13.8-9.7 21.719-17.011 18.312-7.312-3.407-18.345-17.759-18.345-17.759-8.975 10.406-20.476-26.903-5.961-19.404-6.691-24.47 28.173-34.661 31.895-17.786z" fill="#fdbab9"/><path d="m250.906 226.53c-13.094 0-19.947-20.301-17.636-20.325 2.316-.534 4.948 21.275 20.572 18.14 1.159-.279 1.579 1.561.404 1.803-1.096.249-2.216.378-3.34.382z" fill="#4027b6"/><path d="m262.613 223.486c.886 3.287-8.401 5.701-9.229 2.4-.885-3.287 8.401-5.701 9.229-2.4z" fill="#4027b6"/><path d="m236.169 203.092c2.249 9.113-6.15 11.295-8.623 2.242-2.249-9.113 6.147-11.295 8.623-2.242z" fill="#4027b6"/><path d="m88.0692 81.2192c10.5049-45.4501 108.0378-63.4666 137.9048-12.1983 12.797 30.9358-21.296 82.4771-63.637 83.8181-.654 8.526 8.35 15.875 8.35 15.875-20.133 2.386-32.637-11.443-39.276-22.447-27.487-12.857-47.6274-41.956-43.3418-65.0478z" fill="#ffab00"/><path d="m143.921 91.8514c-.357 10.5966-15.968 9.7666-15.959-.5541.373-10.5907 15.958-9.7449 15.959.5541z" fill="#b76e00"/><path d="m170.919 92.7863c-.337 10.5037-15.636 9.6637-15.643-.5431.35-10.4987 15.628-9.6419 15.643.5431z" fill="#b76e00"/><path d="m197.384 93.7072c-.312 10.4098-15.314 9.5628-15.334-.5322.331-10.4081 15.304-9.5419 15.334.5322z" fill="#b76e00"/><g fill="#e6dbfe"><path d="m309.82 124.579h-30.81v-6.113c3.345-3.86 16.801-17.104 18.971-21.207 1.883-2.9652 1.972-6.9497-.077-9.3391-1.01-1.1445-2.451-1.7167-4.321-1.7167-4.283-.0297-6.555 3.3976-6.515 7.563h-8.952c.353-22.455 39.105-18.1928 28.523 4.7851-2.069 4.8757-12.218 14.4847-16.15 18.8347h19.325z"/><path d="m341.68 107.66h5.092v7.193h-5.092v9.724h-8.923v-9.724h-18.43l-.401-5.619 18.737-29.6041h9.017zm-18.863 0h9.94v-15.8662l-.587 1.0176z"/><path d="m354.736 128.435h-6.638l16.544-48.8051h6.637z"/><path d="m405.733 84.61-17.38 39.967h-9.416l17.411-37.754h-22.35v-7.1931h31.735z"/></g></svg>