<svg fill="none" height="466" viewBox="0 0 466 466" width="466" xmlns="http://www.w3.org/2000/svg"><g clip-rule="evenodd" fill-rule="evenodd"><path d="m372.701 63.8205c35.974 24.9607 69.645 55.9125 78.567 95.1835 9.209 38.939-6.62 86.531-21.297 127.134-14.389 40.603-27.628 74.549-47.197 103.837-19.282 29.287-45.183 53.915-73.962 60.904-28.779 6.656-60.436-4.327-104.18-3.328-43.744 1.331-99.287 14.644-137.2754-6.323-37.7004-20.968-58.13341-76.214-53.5288-127.467 4.3169-51.253 33.3836-98.512 55.8312-146.769 22.7353-47.925 38.852-96.8481 69.357-124.4714 30.506-27.6233 75.689-33.94667 117.418-27.9561 41.73 6.3234 80.293 24.628 116.267 49.256z" fill="#919eab" fill-opacity=".08"/><path d="m316.915 45.103v403.325c-2.673.968-5.375 1.789-8.103 2.452-4.062.939-8.181 1.527-12.383 1.847v-406.9548z" fill="#fdab76"/><path d="m147.767 58.7295c1.072 1.016 2.475 1.554 3.952 1.515 1.476-.0394 2.849-.6511 3.866-1.7221 1.014-1.0725 1.554-2.4738 1.515-3.9499-.04-1.4752-.652-2.8473-1.723-3.8629-2.213-2.0967-5.719-2.0037-7.818.2067-.189.1998-.36.4096-.515.6284-1.549 2.2041-1.291 5.2779.723 7.1848zm9.26 1.1592c-1.382 1.4569-3.248 2.2883-5.256 2.3412-2.006.0536-3.914-.6775-5.372-2.0588-3.007-2.8501-3.133-7.6064-.282-10.6214 2.853-3.0054 7.62-3.1316 10.627-.2816 1.458 1.3806 2.289 3.2458 2.342 5.2518.045 1.6307-.431 3.1959-1.353 4.5069-.213.3012-.448.5896-.706.8619z" fill="#fee9d1"/><path d="m325.154 30.9356c0 6.6647-3.388 12.6308-8.492 16.1397-2.872 1.9767-6.285 3.1717-9.939 3.2809-1.814.0541-3.569-.1603-5.22-.6154-1.246-.3396-2.433-.814-3.552-1.4062-.282-.1539-.565-.3075-.842-.4786-5.219-3.1416-8.689-8.9471-8.689-15.6933 0-10.3568 8.182-19.0484 18.303-19.4222 10.161-.3753 18.431 7.7669 18.431 18.1951z" fill="#b3200e"/><path d="m316.715 30.2492c0 5.1815-2.634 9.8199-6.601 12.548-2.234 1.537-4.887 2.4661-7.728 2.5509-1.409.0421-2.774-.1246-4.059-.4785-.968-.264-1.891-.633-2.761-1.0933-.219-.1194-.44-.239-.654-.3721-4.058-2.4423-6.757-6.956-6.757-12.2011 0-8.0521 6.362-14.8095 14.231-15.1001 7.9-.2917 14.329 6.0385 14.329 14.1462z" fill="#fa541c"/><path d="m358.607 113.374c-.03 0-.061-.002-.091-.007l-18.769-2.906-22.831-3.535-20.487-3.17-102.721-15.9034c-.409-.0631-.785-.2611-1.077-.565l-23.486-24.5714c-.307-.3221-.469-.7673-.442-1.2254l.128-2.2753.143.0744c.006.0495.027.0978.064.1361l24.566 24.8649c.339.3437.773.5675 1.244.6402l164.83 25.5179c.008.001.017.001.025.001.101 0 .176-.089.175-.185l.184.244-.869 2.438c-.093.258-.329.427-.586.427zm-14.531-28.1021-.828-1.307c-.209-.3301-.124-.7779.191-1.0078l22.986-16.8058-1.05 3.3207c-.03.0743-.818.6923-2.09 1.6539-4.442 3.3573-14.768 10.9056-19.209 14.146z" fill="#b3200e"/><path d="m359.703 110.45c-.008 0-.018 0-.026-.001l-164.829-25.5179c-.471-.0727-.906-.2964-1.244-.6402l-24.566-24.8649c-.038-.0382-.058-.0865-.066-.1361-.006-.0869.031-.1778.113-.2261l31.284-18.6091c.353-.2098.749-.3187 1.149-.3187.112 0 .224.0085.335.0258l164.726 25.5016c.153.0236.199.2307.07.3243l-.224.1636-22.987 16.8058c-.315.2299-.4.6777-.19 1.0078l16.599 26.2051c.021.03.029.063.03.095.002.096-.074.185-.174.185zm-153.663-44.3648c-.292 0-.55.2129-.597.5092l-.565 3.5825c-.052.3277.175.6382.502.6899l79.499 12.5361c.032.005.062.0074.093.0074.291 0 .55-.2129.597-.509l.565-3.5827c.052-.3277-.173-.638-.502-.6898l-79.498-12.5363c-.031-.0049-.063-.0073-.094-.0073zm2.424-13.497c-.291 0-.549.2128-.595.509l-.608 3.8429c-.052.3276.175.638.503.6897l80.14 12.6373c.031.005.062.0074.092.0074.292 0 .55-.2129.597-.5092l.606-3.8429c.052-.3276-.173-.638-.5-.6896l-80.14-12.6372c-.032-.0051-.063-.0074-.095-.0074z" fill="#fa541c"/><path d="m312.891 80.1498c0 3.4529-2.801 6.2521-6.256 6.2521-3.454 0-6.255-2.7992-6.255-6.2521s2.801-6.252 6.255-6.252c3.455 0 6.256 2.7991 6.256 6.252z" fill="#fdab76"/><path d="m287.996 70.2762c-.03 0-.061-.0023-.093-.0074l-80.14-12.6372c-.327-.0517-.554-.3622-.502-.6897l.608-3.843c.045-.2961.304-.5089.595-.5089.031 0 .063.0023.094.0074l80.14 12.6372c.328.0516.553.362.501.6896l-.606 3.8429c-.047.2962-.306.5091-.597.5091z" fill="#fdab76"/><path d="m284.972 83.4124c-.032 0-.062-.0024-.093-.0074l-79.499-12.5361c-.328-.0517-.554-.3622-.502-.6899l.565-3.5825c.047-.2963.305-.5092.596-.5092.032 0 .063.0024.095.0073l79.497 12.5363c.33.0518.555.3621.503.6898l-.566 3.5827c-.047.2961-.305.509-.596.509z" fill="#fdab76"/><path d="m183.159 213.162 1.671.409 23.942-24.126 142.723-13.067 19.048-2.377c.395-.05.74.271.719.669l-.165 3.112c-.06.425-18.162 21.772-18.162 21.772l22.506 18.301-.262 2.508c-.031.299-.258.53-.541.554l-18.385 1.555-143.04 12.095c-.401.034-.801-.067-1.146-.289l-27.807-17.873c-.366-.235-.619-.62-.699-1.059z" fill="#4027b6"/><path d="m209.96 187.552 160.864-13.603c.33-.028.529.357.316.61l-17.713 21.028c-.242.288-.219.738.051.999l21.691 21.009c.107.103.042.284-.106.296l-161.443 13.651c-.461.039-.923-.073-1.322-.32l-28.894-17.905c-.125-.077-.143-.251-.04-.354l25.261-24.793c.365-.358.834-.575 1.335-.618z" fill="#754ffe"/><path d="m215.791 204.716c-.31 0-.576-.24-.601-.555l-.323-4.127c-.027-.332.224-.623.554-.648l89.663-7.005c.016-.001.032-.001.047-.001.311 0 .577.24.602.555l.323 4.127c.026.33-.224.623-.555.648l-89.663 7.005c-.015.001-.031.001-.047.001z" fill="#b195fe"/><path d="m216.571 218.803c-.31 0-.576-.241-.602-.556l-.3-3.851c-.027-.332.223-.623.554-.649l88.947-6.949c.015 0 .031-.002.047-.002.312 0 .578.243.601.557l.302 3.852c.026.33-.225.621-.555.648l-88.947 6.948c-.016.002-.032.002-.047.002z" fill="#b195fe"/><path d="m237.391 173.403c-.288 0-.545-.181-.625-.45l-.718-2.407.222-.23c-.009.099.066.197.175.197.006 0 .011 0 .015-.002l176.686-14.667c.504-.041.983-.231 1.372-.542l28.083-22.525c.042-.034.067-.08.077-.127l.16-.063-.053 2.204c-.011.444-.219.864-.572 1.157l-26.914 22.307c-.334.275-.75.443-1.187.48l-97.197 8.069-20.487 1.7-38.86 3.227-20.119 1.669c-.02.001-.039.003-.058.003zm17.691-26.266c-5.706-4.396-21.166-16.333-21.279-16.663l-.888-3.405.039-.001c-.023.111.011.236.118.317l22.872 17.562c.312.238.364.683.117.987z" fill="#b76e00"/><path d="m236.445 170.516c-.109 0-.184-.097-.175-.196.005-.032.016-.063.039-.091l19.752-24.292c.247-.303.195-.748-.116-.986l-22.872-17.562c-.107-.082-.142-.206-.118-.318.028-.127.13-.239.285-.251l63.189-5.246 20.486-1.701 83.969-6.97 8.563-.711c.071-.006.142-.009.213-.009.475 0 .939.132 1.336.382l31.584 19.864c.081.05.114.141.098.225-.009.047-.035.092-.077.127l-28.083 22.524c-.389.312-.868.502-1.371.543l-176.686 14.667c-.005.001-.01.001-.016.001zm170.311-31.814c-.015 0-.031.001-.047.001l-86.875 6.788c-.33.025-.581.317-.554.648l.313 4.009c.026.314.29.555.602.555.016 0 .031 0 .047-.001l86.875-6.788c.332-.025.581-.316.556-.648l-.315-4.007c-.024-.317-.29-.557-.602-.557zm-.143-14.862c-.016 0-.031.001-.047.003l-87.576 6.841c-.33.025-.579.318-.554.648l.336 4.292c.025.315.291.557.601.557.016 0 .031-.002.047-.003l87.576-6.841c.33-.025.581-.316.554-.648l-.335-4.292c-.026-.315-.29-.557-.602-.557z" fill="#ffab00"/><path d="m319.371 136.181c-.31 0-.576-.242-.601-.557l-.335-4.292c-.025-.33.223-.623.554-.648l87.575-6.841c.016-.002.032-.003.048-.003.311 0 .576.242.601.557l.335 4.292c.027.332-.223.623-.554.648l-87.575 6.841c-.016.002-.032.003-.048.003z" fill="#ffd666"/><path d="m320.194 150.703c-.312 0-.577-.241-.602-.556l-.313-4.009c-.027-.33.224-.623.554-.648l86.875-6.787c.016 0 .032-.002.047-.002.312 0 .578.241.602.557l.315 4.007c.025.332-.224.623-.556.649l-86.875 6.787c-.016.002-.032.002-.047.002z" fill="#ffd666"/><path d="m311.669 143.652c0 3.326-2.697 6.023-6.025 6.023s-6.027-2.697-6.027-6.023c0-3.325 2.699-6.021 6.027-6.021s6.025 2.696 6.025 6.021z" fill="#ffd666"/><path d="m319.551 176.703c-4.818-5.93-9.342-5.673-9.342-5.673-7.597 30.753-47.789 57.847-87.239 69.688 2.464 10.956 8.202 29.503 20.608 44.154 65.625-36.055 75.973-108.169 75.973-108.169z" fill="#fdbab9"/><path d="m318.353 178.187c.494 1.625-5.435 4.036-8.848-2.624-.091-3.177-1.894-16.802.028-19.371 10.246-13.684 30.02-30.771 30.02-30.771 3.284 3.3.522 6.484.522 6.484l-9.608 9.813c1.957 3.611 4.355 6.668 5.451 11.025.829 3.299.269 6.812-1.424 9.792-1.698 2.99-4.013 6.876-6.196 9.914-4.131 5.751-9.945 5.738-9.945 5.738z" fill="#fdbab9"/><path d="m172.296 248.338c-49.608-1.291-104.4863 12.026-104.4863 12.026-13.0648 72.048-7.3167 153.544-5.0925 178.227.4166 4.621 3.8762 8.375 8.4437 9.213 25.6352 4.709 52.6701 1.852 66.2701-.217 5.29-.804 9.52-4.797 10.644-10.025 8.987-41.806 34.661-134.033 34.661-134.033 24.27-2.776 44.308-9.576 60.842-18.66-12.406-14.651-18.145-33.198-20.608-44.153-17.594 5.28-35.373 8.021-50.674 7.622z" fill="#4027b6"/><path d="m86.3823 308.557-18.5726-48.193s-46.6444 31.026-54.6469 70.852c8.7508.729 24.6633 3.158 40.1851 11.176 3.6071-18.806 33.0344-33.835 33.0344-33.835z" fill="#4027b6"/><path d="m126.451 354.126s-52.3134 28.891-69.6306 3.629c-3.5952-5.245-4.4174-10.431-3.4722-15.36-15.5218-8.018-31.4343-10.448-40.1851-11.176-2.4125 12.008-1.32 24.812 5.6291 37.809 30.2168 56.515 114.4218-2.017 114.4218-2.017z" fill="#fdbab9"/><path d="m122.646 375.756s-3.971-16.312-2.369-22.099c1.601-5.789 4.704-13.229 15.045-11.575 10.341 1.653 22.54 6.007 22.54 6.007s-.617 7.538-8.476 5.105l4.874 3.77s-.697 6.035-7.335 2.812l4.533 4.997s-2.851 4.957-7.736 1.778c-4.884-3.18-7.225 11.17-21.076 9.205z" fill="#fdbab9"/><path d="m115.76 399.787 28.497-99.459c.324-1.128 1.287-1.951 2.454-2.088 5.164-.601 20.125-2.292 37.398-3.752 20.808-1.759 44.971-3.185 59.411-1.971 2.051.171 3.292 2.342 2.379 4.188-8.21 16.6-41.985 84.132-58.899 106.255-.561.732-1.427 1.161-2.349 1.152l-66.119-.614c-1.924-.019-3.301-1.863-2.772-3.711z" fill="#754ffe"/><path d="m182.209 324.177c0 4.616 3.745 8.359 8.366 8.359s8.364-3.743 8.364-8.359c0-4.618-3.743-8.361-8.364-8.361s-8.366 3.743-8.366 8.361z" fill="#b195fe"/><path d="m147.481 329.689 5.803-19.67c.711-2.415 2.654-4.229 5.071-4.732 18.185-3.792 67.959-4.596 68.46-4.604l-.033-2.223c-2.053.031-50.489.816-68.882 4.652-3.218.67-5.805 3.078-6.749 6.279l-5.803 19.671z" fill="#b195fe"/><path d="m122.424 207.609-16.224 45.476c-.267.752.035 1.592.732 1.987 4.281 2.418 19.719 9.439 38.516-2.221 1.959-1.215 3.303-3.213 3.62-5.495l5.489-39.442z" fill="#fdbab9"/><path d="m157.177 165.68s17.025 32.777 14.677 45.931c-2.349 13.153-23.824 12.001-42.483 1.123l-12.774-35.339z" fill="#fdbab9"/><path d="m130.365 195.451c.767-.33 1.056-1.26.606-1.962-1.368-2.133-3.931-6.485-4.725-10.28 0 0-3.098-2.023 7.976-4.561s27.589-6.484 31.142-15.849c3.464-9.131-5.187-32.26-19.517-14.034-.545.694-1.6.7-2.132-.005-2.29-3.039-8.331-9.363-16.836-5.645-7.959 3.477-8.907 9.274-8.827 12.2.024.861-.752 1.523-1.596 1.353-4.001-.802-13.61-1.55-18.1918 8.267-3.7749 8.083-1.4153 12.703.751 14.972.7022.734.3794 1.932-.5951 2.22-2.6417.78-6.0631 2.98-5.7817 9.149.3893 8.529 9.9336 7.868 12.6526 7.505.445-.059.892.099 1.19.434 2.303 2.597 12.687 13.63 24.027 15.055.983.125 1.754-.838 1.441-1.778l-4.777-14.319c-.222-.665.103-1.389.746-1.668z" fill="#1c0f79"/><path d="m132.32 197.496s-12.261-8.581-13.232-1.462c-.969 7.118 11.017 10.43 16.994 7.829z" fill="#fdbab9"/><g fill="#fdab76"><path d="m93.4132 39.6702c-.1629-.3621-.1857-.7871-.0294-1.1862.2394-.6045.8147-.9722 1.4248-.9722.186 0 .3749.034.5589.106.0108.0044.0216.0086.0326.0128-.6704.6817-1.3321 1.3609-1.9869 2.0396z"/><path d="m127.935 119.619c-.402-.946-.793-1.89-1.166-2.83.527-1.27 1.014-2.566 1.449-3.863.21-.641.809-1.046 1.451-1.046.16 0 .324.026.484.08.802.269 1.235 1.136.966 1.938-.541 1.615-1.158 3.228-1.833 4.797-.036.08-.076.158-.124.228-.275.423-.738.677-1.227.696zm3.781-12.548c-.094 0-.188-.008-.284-.026-.832-.156-1.379-.955-1.222-1.785.298-1.593.533-3.216.697-4.827.08-.7894.743-1.3765 1.519-1.3765.052 0 .104.002.158.008.84.0862 1.453.8356 1.367 1.6775-.173 1.695-.419 3.406-.734 5.081-.038.204-.114.389-.218.553-.279.427-.76.695-1.283.695z"/><path d="m33.1154 140.255c-.3658 0-.7329-.133-1.0257-.397-.6161-.557-1.2308-1.136-1.8271-1.721-.6026-.593-.614-1.559-.0195-2.164.2998-.305.6955-.459 1.0918-.459.387 0 .7743.146 1.0722.439.5661.557 1.1504 1.106 1.7354 1.635.5653.511.6603 1.348.2577 1.967-.0437.069-.0932.133-.1489.195-.3021.334-.7181.505-1.1359.505z"/><path d="m14.1963 87.1723c-.0761 0-.153-.006-.2304-.0181-.8357-.1262-1.411-.9056-1.2852-1.7412.2585-1.7111.5955-3.4363 1.0013-5.1234.1687-.7013.7955-1.1722 1.4863-1.1722.1187 0 .2391.014.3595.0421.8211.1983 1.3273 1.0238 1.1295 1.8454-.3851 1.6029-.7047 3.24-.95 4.865-.0334.2224-.1138.4268-.229.6051-.2769.4248-.7568.6973-1.282.6973z"/><path d="m17.6577 74.2947c-.1867 0-.3765-.0341-.5606-.1062-.7861-.3106-1.1722-1.1983-.8624-1.9857.6354-1.609 1.3485-3.214 2.1187-4.7688.2647-.539.8069-.8496 1.3703-.8496.2291 0 .4617.0501.6807.1603.7568.3747 1.0664 1.2924.6911 2.0498-.7324 1.4767-1.41 3.0015-2.0133 4.5324-.0385.0981-.0864.1883-.1415.2725-.2843.4388-.772.6953-1.283.6953z"/><path d="m23.8934 62.5069c-.2964 0-.5957-.086-.8594-.2653-.6895-.4691-.875-1.4024-.4228-2.0985l.0182-.0268c.975-1.4346 2.0232-2.8424 3.1146-4.1851.3027-.3721.7438-.565 1.1886-.565.3394 0 .6806.1122.9646.343.6123.4977.7393 1.3719.3185 2.0195-.0294.0453-.0619.0898-.0963.1331-1.0371 1.2755-2.033 2.6126-2.9595 3.9749-.2959.4356-.777.6702-1.2665.6702z"/><path d="m32.5779 52.3979c-.4105 0-.8201-.1643-1.1214-.4889-.5755-.6195-.5364-1.5849.0801-2.1628 1.2692-1.1786 2.6054-2.3165 3.9714-3.3816.2793-.218.6109-.3238.9399-.3238.4554 0 .9059.2023 1.2076.5891.4126.5285.423 1.2431.077 1.7752-.09.1387-.2048.2647-.3425.3723-1.2968 1.0117-2.5657 2.0921-3.7707 3.2116-.2948.2735-.6685.4089-1.0414.4089z"/><path d="m110.692 49.8062c-.339 0-.679-.1118-.964-.3413-1.275-1.0331-2.615-2.0263-3.982-2.952-.691-.4683-.878-1.403-.425-2.1001l.017-.0252c.295-.4366.777-.672 1.268-.672.295 0 .594.0855.857.2636 1.438.9744 2.848 2.0198 4.193 3.1076.613.4973.741 1.3729.32 2.0213-.03.0447-.06.0883-.094.1304-.302.3737-.745.5677-1.19.5677z"/><path d="m43.2973 44.4895c-.5292 0-1.0438-.2747-1.3269-.7658-.4224-.7322-.1715-1.6679.5609-2.0903 1.5005-.8658 3.0572-1.6773 4.6257-2.4124.21-.0982.4308-.1449.6482-.1449.5753 0 1.1263.326 1.3868.8814.233.4971.1751 1.0556-.1034 1.4844-.1505.2312-.3647.4249-.6332.5506-1.4903.6983-2.9687 1.4695-4.3949 2.292-.2409.1389-.5038.205-.7632.205z"/><path d="m99.4606 42.6232c-.2274 0-.4582-.0511-.676-.1585-1.4791-.7303-3.004-1.4042-4.5328-2.0035-.3875-.1519-.6784-.4448-.8369-.7969.6548-.6786 1.3164-1.3579 1.9868-2.0395 1.5974.6273 3.1913 1.3322 4.7373 2.0952.758.3741 1.069 1.292.695 2.0498-.027.0551-.057.1078-.09.1579-.288.4426-.7768.6955-1.2834.6955z"/><path d="m55.5118 39.157c-.6537 0-1.2586-.4218-1.4618-1.0788-.2498-.8079.2028-1.6647 1.0105-1.9137 1.6577-.5126 3.3552-.9596 5.0446-1.3287.1102-.0242.2202-.0359.3286-.0359.7033 0 1.3366.4881 1.4927 1.2039.0912.4157.0036.8295-.2116 1.1605-.2118.326-.5466.5717-.9563.6611-1.6054.351-3.2186.7756-4.7943 1.2631-.1505.0465-.3028.0685-.4524.0685z"/><path d="m86.929 38.0961c-.1174 0-.2369-.0137-.3563-.0421-1.6003-.3817-3.2365-.6983-4.8645-.9412-.8356-.1244-1.4124-.9034-1.2876-1.7392.114-.7588.7668-1.3046 1.5124-1.3046.0749 0 .1505.0054.2268.0169 1.7144.2556 3.4379.5892 5.123.991.822.1962 1.3293 1.0215 1.1337 1.8438-.0419.1751-.1122.3362-.2052.4789-.2795.43-.7626.6965-1.2823.6965z"/><path d="m68.6062 36.6547c-.7919 0-1.4625-.6101-1.5245-1.4126-.0643-.8425.5663-1.5777 1.408-1.6434 1.5593-.12 3.1411-.1807 4.709-.1807.1693 0 .338.0006.5069.0022.8452.0072 1.5246.6981 1.5171 1.5432-.0027.3022-.0925.5833-.246.8195-.2733.4206-.7471.6979-1.2843.6979-.0042 0-.0082 0-.0125 0-.1663-.0014-.333-.0022-.4997-.0022-1.4841 0-2.9801.0579-4.455.1715-.0399.003-.0796.0046-.119.0046z"/><path d="m13.5581 97.898c-.8221 0-1.5021-.6532-1.528-1.4807-.0258-.8315-.0352-1.6751-.0274-2.5086.0064-.8415.6908-1.5168 1.5292-1.5168h.015c.845.008 1.5238.6993 1.5158 1.5449-.007.7934.0014 1.5949.0267 2.3843.0102.3246-.0816.6272-.2459.8796-.2637.4068-.7153.6813-1.2363.6973-.0164 0-.0326 0-.0491 0z"/><path d="m76.8379 155.562c-.8013 0-1.4742-.623-1.5256-1.435-.0535-.843.587-1.571 1.4302-1.623 1.6146-.102 3.2466-.274 4.8514-.513.0759-.01.1512-.016.2256-.016.7462 0 1.3996.547 1.5118 1.307.0569.384-.0341.755-.2302 1.058-.2307.354-.6074.613-1.0594.679-1.6885.25-3.4065.431-5.1056.539-.0329.002-.0658.004-.0982.004zm-8.1294-.042c-.0377 0-.0758-.002-.1139-.006-1.7021-.124-3.4187-.325-5.1016-.593-.8347-.132-1.4034-.918-1.2701-1.751.12-.754.7708-1.291 1.5098-1.291.0801 0 .161.006.2426.02 1.5977.255 3.2276.445 4.8446.563.8429.062 1.4755.796 1.4134 1.639-.0199.267-.1062.511-.2423.72-.2745.422-.751.699-1.2825.699zm21.0529-2.218c-.6637 0-1.2746-.433-1.4691-1.102-.2361-.814.2308-1.663 1.0427-1.898 1.5538-.451 3.1095-.976 4.6227-1.555.1804-.07.3655-.102.5478-.102.6154 0 1.1954.375 1.4291.982.1821.477.1114.988-.1465 1.385-.1699.26-.421.472-.7344.593-1.5925.611-3.2291 1.162-4.8648 1.637-.1424.04-.2863.06-.4275.06zm-33.954-.193c-.1479 0-.2982-.022-.447-.068-1.6286-.495-3.2575-1.068-4.8422-1.701-.7846-.314-1.1669-1.204-.853-1.99.2389-.597.8145-.961 1.4227-.961.1885 0 .3803.034.566.108 1.5054.603 3.0523 1.146 4.5991 1.617.8083.246 1.264 1.102 1.0175 1.911-.0429.141-.1042.271-.1803.387-.2816.435-.767.697-1.2828.697zm46.0716-4.823c-.54 0-1.063-.286-1.342-.793-.407-.741-.136-1.671.604-2.078 1.422-.781 2.825-1.631 4.171-2.527.26-.172.554-.254.845-.254.496 0 .981.238 1.276.683.349.525.331 1.184.009 1.681-.111.171-.257.321-.436.439-1.417.944-2.895 1.838-4.391 2.659-.234.128-.487.19-.736.19zm-58.1213-.358c-.2555 0-.5145-.064-.7526-.199-1.0916-.619-2.178-1.278-3.2279-1.961-.3803-.247-.7566-.497-1.1297-.752-.6981-.474-.8983-1.426-.4028-2.126.296-.434.7767-.669 1.2658-.669.2967 0 .5965.086.8604.267.3542.24.7125.481 1.0739.715.9985.649 2.0304 1.274 3.0683 1.864.7354.416.9939 1.35.5773 2.085-.0156.026-.0319.054-.0491.081-.2899.446-.78.695-1.2836.695zm68.8433-7.181c-.424 0-.845-.177-1.148-.517-.559-.634-.499-1.601.133-2.16 1.216-1.074 2.398-2.213 3.514-3.381.301-.316.703-.475 1.106-.475.381 0 .761.141 1.058.425.541.515.619 1.333.226 1.938-.05.08-.11.154-.176.224-1.176 1.232-2.42 2.431-3.701 3.561-.29.256-.653.385-1.012.385zm8.803-9.721c-.311 0-.623-.094-.896-.29-.683-.495-.838-1.451-.345-2.136.942-1.304 1.844-2.669 2.689-4.072.285-.476.792-.741 1.313-.741.268 0 .541.072.789.22.724.437.956 1.377.519 2.1-.367.609-.741 1.209-1.124 1.798-.547.843-1.12 1.679-1.703 2.486-.299.415-.767.635-1.242.635zm6.476-11.411c-.203 0-.407-.04-.606-.124-.775-.335-1.134-1.234-.799-2.012.1-.23.198-.46.295-.693.372.94.763 1.884 1.166 2.829-.018 0-.036 0-.056 0z"/><path d="m132.687 93.9457c-.819 0-1.496-.6492-1.527-1.4748-.03-.7854-.074-1.5869-.136-2.3804-.066-.8435.565-1.5769 1.407-1.643.04-.004.08-.004.12-.004.791 0 1.461.6091 1.525 1.4106.064.8356.112 1.6771.142 2.5046.012.3266-.08.6332-.246.8897-.261.4027-.71.6772-1.227.6953-.02.002-.038.002-.058.002z"/><path d="m114.78 75.3793c-.092-.2905-.36-.4909-.665-.4969l-8.702-.1924c-2.091-3.4864-4.752-6.6643-7.9371-9.3753l1.2419-8.6105c.0434-.3022-.1094-.5985-.3807-.7382l-9.2838-4.7778c-.2713-.1399-.6013-.092-.8217.119l-6.2848 6.0147c-4.0583-1.0157-8.1914-1.3347-12.2434-1.0097l-5.2135-6.9706c-.1827-.2445-.5005-.3459-.7908-.2527l-9.9434 3.1859c-.2904.0932-.4901.3604-.4967.6654l-.1912 8.7027c-3.4864 2.0905-6.6645 4.7518-9.3767 7.9377l-8.6099-1.2423c-.3022-.0441-.5985.1082-.7382.3807l-4.778 9.2831c-.1397.2725-.0918.6011.1192.8216l6.0147 6.2856c-1.0157 4.0575-1.3346 8.1911-1.0096 12.2426l-6.9707 5.2141c-.2443.182-.3461.5-.2527.791l3.1859 9.942c.093.291.3605.491.6652.497l8.7029.193c2.0905 3.486 4.752 6.664 7.9371 9.375l-1.2419 8.61c-.0437.302.1092.599.3805.739l9.2839 4.777c.2713.14.6013.092.8218-.118l6.2848-6.015c4.0583 1.016 8.1915 1.334 12.2436 1.01l5.2132 6.971c.1828.244.5003.346.7911.252l9.9432-3.186c.2905-.092.4899-.361.4967-.665l.1911-8.702c3.4865-2.092 6.6643-4.753 9.377-7.939l8.61 1.242c.301.044.597-.108.738-.38l4.778-9.283c.139-.273.093-.602-.12-.822l-6.015-6.286c1.016-4.0571 1.335-8.1907 1.01-12.2422l6.971-5.2137c.244-.1823.347-.5009.252-.7914z"/></g><path d="m80.5881 101.276c-3.8273 4.34-10.472 4.758-14.8134.929-2.1031-1.853-3.358-4.4139-3.5337-7.213-.1762-2.7972.7474-5.4962 2.6022-7.5981 3.8275-4.3421 10.4721-4.7588 14.8134-.9317 3.9493 3.4824 4.6516 9.2952 1.8638 13.5848-.2763.425-.5875.836-.9323 1.229z" fill="#fee9d1"/><path d="m94.1146 108.488c.4789-.738.9233-1.501 1.3311-2.295.1282-.248.2525-.499.3729-.753.5929-1.248 1.0854-2.543 1.4699-3.863l.016-.054c.0147-.05.0293-.102.0433-.152.0283-.101.0555-.201.0826-.301.0709-.263-.0403-.531-.2567-.671-.0527-.034-.1116-.06-.1753-.078-.3264-.089-.6615.106-.7498.432-.4523 1.679-1.0886 3.322-1.8915 4.881-3.985 7.745-11.5426 12.477-19.6333 13.225-4.5001.417-9.1653-.401-13.4731-2.617-.7556-.389-1.486-.814-2.1883-1.27-4.7291-3.074-8.228-7.642-9.972-13.087-2.0039-6.2511-1.4525-12.9114 1.5521-18.7482 6.2067-12.0582 21.0549-16.811 33.1064-10.6096.7431.3827 1.4641.8015 2.16 1.2544 3.0165 1.9616 5.5705 4.5604 7.4694 7.62.0491.0782.113.1423.1863.1904.1924.1242.4482.1362.6562.006.287-.1783.3765-.555.1974-.8436-1.9937-3.2119-4.6749-5.9409-7.8417-7.9987-.7306-.4749-1.4872-.9157-2.267-1.3165-12.653-6.512-28.2456-1.5128-34.7554 11.1366-3.1547 6.1293-3.7331 13.1182-1.6296 19.6842 1.8307 5.715 5.5041 10.51 10.4687 13.738.7376.478 1.5044.923 2.2969 1.332 6.1295 3.156 13.1202 3.733 19.6843 1.631 5.7162-1.831 10.5133-5.506 13.7402-10.473z" fill="#fee9d1"/><path d="m163.286 19.0355c-.034-.2166.006-.4464.13-.6476.166-.2458.443-.4057.734-.4342-.291.3601-.576.7177-.864 1.0818z" fill="#fdab76"/><path d="m139.553 93.4231c-.301-.026-.601-.0561-.9-.0901-.164-.0181-.315-.0762-.441-.1663-.056-.4609-.112-.9298-.162-1.4006.174-.1964.431-.3166.707-.3166.034 0 .068.002.104.004.155.018.311.0341.465.0501.07.6492.147 1.2904.227 1.9195z" fill="#fdab76"/><path d="m148.41 93.2312c-.465 0-.872-.3446-.934-.8195-.07-.517.295-.9919.812-1.062 1.553-.2064 3.112-.5109 4.634-.9037.081-.02.159-.03.237-.03.421 0 .805.2825.916.7093.068.2665.016.537-.125.7514-.124.1903-.316.3386-.555.3987-1.595.4128-3.23.7314-4.859.9478-.042.006-.084.008-.126.008zm9.347-2.4165c-.376 0-.735-.2284-.879-.6011-.193-.4849.048-1.0339.535-1.2243 1.46-.571 2.901-1.2403 4.282-1.9856.142-.0762.294-.1122.446-.1122.337 0 .662.1803.834.4969.168.3146.142.6832-.04.9638-.084.1282-.2.2384-.343.3165-1.448.7795-2.959 1.4808-4.49 2.0819-.114.0441-.23.0641-.345.0641zm8.492-4.5784c-.296 0-.587-.1403-.771-.3988-.303-.4268-.203-1.0139.224-1.3184 1.278-.9057 2.515-1.8995 3.681-2.9575.18-.1643.409-.2444.635-.2444.257 0 .513.1042.699.3085.295.3246.321.7995.093 1.1502-.043.0661-.097.1302-.157.1863-1.22 1.1081-2.518 2.15-3.859 3.0997-.164.1183-.357.1744-.545.1744zm7.139-6.4961c-.218 0-.439-.0741-.617-.2284-.395-.3406-.435-.9357-.1-1.3324 1.022-1.1862 1.982-2.4506 2.855-3.757.183-.2745.481-.4208.786-.4208.182 0 .364.0521.525.1603.43.2866.549.8676.268 1.3004l-.008.0101c-.916 1.3705-1.921 2.6949-2.991 3.9392-.189.2184-.453.3286-.718.3286zm5.364-8.0228c-.142 0-.288-.034-.427-.1042-.464-.2344-.651-.8035-.414-1.2683.709-1.4006 1.342-2.8593 1.879-4.334.14-.3807.503-.6212.89-.6212.106 0 .214.0181.32.0581.491.1784.744.7194.565 1.2103-.561 1.5448-1.224 3.0736-1.969 4.5404-.016.032-.032.0601-.05.0881-.179.2745-.481.4308-.794.4308zm3.298-9.075c-.07 0-.14-.0078-.212-.0242-.509-.117-.826-.6248-.709-1.1331.352-1.5298.615-3.0965.777-4.6568.052-.4855.463-.8468.94-.8468.034 0 .066.0016.098.005.519.0545.898.5192.841 1.0384-.17 1.6366-.444 3.2802-.813 4.8846-.026.1108-.07.2126-.13.3027-.173.2655-.471.4302-.792.4302z" fill="#fdab76"/><path d="m173.451 27.725c-.267 0-.531-.1118-.718-.3296-.499-.5811-1.021-1.1546-1.552-1.7044-.363-.3751-.357-.9744.022-1.3364.182-.1776.42-.2659.657-.2659.246 0 .493.0963.679.2879.557.5771 1.106 1.1786 1.629 1.7875.279.3262.297.7875.074 1.1303-.048.0737-.106.1423-.176.203-.178.1527-.397.2276-.615.2276z" fill="#fdab76"/><path d="m106.451 38.1709c-.123 0-.248-.0243-.368-.0752-.481-.2036-.706-.7578-.502-1.2387.563-1.3306 1.209-2.6535 1.917-3.9278.107-.1944.216-.3859.326-.5777.165-.3052.484-.4735.812-.4735.164 0 .33.0419.481.1291.45.2612.605.8391.344 1.2916-.104.1787-.206.3596-.308.545-.678 1.2198-1.294 2.4813-1.832 3.7503-.022.0523-.048.1016-.078.1475-.176.2713-.478.4294-.792.4294zm4.9-8.5024c-.197 0-.397-.0619-.567-.1905-.417-.3138-.495-.9011-.187-1.3241 1.01-1.339 2.11-2.6254 3.27-3.823.187-.1914.433-.2876.68-.2876.236 0 .474.0886.657.2663.33.3194.376.8213.136 1.1928-.034.0503-.072.0984-.114.1433-1.106 1.1419-2.156 2.3688-3.118 3.6469-.186.2461-.471.3759-.757.3759z" fill="#fdab76"/><path d="m168.23 22.6655c-.208 0-.416-.0686-.593-.2092-1.026-.8262-2.106-1.6092-3.21-2.3267-.232-.1515-.468-.3006-.707-.4481-.242-.1504-.393-.3925-.435-.6538.289-.364.573-.7217.864-1.0818.032-.003.062-.0046.094-.0046.162 0 .327.0421.475.1341.248.1545.495.3108.739.469 1.158.7524 2.291 1.5734 3.367 2.44.38.3063.46.8485.2 1.2501-.018.0268-.036.0529-.056.0789-.189.2314-.461.3521-.738.3521z" fill="#fdab76"/><path d="m118.18 22.621c-.277 0-.551-.1206-.737-.3526-.327-.407-.263-.9999.144-1.3293 1.3-1.0467 2.683-2.0231 4.105-2.9023.157-.0954.327-.1409.497-.1409.317 0 .626.1591.804.4482.198.3214.182.7154-.01 1.0121-.074.1136-.172.2134-.297.2891-1.356.838-2.673 1.7687-3.915 2.7672-.174.1402-.383.2085-.591.2085z" fill="#fdab76"/><path d="m159.892 17.4909c-.132 0-.267-.0281-.395-.0876-1.451-.6706-2.953-1.2577-4.47-1.7442-.499-.1597-.772-.6911-.611-1.1884.128-.3993.499-.6566.899-.6566.097 0 .193.0146.289.0453 1.589.5097 3.166 1.1248 4.687 1.8285.472.2192.679.7809.46 1.2552-.02.0412-.042.0811-.066.1186-.178.2723-.479.4292-.793.4292z" fill="#fdab76"/><path d="m126.522 17.4692c-.357 0-.699-.2046-.86-.5514-.216-.4747-.01-1.0361.465-1.2531 1.519-.6965 3.098-1.3065 4.693-1.8136.094-.0303.19-.0445.285-.0445.402 0 .773.2567.901.6586.088.2812.04.5731-.108.8021-.114.1769-.291.3166-.507.3857-1.521.4835-3.026 1.0656-4.476 1.73-.126.0585-.261.0862-.393.0862zm18.226-4.7402c.066-.2761.25-.5021.493-.6253-.165.2082-.329.4161-.493.6253z" fill="#fdab76"/><path d="m150.547 14.5004c-.058 0-.116-.0052-.177-.0162-1.566-.2947-3.169-.4937-4.762-.5923-.521-.0322-.918-.4807-.886-1.0014.004-.0549.012-.1086.024-.1603.164-.2092.329-.4172.493-.6254.128-.0651.272-.1016.425-.1016.02 0 .04.0006.06.002 1.671.1028 3.352.3124 4.995.621.513.0966.852.5905.756 1.1036-.025.1246-.071.2395-.137.3401-.172.2642-.469.4305-.791.4305z" fill="#fdab76"/><path d="m135.871 14.4962c-.445 0-.842-.317-.928-.771-.094-.5118.243-1.0067.756-1.1032 1.641-.3078 3.322-.5162 4.993-.6202.02-.0012.04-.0018.06-.0018.495 0 .912.3861.942.887.012.21-.044.4084-.151.5725-.158.2426-.422.41-.735.4292-1.593.0988-3.196.2975-4.761.5913-.058.011-.118.0162-.176.0162z" fill="#fdab76"/><path d="m143.151 93.578c-1.2 0-2.405-.0521-3.597-.1583-.08-.6291-.156-1.2703-.226-1.9195 1.26.1242 2.536.1883 3.807.1883.148 0 .294-.002.443-.004h.01c.519 0 .939.4168.945.9357.002.1944-.054.3747-.152.525-.166.2565-.453.4268-.781.4308-.151.002-.301.002-.449.002zm-4.937-.4148c-.273-.1923-.435-.5229-.395-.8776.022-.2024.106-.3807.232-.523.051.4709.107.9398.163 1.4006z" fill="#fdab76"/><path d="m183.055 52.9961c-.515-.0002-.936-.4116-.946-.9273-.014-.7721-.052-1.5467-.11-2.3027-.04-.5206.35-.9742.869-1.0161.024-.0018.048-.0028.074-.0028.489 0 .902.3769.942.8722.062.7931.1 1.605.116 2.4137.002.1962-.054.3791-.152.532-.166.2543-.451.4242-.775.4308-.006 0-.012.0002-.018.0002z" fill="#fdab76"/><path d="m171.05 39.923c-.064-.1943-.242-.3278-.446-.3324l-5.823-.1278c-1.399-2.333-3.18-4.4595-5.312-6.2744l.831-5.7615c.031-.2022-.072-.4003-.254-.4939l-6.211-3.1971c-.183-.0936-.403-.0615-.552.0795l-4.205 4.0249c-2.715-.6797-5.48-.8931-8.193-.6757l-3.489-4.6644c-.122-.1635-.334-.2314-.529-.1691l-6.652 2.1319c-.195.0621-.329.2411-.333.4453l-.128 5.8233c-2.332 1.3988-4.46 3.1799-6.276 5.3112l-5.76-.8311c-.203-.0291-.401.0731-.493.2547l-3.198 6.2125c-.094.1815-.062.4021.08.5498l4.024 4.2056c-.68 2.7156-.892 5.4813-.676 8.1927l-4.664 3.4884c-.163.1225-.231.3351-.169.5294l2.132 6.6541c.062.1944.241.3266.445.3326l5.823.1263c1.4 2.3343 3.18 4.4602 5.312 6.2756l-.832 5.7606c-.028.2024.074.4008.255.495l6.213 3.1959c.18.0941.403.0621.549-.0782l4.206-4.0254c2.715.6792 5.482.8936 8.193.6752l3.488 4.6646c.123.1643.335.2325.529.1684l6.655-2.132c.194-.0621.326-.2404.332-.4448l.129-5.8228c2.332-1.3986 4.458-3.1799 6.273-5.3118l5.761.8315c.202.0301.401-.0721.495-.2544l3.196-6.2125c.094-.1816.062-.4024-.078-.5498l-4.026-4.2056c.679-2.7156.894-5.4813.675-8.1928l4.665-3.4886c.164-.1222.232-.3348.17-.5292z" fill="#fdab76"/><path d="m148.266 57.3463c-1.262 1.4331-3.007 2.2879-4.913 2.4077-1.905.12-3.745-.5094-5.177-1.7727-2.956-2.6066-3.24-7.1253-.635-10.0906 2.608-2.9565 7.135-3.241 10.09-.6344 1.433 1.2627 2.288 3.0078 2.409 4.9135.096 1.5492-.301 3.054-1.132 4.3326-.191.2937-.405.576-.642.8439z" fill="#fee9d1"/><path d="m157.681 62.3622c.325-.5016.627-1.0237.908-1.5661.555-1.0774 1.001-2.2125 1.326-3.3767.014-.0523.028-.1048.042-.1573.11-.4055-.062-.8203-.397-1.0379-.08-.0529-.172-.094-.27-.1204-.503-.1359-1.02.1645-1.158.667-.293 1.0898-.706 2.1526-1.224 3.1595v.0004c-.029.0553-.059.1106-.087.1651-1.25 2.3718-3.043 4.3422-5.215 5.7909-1.18.7854-2.475 1.4166-3.855 1.8734l-.034.0101c-.035.012-.069.022-.103.034-4.047 1.2964-8.359.9398-12.138-1.0058-.489-.2505-.962-.525-1.417-.8216-3.061-1.9896-5.326-4.9477-6.456-8.472-1.296-4.0483-.939-8.3587 1.006-12.1378 1.946-3.7762 5.246-6.5752 9.293-7.873 4.048-1.2968 8.36-.9401 12.139 1.0053.481.247.948.5183 1.398.8111 1.952 1.2697 3.607 2.952 4.835 4.9329.076.122.175.221.289.2939.296.1932.691.2104 1.012.0108.443-.2765.581-.8575.304-1.302-1.374-2.2163-3.224-4.0991-5.408-5.5196-.505-.328-1.028-.6311-1.565-.908-4.229-2.1765-9.052-2.5756-13.581-1.1243-4.528 1.4515-8.223 4.5754-10.397 8.8075-2.176 4.2284-2.577 9.0509-1.124 13.58 1.262 3.9429 3.797 7.2521 7.221 9.4782.509.3306 1.038.6371 1.585.9197 8.187 4.2138 18.158 1.4426 23.071-6.1173z" fill="#fee9d1"/></g></svg>