<svg fill="none" height="466" viewBox="0 0 466 466" width="466" xmlns="http://www.w3.org/2000/svg"><path d="m452.173 217.725c-12.509 261.293-442.044 242.412-431.5705-18.959 12.5116-261.2805 442.0465-242.3975 431.5705 18.959z" fill="#919eab" fill-opacity=".08"/><path d="m394.186 193.809c-.863 209.332-338.1417 209.308-338.9731-.01.8621-209.3156 338.1401-209.2977 338.9731.01z" fill="#fdab76"/><g fill="#000" opacity=".12"><path d="m291.724 209.218c-1.375 59.415-4.114 127.878-33.739 180.661-7.581 12.02-20.638 21.536-33.791 10.715-29.826-28.419-36.906-97.623-41.069-137.622-4.801-67.822-3.559-174.1286 29.819-233.8768 12.728-20.10093 29.224-19.0172 42.326.2815 31.169 52.1991 34.993 120.2643 36.454 179.8413zm-2.925 0c-.427-52.469-4.592-106.124-22.695-155.7515-6.432-16.4163-22.351-50.39561-43.783-33.6591-41.744 44.1261-39.915 182.7806-36.306 242.9346 3.753 39.501 10.221 108.245 39.207 136.567 12.232 10.32 24.263.901 31.269-10.41 28.792-52.424 30.909-120.895 32.308-179.681z"/><path d="m380.778 209.22c1.393 87.11-52.697 194.331-150.08 196.112-46.423.385-87.947-29.101-112.814-66.784-50.1906-75.912-50.1664-182.722.093-258.5941 24.862-37.6479 66.366-66.9914 112.722-66.6744 97.319 1.878 151.383 108.8305 150.079 195.9405zm-3.351 0c.011-66.348-25.683-138.0024-82.997-175.5904-37.931-25.21883-89.524-25.22368-127.425.0599-110.83 75.0025-110.8009 275.9825.084 350.9255 37.906 25.185 89.324 25.22 127.255.058 57.316-37.533 83.036-109.131 83.084-175.453z"/><path d="m55.7754 131.625c116.9936-1.108 243.0446-1.105 360.1386.073.037.004.071.021.095.048.025.028.038.063.038.1s-.013.072-.038.1c-.024.027-.058.044-.095.048-116.657.736-244.908 2.023-360.1386-.369z"/><path d="m108 56.2264c84.571-1.1129 171.12-1.1404 255.689.0712.182 0 .187.3008 0 .296-84.102.7732-172.902 2.0251-255.689-.3672z"/><path d="m40.1299 207.026c125.3841-1.08 266.0461-1.108 391.4281.072.186 0 .189.302 0 .296-124.92.739-267.838 1.995-391.4281-.368z"/><path d="m55.7754 282.426c116.9936-1.108 243.0446-1.105 360.1386.073.186 0 .189.302 0 .296-116.657.736-244.908 2.023-360.1386-.369z"/><path d="m370.131 358.819c-.842-.77-256.577 1.476-256.459-.771-.214-.764 260.548-2.891 256.459.771z"/></g><path d="m376.158 427.241c-.082 8.039-6.989 14.558-15.431 14.578l-204.06.441c-8.502.018-15.561-6.496-15.763-14.567l-9.501-380.075c-.227-9.0371 6.91-16.3451 15.937-16.3014l216.608 1.0352c8.959.0437 16.144 7.3889 16.054 16.3855z" fill="#212b36"/><path d="m357.766 70.6765c.06-8.6845-7.064-15.7709-15.916-15.8097l-171.921-.757c-8.906-.0388-15.974 7.0104-15.784 15.7256l7.067 323.1556c.173 7.916 7.174 14.307 15.635 14.294l163.33-.259c8.411-.013 15.274-6.407 15.329-14.295z" fill="#454f5b"/><path d="m281.792 42.572c.003.399-.074.7944-.226 1.1634-.151.3691-.375.7043-.657.9864s-.617.5054-.986.657-.765.2284-1.163.2261l-44.743-.2022c-.812-.0093-1.588-.336-2.163-.9104-.574-.5743-.901-1.3507-.91-2.1629-.007-.3987.066-.7947.214-1.1648.148-.3702.369-.7069.649-.9905.281-.2836.615-.5083.983-.661.369-.1526.764-.2301 1.162-.2279l44.793.2103c.81.0072 1.585.3342 2.155.9098.571.5756.891 1.3531.891 2.1635z" fill="#454f5b"/><path d="m193.17 362.762c-6.899.935-26.251-3.819-26.347 7.625v10.145h4.853c-.474-18.925-.289-13.042 21.5-14.001 2.274 0 3.809 1.582 3.809 3.856v10.145h4.853c-.199-7.355 2.169-17.529-8.668-17.77z" fill="#b3200e"/><path d="m174.361 377.944c.029 1.026-.707 2.588-1.669 2.588h-6.723c-.939 0-1.839-1.507-1.839-2.518-.042-1.037.874-1.794 1.839-1.791h6.723c.94 0 1.669.708 1.669 1.721z" fill="#b3200e"/><path d="m204.515 377.944c.031 1.027-.765 2.588-1.726 2.588h-6.724c-1.467-.037-1.922-4.45 0-4.309h6.724c.228-.004.454.037.665.122s.402.211.564.372c.161.161.288.352.373.563.086.211.128.437.124.664z" fill="#b3200e"/><path d="m222.34 378.375h-78.723c-6.812 0-12.334 5.522-12.334 12.334v48.567c0 6.812 5.522 12.334 12.334 12.334h78.723c6.812 0 12.334-5.522 12.334-12.334v-48.567c0-6.812-5.522-12.334-12.334-12.334z" fill="#fa541c"/><path d="m231.656 392.363c0-6.105-5.176-10.922-11.57-10.922h-74.083c-6.39 0-11.571 4.817-11.571 10.922v43.545c0 6.106 5.176 11.056 11.571 11.056h74.083c6.391 0 11.57-4.95 11.57-11.056z" fill="#fdab76"/><path d="m156.591 449.97c0 1.722-1.742 3.796-3.508 3.796h-3.462c-1.766 0-3.26-2.074-3.26-3.796v-71.799c-.034-3.198 4.587-2.389 6.717-2.486 1.766 0 3.509.762 3.509 2.486z" fill="#754ffe"/><path d="m219.056 449.969c0 1.722-.808 3.796-2.588 3.796-3.288.034-6.132.55-6.573-3.796v-71.799c-.091-3.224 4.458-2.384 6.573-2.486 1.767 0 2.588.762 2.588 2.486z" fill="#754ffe"/><path d="m155.119 401.532h-7.135c-2.463 0-4.852-3.167-4.852-5.431v-4.395c.107-4.61 8.966-2.716 11.989-3.098 2.447 0 4.165.854 4.165 3.098.117 3.456.364 9.325-4.167 9.826zm-7.135-11.308c-1.35 0-2.162.539-2.162 1.482v4.395c0 .96.781 1.662 2.162 1.662h7.135c1.294 0 2.011-.647 2.011-1.662v-4.395c0-1.058-.739-1.482-2.011-1.482z" fill="#4027b6"/><path d="m150.129 402.229c.02 1.244-2.172 1.246-2.153 0v-5.701c-.008-.665.634-1.006 1.235-.919.243 0 .477.097.649.269s.269.406.269.65z" fill="#4027b6"/><path d="m154.977 402.229c.018 1.244-2.174 1.246-2.155 0v-5.701c0-.665.635-1.006 1.235-.919.12 0 .24.023.352.069.111.046.213.114.298.199.086.086.154.187.2.299.046.111.07.231.07.352z" fill="#4027b6"/><path d="m218.512 401.532h-7.135c-2.464 0-5.244-3.167-5.244-5.431v-4.395c.289-4.545 9.259-2.742 12.379-3.098 2.447 0 4.314.854 4.314 3.098.111 3.623.381 9.189-4.314 9.826zm-7.135-11.308c-1.351 0-2.551.539-2.551 1.482v4.395c.11 2.808 7.953 1.305 9.686 1.662 1.294 0 2.698-.647 2.698-1.662v-4.395c-.045-2.53-8.224-1.147-9.833-1.482z" fill="#4027b6"/><path d="m213.672 402.229c.018 1.244-2.174 1.246-2.154 0v-5.701c0-.665.634-1.006 1.235-.919.244 0 .478.097.65.269s.269.406.269.65z" fill="#4027b6"/><path d="m218.518 402.229c.018 1.244-2.172 1.246-2.154 0v-5.701c0-.665.634-1.006 1.236-.919.243 0 .477.097.649.269s.269.406.269.65z" fill="#4027b6"/><path d="m139.464 446.692c-6.328-2.96-6.29-9.867-6.027-15.976-.069-.519.605-.528.537 0-.225 5.661-.404 12.51 5.702 15.217.379.177.194.785-.212.759z" fill="#b3200e"/><path d="m232.519 435.644c-.222 0-.539-.179-.539-.399v-22.646c0-.22.324-.399.539-.399s.537.179.537.399v22.646c0 .223-.317.399-.537.399z" fill="#b3200e"/><path d="m232.519 406.878c-.222 0-.539-.179-.539-.399v-10.388c0-.222.324-.4.539-.4s.537.178.537.4v10.388c0 .22-.317.399-.537.399z" fill="#b3200e"/><path d="m175.791 81.7645-17.572-10.9053c-.362-.2233-.796-.3008-1.213-.2168l-22.867 4.6763c-1.305.2232-1.797 2.0154-.781 2.8695l13.694 12.3239z" fill="#b3200e"/><path d="m85.19 91.7125c-3.9305-2.9229-33.8548-16.9128-35.2103-21.657l-12.3789-22.4108c-.4782-.8653-1.2211-1.5545-2.1198-1.9664-.8987-.412-1.9058-.525-2.8735-.3224-6.3552 1.3361-19.5429 4.2897-19.6076 5.7859-.0858 1.9717 6.3083 51.4742 6.3083 51.4742z" fill="#b3200e"/><path d="m23.5007 101.947s213.1223-38.057 221.4393-35.3914c8.317 2.6657 23.173 11.4942 27.554 11.5136 4.382.0194 19.707 2.7158 15.715 13.6519-3.992 10.9359-180.728 44.3449-201.2884 37.2269-20.5603-7.117-72.6495-20.469-72.6495-20.469s-4.78785-7.47 9.2296-6.532z" fill="#fa541c"/><path d="m25.4854 109.038-2.5605 10.435c-.2128.858-.2259 1.753-.0383 2.617s.5709 1.673 1.1204 2.365c.5546.696 1.2605 1.256 2.0641 1.638s1.6836.576 2.5734.567l10.8374.048c.8406.016 1.6749-.148 2.4461-.483s1.4612-.832 2.0231-1.458l19.3537-21.99z" fill="#fa541c"/><path d="m137.065 144.036s6.536 8.087 17.217 8.128c10.68.04 23.837-2.854 26.318-6.621 2.482-3.767 7.863-31.663-13.844-27.74-21.707 3.922-47.063 16.463-29.691 26.233z" fill="#fa541c"/><path d="m125.035 115.153 50.648-8.735-42.687 54.472c-.295.378-.666.69-1.089.917-.423.228-.888.365-1.366.403l-30.332 2.436c-.6437.052-1.2891-.077-1.8637-.372-.5746-.294-1.0557-.743-1.3892-1.296s-.5063-1.188-.4988-1.834c.0074-.646.1947-1.277.5409-1.822z" fill="#b3200e"/><path d="m177.816 146.302c5.046-1.349 5.916-15.755 2.285-21.927-.525-.985-1.292-1.821-2.228-2.428-.937-.608-2.012-.967-3.126-1.045-11.204-.49-1.363 23.207 3.069 25.4zm-2.37-24.37c.81.175 1.573.522 2.236 1.019s1.211 1.132 1.606 1.861c3.458 7.178 2.576 16.66-1.209 20.591-3.864-2.127-13.38-25.361-2.633-23.471z" fill="#b3200e"/><g fill="#fdab76"><path d="m100.438 103.637c.072-4.1458 6.426-4.1183 6.47.029v2.045c-.073 4.145-6.428 4.118-6.47-.028z"/><path d="m112.444 102.767c.073-4.1477 6.427-4.1186 6.47.029v2.044c-.072 4.146-6.428 4.119-6.47-.029z"/><path d="m124.459 100.049c.073-4.1455 6.427-4.118 6.462.029v2.045c-.072 4.147-6.428 4.12-6.47-.028z"/><path d="m135.546 98.2521c.073-4.1473 6.428-4.1182 6.47.0275l-.01 2.0464c-.073 4.146-6.426 4.118-6.47-.029z"/><path d="m148.481 96.4615c.071-4.1457 6.427-4.1182 6.462.0291l-.01 2.0462c-.071 4.1462-6.426 4.1182-6.47-.0291z"/><path d="m160.491 94.6693c.073-4.1473 6.427-4.1198 6.462.0275v2.0462c-.072 4.146-6.428 4.118-6.47-.0291z"/><path d="m172.506 91.9519c.073-4.1457 6.427-4.1183 6.462.0291v2.0445c-.072 4.1458-6.428 4.1183-6.47-.0275z"/><path d="m183.59 91.0768c.072-4.1457 6.426-4.1182 6.462.0291v2.0462c-.073 4.1457-6.428 4.1182-6.471-.0291z"/><path d="m195.6 89.283c.072-4.1458 6.428-4.1183 6.47.0291l-.01 2.0461c-.073 4.1458-6.426 4.1183-6.47-.0291z"/><path d="m207.615 86.5671c.072-4.1473 6.428-4.1182 6.47.0275l-.01 2.0462c-.073 4.1457-6.426 4.1182-6.47-.0291z"/><path d="m218.698 85.692c.073-4.1457 6.428-4.1182 6.47.0292l-.01 2.0445c-.072 4.1473-6.426 4.1198-6.462-.0275z"/><path d="m259.783 73.2031-21.086 5.7617c-.765.2095-1.434.6798-1.889 1.3294-.456.6497-.67 1.4381-.607 2.2291.162 1.941.448 4.1425.882 3.9597.768-.3235 33.821-8.5729 33.821-8.5729z"/></g><path d="m326.601 261.928-109.694-1.981-.044 6.506c-.004.208-.05.413-.135.602-.086.19-.208.361-.36.503s-.332.251-.527.323c-.196.071-.403.102-.611.092-.21.003-.418-.035-.613-.112-.194-.078-.372-.193-.522-.339s-.27-.32-.353-.512c-.083-.193-.127-.4-.13-.609l.042-6.512-32.464-.588c-2.324-.042-4.082 1.99-4.085 4.136l-.084 78.484c0 2.103 1.73 3.459 4.026 3.441l32.065-.254.036-5.734c.013-.416.191-.811.494-1.096.303-.286.707-.44 1.123-.428.908 0 1.602.67 1.597 1.504l-.039 5.73 108.407-.858c2.103-.016 3.812-1.342 3.859-3.343l1.741-74.872c.051-2.046-1.607-4.044-3.729-4.083zm-110.184 69.856c.04 1.956-3.271 1.995-3.217.013l.055-8.613c-.041-1.964 3.277-1.99 3.22 0zm.11-16.215c.039 1.97-3.282 1.983-3.224 0l.055-8.654c-.037-1.98 3.289-1.977 3.235.011zm.12-16.297c.035 1.985-3.292 1.97-3.235-.021l.055-8.694c-.034-1.995 3.299-1.965 3.235.027zm.111-16.371c.033 1.999-3.303 1.959-3.235-.035l.055-8.735c-.031-2.009 3.31-1.951 3.235.045z" fill="#e6dbfe"/><path d="m295.582 271.68c-.031 1.733-1.529 3.116-3.345 3.092l-41.372-.57c-4.454-.06-4.411-6.706.078-6.643l41.409.658c1.924.021 3.392 1.626 3.23 3.463z" fill="#754ffe"/><path d="m323.127 271.964c-.039 1.779-1.576 3.214-3.434 3.188l-13.588-.188c-1.884-.026-3.382-1.519-3.335-3.326.047-1.806 1.587-3.235 3.465-3.204l13.605.217c1.862.029 3.34 1.517 3.287 3.313z" fill="#754ffe"/><path d="m317.418 317.757c-.024 1.065-.944 1.925-2.059 1.927l-63.826.009c-1.159 0-2.091-.88-2.078-1.967.013-1.085.97-1.965 2.125-1.963l63.862.066c1.114 0 1.999.866 1.976 1.928z" fill="#754ffe"/><path d="m317.257 324.811c-.023 1.061-.945 1.923-2.058 1.925l-40.846.097c-1.143 0-2.057-.867-2.041-1.941.016-1.077.958-1.951 2.103-1.952l40.868-.047c1.113 0 1.998.857 1.975 1.92z" fill="#754ffe"/><path d="m317.095 332.169c-.023 1.058-.943 1.92-2.054 1.927l-40.804.191c-1.142 0-2.056-.861-2.04-1.941.016-1.074.956-1.941 2.103-1.953l40.826-.142c1.113 0 1.996.852 1.974 1.912z" fill="#754ffe"/><path d="m185.771 338.356c0 .552-.485 1-1.092 1.005-.664.074-1.169-.712-1.09-.995 0-.323.029-14.312.031-14.352.022-.272.149-.525.353-.705.204-.181.47-.276.742-.266.137-.006.274.015.404.062.129.047.247.119.348.212.102.093.184.205.242.329.058.125.09.26.096.397z" fill="#754ffe"/><path d="m190.49 338.177c0 .561-.647 1.02-1.456 1.025-.874.067-1.537-.677-1.456-1.014 0-.323.036-14.281.039-14.308.023-.55.661-.994 1.456-.994.794 0 1.455.455 1.455 1.019z" fill="#754ffe"/><path d="m194.831 338.305c-.014.276-.136.535-.339.722-.204.188-.473.287-.75.277-.659.075-1.161-.708-1.08-.991 0-.324.045-14.273.048-14.312.022-.271.148-.523.351-.704s.468-.276.74-.267c.136-.006.273.016.401.063.129.047.247.119.347.211.101.093.182.205.239.329s.09.259.095.395z" fill="#754ffe"/><path d="m205.279 338.245c-.015.275-.136.533-.339.719-.202.187-.47.286-.745.277-.657.075-1.153-.707-1.073-.988 0-.324.068-14.234.07-14.268.021-.271.145-.523.348-.704.202-.181.466-.276.737-.267.136-.006.272.015.4.062.127.047.244.119.344.211s.181.204.237.327c.057.124.089.257.093.393z" fill="#754ffe"/><path d="m198.802 338.282c-.014.276-.136.535-.339.722s-.472.286-.748.278c-.658.072-1.158-.709-1.077-.992 0-.323.053-14.255.056-14.296.022-.27.147-.522.349-.703.203-.181.467-.276.738-.267.137-.006.273.015.401.062.129.047.246.119.347.212.1.092.181.204.238.328.058.124.09.258.095.394z" fill="#754ffe"/><path d="m201.321 338.762c-.007.138-.068.268-.169.361-.101.094-.235.144-.373.139-.377.055-.594-.471-.539-.496.285-.537-.585-16.349.613-15.742 1.221-.558.175 15.501.468 15.738z" fill="#754ffe"/><path d="m432.214 178.097c-.61 35.698-53.702 35.692-54.315 0 .61-35.699 53.716-35.694 54.315 0z" fill="#fa541c"/><path d="m432.165 175.371h-54.266s-2.162 15.709 22.076 56.997c1.058 1.802 2.989 3.196 5.079 3.198 2.09.001 4.025-1.535 5.081-3.337 24.23-41.294 22.03-56.858 22.03-56.858z" fill="#fa541c"/><path d="m420.824 178.006c-.351 20.612-31.013 20.609-31.362 0 .353-20.614 31.014-20.611 31.362 0z" fill="#fee9d1" opacity=".8"/><path d="m405.144 194.567c-21.76-.39-21.757-32.727 0-33.114 21.759.39 21.756 32.728 0 33.114zm0-31.362c-19.457.348-19.454 29.264 0 29.61 19.458-.349 19.454-29.264 0-29.61z" fill="#b3200e"/><path d="m390.268 161.68c-.053-.001-.105-.018-.148-.049-.044-.031-.077-.074-.095-.124-.019-.05-.022-.104-.009-.155.013-.052.041-.099.08-.134 4.324-3.559 10.644-6.506 16.112-5.605-5.546.608-11.503 2.098-15.94 6.067z" fill="#b3200e"/><path d="m381.871 179.95c-1.106-2.214 1.635-11.866 3.74-13.157.029.018.055.042.075.07s.034.06.042.093c.008.034.009.068.003.102-.005.034-.018.067-.036.096-2.331 3.765-3.563 8.106-3.559 12.534.001.035-.006.069-.019.101-.014.033-.033.062-.058.086-.025.025-.054.044-.086.057-.033.013-.067.019-.102.018z" fill="#b3200e"/><path d="m237.408 219.395c1.978.147 4.545-.18 4.479-2.218.212-2.103-2.938-2.337-4.479-1.988z" fill="#fdab76"/><path d="m237.408 226.478c1.889.262 4.983.016 4.891-2.514.088-2.394-2.863-2.64-4.891-2.513z" fill="#fdab76"/><path clip-rule="evenodd" d="m286.231 230.398c2.505-2.505 3.911-5.901 3.911-9.442.021-1.767-.309-3.521-.97-5.159-.662-1.639-1.642-3.13-2.884-4.387s-2.721-2.255-4.351-2.936c-1.631-.681-3.38-1.032-5.147-1.033h-44.416c-3.563 0-6.98 1.416-9.499 3.935s-3.935 5.936-3.935 9.499 1.416 6.98 3.935 9.499 5.936 3.934 9.499 3.934h44.416c3.541 0 6.937-1.406 9.441-3.91zm-51.61-17.082c1.967-.372 6.908-.697 8.5.663 2.437 1.411 2.023 5.277-.959 6.215v.047c3.139.551 4.249 4.978 1.617 6.992-1.177 1.542-6.996 1.642-9.163 1.233zm15.938 3.382c-.197 4.249-.466 10.036 3.163 9.802 2.033 0 3.245-1.392 3.245-4.409v-8.98h2.81c-.051 1.018-.015 2.223.025 3.506.168 5.522.381 12.481-6.172 12.146-6.281.473-6.063-6.775-5.898-12.263.038-1.261.073-2.429.026-3.389h2.81c.122.784.061 2.09-.009 3.587zm15.935 5.393v6.42h2.81v-6.49l5.118-8.91h-3.176c-.239.521-.543 1.164-.871 1.858-.834 1.768-1.826 3.87-2.328 5.157h-.045c-.533-1.394-1.564-3.582-2.414-5.387l-.001-.001c-.283-.6-.545-1.156-.762-1.627h-3.198z" fill="#fdab76" fill-rule="evenodd"/><path d="m290.465 131.871c-.45-.553-1.157-.783-1.904-.767l-68.137 1.43-1.721-5.467c-.12-.37-.357-.69-.676-.912-.318-.222-.701-.333-1.089-.318l-9.349.246c-2.347 0-2.426 3.449 0 3.36l7.994-.189 14.465 46.224c.124.382.364.715.687.953.324.238.714.368 1.115.371l47.826.647c1.122.015 2.033-.689 2.033-1.75s-.911-1.779-2.033-1.8l-46.423-.5-3.721-12.002c1.33-.86 54.59 2.08 53.282-1.551-.151-1.034 9.598-27.603 7.651-27.975z" fill="#754ffe"/><path d="m238.841 179.654c-9.42-.044-9.199 13.718 0 13.951 9.573.023 9.348-13.692 0-13.951zm0 10.231c-4.327-.162-4.432-6.49 0-6.511 4.348.133 4.453 6.509 0 6.511z" fill="#754ffe"/><path d="m270.721 180.149c-9.886-.045-9.655 14.047 0 14.294 10.05.028 9.818-14.022 0-14.294zm0 10.482c-4.54-.162-4.652-6.65 0-6.67 4.565.146 4.676 6.671 0 6.67z" fill="#754ffe"/><path d="m132.183 193.969s7.35-18.006-20.37-14.376c-46.7915 7.235 8.932 24.777-69.3527 52.331-32.3505 12.617-22.765 47.017-8.2284 58.435 14.5367 11.418 22.461 3.821 25.8384 23.525 3.3774 19.705 16.8675 35.709 33.693 19.005 61.4917-56.379 6.4037-68.396 41.7527-95.247 10.445-11.877-11.688-23.378-3.333-43.673z" fill="#770508"/><path d="m178.111 186.665s-27.934 39.384-58.991 45.626c0 0 5.065 17.322 9.569 19.512 0 0 39.368-29.439 50.669-59.265z" fill="#fdbab9"/><path d="m177.488 195.045c.033.845-3.123 1.261-3.929-2.377.358-1.542 1.206-8.329 2.456-9.324 6.653-5.3 18.322-11.039 18.322-11.039 1.164 2.002-.567 3.188-.567 3.188l-5.858 3.515c1.033 3.33 2.337 7.694-.684 10.531-2.721 2.939-6.524 6.537-9.74 5.506z" fill="#fdbab9"/><path d="m51.7038 441.843-.8362 6.874c-.1618 1.304-3.2529 4.617-4.5582 4.766-2.2047.252-3.1591.752-6.6206.386-1.5188-.162-3.0183-4.222-2.5556-5.677.8443-2.653 2.3874-6.632 4.6115-8.983h7.6267c.3324.001.6611.071.9643.208.3031.136.5739.336.7943.584.2205.249.3856.542.4845.86.0989.317.1294.652.0893.982z" fill="#1c0f79"/><path d="m118.42 451.721c-2.187-.265-7.57.899-8.983-1.423-7.103-9.291-10.1327-10.408-9.9046 1.423h-1.4169c-.2621-5.15-4.7378-15.03 1.6741-18.073 0 0 .5774 4.272 3.7104 6.163s12.748 8.657 12.748 8.657c.822-.096 1.654-.074 2.47.067 1.918.346 1.651 3.186-.298 3.186z" fill="#1c0f79"/><path d="m111.434 361.312c2.999 8.412-3.044 43.646-3.79 68.7-.852 5.881 7.032 15.111 9.521 19.949l-19.0494-11.24-.3785-2.325 3.1189-4.288c.346-6.238-6.705-52.569-2.3781-57.212l3.9401-7.403z" fill="#fdbab9"/><path d="m85.3436 364.91c-3.0652 5.726-35.9527 66.22-34.7396 79.762.5532 2.426-8.9804 4.134-10.5236.76-.2372-.391-.3711-.837-.3889-1.294s.0809-.911.287-1.32c1.4558-2.955 6.0965-12.403 7.8127-16.688 6.8922-18.247 4.7555-46.187 24.5572-61.22.0016 0 7.2304-7.082 12.9952 0z" fill="#fdbab9"/><path d="m101.296 286.421c6.514-27.603-9.9864-43.214-9.9864-43.214 10.4124-9.994 29.3824-14.543 29.3824-14.543s18.103 13.235 15.955 23.595c-1.258 6.071-12.723 36.367-12.723 36.367s-10.603 5.017-22.628-2.205z" fill="#fa541c"/><path d="m86.8549 300.083c2.6511-7.986 14.4411-13.665 14.4411-13.665 12.025 7.222 22.628 2.205 22.628 2.205 5.218 11.301-11.077 73.676-11.202 80.258-16.2218 3.292-41.1673-3.303-41.1673-3.303 10.3279-18.346 12.649-57.506 15.3002-65.495z" fill="#fdab76"/><path d="m108.858 210.424-5.296 23.789c-.508 2.103 1.403 1.753 3.522 1.354 3.705-.798 8.83-2.037 9.705-5.597l2.274-16.499c.088-.636-.034-1.284-.346-1.845-.313-.561-.799-1.006-1.386-1.267-2.579-.994-7.101-4.301-8.473.065z" fill="#fdbab9"/><path d="m115.066 187.773s6.273 2.648 10.538 11.711c7.843 17.076-9.146 17.406-19.232 8.456-6.323-5.855.546-23.306 8.694-20.167z" fill="#fdbab9"/><path d="m91.3099 243.207s-36.9637 26.445-4.728 54.234c0 0 1.2293 1.391 3.6475 2.112 1.2212.366 4.8316 3.098 6.6626 4.529.1384.109.298.186.4684.229.1704.042.3478.048.5207.018.1729-.031.3375-.097.4831-.195s.269-.226.3621-.375c1.2649-.988-4.2897-10.229-4.479-11.323-.6151-.573-1.4149-.909-2.2553-.945-.8404-.037-1.6662.228-2.3287.746-.2038.161-.4409.274-.694.332-.2532.057-.5159.057-.7691 0s-.4904-.17-.6942-.331c-.2039-.161-.3693-.365-.4841-.597-2.491-5.076-7.1964-20.004 12.0618-36.87 2.7413-2.169-4.7118-10.804-7.7738-11.564z" fill="#fdbab9"/><path d="m110.631 203.102s-4.733-13.264 7.024-13.426l2.766 1.941c7.221-13.013-17.145-18.328-21.1455-1.941-3.0134 9.544-3.5278 15.925 1.4845 20.488 5.013 4.563 7.079-.612 7.079-.612s-2.729-4.268-1.618-6.55c1.111-2.283 3.674.472 3.674.472z" fill="#770508"/><path d="m109.312 204.577c-3.377-9.933-12.1069-1.819-.726 3.362z" fill="#fdbab9"/><path d="m76.9859 221.171c27.3361-10.954 8.4111-25.763 21.0181-32.351.0347-.008.0714-.002.1018.016.0305.019.0524.049.0607.084.0084.034.0026.071-.016.102-.0187.03-.0487.052-.0835.06-11.8305 5.836 5.8 22.874-21.0811 32.089z" fill="#b3200e"/><path d="m52.6761 294.095c-24.4893-11.837-29.219-36.05-17.8995-50.713.0223-.025.0536-.041.0874-.045.0338-.003.0677.006.0948.027.0271.02.0454.05.0512.084.0058.033-.0013.068-.0199.096-11.6381 15.976-6.0479 37.703 17.686 50.551z" fill="#b3200e"/></svg>