<svg fill="none" height="605" viewBox="0 0 662 605" width="662" xmlns="http://www.w3.org/2000/svg"><path d="m327.945 604.064c166.906 0 302.211-7.899 302.211-17.644s-135.305-17.644-302.211-17.644c-166.907 0-302.2116 7.899-302.2116 17.644s135.3046 17.644 302.2116 17.644z" fill="#919eab" fill-opacity=".08"/><path d="m250.772 218.405c6.714 2.127 11.247 8.395 11.166 15.437l-1.983 171.413c-6.428 51.94-85.841 94.76-109.2 106.294-4.088 2.019-8.756 2.019-12.844-.001-23.356-11.537-102.7573-54.366-109.185-106.293l-2.0864-171.548c-.0848-6.978 4.3623-13.206 10.9897-15.39l99.4227-32.774c3.193-1.053 6.637-1.073 9.842-.057z" fill="#b195fe"/><path d="m235.713 230.005c6.715 2.125 11.251 8.392 11.171 15.435l-1.721 152.645c-5.529 44.695-73.019 81.645-94.387 92.287-4.081 2.032-8.806 2.032-12.887 0-21.368-10.642-88.8575-47.592-94.387-92.287l-1.8384-152.777c-.084-6.98 4.3666-13.209 10.997-15.391l84.6934-27.873c3.189-1.05 6.628-1.069 9.829-.056z" fill="#4027b6" opacity=".48"/><path d="m612.592 160.154h-183.896c-6.627 0-12 5.372-12 12v340.792c0 6.627 5.373 12 12 12h183.896c6.628 0 12-5.373 12-12v-340.792c0-6.628-5.372-12-12-12z" fill="#f4f6f8"/><path d="m598 174.896h-154c-6.627 0-12 5.373-12 12v312c0 6.628 5.373 12 12 12h154c6.627 0 12-5.372 12-12v-312c0-6.627-5.373-12-12-12z" fill="#dfe3e8" opacity=".72"/><path d="m434.668 466.744c0-.62.246-1.215.685-1.653.438-.439 1.033-.685 1.653-.685s1.215.246 1.653.685c.439.438.685 1.033.685 1.653s-.246 1.215-.685 1.653c-.438.439-1.033.685-1.653.685s-1.215-.246-1.653-.685c-.439-.438-.685-1.033-.685-1.653zm0-57.406c0-.62.246-1.215.685-1.653.438-.439 1.033-.685 1.653-.685s1.215.246 1.653.685c.439.438.685 1.033.685 1.653s-.246 1.215-.685 1.653c-.438.439-1.033.685-1.653.685s-1.215-.246-1.653-.685c-.439-.438-.685-1.033-.685-1.653zm0-57.422c0-.62.246-1.214.685-1.653.438-.438 1.033-.685 1.653-.685s1.215.247 1.653.685c.439.439.685 1.033.685 1.653 0 .621-.246 1.215-.685 1.654-.438.438-1.033.685-1.653.685s-1.215-.247-1.653-.685c-.439-.439-.685-1.033-.685-1.654zm0-57.421c0-.62.246-1.215.685-1.653.438-.439 1.033-.685 1.653-.685s1.215.246 1.653.685c.439.438.685 1.033.685 1.653s-.246 1.215-.685 1.653c-.438.439-1.033.685-1.653.685s-1.215-.246-1.653-.685c-.439-.438-.685-1.033-.685-1.653zm0-57.406c0-.62.246-1.215.685-1.653.438-.439 1.033-.685 1.653-.685s1.215.246 1.653.685c.439.438.685 1.033.685 1.653s-.246 1.215-.685 1.653c-.438.439-1.033.685-1.653.685s-1.215-.246-1.653-.685c-.439-.438-.685-1.033-.685-1.653z" fill="#c4cdd5"/><path d="m601.648 466.744c0-.62.247-1.215.685-1.653.439-.439 1.033-.685 1.654-.685.62 0 1.214.246 1.653.685.438.438.685 1.033.685 1.653s-.247 1.215-.685 1.653c-.439.439-1.033.685-1.653.685-.621 0-1.215-.246-1.654-.685-.438-.438-.685-1.033-.685-1.653zm0-57.406c0-.62.247-1.215.685-1.653.439-.439 1.033-.685 1.654-.685.62 0 1.214.246 1.653.685.438.438.685 1.033.685 1.653s-.247 1.215-.685 1.653c-.439.439-1.033.685-1.653.685-.621 0-1.215-.246-1.654-.685-.438-.438-.685-1.033-.685-1.653zm0-57.422c0-.62.247-1.214.685-1.653.439-.438 1.033-.685 1.654-.685.62 0 1.214.247 1.653.685.438.439.685 1.033.685 1.653 0 .621-.247 1.215-.685 1.654-.439.438-1.033.685-1.653.685-.621 0-1.215-.247-1.654-.685-.438-.439-.685-1.033-.685-1.654zm0-57.421c0-.62.247-1.215.685-1.653.439-.439 1.033-.685 1.654-.685.62 0 1.214.246 1.653.685.438.438.685 1.033.685 1.653s-.247 1.215-.685 1.653c-.439.439-1.033.685-1.653.685-.621 0-1.215-.246-1.654-.685-.438-.438-.685-1.033-.685-1.653zm0-57.406c0-.62.247-1.215.685-1.653.439-.439 1.033-.685 1.654-.685.62 0 1.214.246 1.653.685.438.438.685 1.033.685 1.653s-.247 1.215-.685 1.653c-.439.439-1.033.685-1.653.685-.621 0-1.215-.246-1.654-.685-.438-.438-.685-1.033-.685-1.653z" fill="#c4cdd5"/><path d="m302.086 50.8259h-71.808l3.913-44.74948h71.808z" fill="#919eab"/><path d="m303.536 0-1.964 23.3645-1.964 28.0873h-69.065l3.928-51.4518z" fill="#f4f6f8"/><path d="m297.925 7.07869 3.913 44.74951h-71.793l-3.912-44.74951h6.094l2.136-3.35115h19.343l2.774 3.35115z" fill="#c4cdd5"/><path d="m413.376 60.8187h-76.406v76.4063h76.406z" fill="#f4f6f8"/><path d="m415.309 60.8187h-1.949v76.4063h1.949z" fill="#c4cdd5"/><path d="m406.299 67.8937h-62.284v62.2843h62.284z" fill="#dfe3e8"/><path d="m344.607 67.8937h-.577v62.2843h.577z" fill="#c4cdd5"/><g fill="#919eab" opacity=".72"><path d="m375.749 108.03c6.706 0 12.142-6.923 12.142-15.4622 0-8.5395-5.436-15.4621-12.142-15.4621s-12.142 6.9226-12.142 15.4621c0 8.5392 5.436 15.4622 12.142 15.4622z"/><path d="m398.818 130.18h-46.885v-4.365c0-1.973.388-3.927 1.143-5.75.756-1.823 1.862-3.479 3.258-4.874 1.395-1.395 3.051-2.502 4.874-3.257s3.777-1.144 5.75-1.144h16.834c1.973 0 3.927.389 5.75 1.144s3.479 1.862 4.875 3.257c1.395 1.395 2.502 3.051 3.257 4.874s1.144 3.777 1.144 5.75z"/><path d="m350.701 104.181c0 2.541 4.676 4.676 4.676 4.676s4.676-2.073 4.676-4.676c0-1.215-1.699-1.901-2.79-1.558-.42.159-.803.401-1.127.711-.324.311-.582.684-.759 1.097-.596-.804-1.384-1.447-2.291-1.871-.265-.1-.549-.135-.83-.102-.281.034-.55.134-.784.293s-.426.372-.56.621-.207.527-.211.809z"/><path d="m392.24 92.8183c0 3.3511 6.063 6.0632 6.063 6.0632s6.063-2.7121 6.063-6.0632c0-1.5587-2.228-2.4783-3.662-2.0731-1.07.4273-1.931 1.2549-2.401 2.3069-.787-1.0541-1.819-1.8997-3.008-2.4627-.351-.1244-.727-.1612-1.096-.1074-.368.0538-.718.1967-1.019.4162-.301.2196-.544.5092-.708.8437-.164.3346-.243.704-.232 1.0764z"/></g><path d="m182.567 138.02c-3.587.504-7.243-.066-10.505-1.64-3.263-1.574-5.986-4.079-7.824-7.201-1.839-3.121-2.711-6.717-2.505-10.333.205-3.617 1.478-7.091 3.658-9.984s5.169-5.075 8.589-6.269 7.117-1.347 10.624-.44 6.666 2.834 9.078 5.537c2.412 2.702 3.968 6.059 4.472 9.646.663 4.808-.604 9.683-3.525 13.558-2.921 3.876-7.257 6.438-12.062 7.126zm-3.725-26.638c-1.673.25-3.234.989-4.488 2.124s-2.144 2.615-2.559 4.255c-.414 1.64-.334 3.366.23 4.96.565 1.595 1.588 2.987 2.942 4.001 1.353 1.014 2.977 1.605 4.666 1.699 1.688.093 3.367-.315 4.824-1.173 1.458-.858 2.629-2.129 3.366-3.651.737-1.523 1.007-3.229.776-4.905-.154-1.123-.53-2.204-1.105-3.181-.576-.977-1.34-1.831-2.247-2.511-.908-.679-1.941-1.173-3.04-1.45-1.1-.278-2.243-.335-3.365-.168z" fill="#dfe3e8"/><path d="m175.683 65.2578-6.885.9615 6.185 44.2887 6.885-.962z" fill="#dfe3e8"/><path d="m181.386 59.2358-12.915 1.8265.973 6.8822 12.916-1.8265z" fill="#dfe3e8"/><path d="m182.598 68.4337-12.149 1.6945.96 6.885 12.149-1.6945z" fill="#dfe3e8"/><path d="m184.369 80.9296-10.606 1.4792.961 6.8851 10.605-1.4792z" fill="#dfe3e8"/><path d="m168.12 293.4c14.369-15.011 12.741-39.89-3.638-55.57s-41.307-16.222-55.676-1.211c-14.3705 15.012-12.7417 39.891 3.637 55.571 16.379 15.679 41.307 16.221 55.677 1.21z" fill="#fa541c"/><path d="m168.12 293.4c14.369-15.011 12.741-39.89-3.638-55.57s-41.307-16.222-55.676-1.211c-14.3705 15.012-12.7417 39.891 3.637 55.571 16.379 15.679 41.307 16.221 55.677 1.21z" fill="#754ffe"/><g fill="#e6dbfe"><path d="m149.96 264.321c-.331-.002-.652-.108-.919-.304-.266-.196-.463-.472-.562-.787-.627-1.953-1.846-3.663-3.488-4.892s-3.626-1.916-5.677-1.967c-.413 0-.81-.164-1.102-.456s-.456-.689-.456-1.102c0-.414.164-.81.456-1.102.292-.293.689-.457 1.102-.457 2.712.059 5.339.962 7.514 2.582 2.176 1.62 3.794 3.877 4.628 6.458.063.197.086.404.068.609-.018.206-.076.405-.172.588s-.227.345-.385.476c-.159.132-.342.231-.539.291-.152.045-.31.066-.468.063z"/><path d="m143.118 298.036c-3.484-.015-6.944-.572-10.257-1.652-.195-.062-.376-.163-.533-.295-.157-.133-.286-.295-.38-.477s-.151-.382-.168-.586.006-.41.068-.606c.063-.195.163-.377.296-.533.132-.157.294-.286.476-.38.183-.094.382-.151.586-.169.205-.017.411.007.606.069 9.586 3.117 19.156 1.372 26.264-4.676 3.6-3.173 6.319-7.223 7.895-11.756s1.954-9.396 1.098-14.118c-.032-.205-.024-.414.024-.615.048-.202.135-.392.257-.56.121-.168.275-.31.451-.419.177-.109.373-.181.578-.214.204-.033.414-.025.615.023.202.048.392.136.56.257.168.122.31.275.419.452.108.176.181.373.214.577.932 5.247.494 10.645-1.273 15.673-1.767 5.027-4.802 9.513-8.812 13.022-5.274 4.55-12.019 7.032-18.984 6.983z"/><path d="m127.531 293.966c-.257.006-.51-.058-.733-.187-4.777-2.557-8.922-6.147-12.134-10.51-3.212-4.364-5.408-9.389-6.429-14.71-.99-4.602-.943-9.367.135-13.95s3.161-8.869 6.099-12.547c.263-.308.636-.502 1.039-.54s.805.082 1.121.336c.316.253.521.619.572 1.021s-.057.807-.3 1.131c-2.657 3.325-4.537 7.202-5.505 11.346-.968 4.145-.999 8.453-.091 12.611.928 4.866 2.932 9.464 5.866 13.455 2.934 3.992 6.724 7.276 11.093 9.613.304.165.546.426.685.743.14.317.17.671.086 1.007s-.277.634-.549.848c-.273.214-.609.331-.955.333z"/><path d="m169.35 258.867c-.344.016-.683-.083-.965-.28-.282-.198-.491-.483-.594-.811-1.433-4.424-3.779-8.498-6.885-11.959-3.107-3.46-6.904-6.231-11.148-8.132-.381-.164-.681-.471-.834-.856-.153-.384-.148-.814.015-1.194.164-.38.471-.68.856-.834.384-.153.814-.148 1.194.016 4.652 2.082 8.816 5.116 12.223 8.907s5.981 8.254 7.557 13.101c.12.371.098.773-.064 1.128s-.45.637-.809.789c-.173.074-.358.117-.546.125z"/><path d="m120.158 240.348c-.244.003-.486-.052-.706-.161-.219-.108-.41-.266-.556-.462-.122-.165-.211-.352-.26-.551-.05-.199-.06-.405-.029-.608.03-.203.1-.397.206-.573s.245-.329.41-.45c5.241-3.77 11.563-5.739 18.018-5.611.414 0 .81.164 1.102.456.293.292.457.689.457 1.102 0 .414-.164.81-.457 1.102-.292.293-.688.457-1.102.457-5.785-.125-11.455 1.624-16.163 4.988-.266.199-.588.308-.92.311z"/><path d="m144.77 235.918h-.359c-2.345-.547-4.746-.824-7.154-.826-.413 0-.81-.164-1.102-.457-.292-.292-.457-.688-.457-1.102 0-.413.165-.81.457-1.102s.689-.457 1.102-.457c2.624.008 5.239.316 7.793.92.414.048.791.257 1.05.583s.377.742.33 1.155c-.048.413-.258.791-.583 1.05-.326.258-.742.377-1.155.329z"/><path d="m117.29 273.158c-.318.001-.629-.095-.891-.276s-.462-.438-.574-.737c-1.46-3.771-1.975-7.842-1.5-11.857.475-4.016 1.927-7.854 4.228-11.18 2.179-3.148 5.099-5.712 8.501-7.468 3.403-1.756 7.185-2.649 11.013-2.601.414 0 .81.164 1.103.457.292.292.456.688.456 1.102 0 .413-.164.81-.456 1.102-.293.292-.689.456-1.103.456-3.33-.032-6.617.753-9.573 2.285-2.956 1.533-5.492 3.767-7.385 6.506-2.003 2.92-3.265 6.283-3.678 9.8s.036 7.081 1.309 10.385c.141.387.124.813-.049 1.187-.172.374-.485.664-.871.808-.173.041-.353.051-.53.031z"/><path d="m142.011 290.956c-4.671-.159-9.236-1.442-13.306-3.74-4.07-2.299-7.526-5.544-10.074-9.462-.112-.172-.188-.365-.226-.566-.037-.202-.034-.409.009-.609.042-.201.124-.391.24-.559.116-.169.265-.314.437-.425.172-.112.364-.188.565-.226.202-.037.409-.034.609.009.201.042.391.124.56.24s.313.265.424.437c2.261 3.49 5.33 6.383 8.947 8.434s7.675 3.2 11.831 3.349c.413 0 .809.164 1.102.457.292.292.456.688.456 1.102 0 .413-.164.81-.456 1.102-.293.292-.689.457-1.102.457z"/><path d="m147.825 290.284c-.414.05-.83-.067-1.157-.324s-.539-.634-.589-1.047c-.049-.414.067-.83.324-1.157.258-.327.634-.539 1.048-.589 12.641-3.117 15.914-14.199 14.885-22.71-1.356-11.098-10.131-22.336-24.268-22.351-.414 0-.81-.164-1.103-.457-.292-.292-.456-.688-.456-1.102 0-.413.164-.81.456-1.102.293-.292.689-.456 1.103-.456 15.945 0 25.827 12.625 27.339 25.094 1.558 12.859-5.191 23.115-17.146 26.108z"/><path d="m131.708 250.762c-.357.002-.703-.118-.982-.341-.278-.223-.472-.534-.549-.882-.076-.349-.031-.713.128-1.032.16-.319.424-.574.748-.722 2.378-1.085 4.962-1.643 7.576-1.636.413 0 .809.164 1.102.456.292.293.456.689.456 1.102 0 .414-.164.81-.456 1.103-.293.292-.689.456-1.102.456-2.152 0-4.278.462-6.235 1.356-.216.095-.45.143-.686.14z"/><path d="m141.715 283.677c-3.946-.063-7.791-1.256-11.079-3.439-3.288-2.182-5.88-5.262-7.47-8.875-3.242-7.029-2.291-14.371 2.525-19.67.279-.306.669-.488 1.082-.507.414-.019.818.127 1.124.406s.488.668.507 1.081c.019.414-.127.818-.406 1.124-1.935 2.191-3.163 4.916-3.522 7.817-.358 2.902.168 5.844 1.512 8.44 1.379 3.147 3.652 5.82 6.536 7.688 2.884 1.867 6.253 2.847 9.689 2.818 2.601-.022 5.141-.794 7.314-2.223 2.173-1.43 3.888-3.456 4.938-5.836 1.181-2.819 1.537-5.915 1.026-8.928-.51-3.014-1.866-5.82-3.91-8.092-.132-.157-.232-.338-.294-.533s-.085-.401-.068-.605.075-.403.169-.585.223-.343.38-.475c.315-.262.721-.389 1.13-.354.408.035.786.229 1.052.541 2.426 2.71 4.03 6.054 4.626 9.642s.16 7.272-1.259 10.621c-1.279 2.927-3.375 5.422-6.038 7.186s-5.778 2.722-8.972 2.758z"/><path d="m148.292 252.134c-.298-.001-.591-.087-.841-.249-2.631-1.698-5.692-2.607-8.822-2.619-.414 0-.81-.164-1.103-.456-.292-.293-.456-.689-.456-1.103 0-.413.164-.809.456-1.102.293-.292.689-.456 1.103-.456 3.727.013 7.373 1.095 10.505 3.117.347.224.591.576.678.979.088.403.012.825-.21 1.172-.141.22-.335.4-.564.525-.228.126-.485.192-.746.192z"/><path d="m140.935 276.665c-1.821-.013-3.617-.424-5.263-1.205-1.645-.781-3.099-1.912-4.26-3.316-1.501-1.713-2.474-3.824-2.804-6.077-.329-2.254.001-4.555.949-6.626.837-1.881 2.207-3.474 3.942-4.583 1.735-1.108 3.757-1.683 5.815-1.651.414 0 .81.164 1.102.456.293.292.457.689.457 1.102 0 .414-.164.81-.457 1.102-.292.293-.688.457-1.102.457-1.457-.025-2.889.376-4.122 1.154-1.232.779-2.21 1.9-2.814 3.226-.681 1.531-.91 3.226-.659 4.883.252 1.658.973 3.208 2.078 4.469 1.105 1.349 2.57 2.358 4.225 2.909 1.655.552 3.432.624 5.127.208 1.377-.312 2.636-1.012 3.628-2.018.992-1.005 1.674-2.274 1.967-3.655.09-.4.333-.748.677-.97.344-.221.762-.299 1.163-.215.2.043.391.124.56.241.169.116.313.265.425.437.111.172.188.365.225.567s.033.409-.01.61c-.411 1.951-1.372 3.744-2.77 5.167-1.398 1.422-3.173 2.415-5.117 2.86-.965.274-1.959.431-2.962.468z"/><path d="m141.309 270.18c-.413 0-.81-.164-1.102-.457-.292-.292-.456-.689-.456-1.102s.164-.81.456-1.102.689-.457 1.102-.457c.213.001.424-.042.619-.126.196-.085.372-.208.518-.363.146-.154.259-.337.331-.538.073-.2.104-.412.091-.625.01-.303-.04-.604-.148-.887-.107-.283-.27-.542-.479-.761-.21-.22-.46-.395-.738-.516s-.577-.185-.88-.189c-.228.006-.453.057-.662.151-.209.093-.397.227-.553.394-.163.187-.286.405-.361.641s-.101.484-.076.731c.013.204-.016.41-.083.603-.067.194-.171.373-.307.526-.136.154-.301.279-.486.369-.184.089-.384.142-.589.154-.413.025-.82-.116-1.129-.39-.31-.275-.498-.662-.523-1.075-.056-.662.026-1.328.24-1.957.213-.629.555-1.206 1.003-1.697.448-.49.992-.883 1.599-1.152.607-.27 1.263-.412 1.927-.416.713.002 1.419.146 2.075.423.657.277 1.252.682 1.751 1.191s.892 1.112 1.156 1.774c.263.662.393 1.371.38 2.083.013.622-.099 1.24-.328 1.818-.23.579-.572 1.105-1.008 1.549-.435.444-.955.797-1.528 1.038-.574.241-1.19.365-1.812.365z"/></g><path d="m181.476 264.977c1.902 21.713-14.153 39.31-35.85 39.31-.561 0-1.122 0-1.683 0 20.668-1.06 35.663-18.236 33.823-39.263-1.059-10.293-5.726-19.88-13.174-27.063s-17.198-11.499-27.523-12.184h1.684c21.696-.078 40.837 17.519 42.723 39.2z" fill="#fa541c"/><path d="m181.476 264.977c1.902 21.713-14.153 39.31-35.85 39.31-.561 0-1.122 0-1.683 0 20.668-1.06 35.663-18.236 33.823-39.263-1.059-10.293-5.726-19.88-13.174-27.063s-17.198-11.499-27.523-12.184h1.684c21.696-.078 40.837 17.519 42.723 39.2z" fill="#1c0f79"/><path d="m213.243 73.4119c.043.4656.111.9286.202 1.3872.589 2.9993 2.124 5.7308 4.38 7.7934 2.571 2.4076 5.954 3.7597 9.477 3.7876h131.692c1.537.0289 3.064-.2475 4.493-.8132 1.429-.5658 2.731-1.4096 3.832-2.4825 1.1-1.0729 1.977-2.3536 2.579-3.7678.601-1.4142.916-2.9338.927-4.4707 0-.452 0-.9196 0-1.3872-.361-3.4924-1.987-6.7324-4.57-9.1096-2.584-2.3771-5.948-3.7273-9.459-3.7962h-131.754c-1.65-.0312-3.288.2888-4.805.9386-1.517.6499-2.878 1.6147-3.994 2.8307-1.116 1.2159-1.96 2.6552-2.477 4.2223-.518 1.567-.696 3.2262-.523 4.8674z" fill="#fdab76"/><path d="m370.824 74.8163c0 .4174-.031.8342-.094 1.2469-.464-3.4109-2.134-6.5429-4.707-8.8299s-5.879-3.578-9.321-3.6395l-140.047.3117c2.233-2.1743 5.238-3.3739 8.355-3.3355h131.677c3.508.0756 6.868 1.428 9.451 3.8039 2.582 2.3759 4.209 5.612 4.577 9.1019.058.4448.094.8921.109 1.3405z" fill="#fa541c"/><path d="m348.146 66.7416.545 6.2347 5.861-2.1821 1.403 3.1173-6.001 1.9951 4.302 5.2839-2.681 1.9951-4.193-5.5021-3.117 5.5021-2.946-1.9951 3.32-5.2839-6.235-1.9951.857-3.1173 6.235 2.1042-.546-6.2347z" fill="#b3200e"/><path d="m312.125 66.7436.545 6.2347 5.876-2.1822 1.387 3.1174-6 1.9951 4.317 5.2839-2.696 1.9951-4.193-5.5021-3.118 5.5021-2.945-1.9951 3.319-5.2372-6.234-1.9951.841-3.1173 6.235 2.1042-.545-6.2347z" fill="#b3200e"/><path d="m276.103 66.7416.562 6.2347 5.86-2.1821 1.387 3.1173-5.985 1.9951 4.302 5.2839-2.697 1.9951-4.192-5.5021-3.118 5.5021-2.946-1.9951 3.32-5.2839-6.234-1.9951.841-3.1173 6.235 2.1042-.545-6.2347z" fill="#b3200e"/><path d="m240.036 66.7436.546 6.2347 5.86-2.1822 1.403 3.1174-6.001 1.9951 4.427 5.3306-2.681 1.9951-4.193-5.5021-3.117 5.5021-2.962-1.9951 3.336-5.2839-6.235-1.9951.857-3.1173 6.235 2.1042-.546-6.2347z" fill="#b3200e"/><path d="m558.302 112.538-6.391 72.946c-.189 2.151-1.133 4.166-2.665 5.689-.863.909-1.899 1.635-3.048 2.136-1.148.501-2.386.765-3.639.778h-50.61c-1.095.006-2.18-.219-3.182-.66-1.003-.441-1.901-1.089-2.636-1.901-.736-.812-1.292-1.769-1.632-2.811-.34-1.041-.457-2.142-.343-3.231l6.39-72.9c.236-2.33 1.319-4.492 3.042-6.078 1.724-1.585 3.969-2.484 6.31-2.525h50.61c1.091-.006 2.171.218 3.17.657.999.438 1.895 1.082 2.63 1.888.734.807 1.291 1.759 1.635 2.794.343 1.036.466 2.132.359 3.218z" fill="#fee9d1"/><path d="m495.144 124.287h-.124c-.412-.036-.792-.233-1.058-.549-.265-.315-.395-.723-.361-1.135l.577-6.671c.035-.388.215-.75.503-1.012.289-.263.665-.408 1.056-.406h7.029c.414 0 .81.164 1.102.456.293.293.457.689.457 1.103 0 .413-.164.809-.457 1.102-.292.292-.688.456-1.102.456h-5.549l-.452 5.237c-.035.4-.224.77-.526 1.035-.302.264-.694.401-1.095.384z" fill="#fa541c"/><path d="m551.771 124.287c-.411-.036-.792-.233-1.058-.549-.265-.315-.395-.723-.361-1.135l.437-4.972h-5.347c-.413 0-.809-.164-1.102-.456-.292-.293-.456-.689-.456-1.102 0-.414.164-.81.456-1.103.293-.292.689-.456 1.102-.456h7.046c.217-.001.432.043.63.13.199.087.378.215.525.375.146.16.258.349.328.554.069.206.095.424.075.64l-.717 6.64c-.031.391-.209.756-.498 1.022s-.668.413-1.06.412z" fill="#fa541c"/><path d="m497.778 174.573h-7.029c-.217.002-.431-.042-.63-.128-.198-.085-.377-.212-.524-.37-.146-.159-.257-.346-.327-.55-.069-.204-.096-.42-.078-.635l.592-6.671c.018-.205.075-.404.17-.586.094-.183.223-.345.381-.477.157-.133.338-.233.534-.295.196-.063.402-.086.606-.068.205.017.404.075.587.169.182.094.344.224.477.381.132.157.232.339.295.534.062.196.085.402.068.607l-.437 4.972h5.331c.413 0 .81.164 1.102.457.292.292.457.688.457 1.102 0 .413-.165.81-.457 1.102s-.689.456-1.102.456z" fill="#fa541c"/><path d="m547.422 174.572h-7.045c-.413 0-.81-.165-1.102-.457s-.457-.689-.457-1.102.165-.81.457-1.102c.292-.293.689-.457 1.102-.457h5.611l.468-5.237c.036-.411.233-.791.548-1.057.316-.266.724-.396 1.135-.361s.791.233 1.057.548c.266.316.396.724.362 1.135l-.593 6.671c-.035.386-.212.745-.497 1.007-.286.263-.658.409-1.046.412z" fill="#fa541c"/><path d="m542.046 149.459c3.519-13.645-2.521-27-13.491-29.829-10.969-2.829-22.715 5.94-26.233 19.585-3.519 13.646 2.521 27.001 13.491 29.829 10.969 2.829 22.715-5.939 26.233-19.585z" fill="#fdab76"/><path d="m551.911 185.484c-.189 2.152-1.133 4.167-2.665 5.689-.863.909-1.899 1.636-3.048 2.136-1.148.501-2.386.766-3.639.779h-50.61c-1.095.006-2.18-.219-3.182-.661-1.003-.441-1.901-1.089-2.636-1.9-.736-.812-1.292-1.77-1.632-2.811s-.457-2.143-.343-3.232c0 0 23.271-7.357 26.139-7.357h17.971z" fill="#fdab76"/><path d="m571.613 268.092-3.897 44.422c-.198 1.965-1.111 3.788-2.565 5.124s-3.348 2.092-5.322 2.124c-.928.017-1.849-.165-2.701-.532-.853-.367-1.617-.912-2.242-1.597-.626-.686-1.098-1.498-1.385-2.38-.287-.883-.383-1.816-.281-2.739l3.881-44.422c.361-3.312.013-6.664-1.02-9.831-1.034-3.168-2.73-6.079-4.975-8.541s-4.988-4.418-8.048-5.738c-3.059-1.32-6.364-1.975-9.695-1.92h-15.883c-7.084.131-13.875 2.851-19.09 7.647-5.215 4.795-8.493 11.335-9.216 18.383l-1.558 18.143h-14.512l1.559-18.143c1.964-22.351 21.728-40.526 44.079-40.526h15.883c22.352 0 38.967 18.112 36.988 40.526z" fill="#fdab76"/><path d="m572.657 310.831-7.575 86.631c-.275 2.681-1.522 5.169-3.507 6.993-1.984 1.824-4.569 2.857-7.264 2.904h-86.569c-1.268.023-2.526-.224-3.691-.725s-2.21-1.245-3.065-2.181-1.501-2.044-1.895-3.25c-.394-1.205-.526-2.481-.389-3.741l7.575-86.569c.155-1.744.723-3.426 1.659-4.906.935-1.48 2.21-2.716 3.719-3.604 1.624-.995 3.487-1.534 5.393-1.559h86.568c1.763-.007 3.492.485 4.988 1.418 1.41.911 2.536 2.198 3.252 3.716s.994 3.206.801 4.873z" fill="#fa541c"/><path d="m128.357 181.226h-56.3306c-2.6065-.051-5.1044-1.054-7.0224-2.82-1.918-1.765-3.1236-4.172-3.3895-6.766l-4.9254-56.299c-.1406-1.225-.017-2.467.3625-3.641.3795-1.173 1.0061-2.252 1.8376-3.163.8315-.912 1.8486-1.634 2.9828-2.119s2.3591-.722 3.5924-.694h56.2996c2.611.052 5.113 1.06 7.032 2.832 1.918 1.772 3.121 4.186 3.38 6.785l4.987 56.299c.137 1.226.009 2.467-.375 3.639-.383 1.172-1.013 2.249-1.848 3.157-.834.908-1.854 1.627-2.989 2.109-1.136.481-2.361.713-3.594.681z" fill="#fee9d1"/><path d="m61.6455 149.147s20.0134-27.884 34.774-27.167c14.7605.717 39.1855 26.513 39.1855 26.513s-36.0681 18.953-73.9595.654z" fill="#fdab76"/><path d="m62.3472 149.632-1.2625-.904c.8105-1.138 19.9199-27.511 34.852-27.511h.5923c14.901.717 38.764 25.687 39.777 26.747l-1.138 1.076c-.311-.265-24.502-25.594-38.7949-26.28h-.5299c-14.1216-.015-33.3713 26.576-33.496 26.872z" fill="#770508"/><path d="m59.5572 150.129c-3.0239 0-6.9361-1.123-8.3233-5.393-.0318-.103-.043-.21-.0332-.317.0099-.107.0407-.21.0906-.305s.118-.179.2004-.248c.0825-.068.1776-.12.2799-.151.1023-.032.2099-.043.3166-.033.1067.009.2104.04.3052.09s.1789.118.2474.201c.0684.082.12.177.1517.279 1.7925 5.518 8.4792 4.193 8.7598 4.131.204-.038.4148.004.5888.117.174.114.2979.289.3464.491.0372.202-.0053.411-.1187.582-.1133.172-.2886.292-.4892.337-.7649.151-1.5429.224-2.3224.219z" fill="#770508"/><path d="m71.4501 138.159c-.1692.004-.3345-.051-.4676-.156-.2338-.187-5.7671-4.457-7.1855-8.806-.0598-.197-.0412-.408.0517-.591.093-.184.2532-.323.447-.391.1964-.064.4101-.047.5942.046.1841.094.3236.256.3878.453 1.2625 3.881 6.5932 8.011 6.6555 8.042.1564.131.2576.316.2836.519.026.202-.0251.406-.1433.573-.0734.095-.1677.173-.2757.227s-.227.083-.3477.084z" fill="#770508"/><path d="m82.9062 127.547c-.1023-.002-.2033-.024-.2971-.065s-.1785-.101-.2495-.174c-.0709-.074-.1266-.161-.1638-.257-.0373-.095-.0554-.197-.0533-.299-.9246-3.391-2.0541-6.722-3.3824-9.976-.4052-1.028-.6702-1.776-.7325-1.963-.059-.199-.0383-.413.0577-.596.0961-.183.2599-.322.4566-.386.0982-.031.2017-.042.3041-.032.1025.01.2018.041.2921.091.0902.049.1696.116.2332.197s.1102.174.137.273c0 .188.3273.873.7014 1.855 2.1666 5.721 3.507 9.477 3.4914 10.568-.008.205-.0953.4-.2435.542-.1483.143-.3459.222-.5514.222z" fill="#770508"/><path d="m96.4198 122.764c-.1963 0-.3856-.073-.5301-.206s-.2335-.315-.2492-.511l-1.1067-12.47c-.0085-.102.0033-.205.0348-.303s.082-.188.1486-.267c.0666-.078.1481-.142.2397-.189.0916-.046.1915-.074.2939-.082.102-.013.2056-.005.3042.024.0987.028.1904.077.2694.143s.1435.147.1897.239c.0461.092.0728.192.0784.295l1.0911 12.563c.0107.102.0009.204-.0288.302-.0296.098-.0786.189-.144.267-.0654.079-.1459.143-.2367.19s-.1901.075-.2919.083z" fill="#770508"/><path d="m137.99 149.273c-.763.002-1.524-.06-2.276-.187-.2-.045-.376-.166-.489-.338-.113-.171-.156-.38-.119-.582.019-.101.058-.198.114-.284.057-.086.131-.159.217-.216.085-.057.182-.096.283-.114.102-.019.206-.016.306.006 0 0 3.803.733 6.141-.919.502-.364.922-.829 1.231-1.367.309-.537.5-1.134.562-1.751.015-.102.05-.2.104-.289.053-.089.123-.166.207-.228.083-.061.177-.106.278-.131.1-.025.204-.03.307-.014.102.015.201.051.289.104.089.053.166.123.228.207.061.083.106.177.131.278.025.1.03.205.014.307-.091.821-.355 1.613-.774 2.325s-.984 1.327-1.657 1.806c-1.519.968-3.297 1.452-5.097 1.387z" fill="#770508"/><path d="m124.008 137.335c-.161.004-.32-.041-.454-.13-.135-.089-.238-.218-.296-.369-.059-.15-.069-.315-.029-.471.04-.157.127-.297.25-.402 0 0 4.676-4.115 5.19-7.949.031-.207.143-.393.311-.517s.378-.177.585-.146.393.143.517.311.177.379.146.585c-.671 4.396-5.534 8.713-5.705 8.916-.146.117-.328.178-.515.172z" fill="#770508"/><path d="m110.822 128.277h-.156c-.101-.017-.198-.054-.285-.109-.088-.054-.163-.126-.223-.21-.059-.084-.101-.179-.124-.279-.022-.101-.025-.205-.007-.306 0-.093 1.715-10.116 2.011-12.173.035-.203.146-.385.312-.507s.372-.175.576-.148c.102.015.199.05.287.103s.164.123.225.206c.061.082.105.176.129.275.025.1.03.203.014.305-.312 2.073-1.995 12.111-2.011 12.204-.037.174-.13.331-.266.446-.135.116-.304.183-.482.193z" fill="#770508"/><path d="m111.291 152.406c6.453-6.741 5.715-17.919-1.647-24.967-7.363-7.048-18.5621-7.297-25.0149-.557-6.4528 6.741-5.7153 17.919 1.6472 24.967s18.5617 7.297 25.0147.557z" fill="#fa541c"/><path d="m105.257 139.641c.039-.394.039-.791 0-1.185-.202-2.04-1.148-3.935-2.657-5.323s-3.4756-2.173-5.5258-2.205c-.96-.017-1.9126.171-2.7944.551s-1.6726.943-2.3199 1.652c-.6473.71-1.1362 1.548-1.4341 2.461-.298.913-.3983 1.879-.2942 2.833.0412.4.1141.796.2183 1.185h-10.147c-.2438-2.247-.0065-4.519.6963-6.667.7027-2.148 1.8548-4.121 3.3795-5.789 1.5247-1.667 3.3871-2.991 5.4632-3.883s4.3184-1.332 6.5777-1.29c4.8054.089 9.4124 1.935 12.9504 5.189 3.538 3.253 5.762 7.689 6.252 12.471z" fill="#000" opacity=".24"/><path d="m105.242 138.458c.039.394.039.791 0 1.185-.127 1.72-.91 3.325-2.186 4.485s-2.948 1.786-4.6723 1.75c-1.824-.029-3.5884-.654-5.0237-1.78-1.4354-1.126-2.4629-2.69-2.9255-4.455-.1042-.388-.1771-.784-.2182-1.185-.1091-.958-.012-1.928.2847-2.846s.7863-1.761 1.4358-2.474c.6494-.713 1.4439-1.279 2.33-1.66s1.8434-.567 2.8076-.548c2.0475.036 4.0106.822 5.5166 2.21 1.505 1.388 2.449 3.281 2.651 5.318z" fill="#000" opacity=".24"/><path d="m368.424 212.929.545.639.717.826c.515.546 1.013 1.122 1.559 1.652 1.06 1.123 2.229 2.214 3.413 3.32 2.373 2.183 4.86 4.239 7.451 6.157 2.634 1.964 5.393 3.756 8.183 5.533 1.559.842 2.837 1.73 4.302 2.541l3.382 1.87c.491.219 1.045.252 1.559.094 1.075-.327 7.357-6.531 9.352-8.838 4.411-5.065 11.129-11.737 14.729-17.41l4.115 5.564c-2.52 6.951-5.88 13.567-10.006 19.702-2.235 3.313-4.909 6.307-7.95 8.9-1.833 1.54-3.901 2.777-6.125 3.663-2.808 1.122-5.893 1.356-8.838.67-.767-.188-1.518-.438-2.244-.748l-1.388-.608-2.525-1.153c-1.714-.749-3.351-1.653-5.003-2.479-3.301-1.766-6.506-3.707-9.601-5.813-3.117-2.14-6.104-4.461-8.947-6.952-1.559-1.294-2.821-2.603-4.162-4.022-.686-.706-1.356-1.439-2.011-2.197l-.982-1.185c-.342-.436-.607-.764-1.106-1.434z" fill="#fdbab9"/><path d="m423.07 210.174 7.233-15.462 6.904 12.376s-4.52 7.794-9.461 7.794z" fill="#fdbab9"/><path d="m438.455 188.289 7.294 9.383-8.541 9.399-6.905-12.36z" fill="#fdbab9"/><path d="m435.914 211.343h11.425c.327.005.642-.115.883-.335.24-.22.387-.524.411-.849l2.416-27.542c.015-.179-.007-.359-.065-.529-.058-.169-.151-.325-.273-.457s-.269-.237-.434-.309c-.164-.072-.342-.109-.522-.108h-11.487c-.324.003-.636.125-.875.344-.238.219-.388.518-.419.841l-2.4 27.526c-.015.183.008.368.069.542s.158.333.284.467c.127.134.28.239.45.31.17.07.353.104.537.099z" fill="#fa541c"/><path d="m435.291 205.09 2.042-1.044c1.034-.53 1.988-1.202 2.836-1.996l.39-1.356c-.219-.364-.549-.647-.943-.807-.393-.161-.828-.189-1.239-.081l-1.699.468-8.417.639-.218 3.553 2.463 3.819h.857c.93.032 1.841-.274 2.563-.861s1.207-1.417 1.365-2.334z" fill="#fdbab9"/><path d="m353.819 197.829c5.845-1.06 47.072 34.68 47.072 34.68l-12.22 17.925s-45.092-31.392-43.643-38.967c1.31-7.903.203-12.095 8.791-13.638z" fill="#754ffe"/><path d="m358.947 209.313-.436 18.704c4.676 3.632 21.572 16.584 21.572 16.584z" fill="#1c0f79" opacity=".24"/><path d="m326.262 569.336 13.841 1.356 4.38-32.062-13.826-1.356z" fill="#fdbab9"/><path d="m190.158 381.205-3.554 13.467 29.927 12.89 6.188-13.669z" fill="#fdbab9"/><path d="m349.985 573.465c1.19.157 2.398-.108 3.413-.748.225-.189.401-.429.512-.701.112-.271.155-.566.127-.858-.008-.18-.06-.356-.153-.511-.092-.155-.222-.285-.377-.377-1.683-.998-7.325 1.683-7.964 1.979-.056.036-.102.084-.134.141-.033.057-.051.121-.054.187.013.067.045.129.092.178.047.05.107.085.173.102 1.434.334 2.895.538 4.365.608zm2.525-2.79c.212-.015.424.034.608.14.068.031.125.082.164.146s.058.138.054.213c.022.196-.003.395-.073.579-.071.185-.185.349-.332.481-.873.717-3.118.779-6.235.187 1.838-.918 3.821-1.514 5.861-1.762z" fill="#fa541c"/><path d="m345.699 572.859h.109c1.699-.702 5.065-3.601 4.847-5.191-.057-.275-.208-.521-.427-.697s-.492-.271-.773-.269c-.327-.061-.663-.05-.986.031-.323.08-.624.229-.884.437-1.777 1.387-2.214 5.143-2.245 5.284-.015.114.012.231.078.327.039.031.084.054.132.067.049.014.099.017.149.011zm3.444-5.502h.203c.592.093.623.327.623.405.141.951-2.151 3.258-3.881 4.177.161-1.578.821-3.064 1.886-4.239.333-.258.75-.381 1.169-.343z" fill="#fa541c"/><path d="m339.417 565.111-12.469.53c-.271.003-.532.107-.731.291-.199.185-.322.437-.345.707l-2.992 17.395c-.017.296.025.592.123.872.099.28.252.537.45.758.199.22.439.399.707.526s.559.199.855.213h.265c5.44-.281 8.058-.686 14.948-.92 4.208-.14 17.145 1.388 22.912.078 5.767-1.309 4.676-7.029 2.198-6.983-8.012.156-17.255-5.065-21.822-11.175-.826-.515-3.242-2.338-4.099-2.292z" fill="#1c0f79"/><path d="m192.964 396.433 6.359-10.802c.142-.228.195-.5.149-.764-.046-.265-.188-.503-.398-.67l-13-11.955c-.48-.344-1.077-.484-1.661-.391s-1.107.413-1.456.89c-.061.063-.109.137-.14.218-2.713 4.676-3.804 7.139-7.342 13.062-2.166 3.616-10.505 13.701-12.469 19.203s3.351 7.793 4.676 5.642c4.224-6.827 13.607-11.752 21.26-12.329.764-.296 3.601-1.34 4.022-2.104z" fill="#1c0f79"/><path d="m362.578 214.331c7.903 13.436-1.761 24.783-9.819 64.919l-52.107.14c.857-21.634.764-39.122-8.479-81.69-.204-.921-.225-1.873-.06-2.802.164-.929.511-1.817 1.019-2.612s1.168-1.482 1.943-2.021c.774-.539 1.647-.921 2.569-1.122.51-.122 1.034-.18 1.559-.171 4.317 0 9.726.156 15.212.701 8.679.71 17.298 2.017 25.796 3.912 4.614 1.113 9.149 2.529 13.576 4.24 2.634.904 5.877 8.199 8.791 16.506z" fill="#754ffe"/><path d="m354.692 281.963s29.241 84.589 28.539 125.27c-.405 23.381-2.151 66.727-9.18 97.262-5.736 24.939-29.116 40.837-29.116 40.837l-18.704-1.107s-10.116-38.031-8.355-53.166c3.491-30.129 13.888-52.761 12.641-80.428-1.995-45.295-15.4-129.37-15.4-129.37z" fill="#fa541c"/><path d="m325.763 452.855s0-.155.14-.14c16.6 1.559 28.056-22.336 25.344-55.052l-8.822-83.389z" fill="#770508" opacity=".24"/><path d="m341.568 281.263s23.24 148.744-25.157 165.484c-25.5 9.664-46.978-.81-72.385-12.064-14.698-6.499-33.059-24.097-33.059-24.097l7.061-19.218c12.699-3.435 25.987-4.104 38.966-1.964 24.799 3.834 25.828 10.91 34.65 5.58 18.501-45.779-13.358-81.955 8.292-113.783z" fill="#fa541c"/><path d="m215.549 253.316c-2.353 3.476-14.293 1.122-14.293 1.122l-2.525-14.792 14.652 5.876z" fill="#fdbab9"/><path d="m201.662 238.885 2.291 15.369-8.822 1.309c-.477.04-.951-.097-1.334-.384-.382-.288-.645-.706-.739-1.175l-3.367-11.004c-.057-.256-.012-.524.124-.748.137-.224.355-.386.609-.452z" fill="#fdbab9"/><path d="m197.734 245.851 5.034.889 4.676-3.57-1.839-1.309c-1.24-.89-2.111-2.205-2.447-3.694-.361-1.561-.575-3.153-.639-4.754v-.53c-.06-.47-.272-.907-.604-1.245-.333-.338-.766-.558-1.235-.625l-1.247.919c-.795 1.699-.234 3.679-.327 5.003l-.203 2.572-2.011.873z" fill="#fdbab9"/><path d="m294.699 194.834-29.49 40.526-54.195 10.645v8.885s50.906 3.772 62.346-2.884c11.441-6.655 30.582-47.04 30.582-47.04z" fill="#fdbab9"/><path d="m294.355 116.898c-12.376-4.146-26.731 3.538-32.405 15.29-5.673 11.753-3.678 26.17 2.697 37.549 1.917 3.444 4.224 6.686 5.783 10.287 1.758 3.567 2.14 7.656 1.075 11.487-1.262 3.726-2.587 6.11-7.201 5.518 0 0 0-2.556 1.761-2.244 0 0-3.725 2.073-5.19.717 1.683 2.618 6.235 1.667 7.669-1.107 2.182-4.131-1.824-9.726-6.5-9.68-4.676.047-8.464 4.786-8.323 9.446.196 2.33 1.026 4.563 2.4 6.456 1.373 1.892 3.238 3.374 5.393 4.283-1.263.203-2.558-.015-3.684-.621-1.127-.605-2.023-1.565-2.551-2.73 2.12 5.549 9.056 7.996 14.886 6.905 5.829-1.091 10.801-4.832 15.368-8.619 6.235-5.113 12.61-11.581 12.47-19.577-.141-5.97-3.975-11.098-7.202-16.133-3.226-5.034-6.047-11.175-4.005-16.771 1.745-4.676 6.437-7.622 10.599-10.521 2.992-2.073 9.056-6.702 8.339-11.082-.717-4.177-7.887-7.747-11.379-8.853z" fill="#1c0f79"/><path d="m266.534 255.626-8.168-21.619 1.871.156c1.512.123 3.029-.191 4.368-.904 1.34-.712 2.448-1.795 3.191-3.118 6.235-11.098 22.336-39.263 26.872-40.666 6.468-1.917 13.124 3.258 15.586 10.911 1.84 5.627-17.145 29.755-25.92 43.472-7.809 12.095-17.8 11.768-17.8 11.768z" fill="#754ffe"/><path d="m186.792 403.54v.156c.114.3.303.566.548.773.246.207.539.349.854.412.189.06.391.071.585.03s.374-.132.522-.264c1.325-1.2.483-6.235.405-6.734-.01-.064-.04-.123-.084-.17-.045-.047-.102-.08-.165-.095-.063-.009-.127-.002-.187.02s-.113.058-.156.105c-1.06 1.512-2.743 4.177-2.322 5.767zm2.4-4.676c.296 1.995.405 4.676-.312 5.331-.069.054-.152.09-.239.104s-.177.005-.26-.026c-.211-.04-.409-.132-.575-.268s-.295-.312-.375-.512c-.265-.841.311-2.556 1.761-4.582z" fill="#fa541c"/><path d="m189.161 398.585c.42 1.684 1.995 4.567 3.398 4.894.257.05.524.013.758-.106.234-.118.423-.311.535-.548.107-.23.163-.48.163-.733s-.056-.503-.163-.732c-.639-1.933-4.317-3.523-4.473-3.601-.05-.027-.107-.041-.164-.041s-.113.014-.164.041c-.04.041-.072.09-.093.143-.021.054-.032.111-.031.169.068.175.147.347.234.514zm4.239 3.118c.039.136.048.279.027.418-.022.14-.074.274-.151.392-.203.374-.406.374-.562.343-.966-.187-2.416-2.541-2.883-4.177 1.2.608 3.117 1.745 3.522 2.93v.094z" fill="#fa541c"/><path d="m300.465 276.758-1.434 5.065c-.202.39.265.795.92.78h53.758c.205.031.415-.01.594-.115.178-.105.316-.268.388-.462l.499-5.066c0-.343-.421-.654-.982-.639h-52.823c-.178-.015-.357.018-.519.094-.161.077-.3.195-.401.343z" fill="#fdab76"/><path d="m310.737 283.085h-1.559c-.296 0-.53-.156-.498-.343l.701-6.593c0-.187.281-.343.592-.343h1.559c.296 0 .545.156.514.359l-.701 6.577c-.047.172-.312.343-.608.343z" fill="#fa541c"/><path d="m349.548 283.073h-1.558c-.296 0-.53-.156-.515-.343l.702-6.578c0-.202.296-.358.592-.358h1.559c.296 0 .53.156.514.343l-.701 6.577c-.016.203-.281.359-.593.359z" fill="#fa541c"/><path d="m331.779 283.042h-1.559c-.296 0-.53-.155-.498-.342l.701-6.578c0-.203.281-.359.577-.359h1.558c.296 0 .546.156.515.343l-.702 6.578c-.031.203-.28.358-.592.358z" fill="#fa541c"/><path d="m316.816 161.304c1.652 8.495 3.273 23.833-2.478 28.446 0 0 2.291 8.713 17.706 11.036 17.021 2.571 8.09-7.123 8.09-7.123-9.259-3.679-9.04-10.381-7.435-16.554z" fill="#fdbab9"/><path d="m314.385 189.674c8.215.521 16.379 1.657 24.424 3.398l11.674 3.476c2.074 4.177-1.324 12.766-11.097 14.402 0 0-24.581 3.383-31.828-21.93z" fill="#fdbab9"/><path d="m323.285 167.777 9.352 9.352c-.392 1.449-.653 2.93-.78 4.426-3.538-1.044-9.243-4.956-9.632-8.697.005-1.748.365-3.477 1.06-5.081z" fill="#000" opacity=".24"/><path d="m306.419 150.582c4.162 13.186 5.643 18.86 14.184 24.05 12.766 7.794 28.056-.187 27.916-14.339-.125-12.75-6.905-32.171-21.4-34.291-3.182-.474-6.432-.127-9.442 1.01-3.009 1.136-5.678 3.023-7.752 5.482-2.075 2.459-3.486 5.407-4.099 8.565-.614 3.158-.409 6.42.593 9.476z" fill="#fdbab9"/><path d="m337.874 148.525c1.484 2.311 3.278 4.409 5.331 6.234-.481.519-1.069.927-1.723 1.196-.654.27-1.358.393-2.065.363z" fill="#fdbab9"/><path d="m336.392 163.367c.527-.061 1.048-.16 1.559-.297.082-.022.152-.075.196-.147.043-.073.057-.16.038-.242-.022-.082-.075-.152-.148-.196-.072-.043-.159-.057-.242-.038-1.344.385-2.76.444-4.131.173-1.372-.271-2.659-.865-3.756-1.732-.064-.06-.149-.092-.237-.089-.087.003-.17.041-.23.105s-.092.149-.089.237.04.171.104.23c.967.776 2.078 1.352 3.268 1.694 1.191.343 2.438.445 3.668.302z" fill="#1c0f79"/><path d="m301.884 124.257c-1.717 1.113-3.144 2.62-4.16 4.396-1.017 1.776-1.595 3.769-1.685 5.813-.064.781.059 1.566.358 2.291.159.357.408.667.722.899s.683.379 1.071.426c1.184 0 2.057-1.06 2.712-2.057l3.008-4.676c1.239-1.524 2.286-3.194 3.117-4.973 1.013-3.07-3.304-3.242-5.143-2.119z" fill="#fa541c"/><path d="m303.364 127.361c-8.292 9.57-11.986 36.052 12.252 43.44 4.052-3.211-2.494-9.056-5.269-16.444-1.808-4.832 7.42-13.857 11.02-17.566 3.601-3.71 6.921-9.056 12.017-8.199 1.29.431 2.679.469 3.991.109 4.021-1.823 2.073-4.239 0-5.923-3.181-2.351-6.966-3.746-10.911-4.021-4.257-.505-8.573.011-12.591 1.508-4.017 1.496-7.619 3.929-10.509 7.096z" fill="#1c0f79"/><path d="m330.283 124.147c9.726 8.121-3.117 8.324-9.928 13.467-6.812 5.144-1.964 13.031-13 16.787-9.024 2.634-11.113 1.06-13.623-.701 3.098-.526 5.933-2.065 8.063-4.375 2.129-2.31 3.432-5.261 3.705-8.391.749-5.923 13.639-26.201 24.783-16.787z" fill="#1c0f79"/><path d="m304.939 161.668c1.526 2.199 3.855 3.71 6.484 4.209 3.491.607 4.832-2.588 3.632-5.705-1.123-2.806-4.302-6.5-7.669-5.705-.577.147-1.12.407-1.597.764s-.879.804-1.183 1.317c-.304.512-.504 1.08-.588 1.669-.085.59-.053 1.191.095 1.768.159.611.44 1.184.826 1.683z" fill="#fdbab9"/><path d="m328.599 124.974c1.886 4.8 7.326 4.161 11.363 9.18 2.463 3.118 7.326-6.499.717-10.287s-15.041-6.406-12.08 1.107z" fill="#1c0f79"/><path d="m322.879 145.234c.137.017.276-.012.394-.083.119-.07.21-.178.261-.306 1.294-2.837 5.128-3.554 5.159-3.554.17-.034.32-.133.419-.275.099-.143.139-.318.111-.489-.037-.171-.139-.321-.284-.42s-.322-.138-.495-.11c-.187 0-4.567.92-6.11 4.349-.037.078-.058.162-.063.248-.004.086.009.172.038.253s.073.156.131.219c.058.064.128.116.206.153h.233z" fill="#1c0f79"/><path d="m343.142 139.504c.114.009.228-.015.33-.067s.187-.131.247-.229c.096-.143.132-.318.1-.487-.033-.169-.13-.319-.272-.417-.863-.598-1.858-.979-2.899-1.112-1.042-.133-2.1-.014-3.086.348-.093.026-.179.071-.253.132-.074.062-.134.139-.176.225-.041.087-.064.182-.066.278-.001.096.018.192.056.28.039.088.096.167.167.231.072.065.157.113.249.141.092.029.188.037.284.025.095-.012.187-.045.269-.096.775-.271 1.604-.353 2.417-.239s1.588.42 2.259.894c.116.059.244.091.374.093z" fill="#1c0f79"/><path d="m342.503 144.783c.749-.14 1.559.702 1.731 1.855.171 1.153-.25 2.213-.998 2.338s-1.559-.701-1.73-1.855c-.172-1.153.249-2.166.997-2.338z" fill="#1c0f79"/><path d="m344.81 143.648-2.634 1.293c1.59 1.123 2.634-1.293 2.634-1.293z" fill="#1c0f79"/><path d="m329.457 147.468c.748-.14 1.558.702 1.73 1.855.171 1.153-.25 2.213-.998 2.338s-1.559-.701-1.73-1.855c-.171-1.153.249-2.198.998-2.338z" fill="#1c0f79"/><path d="m331.764 146.327-2.634 1.293c1.59 1.123 2.634-1.293 2.634-1.293z" fill="#1c0f79"/><path d="m263.509 207.1c-1.473.008-2.933-.267-4.302-.811-4.816-1.979-7.076-6.998-6.235-13.794.012-.102.044-.201.094-.29.051-.09.119-.168.2-.231.082-.062.175-.108.275-.134.099-.025.203-.031.304-.015.205.027.39.134.516.298.125.163.181.37.155.575-.811 6.032 1.091 10.458 5.206 12.142 2.398.818 4.993.86 7.417.118 2.423-.741 4.551-2.228 6.081-4.249 3.896-5.221 2.634-12.61-3.476-20.263-15.961-20.029-14.886-30.674-12.641-39.091 3.273-12.22 12.875-26.217 39.98-23.521.102.008.201.036.292.083s.171.112.237.19c.065.079.114.169.144.267.029.098.039.201.028.302-.007.102-.036.201-.082.292-.047.091-.112.171-.19.237-.079.065-.17.114-.267.144-.098.029-.201.039-.302.029-25.937-2.603-35.086 10.739-38.203 22.367-2.26 8.416-3.118 18.252 12.344 37.719 9.352 11.737 5.565 19.421 3.507 22.165-1.307 1.697-2.985 3.073-4.906 4.021-1.921.949-4.034 1.445-6.176 1.45z" fill="#1c0f79"/></svg>