<svg fill="none" height="482" viewBox="0 0 640 482" width="640" xmlns="http://www.w3.org/2000/svg" xmlns:xlink="http://www.w3.org/1999/xlink"><clipPath id="a"><path d="m0 .064209h640v481.103h-640z"/></clipPath><g clip-path="url(#a)"><path clip-rule="evenodd" d="m427.272 466.705s.144-.564.477-1.602c.378-.009.983-.036 1.792-.098-.76.54-1.516 1.107-2.269 1.7z" fill="#b3200e" fill-rule="evenodd"/><path clip-rule="evenodd" d="m421.921 468.465h-38.402c-10.75 0-20.496-6.314-24.91-16.133l-74.489-165.769 42.399-28.61 99.247 194.814c.898 1.756 2.227 3.203 3.819 4.237-.786 2.669-1.559 5.378-2.312 8.1 0 0 .026.003.082.003.075 0 .207-.003.394-.006-.332 1.038-.476 1.601-.476 1.601.753-.593 1.509-1.16 2.269-1.7.517-.043 1.115-.099 1.796-.178-2.095 1.901-4.733 3.14-7.572 3.519-.608.079-1.223.122-1.845.122z" fill="#b3200e" fill-rule="evenodd"/><path clip-rule="evenodd" d="m427.354 465.109c-.056 0-.082-.004-.082-.004.753-2.722 1.526-5.43 2.312-8.099.339.217.691.418 1.052.599-1.48 3.348-2.394 5.948-2.887 7.497-.188.003-.32.007-.395.007zm2.187-.106c1.267-.899 2.543-1.727 3.835-2.485-.598.847-1.282 1.622-2.039 2.307-.681.079-1.279.135-1.796.178z" fill="#b3200e" fill-rule="evenodd"/><path clip-rule="evenodd" d="m427.749 465.102c.493-1.549 1.407-4.149 2.887-7.497 1.497.752 3.172 1.164 4.909 1.164l-1.194 2.158-.171.307c-.247.444-.514.873-.804 1.284-1.292.758-2.568 1.586-3.835 2.485-.809.063-1.414.089-1.792.099z" fill="#b3200e" fill-rule="evenodd"/><path d="m432.552 113.765c0-6.627 5.372-12 12-12h33.379c6.627 0 12 5.373 12 12v343.009c0 6.627-5.373 12-12 12h-33.379c-6.628 0-12-5.373-12-12z" fill="#fee9d1"/><path d="m348.69 164.616c0-6.628 5.372-12 12-12h33.379c6.627 0 12 5.372 12 12v292.157c0 6.628-5.373 12-12 12h-33.379c-6.628 0-12-5.372-12-12z" fill="#fee9d1"/><path d="m264.827 231.65c0-6.627 5.373-12 12-12h33.38c6.627 0 11.999 5.373 11.999 12v225.38c0 6.627-5.372 12-12 12h-33.379c-6.627 0-12-5.373-12-12z" fill="#fee9d1"/><path d="m180.966 206.623c0-6.628 5.372-12 12-12h33.379c6.628 0 12 5.372 12 12v250.151c0 6.627-5.372 12-12 12h-33.379c-6.628 0-12-5.373-12-12z" fill="#fee9d1"/><path d="m97.1035 271.844c0-6.627 5.3725-12 11.9995-12h33.38c6.627 0 12 5.373 12 12v184.929c0 6.628-5.373 12-12 12h-33.38c-6.627 0-11.9995-5.372-11.9995-12z" fill="#fee9d1"/><path clip-rule="evenodd" d="m336.546 277.632c-7.47-5.909-18.384-4.172-23.657 3.765l-109.521 164.843c-8.772 13.204-23.554 21.136-39.385 21.136h-15.41l-12.542-36.195s101.817-156.398 128.059-180.057c0 0 26.133-23.596 51.901-5.755 6.809 4.713 11.976 11.44 15.134 19.103z" fill="#fa541c" fill-rule="evenodd"/><path clip-rule="evenodd" d="m16.9131 333.839s18.3327-22.954 53.8582-26.526c0 0 16.8727 5.76 50.4867 66.102 33.615 60.342 55.928 87.857 82.11 72.828l-2.167 3.605c-7.144 11.883-19.979 19.149-33.825 19.149h-14.481c-15.943 0-30.91-7.678-40.22-20.645-26.1625-36.435-79.6909-108.855-95.7619-114.513z" fill="#fa541c" fill-rule="evenodd"/><path d="m429.264 459.829c.898 1.756 4.454-1.514 6.046-.479 1.592 1.034 73.933-145.826 73.933-145.826l15.601-33.845c-21.22-1.348-38.015-19.017-38.015-40.615 0-22.477 18.187-40.698 40.623-40.698 22.097 0 40.076 17.675 40.613 39.683 3.193-2.268 5.381-5.916 5.631-10.162l7.907-134.2696c.296-5.0667-3.786-8.4338-7.999-8.4338-2.178 0-4.391.8989-6.053 2.9262l-112.453 137.3072c-2.53 3.087-.336 7.73 3.651 7.73h21.617l-7.141 13.706c6.681 4.113 11.138 11.502 11.138 19.934 0 12.912-10.447 23.378-23.338 23.378-3.325 0-6.486-.697-9.351-1.952l-55.536 106.591z" fill="#fa541c"/><g clip-rule="evenodd" fill-rule="evenodd"><path d="m71.0139 463.346s-.4269 2.373-.5957 5.194c-.0717 1.203.8171 2.247 2.0131 2.362 4.1645.406 13.6438 1.15 19.6968.277.8476-.122 1.1844-1.166.5578-1.749-2.4959-2.33-8.5231-6.861-18.4439-7.853z" fill="#1c0f79"/><path d="m68.9451 457.992 2.1054 5.17c.2885.709 1.0062 1.147 1.7657 1.068.5158-.053 1.1263-.152 1.72-.333 1.1884-.363 1.8584-1.625 1.5029-2.814l-1.5891-5.325z" fill="#fdbab9"/><path d="m32.9475 467.462s4.2162 3.536 5.8592 8.067c.4516 1.249-.5033 2.561-1.8272 2.561h-8.6768c-1.27 0-2.2433-1.144-2.0222-2.396.5529-3.131 2.1465-8.218 6.667-8.232z" fill="#1c0f79"/><path d="m27.7217 462.863s.8516 3.776 1.5065 6.274c.1188.451.6013.702 1.0414.543 1.3131-.471 2.3814-.678 3.1584-.573.3588.046.6726-.254.6772-.616l.0816-6.271z" fill="#fdbab9"/><path d="m50.1486 377.889 25.6454 78.38s-4.9187 3.226-7.2623 3.091l-30.461-62.988s-5.3306 38.811-2.7475 66.676l-8.7251.669s-14.1867-71.21-3.4413-95.598z" fill="#1c0f79"/><path d="m54.9556 308.918s-20.7776 1.849-17.8383 16.677c0 0-11.4855 21.657-16.8556 47.162-.1743.83.3806 1.641 1.2151 1.782l34.6021 5.938c.9542.162 1.8749-.435 2.1177-1.374l8.2672-32.01 3.2219 14.885 10.2365-2.672-8.6176-43.735s-1.2022-6.379-16.349-6.653z" fill="#754ffe"/><path d="m64.5526 385.144c-1.09-.6-2.3659-.768-3.5731-.465l-2.4074.6c-.5118.129-1.0187-.224-1.0776-.751l-2.4913-22.213c-3.1153 1.479-7.6094 1.305-9.0912 1.196l5.7338 26.187h20.0656z" fill="#fdbab9"/><path d="m117.865 336.958-.606-2.02c-.349-1.16-1.207-2.103-2.331-2.554l-10.969-4.419s-.165-1.41 2.318-2.369c2.483-.956 1.903-3.744 1.903-3.744s-3.393 1.552-8.3594 4.011c-2.8407 1.407-4.4343 3.888-5.2793 5.756l-24.8557 30.356 2.9182 2.01c3.8373 2.643 9.1153 1.345 11.296-2.778l13.465-25.867c6.7602 2.036 13.6012 2.425 20.5002 1.618z" fill="#fdbab9"/><path d="m61.6866 294.757-6.3907 17.919s5.6592 4.432 9.7889 2.932l3.2202-10.271s-2.4597-12.553-6.6184-10.58z" fill="#fdbab9"/><path d="m80.7611 288.322c0 .276-6.1562 17.457-6.1562 17.457l-9.7182-3.727 3.4196-17.155s12.4548-1.198 12.4548 3.425z" fill="#fdbab9"/><path d="m70.0114 289.077-2.5062 8.889c-.0322.114-.0483.229-.0486.347-.001.725.1783 3.22 2.7146 2.88 2.3015-.306 4.4063-.553 5.7451.076.6009.283.8884.979.6637 1.605-.5595 1.562-1.8857 5.055-3.5004 7.915-.3276.58-1.046.804-1.6519.53-1.8252-.833-5.6256-2.695-8.3327-4.913-.3668-.3-.5434-.771-.4559-1.239.426-2.273 1.6946-9.188 1.7506-11.17.0526-1.86-2.0309-3.28-2.9486-3.814-.3006-.175-.5144-.463-.596-.802-.2878-1.197-.5322-3.907 2.9183-4.504.722-.125 1.1927-.818 1.046-1.537-.2918-1.432-.1984-3.539 2.5159-4.315 2.7591-.79 4.4952.874 5.378 2.15.3572.516 1.0253.683 1.5973.427.3256-.145.719-.152 1.1417.205.57.481 1.4374.335 1.8558-.283.8045-1.186 2.2663-2.37 4.7405-1.568 4.3909 1.423 4.1807 6.494 2.5712 9.251-1.6094 2.757-6.2822.943-8.4939-.884-1.6821-1.389-4.2428-.558-5.3737-.08-.3585.152-.6253.459-.7308.834z" fill="#1c0f79"/><path d="m63.5083 297.24s2.5985-4.925.8802-6.471-4.6293-1.294-4.551 2.558c.0973 4.79 3.6708 3.913 3.6708 3.913z" fill="#fdbab9"/><path d="m57.717 481.118c-.1964 0-.396-.043-.5881-.135-.7559-.356-1.1049-1.312-.7799-2.139l31.2484-79.432c.325-.827 1.2009-1.206 1.9574-.853.7559.356 1.1049 1.315.7799 2.142l-31.2481 79.431c-.2427.617-.7923.986-1.3696.986z" fill="#754ffe"/><path d="m92.921 481.118c-.5776 0-1.1272-.369-1.3697-.986l-31.2484-79.431c-.325-.827.024-1.786.7802-2.142.7552-.356 1.6318.026 1.9575.853l31.2481 79.432c.3253.827-.024 1.783-.7799 2.138-.1918.093-.3914.136-.5878.136z" fill="#754ffe"/><path d="m190.727 481.118c-.196 0-.396-.043-.588-.135-.756-.356-1.105-1.312-.78-2.139l31.247-79.432c.326-.827 1.201-1.206 1.957-.853.757.356 1.106 1.315.783 2.142l-31.249 79.431c-.243.617-.793.986-1.37.986z" fill="#754ffe"/><path d="m225.93 481.118c-.576 0-1.125-.369-1.369-.986l-31.248-79.431c-.325-.827.024-1.786.78-2.142.755-.356 1.632.026 1.957.853l31.248 79.432c.326.827-.023 1.783-.779 2.138-.191.093-.392.136-.589.136z" fill="#754ffe"/><path d="m169.772 467.617h3.694v-40.027h-3.694z" fill="#754ffe"/><path d="m187.8 468.39h-32.36v-.175c0-1.236.999-2.234 2.232-2.234h27.723c1.328 0 2.405 1.077 2.405 2.409z" fill="#754ffe"/><path d="m192.601 426.204c0 2.188-1.788 3.98-3.973 3.98h-32.74c-2.185 0-3.973-1.792-3.973-3.98v-3.599c0-2.191 1.788-3.98 3.973-3.98h32.74c2.185 0 3.973 1.789 3.973 3.98z" fill="#b195fe"/><path d="m155.889 418.625c-.07-.122-14.299-1.714-14.299-1.714s.466 4.334-.989 10.298c-1.456 5.968-22.346 31.815-22.346 31.815l2.19 6.96c-6.773 2.363-13.435 2.738-19.99 1.203l13.575-8.163s12.705-43.371 20.487-51.109l14.262-4.942z" fill="#fdbab9"/><path d="m142.413 404.064s-5.223.81-11.096 4.745c-.925.617-1.433 1.697-1.294 2.804.704 5.578 3.597 23.638 13.133 41.277.501.93.647 2.014.424 3.048l-1.656 7.722-3.074 2.885h7.915l5.269-14.28-2.253-.713c-1.748-.556-2.946-2.164-2.977-4l-.266-15.318c.227-6.827-4.179-11.537-4.179-11.537l12.641-.613z" fill="#fdbab9"/><path d="m135.761 467.943c-.72.945 7.757 2.191 12.04.127 0 0 5.939-10.349 5.939-15.676 0 0-.474-1.084-3.959-.837 0 0-1.995 12.247-4.098 13.62-2.107 1.373-5.889.139-5.889.139s-2.97 1.234-4.033 2.627z" fill="#1c0f79"/><path d="m187.801 393.386s8.197 12.216 8.87 17.788-2.246 7.836-10.847 8.209c-8.602.372-31.565.369-31.565.369l-19.598-16.78s14.283-5.107 17.996-6.551c3.714-1.443 35.144-3.035 35.144-3.035z" fill="#1c0f79"/><path d="m119.617 463.636s2.358 2.291.766 4.838c0 0-18.682 3.315-23.7541 1.809 0 0 1.0532-2.406 6.7651-5.147l-.422.323c-.533.412-.22 1.265.451 1.226 3.764-.215 11.552-.907 16.194-3.049z" fill="#1c0f79"/><path d="m171.234 324.763c1.239.389 5.704 1.994 5.128 4.87-.077.383.282.706.657.603 1.924-.517 6.174-1.173 8.809 2.136 2.326 2.919.588 5.674-.829 7.187-.343.365-.055.959.441.896 3.537-.448 11.223-.554 12.481 6.66 1.172 6.725-3.501 8.62-6.273 9.157-.468.089-.578.708-.175.962 1.383.88 2.985 2.696 2.337 6.281-1.014 5.615-12.006 5.157-13.291 5.081-.082-.003-.158-.026-.23-.069l-17.606-10.057c-.138-.079-.233-.214-.26-.372l-3.554-20.566c-.029-.165.023-.336.14-.458l11.69-12.169c.138-.145.344-.201.535-.142z" fill="#1c0f79"/><path d="m165.905 391.453s-9.546-9.105-14.245-15.138c-2.54-3.259-3.338-7.553-2.163-11.517 2.145-7.243 5.958-14.74 6.305-15.909.534-1.79 11.238-1.714 11.238-1.714s21.063 13.695 29.339 36.893l-9.295 2.9s-5.5-9.243-10.933-15.122c0 0 9.402 12.443 9.734 17.538z" fill="#754ffe"/><path d="m154.233 339.205c.111.373 2.905 9.652 3.123 9.843.219.191 6.127.511 8.908-1.394l-4.718-9.895z" fill="#fdbab9"/><path d="m158.823 319.718s-5.043 2.132-8.473 9.434c-3.429 7.303-.868 10.674 2.349 11.135 3.216.465 8.027.392 13.116-4.323 5.088-4.716-.435-18.777-6.992-16.246z" fill="#fdbab9"/><path d="m162.393 332.064s3.805-10.683-5.648-10.808l-2.225 1.559s-3.469-5.925 2.225-8.752c5.693-2.828 12.356-.491 14.779 7.193 2.422 7.685 2.836 12.828-1.195 16.503-4.03 3.677-5.692-.491-5.692-.491s2.195-3.437 1.302-5.279c-.894-1.839-2.955.382-2.955.382z" fill="#1c0f79"/><path d="m163.454 333.255s1.924-5.504 4.49-3.312c2.567 2.191-2.085 5.084-3.907 6.02z" fill="#fdbab9"/><path d="m146.181 392.444 7.014-6.771 9.702 4.106s9.658 1.499 15.186 0c5.528-1.5 5.528-1.5 5.528-1.5l12.491-3.895 1.962 5.556c.498 1.41-.002 2.976-1.22 3.842-1.08.768-2.347 1.615-3.154 1.967-1.645.722-40.551-.497-40.551-.497z" fill="#fdbab9"/><path d="m172.724 395.637c-.031.003-.063.003-.094.003l-40.686-.046c-1.006 0-1.821-.817-1.819-1.826 0-1.008.82-1.839 1.823-1.822l40.686.046c1.006 0 1.82.817 1.819 1.826-.001.975-.767 1.772-1.729 1.819z" fill="#770508"/><path d="m95.3677 358.629h33.8833c2.5 0 4.775 1.443 5.842 3.71l15.664 33.276h-42.108c-1.611 0-3.059-.989-3.651-2.488l-12.1469-30.791c-.7016-1.779.6072-3.707 2.5166-3.707z" fill="#770508"/><path d="m119.242 375.692c.734 2.287.192 4.504-1.212 4.959-1.403.452-3.136-1.035-3.87-3.318-.735-2.287-.192-4.508 1.211-4.959 1.403-.452 3.137 1.034 3.871 3.318z" fill="#fdab76"/><path d="m91.1223 394.335h-40.0422v-4.138h40.0422c-.8571 0-.8571 4.138 0 4.138z" fill="#fdab76"/><path d="m51.4076 394.335c-.1809 0-.3289-.149-.3289-.33v-3.48c0-.181.148-.329.3289-.329h40.6054c.1809 0 .329-.148.329-.33v-.276c0-.182-.1481-.33-.329-.33h-43.227c-.9552 0-1.7295.774-1.7295 1.733v2.646c0 .9.7299 1.631 1.6305 1.631h43.326c.1809 0 .329-.148.329-.329v-.277c0-.181-.1481-.329-.329-.329z" fill="#770508"/><path d="m229.587 397.126c.105-.461-.036-.939-.381-1.301-.343-.363-.856-.574-1.398-.574h-183.2508c-.7115 0-1.374.314-1.7572.837-.3832.521-.4345 1.177-.1361 1.737l1.986 3.74c.4546.857 1.4397 1.404 2.5239 1.404h179.3772c1.01 0 1.875-.62 2.069-1.483z" fill="#b195fe"/><path d="m277.191 176.641c0 4.541-3.674 8.223-8.206 8.223-4.533 0-8.21-3.682-8.21-8.223s3.677-8.222 8.21-8.222c4.532 0 8.206 3.681 8.206 8.222z" fill="#b195fe"/><path d="m122.575 189.381-1.085-1.99 76.309-41.77 70.94 31.239 60.911-59.858.122-.07 71.522-42.2855 1.148 1.9531-71.404 42.2154-61.809 60.738-71.321-31.408z" fill="#b195fe"/><path d="m130.242 188.387c0 4.541-3.674 8.222-8.207 8.222s-8.208-3.681-8.208-8.222 3.675-8.223 8.208-8.223 8.207 3.682 8.207 8.223z" fill="#b195fe"/><path d="m206.062 146.881c0 4.541-3.675 8.223-8.208 8.223-4.532 0-8.207-3.682-8.207-8.223s3.675-8.222 8.207-8.222c4.533 0 8.208 3.681 8.208 8.222z" fill="#b195fe"/><path d="m336.6 117.91c0 4.542-3.678 8.223-8.21 8.223-4.533 0-8.207-3.681-8.207-8.223 0-4.541 3.674-8.222 8.207-8.222 4.532 0 8.21 3.681 8.21 8.222z" fill="#b195fe"/><path d="m410.076 75.6231c0 4.5412-3.674 8.2223-8.21 8.2223-4.532 0-8.206-3.6811-8.206-8.2223 0-4.5411 3.674-8.2222 8.206-8.2222 4.536 0 8.21 3.6811 8.21 8.2222z" fill="#b195fe"/><path d="m331.456 427.417c-1.079 1.598-5.365 37.792-6.036 51.161-.043.906.677 1.658 1.582 1.658.779 0 1.441-.567 1.562-1.338l7.839-50.331z" fill="#754ffe"/><path d="m365.917 427.417c1.079 1.598 5.365 37.792 6.036 51.161.046.906-.678 1.658-1.579 1.658-.779 0-1.444-.567-1.562-1.338l-7.842-50.331z" fill="#754ffe"/><path d="m324.973 424.587-.003.395c-.026 2.841 2.415 5.171 5.474 5.22l36.237.62c3.013.049 5.526-2.133 5.671-4.927l.02-.362c.151-2.917-2.319-5.372-5.46-5.428l-36.255-.652c-3.101-.056-5.657 2.254-5.684 5.134z" fill="#b195fe"/><path d="m395.469 477.261c-6.44 0-9.292-.554-10.565-1.058.247 1.061 1.191 1.898 2.381 1.898h22.788c.767 0 1.254-.738 1.069-1.404-2.598.211-8.114.564-15.673.564z" fill="#1c0f79"/><path d="m411.141 476.697c-.036-.135-.092-.267-.187-.389-1.737-2.221-5.224-5.707-9.967-5.638-6.95.096-9.371.85-14.772.04l-1.273 4.231c-.132.432-.132.863-.039 1.262 1.272.504 4.124 1.058 10.565 1.058 7.558 0 13.075-.353 15.673-.564z" fill="#1c0f79"/><path d="m387.777 466.154-1.562 5.328s3.463 1.578 6.513.31l.598-4.614z" fill="#fdbab9"/><path d="m435.012 473.907c-5.023 4.044-7.588 5.401-8.894 5.81.852.665 2.105.725 3.036-.023l17.762-14.298c.599-.485.52-1.358-.04-1.76-1.894 1.793-5.973 5.529-11.864 10.271z" fill="#1c0f79"/><path d="m446.878 463.637c-.112-.082-.237-.148-.385-.184-2.737-.633-7.625-1.15-11.279 1.878-5.358 4.435-6.776 6.541-11.489 9.302l1.638 4.08c.167.418.434.755.756 1.005 1.306-.409 3.872-1.766 8.894-5.809 5.891-4.742 9.97-8.479 11.865-10.272z" fill="#1c0f79"/><path d="m354.329 405.451s38.566 3.157 46.477 6.887c7.91 3.73-6.457 56.026-6.457 56.026s-2.154 1.038-6.947-.455c0 0 4.914-38.59 1.257-46.96l-41.758-6.841z" fill="#1c0f79"/><path d="m419.892 467.287c.358.327 3.832 7.345 3.832 7.345s3.868-.837 4.654-3.291l-3.48-6.334z" fill="#fdbab9"/><path d="m331.1 405.129s-1.256 3.031-1.207 7.055c.072 5.569 4.539 10.087 10.091 10.363l45.593 2.083c.961.046 1.776.712 2.016 1.648 1.073 4.152 6.309 16.901 31.91 42.34.681.676 1.74.791 2.552.277l3.645-2.303c.381-.244.503-.745.276-1.137l-26.548-45.412c-1.394-2.307-3.634-3.971-6.243-4.64l-38.856-9.951z" fill="#1c0f79"/><path d="m383.994 335.205s-12.845 7.632-17.825 11.823l10.292 5.754s5.562-6.436 10.861-9.118z" fill="#fdbab9"/><path d="m330.273 405.45s12.308 3.005 24.057 0c0 0 16.437-22.137 22.798-28.164 0 0 10.144 16.037 32.725 18.311l1.26-2.821s-17.976-8.3-23.512-21.056c-5.532-12.756-7.756-18.196-12.792-21.525-3.134-2.072-5.013-3.489-5.983-4.26-.529-.425-1.263-.471-1.842-.119-5.345 3.262-30.485 20.513-36.711 59.634z" fill="#754ffe"/><g fill="#000" opacity=".12"><path d="m38.2324 395.69h-.0313c-.1362-.02-.2329-.145-.2154-.28l.9953-7.912c.0168-.138.1398-.234.2773-.217.1362.016.2326.141.2155.28l-.9954 7.912c-.0158.125-.1227.217-.246.217z"/><path d="m66.6393 345.663-.0553-.007c-.1388-.03-.2269-.168-.197-.307l2.8844-13.269c.0305-.139.1657-.228.3068-.198.1385.033.227.168.1967.31l-2.8843 13.266c-.0263.122-.1329.205-.2513.205z"/><path d="m47.9257 363.844c-1.418 0-2.4305-.109-2.5397-.122l-.1845-.02-7.5656-35.338c-.03-.138.0585-.277.1976-.306.1405-.03.276.059.3059.197l7.4874 34.973c1.1259.099 7.1384.497 10.3125-1.753l-6.5538-30.702 1.368-2.583c.0664-.126.2223-.175.3483-.109.1257.069.1737.224.1069.349l-1.2805 2.419 6.5841 30.843-.1315.099c-2.2933 1.727-5.9878 2.053-8.4551 2.053z"/><path d="m376.458 376.453c.056 0 .115-.02.161-.056.119-.089.142-.257.05-.376-3.826-4.999-6.023-10.68-6.043-10.736-.055-.138-.21-.207-.348-.155-.138.053-.207.208-.151.346.019.06 2.246 5.81 6.117 10.871.053.07.132.106.214.106z"/></g><path d="m408.492 391.302 2.543-.679 7.717-1.789c.927-.214 1.904-.05 2.71.458l6.638 4.181-18.325-.029z" fill="#fdbab9"/><path d="m401.415 397.077c.03 0 .06.004.089.004l39.146-.04c.967 0 1.753-.788 1.75-1.753 0-.969-.79-1.77-1.754-1.753l-39.145.039c-.967 0-1.75.788-1.75 1.753 0 .94.737 1.704 1.664 1.75z" fill="#fee9d1"/><path d="m455.937 360.208-.037.076-15.472 33.203c-.38.822-.025 1.793.8 2.175.822.378 1.813.027 2.181-.8l15.473-33.203c.38-.821.024-1.793-.8-2.174-.798-.366-1.74-.043-2.145.723z" fill="#fee9d1"/><path d="m427.788 399.042c.171.712 16.505 62.082 20.647 77.639.476 1.793-.856 3.552-2.688 3.552-1.276 0-2.391-.88-2.7-2.135l-18.131-73.648z" fill="#754ffe"/><path d="m418.845 399.042c-.171.711-16.506 62.082-20.647 77.638-.477 1.793.855 3.553 2.687 3.553 1.28 0 2.392-.88 2.701-2.136l18.13-73.648z" fill="#754ffe"/></g><path d="m418.297 397.035h10.174v7.49c0 1.558-1.247 2.824-2.786 2.824h-5.286c-1.161 0-2.102-.953-2.102-2.129z" fill="#754ffe"/><path clip-rule="evenodd" d="m393.286 395.073h56.803c.792 0 1.486.544 1.684 1.325l.792 3.114c.287 1.12-.552 2.211-1.694 2.204l-58.286-.339c-1.128-.007-1.953-1.084-1.677-2.195l.691-2.774c.194-.785.891-1.335 1.687-1.335z" fill="#b195fe" fill-rule="evenodd"/><path clip-rule="evenodd" d="m392.783 332.195s.118 9.135-1.355 13.283c-1.474 4.146-1.704 7.145-6.723 5.991-5.02-1.15-7.983-5.14-8.428-10.077 0 0-.736-7.628 1.083-9.862 1.815-2.231 15.423.665 15.423.665z" fill="#fdbab9" fill-rule="evenodd"/><path clip-rule="evenodd" d="m379.09 339.163.592.248s-.339-6.031 2.171-6.011 11.716 1.855 14.811-.389c2.981-2.165 2.981-6.58 1.07-8.62-.122-.132-.329-.135-.464-.023l-.352.29c-.237.194-.596 0-.559-.307.032-.293-.293-.497-.533-.329-.938.665-3.069 1.496-7.454.537-6.217-1.361-11.016-.626-12.782 3.331-.115.251-.441.277-.602.053-.319-.438-.947-.847-2.181-.461-2.144.665-2.947 4.402-.667 8.712.108.205 0 .465-.231.505-.799.148-2.148.728-.263 3.054 1.931 2.38 3.464 2.854 4.082 2.946.165.023.323-.069.378-.227l1.267-3.635c.062-.188.273-.28.457-.204z" fill="#1c0f79" fill-rule="evenodd"/><path clip-rule="evenodd" d="m378.927 339.965s.786-5.47-2-5.016c-2.786.455-1.171 6.008.526 6.94z" fill="#fdbab9" fill-rule="evenodd"/><path clip-rule="evenodd" d="m460.869 291.092c-3.402 0-6.635-.713-9.566-1.998-8.421-3.694-14.303-12.116-14.303-21.916 0-13.208 10.686-23.915 23.869-23.915 4.576 0 8.849 1.289 12.48 3.524 6.834 4.206 11.393 11.765 11.393 20.391 0 13.207-10.687 23.914-23.873 23.914zm0-47.033c-12.745 0-23.075 10.35-23.075 23.119 0 12.768 10.33 23.119 23.075 23.119 12.746 0 23.079-10.351 23.079-23.119 0-12.769-10.333-23.119-23.079-23.119z" fill="#b76e00" fill-rule="evenodd"/><path clip-rule="evenodd" d="m460.87 290.297c-12.745 0-23.075-10.351-23.075-23.119 0-12.769 10.33-23.119 23.075-23.119 12.746 0 23.079 10.35 23.079 23.119 0 12.768-10.333 23.119-23.079 23.119zm.505-42.183c-10.788 0-19.532 8.761-19.532 19.567 0 10.807 8.744 19.568 19.532 19.568 10.787 0 19.532-8.761 19.532-19.568 0-10.806-8.745-19.567-19.532-19.567zm-.505-3.051c-8.381 0-15.939 4.661-19.717 12.163-.192.381-.04.846.34 1.038.114.057.232.083.35.083.279 0 .551-.155.686-.425 3.52-6.978 10.545-11.312 18.341-11.312 1.245 0 2.493.112 3.705.333.05.009.097.013.144.013.367 0 .687-.263.754-.636.077-.419-.202-.822-.619-.898-1.306-.238-2.645-.359-3.984-.359z" fill="#ffab00" fill-rule="evenodd"/><path clip-rule="evenodd" d="m441.836 258.349c-.117 0-.235-.026-.35-.083-.38-.192-.531-.657-.339-1.038 3.778-7.502 11.335-12.163 19.717-12.163 1.339 0 2.678.121 3.984.359.417.076.696.479.619.898-.068.373-.387.636-.754.636-.047 0-.094-.004-.145-.013-1.211-.221-2.459-.333-3.704-.333-7.796 0-14.822 4.334-18.341 11.312-.135.27-.407.425-.687.425z" fill="#ffd666" fill-rule="evenodd"/><path clip-rule="evenodd" d="m461.375 287.253c-10.787 0-19.532-8.761-19.532-19.567 0-10.807 8.745-19.568 19.532-19.568s19.532 8.761 19.532 19.568c0 10.806-8.745 19.567-19.532 19.567z" fill="#ffd666" fill-rule="evenodd"/><path clip-rule="evenodd" d="m459.453 282.228v-2.129c-2.214-.089-4.404-.612-5.962-1.295-.555-.244-.838-.869-.68-1.455l.542-1.983c.195-.727.986-1.103 1.679-.812 1.544.648 3.452 1.161 5.508 1.161 2.133 0 3.725-.724 3.725-2.21 0-1.34-1.232-2.137-4.196-2.934-4.233-1.16-7.268-3.007-7.268-6.739 0-3.369 2.456-5.942 6.726-6.63v-2.129c0-.685.552-1.24 1.238-1.24h1.249c.683 0 1.238.555 1.238 1.24v1.912c2.049.082 3.54.433 4.724.85.609.213.939.868.77 1.49l-.494 1.834c-.192.707-.949 1.094-1.632.835-1.09-.413-2.631-.843-4.633-.843-2.534 0-3.257 1.051-3.257 1.993 0 1.159 1.521 1.956 4.811 2.971 4.701 1.412 6.652 3.369 6.652 6.883 0 3.224-2.385 6.123-7.015 6.847v2.383c0 .685-.552 1.24-1.238 1.24h-1.249c-.683 0-1.238-.555-1.238-1.24z" fill="#b76e00" fill-rule="evenodd"/><path clip-rule="evenodd" d="m527.243 280.847c-.907 0-1.808-.029-2.705-.086-22.008-1.397-39.428-19.723-39.428-42.125 0-23.312 18.863-42.21 42.133-42.21 22.919 0 41.567 18.332 42.123 41.158.006.35.013.701.013 1.052 0 7.449-1.927 14.448-5.308 20.523-4.65 8.36-12.057 14.97-20.985 18.603-4.892 1.989-10.238 3.085-15.843 3.085zm0-83.018c-22.496 0-40.734 18.27-40.734 40.807 0 22.538 18.238 40.807 40.734 40.807s40.734-18.269 40.734-40.807c0-22.537-18.238-40.807-40.734-40.807z" fill="#b76e00" fill-rule="evenodd"/><path clip-rule="evenodd" d="m527.244 279.441c-22.496 0-40.734-18.269-40.734-40.806 0-22.538 18.238-40.807 40.734-40.807s40.734 18.269 40.734 40.807c0 22.537-18.238 40.806-40.734 40.806zm.887-74.455c-19.04 0-34.474 15.463-34.474 34.538 0 19.074 15.434 34.538 34.474 34.538s34.477-15.464 34.477-34.538c0-19.075-15.437-34.538-34.477-34.538zm-.887-4.805c-14.574 0-27.712 8.104-34.286 21.15-.195.386-.041.857.344 1.052.116.058.236.084.355.084.283 0 .559-.157.699-.431 6.305-12.513 18.907-20.287 32.888-20.287 2.231 0 4.469.201 6.642.599.051.009.099.014.147.014.372 0 .696-.268.764-.644.078-.427-.205-.835-.628-.912-2.268-.415-4.599-.625-6.925-.625z" fill="#ffab00" fill-rule="evenodd"/><path clip-rule="evenodd" d="m493.66 222.47c-.12 0-.239-.026-.355-.084-.385-.195-.539-.667-.345-1.053 6.575-13.045 19.712-21.149 34.287-21.149 2.326 0 4.656.209 6.925.625.423.077.706.485.628.911-.068.376-.392.645-.764.645-.048 0-.096-.005-.147-.015-2.173-.397-4.411-.598-6.642-.598-13.981 0-26.583 7.774-32.888 20.287-.14.274-.416.431-.699.431z" fill="#ffd666" fill-rule="evenodd"/><path clip-rule="evenodd" d="m528.132 274.065c-19.04 0-34.474-15.463-34.474-34.538 0-19.074 15.434-34.537 34.474-34.537s34.477 15.463 34.477 34.537c0 19.075-15.437 34.538-34.477 34.538z" fill="#ffd666" fill-rule="evenodd"/><path clip-rule="evenodd" d="m524.747 265.204v-3.757c-3.91-.157-7.778-1.082-10.525-2.286-.982-.431-1.48-1.533-1.2-2.568l.955-3.5c.348-1.284 1.743-1.948 2.968-1.434 2.722 1.145 6.09 2.05 9.716 2.05 3.766 0 6.574-1.279 6.574-3.901 0-2.366-2.17-3.773-7.403-5.18-7.468-2.046-12.831-5.307-12.831-11.894 0-5.947 4.34-10.487 11.872-11.702v-3.758c0-1.209.979-2.19 2.187-2.19h2.204c1.204 0 2.183.981 2.183 2.19v3.374c3.62.145 6.254.765 8.342 1.501 1.071.377 1.658 1.532 1.361 2.63l-.877 3.236c-.338 1.249-1.668 1.933-2.876 1.475-1.927-.729-4.646-1.488-8.184-1.488-4.466 0-5.742 1.854-5.742 3.517 0 2.047 2.678 3.453 8.488 5.244 8.297 2.494 11.746 5.947 11.746 12.15 0 5.691-4.213 10.807-12.384 12.086v4.205c0 1.209-.979 2.19-2.187 2.19h-2.203c-1.208 0-2.184-.981-2.184-2.19z" fill="#b76e00" fill-rule="evenodd"/><path clip-rule="evenodd" d="m555.26 371.415c-4.072 0-8.006-.583-11.726-1.67-16.64-4.861-28.992-19.814-30.008-37.8-.046-.797-.069-1.598-.069-2.405 0-1.44.072-2.864.214-4.268 1.74-17.207 13.88-31.341 30.028-35.988 1.615-.465 3.269-.834 4.956-1.102 2.152-.343 4.355-.52 6.605-.52 9.401 0 18.078 3.11 25.065 8.359 10.16 7.639 16.735 19.81 16.735 33.519 0 23.126-18.716 41.875-41.8 41.875zm0-82.361c-22.321 0-40.412 18.124-40.412 40.486 0 22.358 18.091 40.485 40.412 40.485 22.318 0 40.412-18.127 40.412-40.485 0-22.362-18.094-40.486-40.412-40.486z" fill="#b76e00" fill-rule="evenodd"/><path clip-rule="evenodd" d="m555.262 370.023c-22.321 0-40.412-18.127-40.412-40.485 0-22.361 18.091-40.486 40.412-40.486 22.317 0 40.412 18.125 40.412 40.486 0 22.358-18.095 40.485-40.412 40.485zm.881-73.869c-18.89 0-34.205 15.339-34.205 34.264 0 18.924 15.315 34.267 34.205 34.267 18.887 0 34.202-15.343 34.202-34.267 0-18.925-15.315-34.264-34.202-34.264zm-.881-4.744c-14.453 0-27.479 8.034-33.998 20.97-.188.372-.036.827.335 1.015.109.056.224.082.339.082.276 0 .539-.155.674-.415 6.26-12.424 18.769-20.141 32.65-20.141 2.213 0 4.434.2 6.595.594.046.009.092.013.138.013.358 0 .671-.257.74-.62.072-.411-.197-.804-.609-.879-2.25-.411-4.559-.619-6.864-.619z" fill="#ffab00" fill-rule="evenodd"/><path clip-rule="evenodd" d="m521.936 313.477c-.115 0-.23-.026-.338-.082-.372-.188-.523-.643-.336-1.015 6.519-12.935 19.545-20.97 33.998-20.97 2.306 0 4.615.208 6.865.619.411.075.681.468.608.879-.069.364-.381.621-.74.621-.046 0-.092-.005-.138-.014-2.161-.393-4.381-.594-6.595-.594-13.881 0-26.39 7.717-32.649 20.141-.135.26-.398.415-.675.415z" fill="#ffd666" fill-rule="evenodd"/><path clip-rule="evenodd" d="m556.145 364.682c-18.89 0-34.205-15.342-34.205-34.267 0-18.924 15.315-34.263 34.205-34.263 18.887 0 34.202 15.339 34.202 34.263 0 18.925-15.315 34.267-34.202 34.267z" fill="#ffd666" fill-rule="evenodd"/><path clip-rule="evenodd" d="m552.782 355.89v-3.73c-3.879-.155-7.717-1.071-10.441-2.267-.973-.425-1.47-1.519-1.19-2.547l.944-3.473c.348-1.272 1.73-1.931 2.947-1.421 2.704 1.134 6.039 2.034 9.641 2.034 3.736 0 6.522-1.269 6.522-3.872 0-2.347-2.154-3.74-7.348-5.138-7.407-2.03-12.726-5.265-12.726-11.8 0-5.902 4.306-10.406 11.779-11.609v-3.73c0-1.2.97-2.172 2.167-2.172h2.185c1.197 0 2.17.972 2.17 2.172v3.348c3.589.145 6.201.758 8.276 1.489 1.063.373 1.642 1.519 1.349 2.61l-.872 3.21c-.335 1.239-1.654 1.917-2.855 1.463-1.908-.722-4.608-1.477-8.115-1.477-4.433 0-5.7 1.842-5.7 3.49 0 2.03 2.661 3.427 8.424 5.203 8.233 2.475 11.651 5.899 11.651 12.054 0 5.645-4.181 10.723-12.286 11.992v4.171c0 1.2-.97 2.172-2.167 2.172h-2.188c-1.197 0-2.167-.972-2.167-2.172z" fill="#b76e00" fill-rule="evenodd"/><path clip-rule="evenodd" d="m608.889 303.178c-10.443 0-19.663-5.235-25.192-13.229-3.428-4.955-5.434-10.97-5.434-17.454 0-7.39 2.605-14.17 6.95-19.466 1.401-1.709 2.983-3.263 4.717-4.633 5.213-4.123 11.802-6.584 18.959-6.584 1.937 0 3.835.18 5.674.525 14.203 2.666 24.952 15.154 24.952 30.158 0 16.945-13.709 30.683-30.626 30.683zm0-60.346c-16.354 0-29.61 13.28-29.61 29.663 0 16.382 13.256 29.662 29.61 29.662s29.61-13.28 29.61-29.662c0-16.383-13.256-29.663-29.61-29.663z" fill="#b76e00" fill-rule="evenodd"/><path clip-rule="evenodd" d="m608.885 302.156c-16.354 0-29.61-13.281-29.61-29.663s13.256-29.662 29.61-29.662c16.355 0 29.611 13.28 29.611 29.662s-13.256 29.663-29.611 29.663zm.645-54.122c-13.841 0-25.061 11.24-25.061 25.105 0 13.866 11.22 25.106 25.061 25.106s25.061-11.24 25.061-25.106c0-13.865-11.22-25.105-25.061-25.105zm-.645-3.679c-10.667 0-20.278 5.93-25.09 15.476-.188.372-.036.827.335 1.015.109.055.224.081.339.081.276 0 .543-.152.674-.416 4.553-9.032 13.651-14.644 23.742-14.644 1.609 0 3.224.145 4.796.432.05.009.096.014.142.014.358 0 .671-.26.736-.623.073-.41-.197-.804-.608-.878-1.661-.303-3.365-.457-5.066-.457z" fill="#ffab00" fill-rule="evenodd"/><path clip-rule="evenodd" d="m584.47 260.927c-.115 0-.231-.026-.339-.081-.372-.188-.523-.643-.336-1.015 4.813-9.546 14.424-15.476 25.091-15.476 1.701 0 3.404.154 5.065.457.412.074.681.468.609.878-.066.363-.378.622-.737.622-.046 0-.092-.004-.141-.013-1.573-.287-3.188-.432-4.796-.432-10.092 0-19.19 5.611-23.742 14.644-.132.264-.398.416-.674.416z" fill="#ffd666" fill-rule="evenodd"/><path clip-rule="evenodd" d="m609.531 298.242c-13.842 0-25.061-11.241-25.061-25.106 0-13.866 11.219-25.106 25.061-25.106 13.841 0 25.061 11.24 25.061 25.106 0 13.865-11.22 25.106-25.061 25.106z" fill="#ffd666" fill-rule="evenodd"/><path clip-rule="evenodd" d="m607.071 291.803v-2.731c-2.845-.114-5.654-.786-7.651-1.662-.713-.313-1.078-1.114-.871-1.867l.691-2.544c.253-.933 1.266-1.416 2.157-1.042 1.98.832 4.428 1.49 7.066 1.49 2.736 0 4.779-.93 4.779-2.836 0-1.72-1.579-2.742-5.385-3.765-5.427-1.487-9.325-3.858-9.325-8.646 0-4.323 3.155-7.623 8.631-8.506v-2.732c0-.879.711-1.591 1.589-1.591h1.602c.875 0 1.589.712 1.589 1.591v2.453c2.628.105 4.542.556 6.062 1.091.779.274 1.204 1.113.987 1.911l-.635 2.353c-.247.908-1.214 1.405-2.092 1.072-1.398-.53-3.378-1.081-5.947-1.081-3.247 0-4.178 1.347-4.178 2.556 0 1.488 1.951 2.51 6.174 3.812 6.03 1.813 8.536 4.323 8.536 8.832 0 4.137-3.062 7.855-9.003 8.785v3.057c0 .879-.71 1.592-1.585 1.592h-1.605c-.875 0-1.586-.713-1.586-1.592z" fill="#b76e00" fill-rule="evenodd"/><path clip-rule="evenodd" d="m345.824 40.9095s-5.783 11.1307-14.394 7.761c-8.615-3.3694-16.473-8.9113-20.466-7.1807 0 0 15.223-19.2194 35.008-5.0041z" fill="#fdab76" fill-rule="evenodd"/><path clip-rule="evenodd" d="m363.872 11.8587c3.842 1.619 5.019 13.8809 5.019 13.8809s-12.881 4.1549-18.16 2.3729c-4.371-1.476-16.065-10.1134-19.956-13.0399-.806-.6057-1.273-1.558-1.26-2.5673.003-.122.092-.2221.214-.2301 2.704-.1772 30.488-1.9563 34.143-.4165zm-.725 56.2414c3.882-1.5184 5.378-13.7457 5.378-13.7457s-12.769-4.4874-18.094-2.8428c-4.408 1.362-16.322 9.6936-20.285 12.518-.822.5845-1.313 1.5247-1.326 2.5337 0 .1222.086.2244.208.2356 2.697.2471 30.425 2.7459 34.119 1.3012zm-23.235-54.3232c-.095.0042-.181-.0376-.233-.1061-.037-.0452-.06-.1019-.063-.1638-.007-.1559.112-.2887.27-.2959l.024-.0011c.694-.0322 15.482-.7176 21.928-.7668 1.171-.0088 2.237.674 2.717 1.739.925 2.0529 2.171 5.1893 2.865 8.4746.033.1533-.066.3032-.217.3355-.154.0326-.306-.0649-.335-.2185-.721-3.4063-2.082-6.6992-2.829-8.3586-.388-.8608-1.25-1.4127-2.194-1.4055-6.559.0501-21.782.7599-21.933.7672zm-.711 52.3558c-.082-.006-.155-.0465-.201-.1055-.042-.0537-.065-.1236-.062-.1974.013-.1562.148-.2735.302-.2619l.006.0003c.355.0258 15.39 1.1166 21.901 1.3352.947.032 1.822-.4972 2.23-1.3481.79-1.639 2.237-4.895 3.043-8.2825.036-.1519.191-.2458.342-.2096s.243.1891.21.3411c-.822 3.4392-2.286 6.7377-3.085 8.3975-.507 1.0522-1.589 1.7073-2.76 1.6677-6.565-.2204-21.775-1.3256-21.926-1.3368z" fill="#b3200e" fill-rule="evenodd"/><path clip-rule="evenodd" d="m409.822 54.736c-5.707 1.784-12.289 2.9815-19.617 2.9077-22.742-.2287-39.419-4.3375-44.129-5.6329-.852-.2343-1.497-.9223-1.7-1.7834-1.606-6.7881-1.566-13.5622.105-20.3217.312-1.2713 1.319-2.2575 2.592-2.5613 5.519-1.3168 21.821-4.6674 43.579-4.3217 7.27.1153 13.779 1.4631 19.407 3.371 3.006 11.3329 1.161 22.2299-.237 28.3423z" fill="#fa541c" fill-rule="evenodd"/><path clip-rule="evenodd" d="m410.059 26.3911c12.437 4.2146 20.591 11.1642 23.203 13.6166.513.4791.5 1.2904-.023 1.7563-2.668 2.3752-10.947 9.0728-23.417 12.9694 1.398-6.1123 3.244-17.0093.237-28.3423z" fill="#b3200e" fill-rule="evenodd"/><path clip-rule="evenodd" d="m392.074 28.9056c-5.891-.0764-10.733 4.9963-10.815 11.33-.079 6.3338 4.628 11.5304 10.519 11.6065 5.891.0764 10.733-4.9962 10.815-11.33s-4.628-11.5303-10.519-11.6065z" fill="#b3200e" fill-rule="evenodd"/><path clip-rule="evenodd" d="m392.346 30.9186c-4.693-.0609-8.552 3.981-8.618 9.028-.065 5.0466 3.688 9.1874 8.381 9.2484 4.694.0606 8.553-3.9813 8.618-9.028.066-5.0469-3.687-9.1874-8.381-9.2484z" fill="#fdab76" fill-rule="evenodd"/><path clip-rule="evenodd" d="m393.729 46.4765c.069.0867.184.1279.299.0949 2.898-.8482 4.951-3.6419 4.99-6.7948.01-.7938-.102-1.5757-.335-2.3234-.046-.1496-.208-.232-.356-.1852s-.233.2053-.184.3546c.214.6903.319 1.4133.309 2.1468-.036 2.9061-1.921 5.4796-4.582 6.2583-.151.0438-.237.201-.194.3509.01.0369.03.0696.053.0979z" fill="#fa541c" fill-rule="evenodd"/><path clip-rule="evenodd" d="m370.589 32.5186c-3.891-.0504-7.088 3.3005-7.144 7.4851-.053 4.1843 3.056 7.6173 6.95 7.6677 3.891.0504 7.089-3.3008 7.144-7.4851.053-4.1843-3.059-7.6169-6.95-7.6677z" fill="#b3200e" fill-rule="evenodd"/><path clip-rule="evenodd" d="m370.769 33.8462c-3.101-.0403-5.65 2.6299-5.693 5.9643-.043 3.3341 2.437 6.0695 5.536 6.1097 3.101.0402 5.651-2.6299 5.693-5.9644.043-3.3341-2.434-6.0694-5.536-6.1096z" fill="#fdab76" fill-rule="evenodd"/><path clip-rule="evenodd" d="m371.606 44.188c.069.087.187.1282.299.0949 1.957-.5714 3.342-2.4546 3.368-4.5794.007-.5345-.069-1.0617-.227-1.5656-.046-.1489-.207-.2319-.355-.1852-.148.0472-.234.2057-.184.3549.138.4465.207.9138.2 1.3887-.023 1.8782-1.24 3.5404-2.96 4.0429-.148.0441-.237.2013-.191.3513.01.0369.027.0695.05.0975z" fill="#fa541c" fill-rule="evenodd"/><g clip-rule="evenodd" fill="#fa541c" fill-rule="evenodd" opacity=".24"><path d="m345.225 29.8323c.187-.2495.543-.2996.792-.1114.724.5473 1.458 1.1359 2.175 1.7504l.237.2027-.056.3779c-.043.3095-.329.5237-.638.4782-.204-.029-.362-.1602-.438-.3351-.651-.55-1.309-1.0773-1.96-1.5699-.04-.029-.073-.0623-.102-.0985-.158-.1974-.168-.4834-.01-.6943zm-4.783-2.999c.148-.2752.494-.377.767-.2277.819.4452 1.647.9388 2.463 1.4687.26.1707.336.5206.168.7829-.171.2623-.52.3375-.783.1671-.789-.5131-1.595-.9925-2.388-1.4235-.069-.0373-.125-.0864-.171-.1437-.138-.1724-.168-.4175-.056-.6238zm6 10.6597.408-2.8019c.046-.3094.332-.5239.641-.4795.309.0449.523.3322.477.6419l-.405 2.802c-.046.3094-.332.5239-.641.4791-.148-.0214-.273-.0985-.362-.2066-.092-.1183-.138-.2735-.118-.435zm-11.217-12.8003c.096-.2979.415-.4613.711-.3654.891.2883 1.799.6303 2.691 1.0172.286.1242.417.4574.296.7447-.125.287-.458.4192-.744.295-.862-.3724-1.733-.7016-2.592-.9791-.108-.0352-.2-.1008-.266-.1848-.115-.1434-.158-.3398-.096-.5276zm10.408 18.4045.404-2.8019c.046-.3094.332-.524.642-.4795.309.0448.523.3322.477.6419l-.405 2.802c-.046.3094-.332.5239-.641.4791-.148-.0214-.273-.0982-.359-.2066-.095-.1183-.141-.2735-.118-.435zm-15.95-19.4478c.033-.311.309-.5387.618-.5074.948.0939 1.908.2428 2.852.4419.303.0639.5.3647.434.6709-.062.3058-.365.5022-.667.4373-.905-.1908-1.823-.3332-2.731-.4232-.157-.0158-.292-.0949-.384-.2099-.089-.1113-.135-.2563-.122-.4096zm-5.635.1866c-.036-.3105.185-.5925.494-.6298.957-.1153 1.927-.1792 2.878-.1901.312-.0033.569.2481.572.5602.004.3124-.246.5691-.559.5727-.911.0102-1.839.0712-2.756.1822-.201.0237-.392-.0616-.51-.2096-.063-.0794-.105-.1769-.119-.2856zm19.812 25.5709c.743-1.1658 1.118-2.0417 1.187-2.2681l.178-1.2396c.046-.3095.332-.5243.641-.4792.309.0445.523.3322.48.6423l-.177 1.211-.01-.0017c-.122.8106-1.332 2.7225-1.345 2.7436-.168.264-.517.3414-.78.1737-.056-.0346-.099-.0768-.138-.1242-.148-.1839-.168-.4482-.036-.6578zm-25.291-24.2225c-.099-.2969.065-.6169.361-.7148.918-.3025 1.852-.5615 2.773-.7701.303-.0695.605.1236.674.4274.07.3048-.121.6083-.427.6769-.885.201-1.783.4504-2.668.742-.23.0758-.473-.0049-.618-.1842-.04-.0517-.072-.111-.095-.1772zm21.738 28.4005c.678-.6026 1.323-1.264 1.918-1.9662.204-.2379.559-.2666.799-.0639.237.2039.267.5601.063.7984-.632.7421-1.313 1.4413-2.03 2.0783-.233.2079-.592.1865-.799-.0468l-.02-.0231c-.184-.2336-.158-.5756.069-.7767zm-26.896-26.1001c-.145-.2775-.036-.6195.24-.7645.855-.4492 1.73-.8637 2.592-1.2334.286-.123.618.0108.74.2982.125.2873-.01.6208-.296.7437-.835.3575-1.681.7599-2.513 1.1955-.243.1275-.539.0597-.704-.1476-.023-.0283-.043-.0587-.059-.0919zm22.045 29.8498c-.129-.2841-.007-.6198.279-.7503.826-.3783 1.632-.8248 2.395-1.3273.26-.1714.618-.1035.783.1627.171.2613.098.6123-.161.784-.813.5338-1.668 1.0083-2.546 1.411-.241.11-.52.0369-.678-.1612-.026-.0355-.053-.0754-.072-.1189zm-26.824-26.8294c-.178-.2557-.119-.609.138-.7889.789-.5576 1.595-1.0878 2.388-1.5771.266-.1638.621-.0817.779.1858.161.2663.079.6153-.187.779-.773.4769-1.559.9945-2.329 1.5386-.247.1733-.582.1229-.766-.1091zm21.367 28.2358c-.046-.3094.164-.5974.473-.6436.198-.0293.395-.0599.592-.0932.714-.118 1.421-.2762 2.102-.4712.3-.0854.615.0886.698.3895.085.3005-.089.6139-.389.6999-.72.2066-1.47.3746-2.223.4992-.207.0339-.411.0659-.612.0962-.207.0307-.404-.0544-.526-.2069-.059-.0755-.102-.1674-.115-.2699zm-5.638.2119c.013-.3124.276-.5546.589-.5411.898.0395 1.829.031 2.766-.0244.309-.0184.579.2188.595.5315.02.3121-.217.58-.529.5988-.977.058-1.944.0665-2.882.0257-.167-.0073-.319-.089-.414-.2122-.082-.1032-.132-.2356-.125-.3783zm-20.075-25.6942c.642-.5622 1.293-1.1099 1.941-1.6279l.253-.202c.244-.1934.599-.1529.793.091v.0016c.194.2455.155.6017-.092.7955l-.247.1987c-.634.5071-1.276 1.0442-1.904 1.5955-.234.206-.592.1819-.796-.0533l-.017-.0198c-.187-.235-.161-.579.069-.7793zm12.822 19.5482c-.085-.3008.089-.6135.391-.6985.872-.2472 1.5-.6423 1.915-.9039.177-.1104.319-.1984.431-.2524.062-.029.115-.0511.161-.0669.293-.1009.599.0642.701.3605.098.2959-.076.6254-.369.7262-.085.0406-.191.1091-.322.1918-.441.2778-1.181.7431-2.211 1.0347-.223.0636-.457-.0188-.595-.1914-.046-.0574-.079-.1249-.102-.2001zm1.691 5.193c.075-.3038.378-.491.684-.4182.803.1938 1.691.3955 2.72.5559.309.0485.52.3385.474.6469-.05.3088-.339.5206-.648.4725-1.069-.1667-1.984-.3746-2.813-.5737-.125-.0306-.233-.1021-.309-.197-.105-.1315-.151-.3091-.108-.4864zm-2.467-2.797c.756-.7866 1.408-1.4772 1.934-2.0536.21-.2306.569-.2471.799-.0359.224.2125.247.5691.036.8001-.532.5839-1.19 1.2822-1.957 2.076-.217.225-.572.2313-.799.0141l-.049-.0543c-.175-.2188-.165-.5391.036-.7464zm-16.164-17.9929c.658-.6901 1.336-1.3695 2.013-2.02.227-.2162.583-.2093.8.0168.22.2264.21.5842-.017.8007-.664.6396-1.332 1.3076-1.983 1.9864-.214.2257-.573.2333-.796.0168l-.053-.056c-.174-.2182-.164-.5375.036-.7447zm11.44 14.7066c.116-.29.444-.4314.734-.3154.898.3599 1.766.5905 2.579.6861.309.0362.533.3183.496.6284-.039.3107-.319.5328-.628.4966-.911-.1071-1.875-.3628-2.865-.7592-.095-.0379-.171-.0979-.23-.1717-.125-.1542-.165-.3684-.086-.5648zm2.744 5.3092c.164-.1627.401-.2069.602-.1308.493-.1506 1.042-.1855 1.697-.114.309.0339.533.3131.5.6238s-.313.5355-.622.5015c-.793-.0863-1.335.0198-1.822.3543l-.72-.8673zm-7.697-8.0182c.131-.2847.467-.4106.75-.2808.644.2933 1.263.6347 1.838 1.0136.227.1503.451.2913.668.4248.267.1621.352.5104.191.7777-.161.2675-.51.3529-.776.1907-.231-.1403-.467-.2896-.704-.4471-.527-.347-1.096-.6594-1.684-.9293-.086-.0379-.155-.0939-.208-.1611-.128-.1615-.164-.3879-.075-.5885zm-10.273-7.7297c.609-.7394 1.234-1.4696 1.852-2.1695.207-.2337.566-.2551.799-.0472.234.2096.254.5658.047.7995-.612.6893-1.224 1.4083-1.823 2.1366-.2.2419-.556.2761-.796.0774-.033-.0257-.059-.0537-.082-.0837-.164-.2049-.168-.5031.003-.7131zm4.767 6.5648c.023-.3117.296-.5437.608-.5183 1 .0817 1.967.2349 2.875.454.306.0729.493.379.418.6838-.073.3038-.379.4907-.681.4172-.852-.2056-1.76-.349-2.704-.4261-.161-.0132-.303-.0932-.395-.2106-.089-.109-.135-.2501-.121-.4zm-5.638.3506c-.046-.3091.167-.5971.477-.6422.973-.1434 1.94-.2363 2.871-.2765.313-.0138.576.228.592.5411.013.3124-.23.5766-.543.5902-.891.0385-1.818.1278-2.756.2656-.207.0306-.401-.0551-.523-.207-.062-.0758-.102-.168-.118-.2712zm-2.589-2.3814c.539-.7655 1.109-1.5389 1.691-2.2995.191-.2481.542-.2955.792-.1054.247.1908.296.545.106.7938-.573.749-1.132 1.5115-1.665 2.2652-.181.255-.536.3156-.789.1351-.043-.0317-.082-.0679-.115-.1088-.155-.1921-.168-.4699-.02-.6804zm-2.049 3.0905s.151-.2573.45-.721c.168-.2632.517-.34.78-.1713.115.0748.194.1842.234.3055.243-.0659.519-.1381.822-.2119.302-.0738.608.1133.681.4168.075.3038-.112.6097-.415.6838-.855.2079-1.46.3941-1.75.4834-.082.0254-.141.0432-.171.0511l-1.345.3638z"/><path d="m283.273 48.6724-3.71.9102c-.345.0853-.694-.1272-.779-.4749-.086-.3473.125-.6979.473-.7829l.043-.0106 3.615-.9016.043-.0112c.352-.0873.707.1262.792.4772.089.3509-.125.7065-.477.7938z"/><path d="m275.809 50.2335-3.79.4103c-.348.0372-.661-.2142-.697-.5625-.036-.348.214-.6604.562-.698l.037-.0042 3.707-.4152.039-.0043c.352-.0392.668.2142.707.5658.04.3516-.214.6686-.562.7078z"/><path d="m268.213 50.8277-3.799-.0284c-.342-.0026-.618-.282-.615-.6247.003-.3424.283-.6182.622-.6156l.032.0003 3.734.0139.036.0003c.345.0013.625.2831.622.6294 0 .3463-.283.6261-.629.6248z"/><path d="m260.618 50.575-3.776-.3991c-.335-.0353-.575-.3338-.539-.6666.036-.3332.332-.5747.664-.5395l.026.0023 3.724.38.03.0029c.335.0343.578.3352.546.6723-.037.3371-.336.5823-.671.548z"/><path d="m253.087 49.6162-3.73-.7084c-.319-.061-.53-.3711-.471-.6927.063-.3216.372-.5325.691-.4715l.02.0036 3.687.6867.023.004c.326.0606.54.3736.48.6992-.062.3256-.375.5398-.7.4791z"/><path d="m245.657 48.064-3.664-.9655c-.309-.0811-.493-.3978-.411-.7069.079-.3091.395-.4939.704-.4129l3.648.9471.019.0049c.313.0811.5.4004.418.7138-.079.313-.398.5012-.71.4201z"/><path d="m238.358 46.0214-3.599-1.1803c-.296-.0972-.457-.4162-.361-.7128.098-.2965.417-.458.713-.3611l.013.0043 3.573 1.1576.016.0046c.299.0975.464.4198.365.7203-.095.3005-.418.4653-.717.3681z"/><path d="m231.195 43.5671-3.533-1.362c-.283-.1094-.424-.428-.316-.7121.109-.284.428-.4257.711-.3163l.01.0036 3.513 1.3395.013.0046c.286.1098.431.4321.322.7201-.109.2883-.431.4326-.717.3229z"/><path d="m224.162 40.7613-3.467-1.5162c-.273-.1189-.395-.4356-.277-.7071.119-.2722.435-.3964.704-.2778l.01.0036 3.451 1.4947.013.0046c.273.119.401.4393.283.7154-.119.2758-.441.4027-.714.2837z"/><path d="m217.26 37.6593-3.404-1.65c-.26-.1258-.369-.4389-.244-.6992.125-.26.438-.3691.698-.2432l.006.0033 3.395 1.6288.01.0043c.263.1265.374.4432.246.7075-.125.2639-.441.3756-.704.2491z"/><path d="m210.481 34.3014-3.345-1.7662c-.249-.1315-.344-.4396-.213-.6887.131-.2488.438-.3444.687-.2132l.006.0029 3.345 1.7505c.252.1321.35.4442.218.6969-.132.2528-.443.351-.696.2188z"/><path d="m203.819 30.7151-3.289-1.87c-.238-.1351-.321-.4376-.186-.6758.134-.238.437-.3217.674-.1862l.005.0023 3.283 1.8506.006.0036c.242.1361.328.4426.192.6844-.136.2419-.442.3279-.684.1915z"/><path d="m197.267 26.9293-3.237-1.958c-.231-.1394-.305-.4399-.166-.6709.14-.231.44-.3058.67-.1658l.005.003 3.228 1.9478.006.0033c.232.14.306.4416.167.6735-.14.232-.441.3068-.673.1671z"/><path d="m190.818 22.9708-3.185-2.0418c-.225-.1443-.291-.4441-.147-.6699.144-.2257.444-.2913.669-.1469l.004.0029 3.177 2.0319.006.0033c.226.1446.292.4458.148.6722-.145.2267-.446.2929-.672.1483z"/><path d="m184.473 18.8478-3.134-2.1185c-.22-.1486-.278-.4478-.13-.6683.149-.2201.447-.2781.667-.1295l.005.003 3.126 2.1089.005.0033c.221.149.279.4492.13.6706-.148.2211-.448.2794-.669.1305z"/><path d="m178.231 14.5737-3.082-2.1893c-.214-.1526-.265-.4505-.113-.6657s.45-.2659.665-.1133l.004.0029 3.075 2.1798.004.0033c.216.1529.267.4521.115.668-.153.2161-.452.2672-.668.1143z"/><path d="m172.054 10.2702-3.219-1.91226-.026-.01549c-.225-.13345-.299-.42376-.165-.64883.133-.22506.422-.29953.647-.16607l3.272 1.94023c.226.13345.3.42508.167.65112-.133.2261-.425.3009-.65.1671z"/><path d="m165.502 6.6546-3.462-1.50031c-.238-.10314-.347-.37961-.244-.61753.102-.23824.378-.34797.616-.24483l3.491 1.50855c.239.10347.349.3806.246.61983-.103.23924-.38.3493-.619.24616z"/><path d="m158.544 3.89757-3.595-1.04063-.029-.00824c-.246-.07117-.389-.32952-.317-.57699.071-.24714.328-.38983.575-.31832l3.654 1.05315c.247.07151.39.33052.319.57898s-.33.3918-.578.32029z"/><path d="m151.295 2.0475-3.698-.57633-.029-.00429c-.252-.03954-.424-.27548-.385-.527891.039-.252085.275-.425085.526-.385872l3.757.581613c.253.03888.426.27614.387.52954s-.276.42706-.528.38752z"/><path d="m143.87 1.13251-3.742-.10281-.029-.00066c-.252-.00725-.452-.218147-.445-.47122.007-.253074.217-.452435.47-.445845l3.799.100834c.254.006591.454.218144.447.472536-.006.254062-.217.454415-.471.447825z"/><path d="m136.386 1.1654-3.724.37269-.029.00297c-.25.02504-.472-.15718-.497-.40729-.025-.249778.157-.472536.406-.49758l3.782-.382246c.25-.025703.474.157512.499.408279.025.251096-.157.474847-.408.499887z"/><path d="m125.322 2.99174-.028.00626c-.243.05602-.484-.09523-.54-.33776-.056-.24286.094-.48473.337-.54075l3.702-.86038c.243-.05668.486.09523.542.33875.057.24352-.095.48703-.338.54338z"/><path d="m121.735 4.067-3.538 1.31084c-.231.08568-.488-.03262-.573-.26395-.086-.23198.032-.48901.263-.57469l3.563-1.32435c.232-.08633.49.0323.577.26461.086.23264-.033.49099-.265.57732z"/><path d="m114.805 6.89106-3.295 1.76789-.029.01549c-.215.11533-.483.03427-.599-.18157-.115-.21584-.034-.4844.181-.59973l3.352-1.80249c.216-.11665.486-.03526.602.18157.116.21649.035.48637-.182.60269z"/><path d="m108.347 10.6558-3.028 2.2031-.022.0165c-.197.1427-.471.0992-.613-.0972-.143-.1967-.099-.4712.097-.6142l3.071-2.23913c.197-.14334.472-.09985.616.09723.143.1974.099.4735-.097.6172z"/><path d="m102.428 15.2482-2.7414 2.5554-.0184.0175c-.176.1638-.4516.1539-.6151-.0224-.1638-.1763-.154-.4518.0217-.6159l2.7762-2.5927c.177-.1651.453-.1552.618.0215.164.1769.155.454-.022.6191z"/><path d="m97.0976 20.5141-2.4328 2.8553-.0161.0187c-.1546.1819-.427.2034-.6082.0482-.1813-.1549-.203-.4274-.0484-.6087l2.4624-2.8955c.1549-.1829.4283-.2046.6108-.0491.1819.1556.204.4294.0487.6119z"/><path d="m90.3083 29.4774-.0142.0208c-.1319.1967-.3973.2491-.5933.117-.1964-.1319-.2487-.3974-.1171-.5938l2.1133-3.1612c.1322-.1973.399-.2501.596-.1179.1971.1324.2497.3994.1178.5974z"/><path d="m88.4102 32.7132-1.6933 3.347-.0125.0244c-.1056.2089-.3605.2926-.5694.1865s-.2924-.3608-.1865-.5701l1.7144-3.397c.1059-.2103.3621-.2946.5717-.1882.2102.1061.294.3628.1881.5731z"/><path d="m85.2458 39.5112-1.2279 3.5414-.0098.0286c-.0764.2198-.3155.3358-.5346.2594-.2194-.0758-.3355-.3154-.2592-.5349l1.2441-3.5997c.0763-.2207.3167-.3374.5368-.2613.2204.0765.3368.3174.2605.5378z"/><path d="m83.056 46.6743-.6733 3.6834-.0063.034c-.0414.2263-.2582.3763-.4841.3348-.2263-.0416-.376-.2584-.3346-.4848l.6819-3.7513c.0415-.2277.2592-.3786.4862-.3371.2273.0416.3779.2597.3365.4874z"/><path d="m82.0204 54.0816-.0234 3.7391-.0003.0386c-.0013.2283-.1869.4119-.4148.4109-.2276-.0017-.4112-.1872-.4095-.4156l.0197-3.8158c.0013-.2294.1875-.4143.4164-.4129.229.0013.4135.1878.4122.4168z"/><path d="m82.3302 61.5445.699 3.6699.0079.0405c.0421.2221-.103.4363-.3247.4788s-.4355-.1028-.4779-.3249l-.7181-3.7506c-.0427-.2228.103-.4383.3253-.4811.2231-.0429.4378.1031.4806.3262z"/><path d="m85.5257 72.2464.0155.0379c.0855.2069-.0125.4442-.2191.5298-.2065.0857-.443-.0118-.5286-.2191l-1.4624-3.5272c-.0865-.2076.0119-.4462.2194-.5325.2076-.0863.4454.0122.5316.2198z"/><path d="m87.3399 75.4846c.6914 1.0235 1.4743 1.9834 2.3482 2.8514.1576.1562.1586.4109.0027.5687-.1563.1579-.4102.1592-.5678.003-.9144-.9065-1.7318-1.9069-2.4515-2.97-.125-.1845-.0769-.4356.1076-.5612.1842-.1252.4355-.0764.5608.1081z"/><path d="m92.5708 80.633c1.0397.6537 2.1544 1.1863 3.3162 1.583.2079.0708.3191.2972.248.5058-.0707.2083-.2963.3197-.5045.2488-1.2204-.4155-2.392-.9737-3.484-1.6588-.1875-.1173-.2441-.3645-.127-.552s.3641-.2445.5513-.1268z"/><path d="m99.4791 82.9962c1.2219.1259 2.4589.1163 3.6829-.0178.216-.0237.411.1328.435.3493.023.2168-.133.4116-.349.4356-1.276.1411-2.569.1526-3.8492.0224-.2177-.0224-.3763-.2171-.3539-.4349.022-.2179.2164-.3767.4342-.3546z"/><path d="m106.772 82.2164c1.177-.369 2.32-.8485 3.413-1.4242.191-.1005.427-.0267.527.1644.101.1908.028.4271-.163.5276-1.133.5981-2.319 1.097-3.542 1.4819-.207.0649-.427-.0501-.492-.257-.065-.207.051-.4274.257-.4927z"/><path d="m113.301 78.7914c.979-.7546 1.895-1.5922 2.735-2.4997.145-.1566.39-.1658.547-.0201.156.1453.165.3904.02.547-.869.9394-1.815 1.8071-2.827 2.5897-.17.1308-.414.0995-.545-.0705-.131-.1704-.099-.4152.07-.5464z"/><path d="m118.325 73.3736.94-1.6041c.333-.5236.58-1.096.858-1.6513l.012-.0224c.094-.1891.324-.2656.513-.171.189.0949.265.3249.171.5137-.285.5721-.539 1.159-.881 1.7023l-.971 1.6579c-.107.1832-.342.2448-.526.137-.183-.1074-.244-.343-.137-.5265z"/><path d="m121.418 66.6317c.339-1.1926.578-2.4128.703-3.6446.021-.2085.208-.3605.416-.339.208.0207.36.2069.339.4155-.129 1.2785-.376 2.5432-.725 3.7766-.057.2027-.268.3207-.47.263-.203-.0573-.32-.2686-.263-.4715z"/><path d="m122.147 59.2907c-.11-1.2307-.341-2.45-.686-3.6366-.059-.1993.056-.4079.255-.4659.199-.0583.407.0557.465.255.36 1.2325.601 2.5001.717 3.7797.019.2076-.134.3914-.342.4102-.207.0188-.39-.1348-.409-.3424z"/><path d="m120.094 52.2115c-.559-1.1033-1.218-2.1564-1.958-3.1493-.123-.1647-.089-.398.075-.5206.164-.1233.397-.0897.52.0748.765 1.0248 1.448 2.1132 2.029 3.256.094.1839.021.4093-.163.5028-.184.094-.409.0205-.503-.1637z"/><path d="m115.686 46.2661c-.885-.8686-1.835-1.6726-2.834-2.4104-.164-.121-.199-.3516-.078-.5154s.35-.1987.514-.0781c1.026.7562 2.003 1.5814 2.916 2.4744.145.143.148.3773.006.5236-.143.1463-.377.1489-.524.0059z"/><path d="m109.723 41.8429c-1.086-.6053-2.208-1.1451-3.358-1.6193-.186-.0764-.274-.2896-.198-.4758s.289-.2755.475-.1987c1.175.4834 2.324 1.0344 3.436 1.6535.177.0982.241.3216.143.4983-.099.1769-.322.2405-.498.142z"/><path d="m102.84 38.996c-1.193-.348-2.427-.5733-3.6387-.8666l-.029-.0069c-.198-.0482-.32-.2482-.272-.4465.0477-.1987.2473-.321.4457-.2729h.0013c1.2307.3019 2.4697.5441 3.6927.8953.193.0544.304.2547.25.4475s-.254.3052-.447.2511z"/><path d="m95.503 37.5259-3.7301-.3598-.0247-.0023c-.2144-.0208-.3716-.2119-.3509-.4271.0207-.2148.2115-.3723.4259-.3519l.0023.0003 3.7768.3856c.2089.0214.3608.2082.3394.4175-.021.2082-.2062.3601-.4141.34z"/><path d="m88.0259 37.0379-3.7479.0922-.0233.0007c-.227.0056-.4158-.1743-.4214-.402-.0056-.2274.174-.4165.4013-.4221h.0023l3.7949-.0725c.2214-.004.4042.1723.4085.3941.004.2211-.1707.4036-.3911.4089z"/><path d="m80.5446 37.4337-3.7149.5071-.0231.003c-.2365.0322-.4545-.1335-.4868-.3708-.0322-.2369.1336-.455.3701-.4873l.0023-.0004 3.7632-.4923c.2309-.0303.4427.1328.473.3642.0299.2306-.1316.4419-.3611.4732z"/><path d="m73.1466 38.6426-3.6396.8993-.023.0059c-.2431.06-.4888-.0886-.5487-.3322-.0598-.2435.0885-.4896.3316-.5493l.0023-.0006 3.6905-.8901c.2378-.0576.477.089.5342.3272.0569.2373-.0881.4759-.3243.5342z"/><path d="m65.9193 40.6343-3.5215 1.2828-.0243.0089c-.246.0896-.5181-.0372-.6075-.284-.0895-.2465.0375-.519.2835-.6087l.0026-.0006 3.5765-1.2806c.2411-.0866.5062.0393.5924.2811.0858.2406-.0385.5052-.278.5925z"/><path d="m58.9558 43.3935-3.3512 1.6713-.0263.0132c-.2447.1222-.5421.0224-.6638-.2228-.1217-.2451-.022-.5427.2224-.6649l.0026-.001 3.4123-1.6783c.2401-.1183.5306-.0188.6483.2218.1175.2395.0195.5292-.2187.6481z"/><path d="m52.3637 46.9341-3.1179 2.0668-.025.0168c-.2379.1575-.5576.0922-.7148-.146-.1572-.2379-.0921-.5582.1454-.7157l.0023-.0017 3.1804-2.0829c.2335-.1532.5467-.0873.6993.1466.1523.233.0875.5454-.1441.699z"/><path d="m46.2447 51.2426-2.8889 2.3897-.0191.0161c-.2286.1888-.5671.1565-.7556-.0725-.1888-.229-.1565-.5681.0721-.7569l.0023-.002 2.9409-2.4055c.2253-.1839.5566-.1506.7404.0751.1833.2248.1507.5553-.0723.7395z"/><path d="m37.8793 58.7959c-.2201.2162-.573.2126-.7888-.0079-.2154-.2204-.2121-.574.0079-.7898l.0023-.0023 2.7225-2.6441c.2171-.2109.5635-.2053.774.0118.2095.2165.2049.5622-.0099.7731z"/><path d="m35.316 61.5087-2.487 2.8161-.0125.0139c-.2115.2395-.5766.2619-.8157.05-.2388-.2118-.2612-.5776-.0497-.8168l.002-.0023 2.5268-2.8313c.2089-.2343.5677-.2544.8016-.0451.2332.2089.2539.5667.047.801z"/><path d="m30.4321 67.2201-2.3094 2.9657-.0106.0139c-.2026.2603-.5782.3068-.8384.1035-.2602-.2034-.3066-.5793-.1036-.84l.002-.0026 2.3462-2.9806c.2006-.2554.5704-.2992.825-.0979.2539.2007.2983.5691.0996.8242z"/><path d="m25.8985 73.2165-2.142 3.0902-.0096.0136c-.1944.2804-.5789.3499-.8588.1552-.2799-.1948-.3493-.58-.1549-.8604l.002-.0027 2.1768-3.106c.1928-.2749.5717-.3414.846-.1483.2737.1927.3401.5701.15.8449z"/><path d="m21.6932 79.4548-1.9805 3.1977-.0082.0135c-.1855.2992-.5783.3914-.8769.2056-.299-.1855-.3908-.579-.2056-.8785l.0016-.003 2.0141-3.2138c.1842-.294.5713-.3829.8644-.1981.2924.1836.3815.5694.1996.863z"/><path d="m17.8129 85.8952-1.8194 3.293-.0078.0141c-.1757.318-.5753.4327-.8924.2571-.3174-.176-.4322-.5764-.2566-.8944l.0016-.0029 1.8522-3.3114c.175-.3121.5688-.4231.8806-.2481.3105.1743.4217.5671.2497.8785z"/><path d="m12.6016 95.9058-.0075.0151c-.1642.3365-.5694.4752-.9049.3101-.3352-.1644-.474-.5704-.3095-.9062l.0016-.0036 1.6864-3.4c.1638-.3305.5638-.4653.8934-.3012.3286.1634.4631.5618.3019.8914z"/><path d="m11.0351 99.3236-1.47685 3.4594-.00756.017c-.15098.354-.56016.519-.91343.367-.3536-.151-.51741-.561-.36643-.915l.00164-.004 1.50945-3.485c.15098-.3483.55488-.5081.90258-.3568.3464.1506.5059.5532.3579.9005z"/><path d="m8.17606 106.282-1.27985 3.535-.00757.021c-.13486.372-.54536.564-.91671.429-.37169-.135-.56346-.546-.42892-.918l.00131-.004 1.31307-3.568c.13486-.366.54043-.554.90619-.419.36445.135.55195.539.41939.905z"/><path d="m5.72868 113.386-1.0496 3.605-.00723.024c-.11381.391-.52201.615-.91179.501-.38978-.113-.61378-.523-.49997-.913l.00066-.004 1.08283-3.648c.11446-.385.51838-.604.90224-.49.38287.115.60128.517.48977.9z"/><path d="m3.76124 120.63-.76509 3.667-.00526.026c-.08552.408-.48484.67-.89238.584-.40787-.085-.67003-.482-.58484-.89.25361-1.245.53155-2.485.79601-3.728.08585-.403.48188-.66.88416-.574.40261.086.65917.483.57332.886z"/><path d="m2.38594 127.99-.44306 3.753c-.04835.411-.41938.704-.82889.656-.409517-.049-.702265-.419-.653912-.83l.439777-3.789c.047694-.413.420365-.708.831855-.66.41181.048.70654.421.65884.833l-.00033.002z"/><path d="m1.68911 135.444-.06282 3.781c-.00691.409-.34307.734-.751266.728-.408195-.007-.7335-.343-.726593-.751l.056248-3.82c.00592-.411.343397-.739.753565-.733.410166.006.737776.344.731856.755v.001z"/><path d="m1.7655 142.922.34406 3.722.00395.041c.03717.403-.25887.76-.66115.798-.40228.037-.758509-.258-.795677-.661l-.358862-3.804c-.038485-.405.258211-.764.662464-.802.404255-.039.763115.259.801275.664l.00032.001z"/><path d="m2.66211 150.339.7641 3.657.00855.041c.0819.392-.16907.776-.56049.858-.39142.083-.77462-.167-.85653-.56l-.78844-3.737c-.08289-.393.16842-.78.56181-.864.39307-.083.77923.169.86245.563l.00033.001z"/><path d="m4.40036 157.6 1.19005 3.586c.12466.376-.07861.783-.45392.907-.37563.125-.78087-.077-.90553-.453l-1.21012-3.622c-.12598-.379.0773-.787.45458-.913.37728-.127.78547.077.91178.455z"/><path d="m6.95302 164.624 1.57919 3.432c.1638.356.00855.778-.34702.942-.35557.165-.7766.01-.94041-.346l-1.6022-3.463c-.16578-.358-.0102-.783.34701-.949.35722-.165.78088-.01.94666.348l.00033.001z"/><path d="m10.2548 171.331 1.9259 3.248c.1977.334.0881.766-.2451.964s-.7631.09-.9608-.245l-1.95051-3.275c-.19966-.334-.09013-.769.24439-.968.33452-.2.76772-.091.96742.244l.0006.002z"/><path d="m14.2261 177.674 2.2051 3.027.0181.025c.226.31.1582.745-.1516.972-.3095.226-.7434.159-.9694-.151l-2.2479-3.073c-.2276-.312-.1602-.749.1507-.978.3108-.228.7476-.161.9756.151l.001.001z"/><path d="m18.7659 183.633 2.4542 2.833.0177.021c.2487.287.2178.721-.0687.97s-.7194.22-.9681-.067l-2.4955-2.87c-.2507-.288-.2208-.725.0671-.977.2874-.25.7239-.22.9743.068l.0009.001z"/><path d="m23.7828 189.205 2.6578 2.643.0164.016c.2664.265.2678.696.0036.963-.2644.267-.6937.27-.9601.005l-2.6966-2.672c-.2684-.266-.2707-.699-.0052-.968.2651-.269.6976-.271.966-.006l.001.001z"/><path d="m29.1888 194.404 2.8271 2.469.0155.013c.2796.244.3089.669.0648.95-.2437.28-.6671.31-.947.066l-2.863-2.49c-.2819-.245-.3121-.673-.0674-.956.2447-.282.6713-.312.9532-.066h.001z"/><path d="m34.9163 199.255 2.9656 2.306.0138.011c.2901.225.3427.643.1177.934-.225.29-.6414.344-.9315.118l-2.9982-2.321c-.292-.227-.346-.647-.12-.94.2256-.292.6453-.346.9374-.12l.001.001z"/><path d="m40.9066 203.793 3.0788 2.157.0125.009c.2973.209.37.619.1618.917-.2079.298-.6164.371-.9141.163l-3.1084-2.169c-.2993-.209-.3733-.621-.1644-.921.2085-.3.6203-.374.92-.165l.001.001z"/><path d="m47.1136 208.048 3.1476 2.084c.2999.197.3838.6.1871.901-.1967.3-.6003.384-.9006.187l-3.1561-2.081c-.3013-.199-.3848-.605-.1865-.907.1984-.302.6036-.386.9049-.187z"/><path d="m53.4156 212.206 3.158 2.067c.2974.194.3812.593.1875.891-.1937.297-.5911.382-.8881.188l-3.164-2.062c-.299-.195-.3838-.596-.1891-.895.1947-.3.5947-.385.8937-.191z"/><path d="m59.7347 216.34 3.1573 2.069c.2938.193.376.586.1842.88-.1921.294-.5851.377-.8785.184l-3.16-2.061c-.2961-.192-.3803-.588-.1882-.885.1921-.296.5875-.38.8835-.188z"/><path d="m66.0456 220.485 3.1455 2.088c.2888.191.3677.581.1766.871-.1914.289-.5818.368-.871.176l-3.1448-2.078c-.2918-.191-.3737-.583-.1829-.876.1904-.292.5819-.374.8736-.183z"/><path d="m72.3239 224.676 3.1212 2.123c.2832.193.3568.579.1644.863-.1921.284-.5776.358-.8608.165l-.0029-.002-3.1183-2.112-.0032-.003c-.2855-.194-.3602-.582-.1675-.867.1931-.286.5806-.361.8661-.168z"/><path d="m78.5564 228.95 3.0889 2.18c.2763.195.3424.578.1477.855s-.5766.343-.8532.148l-.004-.003-3.0834-2.166-.0049-.004c-.2783-.196-.3457-.58-.1503-.86.1954-.279.5796-.346.8582-.15z"/><path d="m84.7061 233.342 3.0376 2.248c.2687.199.3253.579.1266.848-.1983.269-.5769.326-.8456.127l-.0056-.004-3.0291-2.233-.0063-.004c-.2707-.2-.3289-.582-.1296-.853.1994-.271.5803-.329.851-.13z"/><path d="m90.7549 237.878 2.9767 2.336c.2595.204.3052.58.1016.84-.2032.26-.5789.306-.8384.102l-.0066-.005-2.9669-2.319-.0069-.005c-.2618-.205-.3085-.583-.1042-.845.2039-.263.5818-.31.8437-.105z"/><path d="m96.6736 242.587 2.9166 2.402c.2516.207.2881.58.0812.832s-.5786.288-.8305.081l-.0046-.004-2.9107-2.387-.0053-.005c-.2536-.208-.2911-.582-.0832-.837.2076-.254.5819-.291.8355-.083z"/><path d="m102.481 247.435 2.851 2.489c.242.212.267.581.056.824-.211.242-.579.268-.822.056l-.007-.006-2.84-2.471-.008-.006c-.244-.213-.271-.584-.058-.829.212-.245.582-.271.827-.058z"/><path d="m108.137 252.463 2.754 2.601c.231.218.242.582.024.814-.218.231-.581.242-.813.024l-.008-.008-2.741-2.578-.009-.008c-.233-.22-.245-.587-.026-.82s.585-.245.818-.026z"/><path d="m113.586 257.732 2.624 2.737c.217.226.21.586-.017.804-.226.217-.585.21-.802-.017l-.01-.01-2.608-2.709-.011-.011c-.219-.228-.212-.59.015-.809.227-.22.589-.213.808.014z"/><path d="m118.752 263.282 2.453 2.897c.2.236.171.59-.065.79-.236.201-.589.172-.79-.064l-.011-.015-2.434-2.861-.012-.015c-.202-.238-.174-.594.063-.796.237-.203.593-.174.795.064z"/><path d="m123.555 269.16 2.232 3.075c.179.247.125.593-.122.773s-.592.125-.772-.122l-.013-.018-2.21-3.034-.014-.018c-.181-.249-.126-.597.122-.778.248-.182.596-.127.777.121z"/><path d="m127.885 275.407 1.949 3.265c.154.259.07.594-.188.749s-.593.07-.748-.189l-.013-.022-1.928-3.215-.013-.023c-.157-.26-.073-.598.187-.754.26-.157.597-.072.754.189z"/><path d="m131.615 282.03 1.595 3.455c.123.267.007.583-.259.707-.266.122-.58.007-.704-.258l-.013-.027-1.587-3.392-.013-.027c-.127-.272-.01-.594.26-.721.271-.128.593-.011.72.26z"/><path d="m134.606 289.029 1.181 3.62c.087.268-.059.557-.327.645-.266.087-.553-.058-.642-.325l-.01-.03-1.181-3.553-.009-.03c-.091-.273.056-.569.329-.659.273-.092.568.056.659.33z"/><path d="m136.738 296.335.718 3.74c.051.267-.123.524-.389.576-.264.05-.52-.122-.572-.388l-.006-.03-.726-3.675-.006-.031c-.054-.272.122-.535.393-.589.271-.053.534.123.588.395z"/><path d="m137.935 303.852.233 3.803c.016.26-.18.484-.439.497-.257.017-.479-.178-.496-.435l-.002-.029-.253-3.773c-.017-.264.182-.495.447-.511.264-.017.492.181.51.448z"/><path d="m138.139 311.471-.276 3.789c-.018.247-.233.432-.48.415-.245-.016-.43-.23-.414-.477l.002-.024.252-3.743.002-.023c.017-.254.235-.445.488-.428.252.016.443.237.426.487z"/><path d="m137.41 319.03-.618 3.747c-.038.234-.258.392-.49.353-.232-.04-.39-.257-.353-.488l.003-.02.591-3.714.003-.019c.038-.238.262-.402.501-.363.238.04.401.264.363.501z"/><path d="m136.008 326.494-.963 3.677c-.057.218-.279.346-.496.29-.216-.056-.346-.276-.29-.494l.005-.023.932-3.638.006-.02c.057-.224.284-.359.506-.303.223.059.357.287.3.511z"/><path d="m133.873 333.79-1.429 3.532c-.08.194-.304.29-.501.211s-.292-.303-.214-.501l1.398-3.509.012-.03c.081-.204.311-.303.514-.221.203.083.302.313.221.514z"/><path d="m130.692 340.714c-.648 1.097-1.366 2.158-2.175 3.153-.127.155-.357.178-.513.053-.156-.129-.179-.356-.053-.514.776-.962 1.468-1.997 2.094-3.071.105-.182.334-.241.513-.135.179.102.24.332.135.514z"/><path d="m125.787 346.582c-1.014.797-2.144 1.463-3.362 1.917-.178.066-.376-.026-.442-.204s.024-.376.201-.441c1.141-.432 2.204-1.065 3.164-1.829.154-.122.377-.096.498.056.122.155.096.379-.057.501z"/></g></g></svg>