<svg fill="none" height="48" viewBox="0 0 48 48" width="48" xmlns="http://www.w3.org/2000/svg"><path d="m33.271 3.77676v14.83594h-31.271v-14.48058c0-1.33702.7951-2.13212 1.77676-2.13212h27.71754c.9816 0 1.7767.7951 1.7767 1.77676z" fill="#fa541c"/><path d="m33.271 18.6128v22.0319c0 .9816-.7951 1.7767-1.7767 1.7767h-27.71753c-.98167 0-1.77677-.7951-1.77677-1.4214v-22.3872z" fill="#fa541c"/><path d="m6.4419 13.8157-.00001-7.01825c0-.6869.55684-1.24374 1.24374-1.24374h21.67657c.6869 0 1.2437.55684 1.2437 1.24374v7.01825c0 .6869-.5568 1.2437-1.2437 1.2437h-21.67657c-.6869 0-1.24373-.5568-1.24373-1.2437z" fill="#fee9d1"/><g fill="#fdab76"><path d="m9.46239 15.0594h-1.77676c-.68672 0-1.24373-.557-1.24373-1.2437l-.00001-7.01825c0-.68672.55702-1.24374 1.24374-1.24374h1.77676c-.68672 0-1.24373.55702-1.24373 1.24374v7.01825c0 .6867.55701 1.2437 1.24373 1.2437z"/><path d="m30.5171 23.4102v7.1071h-12.0376v-8.3508h10.7938c.6868 0 1.2438.557 1.2438 1.2437z"/><path d="m18.4795 22.1665v8.3508h-12.0376l-.00001-6.9294c0-.8644.55702-1.4214 1.24374-1.4214z"/><path d="m18.4795 30.5171v8.3508h-10.79387c-.68672 0-1.24374-.557-1.24374-1.0661v-7.2847z"/><path d="m30.5171 30.5171v7.107c0 .6868-.557 1.2438-1.2438 1.2438h-10.7938v-8.3508z"/></g><path d="m29.2731 21.5h-10.7938-10.79389c-1.08889 0-1.91002.8975-1.91002 2.0877v6.9294 7.2847c0 .9229.89256 1.7324 1.91002 1.7324h10.79389 10.7938c1.0532 0 1.91-.8569 1.91-1.9101v-7.107-7.1071c0-1.0532-.8568-1.91-1.91-1.91zm.5775 1.91v6.4408h-10.7051v-7.0182h10.1276c.3184 0 .5775.259.5775.5774zm-22.74264.1777c0-.4517.23205-.7551.57745-.7551h10.12759v7.0182h-10.70504zm0 14.2141v-6.6184h10.70504v7.0182h-10.12759c-.33358 0-.57745-.2806-.57745-.3998zm22.74264-.1777c0 .3184-.2591.5775-.5775.5775h-10.1276v-7.0182h10.7051z" fill="#fee9d1"/><path d="m27.1412 13.149h-1.2438c-.8572 0-1.5546-.6974-1.5546-1.5546v-2.57635c0-.8572.6974-1.55467 1.5546-1.55467h1.2438c.8572 0 1.5546.69747 1.5546 1.55467v2.57635c0 .8572-.6974 1.5546-1.5546 1.5546zm-1.2438-4.35305c-.1225 0-.2221.09959-.2221.2221v2.57635c0 .1225.0996.2221.2221.2221h1.2438c.1225 0 .2221-.0996.2221-.2221v-2.57635c0-.12251-.0996-.2221-.2221-.2221z" fill="#770508"/><path d="m33.271 18.6127v-1.9988h-28.16166c-.49066 0-.88838-.3977-.88838-.8884l-.00001-11.59338c0-1.33702.79511-2.13212 1.77677-2.13212h-2.22096c-.98166 0-1.77676.7951-1.77676 2.13212v12.48178 1.9988 22.3873c0 .6263.7951 1.4214 1.77677 1.4214h2.22095c-.98166 0-1.77676-.7951-1.77676-1.4214v-21.4989c0-.4906.39772-.8884.88838-.8884z" fill="#b3200e"/><g fill="#22b8cf"><path d="m37.0024 29.4484c5.0536 0 9.1503-.9148 9.1503-2.0433s-4.0967-2.0433-9.1503-2.0433-9.1503.9148-9.1503 2.0433 4.0967 2.0433 9.1503 2.0433z"/><path d="m46.1528 39.9116v4.1976c0 1.3326-4.0964 2.0433-9.1504 2.0433s-9.1503-.7107-9.1503-2.0433v-4.1976c0 1.3326 4.0963 2.0433 9.1503 2.0433s9.1504-.7107 9.1504-2.0433z"/><path d="m46.1528 31.5164v4.1976c0 1.3326-4.0964 2.0433-9.1504 2.0433s-9.1503-.7107-9.1503-2.0433v-4.1976c0 1.3326 4.0963 2.0433 9.1503 2.0433s9.1504-.7107 9.1504-2.0433z"/></g><path d="m46.1527 35.7141v4.1976c0 1.3325-4.0963 2.0432-9.1503 2.0432s-9.1503-.7107-9.1503-2.0432v-4.1976c0 1.3325 4.0963 2.0432 9.1503 2.0432s9.1503-.7107 9.1503-2.0432z" fill="#116e95"/><path d="m46.1527 27.3188v4.1977c0 1.3325-4.0963 2.0432-9.1503 2.0432s-9.1503-.7107-9.1503-2.0432v-4.1977c0 1.3326 4.0963 2.0433 9.1503 2.0433s9.1503-.7107 9.1503-2.0433z" fill="#116e95"/><g fill="#770508"><path d="m15.3259 35.3585h-4.7973c-.3681 0-.66629-.2982-.66629-.6663 0-.368.29819-.6663.66629-.6663h4.7973c.368 0 .6662.2983.6662.6663 0 .3681-.2982.6663-.6662.6663z"/><path d="m14.8817 25.6751h-1.2882v-1.2881c0-.3681-.2982-.6663-.6663-.6663-.368 0-.6663.2982-.6663.6663v1.2881h-1.2881c-.3681 0-.6663.2983-.6663.6663 0 .3681.2982.6663.6663.6663h1.2881v1.2882c0 .368.2983.6663.6663.6663.3681 0 .6663-.2983.6663-.6663v-1.2882h1.2882c.368 0 .6662-.2982.6662-.6663 0-.368-.2982-.6663-.6662-.6663z"/><path d="m25.0187 26.3414.9109-.9108c.2602-.2603.2602-.6821 0-.9423-.2603-.2602-.6821-.2602-.9423 0l-.9109.9108-.9108-.9108c-.2603-.2602-.6821-.2602-.9424 0-.2602.2603-.2602.6821 0 .9423l.9109.9108-.9109.9109c-.2602.2603-.2602.6821 0 .9423.1302.1301.3008.1951.4712.1951.1705 0 .3411-.065.4712-.1951l.9109-.9109.9109.9109c.1301.1301.3007.1951.4712.1951.1704 0 .341-.065.4712-.1951.2602-.2603.2602-.6821 0-.9423z"/><path d="m22.5791 36.8818c-.1704 0-.341-.065-.4712-.1951-.2602-.2603-.2602-.6821 0-.9423l3.0205-3.0205c.2603-.2601.6821-.2601.9423 0 .2602.2603.2602.6821 0 .9423l-3.0205 3.0205c-.13.1301-.3006.1951-.4711.1951z"/><path d="m22.7883 33.6706c.3679 0 .6662-.2983.6662-.6663s-.2983-.6663-.6662-.6663c-.368 0-.6663.2983-.6663.6663s.2983.6663.6663.6663z"/><path d="m25.4534 37.0464c.368 0 .6663-.2983.6663-.6663s-.2983-.6663-.6663-.6663-.6663.2983-.6663.6663.2983.6663.6663.6663z"/></g></svg>