<svg fill="none" height="48" viewBox="0 0 48 48" width="48" xmlns="http://www.w3.org/2000/svg"><g fill="#fa541c"><path d="m2 12.8621 20.7841-11.52772c.8039-.445839 1.7806-.445839 2.5844 0l20.7841 11.52772z"/><path d="m43.4876 41.1544h-10.683l2.6652-3.7531h5.3526z"/><path d="m43.4876 16.8624h-10.6829l2.6651 3.7533h5.3526z"/><path d="m15.3478 41.1544h-10.68292l2.6652-3.7531h5.35262z"/><path d="m15.3478 16.8624h-10.68292l2.6652 3.7533h5.35262z"/></g><path d="m24.0762 35.9789c3.8484 0 6.9682-3.1213 6.9682-6.9716s-3.1198-6.9717-6.9682-6.9717c-3.8485 0-6.9683 3.1214-6.9683 6.9717s3.1198 6.9716 6.9683 6.9716z" fill="#ffc81a"/><path d="m24.0763 22.0356c-.456 0-.9011.0452-1.3326.1289 3.2108.6223 5.6357 3.4485 5.6357 6.8428 0 3.3942-2.4249 6.2205-5.6357 6.8428.4314.0836.8766.1288 1.3325.1288 3.8486 0 6.9683-3.1213 6.9683-6.9716 0-3.8504-3.1197-6.9717-6.9682-6.9717z" fill="#ffe475"/><g fill="#22b8cf"><path d="m24.0767 9.82149c1.3247 0 2.3986-1.07441 2.3986-2.39976s-1.0739-2.39976-2.3986-2.39976c-1.3248 0-2.3987 1.07441-2.3987 2.39976s1.0739 2.39976 2.3987 2.39976z"/><path d="m2 12.862h44.1526v1.9998c0 1.1044-.895 1.9998-1.9989 1.9998h-40.15485c-1.1039 0-1.99885-.8953-1.99885-1.9998z"/><path d="m2.8884 41.1533h42.3758c.4907 0 .8884.3979.8884.8889v2.222c0 .4908-.3977.8888-.8884.8888h-42.3758c-.49068-.0001-.8884-.398-.8884-.8889v-2.222c0-.4909.39772-.8888.8884-.8888z"/></g><path d="m24.8862 28.3403h-.1436v-2.3132h.1436c.2974 0 .5486.321.5486.7009 0 .3681.2983.6666.6662.6666.368 0 .6663-.2985.6663-.6666 0-1.1216-.8439-2.0341-1.8811-2.0341h-.1437v-.3686c0-.3681-.2983-.6666-.6663-.6666-.3679 0-.6662.2985-.6662.6666v.3686h-.1436c-1.0373 0-1.8811.9125-1.8811 2.0341v.9116c0 1.1216.8439 2.034 1.8811 2.034h.1436v2.3132h-.1436c-.2973 0-.5486-.321-.5486-.7008 0-.3682-.2983-.6666-.6663-.6666s-.6662.2984-.6662.6666c0 1.1215.8439 2.034 1.8811 2.034h.1436v.3687c0 .3681.2983.6666.6662.6666.3681 0 .6663-.2985.6663-.6666v-.3687h.1437c1.0372 0 1.8811-.9125 1.8811-2.034v-.9116c.0001-1.1216-.8437-2.0341-1.8811-2.0341zm-1.6198.0001c-.2973 0-.5486-.321-.5486-.7008v-.9116c0-.3799.2512-.7009.5486-.7009h.1436v2.3132h-.1436zm2.1685 2.9456c0 .3798-.2512.7008-.5486.7008h-.1436v-2.3133h.1435c.2975 0 .5487.321.5487.7009z" fill="#fff"/><path d="m35.4693 20.6152h5.3526v16.7849h-5.3526z" fill="#fee9d1"/><path d="m7.32959 20.6152h5.35261v16.7849h-5.35261z" fill="#fee9d1"/><g fill="#b3200e"><path d="m25.3686 1.33438c-.8038-.445839-1.7806-.445839-2.5844 0l-.3958.21947 20.3885 11.30835h3.3757z"/><path d="m40.822 37.4013h-2.6651l2.6651 3.7531h2.6652z"/><path d="m40.822 16.8624-2.6651 3.7533h2.6651l2.6652-3.7533z"/><path d="m12.6823 37.4013h-2.6652l2.6652 3.7531h2.6651z"/><path d="m12.6823 16.8624-2.6652 3.7533h2.6652l2.6651-3.7533z"/></g><g fill="#fa541c" opacity=".48"><path d="m38.1569 20.6152h2.6651v16.7849h-2.6651z"/><path d="m10.0171 20.6152h2.6651v16.7849h-2.6651z"/></g><g fill="#116e95"><path d="m24.0763 5.02197c-.4932 0-.9515.1491-1.3326.40436.6427.43049 1.066 1.1634 1.066 1.9954s-.4233 1.56483-1.066 1.99541c.3811.25534.8394.40435 1.3326.40435 1.3247 0 2.3986-1.0744 2.3986-2.39976 0-1.32535-1.0739-2.39976-2.3986-2.39976z"/><path d="m43.4873 12.862v1.9998c0 1.1045-.8949 1.9998-1.9988 1.9998h2.6651c1.1039 0 1.9988-.8953 1.9988-1.9998v-1.9998z"/><path d="m45.2641 41.1533h-2.6651c.4906 0 .8884.3979.8884.8889v2.222c0 .4908-.3978.8888-.8884.8888h2.6651c.4907 0 .8884-.3979.8884-.8888v-2.222c0-.491-.3977-.8889-.8884-.8889z"/></g></svg>