<svg fill="none" height="48" viewBox="0 0 48 48" width="48" xmlns="http://www.w3.org/2000/svg"><g fill="#212b36"><path d="m47.1637 41.9786h-3.0104v-2.8432c0-.4619-.3745-.8363-.8363-.8363h-.944v-15.8883h.944c.4618 0 .8363-.3744.8363-.8363v-2.8431h1.3378c.4618 0 .8362-.3744.8362-.8362v-3.3449h.8363c.4619 0 .8363-.3744.8363-.8363v-4.18121c0-.35045-.2184-.66366-.5473-.78476l-23.1636-8.529523c-.1865-.068686-.3915-.068686-.578 0l-23.163744 8.529523c-.328822.1211-.547256.43442-.547256.78476v4.18121c0 .4619.374427.8363.836272.8363h.836268v3.3449c0 .4618.37443.8362.83628.8362h1.33781v2.8431c0 .4619.37443.8363.83627.8363h.94398v15.8883h-.94398c-.46184 0-.83627.3744-.83627.8363v2.8432h-3.010358c-.461845 0-.836272.3744-.836272.8363v4.1811c0 .4618.374427.8363.836272.8363h46.327428c.4619 0 .8363-.3745.8363-.8363v-4.1811c0-.4619-.3744-.8363-.8363-.8363zm-4.683-2.007v2.007h-8.3621v-2.007zm-13.4634-1.6725h-.944v-15.8883h.944c.4618 0 .8363-.3744.8363-.8363v-2.8431h2.5924v2.8431c0 .4619.3744.8363.8363.8363h.944v15.8883h-.944c-.4619 0-.8363.3744-.8363.8363v2.8432h-2.5924v-2.8432c0-.4619-.3745-.8363-.8363-.8363zm-14.2996 0h-.944v-15.8883h.944c.4619 0 .8363-.3744.8363-.8363v-2.8431h2.5924v2.8431c0 .4619.3745.8363.8363.8363h.944v15.8883h-.944c-.4618 0-.8363.3744-.8363.8363v2.8432h-2.5924v-2.8432c0-.4619-.3744-.8363-.8363-.8363zm5.1012-17.5608v-2.0069h8.3622v2.0069zm6.582 1.6725v15.8883h-4.8018v-15.8883zm-6.582 17.5608h8.3622v2.007h-8.3622zm16.08-1.6725v-15.8883h4.8017v15.8883zm6.5818-17.5608h-8.3621v-2.0069h8.3621zm-39.13561-3.6794v-2.5086h2.86841c.46185 0 .83627-.3744.83627-.8363 0-.4618-.37442-.8362-.83627-.8362h-4.54096v-2.7617l22.32746-8.22159 22.3275 8.22159v2.7617h-35.1683c-.4618 0-.8363.3744-.8363.8362 0 .4619.3745.8363.8363.8363h33.4957v2.5086zm2.17419 3.6794v-2.0069h8.36212v2.0069zm6.58182 1.6725v15.8883h-4.80167v-15.8883zm-6.58182 17.5608h8.36212v2.007h-8.36212zm40.80822 6.1881h-44.65496v-2.5086h44.65496z"/><path d="m7.87815 14.0333c.02118.0513-.02119-.0501 0 0z"/><path d="m8.05876 13.1224c-.2327.2397-.31185.5999-.18061.9109.04203.1018.10401.1932.18061.2721.32961.3199.85356.3203 1.18305 0 .3199-.329.3199-.854 0-1.183-.32916-.3201-.85378-.3196-1.18305 0z"/></g></svg>