<svg fill="none" height="48" viewBox="0 0 48 48" width="48" xmlns="http://www.w3.org/2000/svg" xmlns:xlink="http://www.w3.org/1999/xlink"><clipPath id="a"><path d="m0 0h48v48h-48z"/></clipPath><g clip-path="url(#a)" fill="#212b36"><path d="m41.4145 35.2003c.254-1.3488.2475-2.7337-.0192-4.08l3.664-8.8424c.0003-.0059.0003-.0117 0-.0176.5937-1.6256 1.4638-3.1363 2.572-4.4656.2757-.2912.3866-.7015.2952-1.092l-1.5024-6.488c-.0179-.0678-.0448-.1329-.08-.1936-.0064-.012-.0088-.02641-.0152-.03761s-.0344-.0384-.0504-.0592c-.0328-.04793-.0706-.09219-.1128-.132-.0279-.01957-.057-.03722-.0872-.0528-.0391-.02871-.0806-.05388-.124-.0752-.0603-.02278-.1232-.03809-.1872-.0456-.0184 0-.0344-.012-.0528-.0136-.1534-.01022-.3064.02394-.4408.0984-.012.0064-.0264.0088-.0384.016h-.008l-5.6488 3.52561c-.3421.2118-.5545.5818-.5648.984-.157 1.7273-.612 3.4144-1.3448 4.9864v.0088l-1.8312 4.4264c-.8988-.4778-1.861-.8253-2.8576-1.032.3772-2.6041.5159-5.2371.4144-7.8664 1.4892-1.7868 2.2039-4.0939 1.9856-6.40961-.5-4.6624-4.7136-8.0296-4.8936-8.1712-.2706-.213046-.6471-.2290684-.9348-.039776-.2876.189292-.4219.541422-.3332.874176.412 1.5472.0552 3.18-2.988 6.5376-1.3673 1.32023-1.8007 3.33611-1.0968 5.10161.2691.6753.6547 1.2981 1.1392 1.84-.1936 1.236-.3456 2.4064-.4504 3.5464-.1805 1.8855-.227 3.7815-.1392 5.6736-.7137.3869-1.3819.8525-1.992 1.388l-3.88-16.59201c0-.0168-.016-.0288-.0208-.044-.0131-.05334-.0318-.10511-.056-.1544l-3.9632-7.3192c-.3967-.732581-1.2346-1.109033-2.0457-.9190635s-1.3947.8993465-1.4247 1.7318635l-.3008 8.31601c.0002.06.0069.1198.02.1784v.036l3.9584 16.8936c-.6245.0276-1.2444.1201-1.8496.276l-4.35444-10.516c-.34917-.8039-1.27525-1.1832-2.088-.8552l-6.6552 2.7552c-.81451.34-1.201587 1.2739-.866404 2.0904l5.905604 14.2464c-3.4612.1817-6.1478659 3.0872-6.0585297 6.5521.0893357 3.4648 2.9221697 6.228 6.3881297 6.2311h35.20004c2.2865-.0332 4.3816-1.2836 5.4961-3.2804 1.1146-1.9967 1.0792-4.4364-.0928-6.4-1.1719-1.9636-3.3024-3.1528-5.5889-3.1196zm-.8152-20.7072 3.3536-2.0928-1.1872 2.8672c-.1693.4082.0245.8764.4328 1.0456.4082.1692.8763-.0246 1.0456-.4328l1.1872-2.8672.8888 3.8504c-.951 1.1601-1.7321 2.4495-2.32 3.8296-.8341.3866-1.7919.4067-2.6414.0553-.8495-.3513-1.5133-1.0421-1.8306-1.9049.5618-1.3919.9225-2.8568 1.0712-4.3504zm-1.84 6.2808c.5292.647 1.216 1.1471 1.9944 1.452.6186.2661 1.2841.4064 1.9576.4128.162-.0006.3239-.0105.4848-.0296l-2.5528 6.16c-.7644-1.6854-1.9469-3.1474-3.4352-4.2472zm-10.96-5.7136 4.0192.2456c.0248.7472.016 1.52-.0088 2.3048-1.339.0957-2.6846.0307-4.008-.1936-.1008-.0144-.1992-.0256-.2992-.0392.08-.7536.1776-1.5168.2952-2.3176zm-.3816-6.44241c2.124-2.3432 3.2248-4.1456 3.4808-5.84 1.5267 1.57084 2.5345 3.57244 2.8872 5.7344.168 1.88211-.414 3.75441-1.6192 5.20961-1.5803-.096-3.1432-.192-4.6888-.288-.6642-.6209-1.0462-1.4858-1.0578-2.3949-.0117-.909.3481-1.78347.9962-2.42111zm-.0608 10.35441.232.0304c1.0308.1594 2.0714.2479 3.1144.2648.3312 0 .68-.0264 1.0296-.0536-.0728 1.0296-.192 2.1048-.3432 3.216-.1976-.0104-.3912-.0296-.5896-.0296-1.2079.0022-2.4066.2085-3.5456.6104-.0369-1.347-.0033-2.695.1008-4.0384zm-6.188 9.3552-2.2888-9.7496c-.107-.423-.5332-.6822-.958-.5827s-.6916.521-.5996.9475l2.0568 8.7752c-.5655-.2023-1.1497-.3478-1.744-.4344l-3.5112-14.984c.4918.2239 1.0259.3401 1.5664.3408.0504 0 .104-.0072.1552-.0096l.5656 2.4152c.0609.2827.2697.5105.546.5958s.5772.0148.7869-.1843.2956-.496.2247-.7763l-.5664-2.4168c.5427-.2403 1.0215-.6048 1.3976-1.064l3.5696 15.2632c-.4636.5782-.866 1.2029-1.2008 1.864zm-4.888-17.36c-1.0232.1984-2.0678-.2199-2.6712-1.06961l.1016-2.8176c.2783.05199.5608.07877.844.08.2735.00115.5462-.02919.8128-.0904.5396-.14173 1.0445-.39278 1.4832-.7376l1.3472 2.4864c-.1606 1.03162-.9111 1.87321-1.9176 2.15041zm-2.1912-9.34561c.1089-.02524.2214.02511.2752.1232l1.7152 3.172c-.3095.27991-.6789.48517-1.08.6-.41.07525-.8318.05527-1.2328-.0584l.1304-3.6048c.0043-.11179.083-.20682.192-.232zm-5.78964 15.97841.6112 1.4768-2.96 1.2256c-.35092.1474-.54943.5215-.47467.8947.07475.3732.40207.6421.78267.6429.1051-.0002.20917-.0209.3064-.0608l2.96-1.2264.61204 1.4784-1.48084.6136c-.35293.146-.55338.5212-.47862.8958.07476.3745.40387.644.78582.6434.10483-.0004.2086-.021.3056-.0608l1.48084-.6136.612 1.4784-2.96244 1.228c-.35293.146-.55338.5212-.47862.8958.07476.3745.40387.644.78582.6434.10484-.0003.20863-.0209.3056-.0608l2.96004-1.2256.6472 1.5624c-2.6069 1.1899-4.51853 3.5166-5.18004 6.3048l-5.7984-13.9808zm33.30004 28.8h-35.20004c-2.65097 0-4.8-2.149-4.8-4.8s2.14903-4.8 4.8-4.8c.46354-.0016.92477.0653 1.3688.1984.23987.0725.49984.0283.70237-.1192.20254-.1476.32425-.3815.32883-.632.0569-2.8512 1.70514-5.4305 4.26854-6.68s5.6105-.9588 7.8915.7528c.2015.15.4619.1966.7029.1259.2411-.0708.435-.2507.5235-.4859 1.5629-4.1655 5.8827-6.6156 10.2599-5.8195s7.5575 4.6105 7.5537 9.0595c.0015.9149-.1347 1.8248-.404 2.6992-.0841.272-.0173.5683.1755.7778.1927.2096.4824.3009.7605.2398.3507-.0772.7088-.1164 1.068-.1168 2.6509 0 4.8 2.149 4.8 4.8s-2.1491 4.8-4.8 4.8z"/><path d="m30.948 12.5604c.2511.0009.4881-.1161.64-.316.9988-1.3518 1.3847-3.06059 1.064-4.71044-.0682-.28211-.2839-.50513-.5636-.58277-.2796-.07765-.5794.00226-.7833.20881-.2039.20654-.2799.50732-.1987.78596.1915 1.17234-.0943 2.37254-.7936 3.33284-.1818.2424-.2111.5667-.0755.8377.1355.2711.4125.4423.7155.4423z"/><path d="m29.8961 36.8004c-.5949.0018-1.1816.1386-1.716.4-1.4391-1.9692-4.1263-2.5461-6.2469-1.3411-2.1206 1.2051-3.0003 3.8089-2.0451 6.0531.1257.295.4153.4864.736.4864.1078.0003.2145-.0215.3136-.064.1952-.0831.3494-.2405.4286-.4373s.077-.4171-.0062-.6123c-.1742-.4059-.264-.8431-.264-1.2848 0-1.7673 1.4327-3.2 3.2-3.2 1.2412-.0062 2.3717.7131 2.892 1.84.0173.0261.036.0512.056.0752.0126.0275.0268.0542.0424.08.0144.0176.0352.0256.0512.0424.0375.039.0791.0738.124.104.0399.0308.0828.0576.128.08.0465.0195.0947.0345.144.0448.0492.0129.0996.0207.1504.0232.1039-.0008.2071-.0181.3056-.0512.0213-.0039.0424-.009.0632-.0152.0259-.0168.0508-.0352.0744-.0552.0288-.0128.0568-.0272.084-.0432.4202-.3398.9444-.5251 1.4848-.5248.9354.0015 1.7847.5464 2.176 1.396.1833.4021.6579.5794 1.06.396.4021-.1833.5793-.6579.396-1.06-.6514-1.4199-2.0698-2.3306-3.632-2.332z"/><path d="m14.1473 31.2411c-.1208.0392-2.9472 1.0168-2.9472 3.9592 0 .4418.3582.8.8.8s.8-.3582.8-.8c.0653-1.116.7996-2.0815 1.8576-2.4424.4197-.141.6457-.5955.5048-1.0152-.1409-.4198-.5955-.6458-1.0152-.5048z"/><path d="m25.4057 30.3764c.0635.0161.1288.0242.1944.024.3666-.0004.6861-.25.7752-.6056.3682-1.4939 1.6907-2.5565 3.2288-2.5944.4418-.0011.7991-.3602.798-.802s-.3602-.7991-.802-.798c-2.2738.0302-4.2388 1.5959-4.776 3.8056-.1074.4286.153.863.5816.9704z"/></g></svg>