<svg fill="none" height="64" viewBox="0 0 65 64" width="65" xmlns="http://www.w3.org/2000/svg" xmlns:xlink="http://www.w3.org/1999/xlink"><clipPath id="a"><path d="m.333496 0h64v64h-64z"/></clipPath><g clip-path="url(#a)" fill="#000"><path d="m5.49468 56.7525h26.83882v-2.0649h-26.83882c-1.71022 0-3.09676-1.3866-3.09676-3.0968v-45.41936c0-1.71074 1.38654-3.09676 3.09676-3.09676h45.41942c1.711 0 3.0967 1.38602 3.0967 3.09676v23.74176h2.065v-23.74176c-.0034-2.84916-2.3123-5.15782-5.1617-5.16119h-45.41942c-2.84864.00337-5.157562 2.31203-5.161184 5.16119v45.41936c.003622 2.8492 2.312544 5.1578 5.161184 5.1617z"/><path d="m4.46282 5.13909h2.06416v2.06416h-2.06416z"/><path d="m8.59136 5.13909h2.06494v2.06416h-2.06494z"/><path d="m12.7207 5.13909h2.0646v2.06416h-2.0646z"/><path d="m4.46282 9.269h47.48358v2.0649h-47.48358z"/><path d="m15.0876 13.699-2.622 2.6219c-2.2163-1.4672-5.1842-1.017-6.86621 1.0414-1.68176 2.0583-1.53092 5.0564.34851 6.9356 1.87917 1.8799 4.8776 2.0308 6.9361.3488 2.0582-1.6818 2.5086-4.6502 1.0411-6.866l2.6217-2.622zm-5.46416 10.0199c-1.70996 0-3.0965-1.3863-3.0965-3.0965 0-1.7105 1.38654-3.0965 3.0965-3.0965.46056.0015.91356.1071 1.32676.3091l-2.05612 2.0564 1.45922 1.4598 2.0577-2.0551c.2021.4129.3079.866.3095 1.3263 0 1.7102-1.3861 3.0965-3.09706 3.0965z"/><path d="m17.8819 17.5265h17.548v2.0641h-17.548z"/><path d="m17.8819 21.6548h7.2256v2.0642h-7.2256z"/><path d="m27.1722 21.6548h14.4512v2.0642h-14.4512z"/><path d="m37.4947 17.5265h10.3227v2.0641h-10.3227z"/><path d="m15.0876 26.0863-2.622 2.622c-2.2163-1.4672-5.1842-1.017-6.86621 1.0414-1.68176 2.0585-1.53092 5.0564.34851 6.9361 1.87917 1.8794 4.8776 2.0303 6.9361.3483 2.0582-1.682 2.5086-4.6494 1.0411-6.866l2.6217-2.622zm-5.46416 10.0202c-1.70996 0-3.0965-1.3865-3.0965-3.0967 0-1.7105 1.38654-3.0971 3.0965-3.0971.46056.0018.91356.1077 1.32676.3097l-2.05612 2.057 1.45922 1.4592 2.0577-2.0554c.2021.4132.3079.8663.3095 1.3266 0 1.7102-1.3861 3.0967-3.09706 3.0967z"/><path d="m17.8819 29.9133h17.548v2.0647h-17.548z"/><path d="m17.8819 34.0422h7.2256v2.0645h-7.2256z"/><path d="m27.1722 34.0422h8.2578v2.0645h-8.2578z"/><path d="m37.4947 29.9133h4.1289v2.0647h-4.1289z"/><path d="m15.0876 38.4737-2.622 2.622c-2.2163-1.4673-5.1842-1.0171-6.86621 1.0414-1.68176 2.0585-1.53092 5.0564.34851 6.9361 1.87917 1.8797 4.8776 2.03 6.9361.3483 2.0582-1.682 2.5086-4.6497 1.0411-6.8663l2.6217-2.6217zm-5.46416 10.0202c-1.70996 0-3.0965-1.3865-3.0965-3.0968 0-1.7104 1.38654-3.0967 3.0965-3.0967.46056.0015.91356.1071 1.32676.3094l-2.05612 2.0569 1.45922 1.4593 2.0577-2.0554c.2021.4132.3079.8665.3095 1.3265 0 1.7103-1.3861 3.0968-3.09706 3.0968z"/><path d="m17.8819 42.301h13.4192v2.065h-13.4192z"/><path d="m17.8819 46.4296h7.2256v2.0644h-7.2256z"/><path d="m27.1722 46.4296h4.1289v2.0644h-4.1289z"/><path d="m48.85 62.946c8.5519 0 15.4835-6.933 15.4835-15.4841 0-8.5519-6.9316-15.4841-15.4835-15.4841s-15.4841 6.9322-15.4841 15.4841c.0101 8.5472 6.9364 15.4737 15.4841 15.4841zm0-28.9035c7.4109 0 13.4194 6.008 13.4194 13.4194s-6.0085 13.4191-13.4194 13.4191c-7.4116 0-13.4199-6.0077-13.4199-13.4191.0088-7.4078 6.0116-13.4112 13.4199-13.4194z"/><path d="m42.5531 48.0322-1.8479.9226 2.0647 4.1291c.148.2971.4305.5048.7583.5579.0533.0082.1066.0126.1602.0134.2735 0 .5361-.1089.7301-.3025l12.3866-12.387-1.4593-1.4598-11.3749 11.3744z"/></g></svg>