<svg fill="none" height="48" viewBox="0 0 48 48" width="48" xmlns="http://www.w3.org/2000/svg"><g fill="#212b36"><path d="m34.3125 12.75h-6.0818c-.5177 0-.9375.4197-.9375.9375s.4198.9375.9375.9375h5.1443v18.75h-18.75v-18.75h5.1682c.5176 0 .9375-.4197.9375-.9375s-.4199-.9375-.9375-.9375h-6.1057c-.5177 0-.9375.4197-.9375.9375v20.625c0 .5177.4198.9375.9375.9375h20.625c.5177 0 .9375-.4198.9375-.9375v-20.625c0-.5178-.4198-.9375-.9375-.9375z"/><path d="m16.875 17.8125v4.125c0 .5178.4198.9375.9375.9375h4.125c.5177 0 .9375-.4197.9375-.9375v-4.125c0-.5178-.4198-.9375-.9375-.9375h-4.125c-.5177 0-.9375.4197-.9375.9375zm1.875.9375h2.25v2.25h-2.25z"/><path d="m26.0625 18.75h4.125c.5177 0 .9375-.4197.9375-.9375s-.4198-.9375-.9375-.9375h-4.125c-.5177 0-.9375.4197-.9375.9375s.4198.9375.9375.9375z"/><path d="m26.0625 22.875h4.125c.5177 0 .9375-.4197.9375-.9375s-.4198-.9375-.9375-.9375h-4.125c-.5177 0-.9375.4197-.9375.9375s.4198.9375.9375.9375z"/><path d="m26.0625 31.125h4.125c.5177 0 .9375-.4198.9375-.9375v-4.125c0-.5177-.4198-.9375-.9375-.9375s-.9375.4198-.9375.9375v3.1875h-3.1875c-.5177 0-.9375.4198-.9375.9375s.4198.9375.9375.9375z"/><path d="m26.0625 27c.2466 0 .4884-.1003.6627-.2748.1745-.1743.2748-.4161.2748-.6627s-.1003-.4884-.2748-.6628c-.1743-.1744-.4161-.2747-.6627-.2747s-.4884.1002-.6628.2747-.2747.4162-.2747.6628.1002.4884.2747.6627c.1744.1745.4162.2748.6628.2748z"/><path d="m21.9375 29.25h-4.125c-.5177 0-.9375.4198-.9375.9375s.4198.9375.9375.9375h4.125c.5177 0 .9375-.4198.9375-.9375s-.4198-.9375-.9375-.9375z"/><path d="m21.9375 25.125h-4.125c-.5177 0-.9375.4198-.9375.9375s.4198.9375.9375.9375h4.125c.5177 0 .9375-.4198.9375-.9375s-.4198-.9375-.9375-.9375z"/><path d="m47.0625 24.9375c.5177 0 .9375-.4198.9375-.9375 0-.5178-.4198-.9375-.9375-.9375h-7.3125v-3.375h3.5625c.5177 0 .9375-.4197.9375-.9375s-.4198-.9375-.9375-.9375h-3.5625v-3.375h7.3125c.5177 0 .9375-.4197.9375-.9375s-.4198-.9375-.9375-.9375h-7.3684c-.327-2.1923-2.0643-3.92962-4.2566-4.25662v-7.36838c0-.517781-.4198-.9375-.9375-.9375s-.9375.419719-.9375.9375v7.3125h-3.375v-3.5625c0-.51778-.4198-.9375-.9375-.9375s-.9375.41972-.9375.9375v3.5625h-3.375v-7.3125c0-.517781-.4198-.9375-.9375-.9375s-.9375.419719-.9375.9375v7.3125h-3.375v-3.5625c0-.51778-.4198-.9375-.9375-.9375s-.9375.41972-.9375.9375v3.5625h-3.375v-7.3125c0-.517781-.4198-.9375-.9375-.9375s-.9375.419719-.9375.9375v7.36838c-2.1923.327-3.92962 2.06432-4.25662 4.25662h-7.36838c-.517687 0-.9375.4197-.9375.9375s.419813.9375.9375.9375h7.3125v3.375h-3.5625c-.51769 0-.9375.4197-.9375.9375s.41981.9375.9375.9375h3.5625v3.375h-7.3125c-.517687 0-.9375.4197-.9375.9375 0 .5177.419813.9375.9375.9375h7.3125v3.375h-3.5625c-.51769 0-.9375.4198-.9375.9375s.41981.9375.9375.9375h3.5625v3.375h-7.3125c-.517687 0-.9375.4198-.9375.9375s.419813.9375.9375.9375h7.36838c.327 2.1923 2.06432 3.9296 4.25662 4.2566v7.3684c0 .5177.4198.9375.9375.9375s.9375-.4198.9375-.9375v-7.3125h3.375v3.5625c0 .5177.4198.9375.9375.9375s.9375-.4198.9375-.9375v-3.5625h3.375v7.3125c0 .5177.4198.9375.9375.9375s.9375-.4198.9375-.9375v-7.3125h3.375v3.5625c0 .5177.4198.9375.9375.9375s.9375-.4198.9375-.9375v-3.5625h3.375v7.3125c0 .5177.4198.9375.9375.9375s.9375-.4198.9375-.9375v-7.3684c2.1922-.327 3.9296-2.0643 4.2566-4.2566h7.3684c.5177 0 .9375-.4198.9375-.9375s-.4198-.9375-.9375-.9375h-7.3125v-3.375h3.5625c.5177 0 .9375-.4198.9375-.9375s-.4198-.9375-.9375-.9375h-3.5625v-3.375zm-9.1875 9.75c0 1.7576-1.4299 3.1875-3.1875 3.1875h-21.375c-1.7576 0-3.1875-1.4299-3.1875-3.1875v-21.375c0-1.7576 1.4299-3.1875 3.1875-3.1875h21.375c1.7576 0 3.1875 1.4299 3.1875 3.1875z"/><path d="m24.0122 14.625c.2466 0 .4884-.1003.6628-.2747.1743-.1744.2747-.4162.2747-.6628s-.1003-.4884-.2747-.6628-.4162-.2747-.6628-.2747c-.2475 0-.4885.1003-.6628.2747-.1753.1744-.2747.4162-.2747.6628s.0994.4884.2747.6628c.1743.1744.4153.2747.6628.2747z"/></g></svg>