<svg fill="none" height="48" viewBox="0 0 48 48" width="48" xmlns="http://www.w3.org/2000/svg" xmlns:xlink="http://www.w3.org/1999/xlink"><clipPath id="a"><path d="m0 0h48v48h-48z"/></clipPath><g clip-path="url(#a)" fill="#212b36"><path d="m38.9537 41.8065-1.7922-5.3776c-.6264-1.8774-2.2243-3.2632-4.1722-3.6178l-5.1739-.9414v-.4011c.9004-.5225 1.6839-1.2216 2.3079-2.0492h1.5631c1.2805 0 2.3225-1.0421 2.3225-2.3226v-9.2903c0-5.5495-4.5151-10.06456-10.0645-10.06456s-10.0645 4.51506-10.0645 10.06456v5.4193c0 1.4927 1.0614 2.7414 2.4689 3.0325.4343 2.2251 1.8248 4.1079 3.7247 5.2103v.4011l-5.1747.9414c-1.9471.3546-3.5459 1.7404-4.1714 3.6178l-.3097.9298-2.63688-2.6369c-.30194-.3019-.30194-.7935 0-1.0955l3.05808-3.0573-5.73989-5.7398-3.456 3.456c-1.023484 1.0234-1.5870971 2.3845-1.5870971 3.8322 0 1.4478.5636131 2.808 1.5870971 3.8315l10.46319 10.4632c1.0235 1.0235 2.3846 1.5879 3.8323 1.5879s2.808-.5644 3.8075-1.5646l3.7711-3.4553-1.176-1.1736zm-6.4931-14.7097c0 .4273-.3477.7742-.7742.7742h-.6511c.2245-.5118.3948-1.0514.5047-1.6127.3314-.0689.6364-.2005.9206-.3662zm-.7742-2.5378v-2.6664c.4606.2687.7742.7626.7742 1.3332s-.3136 1.0645-.7742 1.3332zm-15.4839 0c-.4607-.2687-.7742-.7626-.7742-1.3332s.3135-1.0645.7742-1.3332zm0-5.2042v.8842c-.2756.072-.5342.1804-.7742.3205v-2.753c0-4.6955 3.8206-8.51618 8.5161-8.51618s8.5162 3.82068 8.5162 8.51618v2.753c-.24-.1401-.4986-.2493-.7742-.3205v-.8842h-.7742c-2.2893 0-4.4416-.8918-6.0612-2.5107l-.9066-.9066-.9066.9066c-1.6196 1.6189-3.7718 2.5107-6.0611 2.5107zm1.5484 5.4194v-3.9004c2.3249-.175 4.4926-1.1342 6.1935-2.7515 1.7009 1.6173 3.8687 2.5773 6.1936 2.7515v3.9004c0 1.1288-.3082 2.1848-.8377 3.0968h-5.3559v1.5484h4.0831c-1.0916.9607-2.5184 1.5483-4.0831 1.5483-3.4149 0-6.1935-2.7785-6.1935-6.1935zm8.5161 7.385v.0364l-2.3226 2.3226-2.3226-2.3226v-.0364c.734.2307 1.5136.3569 2.3226.3569.8091 0 1.5887-.1262 2.3226-.3569zm-14.0717 4.759c.4467-1.3409 1.5886-2.3311 2.9798-2.585l5.4117-.9833 3.3576 3.3577 3.3569-3.3569 5.4109.9832c1.3912.254 2.5331 1.2434 2.9798 2.5851l1.1141 3.3391h-16.0134l-3.0155-3.0155-3.3507 3.031c-.2919.2934-.8021.2934-1.0947 0l-1.6909-1.6909zm-7.09706-9.8996 3.55045 3.5504-.84078.8408-3.55045-3.5504zm13.57546 18.3004c-.7308.7293-1.7032 1.1326-2.7368 1.1326-1.0335 0-2.0059-.4033-2.7375-1.1342l-10.46323-10.4624c-.73084-.7309-1.13342-1.7033-1.13342-2.7368 0-1.0343.40258-2.0067 1.13342-2.7376l.42581-.4258 3.55045 3.5505-.02787.0279c-.90504.9058-.90504 2.3791 0 3.2849l5.55174 5.5517c.439.4382 1.0219.6805 1.6428.6805s1.2039-.2415 1.6142-.6534l.0581-.0519 3.5667 3.5667zm1.5871-1.4555-3.559-3.559 1.0228-.9244 3.5527 3.5528z"/><path d="m45.6219 0h-10.8387c-1.2805 0-2.3226 1.04206-2.3226 2.32258v6.19355c0 1.28052 1.0421 2.32257 2.3226 2.32257h2.0679l-.8005 4.6692 7.4709-4.6692h2.1004c1.2805 0 2.3226-1.04205 2.3226-2.32257v-6.19355c0-1.28052-1.0421-2.32258-2.3226-2.32258zm.7742 8.51613c0 .42658-.3476.77419-.7742.77419h-2.5448l-4.9169 3.07278.5273-3.07278h-3.9043c-.4266 0-.7742-.34761-.7742-.77419v-6.19355c0-.42658.3476-.77419.7742-.77419h10.8387c.4266 0 .7742.34761.7742.77419z"/><path d="m44.8477 3.09677h-9.2903v1.54839h9.2903z"/><path d="m41.751 6.19355h-6.1936v1.54839h6.1936z"/><path d="m44.8477 6.19355h-1.5484v1.54839h1.5484z"/><path d="m23.9445 2.32258c-10.1156 0-18.8292 6.99716-21.09449 16.75742l-1.46709-2.4457-1.3277442.7967 2.7212942 4.5344 4.53445-2.7213-.79665-1.3277-2.09806 1.2588c2.19406-8.9287 10.22319-15.30423 19.52829-15.30423 2.0338 0 4.0405.30193 5.9644.89806l.4583-1.47871c-2.0725-.64258-4.2333-.96774-6.4227-.96774z"/><path d="m47.5681 17.1421-4.5344-2.7213-2.7205 4.5353 1.3277.7966 1.3549-2.2583c.713 2.0864 1.0776 4.2689 1.0776 6.5055 0 4.6042-1.5948 9.1053-4.4895 12.6736l1.2023.9755c3.1185-3.8431 4.8356-8.6911 4.8356-13.6491 0-2.3682-.3817-4.6807-1.1257-6.8949l2.2754 1.3649z"/></g></svg>