<svg fill="none" height="64" viewBox="0 0 65 64" width="65" xmlns="http://www.w3.org/2000/svg"><g fill="#000"><path d="m54.3741 28.2929c-.0928-.0929-.2031-.1665-.3244-.2168-.1213-.0502-.2514-.0761-.3827-.0761h-14c-1.3256.0015-2.5965.5288-3.5339 1.4661-.9374.9374-1.4646 2.2083-1.4661 3.5339v24c.0015 1.3256.5287 2.5965 1.4661 3.5339.9374.9373 2.2083 1.4646 3.5339 1.4661h18c1.3256-.0015 2.5965-.5288 3.5339-1.4661.9373-.9374 1.4646-2.2083 1.4661-3.5339v-20c0-.1313-.0259-.2614-.0761-.3827-.0503-.1213-.1239-.2316-.2168-.3244zm.2929 3.1212 4.5859 4.5859h-1.5859c-.7954-.0009-1.5579-.3173-2.1203-.8797s-.8788-1.3249-.8797-2.1203zm6 25.5859c-.0009.7954-.3173 1.5579-.8797 2.1203s-1.3249.8788-2.1203.8797h-18c-.7954-.0009-1.5579-.3173-2.1203-.8797s-.8788-1.3249-.8797-2.1203v-24c.0009-.7954.3173-1.5579.8797-2.1203s1.3249-.8788 2.1203-.8797h13v3c.0015 1.3256.5287 2.5965 1.4661 3.5339.9374.9373 2.2083 1.4646 3.5339 1.4661h3z"/><path d="m55.667 42h-8c-.2652 0-.5196.1054-.7071.2929-.1876.1875-.2929.4419-.2929.7071s.1053.5196.2929.7071c.1875.1875.4419.2929.7071.2929h8c.2652 0 .5196-.1054.7071-.2929s.2929-.4419.2929-.7071-.1054-.5196-.2929-.7071-.4419-.2929-.7071-.2929z"/><path d="m41.667 50h8c.2652 0 .5196-.1054.7071-.2929s.2929-.4419.2929-.7071-.1054-.5196-.2929-.7071-.4419-.2929-.7071-.2929h-8c-.2652 0-.5196.1054-.7071.2929-.1876.1875-.2929.4419-.2929.7071s.1053.5196.2929.7071c.1875.1875.4419.2929.7071.2929z"/><path d="m55.667 54h-6c-.2652 0-.5196.1054-.7071.2929-.1876.1875-.2929.4419-.2929.7071s.1053.5196.2929.7071c.1875.1875.4419.2929.7071.2929h6c.2652 0 .5196-.1054.7071-.2929s.2929-.4419.2929-.7071-.1054-.5196-.2929-.7071-.4419-.2929-.7071-.2929z"/><path d="m41.667 44h2c.2652 0 .5196-.1054.7071-.2929s.2929-.4419.2929-.7071-.1054-.5196-.2929-.7071-.4419-.2929-.7071-.2929h-2c-.2652 0-.5196.1054-.7071.2929-.1876.1875-.2929.4419-.2929.7071s.1053.5196.2929.7071c.1875.1875.4419.2929.7071.2929z"/><path d="m55.667 48h-2c-.2652 0-.5196.1054-.7071.2929-.1876.1875-.2929.4419-.2929.7071s.1053.5196.2929.7071c.1875.1875.4419.2929.7071.2929h2c.2652 0 .5196-.1054.7071-.2929s.2929-.4419.2929-.7071-.1054-.5196-.2929-.7071-.4419-.2929-.7071-.2929z"/><path d="m45.667 54h-4c-.2652 0-.5196.1054-.7071.2929-.1876.1875-.2929.4419-.2929.7071s.1053.5196.2929.7071c.1875.1875.4419.2929.7071.2929h4c.2652 0 .5196-.1054.7071-.2929s.2929-.4419.2929-.7071-.1054-.5196-.2929-.7071-.4419-.2929-.7071-.2929z"/><path d="m41.667 38h4c.2652 0 .5196-.1054.7071-.2929s.2929-.4419.2929-.7071-.1054-.5196-.2929-.7071-.4419-.2929-.7071-.2929h-4c-.2652 0-.5196.1054-.7071.2929-.1876.1875-.2929.4419-.2929.7071s.1053.5196.2929.7071c.1875.1875.4419.2929.7071.2929z"/><path d="m7.66699 36h18.00001c1.3256-.0015 2.5965-.5288 3.5339-1.4661.9373-.9374 1.4646-2.2083 1.4661-3.5339v-20c0-.1313-.0259-.2614-.0761-.3827-.0503-.1213-.1239-.2316-.2168-.3244l-8-8.00002c-.0928-.09286-.2031-.16652-.3244-.21677s-.2514-.07611-.3827-.07611h-14.00001c-1.32562.00149-2.59653.52875-3.53389 1.46611s-1.46462 2.20826-1.46611 3.53389v24c.00149 1.3256.52875 2.5965 1.46611 3.5339.93736.9373 2.20827 1.4646 3.53389 1.4661zm15.00001-30.58588 4.5859 4.58588h-1.5859c-.7954-.00093-1.5579-.31729-2.1203-.8797s-.8788-1.32493-.8797-2.1203zm-18.00001 1.58588c.00093-.79537.3173-1.55789.8797-2.1203.56241-.56241 1.32494-.87877 2.1203-.8797h13.00001v3c.0015 1.32563.5287 2.59653 1.4661 3.5339.9374.9373 2.2083 1.4646 3.5339 1.4661h3v19c-.0009.7954-.3173 1.5579-.8797 2.1203s-1.3249.8788-2.1203.8797h-18.00001c-.79536-.0009-1.55789-.3173-2.1203-.8797-.5624-.5624-.87877-1.3249-.8797-2.1203z"/><path d="m15.667 18h8c.2652 0 .5196-.1054.7071-.2929s.2929-.4419.2929-.7071-.1054-.5196-.2929-.7071-.4419-.2929-.7071-.2929h-8c-.2652 0-.5196.1054-.7071.2929-.1876.1875-.2929.4419-.2929.7071s.1053.5196.2929.7071c.1875.1875.4419.2929.7071.2929z"/><path d="m9.66699 24h8.00001c.2652 0 .5196-.1054.7071-.2929s.2929-.4419.2929-.7071-.1054-.5196-.2929-.7071-.4419-.2929-.7071-.2929h-8.00001c-.26521 0-.51957.1054-.7071.2929-.18754.1875-.2929.4419-.2929.7071s.10536.5196.2929.7071c.18753.1875.44189.2929.7071.2929z"/><path d="m23.667 28h-6c-.2652 0-.5196.1054-.7071.2929-.1876.1875-.2929.4419-.2929.7071s.1053.5196.2929.7071c.1875.1875.4419.2929.7071.2929h6c.2652 0 .5196-.1054.7071-.2929s.2929-.4419.2929-.7071-.1054-.5196-.2929-.7071-.4419-.2929-.7071-.2929z"/><path d="m9.66699 18h2.00001c.2652 0 .5196-.1054.7071-.2929s.2929-.4419.2929-.7071-.1054-.5196-.2929-.7071-.4419-.2929-.7071-.2929h-2.00001c-.26521 0-.51957.1054-.7071.2929-.18754.1875-.2929.4419-.2929.7071s.10536.5196.2929.7071c.18753.1875.44189.2929.7071.2929z"/><path d="m23.667 22h-2c-.2652 0-.5196.1054-.7071.2929-.1876.1875-.2929.4419-.2929.7071s.1053.5196.2929.7071c.1875.1875.4419.2929.7071.2929h2c.2652 0 .5196-.1054.7071-.2929s.2929-.4419.2929-.7071-.1054-.5196-.2929-.7071-.4419-.2929-.7071-.2929z"/><path d="m9.66699 30h4.00001c.2652 0 .5196-.1054.7071-.2929s.2929-.4419.2929-.7071-.1054-.5196-.2929-.7071-.4419-.2929-.7071-.2929h-4.00001c-.26521 0-.51957.1054-.7071.2929-.18754.1875-.2929.4419-.2929.7071s.10536.5196.2929.7071c.18753.1875.44189.2929.7071.2929z"/><path d="m9.66699 12h4.00001c.2652 0 .5196-.1054.7071-.2929s.2929-.4419.2929-.7071-.1054-.5196-.2929-.7071-.4419-.2929-.7071-.2929h-4.00001c-.26521 0-.51957.1054-.7071.2929-.18754.1875-.2929.4419-.2929.7071s.10536.5196.2929.7071c.18753.1875.44189.2929.7071.2929z"/><path d="m29.667 51.9997h-12c-1.8559-.002-3.6351-.7402-4.9474-2.0525s-2.0505-3.0916-2.0526-4.9475v-1.5857l2.2929 2.2929c.0929.0928.2031.1665.3244.2167.1214.0503.2514.0762.3827.0762.1314 0 .2614-.0259.3827-.0762.1213-.0502.2316-.1239.3245-.2167.0928-.0929.1665-.2031.2167-.3245.0503-.1213.0762-.2513.0762-.3827 0-.1313-.0259-.2613-.0762-.3827-.0502-.1213-.1239-.2315-.2167-.3244l-4-4c-.0929-.0929-.2032-.1665-.3245-.2168-.12131-.0502-.25135-.0761-.38267-.0761-.13133 0-.26137.0259-.3827.0761-.12133.0503-.23157.1239-.32443.2168l-4 4c-.18754.1875-.2929.4419-.2929.7071 0 .2653.10536.5196.2929.7072.18754.1875.4419.2929.70713.2929.26522 0 .51958-.1054.70712-.2929l2.29288-2.2929v1.5857c.00268 2.3862.95175 4.6738 2.63897 6.361 1.6873 1.6873 3.9749 2.6364 6.361 2.639h12c.2652 0 .5196-.1053.7071-.2929.1876-.1875.2929-.4419.2929-.7071s-.1053-.5195-.2929-.7071c-.1875-.1875-.4419-.2929-.7071-.2929z"/><path d="m60.3741 18.2929c-.0928-.0929-.2031-.1666-.3244-.2168-.1213-.0503-.2514-.0761-.3827-.0761s-.2614.0258-.3827.0761c-.1213.0502-.2316.1239-.3244.2168l-2.2929 2.2929v-1.5858c-.0027-2.3861-.9518-4.6738-2.639-6.361-1.6873-1.6872-3.9749-2.6363-6.361-2.639h-12c-.2652 0-.5196.1054-.7071.2929-.1876.1875-.2929.4419-.2929.7071s.1053.5196.2929.7071c.1875.1875.4419.2929.7071.2929h12c1.8559.0021 3.6351.7403 4.9474 2.0526s2.0505 3.0915 2.0526 4.9474v1.5858l-2.2929-2.2929c-.1875-.1876-.4419-.2929-.7071-.2929s-.5196.1053-.7071.2929c-.1876.1875-.2929.4419-.2929.7071s.1053.5196.2929.7071l4 4c.0928.0929.2031.1666.3244.2168.1213.0503.2514.0761.3827.0761s.2614-.0258.3827-.0761c.1213-.0502.2316-.1239.3244-.2168l4-4c.0929-.0928.1665-.2031.2168-.3244s.0761-.2514.0761-.3827-.0258-.2614-.0761-.3827-.1239-.2316-.2168-.3244z"/></g></svg>