<svg height="24" viewBox="0 0 24 24" width="24" xmlns="http://www.w3.org/2000/svg"><g fill="none" fill-rule="evenodd"><path d="m0 0h24v24h-24z"/><path d="m18.3331312 8.61523901c1.434711-1.09261014 2.0199086-2.99484347 1.4527893-4.72241179-.5671193-1.72756833-2.1593012-2.89282722-3.95269-2.89282722h-6.66640184c-1.79338879 0-3.38557072 1.16525889-3.95269004 2.89282722-.56711933 1.72756832.01807833 3.62980165 1.45278935 4.72241179-1.04914933.79898403-1.66660045 2.05291059-1.66660045 3.38455069 0 1.33164.61745112 2.5855666 1.66660045 3.3845507-1.56747255 1.1937152-2.10405173 3.3351192-1.28903986 5.1443575.81501186 1.8092383 2.76138073 2.7974152 4.67581899 2.3739262 1.9144382-.4234889 3.2796227-2.1442077 3.2796227-4.1337331v-3.3845506c1.840876 1.4019267 4.4524446 1.023098 5.8331016-.8461377s1.0075758-4.5210369-.8333002-5.92296369zm0-3.38455067c0 1.40192679-1.1192437 2.538413-2.4999007 2.538413h-2.4999007v-5.076826h2.4999007c1.380657 0 2.4999007 1.13648621 2.4999007 2.538413zm-11.66620323 0c0-1.40192679 1.11924366-2.538413 2.49990069-2.538413h2.49990064v5.076826h-2.49990064c-1.38065703 0-2.49990069-1.13648621-2.49990069-2.538413zm2.49990069 4.23068834h2.49990064v2.53841302 2.538413h-2.49990064c-1.38065703 0-2.49990069-1.1364862-2.49990069-2.538413s1.11924366-2.53841302 2.49990069-2.53841302zm2.49990064 9.30751432c0 1.4019268-1.1192436 2.538413-2.49990064 2.538413-1.38065703 0-2.49990069-1.1364862-2.49990069-2.538413s1.11924366-2.538413 2.49990069-2.538413h2.49990064zm4.1665012-4.2306883c-1.380657 0-2.4999007-1.1364862-2.4999007-2.538413s1.1192437-2.53841302 2.4999007-2.53841302 2.4999007 1.13648622 2.4999007 2.53841302-1.1192437 2.538413-2.4999007 2.538413z" fill="#000" fill-rule="nonzero"/></g></svg>