<svg fill="none" height="97" viewBox="0 0 96 97" width="96" xmlns="http://www.w3.org/2000/svg" xmlns:xlink="http://www.w3.org/1999/xlink"><linearGradient id="a"><stop offset="0" stop-color="#fdab76"/><stop offset="1" stop-color="#fa541c"/></linearGradient><linearGradient id="b" gradientUnits="userSpaceOnUse" x1="0" x2="95.9998" xlink:href="#a" y1=".5" y2="96.4998"/><linearGradient id="c" gradientUnits="userSpaceOnUse" x1="25" x2="59.9449" xlink:href="#a" y1="42.332" y2="86.9838"/><clipPath id="d"><path d="m0 .5h96v96h-96z"/></clipPath><g clip-path="url(#d)"><path d="m47.9999 96.4998c26.5096 0 47.9999-21.4903 47.9999-47.9999s-21.4903-47.9999-47.9999-47.9999-47.9999 21.4903-47.9999 47.9999 21.4903 47.9999 47.9999 47.9999z" fill="url(#b)" opacity=".08"/><path d="m62.9998 44.5h-5.5237v-11.5775c0-5.024-4.251-9.1112-9.476-9.1112s-9.4762 4.0874-9.4762 9.1112v11.5775h-5.5239v-11.5775c0-7.9526 6.729-14.4225 14.9999-14.4225 8.271 0 15.0001 6.4699 15.0001 14.4225v11.5775z" fill="#454f5b"/><path d="m60.5352 78.332h-25.0704c-5.7555 0-10.4648-4.6721-10.4648-10.3825v-20.6261c0-2.7452 2.264-4.9914 5.0309-4.9914h35.9382c2.7669 0 5.0309 2.2462 5.0309 4.9914v20.6261c-.0002 5.7104-4.7093 10.3825-10.4648 10.3825z" fill="url(#c)"/><path d="m64 53.332h-32c-1.1046 0-2 .8955-2 2v10c0 1.1046.8954 2 2 2h32c1.1046 0 2-.8954 2-2v-10c0-1.1045-.8954-2-2-2z" fill="#b195fe"/><path clip-rule="evenodd" d="m33 54.2539h30c1.1046 0 2 .8954 2 2v8c0 1.1046-.8954 2-2 2h-30c-1.1046 0-2-.8954-2-2v-8c0-1.1046.8954-2 2-2zm8.4711 4.5973-.7623-1.1019-1.8032 1.2475v-2.1926h-1.34v2.1926l-1.8033-1.2475-.7623 1.1019 2.0579 1.4239-2.0579 1.424.7623 1.1019 1.8033-1.2475v2.1926h1.34v-2.1926l1.8032 1.2475.7623-1.1019-2.058-1.424zm9.7647 0-.7626-1.1019-1.803 1.2475v-2.1926h-1.3402v2.1926l-1.803-1.2475-.7626 1.1019 2.058 1.4239-2.058 1.424.7626 1.1019 1.803-1.2475v2.1926h1.3402v-2.1926l1.803 1.2475.7626-1.1019-2.058-1.424zm9.0017-1.1019.7625 1.1019-2.058 1.4239 2.058 1.424-.7625 1.1019-1.8031-1.2475v2.1926h-1.34v-2.1926l-1.8032 1.2475-.7624-1.1019 2.058-1.424-2.058-1.4239.7624-1.1019 1.8032 1.2475v-2.1926h1.34v2.1926z" fill="#1c0f79" fill-rule="evenodd"/></g></svg>