<svg fill="none" height="64" viewBox="0 0 64 64" width="64" xmlns="http://www.w3.org/2000/svg"><g fill="#212b36"><path d="m37 54h-2v-9.8c0-.2652-.1054-.5195-.2929-.7071-.1875-.1875-.4419-.2929-.7071-.2929s-.5196.1054-.7071.2929c-.1875.1876-.2929.4419-.2929.7071v9.8h-26v-20h8.32c.2652 0 .5196-.1053.7071-.2929.1875-.1875.2929-.4419.2929-.7071s-.1054-.5195-.2929-.7071c-.1875-.1875-.4419-.2929-.7071-.2929h-9.32c-.26522 0-.51957.1054-.70711.2929-.18753.1876-.29289.4419-.29289.7071v21h-2c-.26522 0-.51957.1054-.70711.2929-.18753.1876-.29289.4419-.29289.7071v2c0 1.3261.52678 2.5979 1.46447 3.5356.93768.9376 2.20945 1.4644 3.53553 1.4644h26c1.3261 0 2.5979-.5268 3.5355-1.4644.9377-.9377 1.4645-2.2095 1.4645-3.5356v-2c0-.2652-.1054-.5195-.2929-.7071-.1875-.1875-.4419-.2929-.7071-.2929zm-1 3c0 .7957-.3161 1.5587-.8787 2.1213-.5626.5627-1.3257.8787-2.1213.8787h-2v-1c0-.2652-.1054-.5195-.2929-.7071-.1875-.1875-.4419-.2929-.7071-.2929s-.5196.1054-.7071.2929c-.1875.1876-.2929.4419-.2929.7071v1h-18v-1c0-.2652-.1054-.5195-.2929-.7071-.1875-.1875-.4419-.2929-.7071-.2929-.26522 0-.51957.1054-.70711.2929-.18753.1876-.29289.4419-.29289.7071v1h-2c-.79565 0-1.55871-.316-2.12132-.8787-.56261-.5626-.87868-1.3256-.87868-2.1213v-1h32z"/><path d="m54 8.00003h2c.2652 0 .5196-.10536.7071-.29289.1875-.18754.2929-.44189.2929-.70711 0-.26521-.1054-.51957-.2929-.7071-.1875-.18754-.4419-.2929-.7071-.2929h-2c-.7956 0-1.5587.31607-2.1213.87868s-.8787 1.32567-.8787 2.12132v.99997h-1c-.2652 0-.5196.1054-.7071.2929-.1875.1876-.2929.4419-.2929.7071s.1054.5196.2929.7071c.1875.1876.4419.2929.7071.2929h1v3c0 .2652.1054.5196.2929.7071.1875.1876.4419.2929.7071.2929s.5196-.1053.7071-.2929c.1875-.1875.2929-.4419.2929-.7071v-3h1c.2652 0 .5196-.1053.7071-.2929.1875-.1875.2929-.4419.2929-.7071s-.1054-.5195-.2929-.7071c-.1875-.1875-.4419-.2929-.7071-.2929h-1v-.99997c0-.26521.1054-.51957.2929-.7071.1875-.18754.4419-.2929.7071-.2929z"/><path d="m59 2.00003h-12c-.7956 0-1.5587.31607-2.1213.87868s-.8787 1.32567-.8787 2.12132v2c0 .26522.1054.51957.2929.70711.1875.18753.4419.29289.7071.29289s.5196-.10536.7071-.29289c.1875-.18754.2929-.44189.2929-.70711v-2c0-.26521.1054-.51957.2929-.7071.1875-.18754.4419-.2929.7071-.2929h12c.2652 0 .5196.10536.7071.2929.1875.18753.2929.44189.2929.7071v11.99997c0 .2652-.1054.5196-.2929.7071-.1875.1876-.4419.2929-.7071.2929h-12c-.2652 0-.5196-.1053-.7071-.2929-.1875-.1875-.2929-.4419-.2929-.7071v-6c0-.2652-.1054-.5195-.2929-.7071-.1875-.1875-.4419-.2929-.7071-.2929s-.5196.1054-.7071.2929c-.1875.1876-.2929.4419-.2929.7071v6c0 .7957.3161 1.5587.8787 2.1214.5626.5626 1.3257.8786 2.1213.8786h12c.7956 0 1.5587-.316 2.1213-.8786.5626-.5627.8787-1.3257.8787-2.1214v-11.99997c0-.79565-.3161-1.55871-.8787-2.12132s-1.3257-.87868-2.1213-.87868z"/><path d="m49 42c0 .7912.2346 1.5645.6741 2.2223s1.0643 1.1705 1.7952 1.4733c.7309.3027 1.5351.3819 2.3111.2276.7759-.1544 1.4886-.5353 2.048-1.0947s.9404-1.2722 1.0948-2.0481c.1543-.7759.0751-1.5802-.2277-2.3111-.3027-.7309-.8154-1.3556-1.4732-1.7951-.6578-.4396-1.4312-.6742-2.2223-.6742-1.0609 0-2.0783.4215-2.8284 1.1716-.7502.7502-1.1716 1.7676-1.1716 2.8284zm6 0c0 .3956-.1173.7823-.3371 1.1112-.2197.3289-.5321.5852-.8975.7366-.3655.1514-.7676.191-1.1556.1138-.3879-.0772-.7443-.2676-1.024-.5473s-.4702-.6361-.5474-1.0241c-.0771-.3879-.0375-.7901.1138-1.1555.1514-.3655.4078-.6778.7367-.8976s.7155-.3371 1.1111-.3371c.5304 0 1.0391.2107 1.4142.5858s.5858.8838.5858 1.4142z"/><path d="m59 33h-12c-.7956 0-1.5587.3161-2.1213.8787s-.8787 1.3257-.8787 2.1213v12c0 .7957.3161 1.5587.8787 2.1213.5626.5627 1.3257.8787 2.1213.8787h12c.7956 0 1.5587-.316 2.1213-.8787.5626-.5626.8787-1.3256.8787-2.1213v-2c0-.2652-.1054-.5195-.2929-.7071-.1875-.1875-.4419-.2929-.7071-.2929s-.5196.1054-.7071.2929c-.1875.1876-.2929.4419-.2929.7071v2c0 .2652-.1054.5196-.2929.7071-.1875.1876-.4419.2929-.7071.2929h-12c-.2652 0-.5196-.1053-.7071-.2929-.1875-.1875-.2929-.4419-.2929-.7071v-12c0-.2652.1054-.5195.2929-.7071.1875-.1875.4419-.2929.7071-.2929h12c.2652 0 .5196.1054.7071.2929.1875.1876.2929.4419.2929.7071v6c0 .2652.1054.5196.2929.7071.1875.1876.4419.2929.7071.2929s.5196-.1053.7071-.2929c.1875-.1875.2929-.4419.2929-.7071v-6c0-.7956-.3161-1.5587-.8787-2.1213s-1.3257-.8787-2.1213-.8787z"/><path d="m24.47 13.8507c.1591.0986.3428.1506.53.15.1565-.0009.3107-.0386.45-.11l6-3c.1638-.0839.3013-.2114.3972-.3684.096-.1571.1468-.3375.1468-.5216 0-.18404-.0508-.36452-.1468-.52155-.0959-.15703-.2334-.28452-.3972-.36844l-6-3c-.1522-.07671-.3216-.11324-.4919-.1061-.1703.00713-.3359.05769-.4812.14686s-.2654.214-.3489.36264c-.0834.14863-.1275.31613-.128.4866v5.99999c-.0004.17.0426.3372.1249.4859.0822.1487.201.274.3451.3641zm1.53-5.22999 2.76 1.37999-2.76 1.38z"/><path d="m27 19c1.78 0 3.5201-.5278 5.0001-1.5168 1.4801-.9889 2.6336-2.3945 3.3148-4.039.6812-1.6446.8594-3.45418.5122-5.20001-.3473-1.74583-1.2045-3.34947-2.4631-4.60815-1.2587-1.25867-2.8624-2.11584-4.6082-2.4631-1.7458-.34727-3.5554-.16904-5.2.51215-1.6445.68119-3.0501 1.83474-4.039 3.31478-.989 1.48004-1.5168 3.2201-1.5168 5.00013 0 2.387.9482 4.6761 2.636 6.364 1.6879 1.6878 3.9771 2.636 6.364 2.636zm0-16c1.3845 0 2.7378.41055 3.889 1.17972 1.1511.76917 2.0483 1.86242 2.5782 3.1415.5298 1.27908.6684 2.68658.3983 4.04438-.2701 1.3579-.9368 2.6052-1.9158 3.5842-.9789.9789-2.2262 1.6456-3.5841 1.9157-1.3578.2701-2.7653.1315-4.0444-.3983-1.2791-.5299-2.3723-1.4271-3.1415-2.5782s-1.1797-2.5045-1.1797-3.889c0-1.85651.7375-3.63699 2.0503-4.94974 1.3127-1.31276 3.0932-2.05026 4.9497-2.05026z"/><path d="m37 23c.1552 0 .3083-.0361.4472-.1056.1388-.0694.2596-.1702.3528-.2944l3-4c.1591-.2122.2274-.4789.1899-.7414-.0375-.2626-.1778-.4995-.3899-.6586-.2122-.1591-.4789-.2275-.7415-.1899-.2625.0375-.4994.1777-.6585.3899l-3 4c-.1592.2122-.2275.4789-.19.7414.0375.2626.1778.4995.39.6586.1731.1298.3836.2.6.2z"/><path d="m39.2 26.6c.0931.1242.2139.225.3528.2944.1388.0695.2919.1056.4472.1056.2163 0 .4269-.0702.6-.2l4-3c.2121-.1591.3524-.396.3899-.6586.0375-.2625-.0308-.5292-.1899-.7414-.1592-.2122-.3961-.3524-.6586-.3899-.2626-.0376-.5293.0308-.7414.1899l-4 3c-.2122.1591-.3525.396-.39.6586-.0375.2625.0308.5292.19.7414z"/><path d="m48.9999 28.7993c-.0237-.1326-.074-.259-.1478-.3716-.0739-.1127-.1697-.2093-.2818-.284-.112-.0747-.238-.126-.3704-.1508s-.2684-.0226-.4.0064l-5 1c-.1313.0132-.2587.052-.375.1144s-.2192.1471-.3028.2492c-.1688.2063-.2487.4712-.2222.7364.0266.2652.1574.5091.3636.6778.2063.1688.4712.2487.7364.2222h.2l5-1c.1326-.0237.259-.074.3717-.1479.1126-.0738.2092-.1696.2839-.2817s.126-.2381.1509-.3704c.0248-.1324.0226-.2685-.0065-.4z"/><path d="m3 29h12c.2652 0 .5196-.1053.7071-.2929.1875-.1875.2929-.4419.2929-.7071v-16c0-.2652-.1054-.5195-.2929-.7071-.1875-.1875-.4419-.2929-.7071-.2929h-12c-.26522 0-.51957.1054-.70711.2929-.18753.1876-.29289.4419-.29289.7071v16c0 .2652.10536.5196.29289.7071.18754.1876.44189.2929.70711.2929zm1-16h10v14h-10z"/><path d="m11 15h-2c-.26522 0-.51957.1054-.70711.2929-.18753.1876-.29289.4419-.29289.7071s.10536.5196.29289.7071c.18754.1876.44189.2929.70711.2929h2c.2652 0 .5196-.1053.7071-.2929.1875-.1875.2929-.4419.2929-.7071s-.1054-.5195-.2929-.7071c-.1875-.1875-.4419-.2929-.7071-.2929z"/><path d="m11 19h-4c-.26522 0-.51957.1054-.70711.2929-.18753.1876-.29289.4419-.29289.7071s.10536.5196.29289.7071c.18754.1876.44189.2929.70711.2929h4c.2652 0 .5196-.1053.7071-.2929.1875-.1875.2929-.4419.2929-.7071s-.1054-.5195-.2929-.7071c-.1875-.1875-.4419-.2929-.7071-.2929z"/><path d="m11 23h-4c-.26522 0-.51957.1054-.70711.2929-.18753.1876-.29289.4419-.29289.7071s.10536.5196.29289.7071c.18754.1876.44189.2929.70711.2929h4c.2652 0 .5196-.1053.7071-.2929.1875-.1875.2929-.4419.2929-.7071s-.1054-.5195-.2929-.7071c-.1875-.1875-.4419-.2929-.7071-.2929z"/><path d="m36.1202 28.7001c-.0657-.1142-.1532-.2144-.2576-.2949-.1044-.0804-.2236-.1395-.3508-.1738-.1272-.0344-.26-.0433-.3907-.0264-.1306.0169-.2567.0595-.3709.1251-.1143.0657-.2145.1532-.2949.2576s-.1395.2236-.1739.3508c-.0343.1272-.0433.2599-.0264.3906.017.1307.0595.2568.1252.371l4.41 7.63-16 6s0 0-.07 0h-.08l-4.33 2.5c-.2278.1317-.4793.2171-.7401.2514-.2608.0344-.5259.0169-.7799-.0514-.5104-.1379-.9455-.4722-1.21-.93l-2-3.46c-.2353-.4527-.2887-.9782-.1493-1.4689.1394-.4908.4611-.9097.8993-1.1711l3.46-2 2.5 4.33c.0881.1526.2149.2792.3677.367s.326.1337.5023.133c.1758.0007.3488-.045.5013-.1325.1526-.0875.2794-.2136.3677-.3658.0882-.1521.1348-.3248.1349-.5007.0002-.1759-.046-.3487-.1339-.501l-2.58-4.46 12.55-10.35.41.71c.0656.1143.1531.2145.2575.2949s.2236.1395.3508.1738c.1272.0344.26.0434.3907.0264.1306-.0169.2567-.0594.371-.1251.1142-.0656.2144-.1532.2948-.2576.0805-.1043.1395-.2235.1739-.3508.0344-.1272.0433-.2599.0264-.3906-.017-.1307-.0595-.2567-.1251-.371l-1-1.73c-.0733-.1253-.173-.2331-.2922-.316-.1191-.0829-.2549-.1388-.3978-.164-.1438-.0271-.2917-.0223-.4334.014-.1416.0363-.2736.1032-.3866.196l-14 11.54-4.26 2.46c-.7645.4453-1.3598 1.1315-1.6928 1.9511-.3329.8197-.3847 1.7267-.1472 2.5789l-1 .57c-.5153.2959-.93107.7381-1.19468 1.2706-.2636.5325-.36315 1.1312-.28603 1.7204.07713.5891.32745 1.1421.71923 1.5888.39178.4466.90738.7669 1.48148.9202.2544.0674.5167.101.78.1.526-.0022 1.0427-.1399 1.5-.4l1-.57c.4803.4963 1.0845.8553 1.75 1.04.3417.0956.6951.1427 1.05.14.7029.0016 1.3934-.1848 2-.54l.87-.5 2 3.47c.3974.6872 1.0511 1.1888 1.8177 1.395s1.5837.1001 2.2723-.295c.3416-.1968.641-.459.8812-.7717.2402-.3126.4164-.6695.5186-1.0503.1021-.3808.1282-.778.0768-1.1688-.0515-.3909-.1794-.7678-.3766-1.1092l-1.82-3.17 15-5.63c.136-.0511.2592-.1313.3611-.2349s.18-.2282.2289-.3651c.0486-.1352.0676-.2794.0555-.4226-.0121-.1433-.0549-.2822-.1255-.4074zm-23.62 17.09c-.1139.0658-.2397.1086-.3701.1257-.1304.0172-.2629.0084-.3899-.0257-.2562-.0665-.4756-.232-.61-.46-.0659-.1139-.1086-.2396-.1258-.37-.0171-.1304-.0084-.263.0258-.39.0341-.1277.0932-.2473.1739-.352s.1813-.1924.2961-.258l.87-.5 1 1.73zm13.16 2.8c.0658.1139.1085.2396.1257.37.0171.1305.0084.263-.0257.39-.0714.2542-.2403.4699-.47.6-.2285.1312-.4994.167-.7541.0996-.2546-.0674-.4724-.2326-.6059-.4596l-2-3.47 1.66-.95h.08z"/></g></svg>