<svg fill="none" height="80" viewBox="0 0 80 80" width="80" xmlns="http://www.w3.org/2000/svg"><g fill="#fa541c"><g fill-opacity=".48"><path d="m32.0006 51.9994-22.66662-15.7735-8-5.5599v42.6667c0 2.9453 2.38803 5.3333 5.33334 5.3333l20.26688-21.3333z"/><path d="m48 51.9994 5.0664 5.3333 20.2669 21.3333c2.9454 0 5.3334-2.388 5.3334-5.3333v-42.6667l-8 5.5599z"/><path d="m9.33398 25.334h-2.66666c-2.94531 0-5.33334 2.388-5.33334 5.3333l8 5.5599z"/><path d="m73.3327 25.334h-2.6667v10.8932l8-5.5599c0-2.9453-2.388-5.3333-5.3333-5.3333z"/><path d="m47.9994 52h-16l-5.0665 5.3333-20.26688 21.3334h66.66668l-20.2669-21.3334z"/><path d="m62.6667 12.0007h8l-10.6667-10.66672v8c.0046 1.47072 1.196 2.66212 2.6667 2.66672z"/></g><path d="m73.3333 24h-1.3333v-12c0-.0293-.015-.0534-.0163-.0827-.0078-.1198-.0319-.2383-.0716-.3522-.015-.0423-.0254-.084-.0443-.125-.0625-.1406-.1497-.2695-.2571-.3802l-10.6667-10.666671c-.1113-.107422-.2409-.194661-.3828-.257161-.0384-.01888-.0801-.029297-.1198-.0442712-.1165-.0410155-.2383-.0651041-.3613-.0716145-.0293-.0052083-.0521-.0201823-.0801-.0201823h-46.6667c-2.9453 0-5.3333 2.38802-5.3333 5.33333v18.66667h-1.33333c-3.68034.0046-6.6621127 2.9863-6.66667 6.6667v42.6666c.0045573 3.6804 2.98633 6.6621 6.66667 6.6667h66.66663c3.6804-.0046 6.6621-2.9863 6.6667-6.6667v-42.6666c-.0046-3.6804-2.9863-6.6621-6.6667-6.6667zm-40.7597 29.3333h14.8528l22.8002 24h-60.45316zm40.7597-26.6666c1.9525-.0007 3.6198 1.4082 3.9453 3.3333l-5.2786 3.6758v-7.0091zm-5.8854-16h-4.7812c-.7364 0-1.3334-.597-1.3334-1.33337v-4.78125zm-56.7812-5.33337c0-1.47265 1.194-2.66666 2.6666-2.66666h45.3334v6.66666c0 2.20897 1.791 3.99997 4 3.99997h6.6666v22.196l-21.7519 15.1374h-15.1628l-21.7519-15.1374zm-4.00003 21.33337h1.33333v7.0091l-5.27865-3.6693c.32227-1.9277 1.99089-3.3398 3.94532-3.3398zm-4 46.6666v-40.1159l27.29753 18.9903-23.83074 25.0898c-1.98502-.2669-3.46679-1.9616-3.46679-3.9642zm71.19983 3.9642-23.8307-25.0898 27.2975-18.9903v40.1159c0 2.0026-1.4817 3.6973-3.4668 3.9642z"/><path d="m27.9993 10.6667h24c.7364 0 1.3334-.597 1.3334-1.33337 0-.73632-.597-1.33333-1.3334-1.33333h-24c-.7363 0-1.3333.59701-1.3333 1.33333 0 .73637.597 1.33337 1.3333 1.33337z"/><path d="m16 17.3333c0 .7364.597 1.3334 1.3333 1.3334h45.3334c.7363 0 1.3333-.597 1.3333-1.3334 0-.7363-.597-1.3333-1.3333-1.3333h-45.3334c-.7363 0-1.3333.597-1.3333 1.3333z"/><path d="m62.6667 24h-45.3334c-.7363 0-1.3333.597-1.3333 1.3333 0 .7364.597 1.3334 1.3333 1.3334h45.3334c.7363 0 1.3333-.597 1.3333-1.3334 0-.7363-.597-1.3333-1.3333-1.3333z"/><path d="m62.6667 32h-45.3334c-.7363 0-1.3333.597-1.3333 1.3333 0 .7364.597 1.3334 1.3333 1.3334h45.3334c.7363 0 1.3333-.597 1.3333-1.3334 0-.7363-.597-1.3333-1.3333-1.3333z"/><path d="m54.6667 40h-29.3334c-.7363 0-1.3333.597-1.3333 1.3333 0 .7364.597 1.3334 1.3333 1.3334h29.3334c.7363 0 1.3333-.597 1.3333-1.3334 0-.7363-.597-1.3333-1.3333-1.3333z"/><path d="m14.6673 13.334c.7363 0 1.3334-.597 1.3334-1.3333v-2.66672c0-.73632.597-1.33333 1.3333-1.33333h2.6667c.7363 0 1.3333-.597 1.3333-1.33333s-.597-1.33334-1.3333-1.33334h-2.6667c-2.209 0-4 1.79102-4 4v2.66672c0 .7363.597 1.3333 1.3333 1.3333z"/></g></svg>