<svg fill="none" height="64" viewBox="0 0 64 64" width="64" xmlns="http://www.w3.org/2000/svg"><g fill="#7a5204"><path d="m48.5161 53.6774c2.846 0 5.1613-2.3153 5.1613-5.1613 0-2.8459-2.3153-5.1613-5.1613-5.1613-2.8459 0-5.1613 2.3154-5.1613 5.1613 0 2.846 2.3154 5.1613 5.1613 5.1613zm0-8.258c1.7074 0 3.0968 1.3894 3.0968 3.0967 0 1.7074-1.3894 3.0968-3.0968 3.0968-1.7073 0-3.0967-1.3894-3.0967-3.0968 0-1.7073 1.3894-3.0967 3.0967-3.0967z"/><path d="m64 52.415v-7.7987l-2.8924-.736c-.1228-.3283-.2601-.6597-.4129-.9869l1.5278-2.5693-4.4161-4.4149v-17.3286h-8.258v14.4517h-4.9311l-.736 2.8923c-.3293.1229-.6596.2612-.9868.4129l-.5719-.3396v-6.0624h-8.2581v9.2903c-2.9306 0-5.7218 1.409-7.4663 3.7698-.2292.3097-.5027.5543-.7918.7649v-22.0831h-8.258v22.7097h-6.1936v-8.2581h-8.25803v8.4047c-1.77548.4614-3.09677 2.0635-3.09677 3.9824 0 2.2772 1.85187 4.1291 4.12903 4.1291h19.88747c.9858 0 1.9272.5068 2.5807 1.3914 1.7455 2.3608 4.5367 3.7698 7.4673 3.7698.5688 0 1.1262-.0691 1.6754-.1682l4.5842 4.5843 2.5693-1.5268c.3272.1518.6576.2901.9869.4129l.737 2.8914h7.7987l.736-2.8924c.3293-.1228.6596-.2611.9868-.4129l2.5693 1.5267 5.5144-5.5143-1.5278-2.5693c.1518-.3272.2901-.6586.4129-.9868zm-12.3871-31.7698h4.129v14.7396l-1.6041.9527c-.3272-.1517-.6575-.29-.9868-.4129l-.736-2.8923h-.8021zm-11.3548 11.3548v2.8769l-4.1291 4.129v-7.0059zm-20.6452-8.2581h4.129v20.6452h-4.129zm-10.32258 14.4516v6.1936h-4.12903v-6.1936zm18.96668 14.6148c-1.0477-1.4163-2.593-2.2277-4.2405-2.2277h-19.88747c-1.13858 0-2.06451-.9259-2.06451-2.0645s.92593-2.0645 2.06451-2.0645h19.88747c1.6475 0 3.1928-.8113 4.2405-2.2276 1.3781-1.8643 3.4953-2.9337 5.8075-2.9337 2.4062 0 4.6524 1.1727 6.0016 3.0968h-3.8369c-1.7621 0-3.1969 1.4348-3.1969 3.1979v1.8633c0 1.762 1.4348 3.1969 3.1979 3.1969h3.8369c-1.3492 1.9241-3.5964 3.0967-6.0016 3.0967-2.3132 0-4.4304-1.0694-5.8085-2.9336zm11.2083-2.2277h-3.2361c-.6246 0-1.1324-.5078-1.1324-1.1334v-1.8632c0-.6245.5078-1.1324 1.1334-1.1324h3.2361c-.1538.6741-.2405 1.3626-.2405 2.0645 0 .702.0867 1.3905.2395 2.0645zm2.1471.0651c-.2116-.6865-.3221-1.3998-.3221-2.1296s.1105-1.4431.3221-2.1295c.4098-.1363.7102-.511.7102-.9672v-.6039c1.3037-2.176 3.649-3.5252 6.1935-3.5252 3.9845 0 7.2258 3.2423 7.2258 7.2258s-3.2413 7.2258-7.2258 7.2258c-2.5445 0-4.8898-1.3491-6.1935-3.5251v-.6039c0-.4563-.3004-.831-.7102-.9672zm18.015 5.7373-3.2444 3.2444-2.1636-1.2862-.5089.2642c-.576.2973-1.1603.542-1.7373.7267l-.5451.1734-.6173 2.43h-4.5883l-.6184-2.43-.545-.1734c-.577-.1847-1.1613-.4294-1.7373-.7267l-.5089-.2642-2.1636 1.2862-2.6818-2.6819c1.2975-.5894 2.4506-1.4637 3.36-2.5723 1.7476 2.1419 4.3716 3.4332 7.1886 3.4332 5.1221 0 9.2903-4.1672 9.2903-9.2903s-4.1682-9.2903-9.2903-9.2903c-2.817 0-5.441 1.2914-7.1886 3.4333-.9105-1.1087-2.0625-1.983-3.36-2.5724l2.6818-2.6818 2.1636 1.2862.5089-.2643c.576-.2973 1.1603-.5419 1.7373-.7267l.545-.1734.6173-2.4299h4.5884l.6183 2.4299.5451.1734c.577.1848 1.1613.4294 1.7373.7267l.5089.2643 2.1636-1.2862 3.2444 3.2444-1.2862 2.1626.2622.5078c.2983.5781.5419 1.1624.7267 1.7404l.1744.5451 2.431.6162v4.5884l-2.43.6173-.1744.545c-.1848.5781-.4284 1.1624-.7267 1.7404l-.2622.5079z"/><path d="m53.6774 12.3871c2.2772 0 4.129-1.8519 4.129-4.12904 0-2.27716-1.8518-4.12903-4.129-4.12903-2.2771 0-4.129 1.85187-4.129 4.12903 0 2.27714 1.8519 4.12904 4.129 4.12904zm0-6.19355c1.1386 0 2.0645.92593 2.0645 2.06451s-.9259 2.06454-2.0645 2.06454-2.0645-.92596-2.0645-2.06454.9259-2.06451 2.0645-2.06451z"/><path d="m21.6774 15.4839c2.2772 0 4.1291-1.8519 4.1291-4.1291 0-2.27712-1.8519-4.12899-4.1291-4.12899-2.2771 0-4.129 1.85187-4.129 4.12899 0 2.2772 1.8519 4.1291 4.129 4.1291zm0-6.19358c1.1386 0 2.0645.92598 2.0645 2.06448 0 1.1386-.9259 2.0646-2.0645 2.0646s-2.0645-.926-2.0645-2.0646c0-1.1385.9259-2.06448 2.0645-2.06448z"/><path d="m38.1936 23.7419c1.7073 0 3.0967-1.3894 3.0967-3.0967 0-1.7074-1.3894-3.0968-3.0967-3.0968-1.7074 0-3.0968 1.3894-3.0968 3.0968 0 1.7073 1.3894 3.0967 3.0968 3.0967zm0-4.129c.5687 0 1.0322.4625 1.0322 1.0323s-.4635 1.0322-1.0322 1.0322c-.5688 0-1.0323-.4624-1.0323-1.0322s.4635-1.0323 1.0323-1.0323z"/><path d="m7.22581 29.9355c1.70735 0 3.09679-1.3894 3.09679-3.0968 0-1.7073-1.38944-3.0968-3.09679-3.0968-1.70736 0-3.09678 1.3895-3.09678 3.0968 0 1.7074 1.38942 3.0968 3.09678 3.0968zm0-4.129c.56877 0 1.03225.4624 1.03225 1.0322s-.46348 1.0323-1.03225 1.0323c-.56878 0-1.03226-.4625-1.03226-1.0323s.46348-1.0322 1.03226-1.0322z"/><path d="m7.22581 34.0645c3.98449 0 7.22579-3.2423 7.22579-7.2258 0-1.7094-.5997-3.2795-1.5959-4.5192l3.9949-4.2798c1.3584.9859 3.0235 1.5732 4.8268 1.5732 2.7138 0 5.118-1.3213 6.624-3.3486l3.1587 1.7775c-.3138.8093-.4924 1.6847-.4924 2.6034 0 3.9834 3.2413 7.2258 7.2258 7.2258 3.9846 0 7.2259-3.2424 7.2259-7.2258 0-1.3347-.3706-2.5817-1.0034-3.6553l3.5159-2.8129c1.4874 1.4452 3.5127 2.3391 5.7455 2.3391 4.5533 0 8.2581-3.7047 8.2581-8.25803 0-4.5533-3.7048-8.25807-8.2581-8.25807s-8.258 3.70477-8.258 8.25807c0 1.57832.4531 3.04933 1.2242 4.30453l-3.519 2.815c-1.2923-1.2099-3.0245-1.9582-4.9311-1.9582-2.3277 0-4.3963 1.1107-5.7187 2.8252l-3.1545-1.7744c.3943-.9621.6152-2.0129.6152-3.1154 0-4.55325-3.7048-8.25803-8.2581-8.25803s-8.258 3.70478-8.258 8.25803c0 2.0078.7215 3.8483 1.9169 5.2811l-3.9897 4.2746c-1.1706-.8155-2.58995-1.2976-4.12079-1.2976-3.98452 0-7.22581 3.2423-7.22581 7.2258s3.24129 7.2258 7.22581 7.2258zm46.45159-31.99998c3.4158 0 6.1936 2.7778 6.1936 6.19355 0 3.41573-2.7778 6.19353-6.1936 6.19353-3.4157 0-6.1935-2.7778-6.1935-6.19353 0-3.41575 2.7778-6.19355 6.1935-6.19355zm-15.4839 13.41938c2.846 0 5.1613 2.3153 5.1613 5.1613 0 2.8459-2.3153 5.1613-5.1613 5.1613-2.8459 0-5.1612-2.3154-5.1612-5.1613 0-2.846 2.3153-5.1613 5.1612-5.1613zm-16.5161-10.32261c3.4158 0 6.1936 2.77781 6.1936 6.19351 0 3.4158-2.7778 6.1936-6.1936 6.1936-3.4157 0-6.1935-2.7778-6.1935-6.1936 0-3.4157 2.7778-6.19351 6.1935-6.19351zm-14.45159 16.51611c2.84589 0 5.16129 2.3154 5.16129 5.1613s-2.3154 5.1613-5.16129 5.1613c-2.84594 0-5.16129-2.3154-5.16129-5.1613s2.31535-5.1613 5.16129-5.1613z"/></g></svg>