<svg fill="none" height="64" viewBox="0 0 64 64" width="64" xmlns="http://www.w3.org/2000/svg"><g fill="#000"><path d="m61.7098 13.29-11-11c-.1907-.1842-.4449-.28803-.71-.29h-25c-.7949.00237-1.5566.31921-2.1187.8813-.5621.5621-.8789 1.32378-.8813 2.1187v6.05c-5.3864.2525-10.4687 2.57-14.19136 6.4712s-5.79965 9.0864-5.79965 14.4788 2.07699 10.5776 5.79965 14.4788c3.72266 3.9013 8.80496 6.2187 14.19136 6.4712v6.05c.0024.7949.3192 1.5566.8813 2.1187s1.3238.8789 2.1187.8813h34c.795-.0024 1.5566-.3192 2.1187-.8813s.879-1.3238.8813-2.1187v-45c-.0019-.2651-.1058-.5193-.29-.71zm-10.71-7.88 7.59 7.59h-6.59c-.2652 0-.5195-.1054-.7071-.2929-.1875-.1875-.2929-.4419-.2929-.7071zm-46.99996 26.59c.00651-4.8637 1.87573-9.5402 5.22351-13.0684 3.34775-3.5282 7.91985-5.64 12.77645-5.9016v18.56l-13.09996 13.1c-3.15349-3.4741-4.90031-7.9981-4.9-12.69zm6.30996 14.1 13.1-13.1h18.56c-.1821 3.5832-1.3771 7.0412-3.446 9.9725-2.069 2.9312-4.927 5.2153-8.2423 6.5871-3.3153 1.3717-6.9516 1.7748-10.4868 1.1624s-6.8242-2.2151-9.4849-4.622zm49.69 12.9c0 .2652-.1053.5196-.2929.7071-.1875.1875-.4418.2929-.7071.2929h-34c-.2652 0-.5195-.1054-.7071-.2929-.1875-.1875-.2929-.4419-.2929-.7071v-6.05c5.3846-.2601 10.4633-2.5797 14.1858-6.479s5.8041-9.0801 5.8142-14.471c0-.2652-.1053-.5196-.2929-.7071-.1875-.1875-.4418-.2929-.7071-.2929h-19v-26c0-.26522.1054-.51957.2929-.70711.1876-.18753.4419-.29289.7071-.29289h24v8c.0024.7949.3192 1.5566.8813 2.1187s1.3238.8789 2.1187.8813h8z"/><path d="m26.9998 7c-.2652 0-.5196.10536-.7071.29289-.1876.18754-.2929.44189-.2929.70711v20c0 .2652.1053.5196.2929.7071.1875.1875.4419.2929.7071.2929h20c.2652 0 .5195-.1054.7071-.2929.1875-.1875.2929-.4419.2929-.7071-.0061-5.5677-2.2206-10.9056-6.1575-14.8425-3.937-3.93696-9.2749-6.15141-14.8425-6.1575zm1 20v-17.97c4.6843.25152 9.1103 2.2255 12.4274 5.5426 3.317 3.3171 5.2911 7.7431 5.5426 12.4274z"/><path d="m48.9997 40c-1.78 0-3.5201.5278-5.0001 1.5168-1.48.9889-2.6336 2.3945-3.3148 4.0391-.6812 1.6445-.8594 3.4541-.5121 5.1999.3472 1.7458 1.2044 3.3495 2.4631 4.6082 1.2586 1.2586 2.8623 2.1158 4.6081 2.4631 1.7458.3472 3.5554.169 5.2-.5122 1.6445-.6812 3.0501-1.8347 4.0391-3.3148.9889-1.48 1.5167-3.2201 1.5167-5.0001-.0037-2.3858-.9531-4.6728-2.6401-6.3599-1.687-1.687-3.9741-2.6364-6.3599-2.6401zm0 16c-1.3844 0-2.7378-.4105-3.889-1.1797-1.1511-.7692-2.0483-1.8624-2.5781-3.1415s-.6685-2.6866-.3984-4.0444c.2701-1.3579.9368-2.6052 1.9158-3.5841.9789-.979 2.2262-1.6457 3.5841-1.9158s2.7653-.1315 4.0444.3983c1.2791.5299 2.3723 1.4271 3.1415 2.5782.7692 1.1512 1.1797 2.5045 1.1797 3.889-.0021 1.8559-.7403 3.6351-2.0526 4.9474s-3.0915 2.0505-4.9474 2.0526z"/><path d="m46.9998 50.5862-2.293-2.293-1.414 1.414 3 3c.1875.1875.4418.2928.707.2928.2651 0 .5194-.1053.707-.2928l6-6-1.414-1.414z"/><path d="m49.9998 19h8v2h-8z"/><path d="m49.9998 25h8v2h-8z"/><path d="m49.9998 31h8v2h-8z"/></g></svg>