<svg fill="none" height="64" viewBox="0 0 65 64" width="65" xmlns="http://www.w3.org/2000/svg"><g fill="#000"><path d="m59.3742 12.2928-10-9.99995c-.1876-.18751-.4419-.29284-.7072-.29285h-25c-1.0605.00121-2.0772.42303-2.8271 1.17291-.7498.74989-1.1717 1.7666-1.1729 2.82709v29h2v-29c.0006-.53025.2115-1.0386.5865-1.41354.3749-.37495.8833-.58585 1.4135-.58646h24v6c.0012 1.0605.4231 2.0772 1.1729 2.8271.7499.7499 1.7666 1.1717 2.8271 1.1729h6v44c-.0006.5302-.2115 1.0386-.5864 1.4135-.375.375-.8833.5859-1.4136.5865h-32c-.4919.0004-.9666-.1809-1.333-.509l-1.334 1.4902c.7331.6566 1.6829 1.0194 2.667 1.0188h32c1.0605-.0012 2.0772-.423 2.8271-1.1729s1.1717-1.7666 1.1729-2.8271v-45c0-.2652-.1053-.5196-.2928-.7072zm-9.7072-2.2928v-4.58581l6.5858 6.58581h-4.5858c-.5302-.0006-1.0386-.2115-1.4135-.5865-.375-.3749-.5859-.8833-.5865-1.4135z"/><path d="m23.667 6h4v2h-4z"/><path d="m29.667 6h7v2h-7z"/><path d="m23.667 10h6v2h-6z"/><path d="m23.667 16h7v2h-7z"/><path d="m32.667 16h8v2h-8z"/><path d="m23.667 20h9v2h-9z"/><path d="m28.667 24h10v2h-10z"/><path d="m40.667 24h9v2h-9z"/><path d="m51.667 24h4v2h-4z"/><path d="m23.667 28h10v2h-10z"/><path d="m35.667 28h9v2h-9z"/><path d="m46.667 28h9v2h-9z"/><path d="m23.667 32h15v2h-15z"/><path d="m40.667 32h9v2h-9z"/><path d="m51.667 32h4v2h-4z"/><path d="m29.667 51c-.2652 0-.5195.1054-.7071.2929-.1875.1875-.2929.4419-.2929.7071v6c0 .2652.1054.5196.2929.7071.1876.1875.4419.2929.7071.2929h6c.2652 0 .5196-.1054.7071-.2929.1876-.1875.2929-.4419.2929-.7071v-6c0-.2652-.1053-.5196-.2929-.7071-.1875-.1875-.4419-.2929-.7071-.2929zm5 6h-4v-4h4z"/><path d="m38.667 58c0 .2652.1054.5196.2929.7071.1876.1875.4419.2929.7071.2929h6c.2652 0 .5196-.1054.7071-.2929.1876-.1875.2929-.4419.2929-.7071v-11c0-.2652-.1053-.5196-.2929-.7071-.1875-.1875-.4419-.2929-.7071-.2929h-6c-.2652 0-.5195.1054-.7071.2929-.1875.1875-.2929.4419-.2929.7071zm2-10h4v9h-4z"/><path d="m49.667 59h6c.2652 0 .5196-.1054.7071-.2929.1876-.1875.2929-.4419.2929-.7071v-15c0-.2652-.1053-.5196-.2929-.7071-.1875-.1875-.4419-.2929-.7071-.2929h-6c-.2652 0-.5195.1054-.7071.2929-.1875.1875-.2929.4419-.2929.7071v15c0 .2652.1054.5196.2929.7071.1876.1875.4419.2929.7071.2929zm1-15h4v13h-4z"/><path d="m7.667 47.9991c.00277-2.3124.89452-4.5353 2.4907-6.2086 1.5961-1.6732 3.7745-2.6688 6.0843-2.7806l-1.2822 1.2821 1.4144 1.4143 3-3c.1875-.1876.2928-.4419.2928-.7072 0-.2652-.1053-.5195-.2928-.7071l-3-3-1.4144 1.4143 1.3012 1.3011c-2.3851.0883-4.6768.9498-6.52929 2.4547-1.85254 1.5048-3.16541 3.5713-3.74054 5.8877-.57514 2.3164-.38132 4.757.55219 6.9536s2.55609 4.03 4.62294 5.2236l1.0014-1.7312c-1.3662-.7928-2.50079-1.9299-3.29051-3.2979-.78971-1.368-1.20698-2.9192-1.21019-4.4988z"/><path d="m27.667 48c-.0038-1.9303-.5135-3.8258-1.4785-5.4976-.9649-1.6718-2.3512-3.0614-4.0208-4.0302l-1.0014 1.7312c1.6844.9724 3.0086 2.4643 3.7741 4.2522.7656 1.788.9314 3.7758.4727 5.6659-.4588 1.8901-1.5175 3.5807-3.0175 4.8188-1.5001 1.238-3.3608 1.9569-5.3036 2.0489l1.2822-1.282-1.4143-1.4143-3 3c-.1876.1875-.2929.4419-.2929.7071s.1053.5196.2929.7072l3 3 1.4143-1.4143-1.3012-1.3012c2.8439-.1082 5.5356-1.3132 7.5106-3.3624 1.975-2.0491 3.08-4.7833 3.0834-7.6293z"/><path d="m17.3742 48.7072c.1875-.1876.2928-.442.2928-.7072v-5h-2v4.5858l-2.7071 2.707 1.4143 1.4144z"/></g></svg>