<svg height="80" viewBox="0 0 80 80" width="80" xmlns="http://www.w3.org/2000/svg"><g transform="translate(.002685)"><path d="m47.4999793 22.8125c0-7.9264-6.4486-14.375-14.375-14.375s-14.375 6.4486-14.375 14.375c0 4.112 1.736 7.8258 4.5128 10.4483.0521.0556.1074.1083.1678.1562 2.558 2.3405 5.9622 3.7703 9.6943 3.7703 3.732 0 7.1362-1.43 9.6942-3.7703.0604-.0479.1158-.1008.1678-.1562 2.7772-2.6225 4.5131-6.3363 4.5131-10.4483zm-14.375-11.25c6.2033 0 11.25 5.0467 11.25 11.25 0 2.4948-.8173 4.8016-2.1969 6.6692-1.1523-1.709-2.7493-3.0383-4.6036-3.8589.736-.9511 1.1755-2.1425 1.1755-3.4353v-1.0156c0-3.1017-2.5233-5.625-5.625-5.625s-5.625 2.5233-5.625 5.625v1.0156c0 1.2928.4396 2.4842 1.1755 3.4353-1.8542.8206-3.4513 2.1499-4.6036 3.8589-1.3795-1.8676-2.1969-4.1744-2.1969-6.6692 0-6.2033 5.0467-11.25 11.25-11.25zm-2.5 10.625v-1.0156c0-1.3785 1.1216-2.5 2.5-2.5 1.3785 0 2.5 1.1215 2.5 2.5v1.0156c0 1.3784-1.1215 2.5-2.5 2.5-1.3784 0-2.5-1.1216-2.5-2.5zm-4.2954 9.5831c1.3732-2.4351 3.9359-3.9581 6.7954-3.9581s5.4222 1.523 6.7955 3.9581c-1.8895 1.4369-4.2441 2.2919-6.7955 2.2919s-4.9061-.855-6.7954-2.2919z"/><path d="m64.6874793 62.2388c-.8628 0-1.5625.6995-1.5625 1.5625v11.5112c0 .8616-.7009 1.5625-1.5625 1.5625h-56.87498c-.86156 0-1.5625-.7009-1.5625-1.5625v-70.625c0-.86156.70094-1.5625 1.5625-1.5625h56.87498c.8616 0 1.5625.70094 1.5625 1.5625v16.9922c0 .863.6997 1.5625 1.5625 1.5625s1.5625-.6995 1.5625-1.5625v-16.9922c0-2.58469-2.1028-4.6875-4.6875-4.6875h-56.87498c-2.58469 0-4.6874993 2.10281-4.6874993 4.6875v70.625c0 2.5847 2.1028093 4.6875 4.6874993 4.6875h56.87498c2.5847 0 4.6875-2.1028 4.6875-4.6875v-11.5112c0-.863-.6997-1.5625-1.5625-1.5625z"/><path d="m41.5624793 68.4375h-8.4375c-.8628 0-1.5625.6995-1.5625 1.5625s.6997 1.5625 1.5625 1.5625h8.4375c.8628 0 1.5625-.6995 1.5625-1.5625s-.6997-1.5625-1.5625-1.5625z"/><path d="m41.5624793 59.6875h-22.1875c-.8628 0-1.5625.6995-1.5625 1.5625s.6997 1.5625 1.5625 1.5625h22.1875c.8628 0 1.5625-.6995 1.5625-1.5625s-.6997-1.5625-1.5625-1.5625z"/><path d="m41.5624793 50.9375h-22.1875c-.8628 0-1.5625.6995-1.5625 1.5625s.6997 1.5625 1.5625 1.5625h22.1875c.8628 0 1.5625-.6995 1.5625-1.5625s-.6997-1.5625-1.5625-1.5625z"/><path d="m13.8058793 42.6453c-.2905-.2906-.6936-.4578-1.1061-.4578-.4111 0-.8142.1672-1.1047.4578-.2906.2906-.4578.6938-.4578 1.1047s.167.8141.4578 1.1047c.2922.2906.6936.4578 1.1047.4578.4125 0 .8141-.1672 1.1061-.4578.2906-.2906.458-.6938.458-1.1047s-.1672-.8141-.458-1.1047z"/><path d="m13.8058793 51.3953c-.292-.2906-.6936-.4578-1.1061-.4578-.4111 0-.8125.1672-1.1047.4578-.2906.2906-.4578.6938-.4578 1.1047s.167.8141.4578 1.1047c.2922.2906.6936.4578 1.1047.4578.4125 0 .8141-.1672 1.1061-.4578.2906-.2906.458-.6938.458-1.1047s-.1672-.8141-.458-1.1047z"/><path d="m12.6997793 59.6875c-.4111 0-.8125.1672-1.1047.4578-.2906.2906-.4578.6938-.4578 1.1047s.167.8141.4578 1.1047c.2905.2906.6936.4578 1.1047.4578.4125 0 .8156-.1672 1.1061-.4578.2906-.2906.458-.6938.458-1.1047s-.1672-.8141-.458-1.1047c-.292-.2906-.6936-.4578-1.1061-.4578z"/><path d="m41.5624793 42.1875h-22.1875c-.8628 0-1.5625.6995-1.5625 1.5625s.6997 1.5625 1.5625 1.5625h22.1875c.8628 0 1.5625-.6995 1.5625-1.5625s-.6997-1.5625-1.5625-1.5625z"/><path d="m76.7181793 20.362c-1.518-.8764-3.2864-1.1092-4.9799-.6556-1.6931.4537-3.1084 1.5397-3.9847 3.0576l-19.6628 34.0567c-.1076.1868-.1758.3938-.1997.608l-1.384 12.3975c-.0688.6169.234 1.2161.7715 1.5266.2427.14.5122.2094.7811.2094.3269 0 .6525-.1024.9267-.3044l10.0444-7.3975c.1736-.1278.3189-.2902.4266-.4769l19.6626-34.0567c1.8094-3.1338.7319-7.1553-2.4018-8.9647zm-25.9864 39.7878 4.5221 2.6109-5.245 3.8629zm6.8006.3178-5.9539-3.4375 15.7789-27.3297 5.9539 3.4375zm18.8814-32.7036-1.5402 2.6677-5.9539-3.4375 1.5402-2.6677c.459-.7951 1.2003-1.3639 2.0872-1.6015.8871-.2378 1.8134-.1157 2.6084.3434.7952.4591 1.3639 1.2003 1.6016 2.0872.2376.8869.1157 1.8133-.3433 2.6084z"/></g></svg>