<svg height="80" viewBox="0 0 80 80" width="80" xmlns="http://www.w3.org/2000/svg"><g fill-rule="evenodd" transform="translate(.006103)"><path d="m60.3133613 30.9383c0 16.2238-13.152 29.3758-29.3758 29.3758s-29.37578997-13.152-29.37578997-29.3758 13.15198997-29.3758 29.37578997-29.3758 29.3758 13.152 29.3758 29.3758zm-7.7269-.0002c0 11.9565-9.6926 21.6491-21.6491 21.6491-11.9564 0-21.64902997-9.6926-21.64902997-21.6491 0-11.9564 9.69262997-21.64904 21.64902997-21.64904 11.9565 0 21.6491 9.69264 21.6491 21.64904z" fill-opacity=".16"/><g fill-rule="nonzero"><path d="m73.5703613 77.5868 4.0058-4.0058c1.1364-1.1363 1.1364-2.9785 0-4.1147l-15.5522-15.5522-8.1205 8.1205 15.5522 15.5522c1.1361 1.1362 2.9784 1.1362 4.1147 0z" fill-opacity=".16"/><path d="m78.6828613 68.3619-15.5522-15.5522c-.6104-.6102-1.5994-.6102-2.2099 0l-.6848.6848-4.3152-4.3151c2.5178-3.4477 4.3194-7.3978 5.2375-11.5852.185-.8429-.3484-1.6761-1.1914-1.8609-.8434-.1842-1.6762.3486-1.8609 1.1915-2.7736 12.6472-14.1991 21.8266-27.1675 21.8266-15.3363 0-27.81330997-12.477-27.81330997-27.8133 0-15.3362 12.47690997-27.81294 27.81310997-27.81294 13.3431 0 24.8341 9.49784 27.3225 22.58354.1613.8477.9789 1.4044 1.8269 1.2432.8478-.1613 1.4042-.9792 1.2431-1.8269-2.7686-14.5584-15.5506-25.125-30.3925-25.125-17.0595 0-30.9382613 13.8787-30.9382613 30.9383 0 17.0595 13.8787613 30.9383 30.9382613 30.9383 6.5524 0 12.9647-2.1016 18.2335-5.9446l4.3134 4.3135-.6848.6848c-.6102.6102-.6102 1.5995 0 2.2099l15.5521 15.5521c.8719.8718 2.0171 1.3077 3.1624 1.3077 1.145 0 2.2901-.4359 3.1622-1.3077l4.0059-4.0059c1.7433-1.7436 1.7433-4.5808-.0001-6.3245zm-27.0708-14.4091c.8192-.7372 1.5967-1.5161 2.3297-2.3325l4.0843 4.0844-2.3311 2.3311zm24.8607 18.5239-4.0059 4.006c-.5253.5253-1.3797.525-1.9047 0l-14.4472-14.4472 5.9107-5.9108 14.4471 14.447c.5252.5253.5252 1.3799 0 1.905z"/><path d="m58.7523613 30.9384-.0004109.1111c-.0031891.8629.6935109 1.5653 1.5564109 1.5685h.0063c.86 0 1.5591-.6956 1.5623-1.5564l.0004-.1234c0-.863-.6997-1.5625-1.5625-1.5625-.8629 0-1.5625.6997-1.5625 1.5627z"/><path d="m20.4112613 33.9369v-8.3118h1.7597c.8628 0 1.5625-.6996 1.5625-1.5625 0-.863-.6997-1.5625-1.5625-1.5625h-6.6446c-.8628 0-1.5625.6995-1.5625 1.5625 0 .8629.6997 1.5625 1.5625 1.5625h1.7597v8.3118c0 .9703-.7893 1.7597-1.7597 1.7597-.9703 0-1.7596-.7894-1.7596-1.7597 0-.8629-.6997-1.5625-1.5625-1.5625-.8629 0-1.5625.6996-1.5625 1.5625 0 2.6935 2.1912 4.8849 4.8848 4.8849s4.8847-2.1914 4.8847-4.8849z"/><path d="m23.1736613 30.6615c0 4.5 3.6611 8.1609 8.1609 8.1609s8.1609-3.6611 8.1609-8.1609c0-4.4999-3.6612-8.1608-8.1611-8.1608-4.4998 0-8.1607 3.6608-8.1607 8.1608zm13.1967 0c0 2.7767-2.2591 5.0359-5.036 5.0359-2.7768 0-5.0359-2.259-5.0359-5.0359s2.2591-5.0358 5.0359-5.0358c2.7769 0 5.036 2.2592 5.036 5.0358z"/><path d="m46.2343613 22.5007h-3.207c-.8628 0-1.5625.6995-1.5625 1.5625v13.7503c0 .863.6997 1.5625 1.5625 1.5625h3.2069c2.757 0 5.0001-2.243 5.0001-5.0001 0-1.3308-.5236-2.5407-1.3742-3.4377.8506-.8969 1.3742-2.1067 1.3742-3.4377.0002-2.7568-2.2429-4.9998-5-4.9998zm-1.6444 3.125h1.6443c1.0339 0 1.875.8411 1.875 1.875s-.8411 1.875-1.875 1.875h-1.6443zm1.6444 10.6253h-1.6444v-3.7501h1.6443c1.0339 0 1.875.8411 1.875 1.875s-.841 1.8751-1.8749 1.8751z"/><path d="m46.1727613 17.2666c.4 0 .7997-.1526 1.1049-.4576.6101-.6102.6101-1.5995 0-2.2097-9.0096-9.00907-23.6689-9.00907-32.6785 0-.6101.6102-.6101 1.5995 0 2.2097.6102.6103 1.5993.6103 2.2099 0 7.7909-7.7908 20.4676-7.7908 28.2589 0 .3051.3051.705.4576 1.1048.4576z"/><path d="m14.5985613 45.068c-.6102.6101-.6102 1.5995 0 2.2098l.0144.0142.0071.0071c.3057.3073.7074.4612 1.1094.4612.3978 0 .796-.1509 1.1003-.4531.6122-.6077.6169-1.5956.0097-2.2081l-.0309-.0311c-.6106-.6102-1.5997-.6102-2.21 0z"/><path d="m19.4756613 51.0083c3.5668 2.0398 7.5111 3.0326 11.4319 3.0326 5.991 0 11.926-2.3184 16.3706-6.7628.6102-.6101.6102-1.5995 0-2.2098-.6101-.61-1.5992-.6102-2.2098 0-6.3591 6.359-16.2453 7.6859-24.0409 3.2273-.7493-.4284-1.7036-.1686-2.1322.5806-.4286.7491-.1686 1.7036.5804 2.1321z"/></g></g></svg>