<svg fill="none" height="48" viewBox="0 0 48 48" width="48" xmlns="http://www.w3.org/2000/svg" xmlns:xlink="http://www.w3.org/1999/xlink"><clipPath id="a"><path d="m0 0h48v48h-48z"/></clipPath><g clip-path="url(#a)" fill="#212b36"><path d="m47.9419 26.7573c-.3547-2.4574-2.2852-4.3878-4.7426-4.7425v-1.4544c0-4.0127-3.0503-7.2799-6.7998-7.2799-3.6416 0-6.6903 3.168-6.7999 7.0623h.0464l-.0464.008v15.7654c0 5.0399-3.768 9.1326-8.3999 9.1326s-8.3999-4.0983-8.3999-9.1326v-1.3656c1.16 0 2.4-.8408 2.4-3.2v-2.0119c5.1343-1.3128 8.7998-5.7215 8.7998-10.7199v-1.6679h-1.5999l-.0336-10.4119c-.0116-1.92727-1.3946-3.57284-3.2912-3.91594-.4091-1.25328-1.7568-1.937671-3.0101-1.52848-1.2533.4091-1.9377 1.75678-1.5285 3.01016.4091 1.25328 1.7568 1.93767 3.0101 1.52848.6711-.2191 1.2108-.72399 1.4741-1.37898 1.0249.29159 1.7349 1.22398 1.7432 2.28956l.036 10.4071h-1.6v1.6911c-.0638 2.7827-1.9294 5.2008-4.6047 5.9687-1.4315.4542-2.9685.4542-4.4 0-2.67221-.7705-4.53358-3.1882-4.59508-5.9687v-1.6911h-2.39997v-10.3999c.0046-1.08128.73179-2.02607 1.77598-2.30716.48689 1.23948 1.88637 1.84947 3.12585 1.36258 1.23948-.4869 1.84947-1.88647 1.36258-3.12586-.4869-1.23938-1.88647-1.84947-3.12586-1.36258-.67159.2639-1.18978.81459-1.41217 1.50108-1.91728.3276-3.32105 1.98687-3.32635 3.93194v10.3999h-1.59998v1.6639c0 5.004 3.66795 9.4143 8.79987 10.7239v2.0119c0 2.3592 1.23993 3.2 2.39993 3.2v1.3656c0 5.9199 4.4856 10.7326 9.9999 10.7326s9.9998-4.8183 9.9998-10.7326v-15.727c.08-3.036 2.4144-5.5063 5.2-5.5063 2.8671 0 5.1999 2.5471 5.1999 5.6799v1.452c-3.0611.4418-5.1843 3.2814-4.7426 6.3425.4418 3.061 3.2815 5.1843 6.3425 4.7425 3.0611-.4418 5.1844-3.2815 4.7426-6.3425zm-31.1422-22.40626c-.4417 0-.7999-.3582-.7999-.79999s.3582-.79999.7999-.79999c.4418 0 .8.3582.8.79999s-.3582.79999-.8.79999zm-9.59981-1.59998c.44179 0 .79999.3582.79999.79999s-.3582.79999-.79999.79999-.79999-.3582-.79999-.79999.3582-.79999.79999-.79999zm-5.59991 16.06374v-.064h2.39996v.0912c.06 3.4771 2.37326 6.5115 5.71031 7.4903 1.74865.5537 3.62565.5537 5.37435 0 3.3386-.9775 5.654-4.012 5.7151-7.4903v-.0912h1.6v.064c0 4.4504-3.4304 8.3663-8.1599 9.3135-1.1106.2224-2.2482.2782-3.3752.1656-.371-.036-.7398-.0918-1.10475-.1672-4.72953-.9456-8.15987-4.8615-8.15987-9.3119zm9.59982 14.3358c-.72 0-.8-1.12-.8-1.6v-1.6975c.064.008.1296.0112.1944.0176.08.0088.16.0152.24.0224.3784.0336.76.056 1.1448.0568h.04c.384 0 .7648-.0232 1.1408-.0568.08-.0072.1648-.0136.2472-.0224.0632-.0072.1288-.0096.192-.0176v1.6975c0 .48-.08 1.6-.8 1.6zm31.1996-1.6c-2.2091 0-4-1.7908-4-3.9999s1.7909-3.9999 4-3.9999c2.209 0 3.9999 1.7908 3.9999 3.9999-.0026 2.2081-1.792 3.9973-3.9999 3.9999z"/><path d="m42.3994 25.1506c-1.3255 0-2.4 1.0745-2.4 2.4s1.0745 2.4 2.4 2.4 2.3999-1.0745 2.3999-2.4-1.0744-2.4-2.3999-2.4zm0 3.2c-.4418 0-.8-.3582-.8-.8s.3582-.8.8-.8.8.3582.8.8-.3582.8-.8.8z"/></g></svg>