<svg fill="none" height="64" viewBox="0 0 64 64" width="64" xmlns="http://www.w3.org/2000/svg" xmlns:xlink="http://www.w3.org/1999/xlink"><clipPath id="a"><path d="m0 0h64v64h-64z"/></clipPath><g clip-path="url(#a)" fill="#000"><path d="m55.0047 0h-2.7516c-1.2096 0-1.2096 1.87527 0 1.87527h2.7516c2.8417 0 5.1536 2.30358 5.1536 5.13499v21.69964c0 2.8315-2.3118 5.1351-5.1536 5.1351h-3.1208c-.2059 0-.4061.0678-.5697.1929l-5.7266 4.3804v-3.6356c0-.5179-.4197-.9377-.9376-.9377h-11.4117c-.9345 0-1.8326-.2466-2.6247-.7156v-10.5255c0-1.9715-1.0042-3.7134-2.529-4.7439v-10.84974c0-2.83141 2.3119-5.13499 5.1537-5.13499h13.1389c1.2094 0 1.2094-1.87527 0-1.87527h-13.1389c-3.8758 0-7.029 3.14483-7.029 7.01026v10.02554c-.4293-.1025-.8766-.1584-1.3369-.1584h-17.16452c-3.16559 0-5.74108 2.5689-5.74108 5.7265v2.0247c0 1.2094 1.87527 1.2094 1.87527 0v-2.0247c0-2.1236 1.73412-3.8512 3.86581-3.8512h17.16462c2.1317 0 3.8659 1.7276 3.8659 3.8512v10.8988c-.0112.0828-.0107.1662 0 .2483v5.9649c0 .1179-.0071.2353-.0177.352h-1.9337c-2.1307 0-3.9069 1.5379-4.2752 3.559-.0853.0322-.1672.077-.2431.1356l-4.1937 3.238v-2.4958c0-.5178-.4197-.9377-.9376-.9377h-9.42952c-2.13169 0-3.86581-1.7276-3.86581-3.8511v-9.4615c0-1.2095-1.87527-1.2095-1.87527 0v9.4616c0 3.1576 2.57549 5.7264 5.74108 5.7264h8.49202v3.4668c0 .7521.9132 1.2033 1.5107.7422l4.73-3.6521v10.5484c0 2.3909 1.9499 4.336 4.3465 4.336h5.754v2.1879c0 .7519.9132 1.2036 1.5106.7423l3.795-2.9302h1.1212c2.3966 0 4.3465-1.9452 4.3465-4.336v-1.6648c0-1.2094-1.8753-1.2094-1.8753 0v1.6648c0 1.3569-1.1085 2.4607-2.4712 2.4607h-1.4411c-.2074 0-.4089.0688-.5729.1954l-2.5377 1.9592v-1.2171c0-.5178-.4196-.9376-.9376-.9376h-6.6916c-1.3626 0-2.4712-1.1039-2.4712-2.4607v-12.1436c0-1.3569 1.1085-2.4607 2.4712-2.4607h12.1809c1.3626 0 2.4712 1.1039 2.4712 2.4607v4.6031c0 1.2094 1.8753 1.2094 1.8753 0v-4.6029c0-2.391-1.9499-4.336-4.3465-4.336h-8.365c.0072-.1172.0108-4.853.0108-4.853.8267.3324 1.7131.5052 2.6247.5052h10.4741v4.5957c0 .7502.9093 1.2019 1.5073.7447l6.9818-5.3404h2.8032c3.8757 0 7.0289-3.1448 7.0289-7.0104v-21.69974c-.0001-3.86543-3.1533-7.01026-7.029-7.01026z"/><path d="m46.4645 6.92751c-1.1905-.30392-2.4037.63671-2.4037 1.86689 0 1.3441-.4898 2.6394-1.3786 3.6467l-2.5833 2.9233c-.1673-.2567-.4563-.4266-.7855-.4266h-5.0432c-.518 0-.9377.4198-.9377.9376v11.3473c0 .5178.4197.9376.9377.9376h5.0432c.3789 0 .7045-.2251.8524-.5484 1.021.6238 2.2042.9611 3.408.9611h8.9127c1.362 0 2.4855-1.1818 2.4216-2.5402-.0283-.6016.0027-8.6794.0027-8.8588 0-1.3367-1.0876-2.4244-2.4215-2.4244l-4.6348-.0138.1919-.4545c.877-2.0769.7326-4.48525-.3858-6.44266-.261-.45732-.686-.78074-1.1961-.91113-.5103-.13027.5101.13039 0 0-1.1904-.30392.5101.13039 0 0zm-8.0887 19.35759h-3.168v-9.472h3.168zm14.1107-9.6603c.3028 0 .5491.2463.5491.5491 0 .1784-.0019.6626-.0044 1.319-.0138 3.6246-.0231 7.0573.0037 7.6279.0097.2059-.0904.3432-.1509.4067-.1048.1097-.2459.1701-.3975.1701h-8.9127c-1.0625 0-2.1022-.3682-2.9281-1.0366l-.3947-.3196v-7.3174l3.837-4.3418c1.1917-1.3507 1.8481-3.0865 1.8481-4.88792 0-.05301.0724-.06676.0964-.02551.8304 1.45313.9374 3.24093.2864 4.78283l-.74 1.7526c-.1221.2892-.0914.6201.0815.8819.1732.2618.4657.4196.7794.4206z"/><path d="m9.99525 32.5663c-.51795 0-.93763.4198-.93763.9376s.41968.9377.93763.9377h2.76395l-.5164 3.1228c-.0845.5108.2613.9935.7721 1.078.0519.0086.1033.0128.1541.0128.4505 0 .848-.3257.924-.7849l.5668-3.4286h2.262l-.5164 3.1228c-.0845.5108.2613.9935.7721 1.078.0519.0087.1033.0128.1541.0128.4505 0 .848-.3257.924-.7849l.5668-3.4286h3.7622c.5179 0 .9376-.4198.9376-.9376 0-.5179-.4197-.9377-.9376-.9377h-3.4522l.3782-2.2873h3.074c.5179 0 .9376-.4198.9376-.9376 0-.5179-.4197-.9377-.9376-.9377h-2.7639l.5163-3.1228c.0845-.5108-.2613-.9935-.7721-1.078-.5115-.0848-.9935.2613-1.078.7721l-.5669 3.4286h-2.2619l.5163-3.1228c.0845-.5108-.2613-.9935-.7721-1.078-.5121-.0848-.9934.2612-1.078.7721l-.5669 3.4286h-3.76215c-.51795 0-.93763.4198-.93763.9376s.41968.9377.93763.9377h3.45215l-.3782 2.2873zm5.35295-2.2873h2.2619l-.3782 2.2873h-2.2619z"/><path d="m32.8659 46.7817c-.7571-.6233-1.7644-.8692-2.7748-.6236-1.2948.3145-2.6014 1.5249-2.6014 3.5201 0 1.2418.4532 2.3197 1.3855 3.2953.7615.797 1.8604 1.5549 3.5629 2.4575.1374.0729.2883.1093.4392.1093s.3018-.0364.4392-.1093c2.9702-1.5746 4.9482-3.1555 4.9482-5.7528 0-2.0061-1.3529-3.2041-2.6939-3.5016-1.0074-.2235-1.984.0138-2.7049.6051zm3.5234 2.8965c0 1.4009-.9293 2.4369-3.5121 3.8588-2.5829-1.422-3.5123-2.458-3.5123-3.8588 0-1.0424.6036-1.5605 1.1685-1.6978.1042-.0252.2157-.0395.3303-.0395.425 0 .8922.1963 1.1802.7547.1642.3178.496.5149.8519.5075.3574-.0071.6798-.2169.831-.541.3034-.6503.9415-.7647 1.4376-.6546.5923.1312 1.2249.6391 1.2249 1.6707z"/></g></svg>