<svg fill="none" height="64" viewBox="0 0 64 64" width="64" xmlns="http://www.w3.org/2000/svg" xmlns:xlink="http://www.w3.org/1999/xlink"><clipPath id="a"><path d="m0 0h64v64h-64z"/></clipPath><g clip-path="url(#a)" fill="#000"><path d="m13.1196 10.6893h16.7485c.5179 0 .9375-.4198.9375-.93751 0-.51775-.4196-.9375-.9375-.9375h-16.7485c-.5179 0-.9375.41975-.9375.9375 0 .51771.4196.93751.9375.93751z"/><path d="m17.689 16.9412c0 .5177.4197.9375.9375.9375h16.7063c.5179 0 .9375-.4198.9375-.9375 0-.5178-.4196-.9375-.9375-.9375h-16.7063c-.5178 0-.9375.4197-.9375.9375z"/><path d="m7.65501 17.8787h7.76939c.5179 0 .9375-.4198.9375-.9375 0-.5178-.4196-.9375-.9375-.9375h-7.76939c-.51787 0-.9375.4197-.9375.9375 0 .5177.41975.9375.9375.9375z"/><path d="m7.65501 22.432h17.65389c.5179 0 .9375-.4198.9375-.9375 0-.5178-.4196-.9375-.9375-.9375h-17.65389c-.51787 0-.9375.4197-.9375.9375 0 .5177.41975.9375.9375.9375z"/><path d="m7.65501 46.6968h11.24989c.5179 0 .9375-.4197.9375-.9375 0-.5177-.4196-.9375-.9375-.9375h-11.24989c-.51787 0-.9375.4198-.9375.9375 0 .5178.41975.9375.9375.9375z"/><path d="m63.5223 56.9992-2.3851-2.3848c-.366-.3663-.9596-.3662-1.3257 0-.3661.3661-.3661.9597.0001 1.3257l2.2143 2.2143-2.9298 2.9297-8.2737-8.274 2.9297-2.9297 2.9662 2.9661c.3662.3661.9597.3661 1.3258 0s.3661-.9598 0-1.3258l-3.1369-3.1367c-.4913-.4914-1.2198-.602-1.8198-.3353l-2.6055-2.6056c3.3772-4.9432 3.6002-11.408.6706-16.553.1965-.0725.4049-.1441.6276-.2161.5399-.1744.9027-.6733.9027-1.2415-.0002-.5681-.3629-1.0669-.9028-1.2413-2.4994-.8071-3.2595-1.5672-4.0665-4.0667-.1635-.5061-.6123-.8564-1.1357-.8983v-15.05934c0-.90075-.7328-1.63363-1.6336-1.63363h-1.9562v-1.95625c0-.90075-.7328-1.633621-1.6335-1.633621h-39.721c-.90075 0-1.6335.732871-1.6335 1.633621v53.74362c0 .9008.73275 1.6336 1.6335 1.6336h1.95625v1.9563c0 .9007.73275 1.6335 1.6335 1.6335h8.65175c.5179 0 .9375-.4198.9375-.9375 0-.5178-.4196-.9375-.9375-.9375h-8.41012v-1.7148h35.88942c.9007 0 1.6335-.7328 1.6335-1.6336v-5.0311c.5831-.2146 1.1558-.4645 1.7148-.7506v9.1301h-26.4526c-.5179 0-.9375.4197-.9375.9375 0 .5177.4196.9375.9375.9375h26.6941c.9008 0 1.6335-.7328 1.6335-1.6335v-10.1776l2.4128 2.4127c-.2666.6-.156 1.3284.3352 1.8198l8.6153 8.6152c.3185.3185.7369.4778 1.1552.4778.4184 0 .8367-.1593 1.1552-.4778l3.2711-3.2711c.6368-.6369.6368-1.6734-.0001-2.3103zm-13.7502-29.5666c-1.6156.7316-2.5686 1.6848-3.3 3.3001-.7316-1.6155-1.6846-2.5685-3.3-3.3001 1.6155-.7315 2.5685-1.6845 3.3-3.3001.7314 1.6156 1.6844 2.5685 3.3 3.3001zm-8.608 1.2414c2.4993.8071 3.2594 1.5672 4.0665 4.0665.1743.5397.673.9025 1.2411.9026.2553 0 .4964-.0737.7007-.2034 1.1627 3.5188.3504 7.5528-2.4439 10.347-3.9466 3.9467-10.3686 3.9467-14.3151 0-3.9466-3.9467-3.9466-10.3685 0-14.3151 1.9117-1.9119 4.4537-2.9647 7.1575-2.9647.9625 0 1.9037.1351 2.8038.394-.0727.1635-.1132.3436-.1132.5316 0 .5681.3626 1.0671.9026 1.2415zm-.0513 27.4052h-39.2378v-53.26084h39.2378v8.55784c0 .5178.4196.9375.9375.9375.5178 0 .9375-.4197.9375-.9375v-4.96797h1.7148v16.30397c-.5563-.2858-1.1286-.5381-1.7148-.7543v-6.2067c0-.5177-.4197-.9375-.9375-.9375-.5179 0-.9375.4198-.9375.9375v5.6482c-1.1483-.265-2.3343-.4034-3.5419-.4034-.473 0-.9426.022-1.4081.0632-.1569-.2983-.4694-.5021-.8299-.5021h-6.6825c-.5179 0-.9375.4198-.9375.9375 0 .5178.4196.9375.9375.9375h2.3581c-1.4514.6719-2.8016 1.5708-4.0067 2.6788h-19.3468c-.51787 0-.9375.4197-.9375.9375 0 .5177.41963.9375.9375.9375h17.6111c-1.0102 1.2871-1.7901 2.697-2.3392 4.1743h-15.2719c-.51787 0-.9375.4198-.9375.9375 0 .5178.41963.9375.9375.9375h14.7064c-.2069.882-.3364 1.7784-.3888 2.6788h-14.3176c-.51787 0-.9375.4197-.9375.9375 0 .5177.41963.9375.9375.9375h14.3203c.0548.9005.1867 1.797.3963 2.6787h-14.7166c-.51787 0-.9375.4198-.9375.9375 0 .5178.41963.9375.9375.9375h15.2879c.3467.9242.7845 1.8214 1.312 2.6788h-2.1479c-.5179 0-.9375.4197-.9375.9375 0 .5177.4196.9375.9375.9375h3.5041c.2855.3386.5865.6684.9054.9871.6293.6291 1.2996 1.1924 2.0019 1.6916h-20.8634c-.51787 0-.9375.4198-.9375.9375 0 .5178.41963.9375.9375.9375h24.3835c1.7785.67 3.6555 1.005 5.5324 1.005 1.1891 0 2.3778-.1361 3.5419-.4051zm-13.2704-9.7215c-5.3644-5.3643-5.3644-14.0927 0-19.4571 2.5986-2.5986 6.0536-4.0297 9.7285-4.0297 2.3127 0 4.5382.5671 6.5181 1.6351-.4027.4962-.9031.8594-1.5905 1.1782-1.5289-.6892-3.2004-1.0523-4.9276-1.0523-3.2047 0-6.2174 1.248-8.4834 3.514-4.6776 4.6777-4.6776 12.289 0 16.9667 2.3389 2.3389 5.4111 3.5083 8.4834 3.5083 3.0722 0 6.1445-1.1694 8.4835-3.5083 3.7432-3.7435 4.4866-9.3636 2.2382-13.8574.3197-.6472.6878-1.1215 1.1895-1.5062 3.0368 5.2602 2.3116 12.1144-2.1827 16.6087-5.3643 5.3643-14.0928 5.3643-19.457 0zm20.036 2.0243c.2545-.2235.504-.4555.7469-.6984.243-.243.4728-.494.6966-.7487l2.3619 2.362-1.4453 1.4452z"/><path d="m32.1821 31.78c0 .5177.4196.9375.9375.9375h8.8839c.5179 0 .9375-.4198.9375-.9375 0-.5178-.4196-.9375-.9375-.9375h-8.8839c-.5178 0-.9375.4197-.9375.9375z"/><path d="m30.9889 35.2711c0 .5177.4196.9375.9375.9375h11.2706c.5179 0 .9375-.4198.9375-.9375 0-.5178-.4196-.9375-.9375-.9375h-11.2706c-.5179 0-.9375.4197-.9375.9375z"/><path d="m43.197 37.8257h-11.2706c-.5179 0-.9375.4197-.9375.9375 0 .5177.4196.9375.9375.9375h11.2706c.5179 0 .9375-.4198.9375-.9375 0-.5178-.4198-.9375-.9375-.9375z"/><path d="m40.4124 41.3185h-5.7015c-.5179 0-.9375.4197-.9375.9375 0 .5177.4196.9375.9375.9375h5.7015c.5179 0 .9375-.4198.9375-.9375 0-.5178-.4196-.9375-.9375-.9375z"/><path d="m50.9966 22.0358h.8724v.8724c0 .5177.4196.9375.9375.9375.5178 0 .9375-.4198.9375-.9375v-.8724h.8723c.5179 0 .9375-.4197.9375-.9375 0-.5177-.4196-.9375-.9375-.9375h-.8723v-.8722c0-.5178-.4197-.9375-.9375-.9375-.5179 0-.9375.4197-.9375.9375v.8723h-.8724c-.5179 0-.9375.4198-.9375.9375 0 .5178.4196.9374.9375.9374z"/></g></svg>