<svg height="32" viewBox="0 0 32 32" width="32" xmlns="http://www.w3.org/2000/svg"><g fill="none" fill-rule="evenodd"><path d="m0 0h32v32h-32z"/><path d="m18.2625 13.7406c-.0125-2.1312.9531-3.7375 2.9031-4.9219-1.0906-1.5625-2.7406-2.42183-4.9156-2.58745-2.0594-.1625-4.3125 1.19995-5.1375 1.19995-.8719 0-2.8656-1.1437-4.4344-1.1437-3.23748.05-6.6781 2.5812-6.6781 7.7312 0 1.5219.27812 3.0938.83438 4.7125.74374 2.1313 3.425 7.3532 6.22192 7.2688 1.4625-.0344 2.4968-1.0375 4.4-1.0375 1.8468 0 2.8031 1.0375 4.4343 1.0375 2.8219-.0406 5.2469-4.7875 5.9532-6.925-3.7844-1.7844-3.5813-5.225-3.5813-5.3344zm-3.2844-9.53123c1.5844-1.88125 1.4407-3.59375 1.3938-4.20937-1.4.08125-3.0188.95312-3.9406 2.025-1.0157 1.15-1.6125 2.57187-1.4844 4.175 1.5125.11562 2.8937-.6625 4.0312-1.99063z" fill="#fff" fill-rule="nonzero" transform="translate(5 3)"/></g></svg>