<svg height="32" viewBox="0 0 32 32" width="32" xmlns="http://www.w3.org/2000/svg" xmlns:xlink="http://www.w3.org/1999/xlink"><linearGradient id="a" x1="61.032716%" x2="20.141554%" y1="4.946758%" y2="26.052358%"><stop offset="0" stop-color="#00a0ff"/><stop offset=".007" stop-color="#00a1ff"/><stop offset=".26" stop-color="#00beff"/><stop offset=".512" stop-color="#00d2ff"/><stop offset=".76" stop-color="#00dfff"/><stop offset="1" stop-color="#00e3ff"/></linearGradient><linearGradient id="b" x1="107.594399%" x2="-130.516177%" y1="50.006978%" y2="50.006978%"><stop offset="0" stop-color="#ffe000"/><stop offset=".409" stop-color="#ffbd00"/><stop offset=".775" stop-color="#ffa500"/><stop offset="1" stop-color="#ff9c00"/></linearGradient><linearGradient id="c" x1="86.244983%" x2="-9.217441%" y1="30.900356%" y2="154.752994%"><stop offset="0" stop-color="#ff3a44"/><stop offset="1" stop-color="#c31162"/></linearGradient><linearGradient id="d" x1="-18.804945%" x2="23.7837%" y1="-11.82203%" y2="43.458785%"><stop offset="0" stop-color="#32a071"/><stop offset=".069" stop-color="#2da771"/><stop offset=".476" stop-color="#15cf74"/><stop offset=".801" stop-color="#06e775"/><stop offset="1" stop-color="#00f076"/></linearGradient><g fill="none" fill-rule="evenodd"><path d="m0 0h32v32h-32z"/><g transform="translate(3 2)"><path d="m.49574.42546931c-.3148.33834-.49574.85908-.49574 1.53576v24.06896999c0 .6766.18094 1.1974.5075 1.5239l.08532.0721 13.48638-13.4863v-.3031l-13.49814-13.48340999z" fill="url(#a)"/><path d="m18.5658 18.6529993-4.4984-4.4998v-.3148l4.4999-4.49989999.097.0603 5.3222 3.02439999c1.524.8591 1.524 2.2742 0 3.1451l-5.3222 3.0244c-.0014 0-.0985.0603-.0985.0603z" fill="url(#b)"/><path d="m18.6628 18.5926993-4.5955-4.597-13.57169 13.5717c.49573.5325 1.3298.5928 2.26243.0721z" fill="url(#c)"/><path d="m18.6628 9.40019931-15.90476-9.03503c-.93116-.532514-1.7667-.460434-2.26243.07208l13.57019 13.55844999z" fill="url(#d)"/></g></g></svg>