<svg fill="none" height="32" viewBox="0 0 32 32" width="32" xmlns="http://www.w3.org/2000/svg"><path d="m22.9057 5.53027h-14.79248c-1.1671 0-2.11322.94612-2.11322 2.11322v20.07551c0 1.1671.94612 2.1133 2.11322 2.1133h14.79248c1.1671 0 2.1132-.9462 2.1132-2.1133v-20.07551c0-1.1671-.9461-2.11322-2.1132-2.11322z" fill="#fa541c"/><path d="m7.75 7.95703h15.7501v20.12507h-15.7501z" fill="#fdab76"/><path d="m19.5625 25.4571h-11.8125v-17.50007h15.7501v13.89707z" fill="#fee9d1"/><path d="m17.6209 5.00185v-1.0566c0-.56046-.2227-1.09797-.619-1.49427-.3963-.39631-.9338-.61895-1.4942-.61895-.5605 0-1.098.22264-1.4943.61895-.3963.3963-.619.93381-.619 1.49427v1.0566h-2.1132l-1.0566 1.58492v1.58491h10.5661v-1.58491l-1.0566-1.58492z" fill="#ffab00"/><path d="m14.9824 3.41699h1.0566v1.05661h-1.0566z" fill="#b76e00"/><path d="m20 25.6552v-3.6982h3.6981z" fill="#fa541c"/><path d="m15.5125 21.3791c-1.3845-.4616-2.5888-1.347-3.4421-2.531-.8534-1.184-1.3126-2.6064-1.3126-4.0659v-2.3843c1.3828 0 2.7396-.3758 3.9253-1.0872l.8294-.4977.8295.4977c1.1857.7114 2.5425 1.0872 3.9253 1.0872v2.3843c0 1.4595-.4592 2.8819-1.3126 4.0659-.8533 1.184-2.0576 2.0694-3.4422 2.531z" fill="#e6dbfe"/><path d="m15.5066 17.1527c-.082 0-.1629-.0191-.2363-.0558-.0733-.0366-.1372-.0899-.1864-.1555l-1.5849-2.1132.8453-.634 1.1623 1.5497 4.3321-5.77613.8453.63393-4.7548 6.3397c-.0492.0656-.113.1189-.1864.1555-.0733.0367-.1542.0558-.2362.0558z" fill="#754ffe"/><g fill="#fa541c"><path d="m9.69824 20.8516h2.64156v1.0566h-2.64156z"/><path d="m9.69824 22.9644h3.69816v1.0566h-3.69816z"/></g></svg>