<svg fill="none" height="32" viewBox="0 0 32 32" width="32" xmlns="http://www.w3.org/2000/svg"><path d="m30 15.832c0 7.7321-6.2681 14-14 14-7.73208 0-14-6.2679-14-14 0-7.73205 6.26792-13.99997 14-13.99997 7.7319 0 14 6.26792 14 13.99997z" fill="#fdab76"/><path d="m19.6878 7.4422c-.1592-.61524-.8383-1.48746-3.4112-1.48746-3.9751 0-4.5412.58875-5.599-.42789-.89255-.85769-1.41678 3.27036-.2267 4.58135-.50221 1.8568-.1004 3.7166-.1004 3.7166h11.1842c-.0002 0 .9385-4.34421-1.8469-6.3826z" fill="#b3200e"/><g fill="#fee9d1"><path d="m11.4777 14.0203s-.4822-.8831-1.4465-.8831-1.64747 4.2396 1.4465 3.5329z"/><path d="m20.4023 14.0203s.4822-.8831 1.4465-.8831c.9645 0 1.6475 4.2396-1.4465 3.5329z"/><path d="m15.9393 8.33887c-7.38798 0-5.97551 12.11673 0 12.11673 5.9752 0 7.3879-12.11673 0-12.11673z"/></g><path d="m13.2823 7.0632c-1.4154.09856-1.9013.13239-2.6049-.54363-.4576-.43985-.81777.43195-.90023 1.56223-.11365-1.52869.31363-3.11869.90023-2.55494.7036.6761 1.1896.64228 2.6054.54376.7131-.04962 1.6621-.11565 2.9936-.11565 2.5731 0 3.2522.872 3.4112 1.48745 1.8664 1.36548 2.0604 3.76468 1.9856 5.20068-.0761-1.3881-.5042-3.12426-1.9856-4.20819-.159-.61544-.8381-1.48745-3.4112-1.48745-1.3318 0-2.2809.06608-2.9941.11574z" fill="#b3200e"/><path d="m10.918 13.4184c0-6.4478 5.0252-5.73878 5.0252-5.73878s5.0251-.70902 5.0251 5.73878c0 0-.6325-2.665-2.0843-3.3917-.3101-.15532-.53-.05892-.872.0909-.4035.1769-.9769.4282-2.0688.4282s-1.6653-.2513-2.0688-.4282c-.342-.14982-.562-.24623-.8721-.0909-1.4516.7267-2.0843 3.3917-2.0843 3.3917z" fill="#b3200e"/><path d="m26.1114 25.5179c-.3591-.8799-1.0886-1.5853-2.0309-1.895l-4.5399-1.4918c-.4283-.1407-.7193-.5387-.7233-.9897l-.0163-1.8333c-.7588.6832-1.7034 1.1066-2.808 1.1164-1.1045.0096-2.0564-.3971-2.8274-1.0666l.0156 1.769c.0041.4578-.2886.8656-.7237 1.0085l-4.53822 1.4883c-.94015.3085-1.66904 1.0107-2.02963 1.8876 2.54852 2.6622 6.13765 4.3203 10.11415 4.3203 3.973 0 7.5593-1.6554 10.1076-4.3137z" fill="#fa541c"/><path d="m15.8317 26.1037c2.3278 0 4.3135-1.4612 5.0925-3.5161l-1.3892-.4565c-.4283-.1407-.7192-.5389-.7231-.9897l-.0162-1.8333c-.759.6832-1.7034 1.1066-2.8081 1.1164-1.1046.0096-2.0565-.3971-2.8273-1.0666l.0156 1.769c.0041.4578-.2886.8656-.7237 1.0085l-1.6749.5492c.8041 2.0036 2.7633 3.4191 5.0544 3.4191z" fill="#fee9d1"/><path d="m16 2.92578c7.5486 0 13.701 5.97482 13.9883 13.45312.007-.1816.0117-.3636.0117-.5469 0-7.73184-6.2681-13.99997-14-13.99997-7.73208 0-14 6.26813-14 13.99997 0 .1833.00449.3653.01154.5469.28732-7.4783 6.43967-13.45312 13.98846-13.45312z" fill="#fa541c"/></svg>