<svg fill="none" height="32" viewBox="0 0 32 32" width="32" xmlns="http://www.w3.org/2000/svg"><path d="m26.9944 15.8136 1.3823-.5589c1.315-.5322 1.961-2.0201 1.4518-3.3442l-3.2358-8.41176c-.5178-1.34148-2.0251-2.00915-3.3666-1.49131-.019.00735-.0379.01488-.0567.02266l-16.16727 6.702c-1.29381.53791-1.92984 2.00331-1.43924 3.31581l.65091 1.7358 1.09257 2.9942h16.39343z" fill="#e6dbfe"/><g fill="#754ffe"><path d="m9.78951 13.785-1.02218-2.5554 4.08867-2.04437 1.0222 2.55547z"/><path d="m21.861 11.3006 4.5995-2.0453.3918.8811-4.5995 2.0453z"/><path d="m18.7878 10.2807 6.6437-3.06634.4039.87511-6.6438 3.06633z"/><path d="m28.3717 15.2545c.0429-.0173.079-.0438.1205-.0631-.1292-1.2882-1.2126-2.2695-2.5072-2.271h-20.10219l.32401.8645 1.0945 2.9928h16.39338l3.2946-.9643z" opacity=".24"/></g><path d="m4.53133 13.8853h20.49177c1.398 0 2.5313 1.1333 2.5313 2.5313v10.8486c0 1.398-1.1333 2.5313-2.5313 2.5313h-20.49177c-1.39802 0-2.53133-1.1333-2.53133-2.5313v-10.8486c0-1.398 1.13331-2.5313 2.53133-2.5313z" fill="#fa541c"/><path d="m20.3225 28.3497c-1.5977 0-2.8929-1.2952-2.8929-2.893s1.2952-2.893 2.8929-2.893c1.5978 0 2.893 1.2952 2.893 2.893-.0016 1.5971-1.2959 2.8914-2.893 2.893zm0-4.8216c-1.0651 0-1.9286.8634-1.9286 1.9286 0 1.0651.8635 1.9286 1.9286 1.9286 1.0652 0 1.9287-.8635 1.9287-1.9286 0-1.0652-.8635-1.9286-1.9287-1.9286z" fill="#fdab76"/><path d="m23.2151 28.3497c-1.5978 0-2.893-1.2952-2.893-2.893s1.2952-2.893 2.893-2.893c1.5977 0 2.8929 1.2952 2.8929 2.893-.0015 1.5971-1.2958 2.8914-2.8929 2.893zm0-4.8216c-1.0652 0-1.9286.8634-1.9286 1.9286 0 1.0651.8634 1.9286 1.9286 1.9286 1.0651 0 1.9286-.8635 1.9286-1.9286 0-1.0652-.8635-1.9286-1.9286-1.9286z" fill="#fdab76"/><path d="m2 16.7778h25.5544v3.8573h-25.5544z" fill="#fdab76"/></svg>