<svg fill="none" height="32" viewBox="0 0 32 32" width="32" xmlns="http://www.w3.org/2000/svg"><path d="m30.0013 10.0249v11.6137c0 .7353-.4084 1.3952-1.0655 1.7238l-12.3698 6.268c-.2695.1339-.5642.2012-.8583.2012h-.0121c-.3028-.0022-.6052-.0743-.8796-.2176l-.0049-.0027-11.77729-6.2506c-.63747-.334-1.03381-.9879-1.03381-1.7079v-11.6421c0-.32861.08198-.64242.23183-.91904.17933-.33022.45486-.60684.80203-.78836l11.78214-6.25326c.5455-.28482 1.1994-.29084 1.75-.01641l.0055.00219 12.3643 6.26529c.3631.18152.6501.46416.8338.80477.1497.27607.2317.58989.2317.91902z" fill="#fdab76"/><path d="m29.9985 10.025v11.6137c0 .7353-.4083 1.3952-1.0655 1.7237l-12.3698 6.2681c-.2695.1339-.5642.2012-.8583.2012h-.012v-13.7711l14.0739-6.95464c.1498.27607.2317.58988.2317.91904z" fill="#fa541c"/><path d="m29.7701 9.10605-6.2675 3.09715-1.5417.7621-6.2647 3.0954-13.46378-6.96886c.17933-.33022.45486-.60685.80203-.78836l5.05107-2.68107 1.75112-.9294 4.97996-2.64279c.275-.14378.5773-.21652.8796-.21816.2985-.00164.597.06563.8704.20175l.0054.00219 12.3644 6.26529c.363.18152.65.46416.8337.80476z" fill="#fee9d1"/><path d="m23.5361 12.4364v.0006 4.3129c0 .4527-.3674.8201-.8201.8201-.4526 0-.8201-.3674-.8201-.8201v-3.8187l-6.2007-3.28133-7.61073-4.0276 1.75112-.9294 5.85961 3.10093 7.4046 3.9183c.0011.0005.0022.0011.0033.0016.0158.0088.0311.0186.0465.0279.0082.0049.0169.0098.0251.0153l.0006.0006c.0639.0432.1202.0945.1678.1514.0022.0027.0044.0049.006.0071.012.0142.0224.0295.0334.0443.0049.0071.0104.0137.0153.0213.0076.011.0137.0225.0208.0339.0071.0121.0147.0241.0213.0367.0038.0071.0071.0142.0104.0213.0087.0175.0169.035.0246.0531.0011.0027.0016.0049.0027.0071.0093.0229.017.0459.0236.0694.0153.0487.0257.0995.0306.152.0027.0272.0043.054.0043.0813z" fill="#fdab76"/><path d="m23.5337 12.4371v.0005 4.313c0 .4527-.3674.8201-.8201.8201-.4526 0-.82-.3674-.82-.8201v-3.7537l1.6051-.7933c.0153.0487.0257.0995.0306.152.0028.0273.0044.0541.0044.0815z" fill="#b3200e"/></svg>