<svg fill="none" height="32" viewBox="0 0 106 32" width="106" xmlns="http://www.w3.org/2000/svg" xmlns:xlink="http://www.w3.org/1999/xlink"><mask id="a" height="32" maskUnits="userSpaceOnUse" width="106" x="0" y="0"><path d="m0 0h106v32h-106z" fill="#919eab"/></mask><g mask="url(#a)"><path clip-rule="evenodd" d="m54.8326 15.3252c-.7943 0-1.3668.2627-1.9474.5303v6.0551c.5561.0534.8749.0534 1.4025.0534 1.9065 0 2.1678-.8804 2.1678-2.1098v-2.892c0-.9078-.2987-1.637-1.6229-1.637zm-12.6634-.3305c-1.3228 0-1.6246.7323-1.6246 1.6393v.5096h3.2475v-.5096c0-.907-.3019-1.6393-1.6229-1.6393zm-24.5281 6.3025c0 .7175.3357 1.0902 1.0766 1.0902.7947 0 1.2653-.2613 1.8455-.5298v-1.4364h-1.7378c-.8228 0-1.1843.1545-1.1843.876zm49.5047-5.972c-1.325 0-1.7841.7292-1.7841 1.637v3.3132c0 .9101.4591 1.6415 1.7841 1.6415 1.3214 0 1.784-.7314 1.784-1.6415v-3.3132c-.0004-.9078-.463-1.637-1.784-1.637zm-55.9981 9.687h-3.89492v-9.507h-1.94614v-3.2759h1.94658v-1.9674c0-2.67291 1.0984-4.2619 4.22038-4.2619h2.5993v3.27676h-1.6246c-1.2155 0-1.2957.45797-1.2957 1.31244l-.0049 1.6397h2.943l-.3441 3.2759h-2.5989zm13.3127.0247h-3.2462l-.1403-.8279c-1.4822.8279-2.805.9621-3.6776.9621-2.3807 0-3.6479-1.6038-3.6479-3.8218 0-2.6167 1.4787-3.5506 4.1238-3.5506h2.6924v-.5658c0-1.3357-.1519-1.7277-2.1888-1.7277h-3.3304l.3255-3.2759h3.6402c4.4693 0 5.4493 1.4238 5.4493 5.0301zm11.0374-9.2915c-2.0201-.3493-2.6002-.4261-3.5722-.4261-1.7457 0-2.2733.3884-2.2733 1.8836v2.8282c0 1.4951.5276 1.8853 2.2733 1.8853.972 0 1.5521-.0781 3.5722-.4288v3.1955c-1.7694.4001-2.9221.5051-3.8963.5051-4.1817 0-5.8437-2.2176-5.8437-5.4211v-2.2948c0-3.2063 1.662-5.4279 5.8437-5.4279.9742 0 2.1269.1055 3.8963.5073zm12.1876 4.0217h-7.1425v.264c0 1.4951.528 1.8853 2.2734 1.8853 1.569 0 2.5267-.0781 4.5432-.4288v3.1955c-1.9448.4001-2.9582.5051-4.866.5051-4.1822 0-5.8451-2.2175-5.8451-5.4211v-2.6239c0-2.8031 1.2337-5.0988 5.5192-5.0988 4.2854 0 5.5178 2.2692 5.5178 5.0988zm12.6625.0606c0 3.0962-.8776 5.3547-6.1938 5.3547-1.9198 0-3.0458-.1702-5.1647-.4989v-17.6993l3.8936-.65509v6.19119c.8415-.3152 1.9305-.4755 2.9216-.4755 3.8941 0 4.5428 1.7605 4.5428 4.5896zm12.4813.0673c0 2.6711-1.0935 5.2618-5.6688 5.2618-4.5775 0-5.6914-2.5907-5.6914-5.2618v-2.579c0-2.6724 1.1139-5.2636 5.6914-5.2636 4.5753 0 5.6688 2.5912 5.6688 5.2636zm12.4741 0c0 2.671-1.0948 5.2617-5.6692 5.2617-4.5775 0-5.6915-2.5907-5.6915-5.2617v-2.5791c0-2.6724 1.114-5.2635 5.6915-5.2635 4.5744 0 5.6692 2.5911 5.6692 5.2635zm12.8007 5.1171h-4.2204l-3.5695-6.0089v6.0089h-3.8949v-18.02846l3.8949-.65509v11.60605l3.5695-5.7054h4.2204l-3.8967 6.2262zm-18.4845-9.6869c-1.3228 0-1.7818.7291-1.7818 1.637v3.3131c0 .9101.459 1.6415 1.7818 1.6415 1.3211 0 1.7886-.7314 1.7886-1.6415v-3.3131c0-.9079-.4675-1.637-1.7886-1.637zm20.7045 7.4448c.656 0 1.178.5393 1.178 1.2128 0 .6838-.523 1.2172-1.183 1.2172-.6572 0-1.1902-.5334-1.1902-1.2172 0-.6735.533-1.2128 1.1902-1.2128zm-.005.1885c-.5285 0-.9608.4584-.9608 1.0242 0 .576.4328 1.0286.9658 1.0286.533.0054.959-.4526.959-1.0232 0-.5707-.426-1.0296-.959-1.0296zm-.221 1.73h-.2134v-1.3533c.1122-.0157.2194-.0314.3794-.0314.203 0 .336.0431.417.1019.079.0597.121.1508.121.2797 0 .1787-.116.286-.26.3296v.0103c.117.022.197.1289.224.3278.031.2105.063.2909.084.3349h-.224c-.031-.044-.064-.1675-.09-.3457-.032-.172-.118-.2366-.289-.2366h-.148zm-.003-.7489h.155c.176 0 .325-.0651.325-.2326 0-.1185-.085-.2366-.325-.2366-.07 0-.118.0054-.155.0103z" fill="#1877f2" fill-rule="evenodd"/></g></svg>