<svg fill="none" height="32" viewBox="0 0 106 32" width="106" xmlns="http://www.w3.org/2000/svg" xmlns:xlink="http://www.w3.org/1999/xlink"><mask id="a" height="32" maskUnits="userSpaceOnUse" width="106" x="0" y="0"><path d="m0 0h106v32h-106z" fill="#919eab"/></mask><g mask="url(#a)"><path d="m28.6454 3h-18.368c-1.28001 0-2.30401 1.024-2.30401 2.304v20.992c0 1.28 1.024 2.304 2.30401 2.304h18.368c1.28 0 2.304-1.024 2.304-2.304v-20.992c0-1.28-1.024-2.304-2.304-2.304zm1.024 23.296c0 .576-.448 1.024-1.024 1.024h-18.368c-.57601 0-1.02401-.448-1.02401-1.024v-20.992c0-.576.448-1.024 1.02401-1.024h18.368c.576 0 1.024.448 1.024 1.024zm-15.936-1.536 2.88-2.56-2.88-2.56zm10.368-10.368c-.512-.512-1.472-1.152-3.072-1.152-1.728 0-3.52.448-4.8.896v-7.296h-2.496v11.072l1.792-.832s2.944-1.344 5.504-1.344c1.28 0 1.6.704 1.6 1.344v7.68h2.56v-7.68c0-.192 0-1.6-1.088-2.688zm-3.392-3.392h2.56c1.152-1.344 1.728-2.688 1.92-4.16h-2.56c-.256 1.472-.896 2.816-1.92 4.16zm70.7201 6.016v-5.696h2.56v5.632c0 1.28.448 1.92 1.472 1.92s1.408-.576 1.408-1.92v-5.632h2.496v5.696c0 2.496-1.216 3.968-3.968 3.968s-3.968-1.472-3.968-3.968zm-10.752-5.632h2.56v3.456l2.624-3.456h2.944l-3.2 3.712 3.456 5.76h-2.88l-2.24-3.776-.704.832v2.944h-2.56zm-12.16 4.672c0-3.456 2.368-4.928 4.672-4.928s4.672 1.472 4.672 4.928-2.368 4.928-4.672 4.928-4.672-1.408-4.672-4.928zm6.72 0c0-1.728-.768-2.816-2.112-2.816s-2.112 1.088-2.112 2.816.768 2.88 2.112 2.88 2.112-1.088 2.112-2.88zm-17.024-4.672h3.712c2.432 0 3.904.832 3.904 3.072 0 1.472-.64 2.368-1.856 2.752l1.984 3.648h-2.688l-1.856-3.264h-.704v3.264h-2.496zm3.648 4.224c1.024 0 1.536-.32 1.536-1.088s-.448-1.088-1.536-1.088h-1.088v2.176zm-13.4401-4.224h6.7841v2.112h-4.2241v1.536h3.0081v1.984h-3.0081v1.728h4.4161v2.048h-6.9761zm-11.584 0h2.56v3.52h3.136v-3.52h2.56v9.472h-2.56v-3.84h-3.136v3.84h-2.56z" fill="#430098"/></g></svg>