<svg fill="none" height="32" viewBox="0 0 106 32" width="106" xmlns="http://www.w3.org/2000/svg" xmlns:xlink="http://www.w3.org/1999/xlink"><mask id="a" height="32" maskUnits="userSpaceOnUse" width="106" x="0" y="0"><path d="m0 0h106v32h-106z" fill="#919eab"/></mask><g fill="#212b36" mask="url(#a)"><path d="m103.825 19.5554c-.318 0-.576.258-.576.5756 0 .3177.258.5756.576.5756.317 0 .575-.2579.575-.5756 0-.3176-.258-.5756-.575-.5756zm0 1.06c-.268 0-.485-.2179-.485-.4844 0-.2677.218-.4843.485-.4843s.485.2178.485.4843-.218.4844-.485.4844zm.187-.5829c0-.1047-.074-.1668-.184-.1668h-.184v.5245h.09v-.1898h.099l.095.1898h.097l-.104-.2092c.056-.0256.091-.0768.091-.1485zm-.187.0864h-.089v-.174h.089c.06 0 .097.0304.097.0864 0 .0572-.038.0876-.097.0876zm-69.3565-6.3889v-1.3921h-2.1344v8.2823h2.1344v-4.9662c0-.8993.5769-1.3411 1.4762-1.3411h1.1682v-1.975h-.9979c-.7812 0-1.4603.4076-1.6465 1.3921zm4.6438-4.66805c-.7301 0-1.2899.57683-1.2899 1.30695 0 .7131.5598 1.29 1.2899 1.29.7302 0 1.29-.5769 1.29-1.29-.0001-.73015-.5598-1.30695-1.29-1.30695zm-1.0648 11.55825h2.1296v-8.2823h-2.1296zm12.2739-4.1412c0 2.3645-1.9167 4.2812-4.2812 4.2812-.9541 0-1.8193-.3127-2.5129-.8409v3.1324h-2.1296v-10.7138h2.1296v.7009c.6936-.5281 1.5588-.8409 2.5129-.8409 2.3645 0 4.2812 1.9167 4.2812 4.2811zm-2.143 0c0-1.2838-1.0417-2.3255-2.3256-2.3255-1.2838 0-2.3255 1.0417-2.3255 2.3255 0 1.2839 1.0417 2.3256 2.3255 2.3256 1.2839 0 2.3256-1.0405 2.3256-2.3256zm39.1568-.7264-1.2425-.3408c-.8177-.213-1.1353-.4636-1.1353-.8956 0-.4211.4478-.7156 1.0879-.7156.6097 0 1.0879.3992 1.0879.9103v.0474h1.9629v-.0474c0-1.503-1.2254-2.513-3.0508-2.513-1.8071 0-3.1202 1.0088-3.1202 2.3998 0 1.0818.7168 1.8971 1.9678 2.2354l1.1901.325c.9042.2506 1.2401.5281 1.2401 1.0259 0 .5245-.4856.8773-1.2085.8773-.7533 0-1.2607-.477-1.2607-1.1852v-.0475h-2.0834v.0475c0 1.6988 1.3679 2.8865 3.3271 2.8865 1.8875 0 3.2577-1.1597 3.2577-2.7563 0-.7837-.3505-1.8083-2.0201-2.2537zm-29.4592-3.4147h2.1296v8.2823h-2.1296v-.7009c-.6936.5281-1.5589.8409-2.5129.8409-2.3645 0-4.2811-1.9167-4.2811-4.2812s1.9166-4.2811 4.2811-4.2811c.954 0 1.8193.3127 2.5129.8409zm0 4.1411c0-1.285-1.0417-2.3255-2.3255-2.3255-1.2839 0-2.3255 1.0417-2.3255 2.3255 0 1.2839 1.0416 2.3256 2.3255 2.3256 1.285 0 2.3255-1.0405 2.3255-2.3256zm9.8194-7.08849h2.1296v11.23089h-2.1296v-.7009c-.6937.5281-1.5589.8409-2.513.8409-2.3645 0-4.2811-1.9167-4.2811-4.2812s1.9166-4.2811 4.2811-4.2811c.9541 0 1.8193.3128 2.513.8409zm0 7.08849c0-1.2838-1.0418-2.3255-2.3256-2.3255s-2.3255 1.0417-2.3255 2.3255c0 1.2839 1.0404 2.3256 2.3255 2.3256 1.2838 0 2.3256-1.0405 2.3256-2.3256zm12.017 4.1412h2.1296v-8.2823h-2.1296zm1.0648-11.55825c-.7301 0-1.2899.57683-1.2899 1.30695 0 .7131.5598 1.29 1.2899 1.29.7302 0 1.29-.5769 1.29-1.29 0-.73015-.5598-1.30695-1.29-1.30695zm17.7829 7.41705c0 2.3645-1.9166 4.2812-4.2812 4.2812-2.3644 0-4.2811-1.9167-4.2811-4.2812 0-2.3644 1.9167-4.2811 4.2811-4.2811 2.3646 0 4.2812 1.9167 4.2812 4.2811zm-1.9556 0c0-1.2838-1.0417-2.3255-2.3255-2.3255-1.2839 0-2.3256 1.0417-2.3256 2.3255 0 1.2839 1.0405 2.3256 2.3256 2.3256 1.2838 0 2.3255-1.0405 2.3255-2.3256zm-71.3955-7.08849v1.89959h3.024v9.3301h2.1224v-9.3301h3.024v-1.89959zm49.4824 8.96139-1.8947-6.014h-2.2367l2.8415 8.2823h2.5628l2.8585-8.2823h-2.2367zm26.9886-4.6219v-1.3921h-2.1342v8.2823h2.1342v-4.9662c0-.8993.577-1.3411 1.476-1.3411h1.169v-1.975h-.998c-.782 0-1.459.4076-1.647 1.3921z"/><path clip-rule="evenodd" d="m6.15564 16.736c0 1.5016 1.21688 2.7185 2.71858 2.7185 1.50168 0 2.71858-1.2169 2.71858-2.7185 0-1.5017-1.2169-2.7187-2.71858-2.7187-1.50167 0-2.71858 1.217-2.71858 2.7187zm2.71858 1.425c.78733 0 1.42498-.6377 1.42498-1.425 0-.7874-.63765-1.4263-1.42498-1.4251-.78733 0-1.42501.6377-1.42501 1.4251 0 .7873.63768 1.425 1.42501 1.425z" fill-rule="evenodd"/><path d="m9.87452 12.6763c1.71708.6559 3.01798 2.1917 3.01798 3.9806 0-1.7889 1.3009-3.3234 3.0167-3.9806-.9285-.3882-1.9483-.6036-3.0179-.6036-1.0697 0-2.0883.2154-3.01678.6036z"/><g clip-rule="evenodd" fill-rule="evenodd"><path d="m14.1909 16.736c0 1.5016 1.2169 2.7185 2.7186 2.7185s2.7186-1.2169 2.7186-2.7185c0-1.5017-1.2169-2.7187-2.7186-2.7187s-2.7186 1.217-2.7186 2.7187zm1.2936-.0013c0-.7873.6377-1.425 1.425-1.425.7874 0 1.425.6389 1.425 1.425 0 .7874-.6376 1.425-1.425 1.425-.7873 0-1.425-.6376-1.425-1.425z"/><path d="m23.7828 15.8914c0 6.0152-4.8762 10.8914-10.8914 10.8914-6.01515 0-10.8914-4.8762-10.8914-10.8914 0-6.01515 4.87625-10.8914 10.8914-10.8914 6.0152 0 10.8914 4.87625 10.8914 10.8914zm-2.8501-3.5546-1.3143 1.4299c.8056.7338 1.3106 1.7925 1.3094 2.9693 0 2.2184-1.801 4.017-4.0195 4.017-1.0538 0-2.0127-.4052-2.7295-1.0697l-1.2875 1.4007-1.2875-1.4019c-.7168.6644-1.67692 1.0709-2.73077 1.0709-2.21844 0-4.01707-1.7986-4.01707-4.017 0-1.1756.50502-2.2343 1.31061-2.9693l-1.31428-1.4299h2.92182c1.45666-.9954 3.21389-1.5772 5.11719-1.5772 1.9056 0 3.6678.5805 5.1268 1.5772z"/></g></g></svg>