<svg fill="none" height="64" viewBox="0 0 64 64" width="64" xmlns="http://www.w3.org/2000/svg"><g fill="#02665b"><path d="m63.6338 11.7395-11.375-11.373375c-.2344-.234375-.5523-.366125-.8838-.366125h-37.125c-2.0677 0-3.75 1.68225-3.75 3.75v2.383c-6.14062 2.40875-10.5 8.3939-10.5 15.3784 0 .6902.55975 1.25 1.25 1.25h15.2614c.6902 0 1.25-.5598 1.25-1.25v-15.2614c0-.69025-.5598-1.25-1.25-1.25-1.2048 0-2.3793.13087-3.5114.37712v-1.62712c0-.68925.5608-1.25 1.25-1.25h35.875v7.625c0 2.0677 1.6823 3.75 3.75 3.75h7.625v46.375c0 .6893-.5607 1.25-1.25 1.25h-46c-.6892 0-1.25-.5607-1.25-1.25v-10.7084c0-.6902-.5597-1.25-1.25-1.25s-1.25.5598-1.25 1.25v10.7084c0 2.0677 1.6823 3.75 3.75 3.75h46c2.0677 0 3.75-1.6823 3.75-3.75v-47.6266c0-.3315-.1317-.6495-.3662-.8839zm-48.3726-4.18412v12.70602h-12.70595c.59762-6.731 5.97512-12.1084 12.70595-12.70602zm38.6138 3.81962c-.6893 0-1.25-.5608-1.25-1.25v-5.8575l7.1085 7.1075z"/><path d="m12.6336 44.1162c-.2324-.2326-.5549-.3662-.8836-.3662s-.6512.1336-.8837.3662c-.2326.2325-.3663.555-.3663.8838s.1336.6512.3663.8836c.2325.2326.555.3664.8837.3664s.6512-.1338.8836-.3664c.2327-.2324.3664-.5548.3664-.8836s-.1337-.6513-.3664-.8838z"/><path d="m20.9883 9.47794c-.6902 0-1.25.55976-1.25 1.24996v14.0113h-14.01122c-.69025 0-1.25.5597-1.25 1.25 0 9.1044 7.40692 16.5114 16.51122 16.5114 9.1044 0 16.5114-7.407 16.5114-16.5114s-7.407-16.51126-16.5114-16.51126zm1.25 2.55536c2.9263.2598 5.5964 1.4235 7.7295 3.2088l-7.7295 7.7293zm-1.25 27.9673c-7.3046 0-13.32172-5.6187-13.95584-12.7614h13.95584c.345 0 .6573-.1398.8835-.3658-.0002.0003.0002-.0001 0 0l9.8642-9.8638c2.0363 2.4333 3.2637 5.5658 3.2637 8.9796 0 7.7259-6.2855 14.0114-14.0114 14.0114z"/><path d="m54.7589 39.4502c-2.0678 0-3.75 1.6823-3.75 3.75 0 .5183.1057 1.0121.2966 1.4615l-7.2016 7.2016c-.4949-.2411-1.0504-.3767-1.6369-.3767-.5726 0-1.1154.1295-1.6012.3599l-4.7823-4.7823c.1658-.423.2578-.8828.2578-1.3641 0-2.0677-1.6823-3.75-3.75-3.75-2.0678 0-3.75 1.6823-3.75 3.75 0 .5602.1243 1.0918.3456 1.5696l-4.5869 4.5869c-.4886-.2338-1.0354-.3649-1.6121-.3649-2.0678 0-3.75 1.6823-3.75 3.75 0 2.0678 1.6822 3.75 3.75 3.75 2.0677 0 3.75-1.6822 3.75-3.75 0-.5796-.1323-1.1288-.368-1.6192l4.5612-4.5613c.5009.2485 1.0644.3889 1.6604.3889.6731 0 1.3048-.1791 1.8514-.4909l4.6474 4.6474c-.239.4931-.3733 1.0461-.3733 1.63 0 2.0677 1.6823 3.75 3.75 3.75 2.0678 0 3.75-1.6823 3.75-3.75 0-.5698-.1282-1.11-.3566-1.594l7.1344-7.1344c.5261.2818 1.1267.442 1.7641.442 2.0677 0 3.75-1.6822 3.75-3.75 0-2.0677-1.6823-3.75-3.75-3.75zm-31.7711 17.0416c-.6893 0-1.25-.5607-1.25-1.25 0-.6892.5607-1.25 1.25-1.25.3356 0 .64.1337.8647.3497.005.0052.0094.0109.0145.016.006.006.0125.011.0186.0167.2175.225.3522.5308.3522.8676 0 .6892-.5608 1.25-1.25 1.25zm9.6035-9.5417c-.6893 0-1.25-.5607-1.25-1.25s.5607-1.25 1.25-1.25c.6892 0 1.25.5607 1.25 1.25s-.5608 1.25-1.25 1.25zm9.8755 9.5365c-.6893 0-1.25-.5608-1.25-1.25 0-.6893.5607-1.25 1.25-1.25.6892 0 1.25.5607 1.25 1.25 0 .6892-.5608 1.25-1.25 1.25zm12.2918-12.0365c-.6892 0-1.25-.5607-1.25-1.25s.5609-1.25 1.25-1.25c.6893 0 1.25.5607 1.25 1.25s-.5607 1.25-1.25 1.25z"/><path d="m48.5117 29.375h-6.5974c-.6903 0-1.25.5597-1.25 1.25s.5596 1.25 1.25 1.25h6.5974c.6902 0 1.25-.5597 1.25-1.25s-.5598-1.25-1.25-1.25z"/><path d="m55.086 29.7412c-.2324-.2325-.5549-.3662-.8836-.3662-.3288 0-.6513.1336-.8838.3662-.2325.2325-.3662.555-.3662.8838s.1336.6513.3662.8836c.2325.2325.5538.3664.8838.3664.3287 0 .6512-.1338.8836-.3664.2325-.2323.3664-.5548.3664-.8836s-.1338-.6513-.3664-.8838z"/><path d="m57.1835 17.375h-15.2692c-.6903 0-1.25.5597-1.25 1.25s.5596 1.25 1.25 1.25h15.2692c.6903 0 1.25-.5597 1.25-1.25s-.5597-1.25-1.25-1.25z"/><path d="m57.1835 23.375h-15.2692c-.6903 0-1.25.5597-1.25 1.25s.5596 1.25 1.25 1.25h15.2692c.6903 0 1.25-.5597 1.25-1.25s-.5597-1.25-1.25-1.25z"/></g></svg>