<svg fill="none" height="64" viewBox="0 0 64 64" width="64" xmlns="http://www.w3.org/2000/svg"><g fill="#000"><path d="m62.9677 19.6129h-6.1935c-.5696 0-1.0323.4612-1.0323 1.0323v1.0322h-12.3871v-9.2903c0-.5711-.4627-1.0323-1.0322-1.0323h-4.1291c-.5695 0-1.0322.4612-1.0322 1.0323v9.2903h-.5318c-.5221 0-1.0342.06-1.5327.1674v-7.3932c0-.5711-.4627-1.0322-1.0323-1.0322h-4.129c-.5696 0-1.0323.4611-1.0323 1.0322v7.8307l-.3024-.3025c-.193-.194-.4561-.3024-.7298-.3024h-1.0323v-5.1613c0-.571-.4627-1.0322-1.0323-1.0322h-4.129c-.5695 0-1.0322.4612-1.0322 1.0322v5.1613h-12.38714v-1.0322c0-.5711-.4627-1.0323-1.03225-1.0323h-6.19355c-.569558 0-1.03226.4612-1.03226 1.0323v24.7742c0 .571.462702 1.0322 1.03226 1.0322h6.19355c.56955 0 1.03225-.4612 1.03225-1.0322v-3.0968l2.47734 1.8578c.1789.1346.3967.2067.6194.2067h1.6381l-.4798.4798c-.7475.7465-1.1583 1.7374-1.1583 2.7944 0 2.2389 1.9159 4.0549 4.1331 3.9476-.003.061-.004.1204-.004.1814 0 2.2389 1.9118 4.0509 4.133 3.9476-.003.061-.004.1205-.004.1815 0 2.2389 1.9078 4.065 4.1331 3.9475-.0031.061-.0041.1205-.0041.1815 0 2.1784 1.7722 3.9516 3.9527 3.9516 1.0549 0 2.0468-.4108 2.7943-1.1573l1.5111-1.5121 1.5121 1.5121c.7465.7465 1.7384 1.1573 2.7933 1.1573 2.1805 0 3.9527-1.7732 3.9527-3.9516 0-.0671-.0157-.1301-.0197-.1961.066.003.13.0187.1961.0187 2.1804 0 3.9526-1.7732 3.9526-3.9516 0-.0671-.0156-.1301-.0197-.1961.0661.003.1301.0186.1961.0186 2.1804 0 3.9526-1.7731 3.9526-3.9516 0-.067-.0156-.13-.0196-.196.066.003.13.0186.196.0186 2.1805 0 3.9527-1.7732 3.9527-3.9516 0-1.056-.4108-2.0479-1.1583-2.7944l-.4788-.4798h1.6371c.2227 0 .4405-.0721.6194-.2067l2.4773-1.8578v3.0968c0 .571.4627 1.0322 1.0323 1.0322h6.1935c.5696 0 1.0323-.4612 1.0323-1.0322v-24.7742c0-.5711-.4627-1.0323-1.0323-1.0323zm-23.7419-6.1935h2.0645v8.258h-2.0645zm-8.2581 2.0645h2.0646v7.1577c-.5449.3135-1.055.6956-1.5111 1.1517l-.5535.5535zm-8.258 2.0645h2.0645v4.129h-2.0645zm-16.51615 26.8387h-4.12903v-22.7097h4.12903zm5.50505-2.0645-3.44054-2.5807v-16h19.18544l8.9507 8.9516c.4944.4945.7671 1.1523.7671 1.8509 0 1.442-1.1749 2.6169-2.618 2.6169-.6995 0-1.3563-.2727-1.8508-.7661l-5.124-5.125c-.387-.3871-1.0725-.3871-1.4596 0l-11.0514 11.0524zm17.3306 19.0605c-.3573.3563-.8311.5524-1.3346.5524-1.0419 0-1.8882-.8463-1.8882-1.8871 0-.4965.2012-.9824.5535-1.3347l1.5247-1.5247c.0398.0444.07.0953.1124.1376l2.5433 2.5444zm9.1643-1.3347c0 1.0408-.8462 1.8871-1.8881 1.8871-.5035 0-.9783-.1961-1.3346-.5524l-5.5152-5.5162c-.3513-.3523-.5524-.8372-.5524-1.3346 0-1.0409.8463-1.8871 1.8881-1.8871.5036 0 .9784.196 1.3347.5524l5.5151 5.5161c.3513.3523.5524.8372.5524 1.3347zm4.1291-4.129c0 1.0408-.8463 1.887-1.8881 1.887-.5036 0-.9784-.196-1.3347-.5524l-5.5151-5.5161c-.3513-.3523-.5524-.8372-.5524-1.3347 0-1.0408.8462-1.8871 1.8881-1.8871.5035 0 .9783.1961 1.3346.5524l5.5152 5.5162c.3513.3523.5524.8372.5524 1.3347zm4.129-4.1291c0 1.0408-.8463 1.8871-1.8881 1.8871-.5035 0-.9783-.1961-1.3347-.5524l-5.5151-5.5161c-.3513-.3524-.5524-.8372-.5524-1.3347 0-1.0408.8463-1.8871 1.8881-1.8871.5035 0 .9783.1961 1.3347.5524l5.5151 5.5161c.3513.3524.5524.8372.5524 1.3347zm2.2409-2.2419c-.5035 0-.9783-.1961-1.3346-.5524l-5.5152-5.5162c-.3513-.3523-.5524-.8372-.5524-1.3346 0-1.0409.8463-1.8871 1.8881-1.8871.5036 0 .9784.196 1.3347.5524l5.5151 5.5161c.3513.3523.5524.8372.5524 1.3347 0 1.0408-.8462 1.8871-1.8881 1.8871zm3.6089-7.2258h-3.3579l-2.9717-2.9718c-.7465-.7465-1.7384-1.1573-2.7934-1.1573-2.1804 0-3.9526 1.7732-3.9526 3.9517 0 .067.0156.13.0197.196-.0661-.003-.1301-.0186-.1961-.0186-2.1805 0-3.9526 1.7732-3.9526 3.9516 0 .067.0156.13.0196.1961-.066-.0031-.13-.0187-.196-.0187-2.1805 0-3.9527 1.7732-3.9527 3.9516 0 .0671.0157.1301.0197.1961-.066-.003-.13-.0187-.1961-.0187-2.1804 0-3.9526 1.7732-3.9526 3.9517 0 .2424.0267.4798.0691.7122l-2.0076 2.0085c-.3574.3574-.8311.5534-1.3347.5534-1.0418 0-1.8881-.8462-1.8881-1.887 0-.4965.2011-.9824.5534-1.3347l2.241-2.242c.2011-.2011.3024-.4657.3024-.7298s-.1013-.5287-.3024-.7298c-.4038-.4038-1.056-.4038-1.4597 0l-2.2409 2.2419c-.3574.3563-.8312.5524-1.3347.5524-1.0418 0-1.8881-.8463-1.8881-1.8871 0-.4965.2011-.9823.5534-1.3347l2.2409-2.2419c.2011-.2011.3025-.4657.3025-.7298s-.1014-.5288-.3025-.7299c-.4037-.4037-1.0559-.4037-1.4596 0l-2.241 2.242c-.3573.3563-.8311.5524-1.3346.5524-1.0419 0-1.8881-.8463-1.8881-1.8871 0-.4965.2011-.9824.5534-1.3347l12.8659-12.8669 4.3942 4.3951c.8845.8836 2.0594 1.371 3.3104 1.371 2.5817 0 4.6825-2.0998 4.6825-4.6814 0-1.25-.4874-2.427-1.372-3.3105l-5.4264-5.4275.5534-.5534c.9743-.9733 2.2697-1.5111 3.6487-1.5111h19.1124v16zm9.6341 2.0645h-4.1291v-22.7097h4.1291z"/><path d="m20.0403 13.4194h5.7662c.2736 0 .5367-.1084.7298-.3025l3.8266-3.82658h11.9597c.2737 0 .5368-.10836.7298-.30242l5.4637-5.46371v3.70162h2.0645v-6.19355c0-.57107-.4627-1.03226-1.0322-1.03226h-6.1936v2.06452h3.7016l-5.1612 5.16129h-11.9597c-.2737 0-.5368.10836-.7299.30242l-3.8266 3.82657h-5.7661c-.2737 0-.5368.1084-.7298.3025l-5.1613 5.1612 1.4597 1.4597z"/></g></svg>