<svg fill="none" height="139" viewBox="0 0 120 139" width="120" xmlns="http://www.w3.org/2000/svg" xmlns:xlink="http://www.w3.org/1999/xlink"><linearGradient id="a" gradientUnits="userSpaceOnUse" x1=".071533" x2="82.6843" y1=".206421" y2="114"><stop offset="0" stop-color="#fdab76"/><stop offset="1" stop-color="#fa541c"/></linearGradient><path clip-rule="evenodd" d="m64.2588 138.387c-.3999.108-.8115-.129-.9192-.529-.1078-.4.1291-.812.529-.92.5838-.157 1.1922-.32 1.931-.519.4-.107.8114.13.9189.53s-.1297.811-.5297.919c-.7385.198-1.3465.362-1.93.519zm7.7264-2.079c-.3998.108-.8117-.128-.9199-.528-.1081-.4.1283-.812.5281-.92.6733-.182 1.3114-.355 1.9285-.524.3997-.109.8119.127.9209.527.1089.399-.1268.812-.5264.921-.6181.168-1.2571.342-1.9312.524zm7.7204-2.129c-.3986.113-.8131-.119-.9258-.518-.1128-.398.1189-.813.5175-.926.6524-.184 1.2914-.366 1.9196-.547.398-.115.8136.115.9281.513s-.1153.814-.5134.929c-.6304.181-1.2715.364-1.926.549zm7.692-2.26c-.396.122-.8155-.101-.9369-.497s.1012-.815.4972-.937c.6431-.197 1.2777-.394 1.9047-.591.3951-.124.8161.095.9404.49.1242.396-.0954.817-.4906.941-.6304.198-1.2683.396-1.9148.594zm7.6397-2.471c-.3919.135-.8183-.074-.9525-.466s.0748-.819.4667-.953c.6337-.217 1.2609-.435 1.882-.654.3906-.138.819.067.957.457.138.391-.0668.819-.4574.957-.6257.221-1.2575.441-1.8958.659zm7.5437-2.756c-.386.15-.821-.04-.971-.426-.151-.386.039-.821.425-.971.532-.208 1.059-.417 1.579-.627.134-.055.134-.055.267-.11.383-.157.822.025.98.408.157.383-.025.822-.408.979-.135.056-.135.056-.275.113-.528.213-1.061.424-1.597.634zm7.379-3.343c-.361.202-.818.072-1.02-.29s-.072-.818.29-1.02c.584-.326 1.141-.66 1.673-1.004.348-.225.812-.125 1.037.223s.125.812-.223 1.037c-.56.362-1.144.712-1.757 1.054zm6.489-5.142c-.251.33-.721.394-1.051.143s-.394-.721-.143-1.051c.384-.505.7-1.033.932-1.565.166-.38.608-.553.988-.387.379.166.553.608.387.988-.282.645-.66 1.275-1.113 1.872zm.387-8.357c.226.347.128.812-.22 1.038-.347.226-.811.127-1.037-.22-.326-.501-.715-.981-1.165-1.443-.289-.297-.282-.771.015-1.06.296-.289.771-.283 1.06.014.516.53.966 1.085 1.347 1.671zm-6.479-5.278c.367.193.507.647.315 1.013-.193.367-.647.508-1.013.315-.107-.056-.216-.113-.311-.162-.477-.232-.959-.451-1.45-.659-.381-.161-.56-.601-.398-.982.161-.382.601-.56.983-.399.515.218 1.02.447 1.536.698.115.059.227.118.338.176zm-7.709-2.764c.403.096.652.501.556.904s-.501.651-.904.555c-.627-.149-1.268-.287-1.923-.413-.407-.078-.6734-.471-.5952-.878.0781-.406.4712-.673.8782-.595.677.13 1.339.272 1.988.427zm-8.0102-1.253c.4125.037.7163.402.6785.815-.0377.412-.4027.716-.8152.678-.6393-.058-1.2962-.11-1.9772-.158-.4132-.028-.7249-.387-.6962-.8.0286-.413.3869-.725.8001-.696.6916.048 1.3594.101 2.01.161zm-8.0579-.452c.414.014.738.361.7236.775-.0143.414-.3615.738-.7755.724-.2979-.01-.604-.021-.9882-.034-.3171-.005-.6369-.009-.9597-.012-.4142-.004-.7466-.343-.7425-.757s.3432-.747.7574-.743c.3254.004.6479.008.9813.013.3984.013.705.023 1.0036.034zm-8.0033-.025c.4142-.006.7548.324.7609.739.006.414-.3248.754-.739.761-.6399.009-1.3007.02-1.996.034-.4142.008-.7564-.321-.7645-.735-.0081-.415.3211-.757.7352-.765.6977-.013 1.3609-.025 2.0034-.034zm-8.0063.174c.4141-.01.758.317.7682.731s-.3173.758-.7314.768c-.7834.02-1.4021.034-2.0004.048-.4142.01-.7576-.318-.7671-.732-.0095-.415.3185-.758.7326-.767.5974-.014 1.2154-.029 1.9981-.048zm-7.9859.149c.4142-.003.7529.33.7564.744.0036.414-.3293.753-.7435.756-.4191.004-.831.007-1.2341.008-.2511.002-.5045.005-.7623.008-.4141.006-.7545-.325-.7602-.739-.0058-.415.3254-.755.7395-.761.2609-.003.5174-.006.7745-.008.4035-.001.8129-.004 1.2297-.008zm-8.011.171c.414-.01.758.318.7683.732.0102.414-.3172.758-.7313.768-.7345.018-1.3857.03-2.0114.036-.4142.003-.7531-.329-.7569-.743-.0038-.415.3289-.753.7431-.757.6173-.006 1.2609-.018 1.9882-.036zm-7.9208-.16c.4127.035.7193.397.6846.81-.0346.413-.3972.719-.81.685-.6709-.056-1.3419-.125-2.0178-.208-.4111-.05-.7039-.424-.6538-.835s.424-.704.8351-.654c.6571.08 1.3095.147 1.9619.202zm-7.789-1.2293c.4039.0921.6566.4941.5645.8983-.092.403-.4941.656-.8979.564-.6116-.139-1.2329-.29-1.8652-.452-.0542-.014-.0542-.014-.1059-.028-.4004-.106-.639-.5166-.5329-.917s.5167-.639.9171-.5329c.046.0121.046.0121.0948.0247.6192.159 1.2273.3065 1.8255.4429zm-6.9872-3.059c.3228.2596.3741.7316.1145 1.0545-.2595.3228-.7316.3741-1.0544.1146-.547-.4398-1.064-.9153-1.5456-1.4215-.2855-.3002-.2736-.7749.0265-1.0604.3002-.2854.7749-.2736 1.0604.0266.4355.4579.9034.8881 1.3986 1.2862zm-4.3595-6.1766c.1273.3942-.0891.8169-.4833.9442-.3941.1272-.8169-.0891-.9442-.4833-.2199-.681-.3812-1.3734-.4814-2.0719-.0588-.41.226-.7901.636-.8489s.79.2259.8488.6359c.088.6136.23 1.2231.4241 1.824zm.1965-7.336c-.1381.3905-.5666.5951-.9572.457-.3905-.1381-.5951-.5666-.457-.9571.23-.6505.5071-1.2923.8298-1.9267.1878-.3692.6393-.5162 1.0085-.3284s.5163.6393.3285 1.0085c-.2936.5771-.5448 1.159-.7526 1.7467zm4.1498-6.4614c-.282.3033-.7566.3206-1.0599.0385s-.3205-.7567-.0385-1.06c.4514-.4853.9298-.9687 1.4371-1.4537.2994-.2863.7741-.2756 1.0604.0237.2862.2994.2756.7742-.0238 1.0604-.4867.4654-.9445.928-1.3753 1.3911z" fill="#fa541c" fill-rule="evenodd" opacity=".48062"/><path d="m118.933.286229c.76.190815.937 1.110811.743 1.771851-.436 1.94222-1.193 3.79585-1.79 5.69378-8.301 25.91334-16.602 51.82664-24.9031 77.74004-.184 1.0222-1.2579 1.782-2.2704 1.5606-10.558-8.631-21.1432-17.2381-31.7216-25.8452-4.7932 5.0191-9.5148 10.1268-14.7171 14.7268-1.3295 1.0904-2.6522 2.2421-4.2306 2.9508-.4228.1295-1.1796.3782-1.3739-.1942-.058-1.0359.2045-2.0547.3102-3.0769 1.2716-9.9156 2.5603-19.8311 3.9137-29.7365-13.6194-2.0137-27.2353-4.0241-40.85458-6.0243-.72614-.1226-1.690909-.2555-1.9534092-1.0699-.1431819-1.029.8659092-1.656 1.7113592-1.9218 5.56705-1.5912 11.04883-3.4585 16.57843-5.1758 32.625-10.3619 65.2534-20.717 97.878-31.078975.863-.248741 1.777-.545185 2.68-.320296z" fill="url(#a)"/><path clip-rule="evenodd" d="m64.9512 33.5692c3.924-2.3226 7.8478-4.6451 11.7805-6.9505 11.6591-6.8762 23.3183-13.7557 34.9773-20.6353-5.293 4.2579-10.65 8.4409-16.0062 12.624-3.2681 2.5522-6.5364 5.1045-9.7904 7.6739-3.6059 2.8272-7.2114 5.6548-10.8169 8.4823-7.2104 5.6546-14.4208 11.3092-21.6342 16.9608-.3155.253-.6438.4915-.9722.7302-.6583.4784-1.3172.9572-1.8744 1.5528-.6755.7403-1.0138 1.6801-1.3492 2.6118-.103.2861-.2057.5715-.3179.8501-.8139 2.0779-1.6861 4.1342-2.5585 6.191-.5123 1.2081-1.0248 2.4163-1.5256 3.6292-1.3022 3.1314-2.6829 6.2492-4.4966 9.1284.7306-6.0388 1.532-12.0676 2.3333-18.0962.5149-3.8736 1.0297-7.7471 1.5258-11.6232.0171-.0926.0288-.1903.0407-.2894.0475-.3967.0976-.8145.5014-1.0054 6.7577-3.8879 13.4705-7.8613 20.1831-11.8345zm-22.9752 42.9305c3.5762-6.9239 6.6682-14.0862 9.6478-21.2827.5204.4257 1.0399.8529 1.5594 1.2801 1.5969 1.3131 3.1941 2.6265 4.8224 3.8992-4.9739 5.704-10.2852 11.1627-16.0296 16.1034z" fill="#b3200e" fill-rule="evenodd"/></svg>