<svg fill="none" height="97" viewBox="0 0 96 97" width="96" xmlns="http://www.w3.org/2000/svg" xmlns:xlink="http://www.w3.org/1999/xlink"><linearGradient id="a"><stop offset="0" stop-color="#fdab76"/><stop offset="1" stop-color="#fa541c"/></linearGradient><linearGradient id="b" gradientUnits="userSpaceOnUse" x1="0" x2="96" xlink:href="#a" y1=".332031" y2="96.332"/><linearGradient id="c" gradientUnits="userSpaceOnUse" x1="16" x2="47.5079" xlink:href="#a" y1="30.8657" y2="78.1276"/><linearGradient id="d" gradientUnits="userSpaceOnUse" x1="16.9805" x2="35.2092" xlink:href="#a" y1="30.8657" y2="69.1112"/><path d="m48 96.332c26.5097 0 48-21.4903 48-48 0-26.5096-21.4903-47.999969-48-47.999969s-48 21.490369-48 47.999969c0 26.5097 21.4903 48 48 48z" fill="url(#b)" opacity=".08"/><path d="m67.2004 34.0657c0-.8487-.3371-1.6626-.9373-2.2627-.6001-.6001-1.414-.9373-2.2627-.9373h-44.8004c-.8487 0-1.6626.3372-2.2627.9373-.6002.6001-.9373 1.414-.9373 2.2627v27.7336c0 .8487.3371 1.6626.9373 2.2628.6001.6001 1.414.9372 2.2627.9372h44.8004c.8487 0 1.6626-.3371 2.2627-.9372.6002-.6002.9373-1.4141.9373-2.2628z" fill="url(#c)"/><path d="m32.4538 45.9458-15.5788 18.0385c.2973.3195.6572.5743 1.0573.7486.4.1744.8317.2645 1.2681.2648h44.8003c.4364-.0003.8681-.0904 1.2681-.2648.4001-.1743.76-.4291 1.0573-.7486l-15.5735-18.0385z" fill="#fa541c"/><path d="m66.2161 31.766c-.594-.5771-1.3895-.9-2.2176-.9003h-44.8004c-.8282.0003-1.6236.3232-2.2176.9003l24.6178 22.5666z" fill="url(#d)"/><path d="m66.2161 31.766c-.594-.5771-1.3895-.9-2.2176-.9003h-44.8004c-.8282.0003-1.6236.3232-2.2176.9003l24.6178 22.5666z" fill="#fee9d1" opacity=".48"/><path d="m65.0663 75.6657c8.2475 0 14.9334-6.6859 14.9334-14.9334s-6.6859-14.9335-14.9334-14.9335c-8.2476 0-14.9335 6.686-14.9335 14.9335s6.6859 14.9334 14.9335 14.9334z" fill="#754ffe"/><path d="m65.068 45.7988c-3.1775-.0002-6.2712 1.0185-8.8268 2.9067-2.1161 2.8728-3.1323 6.4089-2.864 9.9668.2682 3.5579 1.8031 6.9018 4.3261 9.4247 2.5229 2.523 5.8668 4.0578 9.4246 4.3261 3.5579.2682 7.0941-.7479 9.9668-2.8641 1.6374-2.2225 2.6257-4.8558 2.8551-7.6068.2293-2.751-.3093-5.5116-1.556-7.9746s-3.1525-4.5316-5.5053-5.9756c-2.3527-1.444-5.06-2.2067-7.8205-2.2032z" fill="#b195fe"/><path d="m59.7343 66.0657 4.2667 4.2667 9.6-17.0668-19.2001 7.4668 3.2 3.2" fill="#4027b6"/><path d="m59.733 66.0656-1.0667 2.1333-1.0667-4.2667 8.5323-4.2667z" fill="#754ffe"/><path d="m67.1975 39.3988c4.7128 0 8.5334-3.8205 8.5334-8.5334 0-4.7128-3.8206-8.5334-8.5334-8.5334-4.7129 0-8.5334 3.8206-8.5334 8.5334 0 4.7129 3.8205 8.5334 8.5334 8.5334z" fill="#b3200e"/><path d="m67.1965 22.332c-1.7417-.0012-3.4416.5331-4.8693 1.5307-1.1439 1.6423-1.6738 3.6345-1.4969 5.628.1768 1.9936 1.0492 3.8614 2.4644 5.2766s3.283 2.2875 5.2765 2.4644c1.9936.1769 3.9858-.353 5.6281-1.4969.891-1.2791 1.4144-2.7779 1.5133-4.3336s-.2304-3.1087-.9523-4.4903-1.8086-2.539-3.1421-3.3462c-1.3336-.8073-2.8628-1.2336-4.4217-1.2327z" fill="#fa541c"/><path d="m68.2667 36.2002h-2.1334v-7.0251l-.3125.3125-1.5083-1.5082 2.1334-2.1334c.1491-.1491.3392-.2507.5461-.2918.2068-.0412.4213-.02.6162.0607.1948.0807.3614.2174.4786.3927.1172.1754.1798.3816.1799.5925z" fill="#fee9d1"/></svg>