<svg fill="none" height="48" viewBox="0 0 48 48" width="48" xmlns="http://www.w3.org/2000/svg"><path d="m44.8613 18.273c0 6.8956-5.3842 11.4929-13.5354 18.451-1.3633 1.1635-2.9051 2.4799-4.5052 3.8819-.324.2845-.7401.4408-1.1718.4408s-.8477-.1563-1.1717-.4408c-.1719-.1505-.3437-.3009-.5139-.4489-1.4185-1.2367-2.7769-2.3961-3.9905-3.4322-8.1512-6.9589-13.53628-11.5562-13.53628-18.4518 0-6.4705 4.51178-11.35064 10.49548-11.35064 2.1585 0 4.136.68413 5.8768 2.03348 1.2572.97357 2.1897 2.14696 2.8401 3.15666.6504-1.0097 1.5829-2.18309 2.8401-3.15666 1.2877-.99824 2.7053-1.63221 4.2306-1.89451.5362-.09292 1.0846-.13897 1.6462-.13897 5.9837 0 10.4955 4.88014 10.4955 11.35064z" fill="#fa541c"/><path d="m44.8614 18.273c0 6.8956-5.3842 11.4929-13.5354 18.451-1.3633 1.1635-2.9051 2.4799-4.5052 3.8819-.324.2845-.7401.4408-1.1718.4408s-.8477-.1563-1.1717-.4408c-.1719-.1505-.3437-.3009-.5139-.4489 1.4159-1.2343 2.7743-2.3945 3.9913-3.433 8.1512-6.9581 13.5354-11.5554 13.5354-18.451 0-5.8324-3.6657-10.37213-8.7703-11.21167.5361-.09292 1.0845-.13897 1.6461-.13897 5.9837 0 10.4955 4.88014 10.4955 11.35064z" fill="#b3200e" opacity=".64"/><path d="m19.2471 28.0902c-.2223 0-.4273-.1196-.5367-.313l-3.4115-6.0294-1.4374 2.5404c-.1095.1934-.3146.313-.5367.313h-9.94731c-.34059 0-.61671-.2761-.61671-.6167s.27612-.6167.61671-.6167h9.58751l1.7971-3.176c.1094-.1935.3145-.3131.5367-.3131s.4273.1196.5367.3131l3.4115 6.0294 4.0084-7.0842c.1095-.1935.3146-.3131.5367-.3131.2222 0 .4274.1196.5367.3131l2.3939 4.2308h3.6335c.3406 0 .6167.2761.6167.6167s-.2761.6167-.6167.6167h-3.9929c-.2223 0-.4273-.1196-.5367-.313l-2.0343-3.5953-4.0084 7.0843c-.1095.1934-.3145.313-.5368.313z" fill="#77f0ed"/><path d="m36.7678 23.9838c0 1.9381-1.5763 3.5144-3.5135 3.5144-.3577 0-.7031-.0535-1.0279-.153-1.4381-.4407-2.4865-1.781-2.4865-3.3614 0-1.5796 1.0484-2.9199 2.4865-3.3607.3248-.0995.6702-.1529 1.0279-.1529 1.9372 0 3.5135 1.5763 3.5135 3.5136z" fill="#77f0ed"/><path d="m36.768 23.9843c0 1.9381-1.5763 3.5143-3.5136 3.5143-.3577 0-.703-.0534-1.0278-.1529 1.4373-.4416 2.4857-1.781 2.4857-3.3614 0-1.5796-1.0484-2.9191-2.4857-3.3607.3248-.0994.6701-.1529 1.0278-.1529 1.9373 0 3.5136 1.5763 3.5136 3.5136z" fill="#22b8cf" opacity=".8"/></svg>