<svg fill="none" height="48" viewBox="0 0 48 48" width="48" xmlns="http://www.w3.org/2000/svg"><g fill="#212b36"><path d="m32.0581 30.7834c-1.1373 0-2.0625-.8008-2.0625-1.7851 0-.9844.9252-1.7852 2.0625-1.7852 1.1372 0 2.0625.8008 2.0625 1.7852 0 .5177.4198.9375.9375.9375.5176 0 .9375-.4198.9375-.9375 0-1.718-1.2801-3.1625-3-3.5545v-.4876c0-.5177-.4198-.9375-.9375-.9375s-.9375.4198-.9375.9375v.4876c-1.72.392-3 1.8365-3 3.5545 0 2.0181 1.7663 3.6601 3.9375 3.6601 1.1372 0 2.0625.8008 2.0625 1.7852 0 .9843-.9253 1.7851-2.0625 1.7851-1.1373 0-2.0625-.8008-2.0625-1.7851 0-.5177-.4198-.9375-.9375-.9375s-.9375.4198-.9375.9375c0 1.7179 1.28 3.1624 3 3.5545v.405c0 .5177.4198.9375.9375.9375s.9375-.4198.9375-.9375v-.405c1.7199-.3921 3-1.8366 3-3.5545 0-2.0183-1.7664-3.6602-3.9375-3.6602z"/><path d="m42.3264 25.2072c-1.2247-1.9083-2.95-3.4353-4.9896-4.4158-.4668-.2244-1.0269-.0279-1.2512.4388s-.0279 1.0267.4388 1.2511c3.5541 1.7085 5.8505 5.359 5.8505 9.3001 0 1.6863-.4156 3.3587-1.2019 4.8366-.2432.457-.0699 1.0248.3873 1.268.1402.0746.291.11.4395.11.3354 0 .6599-.1805.8284-.4973.9301-1.7479 1.4217-3.725 1.4217-5.7173 0-2.34-.6651-4.6134-1.9235-6.5742z"/><path d="m33.5318 19.5939-.0631-.0001c-.5177 0-.9375.4197-.9375.9375s.4198.9375.9375.9375l.0543.0001h.0045c.5157 0 .9349-.4168.9374-.9331.0023-.5178-.4154-.9394-.9331-.9419z"/><path d="m27.6006 41.0812c-3.554-1.7086-5.8504-5.3591-5.8504-9.3001 0-1.6863.4157-3.3587 1.2019-4.8366.2432-.457.0699-1.0248-.3872-1.268-.457-.2432-1.0249-.0698-1.268.3873-.9301 1.748-1.4217 3.725-1.4217 5.7173 0 2.34.6651 4.6133 1.9235 6.5742 1.2247 1.9083 2.9501 3.4353 4.9896 4.4159.131.063.2693.0927.4055.0927.3492 0 .6842-.1959.8457-.5315.2241-.4667.0278-1.0268-.4389-1.2512z"/><path d="m30.6563 42.0937-.0542-.0002c-.5202-.0009-.9394.4153-.9418.9331s.4155.9395.9332.9419l.0628.0002c.5177 0 .9375-.4198.9375-.9375s-.4198-.9375-.9375-.9375z"/><path d="m36.3195 16.422c-.1141-.2719-.2538-.5281-.4165-.7658h2.4407c2.3778 0 4.3125-1.9346 4.3125-4.3125 0-2.37784-1.9347-4.31246-4.3125-4.31246h-7.5075c.4773-.69394.7575-1.53347.7575-2.4375 0-2.37787-1.9346-4.31249-4.3125-4.31249h-22.96871c-2.37787 0-4.31249 1.93462-4.31249 4.31249s1.93462 4.31249 4.31249 4.31249h7.50751c-.4773.69394-.7575 1.53347-.7575 2.43747 0 .9041.2801 1.7436.7575 2.4375h-2.44502c-2.37787 0-4.31249 1.9346-4.31249 4.3125 0 1.3657.63881 2.5843 1.63265 3.375-.99384.7907-1.63265 2.0094-1.63265 3.375 0 1.3657.63881 2.5843 1.63265 3.375-.99384.7907-1.63265 2.0093-1.63265 3.375 0 1.3656.63881 2.5843 1.63265 3.375-.99384.7907-1.63265 2.0093-1.63265 3.375 0 2.3778 1.93462 4.3125 4.31249 4.3125h11.04842c2.9106 3.1131 7.0511 5.0626 11.6391 5.0626 8.788 0 15.9375-7.1496 15.9375-15.9375 0-7.3141-4.9528-13.4923-11.6805-15.3593zm2.0242-7.51577c1.3441 0 2.4375 1.0935 2.4375 2.43747 0 1.344-1.0934 2.4375-2.4375 2.4375h-22.9687c-1.3441 0-2.4375-1.0935-2.4375-2.4375 0-1.34397 1.0934-2.43747 2.4375-2.43747zm-34.03121-1.87499c-1.34409 0-2.43749-1.0935-2.43749-2.4375s1.0934-2.43749 2.43749-2.43749h22.96871c1.3441 0 2.4375 1.09349 2.4375 2.43749s-1.0934 2.4375-2.4375 2.4375zm5.06249 8.62496h22.96872c.3776 0 .7392.0878 1.0636.2449-.4435-.0372-.8918-.0573-1.3448-.0573-4.4011 0-8.391 1.7934-11.278 4.6874h-11.40952c-1.344 0-2.43749-1.0935-2.43749-2.4375s1.09349-2.4375 2.43749-2.4375zm0 6.75h9.80762c-1.0642 1.4581-1.8871 3.1027-2.4096 4.875h-7.39802c-1.34409 0-2.43749-1.0934-2.43749-2.4375 0-1.344 1.0934-2.4375 2.43749-2.4375zm0 6.75h6.96752c-.1422.8543-.2174 1.731-.2174 2.6251 0 .7637.0552 1.5146.1595 2.2499h-6.90962c-1.34409 0-2.43749-1.0934-2.43749-2.4375s1.0934-2.4375 2.43749-2.4375zm0 11.625c-1.34409 0-2.43749-1.0934-2.43749-2.4375s1.0934-2.4375 2.43749-2.4375h7.29242c.4731 1.7637 1.2415 3.4074 2.2493 4.875zm22.68752 5.0626c-7.754 0-14.0624-6.3085-14.0624-14.0625 0-7.7541 6.3084-14.0625 14.0624-14.0625 7.7541 0 14.0625 6.3084 14.0625 14.0625 0 7.754-6.3084 14.0625-14.0625 14.0625z"/></g></svg>