<svg fill="none" height="120" viewBox="0 0 120 120" width="120" xmlns="http://www.w3.org/2000/svg"><path d="m95 10c8.27 0 15 6.73 15 15v70c0 8.27-6.73 15-15 15h-70c-8.27 0-15-6.73-15-15v-70c0-8.27 6.73-15 15-15zm0-10h-70c-13.805 0-25 11.195-25 25v70c0 13.805 11.195 25 25 25h70c13.81 0 25-11.195 25-25v-70c0-13.805-11.19-25-25-25zm-40 40h-5v-10h5v5h10v5h-5v5h-5zm10 60v-5h-5v5zm-5-75v-5h-10v5h5v5h5zm40-5v30h-5v-5h-20v-25zm-5 20v-15h-15v15zm-70 10h-5v5h10v-5zm0 15h5v5h5v-15h-5v5h-10v10h5zm25 5v10h5v-10zm20-50h-5v15h5zm0 25v-5h-5v5zm15-10h5v-5h-5zm-50-5h-5v5h5zm10-10v25h-25v-25zm-5 5h-15v15h15zm45 25v5h-5v-5h-10v5h-5v-5h-15v-5h-5v5h-5v5h5v10h5v-5h5v10h5v-10h15v5h-10v5h10v5h5v-15h5v5h5v10h5v-5h5v-5h-5v-5h-5v-5h5v-5zm-55 40h5v-5h-5zm-10-15h25v25h-25zm5 20h15v-15h-15zm60-15v-5h-5v5zm0 5h-5v5h-5v-5h-5v-5h5v-5h-10v-5h-5v10h-5v5h-5v15h5v-5h5v-5h10v10h5v-5h5v5h10v-5h5v-5h-10zm-45-15h5v-5h-5zm50 10v5h5v5h5v-15h-5v5zm10 20v-5h-5v5zm0-40v-5h-5v5z" fill="#637381"/></svg>