<svg fill="none" height="64" viewBox="0 0 64 64" width="64" xmlns="http://www.w3.org/2000/svg" xmlns:xlink="http://www.w3.org/1999/xlink"><clipPath id="a"><path d="m0 0h64v64h-64z"/></clipPath><g clip-path="url(#a)" fill="#000"><path d="m5.048 29.8337h16.7358c1.1672 0 2.1167.9495 2.1167 2.1168v4.2315c0 .5184.4203.9386.9387.9386.5183 0 .9386-.4202.9386-.9386v-2.9452l1.4533-3.0596c.6295-1.3253 1.72-2.3712 3.0705-2.9451l1.1349-.4823c.0362-.0154.0712-.033.1052-.0527l6.9227-4.0307c.1747-.1018.3119-.2572.3913-.4432l1.8384-4.3134c.327-.767 1.077-1.2627 1.9201-1.2627 1.4011 0 2.651.8375 3.1839 2.1334.2154.5239.3245 1.0766.3245 1.6429v1.2667c0 .5184.4201.9386.9386.9386s.9386-.4202.9386-.9386v-1.2667c0-.8123-.1565-1.6052-.4655-2.3568-.8235-2.0027-2.7548-3.2969-4.9293-3.2969-1.5874 0-3.0153.9436-3.6378 2.4039l-1.7165 4.027-6.6027 3.8444-1.0807.4591c-1.7732.7536-3.2052 2.1271-4.0318 3.8674l-.2849.5995c-.689-1.2025-1.9845-2.0148-3.467-2.0148h-16.7356c-.51837 0-.93862.4202-.93862.9386s.42025.9389.93862.9389z"/><path d="m59.1867 44.2305c0-1.1385-.3995-2.232-1.1048-3.0985 1.1377-.9749 1.8085-2.401 1.8085-3.9486 0-2.8723-2.3368-5.2091-5.209-5.2091h-8.6788l.9922-2.1718c.5869-1.2851.9203-2.6528.9908-4.0653.0259-.5177-.3728-.9584-.8906-.9843-.5196-.0248-.9584.373-.9842.8907-.0587 1.1742-.3357 2.311-.8236 3.3789l-1.0454 2.2885c-.2549.5583-.2091 1.1998.1227 1.7161.3318.5162.8963.8245 1.5099.8245h8.8069c1.8372 0 3.3318 1.4946 3.3318 3.3318 0 1.27-.7069 2.4125-1.8449 2.9815-.2942.147-.4899.4375-.5158.7654-.0259.328.1217.6455.3891.8371.7939.5687 1.2678 1.4894 1.2678 2.4629 0 1.2425-.7793 2.378-1.9389 2.8254-.3035.1172-.5246.3828-.5847.7025-.06.3196.0496.6475.2898.8666.5701.52.897 1.2603.897 2.0311 0 1.2806-.9063 2.4092-2.155 2.6835-.5409.1187-.9336.6079-.9336 1.1706 0 .4341.2379.8351.6214 1.0467.8608.4746 1.4062 1.3778 1.4234 2.3572.0129.7249-.2654 1.4145-.7835 1.942-.5347.5443-1.2795.8564-2.0433.8564h-4.51c-.5185 0-.9387.4202-.9387.9386s.4202.9386.9387.9386h4.51c1.2642 0 2.4971-.5168 3.3824-1.418.8739-.8896 1.3432-2.0584 1.3214-3.2907-.0212-1.2052-.5168-2.3416-1.3467-3.1776 1.4376-.8006 2.3907-2.344 2.3907-4.0473 0-.8717-.2481-1.7199-.702-2.4482 1.2537-.9097 2.039-2.3896 2.039-3.9772z"/><path d="m43.5919 60.7131h-13.5252c-.8499 0-1.6859-.2283-2.4176-.6603l-1.8713-1.1046v-18.7653c0-.5184-.4203-.9386-.9386-.9386-.5184 0-.9387.4202-.9387.9386v19.8232c0 1.1673-.9495 2.1168-2.1167 2.1168h-16.7358c-.51837 0-.93862.4202-.93862.9386s.42025.9386.93862.9386h16.7358c1.8424 0 3.3966-1.2543 3.8557-2.9536l1.0554.6228c1.0206.6025 2.1866.9209 3.3718.9209h13.5252c.5185 0 .9387-.4202.9387-.9386s-.4202-.9385-.9387-.9385z"/><path d="m36.7042 7.64239c.0252.04004.0331.0896.0215.13553l-.3832 1.53258c-.2001.8001.0803 1.6114.7312 2.1178.6511.5062 1.5066.5778 2.2326.1868l1.8426-.9922c.0517-.0279.1139-.028.1658 0l1.8427.9922c.3109.1674.6454.2501.9776.2501.4436 0 .8829-.1474 1.2551-.4369.6509-.5062.9311-1.3177.7311-2.11767l-.3832-1.53271c-.0115-.04593-.0036-.09524.0215-.13541l1.1475-1.82656c.3973-.63213.4197-1.43083.0585-2.08436-.3613-.65354-1.0495-1.0594-1.7962-1.0594h-1.1578c-.0641 0-.1229-.03491-.1537-.09123l-.8245-1.51131c-.3597-.659785-1.0499-1.06965-1.8013-1.06965s-1.4418.40974-1.8018 1.0694l-.8243 1.51131c-.0307.05632-.0896.09123-.1537.09123h-1.1579c-.7466 0-1.435.40599-1.7961 1.0594-.3612.6534-.3388 1.45211.0584 2.08436zm.437-3.00284c.0332-.05995.0848-.09024.1532-.09024h1.1579c.7514 0 1.4417-.40974 1.8017-1.06953l.8243-1.5113c.0331-.06045.0848-.09124.1537-.09124.0688 0 .1205.03067.1536.09124l.8245 1.51143c.3599.65966 1.0502 1.0694 1.8016 1.0694h1.1579c.0684 0 .1199.03041.1532.09036.033.05995.0314.11964-.005.17759l-1.1475 1.82656c-.2958.47081-.3881 1.05013-.2532 1.5894l.3832 1.53258c.0069.02728.0278.1105-.0622.18046-.0904.07004-.1656.02929-.1904.0159l-1.8425-.99206c-.6093-.32814-1.3367-.32827-1.946 0l-1.8426.99218c-.0247.01327-.1002.05402-.1903-.01589-.09-.06996-.0691-.15318-.0622-.18047l.3832-1.53283c.1347-.53939.0424-1.11859-.2532-1.58915l-1.1475-1.82656c-.0368-.05819-.0385-.11789-.0054-.17783z"/><path d="m50.654 6.46871c0 .51837.4201.93862.9386.93862h1.4155c.5185 0 .9386-.42025.9386-.93862s-.4201-.93862-.9386-.93862h-1.4155c-.5185 0-.9386.42025-.9386.93862z"/><path d="m50.1552 3.1525c.2198 0 .4405-.07671.6186-.23303l1.0639-.93336c.3896-.34191.4284-.93487.0865-1.324585-.3419-.389716-.935-.428387-1.3246-.086478l-1.0639.933363c-.3896.34191-.4284.93487-.0865 1.32459.1856.2115.4452.3195.706.3195z"/><path d="m49.5358 11.4282 1.0639.9334c.1782.1563.3989.233.6186.233.2608 0 .5204-.1081.706-.3196.3417-.3897.3031-.9827-.0865-1.3246l-1.0639-.9334c-.3896-.34176-.9828-.30309-1.3246.0865-.3418.3896-.3031.9828.0865 1.3247z"/><path d="m29.066 7.40733h1.4153c.5183 0 .9386-.42025.9386-.93862s-.4203-.93862-.9386-.93862h-1.4153c-.5184 0-.9387.42025-.9387.93862s.4203.93862.9387.93862z"/><path d="m30.2361 1.98624 1.0639.93336c.1782.15632.3988.23303.6186.23303.2608 0 .5204-.10813.7058-.31963.3419-.38972.3033-.98267-.0863-1.32458l-1.0639-.933368c-.3896-.341659-.9827-.303113-1.3246.086478-.3419.38972-.3032.9828.0865 1.32471z"/><path d="m31.3 10.0178-1.0639.9335c-.3897.3419-.4284.9349-.0865 1.3246.1856.2115.445.3196.706.3196.2197 0 .4405-.0767.6186-.233l1.0639-.9334c.3896-.3419.4284-.9348.0863-1.3245-.3417-.38988-.9348-.42868-1.3244-.0868z"/></g></svg>