<svg fill="none" height="64" viewBox="0 0 64 64" width="64" xmlns="http://www.w3.org/2000/svg" xmlns:xlink="http://www.w3.org/1999/xlink"><clipPath id="a"><path d="m0 0h64v64h-64z"/></clipPath><g clip-path="url(#a)" fill="#212b36"><path d="m56.629 45.1645c-.351-.1455-.755-.0651-1.0238.2035l-10.2657 10.2658c-.2687.2688-.349.6728-.2035 1.0238.1452.3511.488.5798.8678.5798h10.2658c.5189 0 .9394-.4205.9394-.9393v-10.2658c-.0001-.3799-.229-.7224-.58-.8678zm-8.3577 10.1943 7.0587-7.0586v7.0586z"/><path d="m63.4203 30.1081c-.351-.1455-.7551-.0651-1.0238.2035l-2.8134 2.8134v-19.1289c0-.5189-.4206-.9394-.9394-.9394h-7.2176l2.62-2.62c.0004-.0004.0008-.0009.0011-.0013l2.5245-2.52446c.5409-.54088.8388-1.26038.8388-2.02538s-.2979-1.48425-.8388-2.02538l-2.9192-2.919255c-.5409-.540877-1.2604-.838752-2.0254-.838752s-1.4844.297875-2.0254.838752l-12.1156 12.115675h-29.15858v-9.29317c0-.51888-.42063-.93938-.93938-.93938-4.07376.00025-7.38814 3.31439-7.38814 7.38835v39.8984c0 .0693.00800002.1369.02225.2018.12975 1.7287.877627 3.3348 2.1275 4.5541 1.33601 1.303 3.09964 2.0206 4.96614 2.0206h28.70481l-5.4061 5.4061c-.2687.2688-.349.6726-.2037 1.0238.1454.351.488.5799.8679.5799h31.982c.5187 0 .9393-.4206.9393-.9394v-31.9817c0-.3799-.229-.7225-.5798-.8679zm-12.4898-27.83855c.384-.38425 1.0096-.38425 1.3936 0l2.9194 2.91938c.3842.38413.3842 1.00951 0 1.39376l-1.8614 1.8615-4.3133-4.31313zm-3.1902 3.19001 4.3132 4.31301-1.7236 1.72363-4.3129-4.31301zm14.3813 36.07174h-1.7331c-.5189 0-.9394.4205-.9394.9393 0 .5189.4205.9394.9394.9394h1.7331v2.8308h-1.7331c-.5189 0-.9394.4205-.9394.9393 0 .5189.4205.9394.9394.9394h1.7331v2.8306h-1.7331c-.5189 0-.9394.4206-.9394.9394 0 .5189.4205.9394.9394.9394h1.7331v2.8308h-1.7331c-.5189 0-.9394.4206-.9394.9393 0 .5189.4205.9394.9394.9394h1.7331v4.4803h-28.775l9.4885-9.4884c.3669-.367.3669-.9617 0-1.3285-.0421-.0422-.0874-.0787-.1348-.1112-.3657-.2505-.869-.2136-1.1938.1112l-3.807 3.807h-30.58349c-2.849 0-5.14251-2.2243-5.23276-5.0682.00538-.1785.01925-.3555.0415-.5305.00013-.001.00025-.002.00038-.003.0105-.0831.02312-.1658.0375-.2481.00162-.0094.00337-.0187.005-.0281.01312-.0734.02787-.1464.044-.2191.0045-.0203.00925-.0405.014-.0607.01425-.0615.02962-.1226.04612-.1835.009-.033.01838-.0656.028-.0985.01375-.0477.028-.0953.04313-.1425.01512-.0471.03125-.0937.04762-.1403.01138-.0327.02263-.0653.03488-.0977.02287-.0615.04712-.1223.07212-.1827.00713-.0174.01413-.035.0215-.0524.03213-.075.0655-.1491.10075-.2224.0015-.0031.00288-.0062.00438-.0093.73475-1.5205 2.14788-2.6542 3.84376-3.0059.00475-.001.0095-.0021.01425-.0031.07775-.0159.15625-.0295.23525-.0422.01312-.0021.02625-.0047.03962-.0067.07138-.0109.1435-.0194.21563-.0275.02025-.0023.04037-.0054.06075-.0074.06962-.007.13987-.0116.21012-.016.02225-.0014.0445-.0037.06675-.0049.092-.0046.18475-.007.27788-.007.51875 0 .93938-.4205.93938-.9393v-6.8112c0-.5189-.42063-.9394-.93938-.9394s-.93938.4205-.93938.9394v5.9309c-1.58625.2006-3.05863.9081-4.21963 2.0419-.12213.1192-.23788.2432-.35063.3692v-34.9802c0-2.71759 1.97826-4.98222 4.57014-5.42947v28.31027c0 .5188.42062.9395.93937.9395.51876 0 .93938-.4206.93938-.9393v-18.1579h27.28001l-5.193 5.193c-.3668.367-.3668.9616 0 1.3285.3669.3667.9617.3667 1.3284 0l6.7967-6.7967c-.0003.0002.0002-.0002 0 0l6.1487-6.14873 4.3129 4.31313-.506.506c-.0004.0004-.0009.0007-.0012.0011l-18.9411 18.9413-4.313-4.313 3.7335-3.7335c.3669-.367.3669-.9616 0-1.3285-.3669-.3668-.9616-.3668-1.3284 0l-4.3979 4.3978c-.0235.0235-.0455.0483-.0661.0738-.0069.0085-.013.0177-.0195.0265-.0132.0177-.0262.0354-.0384.0539-.0068.0108-.0131.0218-.0196.0329-.0104.0175-.0204.0352-.0295.0534-.006.0117-.0114.0236-.0169.0358-.0083.0184-.0161.0372-.0232.0559-.0025.0066-.0058.0129-.0081.0195l-3.0779 8.7193c-.0165.047-.0284.0947-.0373.1428h-3.124c-.5187 0-.9393.4205-.9393.9394s.4206.9394.9393.9394h26.0143c.5189 0 .9394-.4205.9394-.9394s-.4205-.9394-.9394-.9394h-18.6641l5.7287-2.0222c.0048-.0018.0093-.0041.014-.0059.0223-.0082.0442-.0175.0658-.0274.0086-.004.0172-.0077.0256-.0118.0225-.0113.0446-.0237.0664-.0369.007-.0043.0142-.0081.0211-.0125.0226-.0145.0446-.0304.0663-.0471.0053-.0042.011-.0078.0162-.012.0261-.021.0518-.0437.076-.0679l19.3305-19.3304h8.1569v20.0683l-13.437 13.4371c-.3669.367-.3669.9616 0 1.3285.0229.0229.0468.0444.0714.0645.1722.1404.3826.2107.5929.2107.2102 0 .4207-.0703.5928-.2107.0247-.02.0485-.0416.0714-.0645-.0004.0004.0004-.0004 0 0l16.5259-16.526zm-34.2869-8.3196-2.6908.9499-1.7927-1.7927.9499-2.6908z"/></g></svg>