<svg fill="none" height="48" viewBox="0 0 48 48" width="48" xmlns="http://www.w3.org/2000/svg"><path d="m41.2122 15.065c-.4446.078-.9004.1269-1.3671.1269-4.3475 0-7.8844-3.5369-7.8844-7.88439 0-.46675.0489-.92247.1269-1.36715-1.5209-.71275-3.1482-1.23312-4.8575-1.52011v-3.42025h-6.3076v3.42025c-2.8746.48252-5.5269 1.61236-7.8063 3.23575l-2.4197-2.41972-4.46022 4.4602 2.41972 2.41972c-1.62339 2.2794-2.75323 4.9317-3.23575 7.8063h-3.42025v6.3076h3.42025c.48252 2.8746 1.61236 5.5269 3.23575 7.8063l-2.41972 2.4197 4.46022 4.4602 2.4197-2.4197c2.2794 1.6234 4.9325 2.7532 7.8063 3.2357v3.4203h6.3076v-3.4203c2.8746-.4825 5.5269-1.6123 7.8063-3.2357l2.4197 2.4197 4.4602-4.4602-2.4197-2.4197c1.6234-2.2794 2.7532-4.9325 3.2357-7.8063h3.4203v-6.3076h-3.4203c-.2869-1.7093-.8073-3.3366-1.5201-4.8575zm-4.5209 8.0113c0 6.9674-5.6476 12.615-12.615 12.615s-12.615-5.6476-12.615-12.615 5.6476-12.615 12.615-12.615 12.615 5.6476 12.615 12.615z" fill="#fa541c"/><path d="m39.8451 13.615c3.4836 0 6.3075-2.8239 6.3075-6.30749 0-3.48354-2.8239-6.30751-6.3075-6.30751-3.4835 0-6.3075 2.82397-6.3075 6.30751 0 3.48359 2.824 6.30749 6.3075 6.30749z" fill="#0cd66e"/><path d="m35.1145 7.30751c0-3.21604 2.4087-5.86441 5.5191-6.25311-.2586-.03232-.5212-.0544-.7885-.0544-3.4833 0-6.3075 2.82419-6.3075 6.30751 0 3.48329 2.8242 6.30749 6.3075 6.30749.2673 0 .5299-.0221.7885-.0544-3.1104-.3887-5.5191-3.037-5.5191-6.25309z" fill="#069a6b"/><path d="m43.7872 5.73069-4.7306 4.73061-3.1538-3.15374 1.5769-1.57687 1.5769 1.57687 3.1537-3.15375z" fill="#cdfcd1"/><g fill="#b3200e"><path d="m16.27 7.656c2.2794-1.62339 4.9317-2.75323 7.8063-3.23575v-3.42025h-3.1537v3.42025c-2.0917.35085-4.0636 1.04862-5.8621 2.02629z"/><path d="m33.7364 12.2835c-1.9017-1.1487-4.1228-1.8221-6.5062-1.8221-.5354 0-1.0589.0442-1.5769.1088 6.2208.7774 11.0382 6.0742 11.0382 12.5063 0 6.432-4.8174 11.7288-11.0382 12.5062.518.0646 1.0415.1088 1.5769.1088 6.9674 0 12.615-5.6476 12.615-12.615 0-3.3872-1.3419-6.455-3.5141-8.721-1.0044-.503-1.8906-1.2086-2.5947-2.072z"/><path d="m8.57319 19.9221c.48252-2.8747 1.61231-5.527 3.23571-7.8063l-2.41968-2.41976 2.88328-2.88332-1.5768-1.57688-4.46023 4.4602 2.41972 2.41976c-1.6234 2.2793-2.75323 4.9316-3.23576 7.8063z"/><path d="m16.27 38.4961-1.2095 1.2095c1.7985.9776 3.7704 1.6754 5.8621 2.0262v3.4203h3.1537v-3.4203c-2.8746-.4825-5.5269-1.6123-7.8063-3.2357z"/><path d="m2 19.9224h3.15375v6.3075h-3.15375z"/><path d="m9.38922 36.4568 2.41968-2.4197c-1.6234-2.2802-2.75319-4.9325-3.23571-7.8071h-3.15376c.48253 2.8746 1.61236 5.5269 3.23576 7.8063l-2.41972 2.4197 4.46023 4.4602 1.5768-1.5768z"/></g><path d="m24.0765 32.5373c-5.225 0-9.4613-4.2363-9.4613-9.4613s4.2363-9.4613 9.4613-9.4613 9.4613 4.2363 9.4613 9.4613-4.2363 9.4613-9.4613 9.4613z" fill="#77f0ed"/><g fill="#116e95"><path d="m16.1921 23.076c0-4.9593 3.8176-9.0197 8.6728-9.4218-.2609-.0213-.5219-.0395-.7884-.0395-5.225 0-9.4613 4.2363-9.4613 9.4613s4.2363 9.4613 9.4613 9.4613c.2665 0 .5275-.0181.7884-.0394-4.8552-.4021-8.6728-4.4626-8.6728-9.4219z"/><path d="m20.9228 19.9226-3.1538 3.1537 3.1538 3.1538v-1.5769l-1.5769-1.5769 1.5769-1.5768z"/><path d="m27.2303 26.2301 3.1538-3.1538-3.1538-3.1537v1.5769l1.5769 1.5768-1.5769 1.5769z"/><path d="m24.0766 18.3457-1.5769 9.4613h1.5769l1.5768-9.4613z"/></g></svg>