<svg fill="none" height="64" viewBox="0 0 64 64" width="64" xmlns="http://www.w3.org/2000/svg"><g fill="#212b36"><path d="m22.2374 4.89426c-.1615-.38275-.5509-.63538-.9677-.61763-.411.01738-.7812.29538-.9091.68688-.2815.86162.6825 1.63987 1.4635 1.17487.4254-.2535.596-.7875.4133-1.24412z"/><path d="m26.5129 4.89426c-.1625-.38513-.5553-.63875-.9752-.61738-.4175.02125-.7889.30913-.9093.70988-.1197.39825.023.83862.3544 1.08975.353.2675.8554.26737 1.2084 0 .3619-.27425.4896-.76263.3217-1.18225z"/><path d="m17.9611 4.89425c-.166-.39337-.5717-.64812-.9999-.6155-.419.03213-.7793.3285-.8915.73313-.2438.87925.7837 1.61562 1.5375 1.08812.3842-.26887.5275-.77225.3539-1.20575z"/><path d="m23.4487 57.7203h-4.2756c-.5534 0-1.0021.4486-1.0021 1.0021 0 .5534.4486 1.0021 1.0021 1.0021h4.2756c.5534 0 1.0021-.4486 1.0021-1.0021s-.4487-1.0021-1.0021-1.0021z"/><path d="m17.0357 42.7557h-5.3445c-.5534 0-1.0021.4486-1.0021 1.0021s.4486 1.0022 1.0021 1.0022h5.3445c.5534 0 1.0021-.4487 1.0021-1.0022s-.4487-1.0021-1.0021-1.0021z"/><path d="m20.2423 45.9624h-8.5511c-.5534 0-1.0021.4486-1.0021 1.0021 0 .5534.4486 1.0022 1.0021 1.0022h8.5511c.5534 0 1.0021-.4487 1.0021-1.0022 0-.5533-.4486-1.0021-1.0021-1.0021z"/><path d="m21.311 23.5156c-1.7314 0-3.1399 1.4085-3.1399 3.1399s1.4085 3.1399 3.1399 3.1399c1.7313 0 3.1398-1.4085 3.1398-3.1399s-1.4086-3.1399-3.1398-3.1399zm0 4.2757c-.6263 0-1.1358-.5096-1.1358-1.1358s.5095-1.1357 1.1358-1.1357c.6262 0 1.1357.5095 1.1357 1.1357s-.5096 1.1358-1.1357 1.1358z"/><path d="m27.7295 14.4045c-1.9665-1.0323-4.1859-1.5779-6.4182-1.5779-2.2324 0-4.4518.5455-6.4183 1.5779-.49.2572-.6787.863-.4215 1.353.2574.4901.863.6787 1.353.4215 1.6804-.882 3.5776-1.3481 5.4869-1.3481 1.9092 0 3.8065.4661 5.4867 1.3481.1488.078.308.115.4649.115.4746 0 .8949-.3464.9851-.8125.0827-.429-.1321-.874-.5186-1.077z"/><path d="m24.7523 20.0875c-1.0559-.5543-2.246-.8473-3.4414-.8473s-2.3855.293-3.4414.8473c-.49.2572-.6787.863-.4215 1.353.2573.49.863.6789 1.353.4215.7809-.4097 1.6253-.6176 2.51-.6176.8848 0 1.7293.2077 2.51.6176.484.254 1.0994.0618 1.353-.4215.257-.49.0684-1.096-.4217-1.353z"/><path d="m26.2405 17.2469c-1.5125-.7937-3.2171-1.2135-4.9295-1.2135s-3.417.4196-4.9294 1.2135c-.49.2573-.6787.8629-.4215 1.353.2571.49.8629.6789 1.353.4215 1.2438-.6529 2.5888-.9838 3.9978-.9838 1.4091 0 2.7541.3312 3.9977.9838.1489.078.3082.115.4652.115.4746 0 .8948-.3464.9851-.8125.0828-.429-.1318-.874-.5184-1.077z"/><path d="m59.842 13.3663-3.043-.1556c-1.444-.0737-6.5657-1.0053-10.0905-2.7677l-1.4339-.71713c-.2821-.14112-.6143-.14112-.8963 0l-1.434.71713c-1.0773.5386-2.304.9993-3.5291 1.382v-6.54737c0-2.91001-2.3677-5.27763-5.2778-5.27763h-25.65335c-2.91013 0-5.27775 2.36762-5.27775 5.27763v13.94017c0 .5533.44862 1.0021 1.00212 1.0021.55338 0 1.00213-.4487 1.00213-1.0021v-8.6625h32.20035v1.8322c-2.0242.5085-3.7986.7844-4.5572.8231l-3.043.1555c-.5329.0273-.9509.4673-.9509 1.0008v16.6308h-18.238c-1.73138 0-3.13988 1.4085-3.13988 3.1399v13.8956c0 1.7314 1.4085 3.1399 3.13988 3.1399h21.3779c1.7313 0 3.1398-1.4085 3.1398-3.1399v-5.3681c.7463.7027 1.5249 1.3654 2.323 1.9794-.033.0994-.0516.2053-.0516.3158v8.4843h-32.20035v-30.0402c0-.5534-.44863-1.0021-1.00213-1.0021-.55337 0-1.00212.4486-1.00212 1.0021v35.318c0 2.9101 2.36762 5.2776 5.27762 5.2776h25.65348c2.9101 0 5.2776-2.3676 5.2776-5.2776v-12.699c1.2832.8269 2.5839 1.515 3.8482 2.0207l1.191.4764c.2372.095.5071.095.7443 0l1.1909-.4764c3.1852-1.274 6.6039-3.6904 9.3798-6.6295 2.2917-2.4265 5.0236-6.1493 5.0236-10.1049v-16.9427c.0003-.5335-.4179-.9735-.9508-1.0007zm-22.4311 45.3561c0 1.805-1.4685 3.2735-3.2735 3.2735h-25.65335c-1.805 0-3.2735-1.4685-3.2735-3.2735v-3.2735h32.20035zm-32.20035-50.17128v-3.27349c0-1.805 1.4685-3.2735 3.2735-3.2735h25.65345c1.805 0 3.2735 1.4685 3.2735 3.2735v3.27349zm4.2755 25.58658c0-.6262.5095-1.1357 1.13575-1.1357h18.4004c.216 1.1576.6351 2.2805 1.1737 3.3403h-20.70985zm0 4.2088h21.90495c.2847.417.5807.8185.8819 1.2025h-22.78685zm23.64935 9.6869c0 .6262-.5095 1.1357-1.1357 1.1357h-21.3779c-.62625 0-1.13575-.5095-1.13575-1.1357v-6.4802h23.64925zm21.1769-7.995c-2.5833 2.7352-5.7424 4.975-8.6671 6.1449l-.8188.3274-.8187-.3274c-2.9248-1.1699-6.0838-3.4097-8.667-6.1449-2.0423-2.1623-4.4767-5.4319-4.4767-8.7288v-15.9903l2.0922-.1069c1.4077-.072 6.8196-.9445 10.8843-2.9769l.9859-.4929.9859.4929c4.0648 2.0324 9.4767 2.9049 10.8844 2.9769l2.0921.1069v15.9903c0 3.2969-2.4344 6.5665-4.4765 8.7288z"/><path d="m47.0983 25.6311h-3.4071v-1.4697h5.5449c1.6577 0 3.0062-1.3485 3.0062-3.0063 0-1.6577-1.3485-3.0062-3.0062-3.0062h-1.2693v-.2004c0-1.6578-1.3485-3.0063-3.0062-3.0063-1.6578 0-3.0063 1.3485-3.0063 3.0063v.2737c-2.4245.4139-4.2756 2.5303-4.2756 5.0708v3.2067c0 2.8365 2.3076 5.144 5.144 5.144h3.4071v1.4698h-5.5449c-1.6577 0-3.0062 1.3485-3.0062 3.0062 0 1.6578 1.3485 3.0063 3.0062 3.0063h1.2693v.2004c0 1.6577 1.3485 3.0062 3.0062 3.0062 1.6578 0 3.0063-1.3485 3.0063-3.0062v-.2738c2.4245-.4139 4.2756-2.5302 4.2756-5.0707v-3.2067c0-2.8365-2.3075-5.1441-5.144-5.1441zm3.1399 8.3508c0 1.7313-1.4085 3.1398-3.1399 3.1398h-.1336c-.5534 0-1.0021.4487-1.0021 1.0022v1.2025c0 .5526-.4495 1.0021-1.0022 1.0021-.5526 0-1.0021-.4495-1.0021-1.0021v-1.2025c0-.5534-.4486-1.0022-1.0021-1.0022h-2.2714c-.5526 0-1.0021-.4495-1.0021-1.0021s.4495-1.0021 1.0021-1.0021h6.4134c.6262 0 1.1357-.5095 1.1357-1.1358v-3.2066c0-.6262-.5095-1.1357-1.1357-1.1357h-4.2755c-1.7314 0-3.1399-1.4085-3.1399-3.1399v-3.2066c0-1.7314 1.4085-3.1399 3.1399-3.1399h.1336c.5534 0 1.0021-.4486 1.0021-1.0021v-1.2025c0-.5527.4495-1.0022 1.0022-1.0022.5526 0 1.0021.4495 1.0021 1.0022v1.2025c0 .5533.4486 1.0021 1.0021 1.0021h2.2714c.5526 0 1.0021.4495 1.0021 1.0021s-.4495 1.0021-1.0021 1.0021h-6.4135c-.6263 0-1.1358.5095-1.1358 1.1358v3.2066c0 .6263.5095 1.1358 1.1358 1.1358h4.2756c1.7314 0 3.1399 1.4085 3.1399 3.1398z"/></g></svg>