<svg fill="none" height="64" viewBox="0 0 64 64" width="64" xmlns="http://www.w3.org/2000/svg" xmlns:xlink="http://www.w3.org/1999/xlink"><clipPath id="a"><path d="m0 0h64v64h-64z"/></clipPath><g clip-path="url(#a)"><path d="m25.2512 3.75c-.5177 0-.9375.41975-.9375.9375s.4198.9375.9375.9375c.5178 0 .9375-.41975.9375-.9375s-.4197-.9375-.9375-.9375zm34.0613 1.63h-8.3763v-2.9425c0-1.344-1.0934-2.4375-2.4375-2.4375h-32.9974c-1.344 0-2.4375 1.0935-2.4375 2.4375v2.9425h-8.3763c-2.58475 0-4.6875 2.10275-4.6875 4.6875v35.3025c0 1.9674 1.18713 3.6495 2.91738 4.3454l-2.22638 3.8562c-1.41525 2.4131-.56025 5.6259 1.88575 7.0381 2.4295 1.4027 5.60262.6003 7.03812-1.8857l5.00353-8.6664h11.9921l-.714 5.3069h-1.0446c-.8676 0-1.6354.5839-1.8671 1.4196l-1.3203 4.7607c-.1634.5883-.0449 1.2046.3246 1.6906s.9318.7646 1.5424.7646h16.937c.6106 0 1.1729-.2788 1.5424-.7648s.4878-1.1022.3247-1.6904l-1.3203-4.7606c-.2318-.836-.9994-1.4198-1.8672-1.4198h-1.0446l-.714-5.3069h21.923c2.5848 0 4.6875-2.1027 4.6875-4.6875v-35.3025c0-2.58475-2.1027-4.6875-4.6875-4.6875zm-8.3763 5.625h7.4388v31.5525h-7.4388zm-35.9974-8.5675c0-.31012.2523-.5625.5625-.5625h32.9974c.3102 0 .5625.25238.5625.5625v5.0625h-34.1224zm7.6018 11.1369c6.8688 0 12.4569 5.5882 12.4569 12.457 0 6.8687-5.5881 12.4569-12.4569 12.4569-7.9705 0-13.94973-7.4592-12.1359-15.2744.1172-.5044-.1968-1.0081-.7012-1.1251-.50437-.117-1.008.1969-1.12513.7013-1.14837 4.9474.50613 10.2353 4.08403 13.6159l-1.687 2.9214c-1.10965-.1958-2.26027.3375-2.8224 1.3195l-1.103 1.9106h-1.425v-31.5525h7.4388v4.2731c-1.0249.9075-1.9305 1.9709-2.6822 3.1724-.2745.4389-.1414 1.0174.2976 1.292.4389.2745 1.0175.1414 1.292-.2976 2.2839-3.6524 6.2067-5.8705 10.5694-5.8705zm-5.8342 25.5466-1.438 2.4904-2.5849-1.4924 1.4406-2.4948c.8023.5839 1.6669 1.0872 2.5823 1.4968zm-14.8314 6.249v-35.3025c0-1.55087 1.26175-2.8125 2.8125-2.8125h8.3763v1.875h-7.8763c-.79262 0-1.4375.64487-1.4375 1.4375v32.4275c0 .7926.64488 1.4375 1.4375 1.4375h.78l-2.09437 3.6276c-1.15625-.3532-1.99813-1.4409-1.99813-2.6901zm13.5782-.5084s-7.44445 12.8941-7.46207 12.9248c-.9035 1.565-2.91175 2.103-4.47676 1.1995-1.54875-.8941-2.09825-2.9375-1.1995-4.4768l7.462-12.9247c.22713-.3987.75613-.5452 1.15163-.3133.0018.001.0034.0023.0051.0034.0028.0016.0058.0026.0087.0043l4.1898 2.4191c.0036.0021.0068.0046.0104.0066.0016.0009.0033.0015.0049.0024.4012.2348.5385.7516.3058 1.1547zm23.6951 12.3778c.028 0 .0527.0187.0601.0456v.0001l1.3204 4.7608c.0118.0301-.0278.0826-.0603.0791h-16.937c-.0326.0034-.0725-.0485-.0601-.0793l1.3203-4.7608c.0075-.0269.0323-.0456.0602-.0456h14.2964zm-11.3601-1.875.7141-5.3069h6.9953l.714 5.3069zm34.3368-9.9944c0 1.5509-1.2617 2.8125-2.8125 2.8125h-43.6116l1.3761-2.3835c.2488-.4309.3642-.9019.3619-1.3665h22.6553c.5179 0 .9375-.4198.9375-.9375 0-.5178-.4196-.9375-.9375-.9375h-23.2069l1.6038-2.7776c1.2848.3791 2.6437.5835 4.0495.5835 7.9026 0 14.3319-6.4293 14.3319-14.3319 0-7.9028-6.4294-14.332-14.3319-14.332-2.7469 0-5.3635.7725-7.6018 2.1765v-4.501h34.1224v33.1825h-4.592c-.5178 0-.9375.4197-.9375.9375 0 .5177.4197.9375.9375.9375h14.3433c.7926 0 1.4375-.6449 1.4375-1.4375v-32.4275c0-.79263-.6449-1.4375-1.4375-1.4375h-7.8763v-1.875h8.3763c1.5508 0 2.8125 1.26163 2.8125 2.8125zm-44.3738-41.62c-.5177 0-.9375.41975-.9375.9375s.4198.9375.9375.9375c.5178 0 .9375-.41975.9375-.9375s-.4197-.9375-.9375-.9375zm3.75 0c-.5177 0-.9375.41975-.9375.9375s.4198.9375.9375.9375c.5178 0 .9375-.41975.9375-.9375s-.4197-.9375-.9375-.9375zm24.7475 15.6539h-7.2487c-.5179 0-.9375.4197-.9375.9375 0 .5177.4196.9375.9375.9375h7.2487c.5179 0 .9375-.4198.9375-.9375 0-.5178-.4196-.9375-.9375-.9375zm0 5.625h-6.3737c-.5179 0-.9375.4197-.9375.9375 0 .5177.4196.9375.9375.9375h6.3737c.5179 0 .9375-.4198.9375-.9375 0-.5178-.4196-.9375-.9375-.9375zm-23.7081 10.2215c5.0834 0 9.219-4.1357 9.219-9.2189 0-5.0834-4.1356-9.219-9.219-9.219-5.0835 0-9.2191 4.1356-9.2191 9.219 0 5.0832 4.1356 9.2189 9.2191 9.2189zm0-16.563c4.0495 0 7.344 3.2945 7.344 7.344s-3.2945 7.3439-7.344 7.3439-7.3441-3.2945-7.3441-7.3439c0-4.0495 3.2946-7.344 7.3441-7.344zm23.7081 11.9665h-7.3737c-.5179 0-.9375.4197-.9375.9375 0 .5177.4196.9375.9375.9375h7.3737c.5179 0 .9375-.4198.9375-.9375 0-.5178-.4196-.9375-.9375-.9375zm.9375-15.9375c0-.5178-.4196-.9375-.9375-.9375h-10.6849c-.5179 0-.9375.4197-.9375.9375 0 .5177.4196.9375.9375.9375h10.6849c.5179 0 .9375-.4198.9375-.9375zm0 22.5c0-.5178-.4196-.9375-.9375-.9375h-10.6849c-.5179 0-.9375.4197-.9375.9375 0 .5177.4196.9375.9375.9375h10.6849c.5179 0 .9375-.4198.9375-.9375z" fill="#063963"/></g></svg>