<svg height="72" viewBox="0 0 80 72" width="80" xmlns="http://www.w3.org/2000/svg"><g transform="translate(0 .64294)"><path d="m63.9454648 1.56495h-47.8903c-4 0-7.62268002 1.62187-10.24503002 4.24421-2.62234 2.6223-4.24422 6.245-4.24422 10.245 0 8.0031 6.48766 14.4892 14.48925002 14.4892h47.8903c4 0 7.6226-1.6219 10.245-4.2426 2.6223-2.6224 4.2442-6.245 4.2442-10.2466 0-8.0016-6.4877-14.48921-14.4892-14.48921z" fill-opacity=".16"/><path d="m51.1916648 39.24006h-.1306c-1.2896 0-2.3983.7617-2.9094 1.8581v-.9065c0-1.6805-1.4977-3.0429-3.345-3.0429-1.4998 0-2.7691.898-3.1934 2.1352-.4219-1.2372-1.6833-2.1352-3.1741-2.1352-1.1505 0-2.1642.535-2.7611 1.3479v-7.3643c0-1.7603-1.427-3.1871-3.1872-3.1871-1.7603 0-3.1872 1.427-3.1872 3.1871v18.9425l-2.8975-2.8226c-1.3131-1.2792-3.4072-1.2756-4.7159.008l-.06.0587c-1.3316 1.3059-1.2813 3.3038-.1842 4.7916 3.2445 4.4006 8.0487 11.0748 8.0487 11.0748v4.585c0 .763.6186 1.3816 1.3816 1.3816h16.9733c.7629 0 1.3815-.6186 1.3815-1.3816v-3.393c3.3271-3.6404 5.1719-8.3937 5.1719-13.3254v-8.6007c0-1.7734-1.4378-3.2112-3.2114-3.2112z" fill-opacity=".16"/><path d="m37.9742648 22.81436c.8646 0 1.5656-.7009 1.5656-1.5656v-5.8781l4.517 6.5409c.4522.6531 1.2095.9297 1.9292.7048.7328-.2289 1.2064-.9101 1.2064-1.7356v-10.5526c0-.8647-.7009-1.5657-1.5656-1.5657s-1.5656.701-1.5656 1.5657v6.0796l-4.7989-6.9489c-.3894-.5636-1.1-.8087-1.7542-.605-.6541.2039-1.0997.8096-1.0997 1.4947v10.9003c0 .8647.7011 1.5655 1.5658 1.5655z"/><path d="m18.0564648 10.32816v10.9206c0 .8647.7009 1.5656 1.5656 1.5656s1.5656-.7009 1.5656-1.5656v-10.9206c0-.8647-.7009-1.5657-1.5656-1.5657-.8647.0002-1.5656.7011-1.5656 1.5657z"/><path d="m30.5734648 14.22466c-.8647 0-1.5657.7009-1.5657 1.5656s.701 1.5656 1.5657 1.5656h1.504c-.4778 1.6889-1.747 2.3293-2.9509 2.3293-2.1477 0-3.8949-1.7472-3.8949-3.8949 0-2.1476 1.7472-3.8948 3.8949-3.8948.7808 0 1.5333.2297 2.1765.6642.7164.484 1.6897.2956 2.1736-.4208.4841-.7164.2957-1.6897-.4207-2.1736-1.1629-.7856-2.5216-1.2008-3.9294-1.2008-3.8742 0-7.026 3.1519-7.026 7.026 0 3.874 3.1519 7.0259 7.026 7.0259 3.697 0 6.2792-2.8892 6.2792-7.0259 0-.8647-.7009-1.5657-1.5656-1.5657z"/><path d="m12.0607648 19.68296c-1.0299 0-2.0188-.413-2.64567002-1.1045-.58078-.6408-1.57078-.6892-2.21141-.1088-.64062.5807-.68937 1.5707-.10875 2.2114 1.2286 1.3557 3.03843002 2.1332 4.96563002 2.1332 2.3987 0 4.4144-1.5382 4.7927-3.6574.2862-1.6025-.4313-3.6923-3.3025-4.7514-1.3071-.4822-2.5265-1.0064-2.936-1.1853-.1906-.167-.1936-.3866-.1758-.5103.0222-.1547.1377-.5336.728-.7114 1.4286-.4306 2.7739.6209 2.8208.6581.6619.548 1.643.46 2.1965-.1987.5565-.6619.4708-1.6494-.191-2.2058-.1066-.0896-2.6441-2.1817-5.7294-1.2517-1.58315002.4768-2.70361002 1.7278-2.92424002 3.2645-.20765 1.4467.41969 2.8386 1.63719 3.6325.06922.0451.14187.0847.21734.1183.06344.0284 1.57311002.7003 3.27311002 1.3273.3366.1242 1.4255.5822 1.3038 1.2635-.0924.5176-.7727 1.0765-1.7103 1.0765z"/><path d="m52.7736648 8.76266c-.8647 0-1.5656.7009-1.5656 1.5656v7.5147c0 1.7208.8195 3.117 2.4359 4.1495.8516.5441 1.8118.8207 2.8538.8221h.0086c.8958 0 1.7376-.1952 2.5017-.58 1.8827-.9482 2.9195-2.5105 2.9195-4.3996v-7.5068c0-.8647-.7009-1.5657-1.5656-1.5657s-1.5656.701-1.5656 1.5657v7.5067c0 .4945-.1422 1.0718-1.1969 1.6029-.3278.1652-.6855.2455-1.0934.2455h-.0042c-.4427-.0006-.8261-.1083-1.1722-.3295-.8249-.5269-.9907-.9689-.9907-1.511v-7.5146c.0002-.8646-.7007-1.5655-1.5653-1.5655z"/><path d="m66.5210648 21.41326v-3.1915h1.4753c2.5959 0 4.7078-2.0849 4.7078-4.6474 0-2.5626-2.1119-4.6475-4.7078-4.6475h-3.0408c-.8647 0-1.5656.701-1.5656 1.5657v10.9207c0 .8647.7009 1.5657 1.5656 1.5657s1.5655-.701 1.5655-1.5657zm0-9.3551h1.4753c.8547 0 1.5767.6944 1.5767 1.5162 0 .8219-.722 1.5163-1.5766 1.5163h-1.4753z"/><path d="m63.7689648 0h-16.7c-.7848 0-1.4863.55672-1.5978 1.33344-.1389.96766.608 1.79766 1.5489 1.79766h16.7598c6.9485 0 12.9303 5.67876 13.0858 12.62546.0797 3.5636-1.2709 6.9264-3.782 9.4375-2.4419 2.4403-5.6874 3.7844-9.1383 3.7844h-27.2201c-.7869-1.541-2.3893-2.5991-4.2349-2.5991s-3.4478 1.0581-4.2347 2.5991h-12.0353c-6.94671002 0-12.92874002-5.6774-13.08577002-12.6224-.08063-3.5636 1.26999-6.9272 3.78234-9.4392 2.44125-2.44123 5.68643002-3.78561 9.13793002-3.78561h16.878c.7849 0 1.4863-.55671 1.5978-1.33343.1389-.96766-.608-1.79782-1.5489-1.79782h-16.927c-4.2878 0-8.31939002 1.67032-11.35205002 4.70282-3.15609 3.15624-4.836562 7.39424-4.69437498 11.87714.27546898 8.6882 7.53046498 15.5296 16.222925 15.5296h11.5061l.0002 14.254-.2395-.2331c-1.9021-1.8528-5.0091-1.8475-6.9047.0119l-.0599.0586c-1.8125 1.7776-1.9589 4.6536-.3481 6.8384 2.7424 3.7194 6.6483 9.1317 7.7433 10.651v4.0796c0 1.6279 1.3195 2.9474 2.9473 2.9474h16.973c1.6277 0 2.9472-1.3195 2.9472-2.9472v-2.7983c3.3398-3.8719 5.1719-8.7904 5.1719-13.9198v-8.6003c0-2.6383-2.1388-4.7772-4.7772-4.7772h-.1305c-.7587 0-1.4764.1786-2.1142.4948-.7505-1.53-2.3241-2.5862-4.1402-2.5862-1.1654 0-2.2304.4356-3.0428 1.1517-.8123-.716-1.8775-1.1517-3.0429-1.1517-.5166 0-1.0132.0867-1.4772.2442l-.0002-3.7177 26.7025-.0001c4.287 0 8.3184-1.6694 11.352-4.7013 3.1555-3.1554 4.8358-7.3931 4.6946-11.8762-.2743-8.6891-7.5296-15.53206-16.223-15.53206zm-26.5256 40.19146c0-.8877.7872-1.5952 1.7-1.461.7315.1075 1.2545.7691 1.2545 1.5086v4.4727c0 .6706.4197 1.2851 1.0595 1.4862 1.0796.3394 2.0718-.4575 2.0718-1.4862v-4.4725c0-.7396.5229-1.4011 1.2545-1.5086.913-.1343 1.7001.5733 1.7001 1.4609v4.4713c0 .7846.5566 1.4861 1.3333 1.5978.9677.1392 1.7978-.608 1.7978-1.5488v-2.2604c0-.9091.7369-1.646 1.646-1.646h.1304c.9091 0 1.646.7369 1.646 1.646v9.2462c0 4.3495-1.8289 8.4122-4.7624 11.6238-.2634.2884-.4095.6651-.4095 1.0557v3.2089h-16.6053l-.0002-4.4011c0-.3282-.1031-.6482-.2948-.9145-.0481-.0669-4.8467-6.732-8.0594-11.0894-.5803-.7871-.799-1.9411.0205-2.7448l.0598-.0588c.6935-.6809 1.8303-.6832 2.5266-.0051l2.8687 2.7945c.3605.3513.864.5356 1.361.4556.7844-.1262 1.3269-.7931 1.3269-1.5481v-18.8987c0-.7989.5595-1.513 1.3478-1.6428 1.0145-.1671 1.8956.6151 1.8956 1.599v13.5307c0 .7848.5567 1.4862 1.3334 1.5978.9677.1389 1.7977-.608 1.7977-1.5489z"/><path d="m40.0003648 3.12823c.863 0 1.5625-.69956 1.5625-1.5625 0-.86295-.6995-1.5625-1.5625-1.5625-.8629 0-1.5625.69955-1.5625 1.5625 0 .86294.6996 1.5625 1.5625 1.5625z"/></g></svg>