<svg fill="none" height="64" viewBox="0 0 65 64" width="65" xmlns="http://www.w3.org/2000/svg"><path d="m4.3335 44v-1h-1v1zm8 0h1v-1h-1zm0 13v1h1v-1zm-8 0h-1v1h1zm32-14v-1h-1v1zm8 0h1v-1h-1zm0 14v1h1v-1zm-8 0h-1v1h1zm-16-30v-1h-1v1zm8 0h1v-1h-1zm0 30v1h1v-1zm-8 0h-1v1h1zm32-30v-1h-1v1zm8 0h1v-1h-1zm0 30v1h1v-1zm-8 0h-1v1h1zm-48-12h8v-2h-8zm7-1v13h2v-13zm1 12h-8v2h8zm-7 1v-13h-2v13zm31-13h8v-2h-8zm7-1v14h2v-14zm1 13h-8v2h8zm-7 1v-14h-2v14zm-17-29h8v-2h-8zm7-1v30h2v-30zm1 29h-8v2h8zm-7 1v-30h-2v30zm31-29h8v-2h-8zm7-1v30h2v-30zm1 29h-8v2h8zm-7 1v-30h-2v30zm-42-30c0 1.6569-1.34315 3-3 3v2c2.7614 0 5-2.2386 5-5zm-3 3c-1.65686 0-3-1.3431-3-3h-2c0 2.7614 2.23857 5 5 5zm-3-3c0-1.6569 1.34314-3 3-3v-2c-2.76143 0-5 2.2386-5 5zm3-3c1.65685 0 3 1.3431 3 3h2c0-2.7614-2.2386-5-5-5zm35 3c0 1.6569-1.3432 3-3 3v2c2.7614 0 5-2.2386 5-5zm-3 3c-1.6569 0-3-1.3431-3-3h-2c0 2.7614 2.2386 5 5 5zm-3-3c0-1.6569 1.3431-3 3-3v-2c-2.7614 0-5 2.2386-5 5zm3-3c1.6568 0 3 1.3431 3 3h2c0-2.7614-2.2386-5-5-5zm-13-13c0 1.6569-1.3431 3-3 3v2c2.7614 0 5-2.2386 5-5zm-3 3c-1.6569 0-3-1.3431-3-3h-2c0 2.7614 2.2386 5 5 5zm-3-3c0-1.65685 1.3431-3 3-3v-2c-2.7614 0-5 2.23858-5 5zm3-3c1.6569 0 3 1.34315 3 3h2c0-2.76142-2.2386-5-5-5zm35 3c0 1.6569-1.3432 3-3 3v2c2.7614 0 5-2.2386 5-5zm-3 3c-1.6569 0-3-1.3431-3-3h-2c0 2.7614 2.2386 5 5 5zm-3-3c0-1.65685 1.3431-3 3-3v-2c-2.7614 0-5 2.23858-5 5zm3-3c1.6568 0 3 1.34315 3 3h2c0-2.76142-2.2386-5-5-5zm-44.4648 16.8791 10.344-10.344-1.4142-1.4142-10.344 10.344zm26.344-1.4142-10.344-10.344-1.4143 1.4142 10.3441 10.344zm5.656 1.4142 10.344-10.344-1.4142-1.4142-10.3441 10.344z" fill="#000"/></svg>