<svg fill="none" height="48" viewBox="0 0 48 48" width="48" xmlns="http://www.w3.org/2000/svg"><g fill="#212b36"><path d="m18.9384 33.6376c-.1813 0-.364-.0624-.513-.1893l-5.1279-4.3665c-.1769-.1508-.2786-.371-.2786-.6036 0-.2322.1021-.4524.2786-.6032l5.1279-4.3664c.333-.2839.8332-.2437 1.1171.0893.2834.3334.2436.8336-.0898 1.117l-4.4191 3.7633 4.4191 3.7633c.3334.2839.3732.784.0898 1.117-.157.1844-.3799.2791-.6041.2791z"/><path d="m29.0616 33.6376c-.2242 0-.4471-.0947-.6036-.2791-.2839-.333-.2437-.8331.0893-1.117l4.4191-3.7633-4.4191-3.7633c-.333-.2834-.3732-.7836-.0893-1.117.2834-.333.784-.3732 1.1166-.0893l5.1279 4.3664c.1769.1508.2786.371.2786.6032 0 .2326-.1017.4528-.2786.6036l-5.1279 4.3665c-.1491.1269-.3317.1893-.513.1893z"/><path d="m22.1847 36.9127c-.0544 0-.1092-.0057-.1645-.0172-.4281-.0902-.7023-.5108-.612-.9389l3.1959-15.1737c.0902-.4281.5103-.7023.9388-.6121.4281.0903.7022.5104.612.9389l-3.1959 15.1737c-.0787.3733-.4077.6293-.7743.6293z"/><path d="m42.6792 45.1794h-37.35845c-2.93366 0-5.32075-2.3866-5.32075-5.3207v-31.70787c0-2.93366 2.38709-5.32075 5.32075-5.32075h37.35845c2.9337 0 5.3208 2.38709 5.3208 5.32075v31.70787c0 2.9341-2.3871 5.3207-5.3208 5.3207zm-37.35845-40.76442c-2.05984 0-3.73584 1.67601-3.73584 3.73585v31.70787c0 2.0598 1.676 3.7358 3.73584 3.7358h37.35845c2.0599 0 3.7359-1.676 3.7359-3.7358v-31.70787c0-2.05984-1.676-3.73585-3.7359-3.73585z"/><path d="m47.2075 15.5195h-46.415047c-.437795 0-.792453-.3547-.792453-.7925 0-.4373.354658-.7924.792453-.7924h46.415047c.4378 0 .7925.3551.7925.7924 0 .4378-.3547.7925-.7925.7925z"/><path d="m13.5398 11.7275c-1.3824 0-2.5078-1.1255-2.5078-2.50783 0-1.38281 1.1254-2.50781 2.5078-2.50781 1.3828 0 2.5078 1.125 2.5078 2.50781 0 1.38233-1.125 2.50783-2.5078 2.50783zm0-3.43074c-.5085 0-.9229.41392-.9229.92291s.4144.92293.9229.92293c.509 0 .9229-.41394.9229-.92293s-.4139-.92291-.9229-.92291z"/><path d="m5.83461 11.7032c-1.38281 0-2.50781-1.125-2.50781-2.50785 0-1.38281 1.125-2.50781 2.50781-2.50781s2.50781 1.125 2.50781 2.50781c0 1.38285-1.125 2.50785-2.50781 2.50785zm0-3.43076c-.50855 0-.92291.41436-.92291.92291 0 .50899.41436.92295.92291.92295.50899 0 .92291-.41396.92291-.92295 0-.50855-.41392-.92291-.92291-.92291z"/><path d="m21.245 11.7514c-1.3824 0-2.5074-1.125-2.5074-2.50785 0-1.38237 1.125-2.50737 2.5074-2.50737 1.3828 0 2.5078 1.125 2.5078 2.50737 0 1.38285-1.125 2.50785-2.5078 2.50785zm0-3.43076c-.5086 0-.9225.41392-.9225.92291s.4139.92295.9225.92295c.509 0 .9229-.41396.9229-.92295s-.4139-.92291-.9229-.92291z"/></g></svg>