<svg fill="none" height="24" viewBox="0 0 24 24" width="24" xmlns="http://www.w3.org/2000/svg" xmlns:xlink="http://www.w3.org/1999/xlink"><clipPath id="a"><path d="m0 0h24v24h-24z"/></clipPath><g clip-path="url(#a)"><path d="m12.0826 17.6725 8.4678-5.9676-11.69466-2.12824-8.600857 5.63484z" fill="#f4d177"/><path d="m11.918 11.7484-8.4678-5.36199 11.6954-1.91278 8.5472 4.99599z" fill="#f66"/><path d="m8.90663 7.11975-6.933-4.38961 9.57537-1.56657 7.0276 4.03243z" fill="#02a9f4"/><path d="m12.7169 18.0445c-.1172-.1853-.2774-.3146-.4543-.3479l-11.875393-2.1283s.508828 1.4714.490688 2.4504c-.013641.7931-.483891 2.2939-.483891 2.2939l11.874596 2.1283c.1769.0332.3372-.0386.4537-.1807.1164-.1422.189-.3539.1882-.6003l-.0037-2.9471c-.0001-.2465-.0727-.4847-.1899-.6683zm10.8963-8.18737-11.8747 1.91207c-.1776.0303-.3379.1459-.4551.313-.123.1761-.1892.3855-.1897.6003l-.003 2.6492c-.0008.2223.0711.4121.1875.5383.1164.1285.2767.1928.4536.1633l11.8754-1.9128s-.341-.8452-.4378-2.1857c-.0635-.8778.4438-2.07767.4438-2.07767zm-14.85876.77117 9.72136-1.5673s-.4272-.71827-.468-1.71623c-.0325-.79004.4733-1.77446.4733-1.77446l-9.72211 1.56652c-.14442.02423-.276.11948-.372.25556-.09605.13533-.15502.30924-.15502.49139l-.003 2.16842c-.00079.1806.05822.3371.15347.4415.0953.1044.22683.1565.372.1346z" fill="#fff3e4"/><path d="m15.2953 15.4087-2.7833 1.9616c-.0585-.0242-.1193-.0424-.1814-.0543l-11.875392-2.1283c-.20639-.0378-.4112809.1024-.44910905.3126-.0089956.0501-.0080319.1015.00283597.1512.01086788.0496.03142668.0967.06050038.1385.0290737.0417.0660917.0773.1089367.1047s.090677.0462.140758.0551l11.87157 2.1276c.0491.0094.1262.0597.1996.1758.0824.1285.1293.2959.1293.4604l.0038 2.9478c.0007.144-.0371.2764-.1006.3539-.0454.0541-.0711.0468-.0862.0449l-11.874595-2.1283c-.20564-.0381-.4112811.1025-.4491092.3127-.00900196.0501-.00804289.1014.0028223.1511.0108653.0497.0314234.0968.0604981.1385.0290748.0418.0660958.0774.1089438.1048s.090683.0461.140767.055l11.870773 2.1276c.0538.0102.1066.0151.1588.0151.2084 0 .4055-.0787.567-.2262l8.0755-5.7693c.2314-.164.3856-.4974.3848-.908l-.0018-1.4537z" fill="#fbac0f"/><path d="m23.5461 13.7385-11.8777 1.9132c-.0279.0057-.0619.0049-.1058-.0439-.0529-.0582-.0854-.1607-.0847-.2756l.003-2.6496c0-.1323.0431-.2699.1195-.378.0604-.0858.1346-.1421.1996-.1531l11.8746-1.9121c.0502-.008.0984-.0258.1417-.0525.0433-.0266.0809-.0616.1107-.1028s.0511-.08795.0628-.13745c.0117-.04949.0135-.10081.0054-.15101-.0341-.21094-.2367-.35724-.4431-.32058 0 0-9.4958 1.54444-12.0993 1.97854l-1.58628-1.0044-1.4992.2382-.59124-1.56189-4.32595-2.73928c-.37275.10959-.81202.61013-.82866 1.17413l-.00379 2.66964c0 .3682.15346.6676.38479.815l8.14133 5.2206c-.0031-.002-.0054-.004-.0084-.006.1504.1099.3271.1681.5111.1681.0483 0 .0975-.0038.1466-.012l11.8754-1.913c.0502-.008.0984-.0258.1417-.0525.0433-.0266.0809-.0616.1107-.1028s.0511-.0879.0628-.1374.0135-.1008.0054-.151c-.0333-.2113-.2382-.3546-.443-.3205z" fill="#e63431"/><path d="m18.4145 8.67898-9.74629 1.55402c-.02573-.028-.05217-.0896-.05217-.1803l.003-2.16877c0-.09525.03028-.19237.08395-.2684.04538-.06427.093-.09225.11719-.09642l9.72212-1.56652c.0502-.00804.0983-.02591.1416-.05257.0433-.02667.081-.06162.1107-.10284.0298-.04123.0512-.08792.0629-.13741.0117-.04948.0135-.1008.0054-.15099-.0341-.21132-.2374-.35536-.4431-.32058 0 0-9.88814 1.60809-9.96449 1.64573l-6.48197-4.10395c-.30469.0892-.66455.49903-.67819.96019l-.02269 2.28365c0 .30319.12553.54811.31528.6691 0 0 6.59185 4.24758 6.86883 4.34178.15234.0518.31673.0324.35906.0259l9.72137-1.56728c.0502-.00804.0983-.0259.1416-.05257s.081-.06161.1107-.10284c.0298-.04122.0512-.08791.0629-.1374s.0135-.1008.0054-.151c-.0341-.21131-.2367-.35531-.4431-.32053z" fill="#006ab3"/></g></svg>