<svg fill="none" height="24" viewBox="0 0 24 24" width="24" xmlns="http://www.w3.org/2000/svg"><path d="m22.4091 1.96593c-.2984-.29833-.7031-.46593-1.125-.46593-.422 0-.8267.1676-1.125.46593l-1.148 1.14797c-.4184.41834-.7336.92837-.9206 1.48969l-.181.54281c-.0929.2799-.2183.54797-.3736.79875-.2857.46207-.6669.85773-1.118 1.16049s-.9617.50561-1.4976.59498l-1.0453.17438 3 3v-.8316c0-.68435.2051-1.35302.5888-1.91975.3836-.56672.9283-1.0055 1.5637-1.25975l.57-.22781c.4304-.1724.8214-.43025 1.1494-.75797l1.6622-1.66219c.2983-.29838.4659-.70305.4659-1.125 0-.42194-.1676-.82661-.4659-1.125zm-1.0341 1.40907c-.0742 0-.1467-.022-.2083-.0632-.0617-.04121-.1098-.09977-.1382-.1683-.0283-.06852-.0358-.14392-.0213-.21666s.0502-.13956.1026-.19201c.0525-.05244.1193-.08816.192-.10263.0728-.01447.1482-.00704.2167.02134s.1271.07645.1683.13812.0632.13417.0632.20834c0 .04925-.0097.09802-.0285.14352-.0189.0455-.0465.08685-.0813.12167s-.0762.06245-.1217.08129-.0943.02853-.1435.02852z" fill="#c4d4e0"/><path d="m2.18604 18.6287.66956.764c.73742.8416 1.66984 1.4896 2.71567 1.8874 1.04583.3977 2.1732.5332 3.28348.3944l.67538-.0844c1.46547-.1832 2.86807-.7051 4.09687-1.5243s2.25-1.9133 2.9828-3.1955c.6408-1.1215.9513-2.4013.8958-3.6917s-.4749-2.5387-1.2097-3.60096z" fill="#e44b4d"/><path d="m13.3557 17.8021c-.0016.0014-.0034.0026-.0052.0037-.5414.4011-1.1144.7577-1.7133 1.0664-.673.3489-1.3766.6354-2.10186.856-3.46734 1.05-6.78984.3159-7.97625-1.981-1.425468-2.76.77484-6.7312 4.91484-8.86966 4.13997-2.13891 8.65217-1.63547 10.07817 1.12496 1.2131 2.348-.1988 5.5725-3.1964 7.7996z" fill="#395166"/><path d="m13.3556 17.8022c-.0016.0014-.0034.0027-.0052.0038-.5414.401-1.1144.7577-1.7133 1.0664-.673.3489-1.3766.6354-2.10185.8559-2.265.5409-4.32843.0441-5.10281-1.4081-1.02328-1.9191.59109-4.778 3.60656-6.3863 3.015-1.6082 6.2892-1.3561 7.3125.5625.8217 1.5403-.0572 3.6872-1.9959 5.3058z" fill="#2f4054"/><g fill="#a6b2bc"><path d="m13.875 9.75c.2071 0 .375-.16789.375-.375s-.1679-.375-.375-.375-.375.16789-.375.375.1679.375.375.375z"/><path d="m15.375 10.5c.2071 0 .375-.1679.375-.375 0-.20711-.1679-.375-.375-.375s-.375.16789-.375.375c0 .2071.1679.375.375.375z"/></g></svg>