<svg fill="none" height="24" viewBox="0 0 24 24" width="24" xmlns="http://www.w3.org/2000/svg" xmlns:xlink="http://www.w3.org/1999/xlink"><clipPath id="a"><path d="m0 0h24v24h-24z"/></clipPath><g clip-path="url(#a)"><path d="m24 12c0 .1339-.0022.2673-.0066.4001-.0017.0542-.196-.0381-.1985.0159-.0194.4211-.073.7632-.1347 1.1719-.0138.091.176.4016.1602.492-.9849 5.6361-5.9023 9.9201-11.8204 9.9201-6.62742 0-12-5.3726-12-12 0-6.62742 5.37258-12 12-12 6.6274 0 12 5.37258 12 12z" fill="#07a9f0"/><path d="m21.4507 10.4849c0 4.5563-3.6937 8.25-8.25 8.25-4.55636 0-8.25002-3.6937-8.25002-8.25 0-4.55638 3.69366-8.25004 8.25002-8.25004 4.5563 0 8.25 3.69366 8.25 8.25004z" fill="#40c1fa"/><path d="m23.9936 12.3999c-.0183.5632-.0761 1.1245-.173 1.6797-.0202-.0249-.0377-.0518-.0523-.0802l-1.6835-3.1779-1.4932 3.7329c-.0348.087-.0948.1615-.1724.2141-.0776.0525-.1691.0806-.2628.0806s-.1852-.0281-.2628-.0806c-.0776-.0526-.1377-.1271-.1725-.2141l-.9375-2.3438c-.0961-.2403.0208-.5131.2612-.6093.2403-.096.5131.0208.6093.2611l.5023 1.2557 1.4398-3.5994c.0334-.08349.0901-.15561.1633-.20776.0733-.05216.16-.08214.2498-.08638.1832-.00783.355.09056.439.25387z" fill="#b4e7fd"/><path d="m19.1615 14.0202c-.9511 2.2959-5.2031 5.7272-7.6663 7.2819-.2698.1703-.5822.2607-.9012.2607s-.63145-.0904-.90119-.2607c-2.46328-1.5547-6.71522-4.986-7.66636-7.2819-3.12543-7.54443 4.77521-10.13652 8.56755-6.52438 3.7923-3.61214 11.693-1.02005 8.5675 6.52438z" fill="#f44545"/><path d="m14.2877 19.2959c-1.0033.7979-1.9923 1.5011-2.7925 2.0062-.2698.1702-.5822.2606-.9012.2606s-.63145-.0904-.90119-.2606c-2.46328-1.5548-6.71522-4.9861-7.66636-7.282-1.465074-3.5364-.50732-5.98478 1.31428-7.2159-.0741 2.88811 1.25804 6.1494 3.85243 8.7438 2.11022 2.1102 4.66164 3.3853 7.09454 3.7479z" fill="#d63030"/><path d="m17.736 11.4853c-.907.5776-4.2986-2.2252-3.8975-3.25177.241-.61687 1.978-.91622 3.1595-.02306 1.2913.97608 1.306 2.91313.738 3.27483z" fill="#fc7979"/><path d="m8.90625 12.4219c0 .6472-.52467 1.1719-1.17187 1.1719-.64721 0-1.17188-.5247-1.17188-1.1719s.52467-1.1719 1.17188-1.1719c.6472 0 1.17187.5247 1.17187 1.1719z" fill="#af2727"/><path d="m7.67409 12.4719c-.24037.096-.51314-.0208-.60932-.2612l-.50227-1.2556-1.43977 3.5994c-.03339.0835-.09009.1556-.16333.2078-.07325.0521-.15995.0821-.24976.0863-.08982.0043-.17896-.0174-.2568-.0624-.07783-.045-.14108-.1115-.1822-.1914l-1.27542-2.48h-2.52647c-.258891 0-.46875-.2099-.46875-.4688 0-.2588.209859-.4687.46875-.4687h2.8125c.08615 0 .17064.0237.24417.0686.07354.0449.13329.1092.17269.1858l.936 1.82 1.49316-3.73289c.03479-.08699.09484-.16156.17242-.21409.07758-.05252.16912-.0806.26281-.0806s.18523.02808.26281.0806c.07758.05253.13763.1271.17242.21409l.9375 2.34379c.09615.2403-.02076.5131-.26114.6093z" fill="#d5f1fe"/><path d="m19.0525 16.4603v1.9758c0 .2589-.2098.4687-.4687.4687h-2.0804v2.0804c0 .2589-.2099.4687-.4687.4687h-1.9758c-.2589 0-.4688-.2098-.4688-.4687v-2.0804h-2.0803c-.2589 0-.4688-.2098-.4688-.4687v-1.9758c0-.2589.2099-.4687.4688-.4687h2.0803v-2.0804c0-.2589.2099-.4687.4688-.4687h1.9758c.2588 0 .4687.2098.4687.4687v2.0804h2.0804c.2588 0 .4687.2098.4687.4687zm-5.9864-14.34901-.3651-.66764c-.0298-.05442-.108-.05442-.1378 0l-.3652.66764c-.0072.01317-.018.024-.0312.03122l-.6676.36515c-.0545.02977-.0545.10796 0 .13777l.6676.36516c.0132.00721.024.01804.0312.03121l.3652.66765c.0298.05442.1079.05442.1378 0l.3651-.66765c.0072-.01317.0181-.024.0312-.03121l.6677-.36516c.0544-.02977.0544-.10795 0-.13777l-.6677-.36515c-.0132-.00719-.024-.01803-.0312-.03122z" fill="#fff5f5"/><path d="m14.5021 15.9915h-.912v-2.0804c0-.2589.2099-.4687.4688-.4687h1.3807c-.2589 0-.4687.2098-.4687.4687v1.6116c0 .2589-.2099.4688-.4688.4688zm-1.6116 0h-1.3807c-.2589 0-.4688.2099-.4688.4687v1.9758c0 .2589.2099.4687.4688.4687h1.3807c-.2589 0-.4687-.2098-.4687-.4687v-1.9758c0-.2588.2098-.4687.4687-.4687zm2.0804 4.9936v-1.6116c0-.2589-.2099-.4688-.4688-.4688h-.912v2.0804c0 .2589.2099.4687.4688.4687h1.3807c-.2589 0-.4687-.2098-.4687-.4687z" fill="#d5f1fe"/><path d="m9.40178 4.19568-.66764.36515c-.01317.00722-.024.01805-.03122.03122l-.36515.66764c-.02977.05447-.10796.05447-.13772 0l-.36516-.66764c-.00722-.01317-.01805-.024-.03122-.03122l-.66764-.36515c-.05442-.02977-.05442-.10796 0-.13772l.66764-.36516c.01317-.00722.024-.01805.03122-.03122l.36516-.66764c.02976-.05442.10795-.05442.13772 0l.36515.66764c.00722.01317.01805.024.03122.03122l.66764.36516c.05442.02972.05442.10795 0 .13772z" fill="#057aad"/></g></svg>