<svg fill="none" height="24" viewBox="0 0 24 24" width="24" xmlns="http://www.w3.org/2000/svg" xmlns:xlink="http://www.w3.org/1999/xlink"><clipPath id="a"><path d="m0 0h24v24h-24z"/></clipPath><g clip-path="url(#a)"><path d="m22.0604 10.9921c0 .4944-.4184.6085-.9129.6085h-18.29472c-.49446 0-.91284-.076-.91284-.6085v-10.079263c0-.494453.41838-.912837.91284-.912837h18.25672c.4945 0 .9128.418384.9128.912837v10.079263z" fill="#e7eef2"/><path d="m22.0604 23.3915c0 .4944-.4184.6085-.9129.6085h-18.29472c-.49446 0-.91284-.076-.91284-.6085v-10.0792c0-.4945.41838-.9129.91284-.9129h18.25672c.4945 0 .9128.4184.9128.9129v10.0792z" fill="#c7d5dd"/><path d="m22.0604 22.8969c0 .4944-.4184.6085-.9129.6085h-18.29472c-.49446 0-.91284-.0761-.91284-.6085v-10.0793c0-.4944.41838-.9128.91284-.9128h18.25672c.4945 0 .9128.4184.9128.9128v10.0793z" fill="#eff6f9"/><path d="m22.0604 11.2582c0 .4944-.4184.6085-.9129.6085h-18.29472c-.49446 0-.91284-.076-.91284-.6085v-10.07925c0-.494453.41838-.912837.91284-.912837h18.25672c.4945 0 .9128.418384.9128.912837v10.07925z" fill="#00233f"/><path d="m2.85254 11.9048h18.25676c.4944 0 .9128.4184.9128.9128v10.0793c0 .4944-.4184.6085-.9128.6085h-18.25676" fill="#e7eef2"/><path d="m2.85254 11.9048h18.25676c.4944 0 .9128.4184.9128.9128v10.0793c0 .4944-.4184.6085-.9128.6085" fill="#d8e3ea"/><path d="m20.8813 19.7399c0 .4565-.038.5325-.4944.5325h-16.84948c-.45642 0-.49445-.076-.49445-.5325v-6.2377c0-.4564.03803-.5325.49445-.5325h16.84948c.4564 0 .4944.0761.4944.5325z" fill="#b8cad1"/><path d="m20.8813 19.7783c0 .4184-.038.4945-.4944.4945h-16.84948c-.45642 0-.49445-.0761-.49445-.4945v-6.0475c0-.4184.03803-.4945.49445-.4945h16.84948c.4564 0 .4944.0761.4944.4945z" fill="#c7d5dd"/><path d="m4.75443 13.9589c0 .038-.03804.038-.03804.038h-.91283c-.03804 0-.03804-.038-.03804-.038v-.4184c0-.0381.03804-.0381.03804-.0381h.91283c.03804 0 .03804.0381.03804.0381zm1.17908 0c0 .038-.03803.038-.03803.038h-.91284c-.03804 0-.03804-.038-.03804-.038v-.4184c0-.0381.03804-.0381.03804-.0381h.91284c.03803 0 .03803.0381.03803.0381zm1.17908 0c0 .038 0 .038-.03803.038h-.91284c-.03804 0-.03804-.038-.03804-.038v-.4184c0-.0381.03804-.0381.03804-.0381h.91284c.03803 0 .03803.0381.03803.0381zm1.21712 0c0 .038-.03804.038-.03804.038h-.91284c-.03803 0-.03803-.038-.03803-.038v-.4184c0-.0381.03803-.0381.03803-.0381h.91284c.03804 0 .03804.0381.03804.0381zm1.17908 0c0 .038-.03804.038-.03804.038h-.91283c-.03804 0-.03804-.038-.03804-.038v-.4184c0-.0381.03804-.0381.03804-.0381h.91283c.03804 0 .03804.0381.03804.0381zm1.17911 0c0 .038-.0381.038-.0381.038h-.9128c-.03804 0-.03804-.038-.03804-.038v-.4184c0-.0381.03804-.0381.03804-.0381h.9128c.0381 0 .0381.0381.0381.0381zm1.2171 0c0 .038-.0381.038-.0381.038h-.9128c-.038 0-.038-.038-.038-.038v-.4184c0-.0381.038-.0381.038-.0381h.9128c.0381 0 .0381.0381.0381.0381zm1.1791 0c0 .038-.0381.038-.0381.038h-.9128c-.038 0-.038-.038-.038-.038v-.4184c0-.0381.038-.0381.038-.0381h.9128c.0381 0 .0381.0381.0381.0381zm1.179 0c0 .038-.038.038-.038.038h-.9128c-.0381 0-.0381-.038-.0381-.038v-.4184c0-.0381.0381-.0381.0381-.0381h.9128c.038 0 .038.0381.038.0381zm1.2172 0c0 .038-.0381.038-.0381.038h-.9128c-.038 0-.038-.038-.038-.038v-.4184c0-.0381.038-.0381.038-.0381h.8748c.038 0 .038.0381.038.0381v.4184zm1.179 0c0 .038-.038.038-.038.038h-.9128c-.0381 0-.0381-.038-.0381-.038v-.4184c0-.0381.0381-.0381.0381-.0381h.9128c.038 0 .038.0381.038.0381zm1.1791 0c0 .038-.038.038-.038.038h-.9128c-.0381 0-.0381-.038-.0381-.038v-.4184c0-.0381.0381-.0381.0381-.0381h.9128c.038 0 .038.0381.038.0381zm1.2171 0c0 .038-.038.038-.038.038h-.9509c-.038 0-.038-.038-.038-.038v-.4184c0-.0381.038-.0381.038-.0381h.9129c.038 0 .038.0381.038.0381v.4184zm1.2172 0c0 .038-.0381.038-.0381.038h-.9128c-.0381 0-.0381-.038-.0381-.038v-.4184c0-.0381.0381-.0381.0381-.0381h.9128c.0381 0 .0381.0381.0381.0381zm-15.63238 1.103c0 .038-.03803.1141-.1141.1141h-.72266c-.03804 0-.11411-.0381-.11411-.1141v-.7227c0-.038.03804-.1141.11411-.1141h.72266c.03803 0 .1141.038.1141.1141zm1.14105 0c0 .038-.03803.1141-.1141.1141h-.72267c-.03803 0-.07607-.0381-.07607-.1141v-.7227c0-.038.03804-.1141.07607-.1141h.72267c.03803 0 .1141.038.1141.1141zm1.14105 0c0 .038-.03804.1141-.11411.1141h-.72266c-.03804 0-.1141-.0381-.1141-.1141v-.7227c0-.038.03803-.1141.1141-.1141h.72266c.03804 0 .11411.038.11411.1141zm1.17908 0c0 .038-.03804.1141-.11411.1141h-.72266c-.03803 0-.1141-.0381-.1141-.1141v-.7227c0-.038.03803-.1141.1141-.1141h.72266c.03804 0 .11411.038.11411.1141zm1.14104 0c0 .038-.03803.1141-.07607.1141h-.72266c-.03803 0-.1141-.0381-.1141-.1141v-.7227c0-.038.03803-.1141.1141-.1141h.72266c.03804 0 .07607.038.07607.1141zm1.17906 0c0 .038-.038.1141-.1141.1141h-.72264c-.03804 0-.11411-.0381-.11411-.1141v-.7227c0-.038.03804-.1141.11411-.1141h.72264c.0381 0 .1141.038.1141.1141zm1.1411 0c0 .038-.0381.1141-.1141.1141h-.7227c-.038 0-.1141-.0381-.1141-.1141v-.7227c0-.038.038-.1141.1141-.1141h.7227c.038 0 .1141.038.1141.1141zm1.1791 0c0 .038-.0381.1141-.1142.1141h-.7226c-.0381 0-.1141-.0381-.1141-.1141v-.7227c0-.038.038-.1141.1141-.1141h.7226c.0381 0 .1142.038.1142.1141zm1.141 0c0 .038-.038.1141-.1141.1141h-.7227c-.038 0-.1141-.0381-.1141-.1141v-.7227c0-.038.0381-.1141.1141-.1141h.7227c.038 0 .1141.038.1141.1141zm1.1791 0c0 .038-.0381.1141-.0761.1141h-.7227c-.038 0-.1141-.0381-.1141-.1141v-.7227c0-.038.0381-.1141.1141-.1141h.7227c.038 0 .0761.038.0761.1141zm1.141 0c0 .038-.038.1141-.1141.1141h-.6846c-.038 0-.1141-.0381-.1141-.1141v-.7227c0-.038.038-.1141.1141-.1141h.7227c.038 0 .1141.038.1141.1141v.7227zm1.1791 0c0 .038-.038.1141-.0761.1141h-.7607c-.038 0-.1141-.0381-.1141-.1141v-.7227c0-.038.0381-.1141.1141-.1141h.7227c.038 0 .0761.038.0761.1141v.7227zm1.1411 0c0 .038-.0381.1141-.1142.1141h-.7226c-.0381 0-.1141-.0381-.1141-.1141v-.7227c0-.038.038-.1141.1141-.1141h.7607c.038 0 .1141.038.1141.1141v.7227zm1.5974-.7988h-1.2932c-.038 0-.076.0381-.076.1141v.7227c0 .038.038.1141.076.1141h1.2932c.0381 0 .1141-.038.1141-.1141v-.7227c0-.076-.038-.1141-.1141-.1141zm-.7987 1.2552c0-.038.038-.1141.1141-.1141h.7226c.0381 0 .0761.038.0761.1141v.7227c0 .038-.038.1141-.0761.1141h-.7226c-.038 0-.1141-.0381-.1141-.1141zm-1.1411 0c0-.038.0381-.1141.1141-.1141h.7227c.038 0 .1141.038.1141.1141v.7227c0 .038-.038.1141-.1141.1141h-.7227c-.038 0-.1141-.0381-.1141-.1141zm-1.179 0c0-.038.038-.1141.076-.1141h.7227c.038 0 .1141.038.1141.1141v.7227c0 .038-.038.1141-.1141.1141h-.7227c-.038 0-.076-.0381-.076-.1141zm-1.1411 0c0-.038.038-.1141.1141-.1141h.7227c.038 0 .076.038.076.1141v.7227c0 .038-.038.1141-.076.1141h-.7227c-.038 0-.1141-.0381-.1141-.1141zm-1.1791 0c0-.038.0381-.1141.1141-.1141h.7227c.038 0 .1141.038.1141.1141v.7227c0 .038-.038.1141-.1141.1141h-.7227c-.038 0-.1141-.0381-.1141-.1141zm-1.141 0c0-.038.038-.1141.1141-.1141h.7226c.0381 0 .0761.038.0761.1141v.7227c0 .038-.038.1141-.0761.1141h-.7226c-.038 0-.1141-.0381-.1141-.1141zm-1.1791 0c0-.038.038-.1141.0761-.1141h.7226c.0381 0 .1141.038.1141.1141v.7227c0 .038-.038.1141-.1141.1141h-.7226c-.0381 0-.0761-.0381-.0761-.1141zm-1.141 0c0-.038.038-.1141.1141-.1141h.7226c.0381 0 .1141.038.1141.1141v.7227c0 .038-.038.1141-.1141.1141h-.7226c-.0381 0-.1141-.0381-.1141-.1141zm-1.1791 0c0-.038.038-.1141.1141-.1141h.7226c.0381 0 .1141.038.1141.1141v.7227c0 .038-.038.1141-.1141.1141h-.7226c-.0381 0-.1141-.0381-.1141-.1141zm-1.14107 0c0-.038.03803-.1141.1141-.1141h.72267c.03803 0 .1141.038.1141.1141v.7227c0 .038-.03803.1141-.1141.1141h-.72267c-.03803 0-.1141-.0381-.1141-.1141zm-1.17908 0c0-.038.03803-.1141.1141-.1141h.72267c.03803 0 .1141.038.1141.1141v.7227c0 .038-.03803.1141-.1141.1141h-.72267c-.03803 0-.1141-.0381-.1141-.1141zm-1.14105 0c0-.038.03804-.1141.11411-.1141h.72266c.03803 0 .1141.038.1141.1141v.7227c0 .038-.03803.1141-.1141.1141h-.7607c-.03803 0-.1141-.0381-.1141-.1141v-.7227zm-1.17908 0c0-.038.03804-.1141.11411-.1141h.72266c.03803 0 .07607.038.07607.1141v.7227c0 .038-.03804.1141-.07607.1141h-.72266c-.03804 0-.11411-.0381-.11411-.1141zm-1.59746.8368h1.29318c.03804 0 .11411-.0381.11411-.1141v-.7227c0-.038-.03804-.1141-.11411-.1141h-1.29318c-.03804 0-.11411.038-.11411.1141v.7227c.03804.038.07607.1141.11411.1141zm13.54044.3042c0-.038.038-.076.076-.076h.7227c.038 0 .1141.038.1141.076v.7227c0 .038-.038.1141-.1141.1141h-.7227c-.038 0-.076-.038-.076-.1141zm-1.1791 0c0-.038.038-.076.1141-.076h.7227c.038 0 .1141.038.1141.076v.7227c0 .038-.0381.1141-.1141.1141h-.7227c-.038 0-.1141-.038-.1141-.1141zm-1.1411 0c0-.038.0381-.076.1141-.076h.7227c.038 0 .1141.038.1141.076v.7227c0 .038-.038.1141-.1141.1141h-.7227c-.038 0-.1141-.038-.1141-.1141zm-1.179 0c0-.038.038-.076.1141-.076h.7226c.0381 0 .1141.038.1141.076v.7227c0 .038-.038.1141-.1141.1141h-.7226c-.0381 0-.1141-.038-.1141-.1141zm-1.1411 0c0-.038.0381-.076.1141-.076h.6846c.0381 0 .0761.038.0761.076v.7227c0 .038-.038.1141-.0761.1141h-.7226c-.038 0-.1141-.038-.1141-.1141v-.7227zm-1.1791 0c0-.038.0381-.076.0761-.076h.7607c.038 0 .1141.038.1141.076v.7227c0 .038-.038.1141-.1141.1141h-.7227c-.038 0-.076-.038-.076-.1141v-.7227zm-1.141 0c0-.038.038-.076.1141-.076h.7227c.038 0 .076.038.076.076v.7227c0 .038-.038.1141-.076.1141h-.7607c-.0381 0-.1141-.038-.1141-.1141v-.7227zm-1.17909 0c0-.038.03803-.076.07607-.076h.72262c.0381 0 .1141.038.1141.076v.7227c0 .038-.038.1141-.1141.1141h-.68459c-.03803 0-.07607-.038-.07607-.1141v-.7227zm-1.14105 0c0-.038.03804-.076.11411-.076h.72266c.03803 0 .07607.038.07607.076v.7227c0 .038-.03804.1141-.07607.1141h-.72266c-.03804 0-.11411-.038-.11411-.1141zm-1.17908 0c0-.038.03804-.076.11411-.076h.72266c.03803 0 .1141.038.1141.076v.7227c0 .038-.03803.1141-.1141.1141h-.72266c-.03804 0-.11411-.038-.11411-.1141zm-1.14104 0c0-.038.03803-.076.1141-.076h.72266c.03804 0 .11411.038.11411.076v.7227c0 .038-.03804.1141-.11411.1141h-.72266c-.03803 0-.1141-.038-.1141-.1141zm12.81776.8368h1.5594c.0761 0 .1141-.038.1141-.1141v-.7227c0-.038-.038-.076-.1141-.076h-1.5594c-.0761 0-.1141.038-.1141.076v.7227c0 .0761.076.1141.1141.1141zm-14.71951 0h1.55943c.07607 0 .11411-.038.11411-.1141v-.7227c0-.038-.03804-.076-.11411-.076h-1.55943c-.07607 0-.1141.038-.1141.076v.7227c0 .0761.03803.1141.1141.1141zm12.89381.3423c0-.038.038-.1141.0761-.1141h.7226c.0381 0 .1141.038.1141.1141v.7227c0 .038-.038.1141-.1141.1141h-.7226c-.0381 0-.0761-.0381-.0761-.1141zm-1.141 0c0-.038.038-.1141.1141-.1141h.7226c.0381 0 .1141.038.1141.1141v.7227c0 .038-.038.1141-.1141.1141h-.7226c-.0381 0-.1141-.0381-.1141-.1141zm-1.1791 0c0-.038.038-.1141.1141-.1141h.7227c.038 0 .1141.038.1141.1141v.7227c0 .038-.0381.1141-.1141.1141h-.7227c-.038 0-.1141-.0381-.1141-.1141zm-1.1411 0c0-.038.0381-.1141.1141-.1141h.7227c.038 0 .1141.038.1141.1141v.7227c0 .038-.038.1141-.1141.1141h-.7227c-.038 0-.1141-.0381-.1141-.1141zm-1.179 0c0-.038.038-.1141.1141-.1141h.7226c.0381 0 .1141.038.1141.1141v.7227c0 .038-.038.1141-.1141.1141h-.7226c-.0381 0-.1141-.0381-.1141-.1141zm-1.1411 0c0-.038.038-.1141.1141-.1141h.7227c.038 0 .1141.038.1141.1141v.7227c0 .038-.0381.1141-.1141.1141h-.7227c-.038 0-.1141-.0381-.1141-.1141zm-1.17907 0c0-.038.03804-.1141.11411-.1141h.72266c.038 0 .1141.038.1141.1141v.7227c0 .038-.038.1141-.1141.1141h-.72266c-.03804 0-.11411-.0381-.11411-.1141zm-1.14104 0c0-.038.03803-.1141.1141-.1141h.72266c.03804 0 .11411.038.11411.1141v.7227c0 .038-.03804.1141-.11411.1141h-.72266c-.03803 0-.1141-.0381-.1141-.1141zm-1.17908 0c0-.038.03803-.1141.1141-.1141h.72266c.03804 0 .11411.038.11411.1141v.7227c0 .038-.03804.1141-.11411.1141h-.72266c-.03804 0-.1141-.0381-.1141-.1141zm-1.14105 0c0-.038.03803-.1141.1141-.1141h.72267c.03803 0 .1141.038.1141.1141v.7227c0 .038-.03803.1141-.1141.1141h-.72267c-.03803 0-.1141-.0381-.1141-.1141zm-2.47227.8368h2.16799c.07607 0 .1141-.0381.1141-.1141v-.7227c0-.038-.03803-.1141-.1141-.1141h-2.16799c-.07607 0-.1141.038-.1141.1141v.7227c0 .076.03803.1141.1141.1141zm14.11091 0h2.168c.0761 0 .1141-.0381.1141-.1141v-.7227c0-.038-.038-.1141-.1141-.1141h-2.168c-.076 0-.1141.038-.1141.1141v.7227c0 .076.0761.1141.1141.1141zm-3.4992.3423c0-.038.0381-.1141.1141-.1141h.9129c.038 0 .1141.038.1141.1141v.7227c0 .038-.0381.1141-.1141.1141h-.9129c-.038 0-.1141-.0381-.1141-.1141zm-7.26464 0c0-.038.03804-.1141.11411-.1141h.91283c.03804 0 .07607.038.07607.1141v.7227c0 .038-.03803.1141-.07607.1141h-.91283c-.03804 0-.11411-.0381-.11411-.1141zm-1.17908 0c0-.038.03803-.1141.1141-.1141h.72267c.03803 0 .1141.038.1141.1141v.7227c0 .038-.03803.1141-.1141.1141h-.72267c-.03803 0-.1141-.0381-.1141-.1141zm9.81302 0c0-.038.038-.1141.1141-.1141h.7226c.0381 0 .1141.038.1141.1141v.7227c0 .038-.038.1141-.1141.1141h-.7226c-.0381 0-.1141-.0381-.1141-.1141zm-10.9921 0c0-.038.03803-.1141.07607-.1141h.72266c.03804 0 .07607.038.07607.1141v.7227c0 .038-.03803.1141-.07607.1141h-.72266c-.03804 0-.07607-.0381-.07607-.1141zm-1.14105 0c0-.038.03804-.1141.07607-.1141h.72267c.03803 0 .1141.038.1141.1141v.7227c0 .038-.03803.1141-.1141.1141h-.72267c-.03803 0-.07607-.0381-.07607-.1141zm10.42155-.1141h-5.32487c-.03804 0-.11411.038-.11411.1141v.7227c0 .038.03804.1141.11411.1141h5.32487c.038 0 .0761-.0381.0761-.1141v-.7227c0-.0761-.0381-.1141-.0761-.1141zm3.8415.8748c0 .038-.038.038-.038.038h-.9128c-.0381 0-.0381-.038-.0381-.038v-.3043c0-.038.0381-.038.0381-.038h.9128c.038 0 .038.038.038.038zm1.1791 0c0 .038 0 .038-.038.038h-.9129c-.038 0-.038-.038-.038-.038v-.3043c0-.038.038-.038.038-.038h.9129c.038 0 .038.038.038.038zm0-.5325c0 .038 0 .038-.038.038h-.9129c-.038 0-.038-.038-.038-.038v-.3043c0-.038.038-.038.038-.038h.9129c.038 0 .038.038.038.038zm1.1411.5325c0 .038 0 .038-.0381.038h-.9128c-.0381 0-.0381-.038-.0381-.038v-.3043c0-.038.0381-.038.0381-.038h.9128c.0381 0 .0381.038.0381.038z" fill="#00233f"/><path d="m14.3394 22.9733c0 .0761-.0761.1521-.1522.1521h-4.41201c-.07607 0-.15214-.076-.15214-.1521v-2.2821c0-.0761.07607-.1521.15214-.1521h4.37401c.0761 0 .1521.076.1521.1521v2.2821z" fill="#c7d5dd"/><path d="m14.3394 22.9731c0 .076-.0761.1521-.1522.1521h-4.41201c-.07607 0-.15214-.0761-.15214-.1521v-2.092c0-.076.07607-.1521.15214-.1521h4.37401c.0761 0 .1521.0761.1521.1521v2.092z" fill="#d8e3ea"/><path d="m21.2994 12.9699c.168 0 .3043-.1362.3043-.3043 0-.168-.1363-.3043-.3043-.3043-.1681 0-.3043.1363-.3043.3043 0 .1681.1362.3043.3043.3043z" fill="#e7eef2"/><path d="m21.2232 10.7259v-8.90018c0-.45642 0-.836769-.4564-.836769h-17.5721c-.45642-.038035-.45642.342309-.45642.836769v8.93818h18.48492z" fill="#1feadb"/><path d="m21.2232 10.7259v-8.90018c0-.45642 0-.836769-.4564-.836769h-17.5721c-.45642-.038035-.45642.342309-.45642.836769" fill="#15cccc"/><path d="m20.7668.950684h-17.5721c-.45642 0-.45642.380346-.45642.874806v.79873c0-.45642 0-.83677.45642-.83677h17.5341c.4564 0 .4564.38035.4564.83677v-.79873c.038-.49446.038-.874806-.4184-.874806z" fill="#1ab5b5"/><path d="m19.512 12.4756c0 .0761-.0761.1141-.1902.1141h-14.68143c-.1141 0-.19017-.038-.19017-.1141v-.6086c0-.076.07607-.1141.19017-.1141h14.68143c.1141 0 .1902.0381.1902.1141z" fill="#08446d"/><path d="m4.4502 11.8289c0-.076.07607-.1141.19017-.1141h14.68143c.1141 0 .1902.0381.1902.1141v.6086c0 .0761-.0761.1141-.1902.1141" fill="#00233f"/><path d="m11.9809 11.4483.2282.2282.1522-.1521-.3804-.3804-.3803.3804.1521.1521z" fill="#d8e3ea"/><path d="m11.9808.798908c.084 0 .1521-.068115.1521-.15214 0-.084024-.0681-.152139-.1521-.152139-.0841 0-.1522.068115-.1522.152139 0 .084025.0681.15214.1522.15214z" fill="#27d68a"/><path d="m11.981.494629c.076 0 .1521.07607.1521.152139 0 .07607-.0761.15214-.1521.15214" fill="#15af83"/><path d="m11.9038.645894c.021 0 .038-.017029.038-.038035s-.017-.038035-.038-.038035-.0381.017029-.0381.038035.0171.038035.0381.038035z" fill="#cfffef"/></g></svg>