<svg fill="none" height="24" viewBox="0 0 24 24" width="24" xmlns="http://www.w3.org/2000/svg" xmlns:xlink="http://www.w3.org/1999/xlink"><clipPath id="a"><path d="m0 0h24v24h-24z"/></clipPath><g clip-path="url(#a)"><path d="m20.8077 2.11044c-1.6087-1.26477-5.0512-2.0606753-5.1972-2.09367-.2692-.0613028-.5371.107233-.5984.37644-.0082.036246-.0124.073296-.0124.110467 0 .674893-1.3848 1.499763-2.9996 1.499763-1.6147 0-2.99949-.82487-2.99949-1.499763.00005-.075097-.01683-.149241-.04937-.21692-.03255-.067679-.07993-.127153-.13862-.174002-.05798-.0482092-.12634-.082325-.19972-.0996701-.07338-.01734505-.14979-.01744729-.22321-.0002987-.146.0329948-3.58744.8298848-5.19917 2.0936738-1.66473 1.31379-2.13866 7.6448-2.18866 8.36164-.00669.0996.01659.199.06684.2852s.12517.1555.21511.1988c1.1746.5439 2.43035.8918 3.7174 1.0298v10.5183c.00015.0907.02499.1797.07184.2574.04686.0777.11396.1411.19413.1836.08099.044 2.04366 1.0588 6.73292 1.0588 4.6893 0 6.652-1.0148 6.733-1.0588.0801-.0425.1472-.106.1941-.1836.0468-.0777.0717-.1667.0719-.2574v-10.5183c1.2867-.1382 2.5421-.486 3.7164-1.0298.0901-.0432.1652-.1124.2156-.1986.0505-.0863.0739-.1857.0673-.2854-.05-.71684-.5239-7.04785-2.1907-8.35766z" fill="#03a9f4"/><path d="m5.50097 12.0021c-.27609 0-.49993-.2238-.49993-.4999v-2.99953c.04088-.95559-.26206-1.8942-.85388-2.64558-.19179-.19858-.1863-.51508.01228-.70691.19375-.18709.50087-.18709.69457 0 .78808.93476 1.19725 2.1309 1.14681 3.35249v2.99953c.00009.2761-.22375.4999-.49985.4999zm12.99793 0c-.2761 0-.4999-.2238-.4999-.4999v-2.99953c-.051-1.22179.3578-2.41831 1.1458-3.35347.1918-.19858.5083-.20411.7069-.01228s.204.50828.0123.7069c-.0041.00418-.0081.00825-.0123.01228-.5917.75178-.8943 1.69077-.8529 2.64657v2.99953c0 .2761-.2238.4999-.4999.4999z" fill="#0288d1"/><path d="m15.8174.118661c-.0563-.0472961-.1226-.0813632-.1939-.0997003-.0713-.01833699-.1458-.02047839-.218-.0062669-1.1249.2280962-2.2619.3920072-3.4054.4909382-1.1436-.098882-2.28055-.262793-3.40546-.4909382-.07222-.01414039-.14668-.01196398-.21795.0063701-.07127.0183341-.13754.0523624-.19397.0995971-.0568.046811-.10256.105584-.13402.172122-.03145.066539-.04783.139202-.04797.212802 0 1.499765 2.06767 2.499585 3.99937 2.499585s3.9993-.99982 3.9993-2.499585c-.0001-.073602-.0165-.146268-.0479-.212808-.0315-.06654-.0772-.125311-.1341-.172116z" fill="#1976d2"/></g></svg>