<svg fill="none" height="24" viewBox="0 0 24 24" width="24" xmlns="http://www.w3.org/2000/svg"><path d="m16.5186 24h-9.03755c-1.6326 0-2.9625-1.3207-2.9625-2.9625v-18.075c0-1.63955 1.3268-2.9625 2.9625-2.9625h9.03755c1.6362 0 2.9625 1.32352 2.9625 2.9625v18.075c0 1.6388-1.327 2.9625-2.9625 2.9625z" fill="#0a494d"/><path d="m19.4813 21.0375v-18.075c0-1.63903-1.3263-2.9625-2.9626-2.9625h-4.5187v24h4.5187c1.6356 0 2.9626-1.3237 2.9626-2.9625z" fill="#142332"/><path d="m16.5185 1.40625c-.4428 0-.8031.36033-.8031.80316 0 1.21823-.9911 2.20936-2.2094 2.20936h-3.0125c-1.21821 0-2.20934-.99113-2.20934-2.20936 0-.44283-.36028-.80316-.80311-.80316-.85832 0-1.55625.6937-1.55625 1.55625v18.075c0 .8611.69741 1.5563 1.55625 1.5563h9.03755c.8575 0 1.5562-.6939 1.5562-1.5563v-18.075c0-.86175-.6972-1.55625-1.5563-1.55625z" fill="#f4f1f1"/><path d="m18.075 21.0375v-18.075c0-.86175-.6972-1.55625-1.5563-1.55625-.4428 0-.8031.36033-.8031.80316 0 1.21823-.9911 2.20936-2.2093 2.20936h-1.5063v18.17503h4.5187c.8576 0 1.5563-.6939 1.5563-1.5563z" fill="#e7dfdd"/><path d="m15.7656 17.2217c.3884 0 .7032-.3148.7032-.7031 0-.3884-.3148-.7032-.7032-.7032-.3883 0-.7031.3148-.7031.7032 0 .3883.3148.7031.7031.7031z" fill="#d0c8c3"/><path d="m12.7531 17.2217h-4.51872c-.38832 0-.70313-.3148-.70313-.7031 0-.3884.31481-.7032.70313-.7032h4.51872c.3883 0 .7031.3148.7031.7032 0 .3883-.3148.7031-.7031.7031z" fill="#e7dfdd"/><path d="m15.7656 14.2093h-7.53122c-.38832 0-.70313-.3148-.70313-.7031v-6.77817c0-.38832.31481-.70313.70313-.70313h7.53122c.3884 0 .7032.31481.7032.70313v6.77817c-.0001.3883-.3148.7031-.7032.7031z" fill="#98f9ff"/><path d="m15.7656 18.8281h-7.53122c-.38832 0-.70313.3148-.70313.7031v3.0625h8.93755v-3.0625c-.0001-.3883-.3148-.7031-.7032-.7031z" fill="#ff7038"/><path d="m13.4563 16.5186c0-.3884-.3148-.7032-.7032-.7032h-.7531v1.4063h.7531c.3884 0 .7032-.3148.7032-.7031z" fill="#dad0cb"/><path d="m16.4687 13.5062v-6.77817c0-.38832-.3148-.70313-.7031-.70313h-3.7656v8.1844h3.7656c.3884 0 .7031-.3148.7031-.7031z" fill="#7dd5f4"/><path d="m16.4687 19.5312c0-.3883-.3148-.7031-.7031-.7031h-3.7656v3.7656h4.4687z" fill="#ff405c"/></svg>