<svg fill="none" height="24" viewBox="0 0 24 24" width="24" xmlns="http://www.w3.org/2000/svg" xmlns:xlink="http://www.w3.org/1999/xlink"><clipPath id="a"><path d="m0 0h24v24h-24z"/></clipPath><g clip-path="url(#a)"><path d="m17.3267 12.3329-5.3267-9.42221-3.95012-2.244674c-2.49637.869964-4.61687 2.541104-6.05391 4.705784l.5232 4.12708-2.5079395 3.00122c.1057845 2.5785 1.0247995 4.9469 2.5079395 6.8557l3.91637.5218 2.01317 3.5877c1.12227.3473 2.31489.5345 3.55129.5345z" fill="#fff"/><path d="m17.377 19.6901 4.1039-.3342c1.464-1.8842 2.379-4.216 2.5041-6.7557l-2.5041-3.0388.4345-4.32172c-1.4349-2.10062-3.5198-3.72142-5.9652-4.573664l-3.9502 2.244674v21.08911c1.2364 0 2.429-.1872 3.5514-.5344z" fill="#ebf3ff"/><path d="m12 16.481 1.6007-4.6761-1.4214-4.15259.099-2.40357-.1081-2.03668.9329-1.77649-1.1031-1.43557c-1.3841 0-2.71305.235077-3.95015.666215l3.48125 2.529295v4.27391l-3.95836 2.87588-4.22523-1.11632-1.35163-3.85698c-1.260803 1.8992-1.99588 4.1776-1.99588 6.628 0 .1677.00436922.3343.0111384.5003l3.1011716-2.3635 4.14326 1.0946 1.52215 4.6847-2.30141 3.3936-3.95723.0462c1.49132 1.9194 3.5523 3.3741 5.92954 4.1096l-1.21625-3.5997 2.29545-3.3849h2.47218z" fill="#525264"/><path d="m16.7444 11.2315 4.043-1.0682 3.1976 2.4371c.0098-.1989.015-.399.015-.6004 0-2.50745-.7695-4.83489-2.0846-6.76012l-1.4117 4.02843-4.0764 1.07699-3.9584-2.87588v-4.27391l3.4813-2.529295c-1.2372-.431138-2.5661-.666215-3.9502-.666215v16.481h2.4721l2.2955 3.385-1.2163 3.5996c2.3773-.7355 4.4382-2.1902 5.9295-4.1095l-3.9572-.0463-2.3014-3.3936z" fill="#454553"/></g></svg>