<svg fill="none" height="24" viewBox="0 0 24 24" width="24" xmlns="http://www.w3.org/2000/svg" xmlns:xlink="http://www.w3.org/1999/xlink"><clipPath id="a"><path d="m0 0h24v24h-24z"/></clipPath><g clip-path="url(#a)"><path d="m16.3274.319824h-14.65762c-.922499 0-1.66978.747326-1.66978 1.669826v.53517l1.31269 9.51318-1.31269 9.4375v.5352c0 .9225.747281 1.6697 1.66978 1.6697h14.65752c.9225 0 1.6698-.7473 1.6698-1.6697v-.5352l-1.4648-9.4375 1.4649-9.51318v-.53517c0-.9225-.7473-1.669826-1.6698-1.669826z" fill="#ccc"/><path d="m16.3276.319824h-5.388l-9.10806 23.360576h14.49606c.9225 0 1.6698-.7473 1.6698-1.6697v-20.02105c0-.9225-.7473-1.669826-1.6698-1.669826z" fill="#adadad"/><path d="m0 2.5249h17.9972v18.9506h-17.9972z" fill="#4d4d4d"/><path d="m2.69092 21.4755h15.30618v-18.9506h-7.9175z" fill="#3b3b3b"/><path d="m17.9973 14.273-3.5625-3.5625-2.8235-.71636.7163 2.82356 5.6697 5.6697z" fill="#2b2b2b"/><path d="m13.5349 7.41796-2.8235-.7163.7163 2.82352 9.5659 9.56592v-.0006l1.6315-.4185.4752-1.6881z" fill="#ebebeb"/><path d="m23.5639 17.4475c.5816.5817.5816 1.525 0 2.1066-.2908.2915-.6722.4369-1.0536.4369s-.7628-.1454-1.0536-.4369l-.463-.463v-.0006l2.1066-2.1066z" fill="#4d4d4d"/></g></svg>