<svg fill="none" height="24" viewBox="0 0 24 24" width="24" xmlns="http://www.w3.org/2000/svg"><path d="m12 9.86102c-.2809 0-.559.05532-.8186.16278-.2595.1075-.4953.2651-.6939.4637s-.3562.4344-.4637.694c-.10747.2595-.1628.5376-.1628.8185s.05533.5591.1628.8186c.1075.2595.2651.4953.4637.6939s.4344.3562.6939.4637c.2596.1075.5377.1628.8186.1628s.559-.0553.8186-.1628c.2595-.1075.4953-.2651.6939-.4637s.3562-.4344.4637-.6939.1628-.5377.1628-.8186-.0553-.559-.1628-.8185c-.1075-.2596-.2651-.4954-.4637-.694s-.4344-.3562-.6939-.4637c-.2596-.10746-.5377-.16278-.8186-.16278zm-5.992 6.39398-.472-.12c-3.518-.889-5.536-2.398-5.536-4.139s2.018-3.24998 5.536-4.13898l.472-.119.133.468c.35638 1.22771.81222 2.42438 1.363 3.57798l.101.213-.101.213c-.55169 1.1533-1.00757 2.35-1.363 3.578zm-.691-7.30498c-2.674.751-4.315 1.89998-4.315 3.04598 0 1.145 1.641 2.294 4.315 3.046.32702-1.0401.72187-2.0576 1.182-3.046-.46066-.9882-.85552-2.00573-1.182-3.04598zm12.675 7.30498-.133-.469c-.356-1.2276-.8122-2.424-1.364-3.577l-.101-.213.101-.213c.5516-1.1534 1.0078-2.35009 1.364-3.57798l.133-.468.473.119c3.517.889 5.535 2.39798 5.535 4.13998s-2.018 3.25-5.535 4.139zm-.491-4.259c.48 1.039.877 2.06 1.182 3.046 2.675-.752 4.315-1.901 4.315-3.046 0-1.146-1.641-2.29398-4.315-3.04598-.3266 1.04022-.7214 2.05778-1.182 3.04598zm-12.191-3.05098-.133-.467c-.989-3.486-.689-5.984.823-6.856 1.483-.856004 3.864.155 6.359 2.716l.34.349-.34.349c-.8865.9216-1.6966 1.91388-2.422 2.967l-.135.193-.235.02c-1.27609.10059-2.54191.3046-3.785.61zm1.896-6.63c-.268 0-.505.058-.705.173-.994.573-1.17 2.565-.485 5.253 1.06564-.23707 2.14559-.40443 3.233-.501.62742-.89212 1.3129-1.74196 2.052-2.544-1.56-1.519-3.037-2.381-4.095-2.381zm9.589 20.36198c-.001 0-.001 0 0 0-1.425 0-3.255-1.073-5.154-3.023l-.34-.349.34-.349c.8863-.9219 1.696-1.9145 2.421-2.968l.135-.193.234-.02c1.2768-.1 2.5433-.3037 3.787-.609l.472-.119.134.468c.987 3.484.688 5.983-.824 6.854-.3673.2077-.7831.314-1.205.308zm-4.096-3.381c1.56 1.519 3.037 2.381 4.095 2.381.267 0 .506-.058.705-.173.994-.573 1.171-2.566.485-5.254-1.0659.2374-2.1462.4048-3.234.501-.6267.8927-1.3118 1.7429-2.051 2.545zm5.991-10.35098-.472-.119c-1.2436-.30628-2.5101-.5103-3.787-.61l-.234-.02-.135-.193c-.7246-1.05345-1.5343-2.04577-2.421-2.967l-.34-.349.34-.349c2.494-2.56 4.874-3.571004 6.359-2.716 1.512.872 1.812 3.37.824 6.855zm-3.94-1.705c1.142.104 2.227.273 3.234.501.686-2.688.509-4.68-.485-5.253-.988-.571-2.845.304-4.8 2.208.7387.80208 1.4239 1.65191 2.051 2.544zm-7.544 15.43698c-.4222.0061-.83844-.1002-1.206-.308-1.512-.871-1.812-3.369-.823-6.854l.132-.468.472.119c1.155.291 2.429.496 3.785.609l.235.02.134.193c.7256 1.0534 1.5356 2.046 2.422 2.968l.34.349-.34.349c-1.898 1.95-3.728 3.023-5.151 3.023zm-1.19-6.427c-.686 2.688-.509 4.681.485 5.254.987.563 2.843-.305 4.8-2.208-.7388-.8026-1.42426-1.6528-2.052-2.545-1.08746-.0961-2.16744-.2635-3.233-.501zm5.984.628c-.823 0-1.669-.036-2.516-.106l-.235-.02-.135-.193c-.47909-.6884-.92948-1.3963-1.35-2.122-.41928-.7262-.80828-1.4695-1.166-2.228l-.099-.213.099-.213c.35767-.7585.74667-1.5018 1.166-2.22798.414-.716.869-1.43 1.35-2.122l.135-.193.235-.02c1.6747-.142 3.3583-.142 5.033 0l.234.02.134.193c.9592 1.37706 1.8011 2.83218 2.517 4.34998l.101.213-.101.213c-.7142 1.5187-1.5562 2.974-2.517 4.35l-.134.193-.234.02c-.847.07-1.694.106-2.517.106zm-2.197-1.084c1.48.111 2.914.111 4.395 0 .8268-1.2087 1.5609-2.4784 2.196-3.798-.6339-1.3204-1.3684-2.59014-2.197-3.79798-1.4626-.11101-2.9314-.11101-4.394 0-.82892 1.20761-1.56343 2.47738-2.197 3.79798.63576 1.3195 1.37018 2.5891 2.197 3.798z" fill="#212b36"/></svg>