<svg fill="none" height="25" viewBox="0 0 24 25" width="24" xmlns="http://www.w3.org/2000/svg"><path d="m17.4333 8.5582c1.1206-.73648 1.8619-2.00449 1.8619-3.44222 0-2.26961-1.8468-4.11598-4.1164-4.11598h-7.06239c-2.26961 0-4.11641 1.84637-4.11641 4.11598 0 1.43773.74121 2.70574 1.86184 3.44222-1.12063.73606-1.86184 2.0041-1.86184 3.4418s.74121 2.7057 1.86184 3.4422c-1.12063.7357-1.86184 2.0041-1.86184 3.4418 0 2.2696 1.85668 4.116 4.13832 4.116 2.30658 0 4.18348-1.8666 4.18348-4.1607v-3.7958c.7313.6664 1.7028 1.0725 2.7676 1.0725h.0894c2.2696 0 4.1164-1.8464 4.1164-4.116 0-1.4377-.7413-2.70574-1.8619-3.4418zm-5.1115-6.20984h2.857c1.5262 0 2.768 1.24137 2.768 2.76762s-1.2418 2.76804-2.768 2.76804h-2.857zm-6.97344 2.76762c0-1.52625 1.2418-2.76762 2.76805-2.76762h2.85699v5.53566h-2.85699c-1.52625 0-2.76805-1.24179-2.76805-2.76804zm0 6.88402c0-1.5263 1.2418-2.76762 2.76805-2.76762h2.85699v5.53562h-2.87461c-1.51809-.0094-2.75043-1.2478-2.75043-2.768zm5.62504 6.8393c0 1.5508-1.27188 2.8123-2.83508 2.8123-1.53828 0-2.78996-1.2413-2.78996-2.7676 0-1.5262 1.2418-2.768 2.76805-2.768h2.85699zm4.2054-4.0713h-.0894c-1.5263 0-2.7676-1.2417-2.7676-2.768s1.2413-2.76762 2.7676-2.76762h.0894c1.5262 0 2.768 1.24132 2.768 2.76762s-1.2418 2.768-2.768 2.768z" fill="#212b36"/></svg>