<svg fill="none" height="25" viewBox="0 0 24 25" width="24" xmlns="http://www.w3.org/2000/svg"><g fill="#212b36"><path d="m7.53598 4.20447h2.95922v10.30513c0 1.4449-.3959 2.6035-1.1877 3.4759-.79181.8724-1.81178 1.3086-3.05989 1.3086-1.34206 0-2.38551-.4055-3.13035-1.2166-.74484-.811-1.11726-1.939-1.11726-3.3839h2.9693c0 1.404.4261 2.106 1.27831 2.106.85892 0 1.28837-.811 1.28837-2.4331z"/><path d="m19.0106 15.1843c0-.6065-.1544-1.0632-.463-1.3699-.302-.3135-.8556-.6372-1.6608-.9712-1.4696-.5657-2.5265-1.2268-3.1706-1.9833-.6442-.7634-.9663-1.66303-.9663-2.699 0-1.25406.4361-2.25936 1.3085-3.01589.879-.76334 1.9929-1.14501 3.3417-1.14501.8992 0 1.7011.19424 2.4056.58273.7046.38167 1.2448.92351 1.6206 1.62551.3825.702.5737 1.49943.5737 2.39226h-2.9492c0-.69518-.1476-1.22339-.4428-1.58461-.2886-.36804-.708-.55206-1.2582-.55206-.5167 0-.9193.15675-1.2079.47027-.2885.3067-.4328.72245-.4328 1.24725 0 .40893.1611.78038.4831 1.11434.3221.32715.8925.66793 1.7112 1.02231 1.4293.5248 2.466 1.1689 3.1102 1.9322.6509.7634.9763 1.7346.9763 2.9137 0 1.2949-.4059 2.3071-1.2179 3.0363-.8119.7293-1.9158 1.0939-3.3115 1.0939-.9462 0-1.8084-.1976-2.5868-.5929s-1.389-.961-1.8319-1.6971c-.4362-.7361-.6543-1.6051-.6543-2.607h2.9693c0 .8588.1644 1.4824.4932 1.8709s.8657.5827 1.6105.5827c1.0334 0 1.5501-.5554 1.5501-1.6664z"/></g></svg>