<svg height="48" viewBox="0 0 48 48" width="48" xmlns="http://www.w3.org/2000/svg"><path d="m24.047 5c-1.555.005-2.633.142-3.936.367-3.848.67-4.549 2.077-4.549 4.67v3.963h9v2h-9.342-4.35c-2.636 0-4.943 1.242-5.674 4.219-.826 3.417-.863 5.557 0 9.125.655 2.661 2.098 4.656 4.735 4.656h3.632v-5.104c0-2.966 2.686-5.896 5.764-5.896h7.236c2.523 0 5-1.862 5-4.377v-8.586c0-2.439-1.759-4.263-4.218-4.672.061-.006-1.756-.371-3.298-.365zm-4.984 4c.821 0 1.5.677 1.5 1.502 0 .833-.679 1.498-1.5 1.498-.837 0-1.5-.664-1.5-1.498 0-.822.663-1.502 1.5-1.502z" fill="#0277bd"/><path d="m23.078 43c1.555-.005 2.633-.142 3.936-.367 3.848-.67 4.549-2.077 4.549-4.67v-3.963h-9v-2h9.343 4.35c2.636 0 4.943-1.242 5.674-4.219.826-3.417.863-5.557 0-9.125-.656-2.661-2.099-4.656-4.736-4.656h-3.632v5.104c0 2.966-2.686 5.896-5.764 5.896h-7.236c-2.523 0-5 1.862-5 4.377v8.586c0 2.439 1.759 4.263 4.218 4.672-.061.006 1.756.371 3.298.365zm4.985-4c-.821 0-1.5-.677-1.5-1.502 0-.833.679-1.498 1.5-1.498.837 0 1.5.664 1.5 1.498 0 .822-.664 1.502-1.5 1.502z" fill="#ffc107"/></svg>