<svg fill="none" height="32" viewBox="0 0 32 32" width="32" xmlns="http://www.w3.org/2000/svg"><path d="m17.9009 25.0643c4.5291-1.0706 7.3327-5.61 6.2621-10.1391-1.0705-4.5291-5.61-7.33273-10.1391-6.26213s-7.33277 5.61003-6.26218 10.13913 5.61008 7.3327 10.13918 6.2621z" fill="#fdab76"/><path d="m15.9609 8.44238v16.85642c4.6474 0 8.4282-3.7809 8.4282-8.4282s-3.7809-8.42822-8.4282-8.42822z" fill="#fa541c" opacity=".48"/><path d="m25.1264 7.70573c-2.0065-2.00648-4.5552-3.27343-7.3155-3.66548l.8079-.8079c.3203-.32036.3203-.83973 0-1.16009-.3203-.3203-.8398-.3203-1.1601 0l-2.0774 2.07741c-.3204.32031-.3204.83973 0 1.16009l2.0773 2.07736c.1602.16018.3701.2403.58.2403s.4199-.08012.58-.2403c.3204-.3203.3204-.83973 0-1.16008l-.4627-.46277c5.1954 1.02484 9.126 5.61493 9.126 11.10643.0001 6.2423-5.0784 11.3207-11.3206 11.3207-6.24217 0-11.32067-5.0784-11.32067-11.3206 0-2.382.731-4.6605 2.11405-6.5892 1.35434-1.88872 3.22137-3.29807 5.39942-4.07562.4267-.15236.649-.62169.4967-1.04841-.1523-.42668-.6217-.64904-1.0484-.49673-2.49391.89037-4.63126 2.50343-6.18105 4.66474-1.58408 2.20912-2.42135 4.81822-2.42135 7.54522 0 3.4621 1.34821 6.717 3.7963 9.165s5.7029 3.7962 9.165 3.7962 6.717-1.3482 9.1651-3.7962c2.448-2.4481 3.7963-5.7029 3.7963-9.165s-1.3483-6.717-3.7963-9.16507z" fill="#fdab76"/><path d="m16.9668 16.0574c-.649-.2293-1.3658-.5058-1.7618-.8164-.0992-.0778-.1414-.2747-.1029-.4791.0202-.1071.1141-.4652.4748-.5738.6347-.1913 1.0672.0602 1.2237.1771.363.2713.877.1971 1.1482-.1658.2713-.3629.197-.8769-.1658-1.1482-.1504-.1124-.5172-.3529-1.042-.4834v-.2201c0-.4531-.3673-.8204-.8204-.8204-.453 0-.8203.3673-.8203.8204v.2706c-.8268.2505-1.4438.955-1.6105 1.8398-.1541.8183.1151 1.6129.7028 2.0738.5811.4558 1.4139.7848 2.2273 1.0723.6417.2268.6606.7182.6148.9908-.0765.4552-.4595.9472-1.1195.9515-.6892.0045-.8853-.0265-1.4054-.3668-.3792-.2481-.8876-.1418-1.1356.2374s-.1418.8875.2374 1.1356c.5658.3701.9898.5315 1.4887.5962v.2461c0 .453.3673.8203.8203.8203.4531 0 .8204-.3673.8204-.8203v-.33c.3865-.1176.7397-.3184 1.0442-.5981.4564-.4194.7644-.9876.8674-1.6.2101-1.2497-.4674-2.3787-1.6858-2.8095z" fill="#fa541c"/><path d="m17.8105 4.04025.8078-.8079c.3204-.32036.3204-.83973 0-1.16009-.3203-.3203-.8397-.3203-1.16 0l-2.0774 2.07741c-.3204.32031-.3204.83973 0 1.16009l2.0774 2.07736c.1601.16018.3701.2403.58.2403s.4199-.08012.58-.2403c.3203-.3203.3203-.83973 0-1.16008l-.4628-.46277c5.1954 1.02484 9.1261 5.61493 9.1261 11.10643.0001 6.2423-5.0784 11.3207-11.3206 11.3207v1.6406c3.4621 0 6.7169-1.3482 9.165-3.7962 2.4481-2.4481 3.7963-5.7029 3.7963-9.165s-1.3482-6.717-3.7963-9.16507c-2.0065-2.00648-4.5551-3.27348-7.3155-3.66548z" fill="#fa541c"/><g fill="#b3200e"><path d="m16.9625 16.0567c-.3336-.1179-.6849-.2484-1.0016-.3894v1.7707c.1511.057.3033.112.4548.1656.6416.2267.6605.7181.6147.9908-.0745.4433-.4406.9203-1.0695.9489v2.6691c.4322-.0233.7758-.3801.7758-.8181v-.33c.3865-.1175.7397-.3184 1.0442-.5981.4565-.4194.7645-.9876.8675-1.5999.2101-1.2498-.4674-2.3789-1.6859-2.8096z"/><path d="m15.9609 11.5288v2.5913c.4228-.019.7134.1531.8355.2444.363.2713.8769.1971 1.1481-.1659.2713-.3629.1971-.8769-.1658-1.1481-.1504-.1125-.5171-.3529-1.042-.4835v-.2201c0-.438-.3436-.7948-.7758-.8181z"/></g></svg>