<svg fill="none" height="32" viewBox="0 0 32 32" width="32" xmlns="http://www.w3.org/2000/svg"><path d="m30.0009 18.4504-4.1009-4.4679c-.3014-.3287-.7269-.5157-1.1729-.5157h-5.0912l-.0002 12.2329h1.9475c0-1.5386 1.2472-2.7859 2.7858-2.7859s2.7859 1.2473 2.7859 2.7859h1.2537c.4223 0 .8273-.1677 1.1259-.4663s.4663-.7036.4662-1.1259z" fill="#fa541c"/><path clip-rule="evenodd" d="m19.6331 18.4509v7.2493h-8.4788c0-1.5388-1.24743-2.7862-2.7862-2.7862s-2.78619 1.2474-2.78619 2.7862h-1.9898c-.42228 0-.82728-.1677-1.12587-.4663s-.46631-.7036-.46624-1.1258v-13.2924c-.00007-.4222.16765-.82723.46624-1.12583.29859-.29859.70359-.46631 1.12587-.46624h1.72706c.09929 2.80707 2.40367 5.03137 5.21253 5.03137 2.8088 0 5.1132-2.2243 5.2124-5.03137h2.2969c.8793.00007 1.5921.71284 1.5921 1.59207z" fill="#fdab76" fill-rule="evenodd"/><path clip-rule="evenodd" d="m15.7469 9.04778c0 .05868-.0006.11735-.0032.17538-.0993 2.80704-2.4037 5.03134-5.2125 5.03134-2.80884 0-5.11322-2.2243-5.21251-5.03134-.00261-.05803-.00326-.1167-.00326-.17538 0-2.88058 2.33517-5.21575 5.21577-5.21575s5.2157 2.33517 5.2157 5.21575z" fill="#e6dbfe" fill-rule="evenodd"/><path d="m27.1527 25.6994c0 1.5386-1.2473 2.7859-2.7859 2.7859s-2.7858-1.2473-2.7858-2.7859 1.2472-2.7858 2.7858-2.7858 2.7859 1.2472 2.7859 2.7858z" fill="#b3200e"/><g clip-rule="evenodd" fill-rule="evenodd"><path d="m8.36789 22.9136c1.53859 0 2.78591 1.2472 2.78591 2.7858s-1.24732 2.7859-2.78591 2.7859-2.78586-1.2473-2.78586-2.7859c.00004-1.5385 1.24729-2.7858 2.78586-2.7858z" fill="#b3200e"/><path d="m12.2698 11.1336c-.1159.0001-.2274-.0439-.3119-.1232l-1.7407-1.62996c-.0922-.0863-.1445-.20691-.1444-.33315v-3.38242c0-.25205.2043-.45637.4563-.45637.2521 0 .4564.20432.4564.45637v3.18487l1.5963 1.49466c.1367.128.1814.3266.1125.5008-.0688.1743-.2371.2887-.4245.2887z" fill="#754ffe"/></g></svg>