<svg fill="none" height="80" viewBox="0 0 80 80" width="80" xmlns="http://www.w3.org/2000/svg" xmlns:xlink="http://www.w3.org/1999/xlink"><linearGradient id="a" gradientUnits="userSpaceOnUse" x1="4.87793" x2="83.3573" y1="0" y2="69.7595"><stop offset="0" stop-color="#fdab76"/><stop offset="1" stop-color="#fa541c"/></linearGradient><path d="m39.9236 0c3.1684 0 5.7375 2.56662 5.7375 5.73342 0 .56727-.0825 1.11528-.236 1.63274l4.2343 2.43623c.7005.40301.9418 1.29761.5388 1.99821-.3793.6594-1.194.9119-1.8727.6033l-.1255-.0644-4.3007-2.47232c-1.0313.99072-2.4324 1.59962-3.9757 1.59962-1.5094 0-2.8828-.5824-3.9072-1.53474l-19.7126 11.36854c.1316.4819.2018.9892.2018 1.5128 0 2.6885-1.8516 4.9444-4.3497 5.5646l-.0003 22.6135c2.4206.6724 4.1974 2.8909 4.1974 5.5245 0 .5725-.084 1.1255-.2404 1.6472l19.557 11.2804c1.0498-1.1584 2.5669-1.886 4.254-1.886 1.7154 0 3.2552.7523 4.3066 1.9449l19.6569-11.3393c-.1563-.5217-.2403-1.0747-.2403-1.6472 0-2.6889 1.8521-4.945 4.3506-5.5648v-22.573c-2.4985-.6198-4.3506-2.8759-4.3506-5.5648 0-.5233.0702-1.0302.2016-1.5119l-12.1374-6.9795c-.7006-.4029-.942-1.2975-.539-1.9981.3792-.6595 1.194-.912 1.8726-.6035l.1255.0644 12.1467 6.985c1.0392-1.0438 2.4779-1.6898 4.0675-1.6898 3.1684 0 5.7375 2.5666 5.7375 5.7334 0 2.6336-1.7767 4.8521-4.1973 5.5245v22.6536c2.4206.6724 4.1973 2.8909 4.1973 5.5245 0 3.1668-2.5691 5.7334-5.7375 5.7334-1.538 0-2.9348-.6048-3.965-1.5894l-19.8769 11.4652c.0778.3764.1187.7663.1187 1.1658 0 3.1668-2.5691 5.7334-5.7375 5.7334-3.1685 0-5.7376-2.5666-5.7376-5.7334 0-.4274.0468-.8438.1356-1.2445l-19.7411-11.3865c-1.0303.9846-2.4271 1.5894-3.9651 1.5894-3.16838 0-5.73747-2.5666-5.73747-5.7334 0-2.6889 1.85212-4.945 4.35064-5.5648l-.00063-22.6133c-2.42062-.6724-4.19736-2.8909-4.19736-5.5245 0-3.1668 2.56908-5.7334 5.73752-5.7334 1.5896 0 3.0283.646 4.0675 1.6898l19.6139-11.31371c-.1712-.54373-.2635-1.12242-.2635-1.72267 0-3.1668 2.5691-5.73342 5.7376-5.73342zm0 70.4844c-1.5527 0-2.8107 1.2568-2.8107 2.8066 0 1.5497 1.258 2.8066 2.8107 2.8066 1.5526 0 2.8106-1.2569 2.8106-2.8066 0-1.5498-1.258-2.8066-2.8106-2.8066zm29.4607-16.775c-1.5526 0-2.8107 1.2568-2.8107 2.8066 0 1.5497 1.2581 2.8065 2.8107 2.8065s2.8107-1.2568 2.8107-2.8065c0-1.5498-1.2581-2.8066-2.8107-2.8066zm-58.7689 0c-1.55257 0-2.81064 1.2568-2.81064 2.8066 0 1.5497 1.25807 2.8065 2.81064 2.8065 1.5527 0 2.8107-1.2568 2.8107-2.8065 0-1.5498-1.258-2.8066-2.8107-2.8066zm58.7689-33.7026c-1.5526 0-2.8107 1.2569-2.8107 2.8066 0 1.5498 1.2581 2.8066 2.8107 2.8066s2.8107-1.2568 2.8107-2.8066c0-1.5497-1.2581-2.8066-2.8107-2.8066zm-58.6162 0c-1.55262 0-2.81069 1.2569-2.81069 2.8066 0 1.5498 1.25807 2.8066 2.81069 2.8066 1.5526 0 2.8107-1.2568 2.8107-2.8066 0-1.5497-1.2581-2.8066-2.8107-2.8066zm29.1555-17.07997c-1.5527 0-2.8107 1.25687-2.8107 2.80659s1.258 2.80659 2.8107 2.80659c1.5526 0 2.8106-1.25687 2.8106-2.80659s-1.258-2.80659-2.8106-2.80659z" fill="url(#a)"/></svg>