<svg fill="none" height="80" viewBox="0 0 80 80" width="80" xmlns="http://www.w3.org/2000/svg" xmlns:xlink="http://www.w3.org/1999/xlink"><clipPath id="a"><path d="m0 0h80v80h-80z"/></clipPath><g clip-path="url(#a)"><path d="m45.9371 34.0635h-16.5728l-8.2864 14.9155-1.6572 1.6572c-2.7511 2.7511-2.7511 7.1925 0 9.9437 2.751 2.751 7.1925 2.7511 9.9438 0l1.6572-1.6572 14.9154-8.2864zm-27.7353 10.5897c.7639-.1456 1.4032-.6586 1.7122-1.3725 1.735-4.0072 5.5917-9.9161 10.3192-15.8056.4791-.5989.6361-1.3935.4175-2.1299-.4473-1.5157-1.9032-1.6323-2.2026-1.7915-.4613-.1538-11.4424-3.648-22.28595 7.1956-8.1925 8.1925-3.51688 13.0559-3.31453 13.2583.91609.9161 2.39859.9161 3.31453 0 2.74172-2.7416 7.20205-2.7416 9.94375 0 .5486.5484 1.3336.7897 2.0959.6456zm36.4538 4.6967c-.7364-.2184-1.5311-.0615-2.1299.4175-6.095 4.891-11.847 8.6489-15.7862 10.3094-.7186.3042-1.2397.9451-1.3903 1.7106-.1474.7655.0923 1.5553.6442 2.1072 2.7416 2.7416 2.7416 7.202 0 9.9438-.9161.916-.9161 2.3986 0 3.3145.2023.2022 5.0658 4.878 13.2583-3.3145 10.8436-10.8436 7.3494-21.8247 7.1956-22.2827-.152-.2855-.2794-1.7617-1.7917-2.2058zm25.09-47.10607c-.1656-1.0275-.9611-1.822973-1.9889-1.988911-.5964-.066406-9.4464-1.226406-20.5171 2.021721l6.853 13.48206 13.6311 7.002c3.2483-11.0705 2.0881-19.92047 2.0219-20.51687zm-30.4939 15.24687c-3.6461 3.6461-3.6461 9.6122 0 13.2583 3.679 3.679 9.6122 3.6461 13.2583 0 3.679-3.6791 3.679-9.5792 0-13.2583-3.6461-3.6461-9.5791-3.6791-13.2583 0z" fill="#919eab"/><path d="m57.2392 2.27661c-7.2589 2.08844-15.4458 6.09891-22.9036 13.55669-2.4528 2.4528-5.1378 5.4691-7.7563 8.6839-4.9719 6.2314-9.0818 12.5293-10.9379 16.9044-.3979.8619-.2321 1.8894.464 2.5855l4.9719 4.9719 11.6009-11.6011c2.7511-2.7511 7.1925-2.7511 9.9438 0 2.784 2.784 2.784 7.1595 0 9.9437l-11.601 11.6009 4.9719 4.9719c.6628.6628 1.6903.8949 2.552.4972 4.3421-1.823 10.5074-5.8006 16.9375-10.9712 3.2149-2.6185 6.2315-5.3033 8.6841-7.756 7.4578-7.4578 11.4683-15.6447 13.5564-22.9037zm5.2701 28.47219c-3.6461 3.6461-9.579 3.6791-13.2583 0-3.6461-3.6461-3.6461-9.6122 0-13.2583 3.6791-3.679 9.6122-3.6461 13.2583 0 3.6791 3.6791 3.6791 9.5792 0 13.2583zm-46.3733 33.1475c-.916-.9159-2.3984-.9159-3.3145 0l-12.134674 12.102c-.916094.9161-.916094 2.3986 0 3.3146.916094.9159 2.398594.9161 3.314534 0l12.13464-12.1021c.9161-.9161.9161-2.3986 0-3.3145zm3.3146 6.6291-3.3146 3.3145c-.916.9161-.916 2.3986 0 3.3145.9161.9161 2.3986.9161 3.3146 0l3.3145-3.3145c.9161-.9159.9161-2.3986 0-3.3145-.9161-.916-2.3984-.916-3.3145 0zm-13.2583-6.6291 3.31453-3.3145c.91607-.9161.91607-2.3986 0-3.3146-.9161-.9161-2.3986-.9161-3.31453 0l-3.31454 3.3146c-.91609.9159-.91609 2.3986 0 3.3145.9161.9159 2.3986.9159 3.31454 0z" fill="#c4cdd5"/></g></svg>