<svg fill="none" height="80" viewBox="0 0 80 80" width="80" xmlns="http://www.w3.org/2000/svg" xmlns:xlink="http://www.w3.org/1999/xlink"><linearGradient id="a" gradientUnits="userSpaceOnUse" x1="4.87793" x2="66.3524" y1="8.78052" y2="78.3401"><stop offset="0" stop-color="#fdab76"/><stop offset="1" stop-color="#fa541c"/></linearGradient><path d="m69.2317 8.78052c3.1684 0 5.7375 2.56658 5.7375 5.73338s-2.5691 5.7335-5.7375 5.7335c-1.5402 0-2.9387-.6065-3.9693-1.5935l-19.9038 11.4803c.098.4199.1498.8575.1498 1.3073 0 2.6335-1.7767 4.852-4.1973 5.5244v22.5011c2.4206.6724 4.1973 2.8909 4.1973 5.5245 0 3.1668-2.5691 5.7334-5.7375 5.7334s-5.7375-2.5666-5.7375-5.7334c0-2.6885 1.8516-4.9444 4.3497-5.5646v-22.4209c-2.4981-.6201-4.3497-2.8761-4.3497-5.5645 0-.5212.0696-1.0262.2-1.5061l-5.4292-3.1786c-.6974-.4083-.9318-1.3047-.5235-2.0022.3843-.6565 1.201-.9027 1.8773-.589l.125.0654 5.4167 3.1706c1.0394-1.046 2.4797-1.6936 4.0712-1.6936 1.6648 0 3.1641.7086 4.2122 1.8405l19.7499-11.3921c-.1554-.5203-.2388-1.0716-.2388-1.6425 0-3.1668 2.569-5.73338 5.7375-5.73338zm-29.4608 53.40438c-1.5526 0-2.8107 1.2569-2.8107 2.8066s1.2581 2.8066 2.8107 2.8066 2.8107-1.2569 2.8107-2.8066-1.2581-2.8066-2.8107-2.8066zm0-33.55c-.8592 0-1.6283.3849-2.1438.9914-.0267.1707-.0861.3383-.1783.4958-.0885.1512-.2.2806-.3274.3865-.105.2912-.1612.6055-.1612.9329 0 1.5497 1.2581 2.8065 2.8107 2.8065s2.8107-1.2568 2.8107-2.8065c0-1.5498-1.2581-2.8066-2.8107-2.8066zm-29.1555-19.85438c3.1685 0 5.7376 2.56658 5.7376 5.73338 0 .5567-.0794 1.0948-.2275 1.6036l10.1757 5.8185c.7016.4012.9452 1.2952.544 1.9968-.3775.6604-1.1917.915-1.8711.6082l-.1257-.0641-10.2338-5.8518c-1.0335 1.004-2.4441 1.6223-3.9992 1.6223-3.16838 0-5.73747-2.5667-5.73747-5.7335s2.56909-5.73338 5.73747-5.73338zm58.6163 2.92678c-1.5526 0-2.8107 1.2569-2.8107 2.8066 0 1.5498 1.2581 2.8066 2.8107 2.8066s2.8107-1.2568 2.8107-2.8066c0-1.5497-1.2581-2.8066-2.8107-2.8066zm-58.6163 0c-1.55257 0-2.81064 1.2569-2.81064 2.8066 0 1.5498 1.25807 2.8066 2.81064 2.8066 1.5527 0 2.8107-1.2568 2.8107-2.8066 0-1.5497-1.258-2.8066-2.8107-2.8066z" fill="url(#a)"/></svg>