<svg fill="none" height="80" viewBox="0 0 80 80" width="80" xmlns="http://www.w3.org/2000/svg" xmlns:xlink="http://www.w3.org/1999/xlink"><clipPath id="a"><path d="m0 0h80v80h-80z"/></clipPath><g clip-path="url(#a)"><path d="m78.3598.00991184c-15.6167-.27999984-33.4267 7.88332816-44.7 20.54668816-10.7733.2033-21.2633 4.62-28.98668 12.3433-.45.4433-.61 1.1067-.41333 1.7067.2.6033.72 1.04 1.34666 1.13l12.84665 1.84-1.5866 1.7766c-.59.66-.56 1.6634.0666 2.29l21.4234 21.4234c.3233.3233.75.4866 1.18.4866.3966 0 .7933-.14 1.11-.4233l1.7766-1.5867 1.84 12.8467c.09.6267.5834 1.0867 1.18 1.2867.1534.05.3134.0733.4767.0733.4733 0 .9567-.2067 1.29-.5367 7.6167-7.6166 12.0333-18.1066 12.2367-28.88 12.6766-11.2966 20.9066-29.1 20.5433-44.69662-.0233-.886668-.74-1.6033348-1.63-1.62666816zm-15.36 28.77328816c-1.6233 1.6234-3.7567 2.4367-5.8933 2.4367-2.1367 0-4.27-.8133-5.8934-2.4367-3.2466-3.25-3.2466-8.5366 0-11.7866 3.25-3.25 8.5367-3.25 11.7867 0s3.25 8.54 0 11.7866z" fill="#c4cdd5"/><path d="m9.0797 56.3499c-3.56666 3.5666-8.46333 19.68-9.009997 21.5033-.176667.5867-.0133333 1.2234.416667 1.6567.32.32.74333.49 1.18.49.16 0 .32-.0233.48-.07 1.82333-.5467 17.93663-5.4433 21.50333-9.01 4.0167-4.0167 4.0167-10.5534 0-14.57-4.02-4.0167-10.5533-4.0134-14.57 0z" fill="#919eab"/></g></svg>