<svg fill="none" height="80" viewBox="0 0 80 80" width="80" xmlns="http://www.w3.org/2000/svg" xmlns:xlink="http://www.w3.org/1999/xlink"><linearGradient id="a" gradientUnits="userSpaceOnUse" x1="9.16675" x2="35.9768" y1="20" y2="70.8704"><stop offset="0" stop-color="#fdab76"/><stop offset="1" stop-color="#fa541c"/></linearGradient><mask id="b" height="80" maskUnits="userSpaceOnUse" width="80" x="0" y="0"><path d="m0 0h80v80h-80z" fill="#fff"/></mask><g mask="url(#b)"><path d="m62.5 37.5h8.33333v7.5h-8.33333z" fill="#b3200e"/><path clip-rule="evenodd" d="m10.1019 40.4888 25.0282-12.46c1.4247-.7093 3.0996-.7048 4.5206.0121l30.2556 15.2661c.8308.4192 1.1651 1.4339.7468 2.2663-.1597.3178-.4156.5769-.731.7403l-25.3382 13.1213c-1.4746.7636-3.2294.7528-4.6945-.029l-29.8297-15.9161c-.82102-.4381-1.13218-1.4601-.69499-2.2828.16502-.3105.42277-.5616.73719-.7182z" fill="#770508" fill-rule="evenodd"/><path clip-rule="evenodd" d="m41.6667 54.2677v4.1933c0 .6264-.5078 1.1343-1.1343 1.1343-.1485 0-.2952-.0292-.4318-.0855l-.1005-.0472-.0002-7.5508c.9989.3525 1.6668 1.2966 1.6668 2.3559zm-31.6666-18.306 30 15.9501v7.5508l-30.00019-15.9524-.00066-.0193-.11404-.0666c-.44539-.2877-.71846-.7836-.71846-1.3198v-7.9378z" fill="#b3200e" fill-rule="evenodd"/><path d="m10.1019 32.9888 25.0282-12.46c1.4247-.7093 3.0996-.7048 4.5206.0121l30.2556 15.2661c.8308.4192 1.1651 1.4339.7468 2.2663-.1597.3178-.4156.5769-.731.7403l-25.3382 13.1213c-1.4746.7636-3.2294.7528-4.6945-.029l-29.8297-15.9161c-.82102-.4381-1.13218-1.4601-.69499-2.2828.16502-.3105.42277-.5616.73719-.7182z" fill="url(#a)"/></g></svg>