<svg fill="none" height="80" viewBox="0 0 80 80" width="80" xmlns="http://www.w3.org/2000/svg" xmlns:xlink="http://www.w3.org/1999/xlink"><linearGradient id="a"><stop offset="0" stop-color="#fdab76"/><stop offset="1" stop-color="#fa541c"/></linearGradient><linearGradient id="b" gradientUnits="userSpaceOnUse" x1="9.16675" x2="35.8984" xlink:href="#a" y1="24.1121" y2="74.9286"/><linearGradient id="c" gradientUnits="userSpaceOnUse" x1="9.16675" x2="35.8984" xlink:href="#a" y1="14.9626" y2="65.7792"/><mask id="d" height="80" maskUnits="userSpaceOnUse" width="80" x="0" y="0"><path d="m0 0h80v80h-80z" fill="#fff"/></mask><mask id="e" height="80" maskUnits="userSpaceOnUse" width="80" x="0" y="4"><path d="m0 4.14941h80v79.8505h-80z" fill="#fff"/></mask><mask id="f" height="80" maskUnits="userSpaceOnUse" width="80" x="0" y="-5"><path d="m0-5h80v79.8505h-80z" fill="#fff"/></mask><g mask="url(#d)"><g mask="url(#e)"><path d="m62.5 41.5793h8.33334v7.48598h-8.33334z" fill="#b3200e"/><path clip-rule="evenodd" d="m10.1019 44.5625 25.0282-12.4368c1.4247-.708 3.0996-.7035 4.5206.0121l30.2556 15.2376c.8308.4184 1.1651 1.4311.7468 2.262-.1597.3172-.4156.5758-.731.7389l-25.3382 13.0968c-1.4746.7622-3.2294.7514-4.6945-.0289l-29.8297-15.8864c-.82102-.4372-1.13218-1.4574-.69499-2.2785.16502-.31.42277-.5606.73719-.7168z" fill="#770508" fill-rule="evenodd"/><path clip-rule="evenodd" d="m41.6667 58.3156v4.1854c0 .6253-.5078 1.1322-1.1343 1.1322-.1485 0-.2952-.0291-.4318-.0853l-.1005-.0471-.0002-7.5367c.9989.3519 1.6668 1.2942 1.6668 2.3515zm-31.6666-18.2718 30 15.9203v7.5366l-30.00019-15.9225-.00066-.0193-.11405-.0665c-.44538-.2872-.71845-.7821-.71845-1.3173v-7.9229z" fill="#b3200e" fill-rule="evenodd"/><path d="m10.1019 37.0766 25.0282-12.4367c1.4247-.708 3.0996-.7035 4.5206.0121l30.2556 15.2375c.8308.4184 1.1651 1.4312.7468 2.2621-.1597.3172-.4156.5758-.731.7389l-25.3382 13.0967c-1.4746.7622-3.2294.7514-4.6945-.0288l-29.8297-15.8864c-.82102-.4373-1.13218-1.4574-.69499-2.2786.16502-.3099.42277-.5605.73719-.7168z" fill="url(#b)"/></g><g mask="url(#f)"><path d="m62.5 32.4299h8.33334v7.48598h-8.33334z" fill="#b3200e"/><path clip-rule="evenodd" d="m10.1019 35.413 25.0282-12.4367c1.4247-.708 3.0996-.7035 4.5206.0121l30.2556 15.2376c.8308.4184 1.1651 1.4311.7468 2.262-.1597.3172-.4156.5758-.731.7389l-25.3382 13.0968c-1.4746.7621-3.2294.7514-4.6945-.0289l-29.8297-15.8864c-.82102-.4373-1.13218-1.4574-.69499-2.2785.16502-.31.42277-.5606.73719-.7169z" fill="#770508" fill-rule="evenodd"/><path clip-rule="evenodd" d="m41.6667 49.1661v4.1855c0 .6253-.5078 1.1322-1.1343 1.1322-.1485 0-.2952-.0291-.4318-.0853l-.1005-.0472-.0002-7.5366c.9989.3519 1.6668 1.2942 1.6668 2.3514zm-31.6666-18.2717 30 15.9203v7.5366l-30.00019-15.9225-.00066-.0193-.11405-.0665c-.44538-.2872-.71845-.7821-.71845-1.3173v-7.9229z" fill="#b3200e" fill-rule="evenodd"/><path d="m10.1019 27.9272 25.0282-12.4368c1.4247-.7079 3.0996-.7034 4.5206.0122l30.2556 15.2375c.8308.4184 1.1651 1.4312.7468 2.2621-.1597.3172-.4156.5758-.731.7388l-25.3382 13.0968c-1.4746.7622-3.2294.7514-4.6945-.0289l-29.8297-15.8864c-.82102-.4372-1.13218-1.4573-.69499-2.2785.16502-.3099.42277-.5605.73719-.7168z" fill="url(#c)"/></g></g></svg>