<svg fill="none" height="80" viewBox="0 0 80 80" width="80" xmlns="http://www.w3.org/2000/svg" xmlns:xlink="http://www.w3.org/1999/xlink"><linearGradient id="a"><stop offset="0" stop-color="#fdab76"/><stop offset="1" stop-color="#fa541c"/></linearGradient><linearGradient id="b" gradientUnits="userSpaceOnUse" x1="9.16675" x2="35.8346" xlink:href="#a" y1="29.2034" y2="79.976"/><linearGradient id="c" gradientUnits="userSpaceOnUse" x1="9.16675" x2="35.8346" xlink:href="#a" y1="20.0676" y2="70.8403"/><linearGradient id="d" gradientUnits="userSpaceOnUse" x1="9.16675" x2="35.8346" xlink:href="#a" y1="10.9321" y2="61.7048"/><mask id="e" height="80" maskUnits="userSpaceOnUse" width="80" x="0" y="0"><path d="m0 0h80v80h-80z" fill="#fff"/></mask><mask id="f" height="80" maskUnits="userSpaceOnUse" width="80" x="0" y="9"><path d="m0 9.27124h80v79.7288h-80z" fill="#fff"/></mask><mask id="g" height="80" maskUnits="userSpaceOnUse" width="80" x="0" y="0"><path d="m0 .135498h80v79.7288h-80z" fill="#fff"/></mask><mask id="h" height="80" maskUnits="userSpaceOnUse" width="80" x="0" y="-9"><path d="m0-9h80v79.7288h-80z" fill="#fff"/></mask><g mask="url(#e)"><g mask="url(#f)"><path d="m62.5 46.644h8.33334v7.47458h-8.33334z" fill="#b3200e"/><path clip-rule="evenodd" d="m10.1019 49.6228 25.0282-12.4178c1.4247-.7069 3.0996-.7024 4.5206.0121l30.2556 15.2143c.8308.4178 1.1651 1.429.7468 2.2586-.1597.3168-.4156.575-.731.7378l-25.3382 13.0768c-1.4746.761-3.2294.7502-4.6945-.0289l-29.8297-15.8621c-.82102-.4366-1.13218-1.4552-.69499-2.2751.16502-.3095.42277-.5597.73719-.7157z" fill="#770508" fill-rule="evenodd"/><path clip-rule="evenodd" d="m41.6667 63.3548v4.1791c0 .6243-.5078 1.1304-1.1343 1.1304-.1485 0-.2952-.029-.4318-.0851l-.1005-.0471-.0002-7.5251c.9989.3513 1.6668 1.2922 1.6668 2.3478zm-31.6666-18.2439 30 15.8961v7.5251l-30.00019-15.8983-.00066-.0192-.11405-.0665c-.44538-.2867-.71845-.7808-.71845-1.3152v-7.9109z" fill="#b3200e" fill-rule="evenodd"/><path d="m10.1019 42.1482 25.0282-12.4178c1.4247-.7069 3.0996-.7024 4.5206.0121l30.2556 15.2143c.8308.4178 1.1651 1.429.7468 2.2586-.1597.3167-.4156.5749-.731.7378l-25.3382 13.0768c-1.4746.761-3.2294.7502-4.6945-.0289l-29.8297-15.8621c-.82102-.4366-1.13218-1.4552-.69499-2.2751.16502-.3095.42277-.5597.73719-.7157z" fill="url(#b)"/></g><g mask="url(#g)"><path d="m62.5 37.5083h8.33334v7.47458h-8.33334z" fill="#b3200e"/><path clip-rule="evenodd" d="m10.1019 40.487 25.0282-12.4178c1.4247-.7069 3.0996-.7024 4.5206.0121l30.2556 15.2144c.8308.4177 1.1651 1.429.7468 2.2586-.1597.3167-.4156.5749-.731.7377l-25.3382 13.0768c-1.4746.7611-3.2294.7503-4.6945-.0288l-29.8297-15.8622c-.82102-.4366-1.13218-1.4551-.69499-2.275.16502-.3095.42277-.5597.73719-.7158z" fill="#770508" fill-rule="evenodd"/><path clip-rule="evenodd" d="m41.6667 54.2191v4.179c0 .6244-.5078 1.1305-1.1343 1.1305-.1485 0-.2952-.0291-.4318-.0851l-.1005-.0471-.0002-7.5252c.9989.3513 1.6668 1.2922 1.6668 2.3479zm-31.6666-18.2439 30 15.896v7.5252l-30.00019-15.8984-.00066-.0192-.11405-.0664c-.44538-.2867-.71845-.7809-.71845-1.3153v-7.9108z" fill="#b3200e" fill-rule="evenodd"/><path d="m10.1019 33.0124 25.0282-12.4178c1.4247-.7069 3.0996-.7024 4.5206.0121l30.2556 15.2144c.8308.4177 1.1651 1.4289.7468 2.2586-.1597.3167-.4156.5749-.731.7377l-25.3382 13.0768c-1.4746.7611-3.2294.7503-4.6945-.0288l-29.8297-15.8622c-.82102-.4366-1.13218-1.4551-.69499-2.275.16502-.3095.42277-.5598.73719-.7158z" fill="url(#c)"/></g><g mask="url(#h)"><path d="m62.5 28.3728h8.33334v7.47458h-8.33334z" fill="#b3200e"/><path clip-rule="evenodd" d="m10.1019 31.3515 25.0282-12.4178c1.4247-.7069 3.0996-.7024 4.5206.0121l30.2556 15.2144c.8308.4177 1.1651 1.429.7468 2.2586-.1597.3167-.4156.5749-.731.7377l-25.3382 13.0768c-1.4746.7611-3.2294.7503-4.6945-.0288l-29.8297-15.8622c-.82102-.4366-1.13218-1.4551-.69499-2.275.16502-.3095.42277-.5597.73719-.7158z" fill="#770508" fill-rule="evenodd"/><path clip-rule="evenodd" d="m41.6667 45.0836v4.179c0 .6244-.5078 1.1305-1.1343 1.1305-.1485 0-.2952-.0291-.4318-.0851l-.1005-.0471-.0002-7.5252c.9989.3513 1.6668 1.2922 1.6668 2.3479zm-31.6666-18.2439 30 15.896v7.5252l-30.00019-15.8984-.00066-.0192-.11405-.0664c-.44538-.2867-.71845-.7809-.71845-1.3153v-7.9108z" fill="#b3200e" fill-rule="evenodd"/><path d="m10.1019 23.8769 25.0282-12.4178c1.4247-.7069 3.0996-.7024 4.5206.0121l30.2556 15.2144c.8308.4177 1.1651 1.429.7468 2.2586-.1597.3167-.4156.5749-.731.7377l-25.3382 13.0768c-1.4746.7611-3.2294.7503-4.6945-.0288l-29.8297-15.8622c-.82102-.4366-1.13218-1.4551-.69499-2.275.16502-.3095.42277-.5598.73719-.7158z" fill="url(#d)"/></g></g></svg>