<svg fill="none" height="25" viewBox="0 0 24 25" width="24" xmlns="http://www.w3.org/2000/svg"><path d="m11.2796 1.00592c-.0473.0043-.1979.01935-.3334.0301-3.12469.28168-6.05158 1.96746-7.90534 4.55847-1.03226 1.44065-1.69247 3.07482-1.94194 4.80571-.08817.6043-.09892.7827-.09892 1.602 0 .8192.01075.9977.09892 1.6019.59785 4.1305 3.53764 7.601 7.52474 8.8868.71397.2301 1.46664.3871 2.32254.4817.3334.0365 1.7742.0365 2.1076 0 1.4774-.1634 2.729-.529 3.9634-1.159.1893-.0967.2258-.1225.2-.1441-.0172-.0129-.8237-1.0944-1.7914-2.4017l-1.7591-2.376-2.2043-3.2619c-1.2129-1.7933-2.21079-3.2598-2.21939-3.2598-.0086-.0021-.0172 1.4471-.0215 3.2168-.00646 3.0984-.00861 3.2231-.04732 3.2963-.05591.1053-.09892.1483-.18924.1956-.06882.0344-.12904.0409-.45377.0409h-.37204l-.09893-.0624c-.06451-.0408-.11182-.0946-.14408-.1569l-.04516-.0968.0043-4.3112.00645-4.31334.06667-.08386c.03441-.04515.10752-.10321.15914-.13116.08817-.04301.12258-.04731.49462-.04731.43871 0 .51183.0172.62581.14192.03225.0344 1.22584 1.83199 2.65374 3.99725 1.428 2.1653 3.3807 5.1218 4.3398 6.5732l1.7419 2.6384.0882-.0581c.7807-.5075 1.6065-1.2299 2.2602-1.9825 1.3914-1.5976 2.2882-3.5457 2.5893-5.6228.0881-.6042.0989-.7827.0989-1.6019 0-.8193-.0108-.9977-.0989-1.602-.5979-4.13054-3.5377-7.60099-7.5248-8.88683-.7032-.22792-1.4516-.38489-2.2903-.4795-.2064-.0215-1.6279-.045151-1.8064-.02795zm4.5032 6.65279c.1032.0516.1871.15051.2172.25372.0172.05591.0215 1.25143.0172 3.94567l-.0064 3.8661-.6818-1.045-.6838-1.045v-2.8104c0-1.8169.0086-2.83826.0215-2.88772.0344-.12041.1096-.21502.2129-.27092.0881-.04516.1204-.04946.458-.04946.3183 0 .3742.0043.4452.04301z" fill="#212b36"/></svg>