<svg fill="none" height="25" viewBox="0 0 24 25" width="24" xmlns="http://www.w3.org/2000/svg"><g fill="#212b36"><path d="m11.73 6.70919h-3.47156v12.38051h-2.84475v-12.38051h-3.41369v-2.50472h9.73z"/><path d="m19.136 15.1843c0-.6065-.1479-1.0632-.4436-1.3699-.2893-.3135-.8197-.6372-1.5911-.9712-1.408-.5657-2.4205-1.2268-3.0377-1.9833-.6171-.7634-.9257-1.66303-.9257-2.699 0-1.25406.4179-2.25936 1.2536-3.01589.8422-.76334 1.9094-1.14501 3.2016-1.14501.8614 0 1.6297.19424 2.3047.58273.675.38167 1.1925.92351 1.5525 1.62551.3665.702.5497 1.49943.5497 2.39226h-2.8255c0-.69518-.1414-1.22339-.4243-1.58461-.2764-.36804-.6782-.55206-1.2054-.55206-.495 0-.8807.15675-1.1571.47027-.2765.3067-.4147.72245-.4147 1.24725 0 .40893.1543.78038.4629 1.11434.3086.32715.855.66793 1.6393 1.02231 1.3694.5248 2.3626 1.1689 2.9798 1.9322.6236.7634.9354 1.7346.9354 2.9137 0 1.2949-.389 2.3071-1.1669 3.0363-.7779.7293-1.8354 1.0939-3.1726 1.0939-.9064 0-1.7325-.1976-2.4783-.5929-.7457-.3953-1.3307-.961-1.755-1.6971-.4179-.7361-.6269-1.6051-.6269-2.607h2.8448c0 .8588.1575 1.4824.4725 1.8709s.8293.5827 1.5429.5827c.9901 0 1.4851-.5554 1.4851-1.6664z"/></g></svg>