<svg fill="none" height="32" viewBox="0 0 106 32" width="106" xmlns="http://www.w3.org/2000/svg" xmlns:xlink="http://www.w3.org/1999/xlink"><mask id="a" height="32" maskUnits="userSpaceOnUse" width="106" x="0" y="0"><path d="m0 0h106v32h-106z" fill="#919eab"/></mask><g mask="url(#a)"><path clip-rule="evenodd" d="m33.0531 22.1181c.0481.1179.0962.2358.1443.3505.3772 1.067.4931 2.0756.2627 3.0844-.3196 2.1335-1.7414 3.9778-3.7733 4.7856-.7254.3174-1.5378.4614-2.3505.4614-.2323 0-.5228-.0285-.755-.0579-.9577-.1152-1.944-.432-2.9023-.9797-1.1609-.6633-2.3218-1.6143-3.5987-2.9981-1.2769 1.3838-2.4088 2.3348-3.5987 2.9981-.9579.5477-1.9446.8645-2.9025.9797-.2326.0291-.5225.0579-.7547.0579-.8125 0-1.5962-.144-2.3509-.4614-2.00284-.8078-3.45369-2.6233-3.77291-4.7856-.14555-1.0382-.02928-2.0473.34822-3.1138.14496-.3746.28993-.7205.4349-1.0379.10322-.2304.2065-.4552.30721-.6743.12588-.274.24776-.5393.36052-.7959l.02928-.0573c2.00258-4.3242 4.17918-8.7061 6.41398-13.03003l.0873-.17337c.2375-.44885.4696-.90055.6961-1.35501.29-.51925.6095-1.06702 1.045-1.5857.9573-1.09524 2.2632-1.72969 3.7146-1.72969 1.4219 0 2.757.63445 3.6857 1.78758.4281.47861.708.98094.9766 1.46327l.0683.12243c.226.45474.458.90645.6962 1.35501l.087.17337c2.2641 4.32394 4.4114 8.70554 6.4142 13.03004l.029.0288c.1134.2579.2361.5251.3629.8013.0998.2174.2021.4404.3046.6689.0969.2121.1939.4498.2909.6874zm22.5487-12.88161c0 1.03791-.8419 1.87371-1.8869 1.87371-1.0449 0-1.8863-.8358-1.8863-1.87371 0-1.03793.8127-1.87369 1.8863-1.87369 1.0745.0288 1.8869.86485 1.8869 1.87369zm-7.7788 3.77661v.4613s-.8994-1.1537-2.815-1.1537c-3.1632 0-5.6306 2.393-5.6306 5.7081 0 3.2866 2.4384 5.708 5.6306 5.708 1.9446 0 2.815-1.1819 2.815-1.1819v.4899c0 .2307.1745.4032.4065.4032h2.3505v-10.8398h-2.3505c-.232.0008-.4065.203-.4065.4049zm-2.3491 8.1296c1.0446 0 1.9156-.5478 2.3505-1.1822v-3.8632c-.4059-.6053-1.3346-1.1819-2.3505-1.1819-1.8574 0-3.2798 1.1531-3.2798 3.1135 0 1.9607 1.4224 3.1138 3.2798 3.1138zm6.8492-8.5336h2.786v10.8398h-2.786zm38.8034.8652s.9-1.1537 2.8156-1.1537c3.1342 0 5.601 2.4226 5.601 5.7092 0 3.2865-2.4668 5.7074-5.6306 5.7074-1.915 0-2.815-1.1819-2.815-1.1819v.4899c0 .2019-.1736.4037-.4059.4037h-2.3511v-16.05736h2.786zm2.3511 7.6393c-1.0742 0-1.9156-.5472-2.3511-1.1819v-3.8632c.4355-.5765 1.3642-1.1819 2.3511-1.1819 1.8574 0 3.2795 1.1531 3.2795 3.1135s-1.4218 3.1135-3.2795 3.1135zm-6.589 2.364v-6.4574c0-1.8163-.3778-2.854-1.3641-3.6612-.8127-.6918-1.8287-1.0383-3.0479-1.0383-1.0736 0-2.1472.3174-2.9599 1.1537v-.4613c0-.2019-.1743-.4038-.4065-.4038h-2.205v10.8398h2.7854v-7.5532c.5524-.6345 1.4233-1.067 2.2647-1.067 1.5663 0 2.1467.7211 2.1467 2.5081v6.1406zm-16.7457-11.157c-1.915 0-2.815 1.1537-2.815 1.1537v-6.08276h-2.786v16.05736h2.3505c.2323 0 .4065-.2018.4065-.4037v-.4899s.9 1.1819 2.815 1.1819c3.1638 0 5.6306-2.4209 5.6306-5.7074.029-3.2869-2.4378-5.7092-5.6016-5.7092zm-2.815 7.6111c.4355.6347 1.2769 1.1819 2.3505 1.1819 1.8579 0 3.2798-1.1531 3.2798-3.1135s-1.4219-3.1135-3.2798-3.1135c-.9863 0-1.915.6054-2.3505 1.1819zm-5.1951-7.6111c.8414 0 1.2769.1445 1.2769.1445v2.5655s-2.3218-.7785-3.7727.8651v7.5818h-2.7866v-10.8684h2.3511c.2323 0 .406.2019.406.4038v.4614c.523-.6057 1.6549-1.1537 2.5253-1.1537zm-42.0244 11.647c-1.5674-1.9604-2.5833-3.8052-2.9312-5.3616-.145-.6632-.1743-1.2398-.087-1.7587.0577-.4614.2322-.8652.4645-1.2111.5514-.7778 1.4801-1.2683 2.554-1.2683 1.0743 0 2.0319.4614 2.5544 1.2683.2322.3459.4062.75.4647 1.2111.0867.5192.0577 1.1243-.0872 1.7587-.3494 1.5276-1.3653 3.3727-2.9322 5.3616zm8.9388 4.7283c1.4219-.5766 2.4378-1.8743 2.6408-3.3733.1162-.7493.0292-1.4705-.2024-2.2192-.0605-.2007-.1492-.4011-.2463-.6206-.0426-.0962-.0868-.1961-.1309-.3013-.1158-.2304-.2244-.4748-.3329-.7192-.1091-.2457-.2183-.4915-.3349-.7231v-.0288c-2.0362-4.3636-4.1552-8.6886-6.356-12.97269l-.0872-.17337c-.1137-.21189-.2274-.43085-.3413-.65001-.1183-.22765-.2367-.45552-.3552-.67592-.2322-.4605-.4931-.89307-.8127-1.2689-.6094-.69119-1.4218-1.06644-2.3218-1.06644-.8999 0-1.7123.37525-2.3218 1.06644-.3195.37497-.5804.80753-.8127 1.2689-.1126.20999-.2252.42677-.338.64368-.1195.22991-.2391.45997-.3587.68225l-.087.17337c-2.2348 4.26639-4.3824 8.64819-6.38469 12.94389l-.02928.0573c-.23253.4899-.46419.9804-.66743 1.4417-.04451.1062-.08907.2069-.13197.3039-.09682.2189-.18517.4186-.24524.6186-.29052.8072-.34822 1.5278-.26124 2.2483.20296 1.499 1.2189 2.7967 2.64075 3.3733.6674.2592 1.4224.3747 2.2058.288.7255-.0861 1.4506-.3168 2.2053-.7494 1.0449-.5765 2.1189-1.4705 3.3088-2.7967-1.8864-2.335-3.0763-4.4973-3.5115-6.3995-.2322-.8651-.2609-1.7009-.1449-2.4508.1159-.7206.3775-1.3838.7837-1.9604.8996-1.2683 2.4091-2.0468 4.0919-2.0468 1.6827 0 3.1922.7491 4.0924 2.0468.4062.5766.6677 1.2398.7834 1.9604.0876.7499.0583 1.5569-.1449 2.4508-.4355 1.9022-1.5964 4.036-3.5118 6.3707 1.2192 1.3265 2.2639 2.2196 3.3088 2.7967.7541.432 1.4801.6627 2.2056.7494.7541.0867 1.5091 0 2.2055-.288z" fill="#212b36" fill-rule="evenodd"/></g></svg>