<svg fill="none" height="32" viewBox="0 0 106 32" width="106" xmlns="http://www.w3.org/2000/svg" xmlns:xlink="http://www.w3.org/1999/xlink"><mask id="a" height="32" maskUnits="userSpaceOnUse" width="106" x="0" y="0"><path d="m0 0h106v32h-106z" fill="#919eab"/></mask><g fill="#212b36" mask="url(#a)"><path d="m13.1044 9.8716-6.0655 3.8716 6.0655 3.8716-6.0655 3.8716-6.065511-3.9038 6.065511-3.8717-6.065511-3.8393 6.065511-3.8716zm-6.09776 12.8408 6.06556-3.8716 6.0655 3.8716-6.0655 3.8716zm6.09776-5.1298 6.0655-3.8717-6.0655-3.8393 6.0333-3.8716 6.0655 3.8716-6.0655 3.8716 6.0655 3.8716-6.0655 3.8716z"/><path d="m29.9458 9.87221h4.904c3.1296 0 5.7107 1.80679 5.7107 5.93649v.8711c0 4.162-2.4198 6.0332-5.6139 6.0332h-5.0008zm2.7424 2.32299v8.1626h2.0971c1.7745 0 2.9682-1.1615 2.9682-3.7425v-.6776c0-2.581-1.2582-3.7425-3.065-3.7425zm9.3241.129h2.1939l.3549 2.4198c.4195-1.6455 1.4841-2.5166 3.4199-2.5166h.6776v2.7747h-1.1292c-2.2262 0-2.7747.7743-2.7747 2.9682v4.775h-2.7101v-10.4211zm7.1948 5.4203v-.2904c0-3.4844 2.2261-5.388 5.2589-5.388 3.0973 0 5.2589 1.9036 5.2589 5.388v.2904c0 3.4199-2.0971 5.2589-5.2589 5.2589-3.3554-.0323-5.2589-1.839-5.2589-5.2589zm7.7432-.0323v-.2581c0-1.9358-.9679-3.0973-2.5166-3.0973-1.5163 0-2.5165 1.0647-2.5165 3.0973v.2581c0 1.8713.9679 2.936 2.5165 2.936 1.5487-.0323 2.5166-1.0647 2.5166-2.936zm4.1942-5.388h2.2585l.2581 1.9681c.5484-1.3228 1.7099-2.2262 3.4199-2.2262 2.6456 0 4.3878 1.9036 4.3878 5.4203v.2903c0 3.42-1.9358 5.2267-4.3878 5.2267-1.6454 0-2.7747-.7421-3.3231-1.9358v5.2589h-2.6456zm7.5819 5.388v-.2258c0-2.0649-1.0647-3.0973-2.4843-3.0973-1.5163 0-2.5165 1.1615-2.5165 3.0973v.1935c0 1.8391.9679 3.0005 2.4843 3.0005 1.5486-.0322 2.5165-1.0324 2.5165-2.9682zm6.7431 3.0973-.2259 1.9035h-2.3229v-13.87322h2.6456v5.32342c.5807-1.355 1.7422-2.0971 3.3876-2.0971 2.4843.0323 4.3233 1.7422 4.3233 5.1944v.3227c0 3.4521-1.7422 5.4202-4.3878 5.4202-1.7422-.0323-2.8714-.8388-3.4199-2.1939zm5.0331-3.2263v-.2582c0-1.9035-1.0325-2.9682-2.4843-2.9682-1.4841 0-2.5166 1.1938-2.5166 3.0005v.2259c0 1.9358 1.0002 3.065 2.4843 3.065 1.5809 0 2.5166-1.0002 2.5166-3.065zm3.9361.1613v-.2904c0-3.4844 2.2262-5.388 5.259-5.388 3.0972 0 5.2589 1.9036 5.2589 5.388v.2904c0 3.4199-2.1294 5.2589-5.2589 5.2589-3.3554-.0323-5.259-1.839-5.259-5.2589zm7.7755-.0323v-.2581c0-1.9358-.9679-3.0973-2.5165-3.0973-1.5164 0-2.5166 1.0647-2.5166 3.0973v.2581c0 1.8713.9679 2.936 2.5166 2.936 1.5486-.0323 2.5165-1.0647 2.5165-2.936zm6.2914-.3872-3.6458-5.0008h3.1296l2.0966 3.1296 2.13-3.1296h3.097l-3.71 4.9686 3.904 5.4202h-3.065l-2.388-3.4521-2.3228 3.4521h-3.194z"/></g></svg>