<svg fill="none" height="32" viewBox="0 0 106 32" width="106" xmlns="http://www.w3.org/2000/svg" xmlns:xlink="http://www.w3.org/1999/xlink"><mask id="a" height="32" maskUnits="userSpaceOnUse" width="106" x="0" y="0"><path d="m0 0h106v32h-106z" fill="#919eab"/></mask><g fill="#212b36" mask="url(#a)"><path d="m23.2992 3h.6975c2.4213.05264 4.8032 1.02645 6.514 2.75036-.6317.64482-1.2765 1.26332-1.895 1.90814-.9607-.86853-2.1187-1.53967-3.382-1.77655-1.8687-.39479-3.8821-.03948-5.4481 1.02645-1.7108 1.11857-2.8688 3.01355-3.1189 5.0401-.2763 2.0003.2896 4.1058 1.5924 5.6587 1.2501 1.5133 3.1583 2.4608 5.1322 2.5266 1.8424.1053 3.7637-.4606 5.106-1.7502 1.0527-.908 1.5396-2.2898 1.6975-3.6321-2.1845 0-4.369.0132-6.5535 0v-2.7109h9.1986c.4738 2.9083-.2105 6.1851-2.4213 8.2643-1.4739 1.4739-3.5137 2.3424-5.5929 2.5135-2.0134.1974-4.0926-.1843-5.8823-1.1581-2.1451-1.1449-3.8558-3.0793-4.698-5.3559-.7896-2.0924-.8028-4.4611-.0658-6.56668.6711-1.9213 1.9608-3.61889 3.6189-4.80326 1.5923-1.1712 3.5268-1.81602 5.5007-1.93446z"/><path d="m76.0691 3.68424h2.8161v18.79196c-.9343 0-1.8818.0131-2.8161-.0132.0131-6.2508 0-12.51477 0-18.77876z"/><path d="m39.1038 10.1983c1.7371-.32898 3.6189.0395 5.0533 1.0791 1.3028.9212 2.2108 2.3687 2.4872 3.9479.3553 1.8292-.0921 3.8294-1.2765 5.277-1.2765 1.6186-3.3689 2.4871-5.4086 2.3555-1.8687-.1052-3.6847-1.0396-4.7901-2.5661-1.2502-1.6844-1.5529-4.0005-.8686-5.9744.6843-2.1187 2.6188-3.7374 4.8033-4.119zm.3948 2.5003c-.7106.1843-1.3686.5922-1.8424 1.1712-1.2764 1.5266-1.1975 4.0137.2106 5.435.8027.8158 2.0134 1.1975 3.132.9738 1.0396-.1843 1.9476-.8817 2.4477-1.8029.8685-1.566.6185-3.7242-.7106-4.948-.8554-.7896-2.1056-1.1186-3.2373-.8291z"/><path d="m53.053 10.1983c1.9871-.38163 4.1585.1711 5.6455 1.566 2.4214 2.1713 2.6846 6.2377.6185 8.738-1.2502 1.5791-3.2767 2.4477-5.277 2.3556-1.9081-.0527-3.79-1.0002-4.9217-2.5662-1.2765-1.7239-1.5528-4.0926-.829-6.106.7237-2.0529 2.6187-3.6189 4.7637-3.9874zm.3948 2.5003c-.7106.1843-1.3686.5922-1.8423 1.1581-1.2633 1.5002-1.2107 3.9479.1447 5.3823.8028.8553 2.0529 1.2765 3.211 1.0396 1.0264-.1974 1.9476-.8817 2.4477-1.8029.8553-1.5791.6053-3.7373-.737-4.9612-.8554-.7895-2.1055-1.1054-3.2241-.8159z"/><path d="m64.8835 10.9615c1.5133-.9475 3.5268-1.21067 5.1585-.3948.5133.2237.9344.6054 1.3423.987.0132-.3553 0-.7238.0132-1.0923.8817.0132 1.7634 0 2.6582.0132v11.6068c-.0131 1.7502-.4606 3.6057-1.7239 4.8822-1.3817 1.4081-3.5004 1.8424-5.4086 1.5529-2.0397-.3027-3.8163-1.7898-4.6059-3.6716.7896-.3816 1.6187-.6843 2.4346-1.0396.4606 1.0791 1.3949 2.0003 2.5661 2.2108 1.1712.2106 2.5267-.0789 3.2899-1.0527.8159-1.0002.8159-2.3688.7764-3.5926-.6053.5922-1.3028 1.1185-2.145 1.3159-1.8292.5133-3.8426-.1184-5.2507-1.3554-1.4212-1.237-2.2634-3.1451-2.1845-5.0401.0395-2.1451 1.2502-4.2111 3.0794-5.3297zm2.724 1.6844c-.8027.1316-1.5528.5791-2.066 1.1976-1.237 1.4739-1.237 3.8294.0131 5.277.7106.8554 1.8555 1.3291 2.9609 1.2107 1.0396-.1053 2.0003-.7633 2.5135-1.6713.8686-1.5397.7238-3.6321-.4474-4.9743-.7238-.8291-1.8818-1.237-2.9741-1.0397z"/><path d="m82.2675 11.6327c1.5792-1.4738 4.0137-1.97391 6.0403-1.1975 1.9213.7238 3.1452 2.553 3.7637 4.4348-2.8557 1.1844-5.6982 2.3556-8.5538 3.54.3948.7501 1.0001 1.4344 1.816 1.7107 1.1449.408 2.5135.2632 3.4742-.5.3816-.2896.6843-.6712.9738-1.0397.7238.4869 1.4476.9607 2.1713 1.4476-1.0264 1.5397-2.7503 2.6188-4.6059 2.7898-2.0529.2501-4.2374-.5395-5.5665-2.145-2.1845-2.5266-1.974-6.764.4869-9.0407zm1.4081 2.4346c-.4475.6448-.6317 1.4344-.6185 2.2108 1.9081-.7896 3.8163-1.5792 5.7244-2.3819-.3158-.7369-1.079-1.1844-1.8555-1.3028-1.2501-.2237-2.553.4474-3.2504 1.4739z"/></g></svg>