<svg fill="none" height="32" viewBox="0 0 106 32" width="106" xmlns="http://www.w3.org/2000/svg" xmlns:xlink="http://www.w3.org/1999/xlink"><mask id="a" height="32" maskUnits="userSpaceOnUse" width="106" x="0" y="0"><path d="m0 0h106v32h-106z" fill="#919eab"/></mask><g mask="url(#a)"><path d="m23.2994 3h.6975c2.4214.05264 4.8033 1.02645 6.514 2.75036-.6316.64482-1.2765 1.26332-1.895 1.90814-.9606-.86853-2.1187-1.53967-3.382-1.77655-1.8687-.39478-3.8821-.03948-5.4481 1.02645-1.7107 1.11857-2.8688 3.01355-3.1188 5.0401-.2764 2.0003.2895 4.1058 1.5923 5.6587 1.2502 1.5133 3.1583 2.4608 5.1323 2.5266 1.8423.1053 3.7636-.4606 5.1059-1.7502 1.0528-.908 1.5397-2.2898 1.6976-3.6321-2.1845 0-4.369.0132-6.5535 0v-2.7109h9.1986c.4737 2.9083-.2106 6.1851-2.4214 8.2643-1.4739 1.4739-3.5136 2.3424-5.5928 2.5135-2.0135.1974-4.0927-.1843-5.8824-1.1581-2.145-1.1449-3.8558-3.0793-4.698-5.3559-.7896-2.0924-.8027-4.4611-.0658-6.56668.6712-1.9213 1.9608-3.61889 3.6189-4.80326 1.5923-1.1712 3.5268-1.81602 5.5007-1.93446z" fill="#3780ff"/><path d="m76.0693 3.68427h2.8161v18.79193c-.9343 0-1.8817.0132-2.8161-.0131.0132-6.2509 0-12.51485 0-18.77883z" fill="#38b137"/><path d="m39.1041 10.1983c1.7371-.32895 3.6189.0395 5.0533 1.0791 1.3028.9212 2.2109 2.3688 2.4872 3.9479.3553 1.8292-.0921 3.8294-1.2765 5.277-1.2765 1.6186-3.3688 2.4872-5.4086 2.3556-1.8687-.1053-3.6847-1.0396-4.7901-2.5662-1.2502-1.6844-1.5528-4.0005-.8685-5.9744.6843-2.1187 2.6187-3.7373 4.8032-4.119zm.3948 2.5004c-.7106.1842-1.3686.5921-1.8423 1.1712-1.2765 1.5265-1.1976 4.0136.2105 5.4349.8028.8159 2.0135 1.1975 3.132.9738 1.0396-.1842 1.9477-.8817 2.4477-1.8029.8686-1.566.6185-3.7241-.7106-4.948-.8554-.7896-2.1055-1.1185-3.2373-.829z" fill="#fa3913"/><path d="m53.0533 10.1983c1.9871-.3816 4.1585.1711 5.6455 1.566 2.4214 2.1714 2.6846 6.2377.6185 8.738-1.2502 1.5792-3.2767 2.4477-5.277 2.3556-1.9081-.0526-3.79-1.0001-4.9217-2.5661-1.2765-1.7239-1.5528-4.0927-.829-6.1061.7237-2.0529 2.6187-3.6189 4.7637-3.9874zm.3948 2.5004c-.7106.1842-1.3686.5921-1.8423 1.158-1.2633 1.5002-1.2107 3.9479.1447 5.3823.8028.8554 2.0529 1.2765 3.211 1.0396 1.0264-.1974 1.9476-.8817 2.4477-1.8029.8553-1.5791.6053-3.7373-.737-4.9611-.8553-.7896-2.1055-1.1055-3.2241-.8159z" fill="#fcbd06"/><path d="m64.8838 10.9615c1.5133-.9475 3.5267-1.21067 5.1585-.3948.5133.2237.9344.6054 1.3423.987.0132-.3553 0-.7238.0132-1.0923.8817.0132 1.7634 0 2.6582.0132v11.6068c-.0131 1.7502-.4606 3.6057-1.7239 4.8822-1.3817 1.4081-3.5004 1.8424-5.4086 1.5529-2.0397-.3027-3.8163-1.7898-4.6059-3.6716.7896-.3816 1.6187-.6843 2.4346-1.0396.4606 1.0791 1.3949 2.0003 2.5661 2.2108 1.1712.2106 2.5266-.0789 3.2899-1.0527.8159-1.0002.8159-2.3688.7764-3.5926-.6053.5922-1.3028 1.1185-2.145 1.3159-1.8292.5133-3.8426-.1184-5.2507-1.3554-1.4212-1.237-2.2634-3.1452-2.1845-5.0401.0395-2.1451 1.2502-4.2111 3.0794-5.3297zm2.724 1.6844c-.8027.1316-1.5528.5791-2.066 1.1976-1.2371 1.4738-1.2371 3.8294.0131 5.277.7106.8554 1.8555 1.3291 2.9609 1.2107 1.0396-.1053 2.0003-.7633 2.5135-1.6713.8685-1.5397.7238-3.6321-.4474-4.9743-.7238-.8291-1.8818-1.2371-2.9741-1.0397z" fill="#3780ff"/><path d="m82.2677 11.6328c1.5792-1.4739 4.0138-1.974 6.0404-1.1976 1.9213.7238 3.1451 2.553 3.7636 4.4348-2.8556 1.1844-5.6981 2.3556-8.5538 3.54.3948.7501 1.0002 1.4344 1.8161 1.7107 1.1449.408 2.5135.2632 3.4741-.5.3817-.2895.6843-.6712.9738-1.0396.7238.4869 1.4476.9606 2.1714 1.4475-1.0265 1.5397-2.7504 2.6188-4.6059 2.7899-2.0529.25-4.2374-.5396-5.5666-2.1451-2.1845-2.5266-1.9739-6.764.4869-9.0406zm1.4081 2.4345c-.4474.6448-.6316 1.4344-.6185 2.2108 1.9082-.7896 3.8163-1.5791 5.7245-2.3819-.3158-.7369-1.0791-1.1844-1.8555-1.3028-1.2502-.2237-2.553.4474-3.2505 1.4739z" fill="#fa3913"/></g></svg>