<svg fill="none" height="32" viewBox="0 0 106 32" width="106" xmlns="http://www.w3.org/2000/svg" xmlns:xlink="http://www.w3.org/1999/xlink"><mask id="a" height="32" maskUnits="userSpaceOnUse" width="106" x="0" y="0"><path d="m0 0h106v32h-106z" fill="#919eab"/></mask><g mask="url(#a)"><path clip-rule="evenodd" d="m14.9736 21.319h8.222v3.4484h-11.889v-17.7674h3.667zm19.777-.7565c-1.5225 1.1698-2.3924 1.4488-3.7808 1.4488-1.2495 0-2.2278-.4027-2.9175-1.109l9.2485-3.9832c-.2019-1.4843-.7446-2.8104-1.5795-3.8186-1.2152-1.4651-3.0138-2.2403-5.2038-2.2403-3.9777 0-6.9771 3.0465-6.9771 7.0703 0 4.1282 3.0066 7.0695 7.3759 7.0695 2.4481 0 4.9511-1.2045 6.122-2.6118zm11.7626-9.7016c-1.5168 0-3.2418.7299-4.2957 2.1913l.0006-.0028-.0006.0007.0006-1.9598h-3.6176v13.6771h3.617v-7.7824c0-1.4006 1.046-2.8896 2.9829-2.8896 1.4967 0 3.0457 1.081 3.0457 2.8896v7.7824h3.6176v-8.4783c0-3.1458-2.1679-5.4282-5.3505-5.4282zm31.0604.2302-3.2703 9.3164-3.2704-9.3164h-4.1325l5.4205 13.6727h3.9641l5.4204-13.6727zm-46.9894 2.757c-1.1852 0-2.1666.5043-2.7826 1.3631-.562.7833-.9063 1.876-.7337 3.273l6.3202-2.7222c-.5113-1.141-1.5003-1.9139-2.8039-1.9139zm57.6193.2304c-2.0202 0-3.4873 1.5895-3.4873 3.8506 0 2.1588 1.554 3.8505 3.5358 3.8505 2.021 0 3.4871-1.6332 3.4871-3.8505 0-2.1589-1.5532-3.8506-3.5356-3.8506zm-7.0572 3.8506c0 4.0089 3.1 7.069 7.0563 7.069 3.9833 0 7.104-3.1059 7.104-7.069 0-4.009-3.0991-7.0689-7.0554-7.0689-3.9835 0-7.1049 3.105-7.1049 7.0689zm-20.7974-3.8506c-2.0203 0-3.4865 1.5895-3.4865 3.8506 0 2.1588 1.5533 3.8505 3.5357 3.8505 2.0202 0 3.4864-1.6332 3.4864-3.8505 0-2.1589-1.5532-3.8506-3.5356-3.8506zm-7.0523 3.8507c0 4.0089 3.0992 7.0689 7.0555 7.0689 3.9835 0 7.1047-3.1058 7.1047-7.0689 0-4.0091-3.0999-7.0689-7.0555-7.0689-3.9841 0-7.1047 3.1049-7.1047 7.0689z" fill="#212b36" fill-rule="evenodd"/></g></svg>