<svg fill="none" height="32" viewBox="0 0 106 32" width="106" xmlns="http://www.w3.org/2000/svg" xmlns:xlink="http://www.w3.org/1999/xlink"><mask id="a" height="32" maskUnits="userSpaceOnUse" width="106" x="0" y="0"><path d="m0 0h106v32h-106z" fill="#919eab"/></mask><g mask="url(#a)"><path d="m103.515 14.6462v-1.7565h-2.181v-2.7306l-.074.0226-2.0485.6268-.0404.0123v2.069h-3.2336v-1.1526c0-.5367.12-.9474.3565-1.2213.2349-.2706.5708-.4082.9993-.4082.308 0 .6269.0725.9479.2156l.0804.036v-1.84982l-.0378-.01391c-.2994-.10763-.7067-.16183-1.2115-.16183-.6362 0-1.2142.13845-1.7184.41284-.5044.27477-.9012.66702-1.1791 1.16575-.277.49817-.4176 1.07347-.4176 1.71017v1.2672h-1.5188v1.7565h1.5188v7.3996h2.1803v-7.3996h3.2336v4.7023c0 1.9366.9139 2.9181 2.7149 2.9181.296 0 .608-.0347.926-.1026.324-.0698.544-.1395.674-.2139l.029-.017v-1.7726l-.089.0586c-.118.0788-.266.1433-.438.1912-.174.0488-.319.0732-.431.0732-.422 0-.734-.1137-.928-.3381-.196-.2265-.295-.6225-.295-1.1765v-4.3227zm-16.1456 5.8376c-.7914 0-1.4153-.2624-1.855-.7793-.4424-.5195-.6665-1.2601-.6665-2.2011 0-.9709.2241-1.7308.6667-2.2595.44-.5252 1.0579-.7917 1.837-.7917.756 0 1.3579.2545 1.789.757.4332.5051.6531 1.2589.6531 2.2411 0 .9943-.2068 1.758-.6145 2.2689-.4049.507-1.0138.7646-1.8098.7646zm.0969-7.8147c-1.5098 0-2.709.4424-3.564 1.315-.8545.8726-1.2877 2.0802-1.2877 3.5895 0 1.4336.4229 2.5867 1.2571 3.4267.8341.8404 1.9694 1.2661 3.3739 1.2661 1.4635 0 2.6388-.4486 3.4934-1.3332.8546-.8837 1.2875-2.0798 1.2875-3.5539 0-1.456-.4062-2.6177-1.2078-3.4521-.802-.8349-1.9301-1.2581-3.3524-1.2581zm-8.367 0c-1.027 0-1.8765.2627-2.5255.7807-.6529.521-.9841 1.2044-.9841 2.0313 0 .4298.0715.8117.2121 1.1355.1416.3249.3606.611.6516.8511.2888.2382.7346.4876 1.3253.7414.4966.2044.8669.3772 1.1022.5134.2299.1336.3931.2678.4852.3985.0896.1279.135.303.135.519 0 .6151-.4606.9145-1.4085.9145-.3516 0-.7527-.0735-1.192-.2182-.4361-.1425-.8478-.3513-1.2206-.6189l-.0905-.0649v2.0991l.0332.0155c.3085.1424.6975.2625 1.1559.357.4576.0945.8733.1427 1.2345.1427 1.1144 0 2.0119-.264 2.6667-.785.659-.5247.993-1.2242.993-2.0797 0-.6172-.1798-1.1464-.5342-1.5733-.3519-.4233-.9628-.812-1.8149-1.1556-.6788-.2724-1.1136-.4986-1.2931-.6722-.1729-.1677-.2607-.4049-.2607-.7053 0-.2663.1084-.4796.3309-.6523.2242-.1737.5364-.262.9279-.262.3632 0 .7349.0574 1.1046.1699.3693.1124.6938.2631.9646.4473l.089.0609v-1.9912l-.0342-.0147c-.2498-.1072-.5793-.1989-.9794-.2733-.3984-.0739-.7597-.1112-1.074-.1112zm-9.1936 7.8147c-.7911 0-1.4153-.2624-1.8549-.7793-.4425-.5195-.6662-1.2599-.6662-2.2011 0-.9709.224-1.7308.6667-2.2595.4396-.5252 1.0575-.7917 1.837-.7917.7557 0 1.3575.2545 1.7887.757.4333.5051.6531 1.2589.6531 2.2411 0 .9943-.2069 1.758-.6146 2.2689-.4049.507-1.0135.7646-1.8098.7646zm.0972-7.8147c-1.5101 0-2.7094.4424-3.564 1.315-.8544.8726-1.2879 2.0802-1.2879 3.5895 0 1.4341.4231 2.5867 1.2573 3.4267.8342.8404 1.9693 1.2661 3.3738 1.2661 1.4633 0 2.6389-.4486 3.4936-1.3332.8543-.8837 1.2875-2.0798 1.2875-3.5539 0-1.456-.4064-2.6177-1.2082-3.4521-.8022-.8349-1.9301-1.2581-3.3521-1.2581zm-8.1616 1.8062v-1.5856h-2.1537v9.1559h2.1537v-4.6836c0-.7964.1806-1.4507.5369-1.9448.3518-.4883.8206-.7358 1.3929-.7358.194 0 .4118.032.6476.0953.2334.0629.4025.1312.5022.2031l.0905.0656v-2.1713l-.0348-.015c-.2006-.0852-.4844-.1282-.8434-.1282-.5412 0-1.0255.1739-1.4404.5163-.3642.3009-.6273.7136-.8286 1.2281zm-6.0107-1.8062c-.988 0-1.8694.2119-2.619.6296-.7512.4186-1.3321 1.0163-1.7274 1.7762-.3935.7582-.5933 1.6437-.5933 2.6313 0 .8651.1937 1.659.5766 2.3587.3831.7008.9253 1.2491 1.6117 1.6294.6853.3798 1.4775.5724 2.3545.5724 1.0236 0 1.8975-.2047 2.5981-.6082l.0283-.0163v-1.9731l-.0905.0661c-.3174.2312-.6721.4157-1.0537.5486-.3806.1329-.7277.2-1.032.2-.8451 0-1.5235-.2644-2.016-.7857-.4935-.5221-.7437-1.2551-.7437-2.1775 0-.9281.2609-1.68.7752-2.2347.5127-.5532 1.1924-.8337 2.02-.8337.7079 0 1.3978.2397 2.0504.7131l.0903.0656v-2.0791l-.0292-.0164c-.2456-.1375-.5805-.251-.9963-.3371-.4141-.0859-.8191-.1292-1.204-.1292zm-6.423.2207h-2.1537v9.1558h2.1537zm-1.0548-3.90043c-.3545 0-.6637.12067-.9177.35979-.255.2398-.3844.54172-.3844.89804 0 .3507.1278.6471.3805.8805.251.2328.5611.3508.9217.3508.3604 0 .6717-.118.9257-.3504.2557-.2338.3853-.5301.3853-.8809 0-.34386-.1262-.64269-.3747-.88838-.2484-.24521-.5636-.36945-.9364-.36945zm-5.3737 3.22493v9.8313h2.1979v-12.77595h-3.0421l-3.8667 9.48965-3.7524-9.48965h-3.1659v12.77585h2.0655v-9.8322h.0709l3.9624 9.8323h1.5588l3.9006-9.8313z" fill="#706d6e"/><path d="m13.7717 15.1318h-10.13181v-10.1318h10.13181z" fill="#f1511b"/><path d="m24.9582 15.1324h-10.1315v-10.13179h10.1315z" fill="#80cc28"/><path d="m13.7714 26.323h-10.13151v-10.1317h10.13151z" fill="#00adef"/><path d="m24.9582 26.323h-10.1315v-10.1317h10.1315z" fill="#fbbc09"/></g></svg>