<svg fill="none" height="32" viewBox="0 0 106 32" width="106" xmlns="http://www.w3.org/2000/svg" xmlns:xlink="http://www.w3.org/1999/xlink"><mask id="a" height="32" maskUnits="userSpaceOnUse" width="106" x="0" y="0"><path d="m0 0h106v32h-106z" fill="#919eab"/></mask><g mask="url(#a)"><path clip-rule="evenodd" d="m26.3247 24.7109c-.6548.1168-1.3165.1847-1.9892.2538-.4532.0465-.9114.0935-1.3757.1564l-3.519-10.4687v10.918c-.9887.1057-1.8993.2432-2.8305.3838l-.3037.0458v-20h2.9229l3.9994 11.3478v-11.3478h3.0958zm6.058-11.3867c.6087 0 1.3827-.0153 2.1405-.0302.7265-.0143 1.438-.0284 1.9745-.0284v3.1249c-1.3653 0-2.9612 0-4.115.0587v4.6485c.5127-.0333 1.0253-.0696 1.5383-.106 1.296-.092 2.5948-.1842 3.9034-.2262v3.0077l-8.5183.6837v-18.4569h8.5183v3.125h-5.4417zm13.6912-4.19912h3.1919l.0001-3.12508h-9.4604v3.12508h3.1919v14.41392c.9998-.0389 2.0381-.0389 3.0765-.0389zm8.1899 3.98432h4.2111v3.125h-4.2111v7.0899h-3.0191v-17.3243h8.5954v3.125h-5.5763zm14.4082 7.6688c-1.2674-.0793-2.5544-.1599-3.8313-.1884v-14.5898h-3.0765v17.539c2.8074.0588 5.5571.2343 8.3067.4102v-3.086c-.4624-.0263-.9296-.0556-1.3989-.085zm3.9936 3.3859.1615.0096c.9326.0556 1.9122.1141 2.8573.2247v-18.3984h-3.0188zm12.5936-8.6524 3.9034-9.5117h-3.365l-2.1537 5.2539-2.019-5.2539h-3.3072l3.5766 9.3945-3.961 9.1601c.461.0646.9155.1125 1.3688.1603.6432.0678 1.2842.1354 1.9385.2501l2.2496-5.3126 2.2111 5.7812c.2883.0488.5765.0988.8647.1488.8655.1502 1.7311.3004 2.5966.4176z" fill="#212b36" fill-rule="evenodd"/></g></svg>