<svg fill="none" height="32" viewBox="0 0 106 32" width="106" xmlns="http://www.w3.org/2000/svg" xmlns:xlink="http://www.w3.org/1999/xlink"><mask id="a" height="32" maskUnits="userSpaceOnUse" width="106" x="0" y="0"><path d="m0 0h106v32h-106z" fill="#919eab"/></mask><g mask="url(#a)"><path d="m40.3605 13.0418c0-2.5417 1.8532-4.31648 5.221-4.31648 2.0549 0 3.7364.6561 4.6474 1.29878.1304.0918.363.3144.2235.7285-.1787.446-.5065 1.1167-.7417 1.5523-.1369.2539-.4865.2205-.6655.1297-.6489-.3288-1.7133-.8851-2.691-.9876-.2476-.027-.4966-.0378-.7456-.0323-.8611.0192-1.5805.3182-1.8338.9752-.0497.1243-.0774.2562-.0819.39-.0236.8657 1.1812 1.1788 2.6407 1.4295 2.7135.4649 4.7663 1.2604 4.7663 4.0532 0 2.3718-1.8849 4.5152-5.5781 4.4495-2.4347-.0492-4.162-.8719-5.0876-1.6702-.0315-.0271-.3839-.3859-.195-.8175.2161-.5556.581-1.1923.8673-1.5304.1591-.2171.5792-.2516.7976-.1163.7629.4741 2.0185 1.2344 3.4659 1.2848.1142.0039.2274.0046.3386.0017 1.3019-.0316 2.0896-.5252 2.0731-1.3568-.0141-.7326-1.0463-1.1605-2.6901-1.4703-2.6217-.4939-4.7308-1.358-4.7308-3.9953zm23.8173 3.6191c-1.8487.0242-3.5438.5295-3.5927 1.9743-.0005 1.1465.9296 1.7096 2.2349 1.6359 1.2522-.1206 2.2071-.6637 2.6278-1.3843.1556-.267.1793-1.2664.1698-1.6935-.0024-.0909-.1821-.2629-.2609-.296-.3928-.1655-.6835-.2167-1.179-.2367zm-6.1515-5.8217c.8645-.7736 2.5786-1.97769 5.3103-1.91422 3.6051.07496 5.5096 1.76502 5.6869 5.80792.0731 1.6673-.048 6.3178-.0768 7.4764-.0043.1663-.0606.2812-.2846.2855-.5936.0238-1.9652.0144-2.5954.0061-.318-.0154-.3549-.1732-.359-.3384-.0028-.108-.012-.4285-.0187-.6897-.0036-.1386-.1338-.1346-.1671-.0991-.8456.9029-2.2305 1.3389-3.7033 1.3389-2.2384 0-4.47-1.3168-4.4632-3.9246.0069-2.6707 1.9006-3.988 3.9809-4.2986 1.3321-.1983 2.8336-.022 3.9707.4298.0727.0292.2213-.013.2225-.1161.0046-.3403-.0119-.9889-.0772-1.2963-.1669-.7832-.8203-1.4133-2.1928-1.5832-.2827-.0348-.5673-.0463-.8522-.0236-1.0911.0857-2.4041.9365-2.9479 1.255-.128.0748-.3283.0201-.3931-.0634-.3174-.41-1.115-1.609-1.1778-1.8006-.0627-.191.0258-.3519.1374-.4524zm12.1859 4.9716c-.0214-3.7247 2.5738-6.86695 6.788-6.89457 2.6295-.01715 4.5398 1.17497 4.8767 1.73727.0684.132.0333.2423-.0141.3753-.2226.47-.7849 1.378-1.1856 1.8926-.1706.2192-.3559.0314-.5712-.1118-.5974-.398-1.7326-.8846-2.8498-.8846-2.0267.0004-3.536 1.3901-3.5192 3.9469.0158 2.4535 1.4614 3.8019 3.5263 3.8508 1.0794.0271 2.1252-.5933 2.6878-1.1016.1767-.1542.3596-.077.5615.0808.3962.405.9645 1.0302 1.2796 1.4606.2063.2391.0519.4731-.0223.5671-.8549 1.0818-2.5061 1.9923-4.6912 2.0046-4.5754.0321-6.845-3.1849-6.8661-6.9229zm21.8403 6.7555c.2148-.0161 2.5066-.3324 3.21-.4935.1746-.0398.2367-.1866.1391-.3321-.3928-.589-1.4255-2.2617-2.5072-3.7592-.9949-1.3768-2.0434-2.5878-2.3825-3.0537-.0827-.1132-.0783-.2247.0118-.3125.6451-.6313 3.3436-3.2771 4.3582-4.3697.3928-.42507.157-.60792-.1767-.70724-.6444-.19211-1.6868-.43156-2.2796-.5566-.2499-.05284-.5509-.03431-.7695.19039-1.0144.94595-4.1103 4.05325-5.0345 4.98205-.1664.1676-.2633.1304-.2642-.1091-.0075-1.7908-.0429-9.45773-.1068-10.71881-.0045-.16673-.205-.29331-.3181-.29932-.5811-.03036-2.0492-.03911-2.6278-.00514-.1621.01835-.317.18353-.331.32316-.1335 2.01648.0566 16.81901.1358 18.88971.0057.1498.1172.2659.2594.2743.5772.0335 2.0048.0312 2.6714.0187.3279 0 .3681-.2305.3681-.2305l.0494-3.9721s.0338-.1767.0885-.235c.235-.253.8851-.9498 1.1623-1.2191.0665-.0646.1715-.06.2394.0314.3294.4443 1.2685 1.8886 2.139 3.1784.7998 1.185 1.5465 2.2366 1.5986 2.3109.1204.1715.2611.1784.3671.1751v-.0005zm-38.9771-.0137c.2016.0067 1.7308.0049 2.4083.0041.2281.0044.3467-.1683.3542-.3208.1439-2.9033.0823-16.72605-.0086-18.90875-.0075-.18868-.0883-.25953-.2171-.27668-.5815-.07787-2.234-.05969-2.7637.0789-.1036.02693-.1647.10567-.1679.20687-.1297 5.62613-.0422 18.59716-.0148 18.84276.0273.246.1559.365.41.3736z" fill="#443642"/><path d="m12.1498 16.78c-.9424.0072-1.7407-.5544-2.0351-1.4309-.0109-.0331-.0211-.0665-.0305-.1-.32074-1.1225.3012-2.2968 1.416-2.6728l17.8801-5.99032c.2123-.06142.432-.0935.653-.09537.9674-.00754 1.7877.56639 2.0892 1.46143l.0268.08645c.3345 1.16914-.4966 2.21271-1.4923 2.54721-.0007.0005-.1818.0617-17.781 6.0706-.2339.0797-.4791.1215-.7262.1237z" fill="#70cadb"/><path d="m15.13 25.5734c-.9497.0068-1.7508-.5468-2.0417-1.4108-.011-.0329-.0213-.066-.0309-.0994-.3252-1.1358.2961-2.3224 1.4146-2.699l17.8808-6.0451c.2311-.0772.4697-.1167.7097-.1189.9523-.0072 1.789.5746 2.0842 1.4484l.0275.0909c.1727.6039.0706 1.2827-.2728 1.8184-.2559.3983-1.0631.7489-1.0631.7489l-17.9488 6.1371c-.2448.0829-.5011.1267-.7595.1298z" fill="#e01765"/><path d="m30.0146 25.6117c-.4635.0044-.9165-.1379-1.2941-.4067s-.6604-.6502-.808-1.0896l-5.9674-17.72573-.0299-.09949c-.3233-1.13037.2985-2.30945 1.4129-2.6851.223-.07496.4535-.11407.6856-.11613.3448-.00257.6784.07513.9926.23037.2589.12801.4899.30593.6797.52353s.3348.47058.4265.7444l5.967 17.72425.0173.0569c.3352 1.1736-.2853 2.3534-1.3997 2.729-.2201.0736-.4504.1121-.6825.1143z" fill="#e8a723"/><path d="m21.1444 28.5973c-.4637.0044-.9169-.1381-1.2947-.4071s-.6607-.6507-.8082-1.0904l-5.9659-17.72507c-.0925-.27345-.1301-.56245-.1107-.85046.0194-.288.0954-.56935.2237-.82794s.3063-.48933.5239-.67903c.2175-.1897.4704-.33463.744-.42648.2205-.07369.4511-.11236.6836-.11458.4635-.00457.9166.13773 1.2943.40652s.6606.65026.8081 1.08973l5.9661 17.72571c.0925.2736.1301.5628.1106.8509-.0194.2881-.0956.5696-.224.8283-.1284.2586-.3066.4894-.5244.6791s-.4709.3345-.7447.4262c-.22.0737-.4503.1123-.6824.1144h.0007z" fill="#3eb890"/><path d="m27.0728 21.6198 4.161-1.4227-1.3603-4.0394-4.1657 1.4077z" fill="#cc2027"/><path d="m18.2162 24.648 4.1606-1.4225-1.3705-4.0703-4.1647 1.4082z" fill="#361238"/><path d="m24.1103 12.821 4.1612-1.4207-1.3442-3.99234-4.169 1.39675z" fill="#65863a"/><path d="m15.2527 15.8451 4.1613-1.4208-1.3607-4.0432-4.169 1.3966z" fill="#1a937d"/></g></svg>