<svg fill="none" height="32" viewBox="0 0 106 32" width="106" xmlns="http://www.w3.org/2000/svg" xmlns:xlink="http://www.w3.org/1999/xlink"><mask id="a" height="32" maskUnits="userSpaceOnUse" width="106" x="0" y="0"><path d="m0 0h106v32h-106z" fill="#919eab"/></mask><g mask="url(#a)"><path d="m23.1069 3c-7.0693 0-12.8003 5.73085-12.8003 12.8001 0 7.0695 5.731 12.7999 12.8003 12.7999 7.07 0 12.8004-5.7304 12.8004-12.7999 0-7.06879-5.7304-12.79949-12.8006-12.79949zm5.8701 18.4614c-.0546.0895-.1264.1673-.2111.2291-.0848.0617-.1809.1062-.2828.1307-.102.0246-.2077.0288-.3113.0124-.1036-.0163-.2029-.053-.2923-.1078-3.0054-1.8357-6.7887-2.2515-11.2444-1.2335-.2063.0469-.4228.01-.6019-.1026-.1791-.1127-.3061-.2918-.3532-.4981-.0235-.1021-.0265-.2079-.0091-.3112.0175-.1033.0552-.2022.1109-.2909.0558-.0888.1285-.1657.214-.2263s.1821-.1037.2843-.1269c4.8759-1.114 9.0584-.6344 12.4324 1.4276.3761.2308.4953.7215.2645 1.0975zm1.5667-3.4853c-.2889.4695-.9034.6178-1.3726.3289-3.4407-2.1148-8.6855-2.7273-12.7551-1.492-.5278.1594-1.0853-.138-1.2455-.6649-.0764-.2533-.0493-.5266.0755-.7599.1247-.2333.3369-.4076.59-.4847 4.6487-1.4106 10.4279-.7273 14.3791 1.7007.4692.2889.6175.9034.3286 1.372zm.1345-3.6293c-4.1255-2.4504-10.9319-2.6757-14.8707-1.4802-.6325.1918-1.3014-.1653-1.4931-.7978-.0922-.3039-.0599-.6319.0898-.912.1496-.28.4044-.4892.7082-.5815 4.5215-1.37259 12.038-1.1074 16.7877 1.7123.1354.08.2536.186.348.3119.0943.1258.1629.269.2018.4214s.0473.311.0249.4667c-.0225.1556-.0755.3053-.1559.4405-.3363.5689-1.073.7565-1.6401.4187zm14.4536.4695c-2.2102-.527-2.603-.8969-2.603-1.6742 0-.7343.6909-1.2284 1.7195-1.2284.9966 0 1.9841.3752 3.0204 1.1477.0306.0234.0703.0327.1085.0266.0192-.0027.0377-.0094.0543-.0195.0165-.0102.0308-.0236.042-.0395l1.0791-1.5211c.0214-.0302.0304-.0674.0253-.1039-.0052-.0366-.024-.0698-.0528-.093-1.2335-.9894-2.6214-1.47044-4.2447-1.47044-2.386 0-4.0536 1.43204-4.0536 3.48104 0 2.1972 1.4384 2.9752 3.9237 3.5758 2.114.4871 2.4716.8952 2.4716 1.6247 0 .8085-.7214 1.3114-1.8831 1.3114-1.2901 0-2.3432-.4356-3.5202-1.4536-.0293-.0248-.0671-.0374-.1054-.0352-.0398.0031-.0749.0214-.0994.0505l-1.2106 1.4398c-.0504.0612-.0443.1498.0138.2018 1.3695 1.2228 3.054 1.8679 4.8729 1.8679 2.571 0 4.2324-1.4048 4.2324-3.5798.0046-1.8353-1.0944-2.8518-3.7861-3.5066zm9.6083-2.1796c-1.1143 0-2.0284.439-2.7835 1.3385v-1.0125c.0002-.0383-.0148-.0751-.0418-.1023-.0269-.0272-.0636-.0426-.1018-.0428h-1.9795c-.0794 0-.1436.0652-.1436.1451v11.25c0 .0795.0642.1452.1436.1452h1.9795c.0794 0 .1436-.0657.1436-.1452v-3.5507c.7551.8452 1.6692 1.2595 2.7835 1.2595 2.0711 0 4.1682-1.5943 4.1682-4.642.0031-3.0483-2.094-4.643-4.1667-4.643zm1.8663 4.6428c0 1.5513-.9553 2.635-2.3249 2.635-1.3527 0-2.3738-1.1326-2.3738-2.635 0-1.5025 1.0211-2.6348 2.3738-2.6348 1.3466-.0002 2.3249 1.1077 2.3249 2.6347zm7.6746-4.6428c-2.6672 0-4.7567 2.0537-4.7567 4.676 0 2.5942 2.0757 4.6256 4.7247 4.6256 2.6764 0 4.772-2.0467 4.772-4.6588 0-2.6032-2.0819-4.6425-4.74-4.6425zm0 7.2931c-1.4184 0-2.4884-1.1403-2.4884-2.651 0-1.5177 1.0333-2.619 2.4564-2.619 1.4276 0 2.5037 1.1398 2.5037 2.6521 0 1.5174-1.0394 2.6179-2.4717 2.6179zm10.4352-7.1122h-2.1781v-2.2264c.0001-.0189-.0036-.0377-.0108-.0553-.0071-.0175-.0177-.0334-.031-.0469-.0134-.0135-.0293-.0242-.0467-.0315-.0175-.0073-.0363-.0111-.0552-.0112h-1.9794c-.0795 0-.1452.0651-.1452.1449v2.2264h-.9508c-.0795 0-.1436.0652-.1436.1451v1.7008c0 .0798.0641.145.1436.145h.9508v4.4014c0 1.7776.885 2.6795 2.6321 2.6795.7092 0 1.2977-.1468 1.8525-.4616.0459-.0245.0734-.0734.0734-.1254v-1.6202c0-.0489-.026-.0963-.0688-.1223-.0208-.0133-.0448-.0209-.0695-.022-.0247-.001-.0492.0044-.0711.0159-.3806.1911-.749.2797-1.1617.2797-.6343 0-.9186-.2889-.9186-.9339v-4.0903h2.1781c.0795 0 .1437-.0651.1437-.1451v-1.7006c.0006-.019-.0026-.0379-.0095-.0556-.0068-.0177-.0172-.0338-.0305-.0473-.0133-.0136-.0292-.0243-.0468-.0316-.0175-.0072-.0364-.0108-.0554-.0105zm7.5875.0088v-.2735c0-.8045.3088-1.1632.9997-1.1632.4127 0 .7444.0819 1.1158.2057.0459.0144.0933.0072.1299-.0201.0187-.0135.0338-.0312.0442-.0516.0103-.0205.0156-.0432.0154-.0661v-1.66764c.0004-.03114-.0094-.06156-.0279-.08663s-.0446-.04344-.0745-.05231c-.3913-.11663-.8926-.23631-1.6446-.23631-1.8266 0-2.7942 1.02929-2.7942 2.97559v.4188h-.9507c-.0795 0-.1452.0651-.1452.1449v1.7095c0 .0798.0657.145.1452.145h.9507v6.7874c0 .081.0658.1452.1452.1452h1.9779c.0811 0 .1452-.0642.1452-.1452v-6.7869h1.848l2.8308 6.7869c-.321.7123-.6374.8544-1.0684.8544-.3485 0-.7169-.1039-1.0914-.3103-.0354-.0179-.0764-.0217-.1146-.0107-.0382.0138-.0703.0413-.0856.078l-.671 1.472c-.0321.0703-.0046.1513.0627.188.7.379 1.3313.5411 2.1124.5411 1.4612 0 2.2698-.6818 2.9806-2.5129l3.433-8.8711c.0089-.0219.0122-.0457.0096-.0692-.0027-.0236-.0113-.046-.0249-.0654-.0129-.0194-.0304-.0353-.0509-.0463-.0206-.011-.0435-.0167-.0668-.0167h-2.0604c-.0627 0-.1177.0393-.1376.0972l-2.1109 6.0276-2.3111-6.0315c-.0103-.0274-.0287-.0509-.0527-.0676-.024-.0166-.0525-.0256-.0818-.0257h-3.3811zm-4.399-.0088h-1.9794c-.0795 0-.1452.0652-.1452.1451v8.6332c0 .081.0657.1452.1452.1452h1.9794c.0795 0 .1452-.0642.1452-.1452v-8.6326c0-.0191-.0037-.038-.011-.0556s-.018-.0336-.0315-.0471-.0295-.0242-.0471-.0314c-.0176-.0073-.0365-.011-.0556-.0109zm-.9783-3.93114c-.7841 0-1.4199.63464-1.4199 1.41864 0 .7844.6358 1.4198 1.4199 1.4198.7842 0 1.4185-.6354 1.4185-1.4198 0-.78385-.6359-1.41864-1.4185-1.41864zm17.3364 6.70714c-.7826 0-1.3924-.629-1.3924-1.3928s.6175-1.4 1.4001-1.4 1.3925.6289 1.3925 1.392c0 .7638-.6176 1.4008-1.4002 1.4008zm.0077-2.6543c-.7138 0-1.2534.5671-1.2534 1.2615 0 .6941.5365 1.2535 1.2457 1.2535.7139 0 1.2534-.5666 1.2534-1.2615 0-.6941-.5365-1.2535-1.2457-1.2535zm.3087 1.3968.3944.5515h-.3332l-.3546-.506h-.3042v.506h-.2782v-1.4619h.6512c.3408 0 .564.1738.564.4663.0015.2397-.1376.3861-.3378.4441zm-.2354-.6596h-.3622v.4624h.3622c.1804 0 .2889-.0885.2889-.2314 0-.1504-.1085-.231-.2889-.231z" fill="#212b36"/></g></svg>