<svg fill="none" height="32" viewBox="0 0 106 32" width="106" xmlns="http://www.w3.org/2000/svg" xmlns:xlink="http://www.w3.org/1999/xlink"><mask id="a" height="32" maskUnits="userSpaceOnUse" width="106" x="0" y="0"><path d="m0 0h106v32h-106z" fill="#919eab"/></mask><g mask="url(#a)"><path clip-rule="evenodd" d="m32.4165 8.93806c.2714.15364.6919.27074 1.1063.3078.2352.02085.7262.00747.964-.02651.8129-.11632 1.4857-.45527 2.1156-1.06625.5934-.57572.9317-1.14886 1.0346-1.75315.0442-.26071.0289-.62899-.0354-.84286-.1311-.43623-.4702-.91802-.8437-1.19803-.3949-.29622-.8614-.40251-1.5068-.34332-1.0499.09626-2.0132.5801-2.8265 1.4191-.4361.44961-.692.89176-.7881 1.36145-.0473.23008-.052.69127-.0096.93371.0541.31192.1608.58241.3063.78032.1016.13718.3334.34281.4833.42774zm48.4332 17.47644c1.0196.9571 2.313 1.4708 3.9759 1.58.2499.0162 1.2934-.0057 1.5596-.0335 2.0643-.2103 3.7756-.9811 5.2737-2.376.97-.9028 1.8402-2.0985 2.3701-3.2566.5924-1.2938.8986-2.6545.9408-4.1791.046-1.6713-.3469-3.1352-1.1404-4.2496-.329-.4624-.7733-.9337-1.1307-1.2005-.5935-.4422-1.3024-.7528-2.0727-.908-.5456-.1099-1.0106-.1462-1.6955-.132-1.6097.0326-3.0116.3672-4.3401 1.0353-1.1659.5868-2.1134 1.3308-3.1116 2.445-.4668.5209-.7604.8964-1.0887 1.3928-.8134 1.2287-1.2882 2.5227-1.43 3.8991-.0543.5221-.053 1.2667.0025 1.7897l.0106.1003-.4063.1735c-1.9956.8519-3.6937 1.3143-5.4264 1.4778-.4138.0386-1.2926.054-1.534.0272-.6301-.0715-1.1352-.2959-1.5435-.6871-.1272-.1218-.3319-.3567-.3102-.3567.0352 0 .5831-.1086.8791-.174 2.1617-.4777 4.0632-1.4075 5.6055-2.7399 1.3135-1.1347 2.123-2.2074 2.4797-3.2857.16-.4836.2075-.8099.1926-1.3195-.014-.4849-.0965-.9322-.2456-1.3347-.457-1.2343-1.483-1.9408-3.1238-2.151-.8645-.1107-2.0361-.0623-3.0317.1255-2.4368.4602-4.6046 1.8006-6.4223 3.9701-.6219.7425-1.0897 1.4521-1.4815 2.2463-.5746 1.1645-.8473 2.2537-.8783 3.513-.0098.3896.0124 1.022.0408 1.1411.0065.0296-.0237.0564-.1589.1429-.2332.1492-.4671.2686-.6369.3253-.1385.0463-.1556.0478-.4151.0386-.307-.0111-.4608-.0448-.6376-.138-.2401-.1279-.3375-.3299-.383-.7952-.0577-.5873.0142-1.0408.5042-3.1944.3903-1.714.533-2.579.5795-3.5066.0646-1.2932-.2057-2.2053-.8563-2.8876-.4223-.4437-1.0274-.7026-1.8141-.7772-.2725-.0257-.8163-.0124-1.1368.028-1.3313.1678-2.5528.767-3.7086 1.8191-.2875.2615-.7648.7507-1.0104 1.0356-.1277.148-.3114.3292-.5143.5068l-.3161.2766-.0117-.3721c-.0248-.7747-.14-1.3242-.3848-1.8324-.1239-.2621-.2919-.5012-.4968-.7068-.5443-.5453-1.3404-.7993-2.4001-.7661-1.1377.0357-2.2809.3613-3.3114.9429-.2068.1169-.6743.4262-.8777.5812-.7263.5528-1.3782 1.2289-1.8426 1.9104-.067.0983-.122.1688-.122.157 0-.0119.0142-.1004.031-.1967.0473-.2697.0424-.9211-.0093-1.2544-.0951-.6125-.2998-1.1414-.6348-1.6406-.3249-.4841-.7175-.7672-1.2181-.8782-.076-.0169-.2194-.0285-.3608-.0293-.1985-.0013-.2538.0049-.3593.0396-.2406.0793-.5242.2448-.8899.5184-.4823.3613-.8289.6676-1.9901 1.7583-.9499.8922-1.7416 1.627-1.8979 1.7621-.0561.0487-.1029.0934-.1039.0996-.0011.0088.8754 1.0143.9821 1.127.0191.0206.067-.0064.2823-.159.521-.3694.8966-.5981 1.0757-.6563.2574-.0834.4621.0839.4874.3986.0112.1377-.0227.7111-.069 1.1741-.0571.5719-.1538 1.2387-.3419 2.3631-.0977.5832-.2034 1.2585-.2344 1.5005-.0313.2419-.0603.4578-.0647.4799-.0147.0754-.8862.742-1.2887.9857-.2222.1349-.5042.268-.6399.3032-.2347.061-.5805.0216-.8219-.0926-.1019-.0484-.1691-.0984-.2714-.2008-.2724-.2728-.3991-.6424-.4249-1.2394-.0104-.2378-.0075-.2633.0995-.9276.3228-1.9958.6169-3.6499.9046-5.0834.1551-.7723.1825-.9345.1967-1.1738.0504-.8352-.1194-1.5638-.4942-2.1248-.4115-.6154-1.0075-.8892-1.8674-.8578-.23.0087-.3109.019-.4438.0576-.6872.2005-1.506.7829-2.9134 2.0723-.3419.3132-.6598.6038-.7063.646l-.0848.0762-.0119-.1483c-.1233-1.5385-.6891-2.4323-1.7601-2.7808-.7878-.2563-2.0248-.1989-2.9357.1362-.4156.1531-.8888.4226-1.2439.7088-.2128.1714-.5725.5399-.7545.7728-.5019.6427-.8852 1.3828-1.2119 2.341-.0543.1596-.0967.2993-.0938.3101.0031.0126.0731-.0054.1873-.0484.4069-.1528.7641-.2198 1.1711-.2198.3477 0 .4945.0276.7129.1346.2701.1323.443.3519.5355.6805.0269.097.0326.182.0321.5032-.0008.332-.0068.4125-.0419.5739-.1406.6465-.5368 1.4909-1.1907 2.5399-.7935 1.2721-1.372 1.9011-1.7767 1.932-.0897.0064-.1202 0-.2197-.0489-.3699-.1814-.7173-.9031-1.0297-2.14-.2626-1.0397-.4311-1.94-.8292-4.4369-.1527-.9571-.198-1.1921-.298-1.5442-.4187-1.4736-1.1915-2.1685-2.3551-2.1173-.4624.0201-.8568.1753-1.4797.5827-.5828.3809-1.0879.7901-1.9589 1.5871-.6361.5803-1.2751 1.1574-1.917 1.7313-.2838.2527-.3179.289-.296.3145.1489.1902.2967.3812.4436.5729.2682.3482.4264.5392.4404.5315.0116-.007.1124-.0757.2236-.1532.398-.2772.8624-.5747 1.0235-.6555.154-.0764.17-.0813.2693-.0713.2448.0245.5337.2502.7643.5971.3.4509.6438 1.283.9054 2.1902.2822 1.0294.5619 2.0595.8389 3.0904.5195 1.925.793 2.9059.8478 3.0461.649 1.6569 1.3975 2.5649 2.299 2.7888.2042.051.6084.0538.8801.0059 1.4546-.2548 3.1039-1.4994 5.0258-3.792.9816-1.1717 2.1251-2.7334 2.8736-3.9268.6795-1.0832 1.2683-2.2578 1.5366-3.0652l.0483-.1457.3288-.2342c.3858-.2746.5435-.3762.7425-.4779.1344-.0687.1561-.0744.281-.0728.445.0062.7038.3763.7089 1.0135.0016.1948-.0044.2296-.0997.602-.1213.473-.3198 1.2008-.6092 2.2372-.403 1.4415-.5767 2.1418-.7467 3.0096-.259 1.3221-.2918 2.1752-.1109 2.874.0938.3629.1972.6007.3833.8817.4673.7057 1.1853 1.0511 2.1866 1.0511.6792 0 1.4471-.1318 2.1491-.3688 1.2701-.4288 2.4665-1.1803 3.7855-2.3776.092-.0836.17-.1485.1736-.1446.021.0584.0394.1176.0554.1776.1499.524.4081 1.0153.7074 1.346.4404.4867 1.0801.8434 1.8738 1.0441.5358.1356 1.015.1933 1.749.2095.4906.0111.5035.0108.4906-.0226-.0928-.2407-.1884-.698-.2347-1.1214-.0863-.7896-.0871-1.9886-.0015-2.8304.1579-1.5553.6125-3.0796 1.3453-4.5098.6585-1.286 1.2853-2.0484 1.8723-2.2787.1168-.0458.1706-.0556.3375-.062.1378-.0054.2391.0008.3309.0201.4525.0957.7076.3855.8175.9285.0338.1663.0284.7886-.0093 1.1221-.0675.593-.1696 1.1131-.381 1.9405-.2287.8949-.3339 1.5061-.3869 2.2466-.077 1.0747-.0132 1.7979.2181 2.4675.3836 1.1113 1.2634 1.7318 2.8173 1.9877.4293.0707.8224.1014 1.4458.1127.5601.0105.5756.01.5648-.0234-.006-.0188-.0476-.1395-.0923-.2677-.0956-.2749-.1773-.6627-.221-1.0513-.0385-.3436-.0437-1.4034-.0085-1.7792.1685-1.7971.7896-3.5459 1.9216-5.4087.8207-1.3504 1.5493-2.1111 2.1776-2.2735.1517-.0392.4575-.0294.5774.019.3381.1354.5278.4293.6048.9381.0346.2298.0346.724-.0008 1.0611-.0592.5685-.2212 1.4502-.4065 2.21-.3472 1.4283-.4317 1.8463-.5299 2.6276-.1644 1.3064-.0817 2.2159.2621 2.8851.299.5826.8248.9574 1.549 1.1035.5203.1056 1.2644.0914 1.9591-.0373 1.4409-.2661 2.8958-1.0176 4.2977-2.2197l.2559-.2193.0848.1467c.1276.2127.2679.4177.42.6138.1515.1925.6229.6501.8214.7978.7932.5902 1.7738.9335 2.9808 1.0447.5426.0499 1.4286.0383 2.1833-.0286 2.3592-.208 4.6957-.9265 6.9658-2.1423.3461-.185 1.161-.6511 1.4311-.8184.1225-.0759.2285-.1377.2352-.1377.0073 0 .0481.0703.0907.1567.2533.5091.6914 1.0972 1.1063 1.4863zm8.1224-4.2637c-.8198 1.3599-1.7795 2.1104-2.8663 2.2416-.3678.044-.6958.0139-.9178-.0849-.2957-.1313-.5687-.4288-.7791-.8475-.3008-.5994-.4187-1.2366-.3703-2.0036.0904-1.4335.4954-2.7074 1.2644-3.9755.5937-.9785 1.2277-1.6095 1.994-1.9829.4032-.1969.8188-.3063 1.2913-.3398.4166-.0298.6154.0219.834.2162.206.1835.3596.455.51.9041.1654.4929.2393.9356.2554 1.5301.0393 1.4649-.3761 2.9499-1.2156 4.3422zm-19.6394-.9127c1.6722-.6655 3.1837-1.8437 4.0767-3.1777.2781-.4156.4539-.8096.5092-1.1419.0266-.1575.0134-.4555-.0272-.6243-.032-.1346-.1145-.303-.1899-.3884-.0752-.0849-.2122-.1696-.3471-.2136-.135-.0445-.5149-.0535-.6904-.0165-.7462.1573-1.481.7258-2.2202 1.7192-.803 1.0786-1.2419 2.0962-1.3432 3.1151-.0264.2625-.0248.811.0023.811.0114.0002.1148-.0373.2298-.0829z" fill="#212b36" fill-rule="evenodd"/></g></svg>